<?xml version="1.0" encoding="UTF-8" standalone="no"?>
<svg
   xmlns:dc="http://purl.org/dc/elements/1.1/"
   xmlns:cc="http://creativecommons.org/ns#"
   xmlns:rdf="http://www.w3.org/1999/02/22-rdf-syntax-ns#"
   xmlns:svg="http://www.w3.org/2000/svg"
   xmlns="http://www.w3.org/2000/svg"
   xmlns:xlink="http://www.w3.org/1999/xlink"
   xmlns:sodipodi="http://sodipodi.sourceforge.net/DTD/sodipodi-0.dtd"
   xmlns:inkscape="http://www.inkscape.org/namespaces/inkscape"
   version="1.1"
   viewBox="0 0 32 60"
   x="0px"
   y="0px"
   id="svg87"
   sodipodi:docname="amazon_echo.svg"
   width="32"
   height="60"
   inkscape:version="0.92.1 r15371">
  <metadata
     id="metadata91">
    <rdf:RDF>
      <cc:Work
         rdf:about="">
        <dc:format>image/svg+xml</dc:format>
        <dc:type
           rdf:resource="http://purl.org/dc/dcmitype/StillImage" />
        <dc:title></dc:title>
      </cc:Work>
    </rdf:RDF>
  </metadata>
  <sodipodi:namedview
     pagecolor="#ffffff"
     bordercolor="#666666"
     borderopacity="1"
     objecttolerance="10"
     gridtolerance="10"
     guidetolerance="10"
     inkscape:pageopacity="0"
     inkscape:pageshadow="2"
     inkscape:window-width="1366"
     inkscape:window-height="745"
     id="namedview89"
     showgrid="false"
     inkscape:zoom="3.1466667"
     inkscape:cx="30"
     inkscape:cy="37.5"
     inkscape:window-x="-8"
     inkscape:window-y="-8"
     inkscape:window-maximized="1"
     inkscape:current-layer="svg87" />
  <defs
     id="defs3">
    <path
       id="a"
       d="m 5,2 h -4 -4e-8 C 0.44771496,2 -4.37114e-8,1.552285 -4.37114e-8,1 -1.95703e-8,0.447715 0.44771496,0 0.99999996,0 H 5 V 0 C 5.552285,4.1696301e-8 6,0.447715 6,1 6,1.552285 5.552285,2 5,2 Z"
       inkscape:connector-curvature="0" />
  </defs>
  <g
     id="g81"
     style="fill:#000000"
     transform="translate(-14)">
    <path
       d="M 16,14 C 6.87891,14 0,10.99072 0,7 0,3.00928 6.87891,0 16,0 c 9.12109,0 16,3.00928 16,7 0,3.99072 -6.87891,7 -16,7 z M 16,2 C 7.75,2 2,4.63525 2,7 2,9.36475 7.75,12 16,12 24.25,12 30,9.36475 30,7 30,4.63525 24.25,2 16,2 Z"
       transform="translate(14)"
       id="path5"
       inkscape:connector-curvature="0" />
    <path
       d="M 16,8 C 6.87891,8 0,4.99072 0,1 v 2e-7 C -8.3392689e-8,0.44771515 0.447715,1.50996e-7 1,1.50996e-7 1.552285,6.76033e-8 2,0.44771515 2,1.0000002 c 0,0 0,0 0,0 0,2.36035 5.9873,5 14,5 8.0127,0 14,-2.63965 14,-5 v 1e-7 C 30,0.4477153 30.447715,3.01992e-7 31,3.01992e-7 31.552285,2.185993e-7 32,0.4477153 32,1.0000003 c 0,0 0,0 0,0 0,3.99072 -6.87891,7 -16,6.9999997 z"
       transform="translate(14,13)"
       id="path7"
       inkscape:connector-curvature="0" />
    <path
       d="M 16,7 C 8.04883,7 0,4.939 0,1 v 2e-7 C -8.3392689e-8,0.44771515 0.447715,1.50996e-7 1,1.50996e-7 1.552285,6.76033e-8 2,0.44771515 2,1.0000002 c 0,0 0,0 0,0 0,1.63086 5.4541,4 14,4 8.5459,0 14,-2.36914 14,-4 v 1e-7 C 30,0.4477153 30.447715,3.01992e-7 31,3.01992e-7 31.552285,2.185993e-7 32,0.4477153 32,1.0000003 c 0,0 0,0 0,0 0,3.939 -8.04883,6 -16,5.9999997 z"
       transform="translate(14,19)"
       id="path9"
       inkscape:connector-curvature="0" />
    <path
       d="M 16,8 C 6.87891,8 0,4.99072 0,1 v 2e-7 C -8.3392689e-8,0.44771515 0.447715,1.50996e-7 1,1.50996e-7 1.552285,6.76033e-8 2,0.44771515 2,1.0000002 c 0,0 0,0 0,0 0,2.36035 5.9873,5 14,5 8.0127,0 14,-2.63965 14,-5 v 1e-7 C 30,0.4477153 30.447715,3.0199201e-7 31,3.0199201e-7 31.552285,2.1859931e-7 32,0.4477153 32,1.0000003 c 0,0 0,0 0,0 0,3.99072 -6.87891,7 -16,6.9999997 z"
       transform="translate(14,52)"
       id="path11"
       inkscape:connector-curvature="0" />
    <path
       d="m 1,48 h -3e-8 C 0.44785897,48.000144 1.4396952e-4,47.552661 -3.04806e-8,47.00052 -7.55654e-8,47.000347 -7.55601e-8,47.000173 -3.0464727e-8,47 V 0.99999993 l 9e-15,-1.1e-7 C 5.2927982e-8,0.44771482 0.44771497,-1.7684107e-7 0.99999997,-1.7684107e-7 1.552285,-9.3448369e-8 2,0.44771482 2,0.99999982 V 47 47.00026 C 2,47.552401 1.552401,48 1.00026,48 c -1.734e-4,0 -3.4671e-4,0 -5.2006e-4,0 z"
       transform="translate(14,6)"
       id="path13"
       inkscape:connector-curvature="0" />
    <path
       d="m 1,48 h -3e-8 C 0.44785897,48.000144 1.4396952e-4,47.552661 -3.04806e-8,47.00052 -7.55654e-8,47.000347 -7.55601e-8,47.000173 -3.0464727e-8,47 V 0.99999993 l 1.5e-14,1.7e-7 C -1.1385741e-7,0.44771508 0.44771497,8.3003931e-8 0.99999997,8.3003931e-8 1.552285,0 2,0.44771508 2,1.0000001 c 0,0 0,0 0,0 V 47 47.00026 C 2,47.552401 1.552401,48 1.00026,48 c -1.734e-4,0 -3.4671e-4,0 -5.2006e-4,0 z"
       transform="translate(44,6)"
       id="path15"
       inkscape:connector-curvature="0" />
    <use
       transform="translate(19,6)"
       xlink:href="#a"
       id="use17"
       x="0"
       y="0"
       width="100%"
       height="100%" />
    <use
       transform="translate(35,6)"
       xlink:href="#a"
       id="use19"
       x="0"
       y="0"
       width="100%"
       height="100%" />
    <path
       d="m 5,2 h -4 -4e-8 C 0.44771496,2 -4.37114e-8,1.552285 -4.37114e-8,1 -1.95703e-8,0.447715 0.44771496,0 0.99999996,0 H 5 h -1e-7 c 0.552285,-2.41411e-8 1,0.447715 1,1 0,0.552285 -0.447715,1 -0.9999999,1 z"
       transform="translate(27,4)"
       id="path21"
       inkscape:connector-curvature="0" />
    <path
       d="m 5,2 h -4 -4e-8 C 0.44771496,2 -4.37114e-8,1.552285 -4.37114e-8,1 -1.95703e-8,0.447715 0.44771496,0 0.99999996,0 H 5 h -1e-7 c 0.552285,-2.41411e-8 1,0.447715 1,1 0,0.552285 -0.447715,1 -0.9999999,1 z"
       transform="translate(27,8)"
       id="path23"
       inkscape:connector-curvature="0" />
    <path
       d="m 1.00006,2.10789 v 0 C 0.45309199,2.1132067 0.00537699,1.674112 5.998691e-5,1.127144 -2.3954898e-6,1.120724 -2.3953898e-6,1.114308 5.9987187e-5,1.10789 l -2.6718e-8,4.4e-6 C 0.00167724,0.84271178 0.10555796,0.58837978 0.29005696,0.39789378 l 1e-8,-10e-9 C 0.67994497,0.00358277 1.315667,-3.2314081e-6 1.709977,0.38988462 c 0.394311,0.389888 0.397897,1.02560998 0.00801,1.41991998 -0.189577,0.191728 -0.4483,0.299151 -0.717925,0.298087 z"
       transform="translate(20.9999,38.8921)"
       id="path25"
       inkscape:connector-curvature="0" />
    <path
       d="m 1.0037,2.10791 v 0 C 0.45673199,2.1132267 0.00901699,1.674132 0.00369999,1.127164 c -6.239e-5,-0.00642 -6.239e-5,-0.012836 0,-0.019254 l 1e-8,6e-7 C -3.6158754e-6,0.976578 0.027438,0.846233 0.0837797,0.727541 l -3e-8,8e-8 c 0.0482523,-0.122295 0.119544,-0.234185 0.21,-0.32959 v 10e-9 c 0.389868,-0.394332 1.02559003,-0.3979500027684 1.41992003,-0.008083 0.394332,0.389868 0.39795,1.02558991 0.00808,1.41992001 -0.189609,0.19178 -0.448396,0.29922 -0.718081,0.298124 z"
       transform="translate(20.9963,42.8921)"
       id="path27"
       inkscape:connector-curvature="0" />
    <path
       d="m 1.00223,2.01032 v 0 C 0.73750997,2.0064052 0.48399197,1.902856 0.29222997,1.72032 l -1.3e-7,-1e-7 c -0.1845,-0.190485 -0.288381,-0.444817 -0.29,-0.71 l 10e-9,10e-7 C -2.9613266e-6,0.45580387 0.44771185,0.00447087 1.0022288,0.00224087 c 0.554517,-0.00223281133 1.00585,0.445482 1.00808,0.99999903 0.00223,0.554517 -0.445482,1.00585 -0.999999,1.00808 -0.00269,1.08e-5 -0.00539,1.08e-5 -0.00808,1e-7 z"
       transform="translate(20.9978,46.9897)"
       id="path29"
       inkscape:connector-curvature="0" />
    <path
       d="m 1.09672,2.10793 v 0 C 0.83199997,2.1040152 0.57848197,2.000466 0.38671997,1.81793 l -7e-8,-1e-7 C -1.041924e-7,1.4236169 -1.041924e-7,0.79231993 0.38672004,0.39800993 l 4e-8,-4e-8 c 0.389846,-0.394353 1.02556002,-0.398007001316 1.41992002,-0.008161 0.394353,0.389846 0.398007,1.02556001 0.00816,1.41992001 -0.189602,0.191794 -0.448389,0.299249 -0.718079,0.298164 z"
       transform="translate(20.9033,50.8921)"
       id="path31"
       inkscape:connector-curvature="0" />
    <path
       d="m 1,2.08833 h -3e-8 c -0.0671286,-0.00182 -0.134037,-0.00851 -0.200199,-0.02 h -4e-8 c -0.0625121,-0.011122 -0.123054,-0.031358 -0.17969,-0.06006 h -10e-9 C 0.55614942,1.98631 0.49539592,1.955933 0.43945092,1.91794 0.38965042,1.87833 0.33984042,1.83833 0.29000092,1.79833 l -6e-8,-1e-7 C 0.10715786,1.606767 0.00355686,1.353123 8.5755117e-7,1.08833 l -2.31777e-8,2e-6 C 0.00155759,0.95752497 0.02876453,0.82829397 0.08008003,0.70796197 l -10e-9,3e-8 c 0.0507098,-0.121026 0.121732,-0.232494 0.21,-0.32959 l 0.14941,-0.12012 -4e-8,3e-8 c 0.0559449,-0.0379932 0.116698,-0.0683701 0.18066,-0.09033 l -2e-8,10e-9 c 0.0565516,-0.0287722 0.117115,-0.0488616 0.179651,-0.0595919 v 0 C 1.341199,-8.567054e-7 1.867911,0.35106914 1.976241,0.89246714 2.084572,1.4338651 1.733502,1.9605771 1.192104,2.0689071 1.1288469,2.0815645 1.064513,2.0880694 1.000003,2.0883307 Z"
       transform="translate(17,36.9117)"
       id="path33"
       inkscape:connector-curvature="0" />
    <path
       d="m 1,2.02086 h -3e-8 c -0.0671286,-0.00182 -0.134037,-0.00851 -0.200199,-0.02 h -4e-8 C 0.73728883,1.989738 0.67674693,1.969502 0.62011093,1.9408 h -10e-9 C 0.55614942,1.91884 0.49539592,1.888463 0.43945092,1.85047 0.38965042,1.81086 0.33984042,1.77086 0.29000092,1.73086 l -6e-8,-1e-7 C 0.10715786,1.539297 0.00355686,1.285653 8.5755117e-7,1.02086 l -2.67183e-8,4.4e-6 C 0.00161811,0.7556814 0.10549883,0.5013494 0.28999783,0.3108634 l 0.14941,-0.12012 -4e-8,3e-8 c 0.0559449,-0.0379932 0.116698,-0.0683701 0.18066,-0.09033 l -6e-8,3e-8 c 0.0565795,-0.0287666 0.117171,-0.0488431 0.179733,-0.0595532 l -6e-8,10e-9 c 0.194854,-0.040863997793 0.39759803,-0.0200438 0.58008003,0.05957 v 0 c 0.11937,0.0487843 0.228148,0.120253 0.32031,0.21045 v 10e-9 c 0.392116,0.388926 0.394701,1.02209002 0.00577,1.41420002 -0.186784,0.188315 -0.440729,0.294711 -0.705964,0.295778 z"
       transform="translate(17,40.9791)"
       id="path35"
       inkscape:connector-curvature="0" />
    <path
       d="m 1.02677,2.08766 v 0 C 0.9596414,2.08584 0.89273297,2.07915 0.82657097,2.06766 h -4e-8 C 0.76405883,2.056538 0.70351693,2.036302 0.64688093,2.0076 h -1e-8 C 0.58291942,1.98564 0.52216592,1.955263 0.46622092,1.91727 0.41642042,1.87766 0.36661042,1.83766 0.31677092,1.79766 h 5e-8 c -0.0882781,-0.097271 -0.159299,-0.208902 -0.21,-0.33008 l 4e-8,10e-8 C 1.0061257e-6,1.2254092 1.0061257e-6,0.94950122 0.10677094,0.70733022 l -3e-8,8e-8 c 0.0482523,-0.122295 0.119544,-0.234185 0.21,-0.32959 l -1e-7,9e-8 c 0.0472492,-0.0431168 0.0971498,-0.083235 0.149409,-0.12012 l -4e-8,3e-8 c 0.0559449,-0.0379932 0.116698,-0.0683701 0.18066,-0.09033 l -8e-8,4e-8 c 0.0565744,-0.0287933 0.117165,-0.048896 0.179731,-0.0596309 l -5e-8,10e-9 C 1.3712396,3.5684568e-6 1.9000506,0.35427157 2.0077106,0.89894057 c 0.012287,0.062165 0.018669,0.12535303 0.019061,0.18871903 v -1e-7 c -0.0085,0.548727 -0.451273,0.991503 -1,1 z"
       transform="translate(16.9732,44.9123)"
       id="path37"
       inkscape:connector-curvature="0" />
    <path
       d="m 1,2.04867 h -3e-8 c -0.0671286,-0.00182 -0.134037,-0.00851 -0.200199,-0.02 h -4e-8 c -0.0625121,-0.011122 -0.123054,-0.031358 -0.17969,-0.06006 h -10e-9 c -0.0639615,-0.02196 -0.124715,-0.052337 -0.18066,-0.09033 l -6e-8,-1e-7 c -0.0522705,-0.036704 -0.102186,-0.076652 -0.14945,-0.11961 l 3e-8,1e-7 c -0.0903618,-0.095665 -0.161637,-0.207695 -0.21,-0.33008 l 4e-8,1e-7 C 0.02875853,1.3083962 0.00157923,1.1793222 9.3381517e-7,1.0486702 l -8.65237e-9,6e-7 C 0.00346468,0.78385884 0.10707893,0.53018284 0.29000093,0.33867084 l -1e-7,9e-8 c 0.0472492,-0.0431168 0.0971498,-0.083235 0.149409,-0.12012 l -4e-8,2e-8 c 0.0559449,-0.0379932 0.116698,-0.0683701 0.18066,-0.09033 l -5e-8,3e-8 c 0.0565789,-0.0287657 0.11717,-0.0488414 0.179731,-0.0595511 l -4e-8,10e-9 c 0.326504,-0.0686694022585 0.665548,0.0329997 0.90039,0.27 v 1e-8 c 0.189085,0.188255 0.296739,0.443197 0.29981,0.71 v 2e-7 c -0.00161,0.130643 -0.028815,0.259704 -0.08008,0.37988 v 0 c -0.048235,0.124765 -0.12324,0.237437 -0.21973,0.33008 v -1e-7 C 1.5131586,1.942332 1.2621496,2.046308 1,2.04867 Z"
       transform="translate(17,48.9513)"
       id="path39"
       inkscape:connector-curvature="0" />
    <path
       d="m 1.00227,2.06596 v 0 C 0.447753,2.0637725 0,1.612474 0.00219,1.05796 0.00322732,0.795003 0.107382,0.542948 0.292271,0.355963 l 3e-8,-3e-8 c 0.0955647,-0.0906018 0.207614,-0.162041 0.33008,-0.21045 l 10e-9,-10e-9 C 0.99587804,5.9624889e-6 1.419767,0.08185316 1.712271,0.35596296 l 10e-8,10e-9 c 0.38672,0.394313 0.38672,1.02561003 -10e-8,1.41992003 l 10e-8,-1e-7 c -0.049031,0.045398 -0.102714,0.085497 -0.16016,0.11963 v 0 c -0.050989,0.039711 -0.108482,0.070275 -0.16992,0.09033 v 0 c -0.059816,0.030173 -0.124126,0.050456 -0.19043,0.06006 h 1e-7 c -0.062559,0.011508 -0.125908,0.018214 -0.18949,0.02006 z"
       transform="translate(24.9977,39.934)"
       id="path41"
       inkscape:connector-curvature="0" />
    <path
       d="m 0.986026,1.98611 h 1e-8 C 0.43905801,1.980749 1.15147e-8,1.532998 0.00536101,0.98603 0.01072205,0.439062 0.45847301,4.0001129e-6 1.005441,0.005365 1.552409,0.01072604 1.991467,0.458477 1.986106,1.005445 1.9835643,1.264766 1.879413,1.512745 1.696027,1.69611 v 0 C 1.646996,1.741508 1.593313,1.781607 1.535867,1.81574 h 10e-8 c -0.050989,0.039711 -0.108482,0.070275 -0.16992,0.09033 v 0 c -0.059816,0.030173 -0.124126,0.050456 -0.19043,0.06006 v -10e-8 c -0.062562,0.011481 -0.12591,0.018161 -0.18948999,0.01998 z"
       transform="translate(25.014,44.0139)"
       id="path43"
       inkscape:connector-curvature="0" />
    <path
       d="m 1.00006,2.10146 v 0 C 0.45309199,2.1067767 0.00537699,1.667682 5.998691e-5,1.120714 -2.3954898e-6,1.114294 -2.3953898e-6,1.107878 5.9987187e-5,1.10146 l -2.3178e-8,1.9e-6 C 0.00161672,0.97065535 0.02882366,0.84142435 0.08013916,0.72109235 l -3e-8,8e-8 c 0.0482523,-0.122295 0.119544,-0.234185 0.21,-0.32959 l 6e-8,-6e-8 c 0.392713,-0.3914979978899 1.02844001,-0.39051299789 1.41994001,0.0022 0.390648,0.39186 0.390639,1.02590993 -1.86e-5,1.41775993 h 1e-7 c -0.049031,0.045398 -0.102714,0.085497 -0.16016,0.11963 v 0 c -0.050989,0.039711 -0.108482,0.070275 -0.16992,0.09033 v 0 c -0.059816,0.030173 -0.124126,0.050456 -0.19043,0.06006 h 10e-8 c -0.062562,0.011481 -0.12591,0.018161 -0.18949,0.01998 z"
       transform="translate(24.9999,47.8985)"
       id="path45"
       inkscape:connector-curvature="0" />
    <path
       d="m 1.00006,2.13383 v 0 C 0.45309199,2.1391467 0.00537699,1.700052 5.998691e-5,1.153084 -2.3954898e-6,1.146664 -2.3953898e-6,1.140248 5.9987187e-5,1.13383 l -2.3178e-8,1.9e-6 C 0.00161672,1.0030253 0.02882366,0.87379435 0.08013916,0.75346235 l -3e-8,8e-8 c 0.213346,-0.511646 0.801069,-0.7534650000177 1.31270997,-0.540119 0.118194,0.0492848 0.225866,0.120732 0.317206,0.210487 v 10e-9 c 0.38672,0.394313 0.38672,1.02560996 0,1.41991996 h 1e-7 c -0.049031,0.045398 -0.102714,0.085497 -0.16016,0.11963 v 0 c -0.050989,0.039711 -0.108482,0.070275 -0.16992,0.09033 v 0 c -0.059816,0.030173 -0.124126,0.050456 -0.19043,0.06006 v 0 c -0.062559,0.011508 -0.125908,0.018214 -0.18949,0.02006 z"
       transform="translate(24.9999,51.8662)"
       id="path47"
       inkscape:connector-curvature="0" />
    <path
       d="m 1.09672,2.07197 v 0 C 0.83158997,2.070086 0.57735297,1.966243 0.38671997,1.78197 l -7e-8,-1e-7 C -9.94523e-8,1.3876569 -9.94523e-8,0.75635993 0.38672004,0.36204993 l -2e-8,2e-8 C 0.67639002,0.08249795 1.103634,-3.0522861e-6 1.47656,0.15159995 v -3e-8 c 0.121156,0.0509509 0.232793,0.122083 0.33016,0.21037 v -10e-9 c 0.182536,0.191762 0.286085,0.44528 0.29,0.70999999 v -2.2e-6 c -0.00151,0.06701 -0.00837,0.133792 -0.02051,0.19971 v 1e-7 c -0.010489,0.062762 -0.030581,0.123534 -0.05957,0.18018 v 0 c -0.02199,0.063709 -0.052191,0.124279 -0.08984,0.18018 -0.04,0.0498 -0.08008,0.09961 -0.12012,0.1499 l -1e-7,1e-7 c -0.097476,0.088009 -0.209059,0.158999 -0.33008,0.21 l 10e-8,-10e-8 C 1.3564214,2.0431863 1.2273604,2.0703767 1.09672,2.07197 Z"
       transform="translate(28.9033,39.928)"
       id="path49"
       inkscape:connector-curvature="0" />
    <path
       d="m 1.00227,2.07205 v 0 C 0.447753,2.0698625 0,1.618564 0.00219,1.06405 0.00322732,0.801093 0.107382,0.549038 0.292271,0.362053 l -2e-8,2e-8 C 0.58194098,0.08250102 1.009185,2.1072206e-8 1.382111,0.15160302 l -1e-7,-3e-8 c 0.121162,0.0509752 0.232799,0.122135 0.33016,0.21045 v 10e-9 c 0.392132,0.38891 0.394743,1.02207 0.00583,1.4142 -0.189188,0.190755 -0.447174,0.297361 -0.715832,0.295799 z"
       transform="translate(28.9977,43.9279)"
       id="path51"
       inkscape:connector-curvature="0" />
    <path
       d="m 1.00227,2.07728 v 0 C 0.447753,2.0750925 0,1.623794 0.00219,1.06928 0.00322732,0.806323 0.107382,0.554268 0.292271,0.367283 l -3e-8,3e-8 C 0.57950297,0.08307603 1.009713,2.0307785e-6 1.382111,0.15683303 l -1e-7,-3e-8 c 0.121162,0.0509752 0.232799,0.122135 0.33016,0.21045 v 10e-9 c 0.392132,0.38891 0.394743,1.02206999 0.00583,1.41419999 -0.189188,0.190755 -0.447174,0.297361 -0.715832,0.295799 z"
       transform="translate(28.9977,47.9227)"
       id="path53"
       inkscape:connector-curvature="0" />
    <path
       d="M 1.00368,2 V 2 C 0.73895997,1.9960852 0.48544197,1.892536 0.29367997,1.71 l 5e-8,1e-7 c -0.0882781,-0.097271 -0.159299,-0.208902 -0.21,-0.33008 l -7e-8,-2e-7 C 0.02741035,1.2613659 -3.3506114e-6,1.1311779 0.00368005,0.99999991 v 1.9e-7 C 0.00367997,0.44771506 0.45139505,6.1593305e-8 1.00368,6.1593305e-8 1.555965,-2.1799395e-8 2.00368,0.44771506 2.00368,1.0000001 c 0,0 0,0 0,0 v 10e-8 c -0.00161,0.130643 -0.028815,0.259704 -0.08008,0.37988 v 1e-7 c -0.050701,0.121178 -0.121722,0.232809 -0.21,0.33008 v 0 C 1.5217619,1.8923343 1.2683399,1.9958703 1.00368,2 Z"
       transform="translate(28.9963,52)"
       id="path55"
       inkscape:connector-curvature="0" />
    <path
       d="m 1.02677,2.08004 v 0 C 0.76204997,2.0761252 0.50853197,1.972576 0.31676997,1.79004 l 5e-8,10e-8 c -0.0882781,-0.097271 -0.159299,-0.208902 -0.21,-0.33008 h 3e-8 C 5.0843e-8,1.2177891 5.0843e-8,0.94188113 0.10676999,0.69971013 l -2e-8,4e-8 c 0.0507098,-0.121026 0.121732,-0.232494 0.21,-0.32959 l 3e-8,-3e-8 C 0.717718,-2.8648983e-6 1.33574,-2.8648983e-6 1.73669,0.3701202 v 10e-9 c 0.088268,0.0970958 0.15929,0.208564 0.21,0.32959 v 0 c 0.10677,0.242171 0.10677,0.51807899 0,0.76024999 v 1e-7 c -0.050701,0.121178 -0.121722,0.232809 -0.21,0.33008 v 0 C 1.544846,1.9723993 1.291424,2.0759213 1.02677,2.08004 Z"
       transform="translate(32.9732,39.92)"
       id="path57"
       inkscape:connector-curvature="0" />
    <path
       d="m 0.986026,1.98611 h 1e-8 C 0.43905801,1.980749 1.15147e-8,1.532998 0.00536101,0.98603 0.01072205,0.439062 0.45847301,4.0001129e-6 1.005441,0.005365 1.552409,0.01072604 1.991467,0.458477 1.986106,1.005445 1.9835643,1.264766 1.879413,1.512745 1.696027,1.69611 v 0 c -0.191762,0.182536 -0.44528,0.286085 -0.710001,0.29 z"
       transform="translate(33.014,44.0139)"
       id="path59"
       inkscape:connector-curvature="0" />
    <path
       d="m 1.01032,2.01032 v 0 C 0.45580296,2.01255 0.00446996,1.564837 0.00223996,1.01032 7.7227063e-6,0.455803 0.44772296,0.00447 1.00224,0.00224 c 0.554517,-0.00223223985 1.00585,0.445483 1.00808,1 1.08e-5,0.00269 1.08e-5,0.00539 0,0.00808 v -2.2e-6 c -0.00151,0.06701 -0.00837,0.133792 -0.02051,0.19971 v 1e-7 c -0.010489,0.062762 -0.030581,0.123534 -0.05957,0.18018 v 1e-7 C 1.90825,1.453917 1.878049,1.514487 1.8404,1.570388 c -0.04,0.0498 -0.08008,0.09961 -0.12012,0.1499 v -1e-7 C 1.529455,1.9042459 1.275366,2.0080469 1.01032,2.01032 Z"
       transform="translate(32.9897,47.9897)"
       id="path61"
       inkscape:connector-curvature="0" />
    <path
       d="m 1.00006,2.08008 v 0 C 0.45309199,2.0853967 0.00537699,1.646302 5.998691e-5,1.099334 -2.3954898e-6,1.092914 -2.3953898e-6,1.086498 5.9987187e-5,1.08008 l -2.3178e-8,1.9e-6 C 0.00161672,0.94927535 0.02882366,0.82004435 0.08013916,0.69971235 l -10e-9,3e-8 c 0.0507098,-0.121026 0.121732,-0.232494 0.21,-0.32959 l 3e-8,-3e-8 C 0.69108718,-6.4706836e-7 1.3091092,-6.4706836e-7 1.7100592,0.37012241 v 10e-9 c 0.088268,0.0970958 0.15929,0.208564 0.21,0.32959 v -3e-8 c 0.051288,0.120337 0.078469,0.249567 0.080001,0.38036801 v 3.3e-6 c 0.00531,0.546968 -0.433782,0.994682 -0.98075,0.999997 -0.00642,6.24e-5 -0.012836,6.23e-5 -0.019254,-10e-8 z"
       transform="translate(32.9999,51.9199)"
       id="path63"
       inkscape:connector-curvature="0" />
    <path
       d="m 1,2.08012 h -3e-8 c -0.0671286,-0.00182 -0.134037,-0.00851 -0.200199,-0.02 h -4e-8 c -0.0625121,-0.011122 -0.123054,-0.031358 -0.17969,-0.06006 h -10e-9 C 0.55614942,1.9781 0.49539592,1.947723 0.43945092,1.90973 0.38965042,1.87012 0.33984042,1.83012 0.29000092,1.79012 h 5e-8 c -0.0882781,-0.097271 -0.159299,-0.208902 -0.21,-0.33008 h -3e-8 C 0.02875854,1.339846 0.00157924,1.210772 9.446e-7,1.08012 l -2.67183e-8,4.4e-6 C 0.0016182,0.81494146 0.10549892,0.56060946 0.28999792,0.37012346 l 3e-8,-4e-8 C 0.69094795,5.4246437e-6 1.308968,5.4246437e-6 1.709918,0.37012349 c 0.04,0.0498 0.08008,0.09961 0.12012,0.15967 l -1e-7,-2e-8 c 0.039282,0.0511891 0.069655,0.108634 0.08984,0.16992 l 1e-7,4e-8 c 0.028989,0.0566457 0.049081,0.117418 0.05957,0.18018 v 2.4e-7 C 1.99163,0.94598065 1.998503,1.0129368 2.000001,1.0801198 v 10e-8 c -0.00161,0.130643 -0.028815,0.259704 -0.08008,0.37988 v 1e-7 c -0.050701,0.121178 -0.121722,0.232809 -0.21,0.33008 v 0 C 1.5180829,1.972454 1.2646609,2.07599 1,2.08012 Z"
       transform="translate(37,38.9199)"
       id="path65"
       inkscape:connector-curvature="0" />
    <path
       d="m 1.00006,2.04577 v 0 C 0.45309199,2.0510867 0.00537699,1.611992 5.998691e-5,1.065024 -2.3954898e-6,1.058604 -2.3953898e-6,1.052188 5.9987187e-5,1.04577 l -2.3178e-8,1.9e-6 C 0.00161672,0.91496535 0.02882366,0.78573435 0.08013916,0.66540235 l -10e-9,3e-8 c 0.0507098,-0.121026 0.121732,-0.232494 0.21,-0.32959 l 0.14941,-0.12012 -4e-8,3e-8 c 0.0559449,-0.0379932 0.116698,-0.0683701 0.18066,-0.09033 l 10e-9,-10e-9 c 0.0565516,-0.0287722 0.117115,-0.0488616 0.179651,-0.0595919 l -2e-8,1e-8 c 0.329356,-0.065767401264 0.669947,0.0352694 0.91016,0.27 v 10e-9 c 0.088268,0.0970958 0.15929,0.208564 0.21,0.32959 v 4e-8 c 0.051307,0.120347 0.078501,0.249592 0.08004,0.38041004 l 1e-7,-2.3e-6 c -0.00151,0.06701 -0.00837,0.133792 -0.02051,0.19971 v 1e-7 c -0.010489,0.062762 -0.030581,0.123534 -0.05957,0.18018 v 0 c -0.019975,0.061376 -0.050365,0.118855 -0.08984,0.16992 -0.04,0.06006 -0.08008,0.10986 -0.12012,0.16016 v 0 c -0.191849,0.18238 -0.445287,0.285915 -0.70996,0.290033 z"
       transform="translate(36.9999,42.9542)"
       id="path67"
       inkscape:connector-curvature="0" />
    <path
       d="m 1.00321,2.00736 v 0 C 0.9360814,2.00554 0.86917297,1.99885 0.80301097,1.98736 h -4e-8 C 0.74049883,1.976238 0.67995693,1.956002 0.62332093,1.9273 h -1e-8 C 0.55935942,1.90534 0.49860592,1.874963 0.44266092,1.83697 0.39286042,1.79736 0.34305042,1.75736 0.29321092,1.71736 h 5e-8 c -0.0882781,-0.097271 -0.159299,-0.208902 -0.21,-0.33008 h -3e-8 c -0.0512424,-0.120194 -0.0784217,-0.249268 -0.08,-0.37992 l -4e-8,-7.2e-6 C 3.1031e-6,0.45507784 0.4451099,0.00477284 0.9973859,0.00156284 c 0.268658,-0.00156045238 0.526644,0.105047 0.71583,0.295804 0.04,0.0498 0.08008,0.09961 0.12012,0.15967 v -2e-8 c 0.039282,0.0511891 0.069655,0.108634 0.08984,0.16992 v 4e-8 c 0.028989,0.0566457 0.049081,0.117418 0.05957,0.18018 v -3e-8 c 0.012152,0.0660887 0.018996,0.133044 0.020465,0.20022397 v 2e-7 c -0.00161,0.130643 -0.028815,0.259704 -0.08008,0.37988 v 1e-7 c -0.050701,0.121178 -0.121722,0.232809 -0.21,0.33008 h -10e-8 c -0.191838,0.182374 -0.44526,0.28591 -0.70992,0.29004 z"
       transform="translate(36.9968,46.9926)"
       id="path69"
       inkscape:connector-curvature="0" />
    <path
       d="m 1.00227,2.09427 v 0 C 0.447753,2.0920825 0,1.640784 0.00219,1.08627 0.00322732,0.823313 0.107382,0.571258 0.292271,0.384273 l 0.14941,-0.12012 -4e-8,3e-8 c 0.0559449,-0.0379932 0.116698,-0.0683701 0.18066,-0.09033 l -8e-8,4e-8 c 0.0565786,-0.0287652 0.117169,-0.0488406 0.17973,-0.05955 l -4e-8,10e-9 C 1.3386388,2.0764991e-6 1.8662508,0.34234108 1.9805208,0.87890908 c 0.015074,0.0707813 0.022368,0.14299802 0.021752,0.21536402 l 10e-8,-2.3e-6 c -0.00151,0.06701 -0.00837,0.133792 -0.02051,0.19971 v 2e-7 c -0.010489,0.062762 -0.030581,0.123534 -0.05957,0.18018 v 0 c -0.02199,0.063709 -0.052191,0.124279 -0.08984,0.18018 -0.04,0.0498 -0.08008,0.09961 -0.12012,0.1499 v 0 c -0.191849,0.182381 -0.445287,0.285915 -0.70996,0.290033 z"
       transform="translate(36.9977,50.9057)"
       id="path71"
       inkscape:connector-curvature="0" />
    <path
       d="M 1.00368,2 V 2 C 0.73895997,1.9960852 0.48544197,1.892536 0.29367997,1.71 l -7e-8,-1e-7 c -0.0924422,-0.094028 -0.164001,-0.206505 -0.21,-0.33008 v 0 C 0.0274103,1.2613659 -3.403754e-6,1.1311779 0.00368,0.99999992 v 1.8e-7 C 0.00367991,0.44771507 0.451395,7.0553705e-8 1.00368,7.0553705e-8 1.555965,-1.2838995e-8 2.00368,0.44771507 2.00368,1.0000001 c 0,0 0,0 0,0 v 10e-8 c -0.00161,0.130643 -0.028815,0.259704 -0.08008,0.37988 v 0 c -0.048363,0.122385 -0.119638,0.234415 -0.21,0.33008 v 0 C 1.5217619,1.8923342 1.2683399,1.9958702 1.00368,2 Z"
       transform="translate(40.9963,37)"
       id="path73"
       inkscape:connector-curvature="0" />
    <path
       d="m 1.0037,2.08008 v 0 C 0.45673199,2.0853967 0.00901699,1.646302 0.00369999,1.099334 c -6.239e-5,-0.00642 -6.239e-5,-0.012836 0,-0.019254 l 1e-8,6e-7 C -3.6158754e-6,0.948748 0.027438,0.818403 0.0837797,0.699711 l -3e-8,8e-8 c 0.0482523,-0.122295 0.119544,-0.234185 0.21,-0.32959 l 4e-8,-3e-8 c 0.400948,-0.3701230003647 1.01896999,-0.3701230003647 1.41991999,6e-8 v 1e-8 c 0.088268,0.0970958 0.15929,0.208564 0.21,0.32959 v 3e-8 c 0.051288,0.120337 0.078468,0.249567 0.08,0.38036895 v 5e-7 c -0.00401,0.264701 -0.107544,0.518187 -0.29,0.71 v 1e-7 C 1.5228601,1.9740367 1.2687561,2.0778257 1.0037,2.08008 Z"
       transform="translate(40.9963,40.9199)"
       id="path75"
       inkscape:connector-curvature="0" />
    <path
       d="m 1.00368,2.04576 v 0 C 0.73895997,2.0418452 0.48544197,1.938296 0.29367997,1.75576 l 5e-8,1e-7 c -0.0882781,-0.097271 -0.159299,-0.208902 -0.21,-0.33008 l -7e-8,-2e-7 C 0.02741035,1.3071259 -3.3506115e-6,1.1769379 0.00368005,1.0457599 l -3e-8,4.4e-6 c 0.00161728,-0.26518301 0.105498,-0.51951501 0.289997,-0.71000101 l -4e-8,4e-8 c 0.240213,-0.234731 0.580804,-0.3357670022214 0.91016002,-0.27 v 0 c 0.062511,0.0108673 0.123066,0.0309422 0.17969,0.0595699 v -10e-9 c 0.063651,0.0219762 0.124082,0.0523547 0.17969,0.09033 0.0498,0.04 0.10059,0.08008 0.15039,0.12012 0.04,0.0498 0.08008,0.09961 0.12012,0.1499 v 3e-8 c 0.037546,0.0557858 0.067742,0.11618 0.08984,0.17969 v 3e-8 c 0.028989,0.0566457 0.049081,0.117418 0.05957,0.18018 v 2.1e-7 c 0.012177,0.0660806 0.019047,0.13303 0.020543,0.20020601 v 2e-7 c -0.00161,0.130643 -0.028815,0.259704 -0.08008,0.37988 v 0 c -0.050701,0.121178 -0.121722,0.232809 -0.21,0.33008 h 1e-7 C 1.5217621,1.9380937 1.2683401,2.0416307 1.00368,2.04576 Z"
       transform="translate(40.9963,44.9542)"
       id="path77"
       inkscape:connector-curvature="0" />
    <path
       d="m 1.10212,2.10212 v 0 C 0.83698997,2.100236 0.58275297,1.996393 0.39211997,1.81212 h -10e-9 C -2.0449551e-6,1.419998 -2.0449551e-6,0.78423998 0.39211996,0.39211998 0.78424196,-2.0174613e-6 1.42,-2.0174613e-6 1.81212,0.39211999 c 0.04,0.0498 0.08008,0.09961 0.12012,0.15967 l -1e-7,-2e-8 c 0.039282,0.0511891 0.069655,0.108634 0.08984,0.16992 l 10e-8,4e-8 c 0.028989,0.0566457 0.049081,0.117418 0.05957,0.18018 v 1.9e-7 c 0.011644,0.0661622 0.018485,0.13308 0.02047,0.20023 v -6e-7 c -0.00152,0.063775 -0.00838,0.127311 -0.02051,0.18994 v 0 c -0.00898,0.066224 -0.029125,0.130447 -0.05957,0.18994 v 0 c -0.019975,0.061376 -0.050365,0.118855 -0.08984,0.16992 -0.04,0.06006 -0.08008,0.10986 -0.12012,0.16016 v 0 C 1.6212561,1.9960406 1.3671671,2.0998436 1.10212,2.10212 Z"
       transform="translate(40.8979,48.8979)"
       id="path79"
       inkscape:connector-curvature="0" />
  </g>
</svg>
