<svg height="512pt" viewBox="0 -11 512 512" width="512pt" xmlns="http://www.w3.org/2000/svg"><path d="m476.132812 93c-1.894531-7.328125-4.816406-14.242188-8.582031-20.605469l25.394531-25.394531-28.285156-28.285156-25.394531 25.394531c-6.550781-3.875-13.695313-6.847656-21.265625-8.734375v-35.375h-40v35.71875c-7.082031 1.894531-13.773438 4.742188-19.941406 8.390625l-25.398438-25.394531-28.28125 28.285156 25.394532 25.394531c-3.765626 6.363281-6.6875 13.277344-8.578126 20.605469h-36.203124v40h36.203124c1.890626 7.328125 4.8125 14.242188 8.578126 20.605469l-25.394532 25.394531 28.285156 28.285156 25.394532-25.394531c6.457031 3.820313 13.488281 6.765625 20.941406 8.65625v35.453125h40v-35.628906c7.203125-1.894532 14.007812-4.777344 20.269531-8.480469l25.394531 25.394531 28.285157-28.285156-25.394531-25.394531c3.761718-6.363281 6.683593-13.277344 8.578124-20.605469h35.867188v-40zm-117.472656 20c0-8.589844 2.730469-16.546875 7.355469-23.070312l9.574219-9.574219c6.523437-4.625 14.484375-7.355469 23.070312-7.355469 22.058594 0 40 17.945312 40 40s-17.941406 40-40 40c-22.054687 0-40-17.945312-40-40zm152.722656 104.808594c.398438 5.957031.617188 12.015625.617188 18.191406 0 36.191406-6.921875 68.707031-20.578125 96.640625-13.007813 26.609375-32.128906 49.148437-56.832031 67-43.785156 31.636719-105.542969 48.359375-178.589844 48.359375-20.441406 0-40.183594-1.3125-58.84375-3.910156-42.332031 42.464844-94.390625 44.910156-105.738281 44.910156-.109375 0-.214844 0-.316407 0h-.105468l-35.957032-.054688 18.984376-30.519531c.097656-.160156 11.109374-18.300781 19.589843-48.230469-61.328125-36.023437-93.613281-95.910156-93.613281-174.195312 0-36.195312 6.921875-68.710938 20.578125-96.640625 13.007813-26.609375 32.128906-49.152344 56.832031-67 43.785156-31.636719 105.542969-48.359375 178.589844-48.359375 5.683594 0 11.289062.113281 16.832031.316406-8.535156 12.074219-15.378906 25.425782-20.183593 39.707032-63.082032.480468-115.527344 14.542968-151.8125 40.757812-40.367188 29.167969-60.835938 73.316406-60.835938 131.21875 0 68.878906 28.816406 118.015625 85.652344 146.050781l14.074218 6.941407-3.394531 15.320312c-3.292969 14.867188-7.375 27.914062-11.402343 38.785156 15.515624-5.230468 33.796874-15.046875 49.632812-33.4375l7.367188-8.558594 11.136718 1.890626c19.570313 3.320312 40.746094 5.007812 62.933594 5.007812 64.585938 0 118.238281-14.101562 155.164062-40.78125 37.390626-27.019531 57.695313-66.898438 60.488282-118.644531 14.882812-8.046875 28.292968-18.472657 39.730468-30.765625zm0 0"/></svg>