<?xml version="1.0" encoding="UTF-8" standalone="no"?>
<svg
   xmlns:dc="http://purl.org/dc/elements/1.1/"
   xmlns:cc="http://creativecommons.org/ns#"
   xmlns:rdf="http://www.w3.org/1999/02/22-rdf-syntax-ns#"
   xmlns:svg="http://www.w3.org/2000/svg"
   xmlns="http://www.w3.org/2000/svg"
   xmlns:sodipodi="http://sodipodi.sourceforge.net/DTD/sodipodi-0.dtd"
   xmlns:inkscape="http://www.inkscape.org/namespaces/inkscape"
   height="400"
   viewBox="0 -54 1120 320"
   width="1400"
   id="svg2"
   version="1.1"
   inkscape:version="0.91 r13725"
   sodipodi:docname="dimmer.svg">
  <metadata
     id="metadata12">
    <rdf:RDF>
      <cc:Work
         rdf:about="">
        <dc:format>image/svg+xml</dc:format>
        <dc:type
           rdf:resource="http://purl.org/dc/dcmitype/StillImage" />
        <dc:title></dc:title>
      </cc:Work>
    </rdf:RDF>
  </metadata>
  <defs
     id="defs10" />
  <sodipodi:namedview
     pagecolor="#ffffff"
     bordercolor="#666666"
     borderopacity="1"
     objecttolerance="10"
     gridtolerance="10"
     guidetolerance="10"
     inkscape:pageopacity="0"
     inkscape:pageshadow="2"
     inkscape:window-width="1920"
     inkscape:window-height="1057"
     id="namedview8"
     showgrid="false"
     units="px"
     inkscape:zoom="0.7375"
     inkscape:cx="773.73422"
     inkscape:cy="61.727199"
     inkscape:window-x="-8"
     inkscape:window-y="-8"
     inkscape:window-maximized="1"
     inkscape:current-layer="svg2" />
  <g
     transform="matrix(0.72372882,0,0,0.72372882,722.9017,-72.68472)"
     id="g3">
    <g
       id="g5">
      <g
         id="g7">
        <path
           inkscape:connector-curvature="0"
           d="M 256,42.667 C 114.837,42.667 0,157.504 0,298.667 0,310.443 9.536,320 21.333,320 c 11.797,0 21.333,-9.557 21.333,-21.333 0,-117.632 95.701,-213.333 213.333,-213.333 117.632,0 213.333,95.701 213.333,213.333 0,11.776 9.536,21.333 21.333,21.333 11.797,0 21.335,-9.557 21.335,-21.333 0,-141.163 -114.837,-256 -256,-256 z"
           id="path9" />
        <path
           inkscape:connector-curvature="0"
           d="m 271.083,335.083 c -4.16,4.16 -9.621,6.251 -15.083,6.251 -5.462,0 -10.923,-2.091 -15.083,-6.251 -8.341,-8.341 -8.341,-21.824 0,-30.165 L 345.258,200.577 c -24.939,-18.688 -55.765,-29.909 -89.259,-29.909 -82.325,0 -149.333,66.987 -149.333,149.333 0,82.346 67.009,149.332 149.334,149.332 82.325,0 149.333,-66.986 149.333,-149.333 0,-33.493 -11.221,-64.32 -29.909,-89.259 L 271.083,335.083 Z"
           id="path11" />
      </g>
    </g>
  </g>
  <path
     inkscape:connector-curvature="0"
     d="m 500.91525,123.66684 -49.53516,0 c 13.23438,-44.253905 29.38672,-92.550777 49.53516,-92.550777 5.52344,0 10,-4.47656 10,-10 0,-5.52344 -4.47656,-10.000001 -10,-10.000001 -35.59766,0 -52.94922,53.617193 -70.40625,112.550778 l -106.58594,0 C 307.55197,64.526215 290.95822,11.116062 254.21212,11.116062 c -36.66796,0 -54.01562,53.328121 -71.15234,112.550778 l -109.058596,0 C 57.743374,70.108255 43.391814,23.135591 18.915258,13.096535 l 0,-71.492195 c 0,-5.52343 -4.47657,-10 -9.9999998,-10 -5.5234397,0 -9.9999996,4.47657 -9.9999996,10 l 0,345.0625 c 0,5.52344 4.4765599,10 9.9999996,10 5.5234298,0 9.9999998,-4.47656 9.9999998,-10 l 0,-143 40.269526,0 c 18.25,59.57422 36.73828,112.55078 71.117186,112.55078 34.66015,0 50.99609,-54.11328 67.8125,-112.55078 l 110.57422,0 c 16.13672,58.55859 31.96093,112.55078 67.20312,112.55078 35.09375,0 52.19531,-53.8125 69.56641,-112.55078 l 55.45703,0 c 5.52344,0 10,-4.47656 10,-10 0,-5.52344 -4.47656,-10 -10,-10 z M 254.21212,31.116063 c 21.10157,0 36.48047,48.050776 48.94532,92.550777 l -99.26563,0 C 216.97384,79.010591 233.02462,31.116063 254.21212,31.116063 Z M 18.915258,38.155119 c 3.21484,4.003912 7.04687,10.22656 11.40625,19.871104 7.98046,17.652336 15.230456,40.83984 22.773426,65.640617 l -34.179676,0 z M 130.30197,236.21762 c -19.22656,0 -36.562506,-48.78515 -50.179686,-92.55078 l 97.175776,0 c -12.58984,43.48828 -28.00781,92.55078 -46.99609,92.55078 z m 245.58984,0 c -19.45312,0 -34.34375,-48.92187 -46.45312,-92.55078 l 95.15625,0 c -13.11328,43.96094 -29.10547,92.55078 -48.70313,92.55078 z m 0,0"
     id="path4173" />
</svg>
