<?xml version="1.0" standalone="no"?><svg xmlns="http://www.w3.org/2000/svg" width="40" height="130"><path stroke-width="2" fill="none" stroke="black" stroke-dasharray="none" font-family="Arial" font-size="10pt" font-weight="normal" font-style="normal" d="M-15 30L85 30"/><path stroke-width="2" fill="none" stroke="black" stroke-dasharray="none" font-family="Arial" font-size="10pt" font-weight="normal" font-style="normal" d="M-15 40L85 40"/><path stroke-width="2" fill="none" stroke="black" stroke-dasharray="none" font-family="Arial" font-size="10pt" font-weight="normal" font-style="normal" d="M-15 50L85 50"/><path stroke-width="2" fill="none" stroke="black" stroke-dasharray="none" font-family="Arial" font-size="10pt" font-weight="normal" font-style="normal" d="M-15 60L85 60"/><path stroke-width="2" fill="none" stroke="black" stroke-dasharray="none" font-family="Arial" font-size="10pt" font-weight="normal" font-style="normal" d="M-15 70L85 70"/><rect stroke-width="0.3" fill="black" stroke="black" stroke-dasharray="none" font-family="Arial" font-size="10pt" font-weight="normal" font-style="normal" x="-15" y="29.5" width="1" height="41"/><rect stroke-width="0.3" fill="black" stroke="black" stroke-dasharray="none" font-family="Arial" font-size="10pt" font-weight="normal" font-style="normal" x="85" y="29.5" width="1" height="41"/><path stroke-width="2" fill="none" stroke="black" stroke-dasharray="none" font-family="Arial" font-size="10pt" font-weight="normal" font-style="normal" x="85" y="29.5" width="1" height="41" d="M-1 80L17.01824 80"/><path stroke-width="2" fill="none" stroke="black" stroke-dasharray="none" font-family="Arial" font-size="10pt" font-weight="normal" font-style="normal" x="85" y="29.5" width="1" height="41" d="M-1 90L17.01824 90"/><path stroke-width="2" fill="none" stroke="black" stroke-dasharray="none" font-family="Arial" font-size="10pt" font-weight="normal" font-style="normal" x="85" y="29.5" width="1" height="41" d="M-1 100L17.01824 100"/><path stroke-width="2" fill="none" stroke="black" stroke-dasharray="none" font-family="Arial" font-size="10pt" font-weight="normal" font-style="normal" x="85" y="29.5" width="1" height="41" d="M-1 110L17.01824 110"/><g class="vf-stavenote" id="vf-auto3690"><g class="vf-note" pointer-events="bounding-box"><g class="vf-stem" pointer-events="bounding-box"><path stroke-width="1.5" fill="none" stroke="black" stroke-dasharray="none" font-family="Arial" font-size="10pt" font-weight="normal" font-style="normal" x="85" y="29.5" width="1" height="41" d="M13.26824 115L13.26824 80"/></g><g class="vf-notehead" pointer-events="bounding-box"><path stroke-width="0.3" fill="black" stroke="none" stroke-dasharray="none" font-family="Arial" font-size="10pt" font-weight="normal" font-style="normal" x="85" y="29.5" width="1" height="41" d="M2 115M9.35696 109.77712C9.469280000000001 109.77712,9.63776 109.77712,9.66584 109.77712C9.66584 109.77712,9.69392 109.77712,9.69392 109.77712C9.69392 109.77712,9.862400000000001 109.77712,10.0028 109.77712C12.530000000000001 109.91752,14.01824 111.57424,14.01824 113.65216C14.01824 114.66304,13.681280000000001 115.81432,12.83888 116.90944C11.23832 119.0716,8.62688 120.25096,6.3524 120.25096C4.58336 120.25096,3.06704 119.54896,2.33696 118.11688C2.11232 117.55528,2 117.02176,2 116.43208C2 113.37136,5.42576 109.97368,9.35696 109.77712"/></g><g class="vf-flag" pointer-events="bounding-box"><path stroke-width="0.3" fill="black" stroke="none" stroke-dasharray="none" font-family="Arial" font-size="10pt" font-weight="normal" font-style="normal" x="85" y="29.5" width="1" height="41" d="M13.26824 78M12.59432 82.52088L12.59432 78.1404L12.70664 78.1404C13.01552 78.1404,13.21208 78.33696,13.26824 78.67392C13.85792 81.48192,15.62696 84.54264,18.06992 86.8452C20.793680000000002 89.40048,22.169600000000003 92.91048,22.169600000000003 96.53280000000001C22.169600000000003 99.95856,20.96216 103.52472,18.5192 106.47312C18.098 107.03472,18.06992 107.03472,17.78912 107.03472C17.45216 107.03472,17.227520000000002 106.782,17.227520000000002 106.44504C17.227520000000002 106.19232,17.2556 106.13616,17.5364 105.82728C19.67048 103.24392,20.73752 100.12704,20.73752 97.15056C20.73752 94.51104000000001,19.89512 91.98384,18.15416 90.0744C17.08712 88.89504,15.12152 87.77184,12.6224 86.90136C12.6224 86.87328,12.59432 86.00280000000001,12.59432 82.52088"/></g></g><g class="vf-modifiers"/></g></svg>