<?xml version="1.0" standalone="no"?><svg xmlns="http://www.w3.org/2000/svg" width="40" height="130"><path stroke-width="2" fill="none" stroke="black" stroke-dasharray="none" font-family="Arial" font-size="10pt" font-weight="normal" font-style="normal" d="M-15 30L85 30"/><path stroke-width="2" fill="none" stroke="black" stroke-dasharray="none" font-family="Arial" font-size="10pt" font-weight="normal" font-style="normal" d="M-15 40L85 40"/><path stroke-width="2" fill="none" stroke="black" stroke-dasharray="none" font-family="Arial" font-size="10pt" font-weight="normal" font-style="normal" d="M-15 50L85 50"/><path stroke-width="2" fill="none" stroke="black" stroke-dasharray="none" font-family="Arial" font-size="10pt" font-weight="normal" font-style="normal" d="M-15 60L85 60"/><path stroke-width="2" fill="none" stroke="black" stroke-dasharray="none" font-family="Arial" font-size="10pt" font-weight="normal" font-style="normal" d="M-15 70L85 70"/><rect stroke-width="0.3" fill="black" stroke="black" stroke-dasharray="none" font-family="Arial" font-size="10pt" font-weight="normal" font-style="normal" x="-15" y="29.5" width="1" height="41"/><rect stroke-width="0.3" fill="black" stroke="black" stroke-dasharray="none" font-family="Arial" font-size="10pt" font-weight="normal" font-style="normal" x="85" y="29.5" width="1" height="41"/><g class="vf-stavenote" id="vf-auto4060"><g class="vf-note" pointer-events="bounding-box"><g class="vf-stem" pointer-events="bounding-box"><path stroke-width="1.5" fill="none" stroke="black" stroke-dasharray="none" font-family="Arial" font-size="10pt" font-weight="normal" font-style="normal" x="85" y="29.5" width="1" height="41" d="M2.75 45L2.75 80"/></g><g class="vf-notehead" pointer-events="bounding-box"><path stroke-width="0.3" fill="black" stroke="none" stroke-dasharray="none" font-family="Arial" font-size="10pt" font-weight="normal" font-style="normal" x="85" y="29.5" width="1" height="41" d="M2 45M9.35696 39.77712C9.469280000000001 39.77712,9.63776 39.77712,9.66584 39.77712C9.66584 39.77712,9.69392 39.77712,9.69392 39.77712C9.69392 39.77712,9.862400000000001 39.77712,10.0028 39.77712C12.530000000000001 39.917519999999996,14.01824 41.57424,14.01824 43.65216C14.01824 44.66304,13.681280000000001 45.81432,12.83888 46.909440000000004C11.23832 49.071600000000004,8.62688 50.25096,6.3524 50.25096C4.58336 50.25096,3.06704 49.54896,2.33696 48.11688C2.11232 47.55528,2 47.02176,2 46.43208C2 43.37136,5.42576 39.97368,9.35696 39.77712"/></g><g class="vf-flag" pointer-events="bounding-box"><path stroke-width="0.3" fill="black" stroke="none" stroke-dasharray="none" font-family="Arial" font-size="10pt" font-weight="normal" font-style="normal" x="85" y="29.5" width="1" height="41" d="M2.75 82M9.208400000000001 53.04952C9.26456 53.02144,9.3488 53.02144,9.43304 53.02144C9.6296 53.02144,9.79808 53.16184,10.02272 53.52688C12.0164 56.55952,13.05536 60.041439999999994,13.05536 63.41104C13.05536 64.00072,13.05536 64.56232,12.97112 65.09584C12.63416 68.29696,11.28632 71.21728,9.26456 73.09864C7.1024 75.1204,5.64224 76.74904,4.35056 78.6304C3.62048 79.64128,2.91848 80.8768,2.72192 81.49456C2.63768 81.69112,2.41304 81.88768,2.21648 81.88768L2.16032 81.88768L2.16032 77.53528L2.16032 73.1548L2.30072 73.1548C3.0308 73.1548,4.49096 72.90208,5.44568 72.5932C9.12416 71.3296,11.5952 67.20184,11.5952 62.4844C11.5952 62.09128,11.567120000000001 61.67008,11.53904 61.27696C11.28632 58.834,10.41584 56.27872,9.03992 54.17272C8.899519999999999 53.948080000000004,8.815280000000001 53.72344,8.815280000000001 53.554959999999994C8.815280000000001 53.33032,8.9276 53.133759999999995,9.208400000000001 53.04952"/></g></g><g class="vf-modifiers"><path stroke-width="0.3" fill="black" stroke="none" stroke-dasharray="none" font-family="Arial" font-size="10pt" font-weight="normal" font-style="normal" x="85" y="29.5" width="1" height="41" d="M21.01824 45 A2 2 0 0 0 17.01824 45M0 0M17.01824 45 A2 2 0 0 0 21.01824 45M0 0"/></g></g></svg>