<?xml version="1.0" standalone="no"?><svg xmlns="http://www.w3.org/2000/svg" width="40" height="130"><path stroke-width="2" fill="none" stroke="black" stroke-dasharray="none" font-family="Arial" font-size="10pt" font-weight="normal" font-style="normal" d="M-15 30L85 30"/><path stroke-width="2" fill="none" stroke="black" stroke-dasharray="none" font-family="Arial" font-size="10pt" font-weight="normal" font-style="normal" d="M-15 40L85 40"/><path stroke-width="2" fill="none" stroke="black" stroke-dasharray="none" font-family="Arial" font-size="10pt" font-weight="normal" font-style="normal" d="M-15 50L85 50"/><path stroke-width="2" fill="none" stroke="black" stroke-dasharray="none" font-family="Arial" font-size="10pt" font-weight="normal" font-style="normal" d="M-15 60L85 60"/><path stroke-width="2" fill="none" stroke="black" stroke-dasharray="none" font-family="Arial" font-size="10pt" font-weight="normal" font-style="normal" d="M-15 70L85 70"/><rect stroke-width="0.3" fill="black" stroke="black" stroke-dasharray="none" font-family="Arial" font-size="10pt" font-weight="normal" font-style="normal" x="-15" y="29.5" width="1" height="41"/><rect stroke-width="0.3" fill="black" stroke="black" stroke-dasharray="none" font-family="Arial" font-size="10pt" font-weight="normal" font-style="normal" x="85" y="29.5" width="1" height="41"/><path stroke-width="2" fill="none" stroke="black" stroke-dasharray="none" font-family="Arial" font-size="10pt" font-weight="normal" font-style="normal" x="85" y="29.5" width="1" height="41" d="M-1 80L17.01824 80"/><g class="vf-stavenote" id="vf-auto4040"><g class="vf-note" pointer-events="bounding-box"><g class="vf-stem" pointer-events="bounding-box"><path stroke-width="1.5" fill="none" stroke="black" stroke-dasharray="none" font-family="Arial" font-size="10pt" font-weight="normal" font-style="normal" x="85" y="29.5" width="1" height="41" d="M13.26824 80L13.26824 45"/></g><g class="vf-notehead" pointer-events="bounding-box"><path stroke-width="0.3" fill="black" stroke="none" stroke-dasharray="none" font-family="Arial" font-size="10pt" font-weight="normal" font-style="normal" x="85" y="29.5" width="1" height="41" d="M2 80M9.35696 74.77712C9.469280000000001 74.77712,9.63776 74.77712,9.66584 74.77712C9.66584 74.77712,9.69392 74.77712,9.69392 74.77712C9.69392 74.77712,9.862400000000001 74.77712,10.0028 74.77712C12.530000000000001 74.91752,14.01824 76.57424,14.01824 78.65216C14.01824 79.66304,13.681280000000001 80.81432,12.83888 81.90944C11.23832 84.0716,8.62688 85.25096,6.3524 85.25096C4.58336 85.25096,3.06704 84.54896,2.33696 83.11688C2.11232 82.55528,2 82.02176,2 81.43208C2 78.37136,5.42576 74.97368,9.35696 74.77712"/></g><g class="vf-flag" pointer-events="bounding-box"><path stroke-width="0.3" fill="black" stroke="none" stroke-dasharray="none" font-family="Arial" font-size="10pt" font-weight="normal" font-style="normal" x="85" y="29.5" width="1" height="41" d="M13.26824 43M12.59432 47.52088L12.59432 43.1404L12.70664 43.1404C13.01552 43.1404,13.21208 43.33696,13.26824 43.67392C13.85792 46.48192,15.62696 49.54264,18.06992 51.8452C20.793680000000002 54.40048,22.169600000000003 57.91048,22.169600000000003 61.5328C22.169600000000003 64.95856,20.96216 68.52472,18.5192 71.47312C18.098 72.03472,18.06992 72.03472,17.78912 72.03472C17.45216 72.03472,17.227520000000002 71.782,17.227520000000002 71.44504C17.227520000000002 71.19232,17.2556 71.13616,17.5364 70.82728C19.67048 68.24392,20.73752 65.12704,20.73752 62.15056C20.73752 59.51104,19.89512 56.98384,18.15416 55.0744C17.08712 53.89504,15.12152 52.77184,12.6224 51.90136C12.6224 51.87328,12.59432 51.0028,12.59432 47.52088"/></g></g><g class="vf-modifiers"><path stroke-width="0.3" fill="black" stroke="none" stroke-dasharray="none" font-family="Arial" font-size="10pt" font-weight="normal" font-style="normal" x="85" y="29.5" width="1" height="41" d="M30.59352 75 A2 2 0 0 0 26.59352 75M0 0M26.59352 75 A2 2 0 0 0 30.59352 75M0 0"/></g></g></svg>