<?xml version="1.0" standalone="no"?><svg xmlns="http://www.w3.org/2000/svg" width="40" height="130"><path stroke-width="2" fill="none" stroke="black" stroke-dasharray="none" font-family="Arial" font-size="10pt" font-weight="normal" font-style="normal" d="M-15 30L85 30"/><path stroke-width="2" fill="none" stroke="black" stroke-dasharray="none" font-family="Arial" font-size="10pt" font-weight="normal" font-style="normal" d="M-15 40L85 40"/><path stroke-width="2" fill="none" stroke="black" stroke-dasharray="none" font-family="Arial" font-size="10pt" font-weight="normal" font-style="normal" d="M-15 50L85 50"/><path stroke-width="2" fill="none" stroke="black" stroke-dasharray="none" font-family="Arial" font-size="10pt" font-weight="normal" font-style="normal" d="M-15 60L85 60"/><path stroke-width="2" fill="none" stroke="black" stroke-dasharray="none" font-family="Arial" font-size="10pt" font-weight="normal" font-style="normal" d="M-15 70L85 70"/><rect stroke-width="0.3" fill="black" stroke="black" stroke-dasharray="none" font-family="Arial" font-size="10pt" font-weight="normal" font-style="normal" x="-15" y="29.5" width="1" height="41"/><rect stroke-width="0.3" fill="black" stroke="black" stroke-dasharray="none" font-family="Arial" font-size="10pt" font-weight="normal" font-style="normal" x="85" y="29.5" width="1" height="41"/><g class="vf-stavenote" id="vf-auto1084"><g class="vf-note" pointer-events="bounding-box"><g class="vf-notehead" pointer-events="bounding-box"><path stroke-width="0.3" fill="black" stroke="none" stroke-dasharray="none" font-family="Arial" font-size="10pt" font-weight="normal" font-style="normal" x="85" y="29.5" width="1" height="41" d="M2 45M9.69392 39.83328C10.0028 39.77712,10.31168 39.77712,10.620560000000001 39.77712C15.0572 39.77712,18.76376 41.74272,19.29728 44.38224C19.32536 44.63496,19.381520000000002 44.8596,19.381520000000002 45.02808C19.381520000000002 47.920320000000004,15.56264 50.25096,10.64864 50.25096C5.734640000000001 50.25096,2 47.86416,2 45.02808C2 44.69112,2.02808 44.35416,2.1404 43.98912C2.81432 41.7708,5.95928 40.05792,9.69392 39.83328M10.115120000000001 40.47912C9.974720000000001 40.45104,9.77816 40.45104,9.63776 40.45104C7.868720000000001 40.45104,6.80168 41.96736,6.80168 43.84872C6.80168 44.8596,7.11056 45.95472,7.7564 47.04984C8.823440000000002 48.73464,10.367840000000001 49.57704,11.6876 49.57704C12.8108 49.57704,13.7936 48.98736,14.24288 47.75184C14.439440000000001 47.2464,14.52368 46.74096,14.52368 46.20744C14.52368 43.68024,12.58616 40.87224,10.115120000000001 40.47912"/></g></g><g class="vf-modifiers"/></g></svg>