<?xml version="1.0" standalone="no"?><svg xmlns="http://www.w3.org/2000/svg" width="40" height="130"><path stroke-width="2" fill="none" stroke="black" stroke-dasharray="none" font-family="Arial" font-size="10pt" font-weight="normal" font-style="normal" d="M-15 30L85 30"/><path stroke-width="2" fill="none" stroke="black" stroke-dasharray="none" font-family="Arial" font-size="10pt" font-weight="normal" font-style="normal" d="M-15 40L85 40"/><path stroke-width="2" fill="none" stroke="black" stroke-dasharray="none" font-family="Arial" font-size="10pt" font-weight="normal" font-style="normal" d="M-15 50L85 50"/><path stroke-width="2" fill="none" stroke="black" stroke-dasharray="none" font-family="Arial" font-size="10pt" font-weight="normal" font-style="normal" d="M-15 60L85 60"/><path stroke-width="2" fill="none" stroke="black" stroke-dasharray="none" font-family="Arial" font-size="10pt" font-weight="normal" font-style="normal" d="M-15 70L85 70"/><rect stroke-width="0.3" fill="black" stroke="black" stroke-dasharray="none" font-family="Arial" font-size="10pt" font-weight="normal" font-style="normal" x="-15" y="29.5" width="1" height="41"/><rect stroke-width="0.3" fill="black" stroke="black" stroke-dasharray="none" font-family="Arial" font-size="10pt" font-weight="normal" font-style="normal" x="85" y="29.5" width="1" height="41"/><path stroke-width="2" fill="none" stroke="black" stroke-dasharray="none" font-family="Arial" font-size="10pt" font-weight="normal" font-style="normal" x="85" y="29.5" width="1" height="41" d="M-1 80L22.381520000000002 80"/><path stroke-width="2" fill="none" stroke="black" stroke-dasharray="none" font-family="Arial" font-size="10pt" font-weight="normal" font-style="normal" x="85" y="29.5" width="1" height="41" d="M-1 90L22.381520000000002 90"/><path stroke-width="2" fill="none" stroke="black" stroke-dasharray="none" font-family="Arial" font-size="10pt" font-weight="normal" font-style="normal" x="85" y="29.5" width="1" height="41" d="M-1 100L22.381520000000002 100"/><path stroke-width="2" fill="none" stroke="black" stroke-dasharray="none" font-family="Arial" font-size="10pt" font-weight="normal" font-style="normal" x="85" y="29.5" width="1" height="41" d="M-1 110L22.381520000000002 110"/><g class="vf-stavenote" id="vf-auto1054"><g class="vf-note" pointer-events="bounding-box"><g class="vf-notehead" pointer-events="bounding-box"><path stroke-width="0.3" fill="black" stroke="none" stroke-dasharray="none" font-family="Arial" font-size="10pt" font-weight="normal" font-style="normal" x="85" y="29.5" width="1" height="41" d="M2 115M9.69392 109.83328C10.0028 109.77712,10.31168 109.77712,10.620560000000001 109.77712C15.0572 109.77712,18.76376 111.74272,19.29728 114.38224C19.32536 114.63496,19.381520000000002 114.8596,19.381520000000002 115.02808C19.381520000000002 117.92032,15.56264 120.25096,10.64864 120.25096C5.734640000000001 120.25096,2 117.86416,2 115.02808C2 114.69112,2.02808 114.35416,2.1404 113.98912C2.81432 111.7708,5.95928 110.05792,9.69392 109.83328M10.115120000000001 110.47912C9.974720000000001 110.45104,9.77816 110.45104,9.63776 110.45104C7.868720000000001 110.45104,6.80168 111.96736,6.80168 113.84872C6.80168 114.8596,7.11056 115.95472,7.7564 117.04984C8.823440000000002 118.73464,10.367840000000001 119.57704,11.6876 119.57704C12.8108 119.57704,13.7936 118.98736,14.24288 117.75184C14.439440000000001 117.2464,14.52368 116.74096,14.52368 116.20744C14.52368 113.68024,12.58616 110.87224,10.115120000000001 110.47912"/></g></g><g class="vf-modifiers"/></g></svg>