<?xml version="1.0" standalone="no"?><svg xmlns="http://www.w3.org/2000/svg" width="40" height="130"><path stroke-width="2" fill="none" stroke="black" stroke-dasharray="none" font-family="Arial" font-size="10pt" font-weight="normal" font-style="normal" d="M-15 30L85 30"/><path stroke-width="2" fill="none" stroke="black" stroke-dasharray="none" font-family="Arial" font-size="10pt" font-weight="normal" font-style="normal" d="M-15 40L85 40"/><path stroke-width="2" fill="none" stroke="black" stroke-dasharray="none" font-family="Arial" font-size="10pt" font-weight="normal" font-style="normal" d="M-15 50L85 50"/><path stroke-width="2" fill="none" stroke="black" stroke-dasharray="none" font-family="Arial" font-size="10pt" font-weight="normal" font-style="normal" d="M-15 60L85 60"/><path stroke-width="2" fill="none" stroke="black" stroke-dasharray="none" font-family="Arial" font-size="10pt" font-weight="normal" font-style="normal" d="M-15 70L85 70"/><rect stroke-width="0.3" fill="black" stroke="black" stroke-dasharray="none" font-family="Arial" font-size="10pt" font-weight="normal" font-style="normal" x="-15" y="29.5" width="1" height="41"/><rect stroke-width="0.3" fill="black" stroke="black" stroke-dasharray="none" font-family="Arial" font-size="10pt" font-weight="normal" font-style="normal" x="85" y="29.5" width="1" height="41"/><path stroke-width="2" fill="none" stroke="black" stroke-dasharray="none" font-family="Arial" font-size="10pt" font-weight="normal" font-style="normal" x="85" y="29.5" width="1" height="41" d="M-1 80L17.01824 80"/><path stroke-width="2" fill="none" stroke="black" stroke-dasharray="none" font-family="Arial" font-size="10pt" font-weight="normal" font-style="normal" x="85" y="29.5" width="1" height="41" d="M-1 90L17.01824 90"/><path stroke-width="2" fill="none" stroke="black" stroke-dasharray="none" font-family="Arial" font-size="10pt" font-weight="normal" font-style="normal" x="85" y="29.5" width="1" height="41" d="M-1 100L17.01824 100"/><path stroke-width="2" fill="none" stroke="black" stroke-dasharray="none" font-family="Arial" font-size="10pt" font-weight="normal" font-style="normal" x="85" y="29.5" width="1" height="41" d="M-1 110L17.01824 110"/><g class="vf-stavenote" id="vf-auto4708"><g class="vf-note" pointer-events="bounding-box"><g class="vf-stem" pointer-events="bounding-box"><path stroke-width="1.5" fill="none" stroke="black" stroke-dasharray="none" font-family="Arial" font-size="10pt" font-weight="normal" font-style="normal" x="85" y="29.5" width="1" height="41" d="M13.26824 115L13.26824 80"/></g><g class="vf-notehead" pointer-events="bounding-box"><path stroke-width="0.3" fill="black" stroke="none" stroke-dasharray="none" font-family="Arial" font-size="10pt" font-weight="normal" font-style="normal" x="85" y="29.5" width="1" height="41" d="M2 115M9.35696 109.77712C9.469280000000001 109.77712,9.63776 109.77712,9.66584 109.77712C9.66584 109.77712,9.69392 109.77712,9.69392 109.77712C9.69392 109.77712,9.862400000000001 109.77712,10.0028 109.77712C12.530000000000001 109.91752,14.01824 111.57424,14.01824 113.65216C14.01824 114.66304,13.681280000000001 115.81432,12.83888 116.90944C11.23832 119.0716,8.62688 120.25096,6.3524 120.25096C4.58336 120.25096,3.06704 119.54896,2.33696 118.11688C2.11232 117.55528,2 117.02176,2 116.43208C2 113.37136,5.42576 109.97368,9.35696 109.77712"/></g><g class="vf-flag" pointer-events="bounding-box"><path stroke-width="0.3" fill="black" stroke="none" stroke-dasharray="none" font-family="Arial" font-size="10pt" font-weight="normal" font-style="normal" x="85" y="29.5" width="1" height="41" d="M13.26824 78M12.59432 82.12776L12.59432 78.1404L12.70664 78.1404C12.931280000000001 78.1404,13.15592 78.30888,13.240160000000001 78.53352C13.436720000000001 79.20744,14.138720000000001 80.41488,14.896880000000001 81.45384C15.87968 82.85784,17.03096 84.14952,18.77192 85.80624C20.96216 87.99648,22.169600000000003 90.9168,22.169600000000003 94.0056C22.169600000000003 95.32536,21.91688 96.70128,21.523760000000003 98.02104L21.383360000000003 98.32992L21.523760000000003 98.6388C21.91688 99.9024,22.169600000000003 101.22216,22.169600000000003 102.51384C22.169600000000003 105.04104000000001,21.35528 107.59632,19.86704 109.78656000000001C19.67048 110.0112,19.55816 110.17967999999999,19.136960000000002 110.7132C18.996560000000002 110.90976,18.77192 111.05016,18.57536 111.05016C18.378800000000002 111.05016,18.18224 110.90976,18.06992 110.68512C18.04184 110.60088,17.985680000000002 110.54472,17.985680000000002 110.40432C17.985680000000002 110.26392,18.098 110.06736000000001,18.350720000000003 109.78656000000001C19.95128 107.87712,20.82176 105.378,20.82176 103.01928000000001C20.82176 102.87888000000001,20.82176 102.82272,20.82176 102.73848C20.82176 102.06456,20.70944 101.22216,20.6252 100.85712000000001C20.59712 100.77288,20.540960000000002 100.63248,20.512880000000003 100.464C20.007440000000003 98.52647999999999,18.82808 96.72936,17.2556 95.63424C16.4132 95.01648,14.588000000000001 94.53912,13.0436 94.53912C12.9032 94.53912,12.734720000000001 94.53912,12.70664 94.53912L12.59432 94.53912L12.59432 90.60792000000001L12.59432 86.64864L12.70664 86.64864C12.931280000000001 86.64864,13.15592 86.78904,13.240160000000001 87.04176C13.436720000000001 87.6876,14.138720000000001 88.89504,14.896880000000001 89.90592C15.87968 91.36608,17.08712 92.68584,18.71576 94.2864C19.47392 95.01648,20.147840000000002 95.8308,20.540960000000002 96.53280000000001C20.540960000000002 96.58896,20.59712 96.61704,20.59712 96.61704C20.6252 96.61704,20.6252 96.53280000000001,20.68136 96.42048C20.793680000000002 95.74656,20.82176 95.1288,20.82176 94.48296C20.82176 93.89328,20.793680000000002 93.27552,20.68136 92.62968000000001C20.68136 92.51736,20.6252 92.40504,20.6252 92.37696C20.59712 92.29272,20.540960000000002 92.12424,20.512880000000003 91.98384C20.007440000000003 90.01824,18.82808 88.2492,17.2556 87.15408C16.4132 86.50824,14.588000000000001 86.08704,13.0436 86.05896C12.9032 86.05896,12.734720000000001 86.05896,12.70664 86.05896L12.59432 86.05896L12.59432 82.12776"/></g></g><g class="vf-modifiers"/></g></svg>