<?xml version="1.0" standalone="no"?><svg xmlns="http://www.w3.org/2000/svg" width="40" height="130"><path stroke-width="2" fill="none" stroke="black" stroke-dasharray="none" font-family="Arial" font-size="10pt" font-weight="normal" font-style="normal" d="M-15 30L85 30"/><path stroke-width="2" fill="none" stroke="black" stroke-dasharray="none" font-family="Arial" font-size="10pt" font-weight="normal" font-style="normal" d="M-15 40L85 40"/><path stroke-width="2" fill="none" stroke="black" stroke-dasharray="none" font-family="Arial" font-size="10pt" font-weight="normal" font-style="normal" d="M-15 50L85 50"/><path stroke-width="2" fill="none" stroke="black" stroke-dasharray="none" font-family="Arial" font-size="10pt" font-weight="normal" font-style="normal" d="M-15 60L85 60"/><path stroke-width="2" fill="none" stroke="black" stroke-dasharray="none" font-family="Arial" font-size="10pt" font-weight="normal" font-style="normal" d="M-15 70L85 70"/><rect stroke-width="0.3" fill="black" stroke="black" stroke-dasharray="none" font-family="Arial" font-size="10pt" font-weight="normal" font-style="normal" x="-15" y="29.5" width="1" height="41"/><rect stroke-width="0.3" fill="black" stroke="black" stroke-dasharray="none" font-family="Arial" font-size="10pt" font-weight="normal" font-style="normal" x="85" y="29.5" width="1" height="41"/><g class="vf-stavenote" id="vf-auto4744"><g class="vf-note" pointer-events="bounding-box"><g class="vf-stem" pointer-events="bounding-box"><path stroke-width="1.5" fill="none" stroke="black" stroke-dasharray="none" font-family="Arial" font-size="10pt" font-weight="normal" font-style="normal" x="85" y="29.5" width="1" height="41" d="M2.75 45L2.75 80"/></g><g class="vf-notehead" pointer-events="bounding-box"><path stroke-width="0.3" fill="black" stroke="none" stroke-dasharray="none" font-family="Arial" font-size="10pt" font-weight="normal" font-style="normal" x="85" y="29.5" width="1" height="41" d="M2 45M9.35696 39.77712C9.469280000000001 39.77712,9.63776 39.77712,9.66584 39.77712C9.66584 39.77712,9.69392 39.77712,9.69392 39.77712C9.69392 39.77712,9.862400000000001 39.77712,10.0028 39.77712C12.530000000000001 39.917519999999996,14.01824 41.57424,14.01824 43.65216C14.01824 44.66304,13.681280000000001 45.81432,12.83888 46.909440000000004C11.23832 49.071600000000004,8.62688 50.25096,6.3524 50.25096C4.58336 50.25096,3.06704 49.54896,2.33696 48.11688C2.11232 47.55528,2 47.02176,2 46.43208C2 43.37136,5.42576 39.97368,9.35696 39.77712"/></g><g class="vf-flag" pointer-events="bounding-box"><path stroke-width="0.3" fill="black" stroke="none" stroke-dasharray="none" font-family="Arial" font-size="10pt" font-weight="normal" font-style="normal" x="85" y="29.5" width="1" height="41" d="M2.75 82M11.23016 53.04952C11.28632 53.02144,11.370560000000001 53.02144,11.39864 53.02144C11.67944 53.02144,11.876 53.16184,12.0164 53.47072C12.60608 54.7624,12.91496 56.166399999999996,12.91496 57.65464C12.91496 58.86208,12.66224 60.0976,12.2972 61.27696L12.18488 61.585840000000005L12.2972 61.866640000000004C12.7184 62.98984,12.91496 64.19728,12.91496 65.40472C12.91496 68.07232,11.876 70.73992,9.966560000000001 72.93016C9.573440000000002 73.40752,9.12416 73.85679999999999,8.47832 74.36224C6.37232 76.21552,4.60328 78.26536,3.3116 80.42752C3.08696 80.76448,2.75 81.38224,2.72192 81.49456C2.63768 81.74728,2.41304 81.88768,2.21648 81.88768L2.16032 81.88768L2.16032 78.0688L2.16032 74.24992L2.41304 74.22184C4.46288 73.91296,6.31616 73.32328,7.43936 72.64936C10.10696 71.10496,11.70752 68.21272,11.70752 65.20815999999999C11.70752 64.5904,11.65136 63.97264,11.48288 63.354879999999994L11.4548 63.10216L11.28632 63.354879999999994C10.58432 64.5904,9.77 65.51704,8.47832 66.61216C6.37232 68.43736,4.60328 70.51528,3.3116 72.64936C3.08696 73.0144,2.75 73.63216,2.72192 73.80064C2.63768 73.99719999999999,2.41304 74.1376,2.21648 74.1376L2.16032 74.1376L2.16032 70.31872L2.16032 66.49984L2.41304 66.47176C4.46288 66.16288,6.31616 65.5732,7.43936 64.89928C10.16312 63.29872,11.70752 60.3784,11.70752 57.458079999999995C11.70752 56.33488,11.48288 55.21168,11.00552 54.144639999999995C10.83704 53.80768,10.83704 53.72344,10.83704 53.61112C10.83704 53.33032,11.00552 53.133759999999995,11.23016 53.04952"/></g></g><g class="vf-modifiers"/></g></svg>