<?xml version="1.0" standalone="no"?><svg xmlns="http://www.w3.org/2000/svg" width="40" height="130"><path stroke-width="2" fill="none" stroke="black" stroke-dasharray="none" font-family="Arial" font-size="10pt" font-weight="normal" font-style="normal" d="M-15 30L85 30"/><path stroke-width="2" fill="none" stroke="black" stroke-dasharray="none" font-family="Arial" font-size="10pt" font-weight="normal" font-style="normal" d="M-15 40L85 40"/><path stroke-width="2" fill="none" stroke="black" stroke-dasharray="none" font-family="Arial" font-size="10pt" font-weight="normal" font-style="normal" d="M-15 50L85 50"/><path stroke-width="2" fill="none" stroke="black" stroke-dasharray="none" font-family="Arial" font-size="10pt" font-weight="normal" font-style="normal" d="M-15 60L85 60"/><path stroke-width="2" fill="none" stroke="black" stroke-dasharray="none" font-family="Arial" font-size="10pt" font-weight="normal" font-style="normal" d="M-15 70L85 70"/><rect stroke-width="0.3" fill="black" stroke="black" stroke-dasharray="none" font-family="Arial" font-size="10pt" font-weight="normal" font-style="normal" x="-15" y="29.5" width="1" height="41"/><rect stroke-width="0.3" fill="black" stroke="black" stroke-dasharray="none" font-family="Arial" font-size="10pt" font-weight="normal" font-style="normal" x="85" y="29.5" width="1" height="41"/><path stroke-width="2" fill="none" stroke="black" stroke-dasharray="none" font-family="Arial" font-size="10pt" font-weight="normal" font-style="normal" x="85" y="29.5" width="1" height="41" d="M-1 80L17.01824 80"/><g class="vf-stavenote" id="vf-auto5166"><g class="vf-note" pointer-events="bounding-box"><g class="vf-stem" pointer-events="bounding-box"><path stroke-width="1.5" fill="none" stroke="black" stroke-dasharray="none" font-family="Arial" font-size="10pt" font-weight="normal" font-style="normal" x="85" y="29.5" width="1" height="41" d="M13.26824 80L13.26824 45"/></g><g class="vf-notehead" pointer-events="bounding-box"><path stroke-width="0.3" fill="black" stroke="none" stroke-dasharray="none" font-family="Arial" font-size="10pt" font-weight="normal" font-style="normal" x="85" y="29.5" width="1" height="41" d="M2 80M9.35696 74.77712C9.469280000000001 74.77712,9.63776 74.77712,9.66584 74.77712C9.66584 74.77712,9.69392 74.77712,9.69392 74.77712C9.69392 74.77712,9.862400000000001 74.77712,10.0028 74.77712C12.530000000000001 74.91752,14.01824 76.57424,14.01824 78.65216C14.01824 79.66304,13.681280000000001 80.81432,12.83888 81.90944C11.23832 84.0716,8.62688 85.25096,6.3524 85.25096C4.58336 85.25096,3.06704 84.54896,2.33696 83.11688C2.11232 82.55528,2 82.02176,2 81.43208C2 78.37136,5.42576 74.97368,9.35696 74.77712"/></g><g class="vf-flag" pointer-events="bounding-box"><path stroke-width="0.3" fill="black" stroke="none" stroke-dasharray="none" font-family="Arial" font-size="10pt" font-weight="normal" font-style="normal" x="85" y="29.5" width="1" height="41" d="M13.26824 43M12.59432 47.12776L12.59432 43.1404L12.70664 43.1404C12.931280000000001 43.1404,13.15592 43.30888,13.240160000000001 43.53352C13.436720000000001 44.20744,14.138720000000001 45.41488,14.896880000000001 46.45384C15.87968 47.85784,17.03096 49.14952,18.77192 50.80624C20.96216 52.99648,22.169600000000003 55.9168,22.169600000000003 59.0056C22.169600000000003 60.32536,21.91688 61.70128,21.523760000000003 63.02104L21.383360000000003 63.32992L21.523760000000003 63.6388C21.91688 64.9024,22.169600000000003 66.22216,22.169600000000003 67.51384C22.169600000000003 70.04104000000001,21.35528 72.59632,19.86704 74.78656000000001C19.67048 75.0112,19.55816 75.17967999999999,19.136960000000002 75.7132C18.996560000000002 75.90976,18.77192 76.05016,18.57536 76.05016C18.378800000000002 76.05016,18.18224 75.90976,18.06992 75.68512C18.04184 75.60088,17.985680000000002 75.54472,17.985680000000002 75.40432C17.985680000000002 75.26392,18.098 75.06736000000001,18.350720000000003 74.78656000000001C19.95128 72.87712,20.82176 70.378,20.82176 68.01928000000001C20.82176 67.87888000000001,20.82176 67.82272,20.82176 67.73848C20.82176 67.06456,20.70944 66.22216,20.6252 65.85712000000001C20.59712 65.77288,20.540960000000002 65.63248,20.512880000000003 65.464C20.007440000000003 63.52648,18.82808 61.72936,17.2556 60.634240000000005C16.4132 60.01648,14.588000000000001 59.53912,13.0436 59.53912C12.9032 59.53912,12.734720000000001 59.53912,12.70664 59.53912L12.59432 59.53912L12.59432 55.60792L12.59432 51.64864L12.70664 51.64864C12.931280000000001 51.64864,13.15592 51.78904,13.240160000000001 52.04176C13.436720000000001 52.6876,14.138720000000001 53.89504,14.896880000000001 54.90592C15.87968 56.36608,17.08712 57.68584,18.71576 59.2864C19.47392 60.01648,20.147840000000002 60.830799999999996,20.540960000000002 61.5328C20.540960000000002 61.58896,20.59712 61.61704,20.59712 61.61704C20.6252 61.61704,20.6252 61.5328,20.68136 61.42048C20.793680000000002 60.74656,20.82176 60.1288,20.82176 59.482960000000006C20.82176 58.893280000000004,20.793680000000002 58.27552,20.68136 57.62968C20.68136 57.51736,20.6252 57.40504,20.6252 57.37696C20.59712 57.29272,20.540960000000002 57.12424,20.512880000000003 56.98384C20.007440000000003 55.01824,18.82808 53.2492,17.2556 52.15408C16.4132 51.50824,14.588000000000001 51.08704,13.0436 51.05896C12.9032 51.05896,12.734720000000001 51.05896,12.70664 51.05896L12.59432 51.05896L12.59432 47.12776"/></g></g><g class="vf-modifiers"><path stroke-width="0.3" fill="black" stroke="none" stroke-dasharray="none" font-family="Arial" font-size="10pt" font-weight="normal" font-style="normal" x="85" y="29.5" width="1" height="41" d="M30.59352 75 A2 2 0 0 0 26.59352 75M0 0M26.59352 75 A2 2 0 0 0 30.59352 75M0 0"/></g></g></svg>