<?xml version="1.0" standalone="no"?><svg xmlns="http://www.w3.org/2000/svg" width="40" height="130"><path stroke-width="2" fill="none" stroke="black" stroke-dasharray="none" font-family="Arial" font-size="10pt" font-weight="normal" font-style="normal" d="M-15 30L85 30"/><path stroke-width="2" fill="none" stroke="black" stroke-dasharray="none" font-family="Arial" font-size="10pt" font-weight="normal" font-style="normal" d="M-15 40L85 40"/><path stroke-width="2" fill="none" stroke="black" stroke-dasharray="none" font-family="Arial" font-size="10pt" font-weight="normal" font-style="normal" d="M-15 50L85 50"/><path stroke-width="2" fill="none" stroke="black" stroke-dasharray="none" font-family="Arial" font-size="10pt" font-weight="normal" font-style="normal" d="M-15 60L85 60"/><path stroke-width="2" fill="none" stroke="black" stroke-dasharray="none" font-family="Arial" font-size="10pt" font-weight="normal" font-style="normal" d="M-15 70L85 70"/><rect stroke-width="0.3" fill="black" stroke="black" stroke-dasharray="none" font-family="Arial" font-size="10pt" font-weight="normal" font-style="normal" x="-15" y="29.5" width="1" height="41"/><rect stroke-width="0.3" fill="black" stroke="black" stroke-dasharray="none" font-family="Arial" font-size="10pt" font-weight="normal" font-style="normal" x="85" y="29.5" width="1" height="41"/><path stroke-width="2" fill="none" stroke="black" stroke-dasharray="none" font-family="Arial" font-size="10pt" font-weight="normal" font-style="normal" x="85" y="29.5" width="1" height="41" d="M11.83728 80L35.2188 80"/><path stroke-width="2" fill="none" stroke="black" stroke-dasharray="none" font-family="Arial" font-size="10pt" font-weight="normal" font-style="normal" x="85" y="29.5" width="1" height="41" d="M11.83728 90L35.2188 90"/><path stroke-width="2" fill="none" stroke="black" stroke-dasharray="none" font-family="Arial" font-size="10pt" font-weight="normal" font-style="normal" x="85" y="29.5" width="1" height="41" d="M11.83728 100L35.2188 100"/><path stroke-width="2" fill="none" stroke="black" stroke-dasharray="none" font-family="Arial" font-size="10pt" font-weight="normal" font-style="normal" x="85" y="29.5" width="1" height="41" d="M11.83728 110L35.2188 110"/><g class="vf-stavenote" id="vf-auto1111"><g class="vf-note" pointer-events="bounding-box"><g class="vf-notehead" pointer-events="bounding-box"><path stroke-width="0.3" fill="black" stroke="none" stroke-dasharray="none" font-family="Arial" font-size="10pt" font-weight="normal" font-style="normal" x="85" y="29.5" width="1" height="41" d="M14.83728 115M22.5312 109.83328C22.84008 109.77712,23.148960000000002 109.77712,23.45784 109.77712C27.89448 109.77712,31.60104 111.74272,32.13456 114.38224C32.162639999999996 114.63496,32.2188 114.8596,32.2188 115.02808C32.2188 117.92032,28.39992 120.25096,23.48592 120.25096C18.57192 120.25096,14.83728 117.86416,14.83728 115.02808C14.83728 114.69112,14.865359999999999 114.35416,14.97768 113.98912C15.6516 111.7708,18.79656 110.05792,22.5312 109.83328M22.9524 110.47912C22.812 110.45104,22.61544 110.45104,22.47504 110.45104C20.706 110.45104,19.63896 111.96736,19.63896 113.84872C19.63896 114.8596,19.94784 115.95472,20.59368 117.04984C21.66072 118.73464,23.20512 119.57704,24.52488 119.57704C25.64808 119.57704,26.630879999999998 118.98736,27.08016 117.75184C27.27672 117.2464,27.36096 116.74096,27.36096 116.20744C27.36096 113.68024,25.42344 110.87224,22.9524 110.47912"/></g></g><g class="vf-modifiers"><path stroke-width="0.3" fill="black" stroke="none" stroke-dasharray="none" font-family="Arial" font-size="10pt" font-weight="normal" font-style="normal" x="85" y="29.5" width="1" height="41" d="M3 115M8.93712 100.36240000000001C9.0192 100.30768,9.04656 100.30768,9.155999999999999 100.30768C9.4296 100.30768,9.62112 100.41712,9.703199999999999 100.66336L9.73056 100.74544L9.757919999999999 104.3296L9.757919999999999 107.94112L10.46928 107.7496C10.87968 107.64016,11.18064 107.6128,11.37216 107.6128C11.6184 107.6128,11.72784 107.69488,11.80992 107.91376C11.83728 107.99584,11.83728 108.62512,11.83728 109.30912000000001C11.83728 109.96576,11.83728 110.64976,11.80992 110.67712C11.700479999999999 110.95072,11.6184 110.97808,10.87968 111.1696C9.94944 111.41584,9.757919999999999 111.4432,9.757919999999999 111.4432C9.757919999999999 111.4432,9.757919999999999 112.15456,9.757919999999999 113.2216C9.757919999999999 113.60464,9.757919999999999 114.01504,9.757919999999999 114.4528L9.757919999999999 117.40768L10.46928 117.21616C10.907039999999999 117.10672,11.18064 117.07936,11.37216 117.07936C11.50896 117.07936,11.6184 117.10672,11.700479999999999 117.21616C11.83728 117.38032,11.83728 117.35296,11.83728 118.36528L11.83728 118.77568L11.83728 119.21344C11.83728 120.22576,11.83728 120.19839999999999,11.700479999999999 120.3352C11.59104 120.44463999999999,11.6184 120.44463999999999,10.359839999999998 120.7456C10.08624 120.82768,9.84 120.90976,9.81264 120.90976L9.757919999999999 120.90976L9.757919999999999 124.54864L9.73056 128.21488L9.703199999999999 128.32432C9.62112 128.5432,9.402239999999999 128.65264,9.155999999999999 128.65264C8.99184 128.65264,8.7456 128.5432,8.63616 128.32432L8.608799999999999 128.21488L8.608799999999999 124.7128L8.608799999999999 121.21072L8.58144 121.21072L7.95216 121.37488L6.7756799999999995 121.67584C6.47472 121.75792,6.2011199999999995 121.81264,6.2011199999999995 121.81264C6.1464 121.81264,6.1464 122.00416,6.1464 125.5336L6.1464 129.30928L6.11904 129.39136C6.0096 129.61024,5.79072 129.71968,5.5992 129.71968C5.380319999999999 129.71968,5.13408 129.61024,5.02464 129.39136L4.99728 129.30928L4.99728 125.69776C4.99728 122.35984,4.99728 122.1136,4.96992 122.1136C4.96992 122.1136,4.96992 122.1136,4.96992 122.1136C4.66896 122.19568,3.62928 122.46928,3.51984 122.46928C3.2736 122.46928,3.10944 122.30512,3 122.1136C3 122.00416,3 122.00416,3 120.71824L3 119.43232L3.02736 119.32288C3.1368 119.04928,3.1368 119.04928,4.66896 118.66624L4.99728 118.58416L4.99728 115.60192C4.99728 112.83856,4.99728 112.64704,4.96992 112.64704C4.96992 112.64704,4.96992 112.64704,4.96992 112.64704C4.66896 112.72912,3.62928 112.97536,3.51984 112.97536C3.2736 112.97536,3.10944 112.83856,3 112.64704C3 112.5376,3 112.5376,3 111.25168L3 109.96576L3.02736 109.85632C3.1368 109.58272,3.1368 109.58272,4.66896 109.19968L4.99728 109.1176L4.99728 105.47872L4.99728 101.83984L5.02464 101.7304C5.13408 101.53888,5.380319999999999 101.37472,5.5992 101.37472C5.68128 101.37472,5.736 101.42944,5.81808 101.4568C5.9275199999999995 101.48416,6.03696 101.62096,6.11904 101.7304L6.1464 101.83984L6.1464 105.34192L6.1464 108.81664L6.31056 108.81664C6.36528 108.78928,6.85776 108.67984,7.350239999999999 108.5704L8.41728 108.24208L8.608799999999999 108.21472L8.608799999999999 104.49376L8.608799999999999 100.74544L8.63616 100.66336C8.71824 100.55392,8.80032 100.41712,8.93712 100.36240000000001M8.608799999999999 114.75376C8.608799999999999 113.0848,8.608799999999999 111.74416,8.608799999999999 111.74416L8.608799999999999 111.74416C8.58144 111.74416,8.307839999999999 111.82624,7.97952 111.90832L6.7756799999999995 112.20928C6.47472 112.29136,6.2011199999999995 112.34608,6.2011199999999995 112.34608C6.1464 112.34608,6.1464 112.51024,6.1464 115.32832L6.1464 118.33792L6.31056 118.2832C6.36528 118.25584,6.85776 118.1464,7.350239999999999 118.03696L8.41728 117.76336L8.608799999999999 117.68128L8.608799999999999 114.75376"/><path stroke-width="0.3" fill="black" stroke="none" stroke-dasharray="none" font-family="Arial" font-size="10pt" font-weight="normal" font-style="normal" x="85" y="29.5" width="1" height="41" d="M39.2188 115 A2 2 0 0 0 35.2188 115M0 0M35.2188 115 A2 2 0 0 0 39.2188 115M0 0"/></g></g></svg>