<?xml version="1.0" standalone="no"?><svg xmlns="http://www.w3.org/2000/svg" width="40" height="130"><path stroke-width="2" fill="none" stroke="black" stroke-dasharray="none" font-family="Arial" font-size="10pt" font-weight="normal" font-style="normal" d="M-15 30L85 30"/><path stroke-width="2" fill="none" stroke="black" stroke-dasharray="none" font-family="Arial" font-size="10pt" font-weight="normal" font-style="normal" d="M-15 40L85 40"/><path stroke-width="2" fill="none" stroke="black" stroke-dasharray="none" font-family="Arial" font-size="10pt" font-weight="normal" font-style="normal" d="M-15 50L85 50"/><path stroke-width="2" fill="none" stroke="black" stroke-dasharray="none" font-family="Arial" font-size="10pt" font-weight="normal" font-style="normal" d="M-15 60L85 60"/><path stroke-width="2" fill="none" stroke="black" stroke-dasharray="none" font-family="Arial" font-size="10pt" font-weight="normal" font-style="normal" d="M-15 70L85 70"/><rect stroke-width="0.3" fill="black" stroke="black" stroke-dasharray="none" font-family="Arial" font-size="10pt" font-weight="normal" font-style="normal" x="-15" y="29.5" width="1" height="41"/><rect stroke-width="0.3" fill="black" stroke="black" stroke-dasharray="none" font-family="Arial" font-size="10pt" font-weight="normal" font-style="normal" x="85" y="29.5" width="1" height="41"/><path stroke-width="2" fill="none" stroke="black" stroke-dasharray="none" font-family="Arial" font-size="10pt" font-weight="normal" font-style="normal" x="85" y="29.5" width="1" height="41" d="M11.83728 80L29.85552 80"/><g class="vf-stavenote" id="vf-auto2868"><g class="vf-note" pointer-events="bounding-box"><g class="vf-stem" pointer-events="bounding-box"><path stroke-width="1.5" fill="none" stroke="black" stroke-dasharray="none" font-family="Arial" font-size="10pt" font-weight="normal" font-style="normal" x="85" y="29.5" width="1" height="41" d="M26.10552 80L26.10552 45"/></g><g class="vf-notehead" pointer-events="bounding-box"><path stroke-width="0.3" fill="black" stroke="none" stroke-dasharray="none" font-family="Arial" font-size="10pt" font-weight="normal" font-style="normal" x="85" y="29.5" width="1" height="41" d="M14.83728 80M22.19424 74.77712C22.30656 74.77712,22.47504 74.77712,22.50312 74.77712C22.50312 74.77712,22.5312 74.77712,22.5312 74.77712C22.5312 74.77712,22.69968 74.77712,22.84008 74.77712C25.36728 74.91752,26.85552 76.57424,26.85552 78.65216C26.85552 79.66304,26.51856 80.81432,25.67616 81.90944C24.0756 84.0716,21.46416 85.25096,19.18968 85.25096C17.42064 85.25096,15.90432 84.54896,15.17424 83.11688C14.9496 82.55528,14.83728 82.02176,14.83728 81.43208C14.83728 78.37136,18.26304 74.97368,22.19424 74.77712"/></g></g><g class="vf-modifiers"><path stroke-width="0.3" fill="black" stroke="none" stroke-dasharray="none" font-family="Arial" font-size="10pt" font-weight="normal" font-style="normal" x="85" y="29.5" width="1" height="41" d="M3 80M8.93712 65.36240000000001C9.0192 65.30768,9.04656 65.30768,9.155999999999999 65.30768C9.4296 65.30768,9.62112 65.41712,9.703199999999999 65.66336L9.73056 65.74544L9.757919999999999 69.3296L9.757919999999999 72.94112L10.46928 72.7496C10.87968 72.64016,11.18064 72.6128,11.37216 72.6128C11.6184 72.6128,11.72784 72.69488,11.80992 72.91376C11.83728 72.99584,11.83728 73.62512,11.83728 74.30912000000001C11.83728 74.96576,11.83728 75.64976,11.80992 75.67712C11.700479999999999 75.95072,11.6184 75.97808,10.87968 76.1696C9.94944 76.41584,9.757919999999999 76.4432,9.757919999999999 76.4432C9.757919999999999 76.4432,9.757919999999999 77.15456,9.757919999999999 78.2216C9.757919999999999 78.60464,9.757919999999999 79.01504,9.757919999999999 79.4528L9.757919999999999 82.40768L10.46928 82.21616C10.907039999999999 82.10672,11.18064 82.07936,11.37216 82.07936C11.50896 82.07936,11.6184 82.10672,11.700479999999999 82.21616C11.83728 82.38032,11.83728 82.35296,11.83728 83.36528L11.83728 83.77568L11.83728 84.21344C11.83728 85.22576,11.83728 85.19839999999999,11.700479999999999 85.3352C11.59104 85.44463999999999,11.6184 85.44463999999999,10.359839999999998 85.7456C10.08624 85.82768,9.84 85.90976,9.81264 85.90976L9.757919999999999 85.90976L9.757919999999999 89.54864L9.73056 93.21488L9.703199999999999 93.32432C9.62112 93.5432,9.402239999999999 93.65264,9.155999999999999 93.65264C8.99184 93.65264,8.7456 93.5432,8.63616 93.32432L8.608799999999999 93.21488L8.608799999999999 89.7128L8.608799999999999 86.21072L8.58144 86.21072L7.95216 86.37488L6.7756799999999995 86.67584C6.47472 86.75792,6.2011199999999995 86.81264,6.2011199999999995 86.81264C6.1464 86.81264,6.1464 87.00416,6.1464 90.5336L6.1464 94.30928L6.11904 94.39135999999999C6.0096 94.61024,5.79072 94.71968,5.5992 94.71968C5.380319999999999 94.71968,5.13408 94.61024,5.02464 94.39135999999999L4.99728 94.30928L4.99728 90.69776C4.99728 87.35984,4.99728 87.1136,4.96992 87.1136C4.96992 87.1136,4.96992 87.1136,4.96992 87.1136C4.66896 87.19568,3.62928 87.46928,3.51984 87.46928C3.2736 87.46928,3.10944 87.30512,3 87.1136C3 87.00416,3 87.00416,3 85.71824L3 84.43232L3.02736 84.32288C3.1368 84.04928,3.1368 84.04928,4.66896 83.66624L4.99728 83.58416L4.99728 80.60192C4.99728 77.83856,4.99728 77.64704,4.96992 77.64704C4.96992 77.64704,4.96992 77.64704,4.96992 77.64704C4.66896 77.72912,3.62928 77.97536,3.51984 77.97536C3.2736 77.97536,3.10944 77.83856,3 77.64704C3 77.5376,3 77.5376,3 76.25168L3 74.96576L3.02736 74.85632C3.1368 74.58272,3.1368 74.58272,4.66896 74.19968L4.99728 74.1176L4.99728 70.47872L4.99728 66.83984L5.02464 66.7304C5.13408 66.53888,5.380319999999999 66.37472,5.5992 66.37472C5.68128 66.37472,5.736 66.42944,5.81808 66.4568C5.9275199999999995 66.48416,6.03696 66.62096,6.11904 66.7304L6.1464 66.83984L6.1464 70.34192L6.1464 73.81664L6.31056 73.81664C6.36528 73.78928,6.85776 73.67984,7.350239999999999 73.5704L8.41728 73.24208L8.608799999999999 73.21472L8.608799999999999 69.49376L8.608799999999999 65.74544L8.63616 65.66336C8.71824 65.55392,8.80032 65.41712,8.93712 65.36240000000001M8.608799999999999 79.75376C8.608799999999999 78.0848,8.608799999999999 76.74416,8.608799999999999 76.74416L8.608799999999999 76.74416C8.58144 76.74416,8.307839999999999 76.82624,7.97952 76.90832L6.7756799999999995 77.20928C6.47472 77.29136,6.2011199999999995 77.34608,6.2011199999999995 77.34608C6.1464 77.34608,6.1464 77.51024,6.1464 80.32832L6.1464 83.33792L6.31056 83.2832C6.36528 83.25584,6.85776 83.1464,7.350239999999999 83.03696L8.41728 82.76336L8.608799999999999 82.68128L8.608799999999999 79.75376"/></g></g></svg>