<?xml version="1.0" standalone="no"?><svg xmlns="http://www.w3.org/2000/svg" width="40" height="130"><path stroke-width="2" fill="none" stroke="black" stroke-dasharray="none" font-family="Arial" font-size="10pt" font-weight="normal" font-style="normal" d="M-15 30L85 30"/><path stroke-width="2" fill="none" stroke="black" stroke-dasharray="none" font-family="Arial" font-size="10pt" font-weight="normal" font-style="normal" d="M-15 40L85 40"/><path stroke-width="2" fill="none" stroke="black" stroke-dasharray="none" font-family="Arial" font-size="10pt" font-weight="normal" font-style="normal" d="M-15 50L85 50"/><path stroke-width="2" fill="none" stroke="black" stroke-dasharray="none" font-family="Arial" font-size="10pt" font-weight="normal" font-style="normal" d="M-15 60L85 60"/><path stroke-width="2" fill="none" stroke="black" stroke-dasharray="none" font-family="Arial" font-size="10pt" font-weight="normal" font-style="normal" d="M-15 70L85 70"/><rect stroke-width="0.3" fill="black" stroke="black" stroke-dasharray="none" font-family="Arial" font-size="10pt" font-weight="normal" font-style="normal" x="-15" y="29.5" width="1" height="41"/><rect stroke-width="0.3" fill="black" stroke="black" stroke-dasharray="none" font-family="Arial" font-size="10pt" font-weight="normal" font-style="normal" x="85" y="29.5" width="1" height="41"/><g class="vf-stavenote" id="vf-auto3117"><g class="vf-note" pointer-events="bounding-box"><g class="vf-stem" pointer-events="bounding-box"><path stroke-width="1.5" fill="none" stroke="black" stroke-dasharray="none" font-family="Arial" font-size="10pt" font-weight="normal" font-style="normal" x="85" y="29.5" width="1" height="41" d="M15.58728 45L15.58728 80"/></g><g class="vf-notehead" pointer-events="bounding-box"><path stroke-width="0.3" fill="black" stroke="none" stroke-dasharray="none" font-family="Arial" font-size="10pt" font-weight="normal" font-style="normal" x="85" y="29.5" width="1" height="41" d="M14.83728 45M22.19424 39.77712C22.30656 39.77712,22.47504 39.77712,22.50312 39.77712C22.50312 39.77712,22.5312 39.77712,22.5312 39.77712C22.5312 39.77712,22.69968 39.77712,22.84008 39.77712C25.36728 39.917519999999996,26.85552 41.57424,26.85552 43.65216C26.85552 44.66304,26.51856 45.81432,25.67616 46.909440000000004C24.0756 49.071600000000004,21.46416 50.25096,19.18968 50.25096C17.42064 50.25096,15.90432 49.54896,15.17424 48.11688C14.9496 47.55528,14.83728 47.02176,14.83728 46.43208C14.83728 43.37136,18.26304 39.97368,22.19424 39.77712"/></g></g><g class="vf-modifiers"><path stroke-width="0.3" fill="black" stroke="none" stroke-dasharray="none" font-family="Arial" font-size="10pt" font-weight="normal" font-style="normal" x="85" y="29.5" width="1" height="41" d="M3 45M8.93712 30.3624C9.0192 30.30768,9.04656 30.30768,9.155999999999999 30.30768C9.4296 30.30768,9.62112 30.41712,9.703199999999999 30.66336L9.73056 30.745440000000002L9.757919999999999 34.3296L9.757919999999999 37.94112L10.46928 37.7496C10.87968 37.64016,11.18064 37.6128,11.37216 37.6128C11.6184 37.6128,11.72784 37.69488,11.80992 37.913759999999996C11.83728 37.99584,11.83728 38.62512,11.83728 39.30912C11.83728 39.96576,11.83728 40.64976,11.80992 40.67712C11.700479999999999 40.950720000000004,11.6184 40.97808,10.87968 41.1696C9.94944 41.41584,9.757919999999999 41.4432,9.757919999999999 41.4432C9.757919999999999 41.4432,9.757919999999999 42.154560000000004,9.757919999999999 43.2216C9.757919999999999 43.60464,9.757919999999999 44.01504,9.757919999999999 44.4528L9.757919999999999 47.40768L10.46928 47.21616C10.907039999999999 47.10672,11.18064 47.07936,11.37216 47.07936C11.50896 47.07936,11.6184 47.10672,11.700479999999999 47.21616C11.83728 47.38032,11.83728 47.35296,11.83728 48.36528L11.83728 48.77568L11.83728 49.21344C11.83728 50.22576,11.83728 50.1984,11.700479999999999 50.3352C11.59104 50.44464,11.6184 50.44464,10.359839999999998 50.745599999999996C10.08624 50.82768,9.84 50.90976,9.81264 50.90976L9.757919999999999 50.90976L9.757919999999999 54.54864L9.73056 58.21488L9.703199999999999 58.32432C9.62112 58.5432,9.402239999999999 58.65264,9.155999999999999 58.65264C8.99184 58.65264,8.7456 58.5432,8.63616 58.32432L8.608799999999999 58.21488L8.608799999999999 54.7128L8.608799999999999 51.21072L8.58144 51.21072L7.95216 51.37488L6.7756799999999995 51.67584C6.47472 51.75792,6.2011199999999995 51.81264,6.2011199999999995 51.81264C6.1464 51.81264,6.1464 52.00416,6.1464 55.5336L6.1464 59.30928L6.11904 59.39136C6.0096 59.61024,5.79072 59.71968,5.5992 59.71968C5.380319999999999 59.71968,5.13408 59.61024,5.02464 59.39136L4.99728 59.30928L4.99728 55.69776C4.99728 52.35984,4.99728 52.1136,4.96992 52.1136C4.96992 52.1136,4.96992 52.1136,4.96992 52.1136C4.66896 52.195679999999996,3.62928 52.46928,3.51984 52.46928C3.2736 52.46928,3.10944 52.30512,3 52.1136C3 52.00416,3 52.00416,3 50.71824L3 49.43232L3.02736 49.32288C3.1368 49.049279999999996,3.1368 49.049279999999996,4.66896 48.66624L4.99728 48.58416L4.99728 45.60192C4.99728 42.83856,4.99728 42.64704,4.96992 42.64704C4.96992 42.64704,4.96992 42.64704,4.96992 42.64704C4.66896 42.72912,3.62928 42.97536,3.51984 42.97536C3.2736 42.97536,3.10944 42.83856,3 42.64704C3 42.5376,3 42.5376,3 41.25168L3 39.96576L3.02736 39.85632C3.1368 39.58272,3.1368 39.58272,4.66896 39.19968L4.99728 39.1176L4.99728 35.47872L4.99728 31.839840000000002L5.02464 31.730400000000003C5.13408 31.53888,5.380319999999999 31.37472,5.5992 31.37472C5.68128 31.37472,5.736 31.42944,5.81808 31.4568C5.9275199999999995 31.484160000000003,6.03696 31.62096,6.11904 31.730400000000003L6.1464 31.839840000000002L6.1464 35.34192L6.1464 38.81664L6.31056 38.81664C6.36528 38.78928,6.85776 38.67984,7.350239999999999 38.5704L8.41728 38.24208L8.608799999999999 38.21472L8.608799999999999 34.49376L8.608799999999999 30.745440000000002L8.63616 30.66336C8.71824 30.553919999999998,8.80032 30.41712,8.93712 30.3624M8.608799999999999 44.75376C8.608799999999999 43.0848,8.608799999999999 41.74416,8.608799999999999 41.74416L8.608799999999999 41.74416C8.58144 41.74416,8.307839999999999 41.82624,7.97952 41.90832L6.7756799999999995 42.20928C6.47472 42.29136,6.2011199999999995 42.34608,6.2011199999999995 42.34608C6.1464 42.34608,6.1464 42.51024,6.1464 45.32832L6.1464 48.33792L6.31056 48.2832C6.36528 48.25584,6.85776 48.1464,7.350239999999999 48.03696L8.41728 47.76336L8.608799999999999 47.68128L8.608799999999999 44.75376"/><path stroke-width="0.3" fill="black" stroke="none" stroke-dasharray="none" font-family="Arial" font-size="10pt" font-weight="normal" font-style="normal" x="85" y="29.5" width="1" height="41" d="M33.85552 45 A2 2 0 0 0 29.85552 45M0 0M29.85552 45 A2 2 0 0 0 33.85552 45M0 0"/></g></g></svg>