<?xml version="1.0" standalone="no"?><svg xmlns="http://www.w3.org/2000/svg" width="40" height="130"><path stroke-width="2" fill="none" stroke="black" stroke-dasharray="none" font-family="Arial" font-size="10pt" font-weight="normal" font-style="normal" d="M-15 30L85 30"/><path stroke-width="2" fill="none" stroke="black" stroke-dasharray="none" font-family="Arial" font-size="10pt" font-weight="normal" font-style="normal" d="M-15 40L85 40"/><path stroke-width="2" fill="none" stroke="black" stroke-dasharray="none" font-family="Arial" font-size="10pt" font-weight="normal" font-style="normal" d="M-15 50L85 50"/><path stroke-width="2" fill="none" stroke="black" stroke-dasharray="none" font-family="Arial" font-size="10pt" font-weight="normal" font-style="normal" d="M-15 60L85 60"/><path stroke-width="2" fill="none" stroke="black" stroke-dasharray="none" font-family="Arial" font-size="10pt" font-weight="normal" font-style="normal" d="M-15 70L85 70"/><rect stroke-width="0.3" fill="black" stroke="black" stroke-dasharray="none" font-family="Arial" font-size="10pt" font-weight="normal" font-style="normal" x="-15" y="29.5" width="1" height="41"/><rect stroke-width="0.3" fill="black" stroke="black" stroke-dasharray="none" font-family="Arial" font-size="10pt" font-weight="normal" font-style="normal" x="85" y="29.5" width="1" height="41"/><path stroke-width="2" fill="none" stroke="black" stroke-dasharray="none" font-family="Arial" font-size="10pt" font-weight="normal" font-style="normal" x="85" y="29.5" width="1" height="41" d="M11.83728 80L29.85552 80"/><path stroke-width="2" fill="none" stroke="black" stroke-dasharray="none" font-family="Arial" font-size="10pt" font-weight="normal" font-style="normal" x="85" y="29.5" width="1" height="41" d="M11.83728 90L29.85552 90"/><path stroke-width="2" fill="none" stroke="black" stroke-dasharray="none" font-family="Arial" font-size="10pt" font-weight="normal" font-style="normal" x="85" y="29.5" width="1" height="41" d="M11.83728 100L29.85552 100"/><path stroke-width="2" fill="none" stroke="black" stroke-dasharray="none" font-family="Arial" font-size="10pt" font-weight="normal" font-style="normal" x="85" y="29.5" width="1" height="41" d="M11.83728 110L29.85552 110"/><g class="vf-stavenote" id="vf-auto4761"><g class="vf-note" pointer-events="bounding-box"><g class="vf-stem" pointer-events="bounding-box"><path stroke-width="1.5" fill="none" stroke="black" stroke-dasharray="none" font-family="Arial" font-size="10pt" font-weight="normal" font-style="normal" x="85" y="29.5" width="1" height="41" d="M26.10552 115L26.10552 80"/></g><g class="vf-notehead" pointer-events="bounding-box"><path stroke-width="0.3" fill="black" stroke="none" stroke-dasharray="none" font-family="Arial" font-size="10pt" font-weight="normal" font-style="normal" x="85" y="29.5" width="1" height="41" d="M14.83728 115M22.19424 109.77712C22.30656 109.77712,22.47504 109.77712,22.50312 109.77712C22.50312 109.77712,22.5312 109.77712,22.5312 109.77712C22.5312 109.77712,22.69968 109.77712,22.84008 109.77712C25.36728 109.91752,26.85552 111.57424,26.85552 113.65216C26.85552 114.66304,26.51856 115.81432,25.67616 116.90944C24.0756 119.0716,21.46416 120.25096,19.18968 120.25096C17.42064 120.25096,15.90432 119.54896,15.17424 118.11688C14.9496 117.55528,14.83728 117.02176,14.83728 116.43208C14.83728 113.37136,18.26304 109.97368,22.19424 109.77712"/></g><g class="vf-flag" pointer-events="bounding-box"><path stroke-width="0.3" fill="black" stroke="none" stroke-dasharray="none" font-family="Arial" font-size="10pt" font-weight="normal" font-style="normal" x="85" y="29.5" width="1" height="41" d="M26.10552 78M25.4316 82.12776L25.4316 78.1404L25.54392 78.1404C25.768559999999997 78.1404,25.993199999999998 78.30888,26.07744 78.53352C26.273999999999997 79.20744,26.976 80.41488,27.73416 81.45384C28.71696 82.85784,29.86824 84.14952,31.609199999999998 85.80624C33.79944 87.99648,35.006879999999995 90.9168,35.006879999999995 94.0056C35.006879999999995 95.32536,34.75416 96.70128,34.36104 98.02104L34.22064 98.32992L34.36104 98.6388C34.75416 99.9024,35.006879999999995 101.22216,35.006879999999995 102.51384C35.006879999999995 105.04104000000001,34.19256 107.59632,32.704319999999996 109.78656000000001C32.50776 110.0112,32.39544 110.17967999999999,31.974239999999998 110.7132C31.83384 110.90976,31.609199999999998 111.05016,31.41264 111.05016C31.216079999999998 111.05016,31.01952 110.90976,30.9072 110.68512C30.87912 110.60088,30.82296 110.54472,30.82296 110.40432C30.82296 110.26392,30.93528 110.06736000000001,31.188 109.78656000000001C32.78856 107.87712,33.65904 105.378,33.65904 103.01928000000001C33.65904 102.87888000000001,33.65904 102.82272,33.65904 102.73848C33.65904 102.06456,33.54672 101.22216,33.46248 100.85712000000001C33.4344 100.77288,33.37824 100.63248,33.35016 100.464C32.844719999999995 98.52647999999999,31.66536 96.72936,30.092879999999997 95.63424C29.25048 95.01648,27.425279999999997 94.53912,25.880879999999998 94.53912C25.740479999999998 94.53912,25.572 94.53912,25.54392 94.53912L25.4316 94.53912L25.4316 90.60792000000001L25.4316 86.64864L25.54392 86.64864C25.768559999999997 86.64864,25.993199999999998 86.78904,26.07744 87.04176C26.273999999999997 87.6876,26.976 88.89504,27.73416 89.90592C28.71696 91.36608,29.9244 92.68584,31.55304 94.2864C32.3112 95.01648,32.985119999999995 95.8308,33.37824 96.53280000000001C33.37824 96.58896,33.4344 96.61704,33.4344 96.61704C33.46248 96.61704,33.46248 96.53280000000001,33.51864 96.42048C33.63096 95.74656,33.65904 95.1288,33.65904 94.48296C33.65904 93.89328,33.63096 93.27552,33.51864 92.62968000000001C33.51864 92.51736,33.46248 92.40504,33.46248 92.37696C33.4344 92.29272,33.37824 92.12424,33.35016 91.98384C32.844719999999995 90.01824,31.66536 88.2492,30.092879999999997 87.15408C29.25048 86.50824,27.425279999999997 86.08704,25.880879999999998 86.05896C25.740479999999998 86.05896,25.572 86.05896,25.54392 86.05896L25.4316 86.05896L25.4316 82.12776"/></g></g><g class="vf-modifiers"><path stroke-width="0.3" fill="black" stroke="none" stroke-dasharray="none" font-family="Arial" font-size="10pt" font-weight="normal" font-style="normal" x="85" y="29.5" width="1" height="41" d="M3 115M8.93712 100.36240000000001C9.0192 100.30768,9.04656 100.30768,9.155999999999999 100.30768C9.4296 100.30768,9.62112 100.41712,9.703199999999999 100.66336L9.73056 100.74544L9.757919999999999 104.3296L9.757919999999999 107.94112L10.46928 107.7496C10.87968 107.64016,11.18064 107.6128,11.37216 107.6128C11.6184 107.6128,11.72784 107.69488,11.80992 107.91376C11.83728 107.99584,11.83728 108.62512,11.83728 109.30912000000001C11.83728 109.96576,11.83728 110.64976,11.80992 110.67712C11.700479999999999 110.95072,11.6184 110.97808,10.87968 111.1696C9.94944 111.41584,9.757919999999999 111.4432,9.757919999999999 111.4432C9.757919999999999 111.4432,9.757919999999999 112.15456,9.757919999999999 113.2216C9.757919999999999 113.60464,9.757919999999999 114.01504,9.757919999999999 114.4528L9.757919999999999 117.40768L10.46928 117.21616C10.907039999999999 117.10672,11.18064 117.07936,11.37216 117.07936C11.50896 117.07936,11.6184 117.10672,11.700479999999999 117.21616C11.83728 117.38032,11.83728 117.35296,11.83728 118.36528L11.83728 118.77568L11.83728 119.21344C11.83728 120.22576,11.83728 120.19839999999999,11.700479999999999 120.3352C11.59104 120.44463999999999,11.6184 120.44463999999999,10.359839999999998 120.7456C10.08624 120.82768,9.84 120.90976,9.81264 120.90976L9.757919999999999 120.90976L9.757919999999999 124.54864L9.73056 128.21488L9.703199999999999 128.32432C9.62112 128.5432,9.402239999999999 128.65264,9.155999999999999 128.65264C8.99184 128.65264,8.7456 128.5432,8.63616 128.32432L8.608799999999999 128.21488L8.608799999999999 124.7128L8.608799999999999 121.21072L8.58144 121.21072L7.95216 121.37488L6.7756799999999995 121.67584C6.47472 121.75792,6.2011199999999995 121.81264,6.2011199999999995 121.81264C6.1464 121.81264,6.1464 122.00416,6.1464 125.5336L6.1464 129.30928L6.11904 129.39136C6.0096 129.61024,5.79072 129.71968,5.5992 129.71968C5.380319999999999 129.71968,5.13408 129.61024,5.02464 129.39136L4.99728 129.30928L4.99728 125.69776C4.99728 122.35984,4.99728 122.1136,4.96992 122.1136C4.96992 122.1136,4.96992 122.1136,4.96992 122.1136C4.66896 122.19568,3.62928 122.46928,3.51984 122.46928C3.2736 122.46928,3.10944 122.30512,3 122.1136C3 122.00416,3 122.00416,3 120.71824L3 119.43232L3.02736 119.32288C3.1368 119.04928,3.1368 119.04928,4.66896 118.66624L4.99728 118.58416L4.99728 115.60192C4.99728 112.83856,4.99728 112.64704,4.96992 112.64704C4.96992 112.64704,4.96992 112.64704,4.96992 112.64704C4.66896 112.72912,3.62928 112.97536,3.51984 112.97536C3.2736 112.97536,3.10944 112.83856,3 112.64704C3 112.5376,3 112.5376,3 111.25168L3 109.96576L3.02736 109.85632C3.1368 109.58272,3.1368 109.58272,4.66896 109.19968L4.99728 109.1176L4.99728 105.47872L4.99728 101.83984L5.02464 101.7304C5.13408 101.53888,5.380319999999999 101.37472,5.5992 101.37472C5.68128 101.37472,5.736 101.42944,5.81808 101.4568C5.9275199999999995 101.48416,6.03696 101.62096,6.11904 101.7304L6.1464 101.83984L6.1464 105.34192L6.1464 108.81664L6.31056 108.81664C6.36528 108.78928,6.85776 108.67984,7.350239999999999 108.5704L8.41728 108.24208L8.608799999999999 108.21472L8.608799999999999 104.49376L8.608799999999999 100.74544L8.63616 100.66336C8.71824 100.55392,8.80032 100.41712,8.93712 100.36240000000001M8.608799999999999 114.75376C8.608799999999999 113.0848,8.608799999999999 111.74416,8.608799999999999 111.74416L8.608799999999999 111.74416C8.58144 111.74416,8.307839999999999 111.82624,7.97952 111.90832L6.7756799999999995 112.20928C6.47472 112.29136,6.2011199999999995 112.34608,6.2011199999999995 112.34608C6.1464 112.34608,6.1464 112.51024,6.1464 115.32832L6.1464 118.33792L6.31056 118.2832C6.36528 118.25584,6.85776 118.1464,7.350239999999999 118.03696L8.41728 117.76336L8.608799999999999 117.68128L8.608799999999999 114.75376"/></g></g></svg>