<?xml version="1.0" encoding="UTF-8" standalone="no"?>
<!-- Created with Inkscape (http://www.inkscape.org/) -->

<svg
   xmlns:dc="http://purl.org/dc/elements/1.1/"
   xmlns:cc="http://creativecommons.org/ns#"
   xmlns:rdf="http://www.w3.org/1999/02/22-rdf-syntax-ns#"
   xmlns:svg="http://www.w3.org/2000/svg"
   xmlns="http://www.w3.org/2000/svg"
   xmlns:sodipodi="http://sodipodi.sourceforge.net/DTD/sodipodi-0.dtd"
   xmlns:inkscape="http://www.inkscape.org/namespaces/inkscape"
   width="100"
   height="100"
   viewBox="0 0 26.458333 26.458333"
   version="1.1"
   id="svg8"
   inkscape:version="0.92.1 r15371"
   sodipodi:docname="drawing.svg">
  <defs
     id="defs2" />
  <sodipodi:namedview
     id="base"
     pagecolor="#ffffff"
     bordercolor="#666666"
     borderopacity="1.0"
     inkscape:pageopacity="0.0"
     inkscape:pageshadow="2"
     inkscape:zoom="3.959798"
     inkscape:cx="15.298085"
     inkscape:cy="36.382363"
     inkscape:document-units="mm"
     inkscape:current-layer="layer1"
     showgrid="false"
     units="px"
     inkscape:window-width="1366"
     inkscape:window-height="705"
     inkscape:window-x="-8"
     inkscape:window-y="-8"
     inkscape:window-maximized="1" />
  <metadata
     id="metadata5">
    <rdf:RDF>
      <cc:Work
         rdf:about="">
        <dc:format>image/svg+xml</dc:format>
        <dc:type
           rdf:resource="http://purl.org/dc/dcmitype/StillImage" />
        <dc:title></dc:title>
      </cc:Work>
    </rdf:RDF>
  </metadata>
  <g
     inkscape:label="Layer 1"
     inkscape:groupmode="layer"
     id="layer1"
     transform="translate(0,-270.54167)">
    <path
       style="fill:none;stroke:#000000;stroke-width:0.26458332px;stroke-linecap:butt;stroke-linejoin:miter;stroke-opacity:1"
       d="m 3.8754081,276.08616 c 0.08909,-0.0445 0.1727756,-0.10213 0.2672694,-0.13363 0.042259,-0.0141 0.08909,0 0.133635,0 0.08909,0 0.1781796,0 0.2672693,0 0.1781797,0 0.3570912,0.0161 0.5345391,0 0.1568434,-0.0143 0.3106319,-0.0556 0.4677216,-0.0668 0.1555113,-0.0111 0.3118147,0 0.4677217,0 0.4009044,0 0.8018087,0 1.202713,0 0.4231767,0 0.8463534,0 1.2695301,0 0.2004523,0 0.4020058,-0.021 0.6013566,0 0.2258873,0.0238 0.4424276,0.10855 0.6681738,0.13364 0.1770898,0.0197 0.3587833,-0.0293 0.5345393,0 0.229367,0.0382 0.444125,0.13821 0.668173,0.20045 0.0045,10e-4 1.067863,0.26684 1.069079,0.26727 0.221016,0.078 1.095229,0.49882 1.26953,0.60135 0.341634,0.20096 0.563531,0.4241 0.868626,0.66818 0.0957,0.0765 0.846708,0.64625 1.002261,0.80181 0.123003,0.123 0.216542,0.27267 0.334087,0.4009 0.234123,0.25541 0.503209,0.47746 0.734991,0.73499 0.0954,0.106 0.178179,0.22273 0.267269,0.33409 0.01125,0.0141 0.435942,0.53779 0.467722,0.60135 0.063,0.126 0.07946,0.27088 0.133635,0.40091 0.05746,0.13791 0.142987,0.26299 0.200452,0.4009 0.05418,0.13003 0.07534,0.27267 0.133635,0.40091 0.05374,0.11823 0.142372,0.21793 0.200452,0.33408 0.05364,0.10728 0.084,0.2249 0.133634,0.33409 0.170372,0.37482 0.212172,0.36925 0.334087,0.73499 0.02904,0.0871 0.04043,0.17931 0.06682,0.26727 0.04048,0.13492 0.103077,0.2634 0.133634,0.40091 0.115495,0.51972 -0.174937,-0.17696 0.06682,0.46772 0.03497,0.0933 0.08422,0.18079 0.133635,0.26727 0.03984,0.0697 0.10824,0.12427 0.133634,0.20045 0.02113,0.0634 -0.02113,0.13706 0,0.20045 0.02539,0.0762 0.108241,0.12427 0.133635,0.20045 0.02113,0.0634 -0.01099,0.13455 0,0.20046 0.01158,0.0695 0.05524,0.13097 0.06682,0.20045 0.01831,0.10985 0,0.22272 0,0.33408 0,0.22273 0,0.44545 0,0.66818 0,0.0891 0,0.17818 0,0.26727 0,0.0445 0.0108,0.0904 0,0.13363 -0.01708,0.0683 -0.04974,0.13213 -0.06682,0.20046 -0.0054,0.0216 0.01575,0.0511 0,0.0668 -0.05678,0.0568 -0.143668,0.0768 -0.200452,0.13364 -0.07875,0.0787 -0.121707,0.18852 -0.200452,0.26727 -0.117649,0.11765 -0.513973,0.28165 -0.601357,0.33408 -0.09549,0.0573 -0.165889,0.15437 -0.267269,0.20046 -0.147612,0.0671 -0.318686,0.0698 -0.467722,0.13363 -0.165047,0.0707 -0.305002,0.19133 -0.467721,0.26727 -0.29905,0.13956 -0.681583,0.24857 -1.002261,0.33409 -0.177462,0.0473 -0.353671,0.10171 -0.534539,0.13363 -0.632508,0.11162 -1.173807,0.0382 -1.80407,0.0668 -1.836208,0.0835 0.09021,0.0668 -1.403165,0.0668 -0.890898,0 -1.781796,0 -2.6726947,0 -0.1559073,0 -0.3118146,0 -0.4677217,0 -0.1559073,0 -0.3178133,0.0428 -0.4677217,0 -0.1726573,-0.0493 -0.3147925,-0.17316 -0.4677216,-0.26727 -0.5391476,-0.33179 -1.037707,-0.74745 -1.4031651,-1.26953 -0.2559939,-0.36571 -0.1775084,-0.26425 -0.2672696,-0.66818 -0.01992,-0.0896 -0.058503,-0.17581 -0.066817,-0.26727 -0.014115,-0.15526 0,-0.31181 0,-0.46772 0,-0.11136 0,-0.22272 0,-0.33409 0,-0.1559 0,-0.31181 0,-0.46772 0,-0.17818 -0.023548,-0.35792 0,-0.53454 0.021429,-0.16072 0.08909,-0.31181 0.133635,-0.46772 0.044545,-0.1559 0.053188,-0.32694 0.1336347,-0.46772 0.101878,-0.17829 0.2870009,-0.29687 0.4009043,-0.46772 0.1105022,-0.16575 0.1595445,-0.36697 0.2672694,-0.53454 0.07222,-0.11234 0.7822459,-0.91029 0.8018087,-0.93544 0.1669121,-0.2146 0.2813915,-0.4702 0.4677216,-0.66818 0.1740451,-0.18492 0.4115554,-0.29901 0.6013564,-0.46772 0.4472964,-0.3976 0.8246967,-0.86918 1.2695303,-1.26953 0.212007,-0.19081 0.445449,-0.35636 0.668173,-0.53454 0.222725,-0.17818 0.441296,-0.36168 0.668174,-0.53454 0.240967,-0.18359 0.46862,-0.39025 0.734991,-0.53454 0.272774,-0.14775 0.586617,-0.20483 0.868626,-0.33408 0.253696,-0.11628 0.480933,-0.28543 0.734991,-0.40091 0.237326,-0.10787 0.492224,-0.17227 0.734992,-0.26727 0.963077,-0.37685 0.567343,-0.28836 1.469982,-0.53454 0.265788,-0.0725 0.531179,-0.1489 0.801809,-0.20045 0.56808,-0.1082 0.646139,-0.004 1.202713,-0.20045 0.187853,-0.0663 0.349576,-0.19328 0.534539,-0.26727 0.5767,-0.23068 0.321658,-0.0839 0.868626,-0.13363 0.113101,-0.0103 0.221396,-0.0527 0.334086,-0.0668 0.110503,-0.0138 0.222725,0 0.334087,0 0.06682,0 0.133635,0 0.200452,0 0.02227,0 0.0469,-0.01 0.06682,0 0.02817,0.0141 0.04061,0.0493 0.06682,0.0668 0.04144,0.0276 0.09842,0.0316 0.133635,0.0668 0.03522,0.0352 0.03694,0.0938 0.06682,0.13364 0.0378,0.0504 0.101224,0.0796 0.133635,0.13363 0.03624,0.0604 0.03058,0.14006 0.06682,0.20045 0.03241,0.054 0.101224,0.0796 0.133635,0.13364 7.68e-4,10e-4 0.130607,0.39283 0.133635,0.4009 0.04211,0.11231 0.104545,0.21773 0.133635,0.33409 0.0162,0.0648 -0.0094,0.13431 0,0.20045 0.09285,0.64997 0.06179,-0.19399 0.133635,0.66818 0.0111,0.13317 0,0.26727 0,0.4009 0,0.28954 0,0.57909 0,0.86863 0,0.66817 0,1.33634 0,2.00452 0,0.17818 0,0.35636 0,0.53454 0,0.1559 0.01111,0.31221 0,0.46772 -0.0051,0.0719 -0.110468,0.76823 -0.133635,0.86863 -0.03646,0.15799 -0.112205,0.30699 -0.133635,0.46772 -0.02355,0.17661 0.01367,0.35688 0,0.53454 -0.0087,0.11323 -0.0465,0.22235 -0.06682,0.33408 -0.02868,0.15777 -0.122084,0.73002 -0.133635,0.86863 -0.0092,0.11098 0.01008,0.22318 0,0.33409 -0.01227,0.13492 -0.04454,0.26726 -0.06682,0.4009 -0.0805,0.48298 -0.04513,0.36383 -0.200452,0.86863 -0.303711,0.98706 0.05778,-0.14671 -0.334087,0.73499 -0.200159,0.45036 0.103452,0.0948 -0.200452,0.60135 -0.07337,0.12229 -0.191684,0.21315 -0.267269,0.33409 -0.03733,0.0597 -0.04209,0.13451 -0.06682,0.20045 -0.04211,0.11231 -0.08,0.22681 -0.133634,0.33409 -0.07183,0.14365 -0.204003,0.25328 -0.26727,0.4009 -0.03617,0.0844 -0.04454,0.17818 -0.06682,0.26727 -0.06682,0.0891 -0.15065,0.16767 -0.200452,0.26727 -0.116654,0.23331 -0.0053,0.22976 -0.133635,0.40091 -0.09449,0.12599 -0.233264,0.2131 -0.334087,0.33408 -0.05141,0.0617 -0.07093,0.15029 -0.133635,0.20046 -0.055,0.044 -0.140057,0.0306 -0.200452,0.0668 -0.108037,0.0648 -0.162438,0.19739 -0.267269,0.26727 -0.265927,0.17729 -0.218271,0.0935 -0.467722,0.20046 -0.09155,0.0392 -0.172776,0.10213 -0.26727,0.13363 -0.107739,0.0359 -0.222724,0.0445 -0.334086,0.0668 -0.111363,0.0223 -0.221214,0.0543 -0.334087,0.0668 -0.08854,0.01 -0.17818,0 -0.26727,0 -0.111362,0 -0.222724,0 -0.334087,0 -0.356359,0 -0.712719,0 -1.069078,0 -0.349177,0 -0.260855,0.0147 -0.668174,-0.0668 -0.09005,-0.018 -0.182006,-0.0327 -0.267269,-0.0668 -0.138722,-0.0555 -0.261455,-0.14682 -0.400905,-0.20045 -0.151338,-0.0582 -0.316383,-0.0754 -0.467721,-0.13364 -0.13945,-0.0536 -0.261455,-0.14681 -0.400905,-0.20045 -0.151338,-0.0582 -0.316383,-0.0754 -0.467721,-0.13363 -0.13945,-0.0536 -0.262989,-0.14299 -0.400905,-0.20046 -0.130027,-0.0542 -0.272181,-0.0764 -0.400904,-0.13363 -0.07338,-0.0326 -0.126641,-0.102 -0.200452,-0.13364 -0.08441,-0.0362 -0.185133,-0.0257 -0.26727,-0.0668 -0.09961,-0.0498 -0.178179,-0.13364 -0.267269,-0.20046 -0.08909,-0.0668 -0.193937,-0.11664 -0.26727,-0.20045 -0.08552,-0.0977 -0.119323,-0.23267 -0.200452,-0.33408 -0.09838,-0.12298 -0.2343576,-0.2122 -0.3340862,-0.33409 C 9.787274,289.32529 9.7297457,289.16754 9.6217084,289.04869 9.5046945,288.91998 9.3383486,288.84284 9.220804,288.71461 8.863547,288.32487 8.8761004,288.16862 8.6194477,287.71235 8.448966,287.40927 8.1684596,287.0323 8.018091,286.71009 c -0.080473,-0.17245 -0.1297778,-0.35786 -0.200452,-0.53454 -0.062996,-0.15749 -0.1468131,-0.30681 -0.200452,-0.46772 -0.029786,-0.0894 -0.124019,-0.67249 -0.133635,-0.735 -0.023947,-0.15565 -0.053739,-0.31077 -0.066817,-0.46772 -0.00925,-0.11098 0,-0.22272 0,-0.33408 0,-0.13364 0,-0.26727 0,-0.40091 0,-0.44545 0,-0.8909 0,-1.33635 0,-0.17818 0,-0.35636 0,-0.53454 0,-0.11136 -0.010083,-0.22318 0,-0.33408 0.012266,-0.13492 0.044545,-0.26727 0.066817,-0.40091 0.022273,-0.13363 0.031171,-0.2702 0.066817,-0.4009 0.031559,-0.11572 0.09917,-0.2192 0.1336349,-0.33409 0.032634,-0.10878 0.042181,-0.22322 0.066817,-0.33408 0.01992,-0.0897 0.041589,-0.17898 0.066817,-0.26727 0.038698,-0.13545 0.1060093,-0.26278 0.1336347,-0.40091 0.00874,-0.0437 -0.01992,-0.0938 0,-0.13363 0.028173,-0.0564 0.095837,-0.0832 0.1336349,-0.13364 0.059763,-0.0797 0.063203,-0.19684 0.1336347,-0.26727 0.035216,-0.0352 0.093792,-0.0369 0.1336347,-0.0668 0.134071,-0.10056 0.1688534,-0.2122 0.334087,-0.26727 0.042259,-0.0141 0.08909,0 0.1336347,0 0.1113623,0 0.2227247,0 0.334087,0 0.066817,0 0.1336347,0 0.200452,0 0.066817,0 0.1362057,-0.0184 0.2004523,0 0.095773,0.0274 0.1695982,0.1141 0.2672694,0.13363 0.1310397,0.0262 0.2678177,-0.0121 0.4009037,0 0.113102,0.0103 0.222725,0.0445 0.334087,0.0668 0.111362,0.0223 0.223224,0.0422 0.334087,0.0668 0.02637,0.006 0.417316,0.0976 0.467722,0.13363 0.102524,0.0732 0.167817,0.18992 0.267269,0.26727 0.102513,0.0797 0.230192,0.12253 0.334087,0.20045 0.0756,0.0567 0.133635,0.13364 0.200452,0.20045 0.111363,0.11137 0.234359,0.2122 0.334087,0.33409 0.101704,0.12431 0.165566,0.2766 0.26727,0.40091 0.01967,0.024 0.661928,0.65746 0.668173,0.66817 0.0817,0.14006 0.07127,0.31805 0.133635,0.46772 0.04995,0.11988 0.150503,0.21421 0.200452,0.33409 0.06236,0.14967 0.08909,0.31181 0.133635,0.46772 0.04455,0.15591 0.08909,0.31181 0.133635,0.46772 0.133542,0.4674 0.275657,0.93349 0.400904,1.40317 0.04732,0.17746 0.09515,0.35495 0.133635,0.53453 0.02839,0.13248 0.03117,0.2702 0.06682,0.40091 0.03156,0.11571 0.09917,0.2192 0.133635,0.33409 0.03263,0.10877 0.03694,0.22452 0.06682,0.33408 0.03706,0.1359 0.09316,0.26598 0.133634,0.40091 0.07193,0.23978 0.08233,0.43193 0.200453,0.66817 5.29e-4,0.001 0.395676,0.52722 0.400904,0.53454 0.04668,0.0653 0.07685,0.14367 0.133635,0.20045 0.07874,0.0788 0.193284,0.11722 0.267269,0.20045 0.106703,0.12005 0.170904,0.27242 0.26727,0.40091 0.08478,0.11304 0.423339,0.3692 0.467721,0.4009 0.04053,0.029 0.08909,0.0446 0.133635,0.0668 0.08909,0.0446 0.17818,0.0891 0.26727,0.13364 0.08909,0.0445 0.178179,0.0891 0.267269,0.13363 0.04454,0.0223 0.08639,0.0511 0.133635,0.0668 0.02113,0.007 0.04455,0 0.06682,0 0.06682,0.0223 0.137456,0.0353 0.200452,0.0668 0.02817,0.0141 0.03694,0.0569 0.06682,0.0668 0.03917,0.0131 0.246139,-0.0141 0.267269,0 0.08186,0.0546 0.031,0.16624 0.133635,0.20045 0.04226,0.0141 0.09042,-0.0108 0.133635,0 0.129717,0.0324 0.214329,0.15255 0.334087,0.20046 0.02935,0.0117 0.440408,0 0.467721,0 0.0801,0 0.497457,0.0124 0.534539,0 0.02988,-0.01 0.04454,-0.0446 0.06682,-0.0668 0.02227,-0.0223 0.04454,-0.0446 0.06682,-0.0668 0.04454,-0.0445 0.08909,-0.0891 0.133635,-0.13363 0.06682,-0.0668 0.15037,-0.12032 0.200452,-0.20046 0.06357,-0.10171 0.0671,-0.23429 0.133635,-0.33408 0.06989,-0.10483 0.210924,-0.15458 0.267269,-0.26727 0.06059,-0.12118 0.02398,-0.27238 0.06682,-0.40091 0.04725,-0.14174 0.146818,-0.26145 0.200452,-0.4009 0.05821,-0.15134 0.08909,-0.31181 0.133635,-0.46772 0.04455,-0.15591 0.08909,-0.31182 0.133634,-0.46772 0.04454,-0.15591 0.0791,-0.31503 0.133635,-0.46773 0.05705,-0.15974 0.124595,-0.316 0.200452,-0.46772 0.08563,-0.17126 0.269739,-0.40831 0.334087,-0.60135 0.03591,-0.10774 0.03562,-0.22489 0.06682,-0.33409 0.03334,-0.11668 0.151086,-0.23536 0.200452,-0.33409 0.0315,-0.063 0.04209,-0.1345 0.06682,-0.20045 0.04211,-0.1123 0.09152,-0.22178 0.133635,-0.33409 0.02473,-0.0659 0.04209,-0.1345 0.06682,-0.20045 0.04211,-0.1123 0.107616,-0.217 0.133635,-0.33409 0.01932,-0.087 0,-0.17818 0,-0.26726 0,-0.0891 0,-0.17818 0,-0.26727 0,-0.33409 0,-0.66818 0,-1.00227 0,-0.20045 0,-0.4009 0,-0.60135 0,-0.0445 0,-0.0891 0,-0.13364 0,-0.0445 0.0108,-0.0904 0,-0.13363 -0.01208,-0.0483 -0.04454,-0.0891 -0.06682,-0.13364 -0.02227,-0.0445 -0.03694,-0.0938 -0.06682,-0.13363 -0.0378,-0.0504 -0.09264,-0.0858 -0.133635,-0.13364 -0.09281,-0.10828 -0.166426,-0.23324 -0.267269,-0.33408 -0.100843,-0.10085 -0.21875,-0.18339 -0.334087,-0.26727 -0.390795,-0.28422 -0.413012,-0.28548 -0.868626,-0.46772 -0.06539,-0.0262 -0.133635,-0.0446 -0.200452,-0.0668 -0.06682,-0.0223 -0.130979,-0.0552 -0.200452,-0.0668 -0.06591,-0.011 -0.133635,0 -0.200452,0 -0.06682,0 -0.133635,0 -0.200452,0 -0.244997,0 -0.489995,0 -0.734992,0 -0.111362,0 -0.223109,-0.009 -0.334086,0 -0.306707,0.0256 -0.647329,0.0896 -0.935444,0.20045 -0.139449,0.0536 -0.267269,0.13364 -0.400904,0.20046 -0.133635,0.0668 -0.280073,0.11257 -0.400904,0.20045 -0.127368,0.0926 -0.208095,0.23959 -0.334087,0.33409 -0.143653,0.10773 -0.324069,0.15952 -0.467722,0.26726 -0.125992,0.0945 -0.222724,0.22273 -0.334087,0.33409 -0.111362,0.11136 -0.217554,0.22815 -0.334087,0.33409 -0.128715,0.11701 -0.2779,0.21108 -0.400904,0.33409 -0.123004,0.123 -0.211083,0.2779 -0.334087,0.4009 -0.123004,0.123 -0.26727,0.22272 -0.400904,0.33409 -0.406486,0.33873 -0.813006,0.66033 -1.069079,1.13589 -0.152707,0.2836 -0.309968,0.77809 -0.400904,1.06908 -0.04836,0.15477 -0.08236,0.3139 -0.133635,0.46772 -0.165753,0.49726 -0.138673,0.2017 -0.267269,0.80181 -0.171604,0.80082 0.0061,0.13984 -0.06682,0.86863 -0.0091,0.0914 -0.05543,0.17614 -0.06682,0.26727 -0.01105,0.0884 0.02447,0.1816 0,0.26727 -0.0741,0.25934 -0.115864,0.15371 -0.267269,0.26726 -0.0504,0.0378 -0.08324,0.0958 -0.133635,0.13364 -0.03984,0.0299 -0.09842,0.0316 -0.133635,0.0668 -0.03522,0.0352 -0.03694,0.0938 -0.06682,0.13363 0.164879,0.20229 -0.181748,0.11493 -0.200452,0.13364 -0.271693,0.40754 0.0067,0.0618 -0.26727,0.26727 -0.01568,0.0118 -0.259194,0.26323 -0.267269,0.26727 -0.08214,0.0411 -0.178972,0.0416 -0.26727,0.0668 -0.172584,0.0493 -0.282049,0.11043 -0.467722,0.13364 -0.0884,0.0111 -0.178179,0 -0.267269,0 -0.2449967,0 -0.489994,0 -0.734991,0 -0.3118144,0 -0.6236288,0 -0.9354434,0 -0.1113623,0 -0.2227244,0 -0.3340867,0 -0.1113623,0 -0.2248874,0.0218 -0.334087,0 -0.1176118,-0.0235 -0.2170023,-0.10762 -0.334087,-0.13364 -0.4488786,-0.0997 -0.088299,0.12443 -0.534539,-0.0668 -0.073811,-0.0316 -0.1336347,-0.0891 -0.2004521,-0.13364 -0.3052839,-0.20352 -0.1436682,-0.0768 -0.4677216,-0.4009 -0.08909,-0.0891 -0.185275,-0.17161 -0.2672697,-0.26727 -0.052261,-0.061 -0.086959,-0.13511 -0.1336347,-0.20046 -0.2007957,-0.28111 -0.2704597,-0.30945 -0.4009043,-0.66817 -0.038811,-0.10673 -0.041281,-0.22343 -0.066817,-0.33409 -0.041299,-0.17896 -0.097615,-0.35444 -0.1336347,-0.53454 -0.092016,-0.46007 -0.066817,-0.51843 -0.066817,-1.00226 0,-0.51226 0,-1.02453 0,-1.5368 0,-0.31181 0,-0.62362 0,-0.93544 0,-0.13363 0,-0.26727 0,-0.4009 0,-0.11137 -0.029301,-0.22665 0,-0.33409 0.055618,-0.20393 0.2558807,-0.50243 0.4009041,-0.66817 0.082966,-0.0948 0.1916745,-0.16648 0.2672696,-0.26727 0.059763,-0.0797 0.078384,-0.1844 0.1336347,-0.26727 0.2704629,-0.4057 0.2331392,-0.2569 0.534539,-0.60136 0.073333,-0.0838 0.1217073,-0.18852 0.2004523,-0.26727 0.078745,-0.0787 0.1885244,-0.12171 0.2672694,-0.20045 0.4538515,-0.60514 8.996e-4,-0.0842 0.334087,-0.33409 0.050397,-0.0378 0.077289,-0.10546 0.1336347,-0.13363 0.039842,-0.0199 0.091376,0.0141 0.133635,0 0.059763,-0.0199 0.077289,-0.10546 0.1336347,-0.13364 0.00777,-0.004 0.2567439,-0.004 0.2672693,0 0.092481,0.037 0.1757178,0.0944 0.2672697,0.13364 0.3555198,0.15236 0.1091858,-0.0459 0.6013563,0.26727 0.1203175,0.0766 0.2137696,0.1907 0.334087,0.26727 0.1260499,0.0802 0.2697396,0.1289 0.4009044,0.20045 0.187122,0.10207 0.396152,0.25713 0.601356,0.33409 0.08599,0.0322 0.179311,0.0404 0.26727,0.0668 0.134922,0.0405 0.268522,0.0855 0.400904,0.13364 1.240292,0.45101 -0.448952,-0.15286 0.601356,0.26727 0.261577,0.10463 0.545334,0.15069 0.801809,0.26727 0.118229,0.0537 0.217928,0.14237 0.334087,0.20045 0.107278,0.0536 0.228791,0.0762 0.334087,0.13363 0.140998,0.0769 0.257251,0.19545 0.400904,0.26727 0.125992,0.063 0.282063,0.058 0.400904,0.13364 0.132869,0.0846 0.222725,0.22272 0.334087,0.33408 0.06682,0.0668 0.133635,0.13364 0.200453,0.20046 0.111362,0.11136 0.222724,0.22272 0.334086,0.33408 0.08909,0.0891 0.188563,0.16889 0.26727,0.26727 0.100332,0.12542 0.168665,0.27413 0.26727,0.40091 0.05801,0.0746 0.143755,0.12485 0.200452,0.20045 0.101777,0.1357 0.344327,0.59355 0.400904,0.73499 0.0341,0.0853 0.02952,0.18335 0.06682,0.26727 0.05275,0.11868 0.146712,0.21586 0.200453,0.33409 0.116579,0.25647 0.15069,0.54533 0.267269,0.80181 0.298959,0.65771 0.131147,-0.009 0.334087,0.73499 0.15209,0.55766 0.0046,0.10836 0.06682,0.66817 0.01014,0.0913 0.0469,0.17763 0.06682,0.26727 0.02463,0.11086 0.03927,0.22391 0.06682,0.33409 0.01708,0.0683 0.05686,0.13073 0.06682,0.20045 0.0126,0.0882 0,0.17818 0,0.26727 0,0.0445 -0.0108,0.0904 0,0.13363 0.01208,0.0483 0.05474,0.0853 0.06682,0.13364 0.01621,0.0648 0,0.13363 0,0.20045 0,0.0223 -0.01992,0.0569 0,0.0668 0.122251,0.0611 0.261864,-0.0855 0.334087,-0.13364 0.24332,-0.16221 0.240884,-0.14166 0.467721,-0.4009 0.07333,-0.0838 0.121708,-0.18853 0.200453,-0.26727 0.07874,-0.0788 0.18346,-0.12712 0.267269,-0.20045 0.09164,-0.0802 0.536926,-0.55125 0.601357,-0.60136 0.07862,-0.0611 0.187585,-0.0739 0.267269,-0.13363 0.201587,-0.15119 0.343219,-0.37055 0.534539,-0.53454 0.06097,-0.0523 0.143668,-0.0768 0.200452,-0.13364 0.05678,-0.0568 0.07685,-0.14367 0.133635,-0.20045 0.113568,-0.11357 0.287336,-0.1537 0.400904,-0.26727 0.03522,-0.0352 0.0316,-0.0984 0.06682,-0.13363 0.05678,-0.0568 0.133634,-0.0891 0.200452,-0.13364 0.06682,-0.0445 0.131591,-0.0923 0.200452,-0.13363 0.04271,-0.0256 0.09842,-0.0316 0.133635,-0.0668 0.05678,-0.0568 0.08347,-0.13775 0.133634,-0.20045 0.117338,-0.14668 0.283567,-0.25424 0.400905,-0.40091 0.187903,-0.23488 -0.05555,-0.0282 0.06682,-0.33408 0.227214,-0.56804 0.0766,0.46606 0.200452,-0.40091 0.0094,-0.0661 0,-0.13363 0,-0.20045 0,-0.0891 0,-0.17818 0,-0.26727 0,-0.0668 -0.01098,-0.13454 0,-0.20045 0.01158,-0.0695 0.05524,-0.13098 0.06682,-0.20045 0.01098,-0.0659 -0.01099,-0.13455 0,-0.20046 0.01158,-0.0695 0.053,-0.13138 0.06682,-0.20045 0.0087,-0.0437 0,-0.0891 0,-0.13363 0,-0.0668 0,-0.13364 0,-0.20046 0,-0.0242 0.0117,-0.35409 0,-0.4009 -0.01208,-0.0483 -0.04454,-0.0891 -0.06682,-0.13363 -0.04454,-0.0891 -0.08239,-0.18186 -0.133635,-0.26727 -0.01621,-0.027 -0.04454,-0.0445 -0.06682,-0.0668 -0.06682,-0.0668 -0.123559,-0.14553 -0.200452,-0.20045 -0.08105,-0.0579 -0.187585,-0.0739 -0.267269,-0.13364 -0.100794,-0.0756 -0.162438,-0.19738 -0.26727,-0.26727 -0.159317,-0.10621 -0.57916,-0.18935 -0.734991,-0.26727 -0.09961,-0.0498 -0.167664,-0.15065 -0.267269,-0.20045 -0.125993,-0.063 -0.272667,-0.0753 -0.400905,-0.13363 -0.118229,-0.0537 -0.223957,-0.13163 -0.334087,-0.20046 -0.0681,-0.0426 -0.12664,-0.102 -0.200452,-0.13363 -0.234572,-0.10053 -0.488447,-0.0668 -0.734991,-0.0668 -0.133635,0 -0.267269,0 -0.400904,0 -0.06682,0 -0.136206,-0.0184 -0.200452,0 -0.09577,0.0274 -0.180788,0.0842 -0.26727,0.13364 -0.06972,0.0398 -0.133635,0.0891 -0.200452,0.13363 -0.06682,0.0446 -0.143668,0.0768 -0.200452,0.13364 -0.07875,0.0787 -0.121707,0.18852 -0.200452,0.26727 -0.440528,0.44052 -0.121931,-0.0844 -0.534539,0.53453 -0.226469,0.33971 -0.341879,0.64103 -0.534539,1.00226 -0.0845,0.15845 -0.174884,0.31375 -0.26727,0.46773 -0.05857,0.0976 -0.493197,0.79778 -0.601356,0.93544 -0.146276,0.18617 -0.327711,0.34361 -0.467722,0.53454 -0.106189,0.1448 -0.170168,0.31667 -0.26727,0.46772 -0.103606,0.16117 -0.227809,0.30831 -0.334087,0.46772 -0.116552,0.17483 -0.217534,0.35971 -0.334087,0.53454 -0.212555,0.31883 -0.450058,0.62039 -0.668173,0.93544 -0.09142,0.13206 -0.180419,0.26581 -0.26727,0.40091 -0.113623,0.17675 -0.214485,0.36178 -0.334087,0.53454 -0.18108,0.26156 -0.437093,0.52492 -0.668174,0.73499 -0.327733,0.29794 -0.715432,0.52802 -1.135895,0.66817 -0.08712,0.029 -0.18015,0.0378 -0.267269,0.0668 -0.1113627,0.0446 -0.222725,0.0891 -0.3340873,0.13364 -0.044545,0.0445 -0.077289,0.10546 -0.1336347,0.13363 -0.2217113,0.11086 -0.4977321,0.0668 -0.7349914,0.0668 -0.2672693,0 -0.534539,0 -0.8018084,0 -0.08909,0 -0.1816076,0.0245 -0.2672696,0 -0.1508363,-0.0431 -0.2237086,-0.17529 -0.334087,-0.26727 -0.085551,-0.0713 -0.1885243,-0.12171 -0.2672694,-0.20045 -0.056784,-0.0568 -0.08909,-0.13364 -0.1336349,-0.20046 -0.044545,-0.0668 -0.08909,-0.13363 -0.1336347,-0.20045 -0.044545,-0.0668 -0.1082403,-0.12427 -0.1336347,-0.20045 -0.02113,-0.0634 0.02113,-0.13706 0,-0.20045 -0.025395,-0.0762 -0.1082403,-0.12427 -0.1336347,-0.20046 -0.042842,-0.12852 -0.038431,-0.26843 -0.066817,-0.4009 -0.038483,-0.17959 -0.099788,-0.35402 -0.133635,-0.53454 -0.033092,-0.17649 -0.044545,-0.35636 -0.066817,-0.53454 -0.022273,-0.17818 -0.055616,-0.35532 -0.066817,-0.53454 -0.011115,-0.17783 0,-0.35636 0,-0.53454 0,-0.1559 0,-0.31181 0,-0.46772 0,-0.26727 0,-0.53454 0,-0.80181 0,-0.1559 0,-0.31181 0,-0.46772 0,-0.0891 -0.00984,-0.17872 0,-0.26727 0.026877,-0.24189 0.064241,-0.32635 0.1336347,-0.53454 0.022273,-0.0668 0.03532,-0.13745 0.066817,-0.20045 0.035914,-0.0718 0.093793,-0.13073 0.133635,-0.20045 0.145446,-0.25453 0.2260968,-0.49026 0.4009041,-0.73499 0.064728,-0.0906 0.1217072,-0.18853 0.2004523,-0.26727 0.056784,-0.0568 0.1436682,-0.0768 0.200452,-0.13364 0.035216,-0.0352 0.036936,-0.0938 0.066817,-0.13363 0.3604619,-0.48062 -0.074193,0.14101 0.2672696,-0.20045 0.1382474,-0.13825 -0.2112605,0.005 0.066817,-0.13364 0.039842,-0.0199 0.093793,0.0199 0.1336347,0 0.028173,-0.0141 0.036936,-0.0568 0.066818,-0.0668 0.042259,-0.0141 0.08909,0 0.1336347,0 0.066817,0 0.1362057,-0.0184 0.2004521,0 0.095773,0.0274 0.1798264,0.0859 0.2672696,0.13363 0.2794037,0.1524 0.6114759,0.34168 0.868626,0.53454 0.1391627,0.10437 0.2606273,0.23122 0.4009041,0.33409 0.1942739,0.14246 0.4045379,0.26197 0.6013559,0.4009 0.181959,0.12844 0.351005,0.27472 0.534539,0.4009 0.173146,0.11904 0.35636,0.22273 0.534539,0.33409 0.17818,0.11136 0.349141,0.23521 0.534539,0.33409 0.149667,0.0798 0.322272,0.11318 0.467722,0.20045 1.157338,0.6944 -0.0833,0.12491 1.069078,0.73499 0.193866,0.10264 0.412284,0.15605 0.601357,0.26727 0.191973,0.11293 0.344492,0.28477 0.534539,0.40091 0.212478,0.12984 0.445449,0.22272 0.668174,0.33408 0.200452,0.15591 0.390061,0.32686 0.601356,0.46772 0.190796,0.1272 0.417909,0.19651 0.601356,0.33409 0.176389,0.13229 0.311815,0.31182 0.467722,0.46772 0.679738,0.67974 0.37055,0.34322 0.935443,1.00226 0.133635,0.15591 0.27404,0.30626 0.400905,0.46772 0.118371,0.15066 0.208605,0.32294 0.334087,0.46773 0.165032,0.19042 0.363076,0.34988 0.534539,0.53454 0.118366,0.12747 0.217073,0.27218 0.334086,0.4009 0.190691,0.20976 0.414683,0.38801 0.601357,0.60136 0.07333,0.0838 0.121707,0.18852 0.200452,0.26727 0.406101,0.4061 0.114629,0.12888 0.400904,0.20045 0.09663,0.0242 0.172776,0.10213 0.26727,0.13363 0.04226,0.0141 0.08909,0 0.133635,0 0.04454,0 0.09042,0.0108 0.133634,0 0.145435,-0.0364 0.236391,-0.16957 0.334087,-0.26727 0.111362,-0.11136 0.235704,-0.2111 0.334087,-0.33408 0.194549,-0.24319 0.270987,-0.52342 0.400904,-0.80181 0.437838,-0.93822 0.137425,-0.12055 0.400905,-1.06908 0.06224,-0.22405 0.162224,-0.43881 0.200452,-0.66817 0.02929,-0.17576 -0.0099,-0.35664 0,-0.53454 0.01242,-0.22349 0.03002,-0.44739 0.06682,-0.66818 0.03019,-0.18116 0.110854,-0.35229 0.133635,-0.53454 0.0221,-0.1768 0,-0.35636 0,-0.53454 0,-0.24499 0,-0.48999 0,-0.73499 0,-0.20045 0,-0.4009 0,-0.60135 0,-0.3195 0.02563,-0.56047 -0.06682,-0.86863 -0.02862,-0.0954 -0.09318,-0.17625 -0.133635,-0.26727 -0.04871,-0.1096 -0.07539,-0.22924 -0.133635,-0.33409 -0.05408,-0.0973 -0.14143,-0.17283 -0.200452,-0.26726 -0.05279,-0.0845 -0.08526,-0.1802 -0.133635,-0.26727 -0.06307,-0.11353 -0.131621,-0.22396 -0.200452,-0.33409 -0.04256,-0.0681 -0.07685,-0.14367 -0.133635,-0.20045 -0.03522,-0.0352 -0.09842,-0.0316 -0.133635,-0.0668 -0.05678,-0.0568 -0.07093,-0.15029 -0.133634,-0.20045 -0.055,-0.044 -0.140058,-0.0306 -0.200452,-0.0668 -0.05402,-0.0324 -0.07514,-0.11024 -0.133635,-0.13363 -0.06204,-0.0248 -0.137064,0.0211 -0.200452,0 -0.07618,-0.0254 -0.124269,-0.10825 -0.200452,-0.13364 -0.06339,-0.0211 -0.133635,0 -0.200453,0 -0.03307,0 -0.434648,0 -0.467721,0 -0.168177,0 -0.291431,-0.009 -0.467722,0.0668 -0.0579,0.0248 -0.08122,0.0987 -0.133635,0.13363 -0.284639,0.18976 -0.283052,0.0937 -0.601356,0.26727 -0.140998,0.0769 -0.26727,0.17818 -0.400904,0.26727 -0.599997,0.4 -0.242859,0.13868 -0.868626,0.66818 -0.132794,0.11236 -0.264122,0.22661 -0.400905,0.33408 -0.175132,0.13761 -0.377049,0.24342 -0.534539,0.40091 -0.179566,0.17956 -0.288155,0.42179 -0.467721,0.60135 -0.201686,0.20169 -0.449057,0.35194 -0.668174,0.53454 -0.181884,0.15157 -0.357583,0.31043 -0.534539,0.46772 -0.223958,0.19908 -0.450646,0.39528 -0.668174,0.60136 -0.205795,0.19496 -0.400904,0.4009 -0.601356,0.60136 -0.17818,0.17818 -0.345592,0.36782 -0.53454,0.53454 -0.190417,0.16801 -0.410938,0.2997 -0.601356,0.46772 -0.188947,0.16672 -0.350707,0.36219 -0.534539,0.53454 -1.007597,0.94462 -0.04524,-0.01 -1.135896,0.93544 -0.142816,0.12377 -0.26159,0.2732 -0.400904,0.4009 -0.12823,0.11755 -0.272673,0.21655 -0.400904,0.33409 -0.139313,0.1277 -0.25572,0.27992 -0.400904,0.40091 -0.123383,0.10281 -0.268853,0.17584 -0.4009042,0.26726 -0.1575279,0.10906 -0.2990279,0.24326 -0.4677217,0.33409 -0.1240261,0.0668 -0.2708765,0.0795 -0.4009044,0.13364 -0.1379151,0.0575 -0.259163,0.1532 -0.400904,0.20045 -0.3307602,0.11025 -0.7865359,0.0668 -1.1358957,0.0668 -0.08909,0 -0.1781797,0 -0.2672694,0 -0.1113623,0 -0.2260497,0.027 -0.334087,0 -0.077907,-0.0195 -0.1336347,-0.0891 -0.200452,-0.13364 -0.066817,-0.0445 -0.1436685,-0.0768 -0.2004523,-0.13363 -0.078745,-0.0788 -0.1291598,-0.18172 -0.200452,-0.26727 -0.040329,-0.0484 -0.1054622,-0.0773 -0.1336347,-0.13364 -0.041069,-0.0821 -0.04043,-0.17931 -0.066818,-0.26727 -0.040477,-0.13492 -0.074605,-0.273 -0.1336347,-0.4009 -0.5011029,-1.08572 -0.1053203,0.13213 -0.334087,-0.93545 -0.033974,-0.15854 -0.073415,-0.31717 -0.1336347,-0.46772 -0.1979403,-0.49485 -0.2966789,-0.41973 -0.3340867,-0.86862 -0.012946,-0.15537 0,-0.31182 0,-0.46772 0,-0.42318 0,-0.84636 0,-1.26953 0,-0.26727 0,-0.53454 0,-0.80181 0,-0.13364 -0.013298,-0.26794 0,-0.40091 0.029658,-0.29658 0.1166661,-0.32525 0.2672694,-0.60135 0.4559882,-0.83598 -0.072419,-0.0612 0.4677216,-0.60136 0.3842819,-0.38428 -7.408e-4,-0.17018 0.4677217,-0.53454 0.1025128,-0.0797 0.2354826,-0.11593 0.334087,-0.20045 0.060972,-0.0523 0.076851,-0.14367 0.1336347,-0.20045 0.078745,-0.0788 0.182717,-0.12798 0.2672694,-0.20046 0.071745,-0.0615 0.1336349,-0.13363 0.2004523,-0.20045 0.08909,-0.0668 0.1817184,-0.12916 0.2672694,-0.20045 0.1334288,-0.11119 0.1538671,-0.19969 0.3340869,-0.26727 0.1063369,-0.0399 0.2297018,-0.0221 0.334087,-0.0668 0.3727413,-0.15974 -0.0839,-0.11266 0.2672694,-0.20045 0.043215,-0.0108 0.08909,0 0.133635,0 0.044545,0 0.08909,0 0.1336347,0 0.05379,0 0.2253313,-0.014 0.2672693,0 0.047247,0.0158 0.08909,0.0446 0.133635,0.0668 0.08909,0.0445 0.1907503,0.0699 0.2672694,0.13363 0.061692,0.0514 0.076851,0.14367 0.1336349,0.20046 0.4942264,0.49422 0.053163,-0.15315 0.5345394,0.53453 0.07447,0.1064 0.113092,0.238 0.200452,0.33409 0.551799,0.60698 0.376926,0.16449 0.801808,0.80181 0.641895,0.96284 0.02401,0.24397 0.668174,1.1359 0.166998,0.23122 0.3578,0.4443 0.534539,0.66817 0.157356,0.19932 0.311814,0.4009 0.467722,0.60136 0.155907,0.20045 0.288155,0.42179 0.467721,0.60135 0.157491,0.15749 0.36168,0.26046 0.534539,0.40091 0.183753,0.14929 0.351778,0.31721 0.53454,0.46772 0.631265,0.51986 0.526162,0.38955 1.135895,0.86862 0.136783,0.10748 0.26727,0.22273 0.400904,0.33409 0.133635,0.11136 0.27219,0.21707 0.400905,0.33409 0.116533,0.10594 0.208094,0.23959 0.334087,0.33408 0.143653,0.10774 0.324068,0.15953 0.467721,0.26727 0.125992,0.0945 0.217026,0.22874 0.334087,0.33409 0.106004,0.0954 0.222725,0.17818 0.334087,0.26727 0.133635,0.11136 0.272189,0.21707 0.400904,0.33409 0.813795,0.73981 0.03108,0.0251 0.467722,0.53454 0.122992,0.14349 0.26727,0.26727 0.400904,0.4009 0.04454,0.0446 0.105462,0.0773 0.133635,0.13364 0.01992,0.0398 -0.02471,0.0966 0,0.13363 0.08127,0.1219 0.200452,-4.5e-4 0.200452,0.20045"
       id="path4485"
       inkscape:connector-curvature="0" />
  </g>
</svg>
