<?xml version="1.0" standalone="no"?><svg xmlns="http://www.w3.org/2000/svg" width="40" height="130"><path stroke-width="2" fill="none" stroke="black" stroke-dasharray="none" font-family="Arial" font-size="10pt" font-weight="normal" font-style="normal" d="M-15 30L85 30"/><path stroke-width="2" fill="none" stroke="black" stroke-dasharray="none" font-family="Arial" font-size="10pt" font-weight="normal" font-style="normal" d="M-15 40L85 40"/><path stroke-width="2" fill="none" stroke="black" stroke-dasharray="none" font-family="Arial" font-size="10pt" font-weight="normal" font-style="normal" d="M-15 50L85 50"/><path stroke-width="2" fill="none" stroke="black" stroke-dasharray="none" font-family="Arial" font-size="10pt" font-weight="normal" font-style="normal" d="M-15 60L85 60"/><path stroke-width="2" fill="none" stroke="black" stroke-dasharray="none" font-family="Arial" font-size="10pt" font-weight="normal" font-style="normal" d="M-15 70L85 70"/><rect stroke-width="0.3" fill="black" stroke="black" stroke-dasharray="none" font-family="Arial" font-size="10pt" font-weight="normal" font-style="normal" x="-15" y="29.5" width="1" height="41"/><rect stroke-width="0.3" fill="black" stroke="black" stroke-dasharray="none" font-family="Arial" font-size="10pt" font-weight="normal" font-style="normal" x="85" y="29.5" width="1" height="41"/><g class="vf-stavenote" id="vf-auto2442"><g class="vf-note" pointer-events="bounding-box"><g class="vf-stem" pointer-events="bounding-box"><path stroke-width="1.5" fill="none" stroke="black" stroke-dasharray="none" font-family="Arial" font-size="10pt" font-weight="normal" font-style="normal" x="85" y="29.5" width="1" height="41" d="M13.26824 65L13.26824 30"/></g><g class="vf-notehead" pointer-events="bounding-box"><path stroke-width="0.3" fill="black" stroke="none" stroke-dasharray="none" font-family="Arial" font-size="10pt" font-weight="normal" font-style="normal" x="85" y="29.5" width="1" height="41" d="M2 65M9.35696 59.77712C9.469280000000001 59.77712,9.63776 59.77712,9.66584 59.77712C9.66584 59.77712,9.69392 59.77712,9.69392 59.77712C9.69392 59.77712,9.862400000000001 59.77712,10.0028 59.77712C12.530000000000001 59.917519999999996,14.01824 61.57424,14.01824 63.65216C14.01824 64.66304,13.681280000000001 65.81432,12.83888 66.90944C11.23832 69.0716,8.62688 70.25096,6.3524 70.25096C4.58336 70.25096,3.06704 69.54896,2.33696 68.11688C2.11232 67.55528,2 67.02176,2 66.43208C2 63.37136,5.42576 59.97368,9.35696 59.77712M12.277280000000001 61.32152C12.16496 61.26536,12.024560000000001 61.23728,11.88416 61.23728C11.01368 61.23728,9.553519999999999 61.7708,8.149519999999999 62.72552C5.53808 64.35416,3.404 66.74096,3.31976 68.11688C3.31976 68.11688,3.31976 68.14496,3.31976 68.14496C3.31976 68.62232,3.62864 68.81888000000001,4.16216 68.81888000000001C5.31344 68.81888000000001,7.44752 67.83608,9.41312 66.2636C11.43488 64.66304,12.726560000000001 62.86592,12.726560000000001 61.93928C12.726560000000001 61.6304,12.58616 61.37768,12.277280000000001 61.32152"/></g></g><g class="vf-modifiers"><path stroke-width="0.3" fill="black" stroke="none" stroke-dasharray="none" font-family="Arial" font-size="10pt" font-weight="normal" font-style="normal" x="85" y="29.5" width="1" height="41" d="M21.01824 65 A2 2 0 0 0 17.01824 65M0 0M17.01824 65 A2 2 0 0 0 21.01824 65M0 0"/></g></g></svg>