<?xml version="1.0" standalone="no"?><svg xmlns="http://www.w3.org/2000/svg" width="40" height="130"><path stroke-width="2" fill="none" stroke="black" stroke-dasharray="none" font-family="Arial" font-size="10pt" font-weight="normal" font-style="normal" d="M-15 30L85 30"/><path stroke-width="2" fill="none" stroke="black" stroke-dasharray="none" font-family="Arial" font-size="10pt" font-weight="normal" font-style="normal" d="M-15 40L85 40"/><path stroke-width="2" fill="none" stroke="black" stroke-dasharray="none" font-family="Arial" font-size="10pt" font-weight="normal" font-style="normal" d="M-15 50L85 50"/><path stroke-width="2" fill="none" stroke="black" stroke-dasharray="none" font-family="Arial" font-size="10pt" font-weight="normal" font-style="normal" d="M-15 60L85 60"/><path stroke-width="2" fill="none" stroke="black" stroke-dasharray="none" font-family="Arial" font-size="10pt" font-weight="normal" font-style="normal" d="M-15 70L85 70"/><rect stroke-width="0.3" fill="black" stroke="black" stroke-dasharray="none" font-family="Arial" font-size="10pt" font-weight="normal" font-style="normal" x="-15" y="29.5" width="1" height="41"/><rect stroke-width="0.3" fill="black" stroke="black" stroke-dasharray="none" font-family="Arial" font-size="10pt" font-weight="normal" font-style="normal" x="85" y="29.5" width="1" height="41"/><g class="vf-stavenote" id="vf-auto4497"><g class="vf-note" pointer-events="bounding-box"><g class="vf-stem" pointer-events="bounding-box"><path stroke-width="1.5" fill="none" stroke="black" stroke-dasharray="none" font-family="Arial" font-size="10pt" font-weight="normal" font-style="normal" x="85" y="29.5" width="1" height="41" d="M2.75 30L2.75 65"/></g><g class="vf-notehead" pointer-events="bounding-box"><path stroke-width="0.3" fill="black" stroke="none" stroke-dasharray="none" font-family="Arial" font-size="10pt" font-weight="normal" font-style="normal" x="85" y="29.5" width="1" height="41" d="M2 30M9.35696 24.77712C9.469280000000001 24.77712,9.63776 24.77712,9.66584 24.77712C9.66584 24.77712,9.69392 24.77712,9.69392 24.77712C9.69392 24.77712,9.862400000000001 24.77712,10.0028 24.77712C12.530000000000001 24.91752,14.01824 26.57424,14.01824 28.65216C14.01824 29.66304,13.681280000000001 30.81432,12.83888 31.90944C11.23832 34.071600000000004,8.62688 35.25096,6.3524 35.25096C4.58336 35.25096,3.06704 34.54896,2.33696 33.11688C2.11232 32.55528,2 32.02176,2 31.43208C2 28.37136,5.42576 24.97368,9.35696 24.77712"/></g><g class="vf-flag" pointer-events="bounding-box"><path stroke-width="0.3" fill="black" stroke="none" stroke-dasharray="none" font-family="Arial" font-size="10pt" font-weight="normal" font-style="normal" x="85" y="29.5" width="1" height="41" d="M2.75 67M9.208400000000001 38.04952C9.26456 38.02144,9.3488 38.02144,9.43304 38.02144C9.6296 38.02144,9.79808 38.16184,10.02272 38.52688C12.0164 41.55952,13.05536 45.041439999999994,13.05536 48.41104C13.05536 49.00072,13.05536 49.56232,12.97112 50.095839999999995C12.63416 53.29696,11.28632 56.21728,9.26456 58.09864C7.1024 60.120400000000004,5.64224 61.74904,4.35056 63.6304C3.62048 64.64128,2.91848 65.8768,2.72192 66.49456C2.63768 66.69112,2.41304 66.88768,2.21648 66.88768L2.16032 66.88768L2.16032 62.53528L2.16032 58.1548L2.30072 58.1548C3.0308 58.1548,4.49096 57.90208,5.44568 57.593199999999996C9.12416 56.3296,11.5952 52.20184,11.5952 47.4844C11.5952 47.09128,11.567120000000001 46.67008,11.53904 46.27696C11.28632 43.834,10.41584 41.27872,9.03992 39.17272C8.899519999999999 38.948080000000004,8.815280000000001 38.72344,8.815280000000001 38.554959999999994C8.815280000000001 38.33032,8.9276 38.133759999999995,9.208400000000001 38.04952"/></g></g><g class="vf-modifiers"><path stroke-width="0.3" fill="black" stroke="none" stroke-dasharray="none" font-family="Arial" font-size="10pt" font-weight="normal" font-style="normal" x="85" y="29.5" width="1" height="41" d="M21.01824 25 A2 2 0 0 0 17.01824 25M0 0M17.01824 25 A2 2 0 0 0 21.01824 25M0 0"/></g></g></svg>