<?xml version="1.0" standalone="no"?><svg xmlns="http://www.w3.org/2000/svg" width="40" height="130"><path stroke-width="2" fill="none" stroke="black" stroke-dasharray="none" font-family="Arial" font-size="10pt" font-weight="normal" font-style="normal" d="M-15 30L85 30"/><path stroke-width="2" fill="none" stroke="black" stroke-dasharray="none" font-family="Arial" font-size="10pt" font-weight="normal" font-style="normal" d="M-15 40L85 40"/><path stroke-width="2" fill="none" stroke="black" stroke-dasharray="none" font-family="Arial" font-size="10pt" font-weight="normal" font-style="normal" d="M-15 50L85 50"/><path stroke-width="2" fill="none" stroke="black" stroke-dasharray="none" font-family="Arial" font-size="10pt" font-weight="normal" font-style="normal" d="M-15 60L85 60"/><path stroke-width="2" fill="none" stroke="black" stroke-dasharray="none" font-family="Arial" font-size="10pt" font-weight="normal" font-style="normal" d="M-15 70L85 70"/><rect stroke-width="0.3" fill="black" stroke="black" stroke-dasharray="none" font-family="Arial" font-size="10pt" font-weight="normal" font-style="normal" x="-15" y="29.5" width="1" height="41"/><rect stroke-width="0.3" fill="black" stroke="black" stroke-dasharray="none" font-family="Arial" font-size="10pt" font-weight="normal" font-style="normal" x="85" y="29.5" width="1" height="41"/><path stroke-width="2" fill="none" stroke="black" stroke-dasharray="none" font-family="Arial" font-size="10pt" font-weight="normal" font-style="normal" x="85" y="29.5" width="1" height="41" d="M-1 80L17.01824 80"/><path stroke-width="2" fill="none" stroke="black" stroke-dasharray="none" font-family="Arial" font-size="10pt" font-weight="normal" font-style="normal" x="85" y="29.5" width="1" height="41" d="M-1 90L17.01824 90"/><path stroke-width="2" fill="none" stroke="black" stroke-dasharray="none" font-family="Arial" font-size="10pt" font-weight="normal" font-style="normal" x="85" y="29.5" width="1" height="41" d="M-1 100L17.01824 100"/><g class="vf-stavenote" id="vf-auto4457"><g class="vf-note" pointer-events="bounding-box"><g class="vf-stem" pointer-events="bounding-box"><path stroke-width="1.5" fill="none" stroke="black" stroke-dasharray="none" font-family="Arial" font-size="10pt" font-weight="normal" font-style="normal" x="85" y="29.5" width="1" height="41" d="M13.26824 100L13.26824 65"/></g><g class="vf-notehead" pointer-events="bounding-box"><path stroke-width="0.3" fill="black" stroke="none" stroke-dasharray="none" font-family="Arial" font-size="10pt" font-weight="normal" font-style="normal" x="85" y="29.5" width="1" height="41" d="M2 100M9.35696 94.77712C9.469280000000001 94.77712,9.63776 94.77712,9.66584 94.77712C9.66584 94.77712,9.69392 94.77712,9.69392 94.77712C9.69392 94.77712,9.862400000000001 94.77712,10.0028 94.77712C12.530000000000001 94.91752,14.01824 96.57424,14.01824 98.65216C14.01824 99.66304,13.681280000000001 100.81432,12.83888 101.90944C11.23832 104.0716,8.62688 105.25096,6.3524 105.25096C4.58336 105.25096,3.06704 104.54896,2.33696 103.11688C2.11232 102.55528,2 102.02176,2 101.43208C2 98.37136,5.42576 94.97368,9.35696 94.77712"/></g><g class="vf-flag" pointer-events="bounding-box"><path stroke-width="0.3" fill="black" stroke="none" stroke-dasharray="none" font-family="Arial" font-size="10pt" font-weight="normal" font-style="normal" x="85" y="29.5" width="1" height="41" d="M13.26824 63M12.59432 67.52088L12.59432 63.1404L12.70664 63.1404C13.01552 63.1404,13.21208 63.33696,13.26824 63.67392C13.85792 66.48192,15.62696 69.54264,18.06992 71.8452C20.793680000000002 74.40048,22.169600000000003 77.91048,22.169600000000003 81.53280000000001C22.169600000000003 84.95856,20.96216 88.52472,18.5192 91.47312C18.098 92.03472,18.06992 92.03472,17.78912 92.03472C17.45216 92.03472,17.227520000000002 91.782,17.227520000000002 91.44504C17.227520000000002 91.19232,17.2556 91.13616,17.5364 90.82728C19.67048 88.24392,20.73752 85.12704,20.73752 82.15056C20.73752 79.51104000000001,19.89512 76.98384,18.15416 75.0744C17.08712 73.89504,15.12152 72.77184,12.6224 71.90136C12.6224 71.87328,12.59432 71.00280000000001,12.59432 67.52088"/></g></g><g class="vf-modifiers"><path stroke-width="0.3" fill="black" stroke="none" stroke-dasharray="none" font-family="Arial" font-size="10pt" font-weight="normal" font-style="normal" x="85" y="29.5" width="1" height="41" d="M30.59352 95 A2 2 0 0 0 26.59352 95M0 0M26.59352 95 A2 2 0 0 0 30.59352 95M0 0"/></g></g></svg>