<?xml version="1.0" standalone="no"?><svg xmlns="http://www.w3.org/2000/svg" width="40" height="130"><path stroke-width="2" fill="none" stroke="black" stroke-dasharray="none" font-family="Arial" font-size="10pt" font-weight="normal" font-style="normal" d="M-15 30L85 30"/><path stroke-width="2" fill="none" stroke="black" stroke-dasharray="none" font-family="Arial" font-size="10pt" font-weight="normal" font-style="normal" d="M-15 40L85 40"/><path stroke-width="2" fill="none" stroke="black" stroke-dasharray="none" font-family="Arial" font-size="10pt" font-weight="normal" font-style="normal" d="M-15 50L85 50"/><path stroke-width="2" fill="none" stroke="black" stroke-dasharray="none" font-family="Arial" font-size="10pt" font-weight="normal" font-style="normal" d="M-15 60L85 60"/><path stroke-width="2" fill="none" stroke="black" stroke-dasharray="none" font-family="Arial" font-size="10pt" font-weight="normal" font-style="normal" d="M-15 70L85 70"/><rect stroke-width="0.3" fill="black" stroke="black" stroke-dasharray="none" font-family="Arial" font-size="10pt" font-weight="normal" font-style="normal" x="-15" y="29.5" width="1" height="41"/><rect stroke-width="0.3" fill="black" stroke="black" stroke-dasharray="none" font-family="Arial" font-size="10pt" font-weight="normal" font-style="normal" x="85" y="29.5" width="1" height="41"/><g class="vf-stavenote" id="vf-auto4477"><g class="vf-note" pointer-events="bounding-box"><g class="vf-stem" pointer-events="bounding-box"><path stroke-width="1.5" fill="none" stroke="black" stroke-dasharray="none" font-family="Arial" font-size="10pt" font-weight="normal" font-style="normal" x="85" y="29.5" width="1" height="41" d="M13.26824 65L13.26824 30"/></g><g class="vf-notehead" pointer-events="bounding-box"><path stroke-width="0.3" fill="black" stroke="none" stroke-dasharray="none" font-family="Arial" font-size="10pt" font-weight="normal" font-style="normal" x="85" y="29.5" width="1" height="41" d="M2 65M9.35696 59.77712C9.469280000000001 59.77712,9.63776 59.77712,9.66584 59.77712C9.66584 59.77712,9.69392 59.77712,9.69392 59.77712C9.69392 59.77712,9.862400000000001 59.77712,10.0028 59.77712C12.530000000000001 59.917519999999996,14.01824 61.57424,14.01824 63.65216C14.01824 64.66304,13.681280000000001 65.81432,12.83888 66.90944C11.23832 69.0716,8.62688 70.25096,6.3524 70.25096C4.58336 70.25096,3.06704 69.54896,2.33696 68.11688C2.11232 67.55528,2 67.02176,2 66.43208C2 63.37136,5.42576 59.97368,9.35696 59.77712"/></g><g class="vf-flag" pointer-events="bounding-box"><path stroke-width="0.3" fill="black" stroke="none" stroke-dasharray="none" font-family="Arial" font-size="10pt" font-weight="normal" font-style="normal" x="85" y="29.5" width="1" height="41" d="M13.26824 28M12.59432 32.52088L12.59432 28.1404L12.70664 28.1404C13.01552 28.1404,13.21208 28.33696,13.26824 28.67392C13.85792 31.48192,15.62696 34.54264,18.06992 36.8452C20.793680000000002 39.40048,22.169600000000003 42.91048,22.169600000000003 46.5328C22.169600000000003 49.958560000000006,20.96216 53.52472,18.5192 56.47312C18.098 57.03472,18.06992 57.03472,17.78912 57.03472C17.45216 57.03472,17.227520000000002 56.782,17.227520000000002 56.445040000000006C17.227520000000002 56.19232,17.2556 56.136160000000004,17.5364 55.82728C19.67048 53.24392,20.73752 50.12704,20.73752 47.15056C20.73752 44.51104,19.89512 41.98384,18.15416 40.0744C17.08712 38.89504,15.12152 37.77184,12.6224 36.90136C12.6224 36.87328,12.59432 36.0028,12.59432 32.52088"/></g></g><g class="vf-modifiers"><path stroke-width="0.3" fill="black" stroke="none" stroke-dasharray="none" font-family="Arial" font-size="10pt" font-weight="normal" font-style="normal" x="85" y="29.5" width="1" height="41" d="M30.59352 65 A2 2 0 0 0 26.59352 65M0 0M26.59352 65 A2 2 0 0 0 30.59352 65M0 0"/></g></g></svg>