<?xml version="1.0" standalone="no"?><svg xmlns="http://www.w3.org/2000/svg" width="40" height="130"><path stroke-width="2" fill="none" stroke="black" stroke-dasharray="none" font-family="Arial" font-size="10pt" font-weight="normal" font-style="normal" d="M-15 30L85 30"/><path stroke-width="2" fill="none" stroke="black" stroke-dasharray="none" font-family="Arial" font-size="10pt" font-weight="normal" font-style="normal" d="M-15 40L85 40"/><path stroke-width="2" fill="none" stroke="black" stroke-dasharray="none" font-family="Arial" font-size="10pt" font-weight="normal" font-style="normal" d="M-15 50L85 50"/><path stroke-width="2" fill="none" stroke="black" stroke-dasharray="none" font-family="Arial" font-size="10pt" font-weight="normal" font-style="normal" d="M-15 60L85 60"/><path stroke-width="2" fill="none" stroke="black" stroke-dasharray="none" font-family="Arial" font-size="10pt" font-weight="normal" font-style="normal" d="M-15 70L85 70"/><rect stroke-width="0.3" fill="black" stroke="black" stroke-dasharray="none" font-family="Arial" font-size="10pt" font-weight="normal" font-style="normal" x="-15" y="29.5" width="1" height="41"/><rect stroke-width="0.3" fill="black" stroke="black" stroke-dasharray="none" font-family="Arial" font-size="10pt" font-weight="normal" font-style="normal" x="85" y="29.5" width="1" height="41"/><g class="vf-stavenote" id="vf-auto1423"><g class="vf-note" pointer-events="bounding-box"><g class="vf-notehead" pointer-events="bounding-box"><path stroke-width="0.3" fill="black" stroke="none" stroke-dasharray="none" font-family="Arial" font-size="10pt" font-weight="normal" font-style="normal" x="85" y="29.5" width="1" height="41" d="M2 30M9.69392 24.833280000000002C10.0028 24.77712,10.31168 24.77712,10.620560000000001 24.77712C15.0572 24.77712,18.76376 26.74272,19.29728 29.38224C19.32536 29.63496,19.381520000000002 29.8596,19.381520000000002 30.02808C19.381520000000002 32.920320000000004,15.56264 35.25096,10.64864 35.25096C5.734640000000001 35.25096,2 32.86416,2 30.02808C2 29.69112,2.02808 29.35416,2.1404 28.98912C2.81432 26.7708,5.95928 25.05792,9.69392 24.833280000000002M10.115120000000001 25.47912C9.974720000000001 25.45104,9.77816 25.45104,9.63776 25.45104C7.868720000000001 25.45104,6.80168 26.96736,6.80168 28.84872C6.80168 29.8596,7.11056 30.954720000000002,7.7564 32.04984C8.823440000000002 33.73464,10.367840000000001 34.57704,11.6876 34.57704C12.8108 34.57704,13.7936 33.98736,14.24288 32.75184C14.439440000000001 32.2464,14.52368 31.74096,14.52368 31.20744C14.52368 28.68024,12.58616 25.872239999999998,10.115120000000001 25.47912"/></g></g><g class="vf-modifiers"/></g></svg>