<?xml version="1.0" standalone="no"?><svg xmlns="http://www.w3.org/2000/svg" width="40" height="130"><path stroke-width="2" fill="none" stroke="black" stroke-dasharray="none" font-family="Arial" font-size="10pt" font-weight="normal" font-style="normal" d="M-15 30L85 30"/><path stroke-width="2" fill="none" stroke="black" stroke-dasharray="none" font-family="Arial" font-size="10pt" font-weight="normal" font-style="normal" d="M-15 40L85 40"/><path stroke-width="2" fill="none" stroke="black" stroke-dasharray="none" font-family="Arial" font-size="10pt" font-weight="normal" font-style="normal" d="M-15 50L85 50"/><path stroke-width="2" fill="none" stroke="black" stroke-dasharray="none" font-family="Arial" font-size="10pt" font-weight="normal" font-style="normal" d="M-15 60L85 60"/><path stroke-width="2" fill="none" stroke="black" stroke-dasharray="none" font-family="Arial" font-size="10pt" font-weight="normal" font-style="normal" d="M-15 70L85 70"/><rect stroke-width="0.3" fill="black" stroke="black" stroke-dasharray="none" font-family="Arial" font-size="10pt" font-weight="normal" font-style="normal" x="-15" y="29.5" width="1" height="41"/><rect stroke-width="0.3" fill="black" stroke="black" stroke-dasharray="none" font-family="Arial" font-size="10pt" font-weight="normal" font-style="normal" x="85" y="29.5" width="1" height="41"/><path stroke-width="2" fill="none" stroke="black" stroke-dasharray="none" font-family="Arial" font-size="10pt" font-weight="normal" font-style="normal" x="85" y="29.5" width="1" height="41" d="M-1 80L22.381520000000002 80"/><path stroke-width="2" fill="none" stroke="black" stroke-dasharray="none" font-family="Arial" font-size="10pt" font-weight="normal" font-style="normal" x="85" y="29.5" width="1" height="41" d="M-1 90L22.381520000000002 90"/><path stroke-width="2" fill="none" stroke="black" stroke-dasharray="none" font-family="Arial" font-size="10pt" font-weight="normal" font-style="normal" x="85" y="29.5" width="1" height="41" d="M-1 100L22.381520000000002 100"/><g class="vf-stavenote" id="vf-auto1393"><g class="vf-note" pointer-events="bounding-box"><g class="vf-notehead" pointer-events="bounding-box"><path stroke-width="0.3" fill="black" stroke="none" stroke-dasharray="none" font-family="Arial" font-size="10pt" font-weight="normal" font-style="normal" x="85" y="29.5" width="1" height="41" d="M2 100M9.69392 94.83328C10.0028 94.77712,10.31168 94.77712,10.620560000000001 94.77712C15.0572 94.77712,18.76376 96.74272,19.29728 99.38224C19.32536 99.63496,19.381520000000002 99.8596,19.381520000000002 100.02808C19.381520000000002 102.92032,15.56264 105.25096,10.64864 105.25096C5.734640000000001 105.25096,2 102.86416,2 100.02808C2 99.69112,2.02808 99.35416,2.1404 98.98912C2.81432 96.7708,5.95928 95.05792,9.69392 94.83328M10.115120000000001 95.47912C9.974720000000001 95.45104,9.77816 95.45104,9.63776 95.45104C7.868720000000001 95.45104,6.80168 96.96736,6.80168 98.84872C6.80168 99.8596,7.11056 100.95472,7.7564 102.04984C8.823440000000002 103.73464,10.367840000000001 104.57704,11.6876 104.57704C12.8108 104.57704,13.7936 103.98736,14.24288 102.75184C14.439440000000001 102.2464,14.52368 101.74096,14.52368 101.20744C14.52368 98.68024,12.58616 95.87224,10.115120000000001 95.47912"/></g></g><g class="vf-modifiers"/></g></svg>