<?xml version="1.0" standalone="no"?><svg xmlns="http://www.w3.org/2000/svg" width="40" height="130"><path stroke-width="2" fill="none" stroke="black" stroke-dasharray="none" font-family="Arial" font-size="10pt" font-weight="normal" font-style="normal" d="M-15 30L85 30"/><path stroke-width="2" fill="none" stroke="black" stroke-dasharray="none" font-family="Arial" font-size="10pt" font-weight="normal" font-style="normal" d="M-15 40L85 40"/><path stroke-width="2" fill="none" stroke="black" stroke-dasharray="none" font-family="Arial" font-size="10pt" font-weight="normal" font-style="normal" d="M-15 50L85 50"/><path stroke-width="2" fill="none" stroke="black" stroke-dasharray="none" font-family="Arial" font-size="10pt" font-weight="normal" font-style="normal" d="M-15 60L85 60"/><path stroke-width="2" fill="none" stroke="black" stroke-dasharray="none" font-family="Arial" font-size="10pt" font-weight="normal" font-style="normal" d="M-15 70L85 70"/><rect stroke-width="0.3" fill="black" stroke="black" stroke-dasharray="none" font-family="Arial" font-size="10pt" font-weight="normal" font-style="normal" x="-15" y="29.5" width="1" height="41"/><rect stroke-width="0.3" fill="black" stroke="black" stroke-dasharray="none" font-family="Arial" font-size="10pt" font-weight="normal" font-style="normal" x="85" y="29.5" width="1" height="41"/><g class="vf-stavenote" id="vf-auto5603"><g class="vf-note" pointer-events="bounding-box"><g class="vf-stem" pointer-events="bounding-box"><path stroke-width="1.5" fill="none" stroke="black" stroke-dasharray="none" font-family="Arial" font-size="10pt" font-weight="normal" font-style="normal" x="85" y="29.5" width="1" height="41" d="M13.26824 65L13.26824 30"/></g><g class="vf-notehead" pointer-events="bounding-box"><path stroke-width="0.3" fill="black" stroke="none" stroke-dasharray="none" font-family="Arial" font-size="10pt" font-weight="normal" font-style="normal" x="85" y="29.5" width="1" height="41" d="M2 65M9.35696 59.77712C9.469280000000001 59.77712,9.63776 59.77712,9.66584 59.77712C9.66584 59.77712,9.69392 59.77712,9.69392 59.77712C9.69392 59.77712,9.862400000000001 59.77712,10.0028 59.77712C12.530000000000001 59.917519999999996,14.01824 61.57424,14.01824 63.65216C14.01824 64.66304,13.681280000000001 65.81432,12.83888 66.90944C11.23832 69.0716,8.62688 70.25096,6.3524 70.25096C4.58336 70.25096,3.06704 69.54896,2.33696 68.11688C2.11232 67.55528,2 67.02176,2 66.43208C2 63.37136,5.42576 59.97368,9.35696 59.77712"/></g><g class="vf-flag" pointer-events="bounding-box"><path stroke-width="0.3" fill="black" stroke="none" stroke-dasharray="none" font-family="Arial" font-size="10pt" font-weight="normal" font-style="normal" x="85" y="29.5" width="1" height="41" d="M13.26824 28M12.59432 32.12776L12.59432 28.1404L12.70664 28.1404C12.931280000000001 28.1404,13.15592 28.30888,13.240160000000001 28.53352C13.436720000000001 29.20744,14.138720000000001 30.41488,14.896880000000001 31.45384C15.87968 32.85784,17.03096 34.14952,18.77192 35.80624C20.96216 37.99648,22.169600000000003 40.9168,22.169600000000003 44.0056C22.169600000000003 45.32536,21.91688 46.70128,21.523760000000003 48.02104L21.383360000000003 48.32992L21.523760000000003 48.6388C21.91688 49.9024,22.169600000000003 51.22216,22.169600000000003 52.51384C22.169600000000003 55.04104,21.35528 57.596320000000006,19.86704 59.78656C19.67048 60.0112,19.55816 60.17968,19.136960000000002 60.7132C18.996560000000002 60.90976,18.77192 61.05016,18.57536 61.05016C18.378800000000002 61.05016,18.18224 60.90976,18.06992 60.68512C18.04184 60.600880000000004,17.985680000000002 60.54472,17.985680000000002 60.40432C17.985680000000002 60.26392,18.098 60.06736,18.350720000000003 59.78656C19.95128 57.877120000000005,20.82176 55.378,20.82176 53.01928C20.82176 52.87888,20.82176 52.822720000000004,20.82176 52.738479999999996C20.82176 52.06456,20.70944 51.22216,20.6252 50.85712C20.59712 50.77288,20.540960000000002 50.63248,20.512880000000003 50.464C20.007440000000003 48.52648,18.82808 46.72936,17.2556 45.634240000000005C16.4132 45.01648,14.588000000000001 44.53912,13.0436 44.53912C12.9032 44.53912,12.734720000000001 44.53912,12.70664 44.53912L12.59432 44.53912L12.59432 40.60792L12.59432 36.64864L12.70664 36.64864C12.931280000000001 36.64864,13.15592 36.78904,13.240160000000001 37.04176C13.436720000000001 37.6876,14.138720000000001 38.89504,14.896880000000001 39.90592C15.87968 41.36608,17.08712 42.68584,18.71576 44.2864C19.47392 45.01648,20.147840000000002 45.830799999999996,20.540960000000002 46.5328C20.540960000000002 46.58896,20.59712 46.61704,20.59712 46.61704C20.6252 46.61704,20.6252 46.5328,20.68136 46.42048C20.793680000000002 45.74656,20.82176 45.1288,20.82176 44.482960000000006C20.82176 43.893280000000004,20.793680000000002 43.27552,20.68136 42.62968C20.68136 42.51736,20.6252 42.40504,20.6252 42.37696C20.59712 42.29272,20.540960000000002 42.12424,20.512880000000003 41.98384C20.007440000000003 40.01824,18.82808 38.2492,17.2556 37.15408C16.4132 36.50824,14.588000000000001 36.08704,13.0436 36.05896C12.9032 36.05896,12.734720000000001 36.05896,12.70664 36.05896L12.59432 36.05896L12.59432 32.12776"/></g></g><g class="vf-modifiers"><path stroke-width="0.3" fill="black" stroke="none" stroke-dasharray="none" font-family="Arial" font-size="10pt" font-weight="normal" font-style="normal" x="85" y="29.5" width="1" height="41" d="M30.59352 65 A2 2 0 0 0 26.59352 65M0 0M26.59352 65 A2 2 0 0 0 30.59352 65M0 0"/></g></g></svg>