<?xml version="1.0" standalone="no"?><svg xmlns="http://www.w3.org/2000/svg" width="40" height="130"><path stroke-width="2" fill="none" stroke="black" stroke-dasharray="none" font-family="Arial" font-size="10pt" font-weight="normal" font-style="normal" d="M-15 30L85 30"/><path stroke-width="2" fill="none" stroke="black" stroke-dasharray="none" font-family="Arial" font-size="10pt" font-weight="normal" font-style="normal" d="M-15 40L85 40"/><path stroke-width="2" fill="none" stroke="black" stroke-dasharray="none" font-family="Arial" font-size="10pt" font-weight="normal" font-style="normal" d="M-15 50L85 50"/><path stroke-width="2" fill="none" stroke="black" stroke-dasharray="none" font-family="Arial" font-size="10pt" font-weight="normal" font-style="normal" d="M-15 60L85 60"/><path stroke-width="2" fill="none" stroke="black" stroke-dasharray="none" font-family="Arial" font-size="10pt" font-weight="normal" font-style="normal" d="M-15 70L85 70"/><rect stroke-width="0.3" fill="black" stroke="black" stroke-dasharray="none" font-family="Arial" font-size="10pt" font-weight="normal" font-style="normal" x="-15" y="29.5" width="1" height="41"/><rect stroke-width="0.3" fill="black" stroke="black" stroke-dasharray="none" font-family="Arial" font-size="10pt" font-weight="normal" font-style="normal" x="85" y="29.5" width="1" height="41"/><g class="vf-stavenote" id="vf-auto5623"><g class="vf-note" pointer-events="bounding-box"><g class="vf-stem" pointer-events="bounding-box"><path stroke-width="1.5" fill="none" stroke="black" stroke-dasharray="none" font-family="Arial" font-size="10pt" font-weight="normal" font-style="normal" x="85" y="29.5" width="1" height="41" d="M2.75 30L2.75 65"/></g><g class="vf-notehead" pointer-events="bounding-box"><path stroke-width="0.3" fill="black" stroke="none" stroke-dasharray="none" font-family="Arial" font-size="10pt" font-weight="normal" font-style="normal" x="85" y="29.5" width="1" height="41" d="M2 30M9.35696 24.77712C9.469280000000001 24.77712,9.63776 24.77712,9.66584 24.77712C9.66584 24.77712,9.69392 24.77712,9.69392 24.77712C9.69392 24.77712,9.862400000000001 24.77712,10.0028 24.77712C12.530000000000001 24.91752,14.01824 26.57424,14.01824 28.65216C14.01824 29.66304,13.681280000000001 30.81432,12.83888 31.90944C11.23832 34.071600000000004,8.62688 35.25096,6.3524 35.25096C4.58336 35.25096,3.06704 34.54896,2.33696 33.11688C2.11232 32.55528,2 32.02176,2 31.43208C2 28.37136,5.42576 24.97368,9.35696 24.77712"/></g><g class="vf-flag" pointer-events="bounding-box"><path stroke-width="0.3" fill="black" stroke="none" stroke-dasharray="none" font-family="Arial" font-size="10pt" font-weight="normal" font-style="normal" x="85" y="29.5" width="1" height="41" d="M2.75 67M11.23016 38.04952C11.28632 38.02144,11.370560000000001 38.02144,11.39864 38.02144C11.67944 38.02144,11.876 38.16184,12.0164 38.47072C12.60608 39.7624,12.91496 41.166399999999996,12.91496 42.65464C12.91496 43.86208,12.66224 45.0976,12.2972 46.27696L12.18488 46.585840000000005L12.2972 46.866640000000004C12.7184 47.98984,12.91496 49.19728,12.91496 50.40472C12.91496 53.07232,11.876 55.73992,9.966560000000001 57.93016C9.573440000000002 58.40752,9.12416 58.8568,8.47832 59.36224C6.37232 61.21552,4.60328 63.26536,3.3116 65.42752C3.08696 65.76448,2.75 66.38224,2.72192 66.49456C2.63768 66.74728,2.41304 66.88768,2.21648 66.88768L2.16032 66.88768L2.16032 63.0688L2.16032 59.24992L2.41304 59.22184C4.46288 58.91296,6.31616 58.32328,7.43936 57.64936C10.10696 56.10496,11.70752 53.21272,11.70752 50.20816C11.70752 49.5904,11.65136 48.97264,11.48288 48.354879999999994L11.4548 48.10216L11.28632 48.354879999999994C10.58432 49.5904,9.77 50.517039999999994,8.47832 51.61216C6.37232 53.43736,4.60328 55.51528,3.3116 57.64936C3.08696 58.0144,2.75 58.63216,2.72192 58.80064C2.63768 58.9972,2.41304 59.1376,2.21648 59.1376L2.16032 59.1376L2.16032 55.31872L2.16032 51.49984L2.41304 51.47176C4.46288 51.16288,6.31616 50.5732,7.43936 49.899280000000005C10.16312 48.29872,11.70752 45.3784,11.70752 42.458079999999995C11.70752 41.33488,11.48288 40.21168,11.00552 39.144639999999995C10.83704 38.80768,10.83704 38.72344,10.83704 38.61112C10.83704 38.33032,11.00552 38.133759999999995,11.23016 38.04952"/></g></g><g class="vf-modifiers"><path stroke-width="0.3" fill="black" stroke="none" stroke-dasharray="none" font-family="Arial" font-size="10pt" font-weight="normal" font-style="normal" x="85" y="29.5" width="1" height="41" d="M21.01824 25 A2 2 0 0 0 17.01824 25M0 0M17.01824 25 A2 2 0 0 0 21.01824 25M0 0"/></g></g></svg>