<?xml version="1.0" standalone="no"?><svg xmlns="http://www.w3.org/2000/svg" width="40" height="130"><path stroke-width="2" fill="none" stroke="black" stroke-dasharray="none" font-family="Arial" font-size="10pt" font-weight="normal" font-style="normal" d="M-15 30L85 30"/><path stroke-width="2" fill="none" stroke="black" stroke-dasharray="none" font-family="Arial" font-size="10pt" font-weight="normal" font-style="normal" d="M-15 40L85 40"/><path stroke-width="2" fill="none" stroke="black" stroke-dasharray="none" font-family="Arial" font-size="10pt" font-weight="normal" font-style="normal" d="M-15 50L85 50"/><path stroke-width="2" fill="none" stroke="black" stroke-dasharray="none" font-family="Arial" font-size="10pt" font-weight="normal" font-style="normal" d="M-15 60L85 60"/><path stroke-width="2" fill="none" stroke="black" stroke-dasharray="none" font-family="Arial" font-size="10pt" font-weight="normal" font-style="normal" d="M-15 70L85 70"/><rect stroke-width="0.3" fill="black" stroke="black" stroke-dasharray="none" font-family="Arial" font-size="10pt" font-weight="normal" font-style="normal" x="-15" y="29.5" width="1" height="41"/><rect stroke-width="0.3" fill="black" stroke="black" stroke-dasharray="none" font-family="Arial" font-size="10pt" font-weight="normal" font-style="normal" x="85" y="29.5" width="1" height="41"/><path stroke-width="2" fill="none" stroke="black" stroke-dasharray="none" font-family="Arial" font-size="10pt" font-weight="normal" font-style="normal" x="85" y="29.5" width="1" height="41" d="M-1 80L17.01824 80"/><path stroke-width="2" fill="none" stroke="black" stroke-dasharray="none" font-family="Arial" font-size="10pt" font-weight="normal" font-style="normal" x="85" y="29.5" width="1" height="41" d="M-1 90L17.01824 90"/><path stroke-width="2" fill="none" stroke="black" stroke-dasharray="none" font-family="Arial" font-size="10pt" font-weight="normal" font-style="normal" x="85" y="29.5" width="1" height="41" d="M-1 100L17.01824 100"/><g class="vf-stavenote" id="vf-auto5583"><g class="vf-note" pointer-events="bounding-box"><g class="vf-stem" pointer-events="bounding-box"><path stroke-width="1.5" fill="none" stroke="black" stroke-dasharray="none" font-family="Arial" font-size="10pt" font-weight="normal" font-style="normal" x="85" y="29.5" width="1" height="41" d="M13.26824 100L13.26824 65"/></g><g class="vf-notehead" pointer-events="bounding-box"><path stroke-width="0.3" fill="black" stroke="none" stroke-dasharray="none" font-family="Arial" font-size="10pt" font-weight="normal" font-style="normal" x="85" y="29.5" width="1" height="41" d="M2 100M9.35696 94.77712C9.469280000000001 94.77712,9.63776 94.77712,9.66584 94.77712C9.66584 94.77712,9.69392 94.77712,9.69392 94.77712C9.69392 94.77712,9.862400000000001 94.77712,10.0028 94.77712C12.530000000000001 94.91752,14.01824 96.57424,14.01824 98.65216C14.01824 99.66304,13.681280000000001 100.81432,12.83888 101.90944C11.23832 104.0716,8.62688 105.25096,6.3524 105.25096C4.58336 105.25096,3.06704 104.54896,2.33696 103.11688C2.11232 102.55528,2 102.02176,2 101.43208C2 98.37136,5.42576 94.97368,9.35696 94.77712"/></g><g class="vf-flag" pointer-events="bounding-box"><path stroke-width="0.3" fill="black" stroke="none" stroke-dasharray="none" font-family="Arial" font-size="10pt" font-weight="normal" font-style="normal" x="85" y="29.5" width="1" height="41" d="M13.26824 63M12.59432 67.12776L12.59432 63.1404L12.70664 63.1404C12.931280000000001 63.1404,13.15592 63.30888,13.240160000000001 63.53352C13.436720000000001 64.20744,14.138720000000001 65.41488,14.896880000000001 66.45384C15.87968 67.85784,17.03096 69.14952,18.77192 70.80624C20.96216 72.99648,22.169600000000003 75.9168,22.169600000000003 79.0056C22.169600000000003 80.32536,21.91688 81.70128,21.523760000000003 83.02104L21.383360000000003 83.32992L21.523760000000003 83.6388C21.91688 84.9024,22.169600000000003 86.22216,22.169600000000003 87.51384C22.169600000000003 90.04104000000001,21.35528 92.59632,19.86704 94.78656000000001C19.67048 95.0112,19.55816 95.17967999999999,19.136960000000002 95.7132C18.996560000000002 95.90976,18.77192 96.05016,18.57536 96.05016C18.378800000000002 96.05016,18.18224 95.90976,18.06992 95.68512C18.04184 95.60088,17.985680000000002 95.54472,17.985680000000002 95.40432C17.985680000000002 95.26392,18.098 95.06736000000001,18.350720000000003 94.78656000000001C19.95128 92.87712,20.82176 90.378,20.82176 88.01928000000001C20.82176 87.87888000000001,20.82176 87.82272,20.82176 87.73848C20.82176 87.06456,20.70944 86.22216,20.6252 85.85712000000001C20.59712 85.77288,20.540960000000002 85.63248,20.512880000000003 85.464C20.007440000000003 83.52647999999999,18.82808 81.72936,17.2556 80.63424C16.4132 80.01648,14.588000000000001 79.53912,13.0436 79.53912C12.9032 79.53912,12.734720000000001 79.53912,12.70664 79.53912L12.59432 79.53912L12.59432 75.60792000000001L12.59432 71.64864L12.70664 71.64864C12.931280000000001 71.64864,13.15592 71.78904,13.240160000000001 72.04176C13.436720000000001 72.6876,14.138720000000001 73.89504,14.896880000000001 74.90592C15.87968 76.36608,17.08712 77.68584,18.71576 79.2864C19.47392 80.01648,20.147840000000002 80.8308,20.540960000000002 81.53280000000001C20.540960000000002 81.58896,20.59712 81.61704,20.59712 81.61704C20.6252 81.61704,20.6252 81.53280000000001,20.68136 81.42048C20.793680000000002 80.74656,20.82176 80.1288,20.82176 79.48296C20.82176 78.89328,20.793680000000002 78.27552,20.68136 77.62968000000001C20.68136 77.51736,20.6252 77.40504,20.6252 77.37696C20.59712 77.29272,20.540960000000002 77.12424,20.512880000000003 76.98384C20.007440000000003 75.01824,18.82808 73.2492,17.2556 72.15408C16.4132 71.50824,14.588000000000001 71.08704,13.0436 71.05896C12.9032 71.05896,12.734720000000001 71.05896,12.70664 71.05896L12.59432 71.05896L12.59432 67.12776"/></g></g><g class="vf-modifiers"><path stroke-width="0.3" fill="black" stroke="none" stroke-dasharray="none" font-family="Arial" font-size="10pt" font-weight="normal" font-style="normal" x="85" y="29.5" width="1" height="41" d="M30.59352 95 A2 2 0 0 0 26.59352 95M0 0M26.59352 95 A2 2 0 0 0 30.59352 95M0 0"/></g></g></svg>