<?xml version="1.0" standalone="no"?><svg xmlns="http://www.w3.org/2000/svg" width="40" height="130"><path stroke-width="2" fill="none" stroke="black" stroke-dasharray="none" font-family="Arial" font-size="10pt" font-weight="normal" font-style="normal" d="M-15 30L85 30"/><path stroke-width="2" fill="none" stroke="black" stroke-dasharray="none" font-family="Arial" font-size="10pt" font-weight="normal" font-style="normal" d="M-15 40L85 40"/><path stroke-width="2" fill="none" stroke="black" stroke-dasharray="none" font-family="Arial" font-size="10pt" font-weight="normal" font-style="normal" d="M-15 50L85 50"/><path stroke-width="2" fill="none" stroke="black" stroke-dasharray="none" font-family="Arial" font-size="10pt" font-weight="normal" font-style="normal" d="M-15 60L85 60"/><path stroke-width="2" fill="none" stroke="black" stroke-dasharray="none" font-family="Arial" font-size="10pt" font-weight="normal" font-style="normal" d="M-15 70L85 70"/><rect stroke-width="0.3" fill="black" stroke="black" stroke-dasharray="none" font-family="Arial" font-size="10pt" font-weight="normal" font-style="normal" x="-15" y="29.5" width="1" height="41"/><rect stroke-width="0.3" fill="black" stroke="black" stroke-dasharray="none" font-family="Arial" font-size="10pt" font-weight="normal" font-style="normal" x="85" y="29.5" width="1" height="41"/><g class="vf-stavenote" id="vf-auto4158"><g class="vf-note" pointer-events="bounding-box"><g class="vf-stem" pointer-events="bounding-box"><path stroke-width="1.5" fill="none" stroke="black" stroke-dasharray="none" font-family="Arial" font-size="10pt" font-weight="normal" font-style="normal" x="85" y="29.5" width="1" height="41" d="M26.10552 65L26.10552 30"/></g><g class="vf-notehead" pointer-events="bounding-box"><path stroke-width="0.3" fill="black" stroke="none" stroke-dasharray="none" font-family="Arial" font-size="10pt" font-weight="normal" font-style="normal" x="85" y="29.5" width="1" height="41" d="M14.83728 65M22.19424 59.77712C22.30656 59.77712,22.47504 59.77712,22.50312 59.77712C22.50312 59.77712,22.5312 59.77712,22.5312 59.77712C22.5312 59.77712,22.69968 59.77712,22.84008 59.77712C25.36728 59.917519999999996,26.85552 61.57424,26.85552 63.65216C26.85552 64.66304,26.51856 65.81432,25.67616 66.90944C24.0756 69.0716,21.46416 70.25096,19.18968 70.25096C17.42064 70.25096,15.90432 69.54896,15.17424 68.11688C14.9496 67.55528,14.83728 67.02176,14.83728 66.43208C14.83728 63.37136,18.26304 59.97368,22.19424 59.77712"/></g><g class="vf-flag" pointer-events="bounding-box"><path stroke-width="0.3" fill="black" stroke="none" stroke-dasharray="none" font-family="Arial" font-size="10pt" font-weight="normal" font-style="normal" x="85" y="29.5" width="1" height="41" d="M26.10552 28M25.4316 32.52088L25.4316 28.1404L25.54392 28.1404C25.8528 28.1404,26.04936 28.33696,26.10552 28.67392C26.6952 31.48192,28.464239999999997 34.54264,30.9072 36.8452C33.63096 39.40048,35.006879999999995 42.91048,35.006879999999995 46.5328C35.006879999999995 49.958560000000006,33.79944 53.52472,31.356479999999998 56.47312C30.93528 57.03472,30.9072 57.03472,30.626399999999997 57.03472C30.28944 57.03472,30.064799999999998 56.782,30.064799999999998 56.445040000000006C30.064799999999998 56.19232,30.092879999999997 56.136160000000004,30.37368 55.82728C32.50776 53.24392,33.574799999999996 50.12704,33.574799999999996 47.15056C33.574799999999996 44.51104,32.7324 41.98384,30.991439999999997 40.0744C29.9244 38.89504,27.9588 37.77184,25.45968 36.90136C25.45968 36.87328,25.4316 36.0028,25.4316 32.52088"/></g></g><g class="vf-modifiers"><path stroke-width="0.3" fill="black" stroke="none" stroke-dasharray="none" font-family="Arial" font-size="10pt" font-weight="normal" font-style="normal" x="85" y="29.5" width="1" height="41" d="M3 65M8.93712 50.3624C9.0192 50.307680000000005,9.04656 50.307680000000005,9.155999999999999 50.307680000000005C9.4296 50.307680000000005,9.62112 50.41712,9.703199999999999 50.66336L9.73056 50.74544L9.757919999999999 54.3296L9.757919999999999 57.94112L10.46928 57.7496C10.87968 57.64016,11.18064 57.6128,11.37216 57.6128C11.6184 57.6128,11.72784 57.69488,11.80992 57.913759999999996C11.83728 57.99584,11.83728 58.62512,11.83728 59.30912C11.83728 59.96576,11.83728 60.64976,11.80992 60.67712C11.700479999999999 60.950720000000004,11.6184 60.97808,10.87968 61.1696C9.94944 61.41584,9.757919999999999 61.4432,9.757919999999999 61.4432C9.757919999999999 61.4432,9.757919999999999 62.154560000000004,9.757919999999999 63.2216C9.757919999999999 63.60464,9.757919999999999 64.01504,9.757919999999999 64.4528L9.757919999999999 67.40768L10.46928 67.21616C10.907039999999999 67.10672,11.18064 67.07936,11.37216 67.07936C11.50896 67.07936,11.6184 67.10672,11.700479999999999 67.21616C11.83728 67.38032,11.83728 67.35296,11.83728 68.36528L11.83728 68.77568L11.83728 69.21344C11.83728 70.22576,11.83728 70.19839999999999,11.700479999999999 70.3352C11.59104 70.44463999999999,11.6184 70.44463999999999,10.359839999999998 70.7456C10.08624 70.82768,9.84 70.90976,9.81264 70.90976L9.757919999999999 70.90976L9.757919999999999 74.54864L9.73056 78.21488L9.703199999999999 78.32432C9.62112 78.5432,9.402239999999999 78.65264,9.155999999999999 78.65264C8.99184 78.65264,8.7456 78.5432,8.63616 78.32432L8.608799999999999 78.21488L8.608799999999999 74.7128L8.608799999999999 71.21072L8.58144 71.21072L7.95216 71.37488L6.7756799999999995 71.67584C6.47472 71.75792,6.2011199999999995 71.81264,6.2011199999999995 71.81264C6.1464 71.81264,6.1464 72.00416,6.1464 75.5336L6.1464 79.30928L6.11904 79.39135999999999C6.0096 79.61024,5.79072 79.71968,5.5992 79.71968C5.380319999999999 79.71968,5.13408 79.61024,5.02464 79.39135999999999L4.99728 79.30928L4.99728 75.69776C4.99728 72.35984,4.99728 72.1136,4.96992 72.1136C4.96992 72.1136,4.96992 72.1136,4.96992 72.1136C4.66896 72.19568,3.62928 72.46928,3.51984 72.46928C3.2736 72.46928,3.10944 72.30512,3 72.1136C3 72.00416,3 72.00416,3 70.71824L3 69.43232L3.02736 69.32288C3.1368 69.04928,3.1368 69.04928,4.66896 68.66624L4.99728 68.58416L4.99728 65.60192C4.99728 62.83856,4.99728 62.64704,4.96992 62.64704C4.96992 62.64704,4.96992 62.64704,4.96992 62.64704C4.66896 62.72912,3.62928 62.97536,3.51984 62.97536C3.2736 62.97536,3.10944 62.83856,3 62.64704C3 62.5376,3 62.5376,3 61.25168L3 59.96576L3.02736 59.85632C3.1368 59.58272,3.1368 59.58272,4.66896 59.19968L4.99728 59.1176L4.99728 55.47872L4.99728 51.83984L5.02464 51.7304C5.13408 51.53888,5.380319999999999 51.374719999999996,5.5992 51.374719999999996C5.68128 51.374719999999996,5.736 51.42944,5.81808 51.4568C5.9275199999999995 51.48416,6.03696 51.62096,6.11904 51.7304L6.1464 51.83984L6.1464 55.34192L6.1464 58.81664L6.31056 58.81664C6.36528 58.78928,6.85776 58.67984,7.350239999999999 58.5704L8.41728 58.24208L8.608799999999999 58.21472L8.608799999999999 54.49376L8.608799999999999 50.74544L8.63616 50.66336C8.71824 50.55392,8.80032 50.41712,8.93712 50.3624M8.608799999999999 64.75376C8.608799999999999 63.0848,8.608799999999999 61.74416,8.608799999999999 61.74416L8.608799999999999 61.74416C8.58144 61.74416,8.307839999999999 61.82624,7.97952 61.90832L6.7756799999999995 62.20928C6.47472 62.29136,6.2011199999999995 62.34608,6.2011199999999995 62.34608C6.1464 62.34608,6.1464 62.51024,6.1464 65.32832L6.1464 68.33792L6.31056 68.2832C6.36528 68.25584,6.85776 68.1464,7.350239999999999 68.03696L8.41728 67.76336L8.608799999999999 67.68128L8.608799999999999 64.75376"/></g></g></svg>