<?xml version="1.0" standalone="no"?><svg xmlns="http://www.w3.org/2000/svg" width="40" height="130"><path stroke-width="2" fill="none" stroke="black" stroke-dasharray="none" font-family="Arial" font-size="10pt" font-weight="normal" font-style="normal" d="M-15 30L85 30"/><path stroke-width="2" fill="none" stroke="black" stroke-dasharray="none" font-family="Arial" font-size="10pt" font-weight="normal" font-style="normal" d="M-15 40L85 40"/><path stroke-width="2" fill="none" stroke="black" stroke-dasharray="none" font-family="Arial" font-size="10pt" font-weight="normal" font-style="normal" d="M-15 50L85 50"/><path stroke-width="2" fill="none" stroke="black" stroke-dasharray="none" font-family="Arial" font-size="10pt" font-weight="normal" font-style="normal" d="M-15 60L85 60"/><path stroke-width="2" fill="none" stroke="black" stroke-dasharray="none" font-family="Arial" font-size="10pt" font-weight="normal" font-style="normal" d="M-15 70L85 70"/><rect stroke-width="0.3" fill="black" stroke="black" stroke-dasharray="none" font-family="Arial" font-size="10pt" font-weight="normal" font-style="normal" x="-15" y="29.5" width="1" height="41"/><rect stroke-width="0.3" fill="black" stroke="black" stroke-dasharray="none" font-family="Arial" font-size="10pt" font-weight="normal" font-style="normal" x="85" y="29.5" width="1" height="41"/><path stroke-width="2" fill="none" stroke="black" stroke-dasharray="none" font-family="Arial" font-size="10pt" font-weight="normal" font-style="normal" x="85" y="29.5" width="1" height="41" d="M11.83728 80L29.85552 80"/><path stroke-width="2" fill="none" stroke="black" stroke-dasharray="none" font-family="Arial" font-size="10pt" font-weight="normal" font-style="normal" x="85" y="29.5" width="1" height="41" d="M11.83728 90L29.85552 90"/><path stroke-width="2" fill="none" stroke="black" stroke-dasharray="none" font-family="Arial" font-size="10pt" font-weight="normal" font-style="normal" x="85" y="29.5" width="1" height="41" d="M11.83728 100L29.85552 100"/><g class="vf-stavenote" id="vf-auto4138"><g class="vf-note" pointer-events="bounding-box"><g class="vf-stem" pointer-events="bounding-box"><path stroke-width="1.5" fill="none" stroke="black" stroke-dasharray="none" font-family="Arial" font-size="10pt" font-weight="normal" font-style="normal" x="85" y="29.5" width="1" height="41" d="M26.10552 100L26.10552 65"/></g><g class="vf-notehead" pointer-events="bounding-box"><path stroke-width="0.3" fill="black" stroke="none" stroke-dasharray="none" font-family="Arial" font-size="10pt" font-weight="normal" font-style="normal" x="85" y="29.5" width="1" height="41" d="M14.83728 100M22.19424 94.77712C22.30656 94.77712,22.47504 94.77712,22.50312 94.77712C22.50312 94.77712,22.5312 94.77712,22.5312 94.77712C22.5312 94.77712,22.69968 94.77712,22.84008 94.77712C25.36728 94.91752,26.85552 96.57424,26.85552 98.65216C26.85552 99.66304,26.51856 100.81432,25.67616 101.90944C24.0756 104.0716,21.46416 105.25096,19.18968 105.25096C17.42064 105.25096,15.90432 104.54896,15.17424 103.11688C14.9496 102.55528,14.83728 102.02176,14.83728 101.43208C14.83728 98.37136,18.26304 94.97368,22.19424 94.77712"/></g><g class="vf-flag" pointer-events="bounding-box"><path stroke-width="0.3" fill="black" stroke="none" stroke-dasharray="none" font-family="Arial" font-size="10pt" font-weight="normal" font-style="normal" x="85" y="29.5" width="1" height="41" d="M26.10552 63M25.4316 67.52088L25.4316 63.1404L25.54392 63.1404C25.8528 63.1404,26.04936 63.33696,26.10552 63.67392C26.6952 66.48192,28.464239999999997 69.54264,30.9072 71.8452C33.63096 74.40048,35.006879999999995 77.91048,35.006879999999995 81.53280000000001C35.006879999999995 84.95856,33.79944 88.52472,31.356479999999998 91.47312C30.93528 92.03472,30.9072 92.03472,30.626399999999997 92.03472C30.28944 92.03472,30.064799999999998 91.782,30.064799999999998 91.44504C30.064799999999998 91.19232,30.092879999999997 91.13616,30.37368 90.82728C32.50776 88.24392,33.574799999999996 85.12704,33.574799999999996 82.15056C33.574799999999996 79.51104000000001,32.7324 76.98384,30.991439999999997 75.0744C29.9244 73.89504,27.9588 72.77184,25.45968 71.90136C25.45968 71.87328,25.4316 71.00280000000001,25.4316 67.52088"/></g></g><g class="vf-modifiers"><path stroke-width="0.3" fill="black" stroke="none" stroke-dasharray="none" font-family="Arial" font-size="10pt" font-weight="normal" font-style="normal" x="85" y="29.5" width="1" height="41" d="M3 100M8.93712 85.36240000000001C9.0192 85.30768,9.04656 85.30768,9.155999999999999 85.30768C9.4296 85.30768,9.62112 85.41712,9.703199999999999 85.66336L9.73056 85.74544L9.757919999999999 89.3296L9.757919999999999 92.94112L10.46928 92.7496C10.87968 92.64016,11.18064 92.6128,11.37216 92.6128C11.6184 92.6128,11.72784 92.69488,11.80992 92.91376C11.83728 92.99584,11.83728 93.62512,11.83728 94.30912000000001C11.83728 94.96576,11.83728 95.64976,11.80992 95.67712C11.700479999999999 95.95072,11.6184 95.97808,10.87968 96.1696C9.94944 96.41584,9.757919999999999 96.4432,9.757919999999999 96.4432C9.757919999999999 96.4432,9.757919999999999 97.15456,9.757919999999999 98.2216C9.757919999999999 98.60464,9.757919999999999 99.01504,9.757919999999999 99.4528L9.757919999999999 102.40768L10.46928 102.21616C10.907039999999999 102.10672,11.18064 102.07936,11.37216 102.07936C11.50896 102.07936,11.6184 102.10672,11.700479999999999 102.21616C11.83728 102.38032,11.83728 102.35296,11.83728 103.36528L11.83728 103.77568L11.83728 104.21344C11.83728 105.22576,11.83728 105.19839999999999,11.700479999999999 105.3352C11.59104 105.44463999999999,11.6184 105.44463999999999,10.359839999999998 105.7456C10.08624 105.82768,9.84 105.90976,9.81264 105.90976L9.757919999999999 105.90976L9.757919999999999 109.54864L9.73056 113.21488L9.703199999999999 113.32432C9.62112 113.5432,9.402239999999999 113.65264,9.155999999999999 113.65264C8.99184 113.65264,8.7456 113.5432,8.63616 113.32432L8.608799999999999 113.21488L8.608799999999999 109.7128L8.608799999999999 106.21072L8.58144 106.21072L7.95216 106.37488L6.7756799999999995 106.67584C6.47472 106.75792,6.2011199999999995 106.81264,6.2011199999999995 106.81264C6.1464 106.81264,6.1464 107.00416,6.1464 110.5336L6.1464 114.30928L6.11904 114.39135999999999C6.0096 114.61024,5.79072 114.71968,5.5992 114.71968C5.380319999999999 114.71968,5.13408 114.61024,5.02464 114.39135999999999L4.99728 114.30928L4.99728 110.69776C4.99728 107.35984,4.99728 107.1136,4.96992 107.1136C4.96992 107.1136,4.96992 107.1136,4.96992 107.1136C4.66896 107.19568,3.62928 107.46928,3.51984 107.46928C3.2736 107.46928,3.10944 107.30512,3 107.1136C3 107.00416,3 107.00416,3 105.71824L3 104.43232L3.02736 104.32288C3.1368 104.04928,3.1368 104.04928,4.66896 103.66624L4.99728 103.58416L4.99728 100.60192C4.99728 97.83856,4.99728 97.64704,4.96992 97.64704C4.96992 97.64704,4.96992 97.64704,4.96992 97.64704C4.66896 97.72912,3.62928 97.97536,3.51984 97.97536C3.2736 97.97536,3.10944 97.83856,3 97.64704C3 97.5376,3 97.5376,3 96.25168L3 94.96576L3.02736 94.85632C3.1368 94.58272,3.1368 94.58272,4.66896 94.19968L4.99728 94.1176L4.99728 90.47872L4.99728 86.83984L5.02464 86.7304C5.13408 86.53888,5.380319999999999 86.37472,5.5992 86.37472C5.68128 86.37472,5.736 86.42944,5.81808 86.4568C5.9275199999999995 86.48416,6.03696 86.62096,6.11904 86.7304L6.1464 86.83984L6.1464 90.34192L6.1464 93.81664L6.31056 93.81664C6.36528 93.78928,6.85776 93.67984,7.350239999999999 93.5704L8.41728 93.24208L8.608799999999999 93.21472L8.608799999999999 89.49376L8.608799999999999 85.74544L8.63616 85.66336C8.71824 85.55392,8.80032 85.41712,8.93712 85.36240000000001M8.608799999999999 99.75376C8.608799999999999 98.0848,8.608799999999999 96.74416,8.608799999999999 96.74416L8.608799999999999 96.74416C8.58144 96.74416,8.307839999999999 96.82624,7.97952 96.90832L6.7756799999999995 97.20928C6.47472 97.29136,6.2011199999999995 97.34608,6.2011199999999995 97.34608C6.1464 97.34608,6.1464 97.51024,6.1464 100.32832L6.1464 103.33792L6.31056 103.2832C6.36528 103.25584,6.85776 103.1464,7.350239999999999 103.03696L8.41728 102.76336L8.608799999999999 102.68128L8.608799999999999 99.75376"/></g></g></svg>