<?xml version="1.0" standalone="no"?><svg xmlns="http://www.w3.org/2000/svg" width="40" height="130"><path stroke-width="2" fill="none" stroke="black" stroke-dasharray="none" font-family="Arial" font-size="10pt" font-weight="normal" font-style="normal" d="M-15 30L85 30"/><path stroke-width="2" fill="none" stroke="black" stroke-dasharray="none" font-family="Arial" font-size="10pt" font-weight="normal" font-style="normal" d="M-15 40L85 40"/><path stroke-width="2" fill="none" stroke="black" stroke-dasharray="none" font-family="Arial" font-size="10pt" font-weight="normal" font-style="normal" d="M-15 50L85 50"/><path stroke-width="2" fill="none" stroke="black" stroke-dasharray="none" font-family="Arial" font-size="10pt" font-weight="normal" font-style="normal" d="M-15 60L85 60"/><path stroke-width="2" fill="none" stroke="black" stroke-dasharray="none" font-family="Arial" font-size="10pt" font-weight="normal" font-style="normal" d="M-15 70L85 70"/><rect stroke-width="0.3" fill="black" stroke="black" stroke-dasharray="none" font-family="Arial" font-size="10pt" font-weight="normal" font-style="normal" x="-15" y="29.5" width="1" height="41"/><rect stroke-width="0.3" fill="black" stroke="black" stroke-dasharray="none" font-family="Arial" font-size="10pt" font-weight="normal" font-style="normal" x="85" y="29.5" width="1" height="41"/><g class="vf-stavenote" id="vf-auto2348"><g class="vf-note" pointer-events="bounding-box"><g class="vf-stem" pointer-events="bounding-box"><path stroke-width="1.5" fill="none" stroke="black" stroke-dasharray="none" font-family="Arial" font-size="10pt" font-weight="normal" font-style="normal" x="85" y="29.5" width="1" height="41" d="M15.58728 30L15.58728 65"/></g><g class="vf-notehead" pointer-events="bounding-box"><path stroke-width="0.3" fill="black" stroke="none" stroke-dasharray="none" font-family="Arial" font-size="10pt" font-weight="normal" font-style="normal" x="85" y="29.5" width="1" height="41" d="M14.83728 30M22.19424 24.77712C22.30656 24.77712,22.47504 24.77712,22.50312 24.77712C22.50312 24.77712,22.5312 24.77712,22.5312 24.77712C22.5312 24.77712,22.69968 24.77712,22.84008 24.77712C25.36728 24.91752,26.85552 26.57424,26.85552 28.65216C26.85552 29.66304,26.51856 30.81432,25.67616 31.90944C24.0756 34.071600000000004,21.46416 35.25096,19.18968 35.25096C17.42064 35.25096,15.90432 34.54896,15.17424 33.11688C14.9496 32.55528,14.83728 32.02176,14.83728 31.43208C14.83728 28.37136,18.26304 24.97368,22.19424 24.77712M25.11456 26.32152C25.00224 26.26536,24.86184 26.23728,24.72144 26.23728C23.85096 26.23728,22.3908 26.7708,20.9868 27.72552C18.37536 29.35416,16.24128 31.74096,16.15704 33.11688C16.15704 33.11688,16.15704 33.14496,16.15704 33.14496C16.15704 33.62232,16.46592 33.81888,16.99944 33.81888C18.15072 33.81888,20.2848 32.83608,22.2504 31.2636C24.27216 29.66304,25.56384 27.86592,25.56384 26.93928C25.56384 26.6304,25.42344 26.377679999999998,25.11456 26.32152"/></g></g><g class="vf-modifiers"><path stroke-width="0.3" fill="black" stroke="none" stroke-dasharray="none" font-family="Arial" font-size="10pt" font-weight="normal" font-style="normal" x="85" y="29.5" width="1" height="41" d="M3 30M8.93712 15.362400000000001C9.0192 15.307680000000001,9.04656 15.307680000000001,9.155999999999999 15.307680000000001C9.4296 15.307680000000001,9.62112 15.41712,9.703199999999999 15.66336L9.73056 15.74544L9.757919999999999 19.3296L9.757919999999999 22.94112L10.46928 22.7496C10.87968 22.64016,11.18064 22.6128,11.37216 22.6128C11.6184 22.6128,11.72784 22.69488,11.80992 22.91376C11.83728 22.99584,11.83728 23.62512,11.83728 24.30912C11.83728 24.96576,11.83728 25.64976,11.80992 25.677120000000002C11.700479999999999 25.95072,11.6184 25.97808,10.87968 26.1696C9.94944 26.41584,9.757919999999999 26.4432,9.757919999999999 26.4432C9.757919999999999 26.4432,9.757919999999999 27.15456,9.757919999999999 28.2216C9.757919999999999 28.60464,9.757919999999999 29.01504,9.757919999999999 29.4528L9.757919999999999 32.40768L10.46928 32.21616C10.907039999999999 32.10672,11.18064 32.07936,11.37216 32.07936C11.50896 32.07936,11.6184 32.10672,11.700479999999999 32.21616C11.83728 32.38032,11.83728 32.35296,11.83728 33.36528L11.83728 33.77568L11.83728 34.21344C11.83728 35.22576,11.83728 35.1984,11.700479999999999 35.3352C11.59104 35.44464,11.6184 35.44464,10.359839999999998 35.745599999999996C10.08624 35.82768,9.84 35.90976,9.81264 35.90976L9.757919999999999 35.90976L9.757919999999999 39.54864L9.73056 43.21488L9.703199999999999 43.32432C9.62112 43.5432,9.402239999999999 43.65264,9.155999999999999 43.65264C8.99184 43.65264,8.7456 43.5432,8.63616 43.32432L8.608799999999999 43.21488L8.608799999999999 39.7128L8.608799999999999 36.21072L8.58144 36.21072L7.95216 36.37488L6.7756799999999995 36.67584C6.47472 36.75792,6.2011199999999995 36.81264,6.2011199999999995 36.81264C6.1464 36.81264,6.1464 37.00416,6.1464 40.5336L6.1464 44.30928L6.11904 44.39136C6.0096 44.61024,5.79072 44.71968,5.5992 44.71968C5.380319999999999 44.71968,5.13408 44.61024,5.02464 44.39136L4.99728 44.30928L4.99728 40.69776C4.99728 37.35984,4.99728 37.1136,4.96992 37.1136C4.96992 37.1136,4.96992 37.1136,4.96992 37.1136C4.66896 37.195679999999996,3.62928 37.46928,3.51984 37.46928C3.2736 37.46928,3.10944 37.30512,3 37.1136C3 37.00416,3 37.00416,3 35.71824L3 34.43232L3.02736 34.32288C3.1368 34.049279999999996,3.1368 34.049279999999996,4.66896 33.66624L4.99728 33.58416L4.99728 30.60192C4.99728 27.83856,4.99728 27.64704,4.96992 27.64704C4.96992 27.64704,4.96992 27.64704,4.96992 27.64704C4.66896 27.72912,3.62928 27.975360000000002,3.51984 27.975360000000002C3.2736 27.975360000000002,3.10944 27.83856,3 27.64704C3 27.5376,3 27.5376,3 26.25168L3 24.96576L3.02736 24.85632C3.1368 24.582720000000002,3.1368 24.582720000000002,4.66896 24.19968L4.99728 24.1176L4.99728 20.478720000000003L4.99728 16.839840000000002L5.02464 16.730400000000003C5.13408 16.53888,5.380319999999999 16.37472,5.5992 16.37472C5.68128 16.37472,5.736 16.42944,5.81808 16.4568C5.9275199999999995 16.484160000000003,6.03696 16.62096,6.11904 16.730400000000003L6.1464 16.839840000000002L6.1464 20.341920000000002L6.1464 23.81664L6.31056 23.81664C6.36528 23.78928,6.85776 23.67984,7.350239999999999 23.5704L8.41728 23.24208L8.608799999999999 23.21472L8.608799999999999 19.49376L8.608799999999999 15.74544L8.63616 15.66336C8.71824 15.55392,8.80032 15.41712,8.93712 15.362400000000001M8.608799999999999 29.75376C8.608799999999999 28.0848,8.608799999999999 26.74416,8.608799999999999 26.74416L8.608799999999999 26.74416C8.58144 26.74416,8.307839999999999 26.82624,7.97952 26.90832L6.7756799999999995 27.20928C6.47472 27.29136,6.2011199999999995 27.34608,6.2011199999999995 27.34608C6.1464 27.34608,6.1464 27.51024,6.1464 30.32832L6.1464 33.33792L6.31056 33.2832C6.36528 33.25584,6.85776 33.1464,7.350239999999999 33.03696L8.41728 32.76336L8.608799999999999 32.68128L8.608799999999999 29.75376"/></g></g></svg>