<?xml version="1.0" encoding="UTF-8" standalone="no"?>
<!-- Generator: Adobe Illustrator 19.0.0, SVG Export Plug-In . SVG Version: 6.00 Build 0)  -->

<svg
   xmlns:dc="http://purl.org/dc/elements/1.1/"
   xmlns:cc="http://creativecommons.org/ns#"
   xmlns:rdf="http://www.w3.org/1999/02/22-rdf-syntax-ns#"
   xmlns:svg="http://www.w3.org/2000/svg"
   xmlns="http://www.w3.org/2000/svg"
   xmlns:sodipodi="http://sodipodi.sourceforge.net/DTD/sodipodi-0.dtd"
   xmlns:inkscape="http://www.inkscape.org/namespaces/inkscape"
   version="1.1"
   id="Capa_1"
   x="0px"
   y="0px"
   viewBox="0 0 153 115"
   xml:space="preserve"
   sodipodi:docname="gripper.svg"
   width="153"
   height="115"
   inkscape:version="0.92.1 r15371"><metadata
     id="metadata49"><rdf:RDF><cc:Work
         rdf:about=""><dc:format>image/svg+xml</dc:format><dc:type
           rdf:resource="http://purl.org/dc/dcmitype/StillImage" /><dc:title></dc:title></cc:Work></rdf:RDF></metadata><defs
     id="defs47" /><sodipodi:namedview
     pagecolor="#ffffff"
     bordercolor="#666666"
     borderopacity="1"
     objecttolerance="10"
     gridtolerance="10"
     guidetolerance="10"
     inkscape:pageopacity="0"
     inkscape:pageshadow="2"
     inkscape:window-width="1366"
     inkscape:window-height="705"
     id="namedview45"
     showgrid="false"
     inkscape:zoom="0.921875"
     inkscape:cx="238.44453"
     inkscape:cy="-21.969688"
     inkscape:window-x="-8"
     inkscape:window-y="-8"
     inkscape:window-maximized="1"
     inkscape:current-layer="Capa_1" /><path
     d="m 47.547924,73.6387 15.854,31.708 c 2.542,5.082 7.735,8.292 13.417,8.292 h 59.999996 c 8.284,0 15,-6.716 15,-15 0,-8.284 -6.716,-15 -15,-15 H 86.089924 l -12.5,-25 12.5,-25 h 50.728996 c 8.284,0 15,-6.716 15,-15 0,-8.284 -6.716,-15 -15,-15 H 76.818924 c -5.682,0 -10.875,3.21 -13.417,8.292 l -15.854,31.708 c -16.28552,0.33829 -45.2877199,-2.40659 -45.2396599,4.12891 0.0829,11.2692 -0.19236,16.21294 -0.14791,21.96597 0.0571,7.39301 29.6830499,3.75998 45.3875699,3.90512 z"
     id="path8"
     inkscape:connector-curvature="0"
     sodipodi:nodetypes="ccsssscccssssccssc" /><g
     id="g14"
     transform="translate(0,-397)" /><g
     id="g16"
     transform="translate(0,-397)" /><g
     id="g18"
     transform="translate(0,-397)" /><g
     id="g20"
     transform="translate(0,-397)" /><g
     id="g22"
     transform="translate(0,-397)" /><g
     id="g24"
     transform="translate(0,-397)" /><g
     id="g26"
     transform="translate(0,-397)" /><g
     id="g28"
     transform="translate(0,-397)" /><g
     id="g30"
     transform="translate(0,-397)" /><g
     id="g32"
     transform="translate(0,-397)" /><g
     id="g34"
     transform="translate(0,-397)" /><g
     id="g36"
     transform="translate(0,-397)" /><g
     id="g38"
     transform="translate(0,-397)" /><g
     id="g40"
     transform="translate(0,-397)" /><g
     id="g42"
     transform="translate(0,-397)" /></svg>