<?xml version="1.0" encoding="UTF-8" standalone="no"?>
<!-- Generator: Adobe Illustrator 19.0.0, SVG Export Plug-In . SVG Version: 6.00 Build 0)  -->

<svg
   xmlns:dc="http://purl.org/dc/elements/1.1/"
   xmlns:cc="http://creativecommons.org/ns#"
   xmlns:rdf="http://www.w3.org/1999/02/22-rdf-syntax-ns#"
   xmlns:svg="http://www.w3.org/2000/svg"
   xmlns="http://www.w3.org/2000/svg"
   xmlns:sodipodi="http://sodipodi.sourceforge.net/DTD/sodipodi-0.dtd"
   xmlns:inkscape="http://www.inkscape.org/namespaces/inkscape"
   version="1.1"
   id="Layer_1"
   x="0px"
   y="0px"
   viewBox="0 0 512 512"
   style="enable-background:new 0 0 512 512;"
   xml:space="preserve"
   sodipodi:docname="hippie.svg"
   inkscape:version="0.92.1 r15371"><metadata
     id="metadata49"><rdf:RDF><cc:Work
         rdf:about=""><dc:format>image/svg+xml</dc:format><dc:type
           rdf:resource="http://purl.org/dc/dcmitype/StillImage" /><dc:title></dc:title></cc:Work></rdf:RDF></metadata><defs
     id="defs47" /><sodipodi:namedview
     pagecolor="#ffffff"
     bordercolor="#666666"
     borderopacity="1"
     objecttolerance="10"
     gridtolerance="10"
     guidetolerance="10"
     inkscape:pageopacity="0"
     inkscape:pageshadow="2"
     inkscape:window-width="1366"
     inkscape:window-height="705"
     id="namedview45"
     showgrid="false"
     inkscape:zoom="0.65186406"
     inkscape:cx="206.32104"
     inkscape:cy="231.21193"
     inkscape:window-x="-8"
     inkscape:window-y="-8"
     inkscape:window-maximized="1"
     inkscape:current-layer="g10" /><g
     id="g6"><g
       id="g4"><path
         d="M256,128.548c-20.214,0-36.659,16.444-36.659,36.659c0,20.215,16.445,36.66,36.659,36.66s36.659-16.445,36.659-36.66    C292.659,144.992,276.214,128.548,256,128.548z"
         id="path2" /></g></g><g
     id="g12"><g
       id="g10"><path
         d="m 452.67,387.521 v -25.757 c 15.199,-6.505 25.876,-21.605 25.876,-39.156 0,-23.474 -19.098,-42.572 -42.572,-42.572 -4.87,0 -9.547,0.834 -13.909,2.345 l -62.87,-35.637 c 17.763,-22.433 28.384,-50.767 28.384,-81.538 0,-72.553 -59.026,-131.578 -131.578,-131.578 -72.552,0 -131.58,59.027 -131.58,131.58 0,30.771 10.621,59.105 28.384,81.538 l -62.871,35.636 c -4.362,-1.513 -9.038,-2.345 -13.909,-2.345 -23.474,0 -42.572,19.098 -42.572,42.572 0,17.55 10.677,32.651 25.876,39.156 v 25.757 C 25.417,395.153 0,425.492 0,461.676 v 16.696 h 152.051 v -16.696 c 0,-36.184 -25.417,-66.523 -59.33,-74.155 v -25.757 c 15.197,-6.505 25.875,-21.605 25.875,-39.156 0,-5.756 -1.154,-11.245 -3.233,-16.256 L 177.8,270.96 c 17.65,13.085 38.67,21.867 61.503,24.772 33.391,0 0,0 33.391,0 22.833,-2.904 43.854,-11.687 61.503,-24.772 l 62.437,35.391 c -2.079,5.012 -3.233,10.502 -3.233,16.256 0,17.55 10.677,32.651 25.875,39.156 v 25.757 c -33.912,7.632 -59.33,37.971 -59.33,74.155 v 16.696 H 512 v -16.696 c 0,-36.183 -25.417,-66.522 -59.33,-74.154 z M 256,235.257 c -38.626,0 -70.05,-31.425 -70.05,-70.052 0,-38.627 31.425,-70.049 70.05,-70.049 38.626,0 70.051,31.423 70.051,70.051 0,38.627 -31.425,70.05 -70.051,70.05 z"
         id="path8"
         inkscape:connector-curvature="0"
         sodipodi:nodetypes="ccssccsssccssccsccsccsccccccsccsccscsssss" /><rect
         style="fill:#000000;fill-opacity:1;stroke:none;stroke-width:7.1999197;stroke-linecap:round;stroke-linejoin:round;stroke-miterlimit:4;stroke-dasharray:none;stroke-dashoffset:0;stroke-opacity:1;paint-order:markers fill stroke"
         id="rect4526"
         width="371.31012"
         height="28.113068"
         x="69.096657"
         y="281.03949" /></g></g><g
     id="g14" /><g
     id="g16" /><g
     id="g18" /><g
     id="g20" /><g
     id="g22" /><g
     id="g24" /><g
     id="g26" /><g
     id="g28" /><g
     id="g30" /><g
     id="g32" /><g
     id="g34" /><g
     id="g36" /><g
     id="g38" /><g
     id="g40" /><g
     id="g42" /></svg>