<?xml version="1.0" encoding="utf-8"?>
<!-- Generator: Adobe Illustrator 22.0.1, SVG Export Plug-In . SVG Version: 6.00 Build 0)  -->
<svg version="1.1" id="Icons" xmlns="http://www.w3.org/2000/svg" xmlns:xlink="http://www.w3.org/1999/xlink" x="0px" y="0px"
	 viewBox="0 0 60 60" style="enable-background:new 0 0 60 60;" xml:space="preserve">
<style type="text/css">
	.st0{fill:none;stroke:#000000;stroke-width:1.5;stroke-linecap:round;stroke-linejoin:round;stroke-miterlimit:10;}
	.st1{fill:none;stroke:#000000;stroke-width:1.2;stroke-linecap:round;stroke-linejoin:round;stroke-miterlimit:10;}
	.st2{fill:none;stroke:#52ABE2;stroke-width:1.5;stroke-linecap:round;stroke-linejoin:round;stroke-miterlimit:10;}
	.st3{fill:none;stroke:#000000;stroke-width:1.5;stroke-linecap:square;stroke-miterlimit:10;}
	.st4{fill:none;stroke:#000000;stroke-width:1.5;stroke-miterlimit:10;}
	.st5{fill:none;stroke:#000000;stroke-miterlimit:10;}
	.st6{fill:none;}
	.st7{fill:none;stroke:#000000;stroke-width:1.5;stroke-linecap:round;stroke-miterlimit:10;}
	.st8{fill:#FFFFFF;stroke:#000000;stroke-width:1.5;stroke-linecap:round;stroke-linejoin:round;stroke-miterlimit:10;}
	.st9{fill:#FF0000;}
</style>
<g>
	<path d="M33.912,45.102H11.737V24.077c0-0.414-0.336-0.75-0.75-0.75H4.973L26.476,5.542v12.812
		c-3.629,0.377-6.468,3.452-6.468,7.179c0,0.414,0.336,0.75,0.75,0.75h12.936c0.414,0,0.75-0.336,0.75-0.75
		c0-3.727-2.839-6.803-6.468-7.179V5.444l10.522,8.777c0.317,0.266,0.791,0.222,1.057-0.096c0.265-0.318,0.222-0.791-0.096-1.057
		L28.084,3.58c-0.461-0.381-1.129-0.381-1.59,0L2.411,23.499c-0.244,0.202-0.335,0.534-0.228,0.832
		c0.107,0.298,0.389,0.496,0.706,0.496h7.347v21.024c0,0.414,0.336,0.75,0.75,0.75h22.926c0.414,0,0.75-0.336,0.75-0.75
		S34.326,45.102,33.912,45.102z M32.895,24.784H21.557c0.369-2.8,2.771-4.969,5.669-4.969
		C30.125,19.815,32.527,21.984,32.895,24.784z"/>
	<path d="M55.111,15.719H38.958c-1.517,0-2.75,1.233-2.75,2.75v35.486c0,1.517,1.233,2.75,2.75,2.75h16.152
		c1.517,0,2.75-1.233,2.75-2.75V18.469C57.861,16.952,56.627,15.719,55.111,15.719z M37.708,22.265h18.652v28.092H37.708V22.265z
		 M38.958,17.219h16.152c0.689,0,1.25,0.561,1.25,1.25v2.296H37.708v-2.296C37.708,17.78,38.269,17.219,38.958,17.219z
		 M55.111,55.205H38.958c-0.689,0-1.25-0.561-1.25-1.25v-2.099h18.652v2.099C56.361,54.645,55.8,55.205,55.111,55.205z"/>
	<path d="M44.377,19.725h5.314c0.414,0,0.75-0.336,0.75-0.75s-0.336-0.75-0.75-0.75h-5.314c-0.414,0-0.75,0.336-0.75,0.75
		S43.963,19.725,44.377,19.725z"/>
	<path d="M49.692,52.688h-5.314c-0.414,0-0.75,0.336-0.75,0.75s0.336,0.75,0.75,0.75h5.314c0.414,0,0.75-0.336,0.75-0.75
		S50.106,52.688,49.692,52.688z"/>
	<path d="M21.817,27.79l-2.08,2.079c-0.293,0.293-0.293,0.768,0,1.061c0.146,0.146,0.338,0.22,0.53,0.22s0.384-0.073,0.53-0.22
		l2.08-2.079c0.293-0.293,0.293-0.768,0-1.061S22.11,27.497,21.817,27.79z"/>
	<path d="M26.476,28.321v2.604c0,0.414,0.336,0.75,0.75,0.75s0.75-0.336,0.75-0.75v-2.604c0-0.414-0.336-0.75-0.75-0.75
		S26.476,27.907,26.476,28.321z"/>
	<path d="M32.635,27.79c-0.293-0.293-0.768-0.293-1.061,0s-0.293,0.768,0,1.061l2.08,2.079c0.146,0.146,0.338,0.22,0.53,0.22
		s0.384-0.073,0.53-0.22c0.293-0.293,0.293-0.768,0-1.061L32.635,27.79z"/>
	<path d="M52.684,32.202c-0.293-0.293-0.768-0.293-1.061,0l-6.428,6.429l-2.75-2.751c-0.293-0.293-0.768-0.293-1.061,0
		s-0.293,0.768,0,1.061l3.281,3.281c0.141,0.141,0.332,0.22,0.53,0.22s0.39-0.079,0.53-0.22l6.958-6.959
		C52.977,32.97,52.977,32.495,52.684,32.202z"/>
</g>
</svg>
