<?xml version="1.0" standalone="no"?><svg xmlns="http://www.w3.org/2000/svg" width="40" height="130"><path stroke-width="2" fill="none" stroke="black" stroke-dasharray="none" font-family="Arial" font-size="10pt" font-weight="normal" font-style="normal" d="M-15 30L85 30"/><path stroke-width="2" fill="none" stroke="black" stroke-dasharray="none" font-family="Arial" font-size="10pt" font-weight="normal" font-style="normal" d="M-15 40L85 40"/><path stroke-width="2" fill="none" stroke="black" stroke-dasharray="none" font-family="Arial" font-size="10pt" font-weight="normal" font-style="normal" d="M-15 50L85 50"/><path stroke-width="2" fill="none" stroke="black" stroke-dasharray="none" font-family="Arial" font-size="10pt" font-weight="normal" font-style="normal" d="M-15 60L85 60"/><path stroke-width="2" fill="none" stroke="black" stroke-dasharray="none" font-family="Arial" font-size="10pt" font-weight="normal" font-style="normal" d="M-15 70L85 70"/><rect stroke-width="0.3" fill="black" stroke="black" stroke-dasharray="none" font-family="Arial" font-size="10pt" font-weight="normal" font-style="normal" x="-15" y="29.5" width="1" height="41"/><rect stroke-width="0.3" fill="black" stroke="black" stroke-dasharray="none" font-family="Arial" font-size="10pt" font-weight="normal" font-style="normal" x="85" y="29.5" width="1" height="41"/><g class="vf-stavenote" id="vf-auto2578"><g class="vf-note" pointer-events="bounding-box"><g class="vf-stem" pointer-events="bounding-box"><path stroke-width="1.5" fill="none" stroke="black" stroke-dasharray="none" font-family="Arial" font-size="10pt" font-weight="normal" font-style="normal" x="85" y="29.5" width="1" height="41" d="M13.26824 55L13.26824 20"/></g><g class="vf-notehead" pointer-events="bounding-box"><path stroke-width="0.3" fill="black" stroke="none" stroke-dasharray="none" font-family="Arial" font-size="10pt" font-weight="normal" font-style="normal" x="85" y="29.5" width="1" height="41" d="M2 55M9.35696 49.77712C9.469280000000001 49.77712,9.63776 49.77712,9.66584 49.77712C9.66584 49.77712,9.69392 49.77712,9.69392 49.77712C9.69392 49.77712,9.862400000000001 49.77712,10.0028 49.77712C12.530000000000001 49.917519999999996,14.01824 51.57424,14.01824 53.65216C14.01824 54.66304,13.681280000000001 55.81432,12.83888 56.909440000000004C11.23832 59.071600000000004,8.62688 60.25096,6.3524 60.25096C4.58336 60.25096,3.06704 59.54896,2.33696 58.11688C2.11232 57.55528,2 57.02176,2 56.43208C2 53.37136,5.42576 49.97368,9.35696 49.77712M12.277280000000001 51.32152C12.16496 51.26536,12.024560000000001 51.23728,11.88416 51.23728C11.01368 51.23728,9.553519999999999 51.7708,8.149519999999999 52.72552C5.53808 54.35416,3.404 56.74096,3.31976 58.11688C3.31976 58.11688,3.31976 58.14496,3.31976 58.14496C3.31976 58.62232,3.62864 58.81888,4.16216 58.81888C5.31344 58.81888,7.44752 57.83608,9.41312 56.2636C11.43488 54.66304,12.726560000000001 52.86592,12.726560000000001 51.93928C12.726560000000001 51.6304,12.58616 51.37768,12.277280000000001 51.32152"/></g></g><g class="vf-modifiers"/></g></svg>