<?xml version="1.0" standalone="no"?><svg xmlns="http://www.w3.org/2000/svg" width="40" height="130"><path stroke-width="2" fill="none" stroke="black" stroke-dasharray="none" font-family="Arial" font-size="10pt" font-weight="normal" font-style="normal" d="M-15 30L85 30"/><path stroke-width="2" fill="none" stroke="black" stroke-dasharray="none" font-family="Arial" font-size="10pt" font-weight="normal" font-style="normal" d="M-15 40L85 40"/><path stroke-width="2" fill="none" stroke="black" stroke-dasharray="none" font-family="Arial" font-size="10pt" font-weight="normal" font-style="normal" d="M-15 50L85 50"/><path stroke-width="2" fill="none" stroke="black" stroke-dasharray="none" font-family="Arial" font-size="10pt" font-weight="normal" font-style="normal" d="M-15 60L85 60"/><path stroke-width="2" fill="none" stroke="black" stroke-dasharray="none" font-family="Arial" font-size="10pt" font-weight="normal" font-style="normal" d="M-15 70L85 70"/><rect stroke-width="0.3" fill="black" stroke="black" stroke-dasharray="none" font-family="Arial" font-size="10pt" font-weight="normal" font-style="normal" x="-15" y="29.5" width="1" height="41"/><rect stroke-width="0.3" fill="black" stroke="black" stroke-dasharray="none" font-family="Arial" font-size="10pt" font-weight="normal" font-style="normal" x="85" y="29.5" width="1" height="41"/><g class="vf-stavenote" id="vf-auto4445"><g class="vf-note" pointer-events="bounding-box"><g class="vf-stem" pointer-events="bounding-box"><path stroke-width="1.5" fill="none" stroke="black" stroke-dasharray="none" font-family="Arial" font-size="10pt" font-weight="normal" font-style="normal" x="85" y="29.5" width="1" height="41" d="M13.26824 55L13.26824 20"/></g><g class="vf-notehead" pointer-events="bounding-box"><path stroke-width="0.3" fill="black" stroke="none" stroke-dasharray="none" font-family="Arial" font-size="10pt" font-weight="normal" font-style="normal" x="85" y="29.5" width="1" height="41" d="M2 55M9.35696 49.77712C9.469280000000001 49.77712,9.63776 49.77712,9.66584 49.77712C9.66584 49.77712,9.69392 49.77712,9.69392 49.77712C9.69392 49.77712,9.862400000000001 49.77712,10.0028 49.77712C12.530000000000001 49.917519999999996,14.01824 51.57424,14.01824 53.65216C14.01824 54.66304,13.681280000000001 55.81432,12.83888 56.909440000000004C11.23832 59.071600000000004,8.62688 60.25096,6.3524 60.25096C4.58336 60.25096,3.06704 59.54896,2.33696 58.11688C2.11232 57.55528,2 57.02176,2 56.43208C2 53.37136,5.42576 49.97368,9.35696 49.77712"/></g><g class="vf-flag" pointer-events="bounding-box"><path stroke-width="0.3" fill="black" stroke="none" stroke-dasharray="none" font-family="Arial" font-size="10pt" font-weight="normal" font-style="normal" x="85" y="29.5" width="1" height="41" d="M13.26824 18M12.59432 22.52088L12.59432 18.1404L12.70664 18.1404C13.01552 18.1404,13.21208 18.33696,13.26824 18.67392C13.85792 21.48192,15.62696 24.54264,18.06992 26.8452C20.793680000000002 29.40048,22.169600000000003 32.91048,22.169600000000003 36.5328C22.169600000000003 39.958560000000006,20.96216 43.52472,18.5192 46.47312C18.098 47.03472,18.06992 47.03472,17.78912 47.03472C17.45216 47.03472,17.227520000000002 46.782,17.227520000000002 46.445040000000006C17.227520000000002 46.19232,17.2556 46.136160000000004,17.5364 45.82728C19.67048 43.24392,20.73752 40.12704,20.73752 37.15056C20.73752 34.51104,19.89512 31.98384,18.15416 30.0744C17.08712 28.89504,15.12152 27.77184,12.6224 26.90136C12.6224 26.87328,12.59432 26.0028,12.59432 22.52088"/></g></g><g class="vf-modifiers"/></g></svg>