<?xml version="1.0" standalone="no"?><svg xmlns="http://www.w3.org/2000/svg" width="40" height="130"><path stroke-width="2" fill="none" stroke="black" stroke-dasharray="none" font-family="Arial" font-size="10pt" font-weight="normal" font-style="normal" d="M-15 30L85 30"/><path stroke-width="2" fill="none" stroke="black" stroke-dasharray="none" font-family="Arial" font-size="10pt" font-weight="normal" font-style="normal" d="M-15 40L85 40"/><path stroke-width="2" fill="none" stroke="black" stroke-dasharray="none" font-family="Arial" font-size="10pt" font-weight="normal" font-style="normal" d="M-15 50L85 50"/><path stroke-width="2" fill="none" stroke="black" stroke-dasharray="none" font-family="Arial" font-size="10pt" font-weight="normal" font-style="normal" d="M-15 60L85 60"/><path stroke-width="2" fill="none" stroke="black" stroke-dasharray="none" font-family="Arial" font-size="10pt" font-weight="normal" font-style="normal" d="M-15 70L85 70"/><rect stroke-width="0.3" fill="black" stroke="black" stroke-dasharray="none" font-family="Arial" font-size="10pt" font-weight="normal" font-style="normal" x="-15" y="29.5" width="1" height="41"/><rect stroke-width="0.3" fill="black" stroke="black" stroke-dasharray="none" font-family="Arial" font-size="10pt" font-weight="normal" font-style="normal" x="85" y="29.5" width="1" height="41"/><path stroke-width="2" fill="none" stroke="black" stroke-dasharray="none" font-family="Arial" font-size="10pt" font-weight="normal" font-style="normal" x="85" y="29.5" width="1" height="41" d="M-1 20L17.01824 20"/><g class="vf-stavenote" id="vf-auto4875"><g class="vf-note" pointer-events="bounding-box"><g class="vf-stem" pointer-events="bounding-box"><path stroke-width="1.5" fill="none" stroke="black" stroke-dasharray="none" font-family="Arial" font-size="10pt" font-weight="normal" font-style="normal" x="85" y="29.5" width="1" height="41" d="M2.75 20L2.75 55"/></g><g class="vf-notehead" pointer-events="bounding-box"><path stroke-width="0.3" fill="black" stroke="none" stroke-dasharray="none" font-family="Arial" font-size="10pt" font-weight="normal" font-style="normal" x="85" y="29.5" width="1" height="41" d="M2 20M9.35696 14.77712C9.469280000000001 14.77712,9.63776 14.77712,9.66584 14.77712C9.66584 14.77712,9.69392 14.77712,9.69392 14.77712C9.69392 14.77712,9.862400000000001 14.77712,10.0028 14.77712C12.530000000000001 14.91752,14.01824 16.57424,14.01824 18.65216C14.01824 19.66304,13.681280000000001 20.81432,12.83888 21.90944C11.23832 24.0716,8.62688 25.25096,6.3524 25.25096C4.58336 25.25096,3.06704 24.54896,2.33696 23.116880000000002C2.11232 22.55528,2 22.02176,2 21.43208C2 18.37136,5.42576 14.97368,9.35696 14.77712"/></g><g class="vf-flag" pointer-events="bounding-box"><path stroke-width="0.3" fill="black" stroke="none" stroke-dasharray="none" font-family="Arial" font-size="10pt" font-weight="normal" font-style="normal" x="85" y="29.5" width="1" height="41" d="M2.75 57M9.208400000000001 28.049519999999998C9.26456 28.02144,9.3488 28.02144,9.43304 28.02144C9.6296 28.02144,9.79808 28.161839999999998,10.02272 28.52688C12.0164 31.55952,13.05536 35.041439999999994,13.05536 38.41104C13.05536 39.00072,13.05536 39.56232,12.97112 40.095839999999995C12.63416 43.29696,11.28632 46.21728,9.26456 48.09864C7.1024 50.120400000000004,5.64224 51.74904,4.35056 53.6304C3.62048 54.64128,2.91848 55.8768,2.72192 56.49456C2.63768 56.69112,2.41304 56.88768,2.21648 56.88768L2.16032 56.88768L2.16032 52.53528L2.16032 48.1548L2.30072 48.1548C3.0308 48.1548,4.49096 47.90208,5.44568 47.593199999999996C9.12416 46.3296,11.5952 42.20184,11.5952 37.4844C11.5952 37.09128,11.567120000000001 36.67008,11.53904 36.27696C11.28632 33.834,10.41584 31.27872,9.03992 29.172719999999998C8.899519999999999 28.94808,8.815280000000001 28.72344,8.815280000000001 28.554959999999998C8.815280000000001 28.33032,8.9276 28.13376,9.208400000000001 28.049519999999998"/></g></g><g class="vf-modifiers"><path stroke-width="0.3" fill="black" stroke="none" stroke-dasharray="none" font-family="Arial" font-size="10pt" font-weight="normal" font-style="normal" x="85" y="29.5" width="1" height="41" d="M21.01824 15 A2 2 0 0 0 17.01824 15M0 0M17.01824 15 A2 2 0 0 0 21.01824 15M0 0"/></g></g></svg>