<?xml version="1.0" standalone="no"?><svg xmlns="http://www.w3.org/2000/svg" width="40" height="130"><path stroke-width="2" fill="none" stroke="black" stroke-dasharray="none" font-family="Arial" font-size="10pt" font-weight="normal" font-style="normal" d="M-15 30L85 30"/><path stroke-width="2" fill="none" stroke="black" stroke-dasharray="none" font-family="Arial" font-size="10pt" font-weight="normal" font-style="normal" d="M-15 40L85 40"/><path stroke-width="2" fill="none" stroke="black" stroke-dasharray="none" font-family="Arial" font-size="10pt" font-weight="normal" font-style="normal" d="M-15 50L85 50"/><path stroke-width="2" fill="none" stroke="black" stroke-dasharray="none" font-family="Arial" font-size="10pt" font-weight="normal" font-style="normal" d="M-15 60L85 60"/><path stroke-width="2" fill="none" stroke="black" stroke-dasharray="none" font-family="Arial" font-size="10pt" font-weight="normal" font-style="normal" d="M-15 70L85 70"/><rect stroke-width="0.3" fill="black" stroke="black" stroke-dasharray="none" font-family="Arial" font-size="10pt" font-weight="normal" font-style="normal" x="-15" y="29.5" width="1" height="41"/><rect stroke-width="0.3" fill="black" stroke="black" stroke-dasharray="none" font-family="Arial" font-size="10pt" font-weight="normal" font-style="normal" x="85" y="29.5" width="1" height="41"/><path stroke-width="2" fill="none" stroke="black" stroke-dasharray="none" font-family="Arial" font-size="10pt" font-weight="normal" font-style="normal" x="85" y="29.5" width="1" height="41" d="M-1 80L17.01824 80"/><path stroke-width="2" fill="none" stroke="black" stroke-dasharray="none" font-family="Arial" font-size="10pt" font-weight="normal" font-style="normal" x="85" y="29.5" width="1" height="41" d="M-1 90L17.01824 90"/><g class="vf-stavenote" id="vf-auto4427"><g class="vf-note" pointer-events="bounding-box"><g class="vf-stem" pointer-events="bounding-box"><path stroke-width="1.5" fill="none" stroke="black" stroke-dasharray="none" font-family="Arial" font-size="10pt" font-weight="normal" font-style="normal" x="85" y="29.5" width="1" height="41" d="M13.26824 90L13.26824 55"/></g><g class="vf-notehead" pointer-events="bounding-box"><path stroke-width="0.3" fill="black" stroke="none" stroke-dasharray="none" font-family="Arial" font-size="10pt" font-weight="normal" font-style="normal" x="85" y="29.5" width="1" height="41" d="M2 90M9.35696 84.77712C9.469280000000001 84.77712,9.63776 84.77712,9.66584 84.77712C9.66584 84.77712,9.69392 84.77712,9.69392 84.77712C9.69392 84.77712,9.862400000000001 84.77712,10.0028 84.77712C12.530000000000001 84.91752,14.01824 86.57424,14.01824 88.65216C14.01824 89.66304,13.681280000000001 90.81432,12.83888 91.90944C11.23832 94.0716,8.62688 95.25096,6.3524 95.25096C4.58336 95.25096,3.06704 94.54896,2.33696 93.11688C2.11232 92.55528,2 92.02176,2 91.43208C2 88.37136,5.42576 84.97368,9.35696 84.77712"/></g><g class="vf-flag" pointer-events="bounding-box"><path stroke-width="0.3" fill="black" stroke="none" stroke-dasharray="none" font-family="Arial" font-size="10pt" font-weight="normal" font-style="normal" x="85" y="29.5" width="1" height="41" d="M13.26824 53M12.59432 57.52088L12.59432 53.1404L12.70664 53.1404C13.01552 53.1404,13.21208 53.33696,13.26824 53.67392C13.85792 56.48192,15.62696 59.54264,18.06992 61.8452C20.793680000000002 64.40048,22.169600000000003 67.91048,22.169600000000003 71.53280000000001C22.169600000000003 74.95856,20.96216 78.52472,18.5192 81.47312C18.098 82.03472,18.06992 82.03472,17.78912 82.03472C17.45216 82.03472,17.227520000000002 81.782,17.227520000000002 81.44504C17.227520000000002 81.19232,17.2556 81.13616,17.5364 80.82728C19.67048 78.24392,20.73752 75.12704,20.73752 72.15056C20.73752 69.51104000000001,19.89512 66.98384,18.15416 65.0744C17.08712 63.89504,15.12152 62.77184,12.6224 61.90136C12.6224 61.87328,12.59432 61.0028,12.59432 57.52088"/></g></g><g class="vf-modifiers"/></g></svg>