<?xml version="1.0" standalone="no"?><svg xmlns="http://www.w3.org/2000/svg" width="40" height="130"><path stroke-width="2" fill="none" stroke="black" stroke-dasharray="none" font-family="Arial" font-size="10pt" font-weight="normal" font-style="normal" d="M-15 30L85 30"/><path stroke-width="2" fill="none" stroke="black" stroke-dasharray="none" font-family="Arial" font-size="10pt" font-weight="normal" font-style="normal" d="M-15 40L85 40"/><path stroke-width="2" fill="none" stroke="black" stroke-dasharray="none" font-family="Arial" font-size="10pt" font-weight="normal" font-style="normal" d="M-15 50L85 50"/><path stroke-width="2" fill="none" stroke="black" stroke-dasharray="none" font-family="Arial" font-size="10pt" font-weight="normal" font-style="normal" d="M-15 60L85 60"/><path stroke-width="2" fill="none" stroke="black" stroke-dasharray="none" font-family="Arial" font-size="10pt" font-weight="normal" font-style="normal" d="M-15 70L85 70"/><rect stroke-width="0.3" fill="black" stroke="black" stroke-dasharray="none" font-family="Arial" font-size="10pt" font-weight="normal" font-style="normal" x="-15" y="29.5" width="1" height="41"/><rect stroke-width="0.3" fill="black" stroke="black" stroke-dasharray="none" font-family="Arial" font-size="10pt" font-weight="normal" font-style="normal" x="85" y="29.5" width="1" height="41"/><path stroke-width="2" fill="none" stroke="black" stroke-dasharray="none" font-family="Arial" font-size="10pt" font-weight="normal" font-style="normal" x="85" y="29.5" width="1" height="41" d="M-1 80L22.381520000000002 80"/><path stroke-width="2" fill="none" stroke="black" stroke-dasharray="none" font-family="Arial" font-size="10pt" font-weight="normal" font-style="normal" x="85" y="29.5" width="1" height="41" d="M-1 90L22.381520000000002 90"/><g class="vf-stavenote" id="vf-auto1771"><g class="vf-note" pointer-events="bounding-box"><g class="vf-notehead" pointer-events="bounding-box"><path stroke-width="0.3" fill="black" stroke="none" stroke-dasharray="none" font-family="Arial" font-size="10pt" font-weight="normal" font-style="normal" x="85" y="29.5" width="1" height="41" d="M2 90M9.69392 84.83328C10.0028 84.77712,10.31168 84.77712,10.620560000000001 84.77712C15.0572 84.77712,18.76376 86.74272,19.29728 89.38224C19.32536 89.63496,19.381520000000002 89.8596,19.381520000000002 90.02808C19.381520000000002 92.92032,15.56264 95.25096,10.64864 95.25096C5.734640000000001 95.25096,2 92.86416,2 90.02808C2 89.69112,2.02808 89.35416,2.1404 88.98912C2.81432 86.7708,5.95928 85.05792,9.69392 84.83328M10.115120000000001 85.47912C9.974720000000001 85.45104,9.77816 85.45104,9.63776 85.45104C7.868720000000001 85.45104,6.80168 86.96736,6.80168 88.84872C6.80168 89.8596,7.11056 90.95472,7.7564 92.04984C8.823440000000002 93.73464,10.367840000000001 94.57704,11.6876 94.57704C12.8108 94.57704,13.7936 93.98736,14.24288 92.75184C14.439440000000001 92.2464,14.52368 91.74096,14.52368 91.20744C14.52368 88.68024,12.58616 85.87224,10.115120000000001 85.47912"/></g></g><g class="vf-modifiers"><path stroke-width="0.3" fill="black" stroke="none" stroke-dasharray="none" font-family="Arial" font-size="10pt" font-weight="normal" font-style="normal" x="85" y="29.5" width="1" height="41" d="M26.381520000000002 85 A2 2 0 0 0 22.381520000000002 85M0 0M22.381520000000002 85 A2 2 0 0 0 26.381520000000002 85M0 0"/></g></g></svg>