<?xml version="1.0" standalone="no"?><svg xmlns="http://www.w3.org/2000/svg" width="40" height="130"><path stroke-width="2" fill="none" stroke="black" stroke-dasharray="none" font-family="Arial" font-size="10pt" font-weight="normal" font-style="normal" d="M-15 30L85 30"/><path stroke-width="2" fill="none" stroke="black" stroke-dasharray="none" font-family="Arial" font-size="10pt" font-weight="normal" font-style="normal" d="M-15 40L85 40"/><path stroke-width="2" fill="none" stroke="black" stroke-dasharray="none" font-family="Arial" font-size="10pt" font-weight="normal" font-style="normal" d="M-15 50L85 50"/><path stroke-width="2" fill="none" stroke="black" stroke-dasharray="none" font-family="Arial" font-size="10pt" font-weight="normal" font-style="normal" d="M-15 60L85 60"/><path stroke-width="2" fill="none" stroke="black" stroke-dasharray="none" font-family="Arial" font-size="10pt" font-weight="normal" font-style="normal" d="M-15 70L85 70"/><rect stroke-width="0.3" fill="black" stroke="black" stroke-dasharray="none" font-family="Arial" font-size="10pt" font-weight="normal" font-style="normal" x="-15" y="29.5" width="1" height="41"/><rect stroke-width="0.3" fill="black" stroke="black" stroke-dasharray="none" font-family="Arial" font-size="10pt" font-weight="normal" font-style="normal" x="85" y="29.5" width="1" height="41"/><path stroke-width="2" fill="none" stroke="black" stroke-dasharray="none" font-family="Arial" font-size="10pt" font-weight="normal" font-style="normal" x="85" y="29.5" width="1" height="41" d="M-1 20L22.381520000000002 20"/><g class="vf-stavenote" id="vf-auto1717"><g class="vf-note" pointer-events="bounding-box"><g class="vf-notehead" pointer-events="bounding-box"><path stroke-width="0.3" fill="black" stroke="none" stroke-dasharray="none" font-family="Arial" font-size="10pt" font-weight="normal" font-style="normal" x="85" y="29.5" width="1" height="41" d="M2 20M9.69392 14.83328C10.0028 14.77712,10.31168 14.77712,10.620560000000001 14.77712C15.0572 14.77712,18.76376 16.74272,19.29728 19.38224C19.32536 19.63496,19.381520000000002 19.8596,19.381520000000002 20.02808C19.381520000000002 22.92032,15.56264 25.25096,10.64864 25.25096C5.734640000000001 25.25096,2 22.86416,2 20.02808C2 19.69112,2.02808 19.35416,2.1404 18.98912C2.81432 16.7708,5.95928 15.05792,9.69392 14.83328M10.115120000000001 15.47912C9.974720000000001 15.451039999999999,9.77816 15.451039999999999,9.63776 15.451039999999999C7.868720000000001 15.451039999999999,6.80168 16.96736,6.80168 18.84872C6.80168 19.8596,7.11056 20.954720000000002,7.7564 22.04984C8.823440000000002 23.73464,10.367840000000001 24.57704,11.6876 24.57704C12.8108 24.57704,13.7936 23.98736,14.24288 22.75184C14.439440000000001 22.2464,14.52368 21.74096,14.52368 21.20744C14.52368 18.68024,12.58616 15.87224,10.115120000000001 15.47912"/></g></g><g class="vf-modifiers"/></g></svg>