<?xml version="1.0" standalone="no"?><svg xmlns="http://www.w3.org/2000/svg" width="40" height="130"><path stroke-width="2" fill="none" stroke="black" stroke-dasharray="none" font-family="Arial" font-size="10pt" font-weight="normal" font-style="normal" d="M-15 30L85 30"/><path stroke-width="2" fill="none" stroke="black" stroke-dasharray="none" font-family="Arial" font-size="10pt" font-weight="normal" font-style="normal" d="M-15 40L85 40"/><path stroke-width="2" fill="none" stroke="black" stroke-dasharray="none" font-family="Arial" font-size="10pt" font-weight="normal" font-style="normal" d="M-15 50L85 50"/><path stroke-width="2" fill="none" stroke="black" stroke-dasharray="none" font-family="Arial" font-size="10pt" font-weight="normal" font-style="normal" d="M-15 60L85 60"/><path stroke-width="2" fill="none" stroke="black" stroke-dasharray="none" font-family="Arial" font-size="10pt" font-weight="normal" font-style="normal" d="M-15 70L85 70"/><rect stroke-width="0.3" fill="black" stroke="black" stroke-dasharray="none" font-family="Arial" font-size="10pt" font-weight="normal" font-style="normal" x="-15" y="29.5" width="1" height="41"/><rect stroke-width="0.3" fill="black" stroke="black" stroke-dasharray="none" font-family="Arial" font-size="10pt" font-weight="normal" font-style="normal" x="85" y="29.5" width="1" height="41"/><g class="vf-stavenote" id="vf-auto5463"><g class="vf-note" pointer-events="bounding-box"><g class="vf-stem" pointer-events="bounding-box"><path stroke-width="1.5" fill="none" stroke="black" stroke-dasharray="none" font-family="Arial" font-size="10pt" font-weight="normal" font-style="normal" x="85" y="29.5" width="1" height="41" d="M13.26824 55L13.26824 20"/></g><g class="vf-notehead" pointer-events="bounding-box"><path stroke-width="0.3" fill="black" stroke="none" stroke-dasharray="none" font-family="Arial" font-size="10pt" font-weight="normal" font-style="normal" x="85" y="29.5" width="1" height="41" d="M2 55M9.35696 49.77712C9.469280000000001 49.77712,9.63776 49.77712,9.66584 49.77712C9.66584 49.77712,9.69392 49.77712,9.69392 49.77712C9.69392 49.77712,9.862400000000001 49.77712,10.0028 49.77712C12.530000000000001 49.917519999999996,14.01824 51.57424,14.01824 53.65216C14.01824 54.66304,13.681280000000001 55.81432,12.83888 56.909440000000004C11.23832 59.071600000000004,8.62688 60.25096,6.3524 60.25096C4.58336 60.25096,3.06704 59.54896,2.33696 58.11688C2.11232 57.55528,2 57.02176,2 56.43208C2 53.37136,5.42576 49.97368,9.35696 49.77712"/></g><g class="vf-flag" pointer-events="bounding-box"><path stroke-width="0.3" fill="black" stroke="none" stroke-dasharray="none" font-family="Arial" font-size="10pt" font-weight="normal" font-style="normal" x="85" y="29.5" width="1" height="41" d="M13.26824 18M12.59432 22.127760000000002L12.59432 18.1404L12.70664 18.1404C12.931280000000001 18.1404,13.15592 18.30888,13.240160000000001 18.53352C13.436720000000001 19.20744,14.138720000000001 20.41488,14.896880000000001 21.45384C15.87968 22.85784,17.03096 24.14952,18.77192 25.80624C20.96216 27.99648,22.169600000000003 30.916800000000002,22.169600000000003 34.0056C22.169600000000003 35.32536,21.91688 36.70128,21.523760000000003 38.02104L21.383360000000003 38.32992L21.523760000000003 38.6388C21.91688 39.9024,22.169600000000003 41.22216,22.169600000000003 42.51384C22.169600000000003 45.04104,21.35528 47.596320000000006,19.86704 49.78656C19.67048 50.0112,19.55816 50.17968,19.136960000000002 50.7132C18.996560000000002 50.90976,18.77192 51.05016,18.57536 51.05016C18.378800000000002 51.05016,18.18224 50.90976,18.06992 50.68512C18.04184 50.600880000000004,17.985680000000002 50.54472,17.985680000000002 50.40432C17.985680000000002 50.26392,18.098 50.06736,18.350720000000003 49.78656C19.95128 47.877120000000005,20.82176 45.378,20.82176 43.01928C20.82176 42.87888,20.82176 42.822720000000004,20.82176 42.738479999999996C20.82176 42.06456,20.70944 41.22216,20.6252 40.85712C20.59712 40.77288,20.540960000000002 40.63248,20.512880000000003 40.464C20.007440000000003 38.52648,18.82808 36.72936,17.2556 35.634240000000005C16.4132 35.01648,14.588000000000001 34.53912,13.0436 34.53912C12.9032 34.53912,12.734720000000001 34.53912,12.70664 34.53912L12.59432 34.53912L12.59432 30.60792L12.59432 26.64864L12.70664 26.64864C12.931280000000001 26.64864,13.15592 26.78904,13.240160000000001 27.04176C13.436720000000001 27.6876,14.138720000000001 28.89504,14.896880000000001 29.905920000000002C15.87968 31.36608,17.08712 32.68584,18.71576 34.2864C19.47392 35.01648,20.147840000000002 35.830799999999996,20.540960000000002 36.5328C20.540960000000002 36.58896,20.59712 36.61704,20.59712 36.61704C20.6252 36.61704,20.6252 36.5328,20.68136 36.42048C20.793680000000002 35.74656,20.82176 35.1288,20.82176 34.482960000000006C20.82176 33.893280000000004,20.793680000000002 33.27552,20.68136 32.62968C20.68136 32.51736,20.6252 32.40504,20.6252 32.37696C20.59712 32.29272,20.540960000000002 32.12424,20.512880000000003 31.98384C20.007440000000003 30.01824,18.82808 28.249200000000002,17.2556 27.15408C16.4132 26.50824,14.588000000000001 26.087040000000002,13.0436 26.05896C12.9032 26.05896,12.734720000000001 26.05896,12.70664 26.05896L12.59432 26.05896L12.59432 22.127760000000002"/></g></g><g class="vf-modifiers"/></g></svg>