<?xml version="1.0" standalone="no"?><svg xmlns="http://www.w3.org/2000/svg" width="40" height="130"><path stroke-width="2" fill="none" stroke="black" stroke-dasharray="none" font-family="Arial" font-size="10pt" font-weight="normal" font-style="normal" d="M-15 30L85 30"/><path stroke-width="2" fill="none" stroke="black" stroke-dasharray="none" font-family="Arial" font-size="10pt" font-weight="normal" font-style="normal" d="M-15 40L85 40"/><path stroke-width="2" fill="none" stroke="black" stroke-dasharray="none" font-family="Arial" font-size="10pt" font-weight="normal" font-style="normal" d="M-15 50L85 50"/><path stroke-width="2" fill="none" stroke="black" stroke-dasharray="none" font-family="Arial" font-size="10pt" font-weight="normal" font-style="normal" d="M-15 60L85 60"/><path stroke-width="2" fill="none" stroke="black" stroke-dasharray="none" font-family="Arial" font-size="10pt" font-weight="normal" font-style="normal" d="M-15 70L85 70"/><rect stroke-width="0.3" fill="black" stroke="black" stroke-dasharray="none" font-family="Arial" font-size="10pt" font-weight="normal" font-style="normal" x="-15" y="29.5" width="1" height="41"/><rect stroke-width="0.3" fill="black" stroke="black" stroke-dasharray="none" font-family="Arial" font-size="10pt" font-weight="normal" font-style="normal" x="85" y="29.5" width="1" height="41"/><path stroke-width="2" fill="none" stroke="black" stroke-dasharray="none" font-family="Arial" font-size="10pt" font-weight="normal" font-style="normal" x="85" y="29.5" width="1" height="41" d="M-1 80L17.01824 80"/><path stroke-width="2" fill="none" stroke="black" stroke-dasharray="none" font-family="Arial" font-size="10pt" font-weight="normal" font-style="normal" x="85" y="29.5" width="1" height="41" d="M-1 90L17.01824 90"/><g class="vf-stavenote" id="vf-auto5445"><g class="vf-note" pointer-events="bounding-box"><g class="vf-stem" pointer-events="bounding-box"><path stroke-width="1.5" fill="none" stroke="black" stroke-dasharray="none" font-family="Arial" font-size="10pt" font-weight="normal" font-style="normal" x="85" y="29.5" width="1" height="41" d="M13.26824 90L13.26824 55"/></g><g class="vf-notehead" pointer-events="bounding-box"><path stroke-width="0.3" fill="black" stroke="none" stroke-dasharray="none" font-family="Arial" font-size="10pt" font-weight="normal" font-style="normal" x="85" y="29.5" width="1" height="41" d="M2 90M9.35696 84.77712C9.469280000000001 84.77712,9.63776 84.77712,9.66584 84.77712C9.66584 84.77712,9.69392 84.77712,9.69392 84.77712C9.69392 84.77712,9.862400000000001 84.77712,10.0028 84.77712C12.530000000000001 84.91752,14.01824 86.57424,14.01824 88.65216C14.01824 89.66304,13.681280000000001 90.81432,12.83888 91.90944C11.23832 94.0716,8.62688 95.25096,6.3524 95.25096C4.58336 95.25096,3.06704 94.54896,2.33696 93.11688C2.11232 92.55528,2 92.02176,2 91.43208C2 88.37136,5.42576 84.97368,9.35696 84.77712"/></g><g class="vf-flag" pointer-events="bounding-box"><path stroke-width="0.3" fill="black" stroke="none" stroke-dasharray="none" font-family="Arial" font-size="10pt" font-weight="normal" font-style="normal" x="85" y="29.5" width="1" height="41" d="M13.26824 53M12.59432 57.12776L12.59432 53.1404L12.70664 53.1404C12.931280000000001 53.1404,13.15592 53.30888,13.240160000000001 53.53352C13.436720000000001 54.20744,14.138720000000001 55.41488,14.896880000000001 56.45384C15.87968 57.85784,17.03096 59.14952,18.77192 60.80624C20.96216 62.99648,22.169600000000003 65.9168,22.169600000000003 69.0056C22.169600000000003 70.32536,21.91688 71.70128,21.523760000000003 73.02104L21.383360000000003 73.32992L21.523760000000003 73.6388C21.91688 74.9024,22.169600000000003 76.22216,22.169600000000003 77.51384C22.169600000000003 80.04104000000001,21.35528 82.59632,19.86704 84.78656000000001C19.67048 85.0112,19.55816 85.17967999999999,19.136960000000002 85.7132C18.996560000000002 85.90976,18.77192 86.05016,18.57536 86.05016C18.378800000000002 86.05016,18.18224 85.90976,18.06992 85.68512C18.04184 85.60088,17.985680000000002 85.54472,17.985680000000002 85.40432C17.985680000000002 85.26392,18.098 85.06736000000001,18.350720000000003 84.78656000000001C19.95128 82.87712,20.82176 80.378,20.82176 78.01928000000001C20.82176 77.87888000000001,20.82176 77.82272,20.82176 77.73848C20.82176 77.06456,20.70944 76.22216,20.6252 75.85712000000001C20.59712 75.77288,20.540960000000002 75.63248,20.512880000000003 75.464C20.007440000000003 73.52647999999999,18.82808 71.72936,17.2556 70.63424C16.4132 70.01648,14.588000000000001 69.53912,13.0436 69.53912C12.9032 69.53912,12.734720000000001 69.53912,12.70664 69.53912L12.59432 69.53912L12.59432 65.60792000000001L12.59432 61.64864L12.70664 61.64864C12.931280000000001 61.64864,13.15592 61.78904,13.240160000000001 62.04176C13.436720000000001 62.6876,14.138720000000001 63.89504,14.896880000000001 64.90592C15.87968 66.36608,17.08712 67.68584,18.71576 69.2864C19.47392 70.01648,20.147840000000002 70.8308,20.540960000000002 71.53280000000001C20.540960000000002 71.58896,20.59712 71.61704,20.59712 71.61704C20.6252 71.61704,20.6252 71.53280000000001,20.68136 71.42048C20.793680000000002 70.74656,20.82176 70.1288,20.82176 69.48296C20.82176 68.89328,20.793680000000002 68.27552,20.68136 67.62968000000001C20.68136 67.51736,20.6252 67.40504,20.6252 67.37696C20.59712 67.29272,20.540960000000002 67.12424,20.512880000000003 66.98384C20.007440000000003 65.01824,18.82808 63.2492,17.2556 62.15408C16.4132 61.50824,14.588000000000001 61.08704,13.0436 61.05896C12.9032 61.05896,12.734720000000001 61.05896,12.70664 61.05896L12.59432 61.05896L12.59432 57.12776"/></g></g><g class="vf-modifiers"/></g></svg>