<?xml version="1.0" standalone="no"?><svg xmlns="http://www.w3.org/2000/svg" width="40" height="130"><path stroke-width="2" fill="none" stroke="black" stroke-dasharray="none" font-family="Arial" font-size="10pt" font-weight="normal" font-style="normal" d="M-15 30L85 30"/><path stroke-width="2" fill="none" stroke="black" stroke-dasharray="none" font-family="Arial" font-size="10pt" font-weight="normal" font-style="normal" d="M-15 40L85 40"/><path stroke-width="2" fill="none" stroke="black" stroke-dasharray="none" font-family="Arial" font-size="10pt" font-weight="normal" font-style="normal" d="M-15 50L85 50"/><path stroke-width="2" fill="none" stroke="black" stroke-dasharray="none" font-family="Arial" font-size="10pt" font-weight="normal" font-style="normal" d="M-15 60L85 60"/><path stroke-width="2" fill="none" stroke="black" stroke-dasharray="none" font-family="Arial" font-size="10pt" font-weight="normal" font-style="normal" d="M-15 70L85 70"/><rect stroke-width="0.3" fill="black" stroke="black" stroke-dasharray="none" font-family="Arial" font-size="10pt" font-weight="normal" font-style="normal" x="-15" y="29.5" width="1" height="41"/><rect stroke-width="0.3" fill="black" stroke="black" stroke-dasharray="none" font-family="Arial" font-size="10pt" font-weight="normal" font-style="normal" x="85" y="29.5" width="1" height="41"/><path stroke-width="2" fill="none" stroke="black" stroke-dasharray="none" font-family="Arial" font-size="10pt" font-weight="normal" font-style="normal" x="85" y="29.5" width="1" height="41" d="M-1 20L17.01824 20"/><g class="vf-stavenote" id="vf-auto5481"><g class="vf-note" pointer-events="bounding-box"><g class="vf-stem" pointer-events="bounding-box"><path stroke-width="1.5" fill="none" stroke="black" stroke-dasharray="none" font-family="Arial" font-size="10pt" font-weight="normal" font-style="normal" x="85" y="29.5" width="1" height="41" d="M2.75 20L2.75 55"/></g><g class="vf-notehead" pointer-events="bounding-box"><path stroke-width="0.3" fill="black" stroke="none" stroke-dasharray="none" font-family="Arial" font-size="10pt" font-weight="normal" font-style="normal" x="85" y="29.5" width="1" height="41" d="M2 20M9.35696 14.77712C9.469280000000001 14.77712,9.63776 14.77712,9.66584 14.77712C9.66584 14.77712,9.69392 14.77712,9.69392 14.77712C9.69392 14.77712,9.862400000000001 14.77712,10.0028 14.77712C12.530000000000001 14.91752,14.01824 16.57424,14.01824 18.65216C14.01824 19.66304,13.681280000000001 20.81432,12.83888 21.90944C11.23832 24.0716,8.62688 25.25096,6.3524 25.25096C4.58336 25.25096,3.06704 24.54896,2.33696 23.116880000000002C2.11232 22.55528,2 22.02176,2 21.43208C2 18.37136,5.42576 14.97368,9.35696 14.77712"/></g><g class="vf-flag" pointer-events="bounding-box"><path stroke-width="0.3" fill="black" stroke="none" stroke-dasharray="none" font-family="Arial" font-size="10pt" font-weight="normal" font-style="normal" x="85" y="29.5" width="1" height="41" d="M2.75 57M11.23016 28.049519999999998C11.28632 28.02144,11.370560000000001 28.02144,11.39864 28.02144C11.67944 28.02144,11.876 28.161839999999998,12.0164 28.47072C12.60608 29.7624,12.91496 31.1664,12.91496 32.65464C12.91496 33.86208,12.66224 35.0976,12.2972 36.27696L12.18488 36.585840000000005L12.2972 36.866640000000004C12.7184 37.98984,12.91496 39.19728,12.91496 40.40472C12.91496 43.07232,11.876 45.73992,9.966560000000001 47.93016C9.573440000000002 48.40752,9.12416 48.8568,8.47832 49.36224C6.37232 51.21552,4.60328 53.26536,3.3116 55.42752C3.08696 55.76448,2.75 56.38224,2.72192 56.49456C2.63768 56.74728,2.41304 56.88768,2.21648 56.88768L2.16032 56.88768L2.16032 53.0688L2.16032 49.24992L2.41304 49.22184C4.46288 48.91296,6.31616 48.32328,7.43936 47.64936C10.10696 46.10496,11.70752 43.21272,11.70752 40.20816C11.70752 39.5904,11.65136 38.97264,11.48288 38.354879999999994L11.4548 38.10216L11.28632 38.354879999999994C10.58432 39.5904,9.77 40.517039999999994,8.47832 41.61216C6.37232 43.43736,4.60328 45.51528,3.3116 47.64936C3.08696 48.0144,2.75 48.63216,2.72192 48.80064C2.63768 48.9972,2.41304 49.1376,2.21648 49.1376L2.16032 49.1376L2.16032 45.31872L2.16032 41.49984L2.41304 41.47176C4.46288 41.16288,6.31616 40.5732,7.43936 39.899280000000005C10.16312 38.29872,11.70752 35.3784,11.70752 32.458079999999995C11.70752 31.33488,11.48288 30.211679999999998,11.00552 29.14464C10.83704 28.807679999999998,10.83704 28.72344,10.83704 28.61112C10.83704 28.33032,11.00552 28.13376,11.23016 28.049519999999998"/></g></g><g class="vf-modifiers"/></g></svg>