<?xml version="1.0" standalone="no"?><svg xmlns="http://www.w3.org/2000/svg" width="40" height="130"><path stroke-width="2" fill="none" stroke="black" stroke-dasharray="none" font-family="Arial" font-size="10pt" font-weight="normal" font-style="normal" d="M-15 30L85 30"/><path stroke-width="2" fill="none" stroke="black" stroke-dasharray="none" font-family="Arial" font-size="10pt" font-weight="normal" font-style="normal" d="M-15 40L85 40"/><path stroke-width="2" fill="none" stroke="black" stroke-dasharray="none" font-family="Arial" font-size="10pt" font-weight="normal" font-style="normal" d="M-15 50L85 50"/><path stroke-width="2" fill="none" stroke="black" stroke-dasharray="none" font-family="Arial" font-size="10pt" font-weight="normal" font-style="normal" d="M-15 60L85 60"/><path stroke-width="2" fill="none" stroke="black" stroke-dasharray="none" font-family="Arial" font-size="10pt" font-weight="normal" font-style="normal" d="M-15 70L85 70"/><rect stroke-width="0.3" fill="black" stroke="black" stroke-dasharray="none" font-family="Arial" font-size="10pt" font-weight="normal" font-style="normal" x="-15" y="29.5" width="1" height="41"/><rect stroke-width="0.3" fill="black" stroke="black" stroke-dasharray="none" font-family="Arial" font-size="10pt" font-weight="normal" font-style="normal" x="85" y="29.5" width="1" height="41"/><path stroke-width="2" fill="none" stroke="black" stroke-dasharray="none" font-family="Arial" font-size="10pt" font-weight="normal" font-style="normal" x="85" y="29.5" width="1" height="41" d="M10.44192 80L33.823440000000005 80"/><path stroke-width="2" fill="none" stroke="black" stroke-dasharray="none" font-family="Arial" font-size="10pt" font-weight="normal" font-style="normal" x="85" y="29.5" width="1" height="41" d="M10.44192 90L33.823440000000005 90"/><g class="vf-stavenote" id="vf-auto1636"><g class="vf-note" pointer-events="bounding-box"><g class="vf-notehead" pointer-events="bounding-box"><path stroke-width="0.3" fill="black" stroke="none" stroke-dasharray="none" font-family="Arial" font-size="10pt" font-weight="normal" font-style="normal" x="85" y="29.5" width="1" height="41" d="M13.44192 90M21.13584 84.83328C21.44472 84.77712,21.7536 84.77712,22.06248 84.77712C26.499119999999998 84.77712,30.20568 86.74272,30.7392 89.38224C30.76728 89.63496,30.82344 89.8596,30.82344 90.02808C30.82344 92.92032,27.004559999999998 95.25096,22.09056 95.25096C17.17656 95.25096,13.44192 92.86416,13.44192 90.02808C13.44192 89.69112,13.469999999999999 89.35416,13.58232 88.98912C14.25624 86.7708,17.4012 85.05792,21.13584 84.83328M21.55704 85.47912C21.41664 85.45104,21.22008 85.45104,21.07968 85.45104C19.31064 85.45104,18.2436 86.96736,18.2436 88.84872C18.2436 89.8596,18.55248 90.95472,19.19832 92.04984C20.26536 93.73464,21.80976 94.57704,23.12952 94.57704C24.25272 94.57704,25.23552 93.98736,25.6848 92.75184C25.88136 92.2464,25.965600000000002 91.74096,25.965600000000002 91.20744C25.965600000000002 88.68024,24.02808 85.87224,21.55704 85.47912"/></g></g><g class="vf-modifiers"><path stroke-width="0.3" fill="black" stroke="none" stroke-dasharray="none" font-family="Arial" font-size="10pt" font-weight="normal" font-style="normal" x="85" y="29.5" width="1" height="41" d="M3.57456 90M3.35568 72.73584C3.4104 72.70848000000001,3.4651199999999998 72.70848000000001,3.5472 72.70848000000001C3.79344 72.70848000000001,4.01232 72.81792,4.0944 73.0368C4.12176 73.14624,4.12176 73.14624,4.12176 79.52112L4.12176 85.95072L4.14912 85.86864C5.1888 84.99312,6.2832 84.55536000000001,7.32288 84.55536000000001C7.73328 84.55536000000001,8.14368 84.61008,8.554079999999999 84.77424C9.78528 85.18464,10.44192 86.33376,10.44192 87.70176000000001C10.44192 88.41312,10.223040000000001 89.20656,9.81264 90C9.210719999999998 91.0944,8.44464 91.96992,6.31056 93.88512L4.20384 95.8824C3.8207999999999998 96.26544,3.73872 96.26544,3.57456 96.26544C3.32832 96.26544,3.10944 96.12864,3.02736 95.90976L3 95.80032L3 84.50064L3 73.14624L3.02736 73.0368C3.10944 72.92736,3.21888 72.7632,3.35568 72.73584M6.58416 86.41584C6.47472 86.36112,6.31056 86.36112,6.2011199999999995 86.36112C6.11904 86.36112,6.06432 86.36112,6.0096 86.36112C5.29824 86.47056,4.66896 86.90832,4.2312 87.61968L4.12176 87.8112L4.12176 91.01232L4.12176 94.26816L4.20384 94.15872C6.2011199999999995 91.96992,7.5144 89.4528,7.5144 87.78384L7.5144 87.72912C7.5144 86.90832,7.2408 86.55264,6.58416 86.41584"/></g></g></svg>