<?xml version="1.0" standalone="no"?><svg xmlns="http://www.w3.org/2000/svg" width="40" height="130"><path stroke-width="2" fill="none" stroke="black" stroke-dasharray="none" font-family="Arial" font-size="10pt" font-weight="normal" font-style="normal" d="M-15 30L85 30"/><path stroke-width="2" fill="none" stroke="black" stroke-dasharray="none" font-family="Arial" font-size="10pt" font-weight="normal" font-style="normal" d="M-15 40L85 40"/><path stroke-width="2" fill="none" stroke="black" stroke-dasharray="none" font-family="Arial" font-size="10pt" font-weight="normal" font-style="normal" d="M-15 50L85 50"/><path stroke-width="2" fill="none" stroke="black" stroke-dasharray="none" font-family="Arial" font-size="10pt" font-weight="normal" font-style="normal" d="M-15 60L85 60"/><path stroke-width="2" fill="none" stroke="black" stroke-dasharray="none" font-family="Arial" font-size="10pt" font-weight="normal" font-style="normal" d="M-15 70L85 70"/><rect stroke-width="0.3" fill="black" stroke="black" stroke-dasharray="none" font-family="Arial" font-size="10pt" font-weight="normal" font-style="normal" x="-15" y="29.5" width="1" height="41"/><rect stroke-width="0.3" fill="black" stroke="black" stroke-dasharray="none" font-family="Arial" font-size="10pt" font-weight="normal" font-style="normal" x="85" y="29.5" width="1" height="41"/><path stroke-width="2" fill="none" stroke="black" stroke-dasharray="none" font-family="Arial" font-size="10pt" font-weight="normal" font-style="normal" x="85" y="29.5" width="1" height="41" d="M10.44192 80L28.46016 80"/><path stroke-width="2" fill="none" stroke="black" stroke-dasharray="none" font-family="Arial" font-size="10pt" font-weight="normal" font-style="normal" x="85" y="29.5" width="1" height="41" d="M10.44192 90L28.46016 90"/><g class="vf-stavenote" id="vf-auto5386"><g class="vf-note" pointer-events="bounding-box"><g class="vf-stem" pointer-events="bounding-box"><path stroke-width="1.5" fill="none" stroke="black" stroke-dasharray="none" font-family="Arial" font-size="10pt" font-weight="normal" font-style="normal" x="85" y="29.5" width="1" height="41" d="M24.710160000000002 90L24.710160000000002 55"/></g><g class="vf-notehead" pointer-events="bounding-box"><path stroke-width="0.3" fill="black" stroke="none" stroke-dasharray="none" font-family="Arial" font-size="10pt" font-weight="normal" font-style="normal" x="85" y="29.5" width="1" height="41" d="M13.44192 90M20.79888 84.77712C20.9112 84.77712,21.07968 84.77712,21.10776 84.77712C21.10776 84.77712,21.13584 84.77712,21.13584 84.77712C21.13584 84.77712,21.30432 84.77712,21.44472 84.77712C23.97192 84.91752,25.460160000000002 86.57424,25.460160000000002 88.65216C25.460160000000002 89.66304,25.1232 90.81432,24.2808 91.90944C22.680239999999998 94.0716,20.0688 95.25096,17.79432 95.25096C16.02528 95.25096,14.50896 94.54896,13.77888 93.11688C13.55424 92.55528,13.44192 92.02176,13.44192 91.43208C13.44192 88.37136,16.86768 84.97368,20.79888 84.77712"/></g><g class="vf-flag" pointer-events="bounding-box"><path stroke-width="0.3" fill="black" stroke="none" stroke-dasharray="none" font-family="Arial" font-size="10pt" font-weight="normal" font-style="normal" x="85" y="29.5" width="1" height="41" d="M24.710160000000002 53M24.036240000000003 57.12776L24.036240000000003 53.1404L24.148560000000003 53.1404C24.3732 53.1404,24.59784 53.30888,24.682080000000003 53.53352C24.87864 54.20744,25.580640000000002 55.41488,26.338800000000003 56.45384C27.321600000000004 57.85784,28.472880000000004 59.14952,30.21384 60.80624C32.40408 62.99648,33.61152 65.9168,33.61152 69.0056C33.61152 70.32536,33.3588 71.70128,32.965680000000006 73.02104L32.82528000000001 73.32992L32.965680000000006 73.6388C33.3588 74.9024,33.61152 76.22216,33.61152 77.51384C33.61152 80.04104000000001,32.797200000000004 82.59632,31.308960000000003 84.78656000000001C31.1124 85.0112,31.000080000000004 85.17967999999999,30.57888 85.7132C30.438480000000002 85.90976,30.21384 86.05016,30.017280000000003 86.05016C29.82072 86.05016,29.624160000000003 85.90976,29.511840000000003 85.68512C29.483760000000004 85.60088,29.4276 85.54472,29.4276 85.40432C29.4276 85.26392,29.539920000000002 85.06736000000001,29.792640000000002 84.78656000000001C31.3932 82.87712,32.26368 80.378,32.26368 78.01928000000001C32.26368 77.87888000000001,32.26368 77.82272,32.26368 77.73848C32.26368 77.06456,32.151360000000004 76.22216,32.06712 75.85712000000001C32.03904 75.77288,31.98288 75.63248,31.954800000000002 75.464C31.449360000000002 73.52647999999999,30.270000000000003 71.72936,28.69752 70.63424C27.855120000000003 70.01648,26.02992 69.53912,24.48552 69.53912C24.34512 69.53912,24.176640000000003 69.53912,24.148560000000003 69.53912L24.036240000000003 69.53912L24.036240000000003 65.60792000000001L24.036240000000003 61.64864L24.148560000000003 61.64864C24.3732 61.64864,24.59784 61.78904,24.682080000000003 62.04176C24.87864 62.6876,25.580640000000002 63.89504,26.338800000000003 64.90592C27.321600000000004 66.36608,28.529040000000002 67.68584,30.157680000000003 69.2864C30.915840000000003 70.01648,31.589760000000002 70.8308,31.98288 71.53280000000001C31.98288 71.58896,32.03904 71.61704,32.03904 71.61704C32.06712 71.61704,32.06712 71.53280000000001,32.12328 71.42048C32.235600000000005 70.74656,32.26368 70.1288,32.26368 69.48296C32.26368 68.89328,32.235600000000005 68.27552,32.12328 67.62968000000001C32.12328 67.51736,32.06712 67.40504,32.06712 67.37696C32.03904 67.29272,31.98288 67.12424,31.954800000000002 66.98384C31.449360000000002 65.01824,30.270000000000003 63.2492,28.69752 62.15408C27.855120000000003 61.50824,26.02992 61.08704,24.48552 61.05896C24.34512 61.05896,24.176640000000003 61.05896,24.148560000000003 61.05896L24.036240000000003 61.05896L24.036240000000003 57.12776"/></g></g><g class="vf-modifiers"><path stroke-width="0.3" fill="black" stroke="none" stroke-dasharray="none" font-family="Arial" font-size="10pt" font-weight="normal" font-style="normal" x="85" y="29.5" width="1" height="41" d="M3.57456 90M3.35568 72.73584C3.4104 72.70848000000001,3.4651199999999998 72.70848000000001,3.5472 72.70848000000001C3.79344 72.70848000000001,4.01232 72.81792,4.0944 73.0368C4.12176 73.14624,4.12176 73.14624,4.12176 79.52112L4.12176 85.95072L4.14912 85.86864C5.1888 84.99312,6.2832 84.55536000000001,7.32288 84.55536000000001C7.73328 84.55536000000001,8.14368 84.61008,8.554079999999999 84.77424C9.78528 85.18464,10.44192 86.33376,10.44192 87.70176000000001C10.44192 88.41312,10.223040000000001 89.20656,9.81264 90C9.210719999999998 91.0944,8.44464 91.96992,6.31056 93.88512L4.20384 95.8824C3.8207999999999998 96.26544,3.73872 96.26544,3.57456 96.26544C3.32832 96.26544,3.10944 96.12864,3.02736 95.90976L3 95.80032L3 84.50064L3 73.14624L3.02736 73.0368C3.10944 72.92736,3.21888 72.7632,3.35568 72.73584M6.58416 86.41584C6.47472 86.36112,6.31056 86.36112,6.2011199999999995 86.36112C6.11904 86.36112,6.06432 86.36112,6.0096 86.36112C5.29824 86.47056,4.66896 86.90832,4.2312 87.61968L4.12176 87.8112L4.12176 91.01232L4.12176 94.26816L4.20384 94.15872C6.2011199999999995 91.96992,7.5144 89.4528,7.5144 87.78384L7.5144 87.72912C7.5144 86.90832,7.2408 86.55264,6.58416 86.41584"/></g></g></svg>