<?xml version="1.0" standalone="no"?><svg xmlns="http://www.w3.org/2000/svg" width="40" height="130"><path stroke-width="2" fill="none" stroke="black" stroke-dasharray="none" font-family="Arial" font-size="10pt" font-weight="normal" font-style="normal" d="M-15 30L85 30"/><path stroke-width="2" fill="none" stroke="black" stroke-dasharray="none" font-family="Arial" font-size="10pt" font-weight="normal" font-style="normal" d="M-15 40L85 40"/><path stroke-width="2" fill="none" stroke="black" stroke-dasharray="none" font-family="Arial" font-size="10pt" font-weight="normal" font-style="normal" d="M-15 50L85 50"/><path stroke-width="2" fill="none" stroke="black" stroke-dasharray="none" font-family="Arial" font-size="10pt" font-weight="normal" font-style="normal" d="M-15 60L85 60"/><path stroke-width="2" fill="none" stroke="black" stroke-dasharray="none" font-family="Arial" font-size="10pt" font-weight="normal" font-style="normal" d="M-15 70L85 70"/><rect stroke-width="0.3" fill="black" stroke="black" stroke-dasharray="none" font-family="Arial" font-size="10pt" font-weight="normal" font-style="normal" x="-15" y="29.5" width="1" height="41"/><rect stroke-width="0.3" fill="black" stroke="black" stroke-dasharray="none" font-family="Arial" font-size="10pt" font-weight="normal" font-style="normal" x="85" y="29.5" width="1" height="41"/><path stroke-width="2" fill="none" stroke="black" stroke-dasharray="none" font-family="Arial" font-size="10pt" font-weight="normal" font-style="normal" x="85" y="29.5" width="1" height="41" d="M10.44192 80L28.46016 80"/><path stroke-width="2" fill="none" stroke="black" stroke-dasharray="none" font-family="Arial" font-size="10pt" font-weight="normal" font-style="normal" x="85" y="29.5" width="1" height="41" d="M10.44192 90L28.46016 90"/><g class="vf-stavenote" id="vf-auto4770"><g class="vf-note" pointer-events="bounding-box"><g class="vf-stem" pointer-events="bounding-box"><path stroke-width="1.5" fill="none" stroke="black" stroke-dasharray="none" font-family="Arial" font-size="10pt" font-weight="normal" font-style="normal" x="85" y="29.5" width="1" height="41" d="M24.710160000000002 90L24.710160000000002 55"/></g><g class="vf-notehead" pointer-events="bounding-box"><path stroke-width="0.3" fill="black" stroke="none" stroke-dasharray="none" font-family="Arial" font-size="10pt" font-weight="normal" font-style="normal" x="85" y="29.5" width="1" height="41" d="M13.44192 90M20.79888 84.77712C20.9112 84.77712,21.07968 84.77712,21.10776 84.77712C21.10776 84.77712,21.13584 84.77712,21.13584 84.77712C21.13584 84.77712,21.30432 84.77712,21.44472 84.77712C23.97192 84.91752,25.460160000000002 86.57424,25.460160000000002 88.65216C25.460160000000002 89.66304,25.1232 90.81432,24.2808 91.90944C22.680239999999998 94.0716,20.0688 95.25096,17.79432 95.25096C16.02528 95.25096,14.50896 94.54896,13.77888 93.11688C13.55424 92.55528,13.44192 92.02176,13.44192 91.43208C13.44192 88.37136,16.86768 84.97368,20.79888 84.77712"/></g><g class="vf-flag" pointer-events="bounding-box"><path stroke-width="0.3" fill="black" stroke="none" stroke-dasharray="none" font-family="Arial" font-size="10pt" font-weight="normal" font-style="normal" x="85" y="29.5" width="1" height="41" d="M24.710160000000002 53M24.036240000000003 57.52088L24.036240000000003 53.1404L24.148560000000003 53.1404C24.457440000000002 53.1404,24.654000000000003 53.33696,24.710160000000002 53.67392C25.299840000000003 56.48192,27.06888 59.54264,29.511840000000003 61.8452C32.235600000000005 64.40048,33.61152 67.91048,33.61152 71.53280000000001C33.61152 74.95856,32.40408 78.52472,29.96112 81.47312C29.539920000000002 82.03472,29.511840000000003 82.03472,29.23104 82.03472C28.894080000000002 82.03472,28.66944 81.782,28.66944 81.44504C28.66944 81.19232,28.69752 81.13616,28.978320000000004 80.82728C31.1124 78.24392,32.17944 75.12704,32.17944 72.15056C32.17944 69.51104000000001,31.337040000000002 66.98384,29.59608 65.0744C28.529040000000002 63.89504,26.563440000000003 62.77184,24.064320000000002 61.90136C24.064320000000002 61.87328,24.036240000000003 61.0028,24.036240000000003 57.52088"/></g></g><g class="vf-modifiers"><path stroke-width="0.3" fill="black" stroke="none" stroke-dasharray="none" font-family="Arial" font-size="10pt" font-weight="normal" font-style="normal" x="85" y="29.5" width="1" height="41" d="M3.57456 90M3.35568 72.73584C3.4104 72.70848000000001,3.4651199999999998 72.70848000000001,3.5472 72.70848000000001C3.79344 72.70848000000001,4.01232 72.81792,4.0944 73.0368C4.12176 73.14624,4.12176 73.14624,4.12176 79.52112L4.12176 85.95072L4.14912 85.86864C5.1888 84.99312,6.2832 84.55536000000001,7.32288 84.55536000000001C7.73328 84.55536000000001,8.14368 84.61008,8.554079999999999 84.77424C9.78528 85.18464,10.44192 86.33376,10.44192 87.70176000000001C10.44192 88.41312,10.223040000000001 89.20656,9.81264 90C9.210719999999998 91.0944,8.44464 91.96992,6.31056 93.88512L4.20384 95.8824C3.8207999999999998 96.26544,3.73872 96.26544,3.57456 96.26544C3.32832 96.26544,3.10944 96.12864,3.02736 95.90976L3 95.80032L3 84.50064L3 73.14624L3.02736 73.0368C3.10944 72.92736,3.21888 72.7632,3.35568 72.73584M6.58416 86.41584C6.47472 86.36112,6.31056 86.36112,6.2011199999999995 86.36112C6.11904 86.36112,6.06432 86.36112,6.0096 86.36112C5.29824 86.47056,4.66896 86.90832,4.2312 87.61968L4.12176 87.8112L4.12176 91.01232L4.12176 94.26816L4.20384 94.15872C6.2011199999999995 91.96992,7.5144 89.4528,7.5144 87.78384L7.5144 87.72912C7.5144 86.90832,7.2408 86.55264,6.58416 86.41584"/><path stroke-width="0.3" fill="black" stroke="none" stroke-dasharray="none" font-family="Arial" font-size="10pt" font-weight="normal" font-style="normal" x="85" y="29.5" width="1" height="41" d="M42.03544 85 A2 2 0 0 0 38.03544 85M0 0M38.03544 85 A2 2 0 0 0 42.03544 85M0 0"/></g></g></svg>