<?xml version="1.0" standalone="no"?><svg xmlns="http://www.w3.org/2000/svg" width="40" height="130"><path stroke-width="2" fill="none" stroke="black" stroke-dasharray="none" font-family="Arial" font-size="10pt" font-weight="normal" font-style="normal" d="M-15 30L85 30"/><path stroke-width="2" fill="none" stroke="black" stroke-dasharray="none" font-family="Arial" font-size="10pt" font-weight="normal" font-style="normal" d="M-15 40L85 40"/><path stroke-width="2" fill="none" stroke="black" stroke-dasharray="none" font-family="Arial" font-size="10pt" font-weight="normal" font-style="normal" d="M-15 50L85 50"/><path stroke-width="2" fill="none" stroke="black" stroke-dasharray="none" font-family="Arial" font-size="10pt" font-weight="normal" font-style="normal" d="M-15 60L85 60"/><path stroke-width="2" fill="none" stroke="black" stroke-dasharray="none" font-family="Arial" font-size="10pt" font-weight="normal" font-style="normal" d="M-15 70L85 70"/><rect stroke-width="0.3" fill="black" stroke="black" stroke-dasharray="none" font-family="Arial" font-size="10pt" font-weight="normal" font-style="normal" x="-15" y="29.5" width="1" height="41"/><rect stroke-width="0.3" fill="black" stroke="black" stroke-dasharray="none" font-family="Arial" font-size="10pt" font-weight="normal" font-style="normal" x="85" y="29.5" width="1" height="41"/><g class="vf-stavenote" id="vf-auto1653"><g class="vf-note" pointer-events="bounding-box"><g class="vf-notehead" pointer-events="bounding-box"><path stroke-width="0.3" fill="black" stroke="none" stroke-dasharray="none" font-family="Arial" font-size="10pt" font-weight="normal" font-style="normal" x="85" y="29.5" width="1" height="41" d="M13.44192 55M21.13584 49.83328C21.44472 49.77712,21.7536 49.77712,22.06248 49.77712C26.499119999999998 49.77712,30.20568 51.74272,30.7392 54.38224C30.76728 54.63496,30.82344 54.8596,30.82344 55.02808C30.82344 57.920320000000004,27.004559999999998 60.25096,22.09056 60.25096C17.17656 60.25096,13.44192 57.86416,13.44192 55.02808C13.44192 54.69112,13.469999999999999 54.35416,13.58232 53.98912C14.25624 51.7708,17.4012 50.05792,21.13584 49.83328M21.55704 50.47912C21.41664 50.45104,21.22008 50.45104,21.07968 50.45104C19.31064 50.45104,18.2436 51.96736,18.2436 53.84872C18.2436 54.8596,18.55248 55.95472,19.19832 57.04984C20.26536 58.73464,21.80976 59.57704,23.12952 59.57704C24.25272 59.57704,25.23552 58.98736,25.6848 57.75184C25.88136 57.2464,25.965600000000002 56.74096,25.965600000000002 56.20744C25.965600000000002 53.68024,24.02808 50.87224,21.55704 50.47912"/></g></g><g class="vf-modifiers"><path stroke-width="0.3" fill="black" stroke="none" stroke-dasharray="none" font-family="Arial" font-size="10pt" font-weight="normal" font-style="normal" x="85" y="29.5" width="1" height="41" d="M3.57456 55M3.35568 37.735839999999996C3.4104 37.70848,3.4651199999999998 37.70848,3.5472 37.70848C3.79344 37.70848,4.01232 37.81792,4.0944 38.0368C4.12176 38.146240000000006,4.12176 38.146240000000006,4.12176 44.521119999999996L4.12176 50.950720000000004L4.14912 50.86864C5.1888 49.99312,6.2832 49.55536,7.32288 49.55536C7.73328 49.55536,8.14368 49.610079999999996,8.554079999999999 49.77424C9.78528 50.18464,10.44192 51.33376,10.44192 52.70176C10.44192 53.41312,10.223040000000001 54.20656,9.81264 55C9.210719999999998 56.0944,8.44464 56.96992,6.31056 58.88512L4.20384 60.8824C3.8207999999999998 61.26544,3.73872 61.26544,3.57456 61.26544C3.32832 61.26544,3.10944 61.12864,3.02736 60.90976L3 60.80032L3 49.500640000000004L3 38.146240000000006L3.02736 38.0368C3.10944 37.92736,3.21888 37.7632,3.35568 37.735839999999996M6.58416 51.41584C6.47472 51.36112,6.31056 51.36112,6.2011199999999995 51.36112C6.11904 51.36112,6.06432 51.36112,6.0096 51.36112C5.29824 51.47056,4.66896 51.90832,4.2312 52.61968L4.12176 52.8112L4.12176 56.01232L4.12176 59.26816L4.20384 59.15872C6.2011199999999995 56.96992,7.5144 54.4528,7.5144 52.78384L7.5144 52.72912C7.5144 51.90832,7.2408 51.55264,6.58416 51.41584"/></g></g></svg>