<?xml version="1.0" standalone="no"?><svg xmlns="http://www.w3.org/2000/svg" width="40" height="130"><path stroke-width="2" fill="none" stroke="black" stroke-dasharray="none" font-family="Arial" font-size="10pt" font-weight="normal" font-style="normal" d="M-15 30L85 30"/><path stroke-width="2" fill="none" stroke="black" stroke-dasharray="none" font-family="Arial" font-size="10pt" font-weight="normal" font-style="normal" d="M-15 40L85 40"/><path stroke-width="2" fill="none" stroke="black" stroke-dasharray="none" font-family="Arial" font-size="10pt" font-weight="normal" font-style="normal" d="M-15 50L85 50"/><path stroke-width="2" fill="none" stroke="black" stroke-dasharray="none" font-family="Arial" font-size="10pt" font-weight="normal" font-style="normal" d="M-15 60L85 60"/><path stroke-width="2" fill="none" stroke="black" stroke-dasharray="none" font-family="Arial" font-size="10pt" font-weight="normal" font-style="normal" d="M-15 70L85 70"/><rect stroke-width="0.3" fill="black" stroke="black" stroke-dasharray="none" font-family="Arial" font-size="10pt" font-weight="normal" font-style="normal" x="-15" y="29.5" width="1" height="41"/><rect stroke-width="0.3" fill="black" stroke="black" stroke-dasharray="none" font-family="Arial" font-size="10pt" font-weight="normal" font-style="normal" x="85" y="29.5" width="1" height="41"/><g class="vf-stavenote" id="vf-auto5918"><g class="vf-note" pointer-events="bounding-box"><g class="vf-stem" pointer-events="bounding-box"><path stroke-width="1.5" fill="none" stroke="black" stroke-dasharray="none" font-family="Arial" font-size="10pt" font-weight="normal" font-style="normal" x="85" y="29.5" width="1" height="41" d="M24.710160000000002 55L24.710160000000002 20"/></g><g class="vf-notehead" pointer-events="bounding-box"><path stroke-width="0.3" fill="black" stroke="none" stroke-dasharray="none" font-family="Arial" font-size="10pt" font-weight="normal" font-style="normal" x="85" y="29.5" width="1" height="41" d="M13.44192 55M20.79888 49.77712C20.9112 49.77712,21.07968 49.77712,21.10776 49.77712C21.10776 49.77712,21.13584 49.77712,21.13584 49.77712C21.13584 49.77712,21.30432 49.77712,21.44472 49.77712C23.97192 49.917519999999996,25.460160000000002 51.57424,25.460160000000002 53.65216C25.460160000000002 54.66304,25.1232 55.81432,24.2808 56.909440000000004C22.680239999999998 59.071600000000004,20.0688 60.25096,17.79432 60.25096C16.02528 60.25096,14.50896 59.54896,13.77888 58.11688C13.55424 57.55528,13.44192 57.02176,13.44192 56.43208C13.44192 53.37136,16.86768 49.97368,20.79888 49.77712"/></g><g class="vf-flag" pointer-events="bounding-box"><path stroke-width="0.3" fill="black" stroke="none" stroke-dasharray="none" font-family="Arial" font-size="10pt" font-weight="normal" font-style="normal" x="85" y="29.5" width="1" height="41" d="M24.710160000000002 18M24.036240000000003 22.127760000000002L24.036240000000003 18.1404L24.148560000000003 18.1404C24.3732 18.1404,24.59784 18.30888,24.682080000000003 18.53352C24.87864 19.20744,25.580640000000002 20.41488,26.338800000000003 21.45384C27.321600000000004 22.85784,28.472880000000004 24.14952,30.21384 25.80624C32.40408 27.99648,33.61152 30.916800000000002,33.61152 34.0056C33.61152 35.32536,33.3588 36.70128,32.965680000000006 38.02104L32.82528000000001 38.32992L32.965680000000006 38.6388C33.3588 39.9024,33.61152 41.22216,33.61152 42.51384C33.61152 45.04104,32.797200000000004 47.596320000000006,31.308960000000003 49.78656C31.1124 50.0112,31.000080000000004 50.17968,30.57888 50.7132C30.438480000000002 50.90976,30.21384 51.05016,30.017280000000003 51.05016C29.82072 51.05016,29.624160000000003 50.90976,29.511840000000003 50.68512C29.483760000000004 50.600880000000004,29.4276 50.54472,29.4276 50.40432C29.4276 50.26392,29.539920000000002 50.06736,29.792640000000002 49.78656C31.3932 47.877120000000005,32.26368 45.378,32.26368 43.01928C32.26368 42.87888,32.26368 42.822720000000004,32.26368 42.738479999999996C32.26368 42.06456,32.151360000000004 41.22216,32.06712 40.85712C32.03904 40.77288,31.98288 40.63248,31.954800000000002 40.464C31.449360000000002 38.52648,30.270000000000003 36.72936,28.69752 35.634240000000005C27.855120000000003 35.01648,26.02992 34.53912,24.48552 34.53912C24.34512 34.53912,24.176640000000003 34.53912,24.148560000000003 34.53912L24.036240000000003 34.53912L24.036240000000003 30.60792L24.036240000000003 26.64864L24.148560000000003 26.64864C24.3732 26.64864,24.59784 26.78904,24.682080000000003 27.04176C24.87864 27.6876,25.580640000000002 28.89504,26.338800000000003 29.905920000000002C27.321600000000004 31.36608,28.529040000000002 32.68584,30.157680000000003 34.2864C30.915840000000003 35.01648,31.589760000000002 35.830799999999996,31.98288 36.5328C31.98288 36.58896,32.03904 36.61704,32.03904 36.61704C32.06712 36.61704,32.06712 36.5328,32.12328 36.42048C32.235600000000005 35.74656,32.26368 35.1288,32.26368 34.482960000000006C32.26368 33.893280000000004,32.235600000000005 33.27552,32.12328 32.62968C32.12328 32.51736,32.06712 32.40504,32.06712 32.37696C32.03904 32.29272,31.98288 32.12424,31.954800000000002 31.98384C31.449360000000002 30.01824,30.270000000000003 28.249200000000002,28.69752 27.15408C27.855120000000003 26.50824,26.02992 26.087040000000002,24.48552 26.05896C24.34512 26.05896,24.176640000000003 26.05896,24.148560000000003 26.05896L24.036240000000003 26.05896L24.036240000000003 22.127760000000002"/></g></g><g class="vf-modifiers"><path stroke-width="0.3" fill="black" stroke="none" stroke-dasharray="none" font-family="Arial" font-size="10pt" font-weight="normal" font-style="normal" x="85" y="29.5" width="1" height="41" d="M3.57456 55M3.35568 37.735839999999996C3.4104 37.70848,3.4651199999999998 37.70848,3.5472 37.70848C3.79344 37.70848,4.01232 37.81792,4.0944 38.0368C4.12176 38.146240000000006,4.12176 38.146240000000006,4.12176 44.521119999999996L4.12176 50.950720000000004L4.14912 50.86864C5.1888 49.99312,6.2832 49.55536,7.32288 49.55536C7.73328 49.55536,8.14368 49.610079999999996,8.554079999999999 49.77424C9.78528 50.18464,10.44192 51.33376,10.44192 52.70176C10.44192 53.41312,10.223040000000001 54.20656,9.81264 55C9.210719999999998 56.0944,8.44464 56.96992,6.31056 58.88512L4.20384 60.8824C3.8207999999999998 61.26544,3.73872 61.26544,3.57456 61.26544C3.32832 61.26544,3.10944 61.12864,3.02736 60.90976L3 60.80032L3 49.500640000000004L3 38.146240000000006L3.02736 38.0368C3.10944 37.92736,3.21888 37.7632,3.35568 37.735839999999996M6.58416 51.41584C6.47472 51.36112,6.31056 51.36112,6.2011199999999995 51.36112C6.11904 51.36112,6.06432 51.36112,6.0096 51.36112C5.29824 51.47056,4.66896 51.90832,4.2312 52.61968L4.12176 52.8112L4.12176 56.01232L4.12176 59.26816L4.20384 59.15872C6.2011199999999995 56.96992,7.5144 54.4528,7.5144 52.78384L7.5144 52.72912C7.5144 51.90832,7.2408 51.55264,6.58416 51.41584"/><path stroke-width="0.3" fill="black" stroke="none" stroke-dasharray="none" font-family="Arial" font-size="10pt" font-weight="normal" font-style="normal" x="85" y="29.5" width="1" height="41" d="M42.03544 55 A2 2 0 0 0 38.03544 55M0 0M38.03544 55 A2 2 0 0 0 42.03544 55M0 0"/></g></g></svg>