<?xml version="1.0" standalone="no"?><svg xmlns="http://www.w3.org/2000/svg" width="40" height="130"><path stroke-width="2" fill="none" stroke="black" stroke-dasharray="none" font-family="Arial" font-size="10pt" font-weight="normal" font-style="normal" d="M-15 30L85 30"/><path stroke-width="2" fill="none" stroke="black" stroke-dasharray="none" font-family="Arial" font-size="10pt" font-weight="normal" font-style="normal" d="M-15 40L85 40"/><path stroke-width="2" fill="none" stroke="black" stroke-dasharray="none" font-family="Arial" font-size="10pt" font-weight="normal" font-style="normal" d="M-15 50L85 50"/><path stroke-width="2" fill="none" stroke="black" stroke-dasharray="none" font-family="Arial" font-size="10pt" font-weight="normal" font-style="normal" d="M-15 60L85 60"/><path stroke-width="2" fill="none" stroke="black" stroke-dasharray="none" font-family="Arial" font-size="10pt" font-weight="normal" font-style="normal" d="M-15 70L85 70"/><rect stroke-width="0.3" fill="black" stroke="black" stroke-dasharray="none" font-family="Arial" font-size="10pt" font-weight="normal" font-style="normal" x="-15" y="29.5" width="1" height="41"/><rect stroke-width="0.3" fill="black" stroke="black" stroke-dasharray="none" font-family="Arial" font-size="10pt" font-weight="normal" font-style="normal" x="85" y="29.5" width="1" height="41"/><path stroke-width="2" fill="none" stroke="black" stroke-dasharray="none" font-family="Arial" font-size="10pt" font-weight="normal" font-style="normal" x="85" y="29.5" width="1" height="41" d="M10.44192 20L33.823440000000005 20"/><g class="vf-stavenote" id="vf-auto1670"><g class="vf-note" pointer-events="bounding-box"><g class="vf-notehead" pointer-events="bounding-box"><path stroke-width="0.3" fill="black" stroke="none" stroke-dasharray="none" font-family="Arial" font-size="10pt" font-weight="normal" font-style="normal" x="85" y="29.5" width="1" height="41" d="M13.44192 20M21.13584 14.83328C21.44472 14.77712,21.7536 14.77712,22.06248 14.77712C26.499119999999998 14.77712,30.20568 16.74272,30.7392 19.38224C30.76728 19.63496,30.82344 19.8596,30.82344 20.02808C30.82344 22.92032,27.004559999999998 25.25096,22.09056 25.25096C17.17656 25.25096,13.44192 22.86416,13.44192 20.02808C13.44192 19.69112,13.469999999999999 19.35416,13.58232 18.98912C14.25624 16.7708,17.4012 15.05792,21.13584 14.83328M21.55704 15.47912C21.41664 15.451039999999999,21.22008 15.451039999999999,21.07968 15.451039999999999C19.31064 15.451039999999999,18.2436 16.96736,18.2436 18.84872C18.2436 19.8596,18.55248 20.954720000000002,19.19832 22.04984C20.26536 23.73464,21.80976 24.57704,23.12952 24.57704C24.25272 24.57704,25.23552 23.98736,25.6848 22.75184C25.88136 22.2464,25.965600000000002 21.74096,25.965600000000002 21.20744C25.965600000000002 18.68024,24.02808 15.87224,21.55704 15.47912"/></g></g><g class="vf-modifiers"><path stroke-width="0.3" fill="black" stroke="none" stroke-dasharray="none" font-family="Arial" font-size="10pt" font-weight="normal" font-style="normal" x="85" y="29.5" width="1" height="41" d="M3.57456 20M3.35568 2.7358399999999996C3.4104 2.7084800000000016,3.4651199999999998 2.7084800000000016,3.5472 2.7084800000000016C3.79344 2.7084800000000016,4.01232 2.817920000000001,4.0944 3.0367999999999995C4.12176 3.1462400000000024,4.12176 3.1462400000000024,4.12176 9.52112L4.12176 15.95072L4.14912 15.86864C5.1888 14.993120000000001,6.2832 14.55536,7.32288 14.55536C7.73328 14.55536,8.14368 14.61008,8.554079999999999 14.774239999999999C9.78528 15.18464,10.44192 16.33376,10.44192 17.70176C10.44192 18.41312,10.223040000000001 19.20656,9.81264 20C9.210719999999998 21.0944,8.44464 21.96992,6.31056 23.88512L4.20384 25.8824C3.8207999999999998 26.265439999999998,3.73872 26.265439999999998,3.57456 26.265439999999998C3.32832 26.265439999999998,3.10944 26.12864,3.02736 25.90976L3 25.80032L3 14.50064L3 3.1462400000000024L3.02736 3.0367999999999995C3.10944 2.92736,3.21888 2.763200000000001,3.35568 2.7358399999999996M6.58416 16.41584C6.47472 16.36112,6.31056 16.36112,6.2011199999999995 16.36112C6.11904 16.36112,6.06432 16.36112,6.0096 16.36112C5.29824 16.47056,4.66896 16.90832,4.2312 17.61968L4.12176 17.8112L4.12176 21.01232L4.12176 24.26816L4.20384 24.15872C6.2011199999999995 21.96992,7.5144 19.4528,7.5144 17.78384L7.5144 17.72912C7.5144 16.90832,7.2408 16.55264,6.58416 16.41584"/></g></g></svg>