<?xml version="1.0" standalone="no"?><svg xmlns="http://www.w3.org/2000/svg" width="40" height="130"><path stroke-width="2" fill="none" stroke="black" stroke-dasharray="none" font-family="Arial" font-size="10pt" font-weight="normal" font-style="normal" d="M-15 30L85 30"/><path stroke-width="2" fill="none" stroke="black" stroke-dasharray="none" font-family="Arial" font-size="10pt" font-weight="normal" font-style="normal" d="M-15 40L85 40"/><path stroke-width="2" fill="none" stroke="black" stroke-dasharray="none" font-family="Arial" font-size="10pt" font-weight="normal" font-style="normal" d="M-15 50L85 50"/><path stroke-width="2" fill="none" stroke="black" stroke-dasharray="none" font-family="Arial" font-size="10pt" font-weight="normal" font-style="normal" d="M-15 60L85 60"/><path stroke-width="2" fill="none" stroke="black" stroke-dasharray="none" font-family="Arial" font-size="10pt" font-weight="normal" font-style="normal" d="M-15 70L85 70"/><rect stroke-width="0.3" fill="black" stroke="black" stroke-dasharray="none" font-family="Arial" font-size="10pt" font-weight="normal" font-style="normal" x="-15" y="29.5" width="1" height="41"/><rect stroke-width="0.3" fill="black" stroke="black" stroke-dasharray="none" font-family="Arial" font-size="10pt" font-weight="normal" font-style="normal" x="85" y="29.5" width="1" height="41"/><g class="vf-stavenote" id="vf-auto2529"><g class="vf-note" pointer-events="bounding-box"><g class="vf-stem" pointer-events="bounding-box"><path stroke-width="1.5" fill="none" stroke="black" stroke-dasharray="none" font-family="Arial" font-size="10pt" font-weight="normal" font-style="normal" x="85" y="29.5" width="1" height="41" d="M24.710160000000002 55L24.710160000000002 20"/></g><g class="vf-notehead" pointer-events="bounding-box"><path stroke-width="0.3" fill="black" stroke="none" stroke-dasharray="none" font-family="Arial" font-size="10pt" font-weight="normal" font-style="normal" x="85" y="29.5" width="1" height="41" d="M13.44192 55M20.79888 49.77712C20.9112 49.77712,21.07968 49.77712,21.10776 49.77712C21.10776 49.77712,21.13584 49.77712,21.13584 49.77712C21.13584 49.77712,21.30432 49.77712,21.44472 49.77712C23.97192 49.917519999999996,25.460160000000002 51.57424,25.460160000000002 53.65216C25.460160000000002 54.66304,25.1232 55.81432,24.2808 56.909440000000004C22.680239999999998 59.071600000000004,20.0688 60.25096,17.79432 60.25096C16.02528 60.25096,14.50896 59.54896,13.77888 58.11688C13.55424 57.55528,13.44192 57.02176,13.44192 56.43208C13.44192 53.37136,16.86768 49.97368,20.79888 49.77712M23.7192 51.32152C23.60688 51.26536,23.46648 51.23728,23.326079999999997 51.23728C22.4556 51.23728,20.99544 51.7708,19.59144 52.72552C16.98 54.35416,14.84592 56.74096,14.76168 58.11688C14.76168 58.11688,14.76168 58.14496,14.76168 58.14496C14.76168 58.62232,15.07056 58.81888,15.60408 58.81888C16.75536 58.81888,18.88944 57.83608,20.85504 56.2636C22.8768 54.66304,24.168480000000002 52.86592,24.168480000000002 51.93928C24.168480000000002 51.6304,24.02808 51.37768,23.7192 51.32152"/></g></g><g class="vf-modifiers"><path stroke-width="0.3" fill="black" stroke="none" stroke-dasharray="none" font-family="Arial" font-size="10pt" font-weight="normal" font-style="normal" x="85" y="29.5" width="1" height="41" d="M3.57456 55M3.35568 37.735839999999996C3.4104 37.70848,3.4651199999999998 37.70848,3.5472 37.70848C3.79344 37.70848,4.01232 37.81792,4.0944 38.0368C4.12176 38.146240000000006,4.12176 38.146240000000006,4.12176 44.521119999999996L4.12176 50.950720000000004L4.14912 50.86864C5.1888 49.99312,6.2832 49.55536,7.32288 49.55536C7.73328 49.55536,8.14368 49.610079999999996,8.554079999999999 49.77424C9.78528 50.18464,10.44192 51.33376,10.44192 52.70176C10.44192 53.41312,10.223040000000001 54.20656,9.81264 55C9.210719999999998 56.0944,8.44464 56.96992,6.31056 58.88512L4.20384 60.8824C3.8207999999999998 61.26544,3.73872 61.26544,3.57456 61.26544C3.32832 61.26544,3.10944 61.12864,3.02736 60.90976L3 60.80032L3 49.500640000000004L3 38.146240000000006L3.02736 38.0368C3.10944 37.92736,3.21888 37.7632,3.35568 37.735839999999996M6.58416 51.41584C6.47472 51.36112,6.31056 51.36112,6.2011199999999995 51.36112C6.11904 51.36112,6.06432 51.36112,6.0096 51.36112C5.29824 51.47056,4.66896 51.90832,4.2312 52.61968L4.12176 52.8112L4.12176 56.01232L4.12176 59.26816L4.20384 59.15872C6.2011199999999995 56.96992,7.5144 54.4528,7.5144 52.78384L7.5144 52.72912C7.5144 51.90832,7.2408 51.55264,6.58416 51.41584"/></g></g></svg>