<?xml version="1.0" standalone="no"?><svg xmlns="http://www.w3.org/2000/svg" width="40" height="130"><path stroke-width="2" fill="none" stroke="black" stroke-dasharray="none" font-family="Arial" font-size="10pt" font-weight="normal" font-style="normal" d="M-15 30L85 30"/><path stroke-width="2" fill="none" stroke="black" stroke-dasharray="none" font-family="Arial" font-size="10pt" font-weight="normal" font-style="normal" d="M-15 40L85 40"/><path stroke-width="2" fill="none" stroke="black" stroke-dasharray="none" font-family="Arial" font-size="10pt" font-weight="normal" font-style="normal" d="M-15 50L85 50"/><path stroke-width="2" fill="none" stroke="black" stroke-dasharray="none" font-family="Arial" font-size="10pt" font-weight="normal" font-style="normal" d="M-15 60L85 60"/><path stroke-width="2" fill="none" stroke="black" stroke-dasharray="none" font-family="Arial" font-size="10pt" font-weight="normal" font-style="normal" d="M-15 70L85 70"/><rect stroke-width="0.3" fill="black" stroke="black" stroke-dasharray="none" font-family="Arial" font-size="10pt" font-weight="normal" font-style="normal" x="-15" y="29.5" width="1" height="41"/><rect stroke-width="0.3" fill="black" stroke="black" stroke-dasharray="none" font-family="Arial" font-size="10pt" font-weight="normal" font-style="normal" x="85" y="29.5" width="1" height="41"/><path stroke-width="2" fill="none" stroke="black" stroke-dasharray="none" font-family="Arial" font-size="10pt" font-weight="normal" font-style="normal" x="85" y="29.5" width="1" height="41" d="M10.44192 20L28.46016 20"/><g class="vf-stavenote" id="vf-auto2546"><g class="vf-note" pointer-events="bounding-box"><g class="vf-stem" pointer-events="bounding-box"><path stroke-width="1.5" fill="none" stroke="black" stroke-dasharray="none" font-family="Arial" font-size="10pt" font-weight="normal" font-style="normal" x="85" y="29.5" width="1" height="41" d="M14.19192 20L14.19192 55"/></g><g class="vf-notehead" pointer-events="bounding-box"><path stroke-width="0.3" fill="black" stroke="none" stroke-dasharray="none" font-family="Arial" font-size="10pt" font-weight="normal" font-style="normal" x="85" y="29.5" width="1" height="41" d="M13.44192 20M20.79888 14.77712C20.9112 14.77712,21.07968 14.77712,21.10776 14.77712C21.10776 14.77712,21.13584 14.77712,21.13584 14.77712C21.13584 14.77712,21.30432 14.77712,21.44472 14.77712C23.97192 14.91752,25.460160000000002 16.57424,25.460160000000002 18.65216C25.460160000000002 19.66304,25.1232 20.81432,24.2808 21.90944C22.680239999999998 24.0716,20.0688 25.25096,17.79432 25.25096C16.02528 25.25096,14.50896 24.54896,13.77888 23.116880000000002C13.55424 22.55528,13.44192 22.02176,13.44192 21.43208C13.44192 18.37136,16.86768 14.97368,20.79888 14.77712M23.7192 16.32152C23.60688 16.26536,23.46648 16.23728,23.326079999999997 16.23728C22.4556 16.23728,20.99544 16.7708,19.59144 17.72552C16.98 19.35416,14.84592 21.74096,14.76168 23.116880000000002C14.76168 23.116880000000002,14.76168 23.14496,14.76168 23.14496C14.76168 23.622320000000002,15.07056 23.81888,15.60408 23.81888C16.75536 23.81888,18.88944 22.83608,20.85504 21.2636C22.8768 19.66304,24.168480000000002 17.86592,24.168480000000002 16.93928C24.168480000000002 16.6304,24.02808 16.377679999999998,23.7192 16.32152"/></g></g><g class="vf-modifiers"><path stroke-width="0.3" fill="black" stroke="none" stroke-dasharray="none" font-family="Arial" font-size="10pt" font-weight="normal" font-style="normal" x="85" y="29.5" width="1" height="41" d="M3.57456 20M3.35568 2.7358399999999996C3.4104 2.7084800000000016,3.4651199999999998 2.7084800000000016,3.5472 2.7084800000000016C3.79344 2.7084800000000016,4.01232 2.817920000000001,4.0944 3.0367999999999995C4.12176 3.1462400000000024,4.12176 3.1462400000000024,4.12176 9.52112L4.12176 15.95072L4.14912 15.86864C5.1888 14.993120000000001,6.2832 14.55536,7.32288 14.55536C7.73328 14.55536,8.14368 14.61008,8.554079999999999 14.774239999999999C9.78528 15.18464,10.44192 16.33376,10.44192 17.70176C10.44192 18.41312,10.223040000000001 19.20656,9.81264 20C9.210719999999998 21.0944,8.44464 21.96992,6.31056 23.88512L4.20384 25.8824C3.8207999999999998 26.265439999999998,3.73872 26.265439999999998,3.57456 26.265439999999998C3.32832 26.265439999999998,3.10944 26.12864,3.02736 25.90976L3 25.80032L3 14.50064L3 3.1462400000000024L3.02736 3.0367999999999995C3.10944 2.92736,3.21888 2.763200000000001,3.35568 2.7358399999999996M6.58416 16.41584C6.47472 16.36112,6.31056 16.36112,6.2011199999999995 16.36112C6.11904 16.36112,6.06432 16.36112,6.0096 16.36112C5.29824 16.47056,4.66896 16.90832,4.2312 17.61968L4.12176 17.8112L4.12176 21.01232L4.12176 24.26816L4.20384 24.15872C6.2011199999999995 21.96992,7.5144 19.4528,7.5144 17.78384L7.5144 17.72912C7.5144 16.90832,7.2408 16.55264,6.58416 16.41584"/></g></g></svg>