<?xml version="1.0" encoding="UTF-8" standalone="no"?>
<!-- Generator: Adobe Illustrator 16.0.0, SVG Export Plug-In . SVG Version: 6.00 Build 0)  -->

<svg
   xmlns:dc="http://purl.org/dc/elements/1.1/"
   xmlns:cc="http://creativecommons.org/ns#"
   xmlns:rdf="http://www.w3.org/1999/02/22-rdf-syntax-ns#"
   xmlns:svg="http://www.w3.org/2000/svg"
   xmlns="http://www.w3.org/2000/svg"
   xmlns:sodipodi="http://sodipodi.sourceforge.net/DTD/sodipodi-0.dtd"
   xmlns:inkscape="http://www.inkscape.org/namespaces/inkscape"
   version="1.1"
   id="Capa_1"
   x="0px"
   y="0px"
   width="75.938px"
   height="75.938px"
   viewBox="0 0 75.938 75.938"
   style="enable-background:new 0 0 75.938 75.938;"
   xml:space="preserve"
   sodipodi:docname="LARS.svg"
   inkscape:version="0.92.1 r15371"><metadata
     id="metadata43"><rdf:RDF><cc:Work
         rdf:about=""><dc:format>image/svg+xml</dc:format><dc:type
           rdf:resource="http://purl.org/dc/dcmitype/StillImage" /><dc:title></dc:title></cc:Work></rdf:RDF></metadata><defs
     id="defs41" /><sodipodi:namedview
     pagecolor="#ffffff"
     bordercolor="#666666"
     borderopacity="1"
     objecttolerance="10"
     gridtolerance="10"
     guidetolerance="10"
     inkscape:pageopacity="0"
     inkscape:pageshadow="2"
     inkscape:window-width="1366"
     inkscape:window-height="705"
     id="namedview39"
     showgrid="false"
     inkscape:zoom="4.3950905"
     inkscape:cx="57.872316"
     inkscape:cy="52.258221"
     inkscape:window-x="-8"
     inkscape:window-y="-8"
     inkscape:window-maximized="1"
     inkscape:current-layer="Capa_1" /><path
     d="m 62.689709,34.172256 c 5.866461,-5.260644 9.65833,-12.273531 9.65833,-20.165801 h 3.79803 V -0.02453734 H 63.379699 V 14.296103 h 3.79649 c 0,6.137418 -2.761504,11.982578 -7.246445,16.365143 L 49.581422,20.725779 H 26.117114 L 15.767251,30.661246 C 11.282311,26.278681 8.5223473,20.725779 8.5223473,14.296103 H 12.317296 V -0.02453734 H 0.24245728 V 14.296103 H 4.0374069 c 0,7.889662 3.7949495,14.905158 9.6598721,20.165801 -2.27833,7.961066 -2.099482,5.278205 0.003,13.443867 -4.1399459,3.799354 -7.2449047,8.475482 -8.9698817,13.736126 H 0.24553759 v 14.32064 H 13.010368 v -14.32064 h -2.759963 c 1.034986,-3.79805 3.449954,-7.015497 6.209918,-9.936772 l 10.004866,9.936772 h 23.461229 l 10.000246,-9.936772 c 3.10958,2.921275 5.176471,6.138722 6.211458,9.936772 h -2.761504 v 14.32064 h 12.76637 v -14.32064 h -4.831475 c -1.379982,-5.260644 -4.48494,-9.936772 -8.969881,-13.736126 1.652684,-8.801963 1.743027,-5.465526 0.348077,-13.733515 z"
     id="path2"
     inkscape:connector-curvature="0"
     sodipodi:nodetypes="ccccccccccccccccccccccccccccccccccccc"
     style="stroke-width:1.41756129" /><g
     id="g8" /><g
     id="g10" /><g
     id="g12" /><g
     id="g14" /><g
     id="g16" /><g
     id="g18" /><g
     id="g20" /><g
     id="g22" /><g
     id="g24" /><g
     id="g26" /><g
     id="g28" /><g
     id="g30" /><g
     id="g32" /><g
     id="g34" /><g
     id="g36" /></svg>