<?xml version="1.0" standalone="no"?><svg xmlns="http://www.w3.org/2000/svg" width="40" height="130"><path stroke-width="2" fill="none" stroke="black" stroke-dasharray="none" font-family="Arial" font-size="10pt" font-weight="normal" font-style="normal" d="M-15 30L85 30"/><path stroke-width="2" fill="none" stroke="black" stroke-dasharray="none" font-family="Arial" font-size="10pt" font-weight="normal" font-style="normal" d="M-15 40L85 40"/><path stroke-width="2" fill="none" stroke="black" stroke-dasharray="none" font-family="Arial" font-size="10pt" font-weight="normal" font-style="normal" d="M-15 50L85 50"/><path stroke-width="2" fill="none" stroke="black" stroke-dasharray="none" font-family="Arial" font-size="10pt" font-weight="normal" font-style="normal" d="M-15 60L85 60"/><path stroke-width="2" fill="none" stroke="black" stroke-dasharray="none" font-family="Arial" font-size="10pt" font-weight="normal" font-style="normal" d="M-15 70L85 70"/><rect stroke-width="0.3" fill="black" stroke="black" stroke-dasharray="none" font-family="Arial" font-size="10pt" font-weight="normal" font-style="normal" x="-15" y="29.5" width="1" height="41"/><rect stroke-width="0.3" fill="black" stroke="black" stroke-dasharray="none" font-family="Arial" font-size="10pt" font-weight="normal" font-style="normal" x="85" y="29.5" width="1" height="41"/><g class="vf-stavenote" id="vf-auto1841"><g class="vf-note" pointer-events="bounding-box"><g class="vf-notehead" pointer-events="bounding-box"><path stroke-width="0.3" fill="black" stroke="none" stroke-dasharray="none" font-family="Arial" font-size="10pt" font-weight="normal" font-style="normal" x="85" y="29.5" width="1" height="41" d="M14.83728 55M22.5312 49.83328C22.84008 49.77712,23.148960000000002 49.77712,23.45784 49.77712C27.89448 49.77712,31.60104 51.74272,32.13456 54.38224C32.162639999999996 54.63496,32.2188 54.8596,32.2188 55.02808C32.2188 57.920320000000004,28.39992 60.25096,23.48592 60.25096C18.57192 60.25096,14.83728 57.86416,14.83728 55.02808C14.83728 54.69112,14.865359999999999 54.35416,14.97768 53.98912C15.6516 51.7708,18.79656 50.05792,22.5312 49.83328M22.9524 50.47912C22.812 50.45104,22.61544 50.45104,22.47504 50.45104C20.706 50.45104,19.63896 51.96736,19.63896 53.84872C19.63896 54.8596,19.94784 55.95472,20.59368 57.04984C21.66072 58.73464,23.20512 59.57704,24.52488 59.57704C25.64808 59.57704,26.630879999999998 58.98736,27.08016 57.75184C27.27672 57.2464,27.36096 56.74096,27.36096 56.20744C27.36096 53.68024,25.42344 50.87224,22.9524 50.47912"/></g></g><g class="vf-modifiers"><path stroke-width="0.3" fill="black" stroke="none" stroke-dasharray="none" font-family="Arial" font-size="10pt" font-weight="normal" font-style="normal" x="85" y="29.5" width="1" height="41" d="M3 55M8.93712 40.3624C9.0192 40.307680000000005,9.04656 40.307680000000005,9.155999999999999 40.307680000000005C9.4296 40.307680000000005,9.62112 40.41712,9.703199999999999 40.66336L9.73056 40.74544L9.757919999999999 44.3296L9.757919999999999 47.94112L10.46928 47.7496C10.87968 47.64016,11.18064 47.6128,11.37216 47.6128C11.6184 47.6128,11.72784 47.69488,11.80992 47.913759999999996C11.83728 47.99584,11.83728 48.62512,11.83728 49.30912C11.83728 49.96576,11.83728 50.64976,11.80992 50.67712C11.700479999999999 50.950720000000004,11.6184 50.97808,10.87968 51.1696C9.94944 51.41584,9.757919999999999 51.4432,9.757919999999999 51.4432C9.757919999999999 51.4432,9.757919999999999 52.154560000000004,9.757919999999999 53.2216C9.757919999999999 53.60464,9.757919999999999 54.01504,9.757919999999999 54.4528L9.757919999999999 57.40768L10.46928 57.21616C10.907039999999999 57.10672,11.18064 57.07936,11.37216 57.07936C11.50896 57.07936,11.6184 57.10672,11.700479999999999 57.21616C11.83728 57.38032,11.83728 57.35296,11.83728 58.36528L11.83728 58.77568L11.83728 59.21344C11.83728 60.22576,11.83728 60.1984,11.700479999999999 60.3352C11.59104 60.44464,11.6184 60.44464,10.359839999999998 60.745599999999996C10.08624 60.82768,9.84 60.90976,9.81264 60.90976L9.757919999999999 60.90976L9.757919999999999 64.54864L9.73056 68.21488L9.703199999999999 68.32432C9.62112 68.5432,9.402239999999999 68.65264,9.155999999999999 68.65264C8.99184 68.65264,8.7456 68.5432,8.63616 68.32432L8.608799999999999 68.21488L8.608799999999999 64.7128L8.608799999999999 61.21072L8.58144 61.21072L7.95216 61.37488L6.7756799999999995 61.67584C6.47472 61.75792,6.2011199999999995 61.81264,6.2011199999999995 61.81264C6.1464 61.81264,6.1464 62.00416,6.1464 65.5336L6.1464 69.30928L6.11904 69.39135999999999C6.0096 69.61024,5.79072 69.71968,5.5992 69.71968C5.380319999999999 69.71968,5.13408 69.61024,5.02464 69.39135999999999L4.99728 69.30928L4.99728 65.69776C4.99728 62.35984,4.99728 62.1136,4.96992 62.1136C4.96992 62.1136,4.96992 62.1136,4.96992 62.1136C4.66896 62.195679999999996,3.62928 62.46928,3.51984 62.46928C3.2736 62.46928,3.10944 62.30512,3 62.1136C3 62.00416,3 62.00416,3 60.71824L3 59.43232L3.02736 59.32288C3.1368 59.049279999999996,3.1368 59.049279999999996,4.66896 58.66624L4.99728 58.58416L4.99728 55.60192C4.99728 52.83856,4.99728 52.64704,4.96992 52.64704C4.96992 52.64704,4.96992 52.64704,4.96992 52.64704C4.66896 52.72912,3.62928 52.97536,3.51984 52.97536C3.2736 52.97536,3.10944 52.83856,3 52.64704C3 52.5376,3 52.5376,3 51.25168L3 49.96576L3.02736 49.85632C3.1368 49.58272,3.1368 49.58272,4.66896 49.19968L4.99728 49.1176L4.99728 45.47872L4.99728 41.83984L5.02464 41.7304C5.13408 41.53888,5.380319999999999 41.374719999999996,5.5992 41.374719999999996C5.68128 41.374719999999996,5.736 41.42944,5.81808 41.4568C5.9275199999999995 41.48416,6.03696 41.62096,6.11904 41.7304L6.1464 41.83984L6.1464 45.34192L6.1464 48.81664L6.31056 48.81664C6.36528 48.78928,6.85776 48.67984,7.350239999999999 48.5704L8.41728 48.24208L8.608799999999999 48.21472L8.608799999999999 44.49376L8.608799999999999 40.74544L8.63616 40.66336C8.71824 40.55392,8.80032 40.41712,8.93712 40.3624M8.608799999999999 54.75376C8.608799999999999 53.0848,8.608799999999999 51.74416,8.608799999999999 51.74416L8.608799999999999 51.74416C8.58144 51.74416,8.307839999999999 51.82624,7.97952 51.90832L6.7756799999999995 52.20928C6.47472 52.29136,6.2011199999999995 52.34608,6.2011199999999995 52.34608C6.1464 52.34608,6.1464 52.51024,6.1464 55.32832L6.1464 58.33792L6.31056 58.2832C6.36528 58.25584,6.85776 58.1464,7.350239999999999 58.03696L8.41728 57.76336L8.608799999999999 57.68128L8.608799999999999 54.75376"/><path stroke-width="0.3" fill="black" stroke="none" stroke-dasharray="none" font-family="Arial" font-size="10pt" font-weight="normal" font-style="normal" x="85" y="29.5" width="1" height="41" d="M39.2188 55 A2 2 0 0 0 35.2188 55M0 0M35.2188 55 A2 2 0 0 0 39.2188 55M0 0"/></g></g></svg>