<?xml version="1.0" standalone="no"?><svg xmlns="http://www.w3.org/2000/svg" width="40" height="130"><path stroke-width="2" fill="none" stroke="black" stroke-dasharray="none" font-family="Arial" font-size="10pt" font-weight="normal" font-style="normal" d="M-15 30L85 30"/><path stroke-width="2" fill="none" stroke="black" stroke-dasharray="none" font-family="Arial" font-size="10pt" font-weight="normal" font-style="normal" d="M-15 40L85 40"/><path stroke-width="2" fill="none" stroke="black" stroke-dasharray="none" font-family="Arial" font-size="10pt" font-weight="normal" font-style="normal" d="M-15 50L85 50"/><path stroke-width="2" fill="none" stroke="black" stroke-dasharray="none" font-family="Arial" font-size="10pt" font-weight="normal" font-style="normal" d="M-15 60L85 60"/><path stroke-width="2" fill="none" stroke="black" stroke-dasharray="none" font-family="Arial" font-size="10pt" font-weight="normal" font-style="normal" d="M-15 70L85 70"/><rect stroke-width="0.3" fill="black" stroke="black" stroke-dasharray="none" font-family="Arial" font-size="10pt" font-weight="normal" font-style="normal" x="-15" y="29.5" width="1" height="41"/><rect stroke-width="0.3" fill="black" stroke="black" stroke-dasharray="none" font-family="Arial" font-size="10pt" font-weight="normal" font-style="normal" x="85" y="29.5" width="1" height="41"/><path stroke-width="2" fill="none" stroke="black" stroke-dasharray="none" font-family="Arial" font-size="10pt" font-weight="normal" font-style="normal" x="85" y="29.5" width="1" height="41" d="M11.83728 80L35.2188 80"/><path stroke-width="2" fill="none" stroke="black" stroke-dasharray="none" font-family="Arial" font-size="10pt" font-weight="normal" font-style="normal" x="85" y="29.5" width="1" height="41" d="M11.83728 90L35.2188 90"/><g class="vf-stavenote" id="vf-auto1822"><g class="vf-note" pointer-events="bounding-box"><g class="vf-notehead" pointer-events="bounding-box"><path stroke-width="0.3" fill="black" stroke="none" stroke-dasharray="none" font-family="Arial" font-size="10pt" font-weight="normal" font-style="normal" x="85" y="29.5" width="1" height="41" d="M14.83728 90M22.5312 84.83328C22.84008 84.77712,23.148960000000002 84.77712,23.45784 84.77712C27.89448 84.77712,31.60104 86.74272,32.13456 89.38224C32.162639999999996 89.63496,32.2188 89.8596,32.2188 90.02808C32.2188 92.92032,28.39992 95.25096,23.48592 95.25096C18.57192 95.25096,14.83728 92.86416,14.83728 90.02808C14.83728 89.69112,14.865359999999999 89.35416,14.97768 88.98912C15.6516 86.7708,18.79656 85.05792,22.5312 84.83328M22.9524 85.47912C22.812 85.45104,22.61544 85.45104,22.47504 85.45104C20.706 85.45104,19.63896 86.96736,19.63896 88.84872C19.63896 89.8596,19.94784 90.95472,20.59368 92.04984C21.66072 93.73464,23.20512 94.57704,24.52488 94.57704C25.64808 94.57704,26.630879999999998 93.98736,27.08016 92.75184C27.27672 92.2464,27.36096 91.74096,27.36096 91.20744C27.36096 88.68024,25.42344 85.87224,22.9524 85.47912"/></g></g><g class="vf-modifiers"><path stroke-width="0.3" fill="black" stroke="none" stroke-dasharray="none" font-family="Arial" font-size="10pt" font-weight="normal" font-style="normal" x="85" y="29.5" width="1" height="41" d="M3 90M8.93712 75.36240000000001C9.0192 75.30768,9.04656 75.30768,9.155999999999999 75.30768C9.4296 75.30768,9.62112 75.41712,9.703199999999999 75.66336L9.73056 75.74544L9.757919999999999 79.3296L9.757919999999999 82.94112L10.46928 82.7496C10.87968 82.64016,11.18064 82.6128,11.37216 82.6128C11.6184 82.6128,11.72784 82.69488,11.80992 82.91376C11.83728 82.99584,11.83728 83.62512,11.83728 84.30912000000001C11.83728 84.96576,11.83728 85.64976,11.80992 85.67712C11.700479999999999 85.95072,11.6184 85.97808,10.87968 86.1696C9.94944 86.41584,9.757919999999999 86.4432,9.757919999999999 86.4432C9.757919999999999 86.4432,9.757919999999999 87.15456,9.757919999999999 88.2216C9.757919999999999 88.60464,9.757919999999999 89.01504,9.757919999999999 89.4528L9.757919999999999 92.40768L10.46928 92.21616C10.907039999999999 92.10672,11.18064 92.07936,11.37216 92.07936C11.50896 92.07936,11.6184 92.10672,11.700479999999999 92.21616C11.83728 92.38032,11.83728 92.35296,11.83728 93.36528L11.83728 93.77568L11.83728 94.21344C11.83728 95.22576,11.83728 95.19839999999999,11.700479999999999 95.3352C11.59104 95.44463999999999,11.6184 95.44463999999999,10.359839999999998 95.7456C10.08624 95.82768,9.84 95.90976,9.81264 95.90976L9.757919999999999 95.90976L9.757919999999999 99.54864L9.73056 103.21488L9.703199999999999 103.32432C9.62112 103.5432,9.402239999999999 103.65264,9.155999999999999 103.65264C8.99184 103.65264,8.7456 103.5432,8.63616 103.32432L8.608799999999999 103.21488L8.608799999999999 99.7128L8.608799999999999 96.21072L8.58144 96.21072L7.95216 96.37488L6.7756799999999995 96.67584C6.47472 96.75792,6.2011199999999995 96.81264,6.2011199999999995 96.81264C6.1464 96.81264,6.1464 97.00416,6.1464 100.5336L6.1464 104.30928L6.11904 104.39135999999999C6.0096 104.61024,5.79072 104.71968,5.5992 104.71968C5.380319999999999 104.71968,5.13408 104.61024,5.02464 104.39135999999999L4.99728 104.30928L4.99728 100.69776C4.99728 97.35984,4.99728 97.1136,4.96992 97.1136C4.96992 97.1136,4.96992 97.1136,4.96992 97.1136C4.66896 97.19568,3.62928 97.46928,3.51984 97.46928C3.2736 97.46928,3.10944 97.30512,3 97.1136C3 97.00416,3 97.00416,3 95.71824L3 94.43232L3.02736 94.32288C3.1368 94.04928,3.1368 94.04928,4.66896 93.66624L4.99728 93.58416L4.99728 90.60192C4.99728 87.83856,4.99728 87.64704,4.96992 87.64704C4.96992 87.64704,4.96992 87.64704,4.96992 87.64704C4.66896 87.72912,3.62928 87.97536,3.51984 87.97536C3.2736 87.97536,3.10944 87.83856,3 87.64704C3 87.5376,3 87.5376,3 86.25168L3 84.96576L3.02736 84.85632C3.1368 84.58272,3.1368 84.58272,4.66896 84.19968L4.99728 84.1176L4.99728 80.47872L4.99728 76.83984L5.02464 76.7304C5.13408 76.53888,5.380319999999999 76.37472,5.5992 76.37472C5.68128 76.37472,5.736 76.42944,5.81808 76.4568C5.9275199999999995 76.48416,6.03696 76.62096,6.11904 76.7304L6.1464 76.83984L6.1464 80.34192L6.1464 83.81664L6.31056 83.81664C6.36528 83.78928,6.85776 83.67984,7.350239999999999 83.5704L8.41728 83.24208L8.608799999999999 83.21472L8.608799999999999 79.49376L8.608799999999999 75.74544L8.63616 75.66336C8.71824 75.55392,8.80032 75.41712,8.93712 75.36240000000001M8.608799999999999 89.75376C8.608799999999999 88.0848,8.608799999999999 86.74416,8.608799999999999 86.74416L8.608799999999999 86.74416C8.58144 86.74416,8.307839999999999 86.82624,7.97952 86.90832L6.7756799999999995 87.20928C6.47472 87.29136,6.2011199999999995 87.34608,6.2011199999999995 87.34608C6.1464 87.34608,6.1464 87.51024,6.1464 90.32832L6.1464 93.33792L6.31056 93.2832C6.36528 93.25584,6.85776 93.1464,7.350239999999999 93.03696L8.41728 92.76336L8.608799999999999 92.68128L8.608799999999999 89.75376"/><path stroke-width="0.3" fill="black" stroke="none" stroke-dasharray="none" font-family="Arial" font-size="10pt" font-weight="normal" font-style="normal" x="85" y="29.5" width="1" height="41" d="M39.2188 85 A2 2 0 0 0 35.2188 85M0 0M35.2188 85 A2 2 0 0 0 39.2188 85M0 0"/></g></g></svg>