<?xml version="1.0" standalone="no"?><svg xmlns="http://www.w3.org/2000/svg" width="40" height="130"><path stroke-width="2" fill="none" stroke="black" stroke-dasharray="none" font-family="Arial" font-size="10pt" font-weight="normal" font-style="normal" d="M-15 30L85 30"/><path stroke-width="2" fill="none" stroke="black" stroke-dasharray="none" font-family="Arial" font-size="10pt" font-weight="normal" font-style="normal" d="M-15 40L85 40"/><path stroke-width="2" fill="none" stroke="black" stroke-dasharray="none" font-family="Arial" font-size="10pt" font-weight="normal" font-style="normal" d="M-15 50L85 50"/><path stroke-width="2" fill="none" stroke="black" stroke-dasharray="none" font-family="Arial" font-size="10pt" font-weight="normal" font-style="normal" d="M-15 60L85 60"/><path stroke-width="2" fill="none" stroke="black" stroke-dasharray="none" font-family="Arial" font-size="10pt" font-weight="normal" font-style="normal" d="M-15 70L85 70"/><rect stroke-width="0.3" fill="black" stroke="black" stroke-dasharray="none" font-family="Arial" font-size="10pt" font-weight="normal" font-style="normal" x="-15" y="29.5" width="1" height="41"/><rect stroke-width="0.3" fill="black" stroke="black" stroke-dasharray="none" font-family="Arial" font-size="10pt" font-weight="normal" font-style="normal" x="85" y="29.5" width="1" height="41"/><path stroke-width="2" fill="none" stroke="black" stroke-dasharray="none" font-family="Arial" font-size="10pt" font-weight="normal" font-style="normal" x="85" y="29.5" width="1" height="41" d="M11.83728 20L29.85552 20"/><g class="vf-stavenote" id="vf-auto3518"><g class="vf-note" pointer-events="bounding-box"><g class="vf-stem" pointer-events="bounding-box"><path stroke-width="1.5" fill="none" stroke="black" stroke-dasharray="none" font-family="Arial" font-size="10pt" font-weight="normal" font-style="normal" x="85" y="29.5" width="1" height="41" d="M15.58728 20L15.58728 55"/></g><g class="vf-notehead" pointer-events="bounding-box"><path stroke-width="0.3" fill="black" stroke="none" stroke-dasharray="none" font-family="Arial" font-size="10pt" font-weight="normal" font-style="normal" x="85" y="29.5" width="1" height="41" d="M14.83728 20M22.19424 14.77712C22.30656 14.77712,22.47504 14.77712,22.50312 14.77712C22.50312 14.77712,22.5312 14.77712,22.5312 14.77712C22.5312 14.77712,22.69968 14.77712,22.84008 14.77712C25.36728 14.91752,26.85552 16.57424,26.85552 18.65216C26.85552 19.66304,26.51856 20.81432,25.67616 21.90944C24.0756 24.0716,21.46416 25.25096,19.18968 25.25096C17.42064 25.25096,15.90432 24.54896,15.17424 23.116880000000002C14.9496 22.55528,14.83728 22.02176,14.83728 21.43208C14.83728 18.37136,18.26304 14.97368,22.19424 14.77712"/></g></g><g class="vf-modifiers"><path stroke-width="0.3" fill="black" stroke="none" stroke-dasharray="none" font-family="Arial" font-size="10pt" font-weight="normal" font-style="normal" x="85" y="29.5" width="1" height="41" d="M3 20M8.93712 5.362400000000001C9.0192 5.307680000000001,9.04656 5.307680000000001,9.155999999999999 5.307680000000001C9.4296 5.307680000000001,9.62112 5.417120000000001,9.703199999999999 5.663360000000001L9.73056 5.74544L9.757919999999999 9.329600000000001L9.757919999999999 12.941120000000002L10.46928 12.749600000000001C10.87968 12.640160000000002,11.18064 12.6128,11.37216 12.6128C11.6184 12.6128,11.72784 12.694880000000001,11.80992 12.91376C11.83728 12.995840000000001,11.83728 13.625119999999999,11.83728 14.30912C11.83728 14.96576,11.83728 15.64976,11.80992 15.67712C11.700479999999999 15.95072,11.6184 15.97808,10.87968 16.1696C9.94944 16.41584,9.757919999999999 16.4432,9.757919999999999 16.4432C9.757919999999999 16.4432,9.757919999999999 17.15456,9.757919999999999 18.2216C9.757919999999999 18.60464,9.757919999999999 19.01504,9.757919999999999 19.4528L9.757919999999999 22.40768L10.46928 22.21616C10.907039999999999 22.10672,11.18064 22.07936,11.37216 22.07936C11.50896 22.07936,11.6184 22.10672,11.700479999999999 22.21616C11.83728 22.38032,11.83728 22.35296,11.83728 23.36528L11.83728 23.77568L11.83728 24.21344C11.83728 25.22576,11.83728 25.1984,11.700479999999999 25.3352C11.59104 25.44464,11.6184 25.44464,10.359839999999998 25.7456C10.08624 25.82768,9.84 25.90976,9.81264 25.90976L9.757919999999999 25.90976L9.757919999999999 29.54864L9.73056 33.21488L9.703199999999999 33.32432C9.62112 33.5432,9.402239999999999 33.65264,9.155999999999999 33.65264C8.99184 33.65264,8.7456 33.5432,8.63616 33.32432L8.608799999999999 33.21488L8.608799999999999 29.7128L8.608799999999999 26.21072L8.58144 26.21072L7.95216 26.37488L6.7756799999999995 26.67584C6.47472 26.75792,6.2011199999999995 26.812640000000002,6.2011199999999995 26.812640000000002C6.1464 26.812640000000002,6.1464 27.00416,6.1464 30.5336L6.1464 34.30928L6.11904 34.39136C6.0096 34.61024,5.79072 34.71968,5.5992 34.71968C5.380319999999999 34.71968,5.13408 34.61024,5.02464 34.39136L4.99728 34.30928L4.99728 30.69776C4.99728 27.35984,4.99728 27.113599999999998,4.96992 27.113599999999998C4.96992 27.113599999999998,4.96992 27.113599999999998,4.96992 27.113599999999998C4.66896 27.19568,3.62928 27.469279999999998,3.51984 27.469279999999998C3.2736 27.469279999999998,3.10944 27.30512,3 27.113599999999998C3 27.00416,3 27.00416,3 25.71824L3 24.43232L3.02736 24.322879999999998C3.1368 24.04928,3.1368 24.04928,4.66896 23.66624L4.99728 23.58416L4.99728 20.60192C4.99728 17.83856,4.99728 17.64704,4.96992 17.64704C4.96992 17.64704,4.96992 17.64704,4.96992 17.64704C4.66896 17.72912,3.62928 17.975360000000002,3.51984 17.975360000000002C3.2736 17.975360000000002,3.10944 17.83856,3 17.64704C3 17.5376,3 17.5376,3 16.25168L3 14.96576L3.02736 14.85632C3.1368 14.58272,3.1368 14.58272,4.66896 14.19968L4.99728 14.1176L4.99728 10.478720000000001L4.99728 6.839840000000001L5.02464 6.730400000000001C5.13408 6.538880000000001,5.380319999999999 6.37472,5.5992 6.37472C5.68128 6.37472,5.736 6.429440000000001,5.81808 6.456800000000001C5.9275199999999995 6.484160000000001,6.03696 6.62096,6.11904 6.730400000000001L6.1464 6.839840000000001L6.1464 10.34192L6.1464 13.81664L6.31056 13.81664C6.36528 13.789280000000002,6.85776 13.67984,7.350239999999999 13.5704L8.41728 13.242080000000001L8.608799999999999 13.21472L8.608799999999999 9.49376L8.608799999999999 5.74544L8.63616 5.663360000000001C8.71824 5.55392,8.80032 5.417120000000001,8.93712 5.362400000000001M8.608799999999999 19.75376C8.608799999999999 18.0848,8.608799999999999 16.74416,8.608799999999999 16.74416L8.608799999999999 16.74416C8.58144 16.74416,8.307839999999999 16.82624,7.97952 16.90832L6.7756799999999995 17.20928C6.47472 17.29136,6.2011199999999995 17.34608,6.2011199999999995 17.34608C6.1464 17.34608,6.1464 17.51024,6.1464 20.32832L6.1464 23.33792L6.31056 23.2832C6.36528 23.25584,6.85776 23.1464,7.350239999999999 23.03696L8.41728 22.76336L8.608799999999999 22.68128L8.608799999999999 19.75376"/></g></g></svg>