<?xml version="1.0" encoding="UTF-8" standalone="no"?>
<!-- Created with Inkscape (http://www.inkscape.org/) -->

<svg
   xmlns:dc="http://purl.org/dc/elements/1.1/"
   xmlns:cc="http://creativecommons.org/ns#"
   xmlns:rdf="http://www.w3.org/1999/02/22-rdf-syntax-ns#"
   xmlns:svg="http://www.w3.org/2000/svg"
   xmlns="http://www.w3.org/2000/svg"
   xmlns:sodipodi="http://sodipodi.sourceforge.net/DTD/sodipodi-0.dtd"
   xmlns:inkscape="http://www.inkscape.org/namespaces/inkscape"
   width="9mm"
   height="9mm"
   viewBox="0 0 9 9"
   version="1.1"
   id="svg4534"
   inkscape:version="0.91 r13725"
   sodipodi:docname="led_pixel.svg">
  <defs
     id="defs4528" />
  <sodipodi:namedview
     id="base"
     pagecolor="#ffffff"
     bordercolor="#666666"
     borderopacity="1.0"
     inkscape:pageopacity="0.0"
     inkscape:pageshadow="2"
     inkscape:zoom="5.6"
     inkscape:cx="68.367012"
     inkscape:cy="12.947781"
     inkscape:document-units="mm"
     inkscape:current-layer="layer1"
     showgrid="false"
     inkscape:window-width="1920"
     inkscape:window-height="1057"
     inkscape:window-x="-8"
     inkscape:window-y="-8"
     inkscape:window-maximized="1" />
  <metadata
     id="metadata4531">
    <rdf:RDF>
      <cc:Work
         rdf:about="">
        <dc:format>image/svg+xml</dc:format>
        <dc:type
           rdf:resource="http://purl.org/dc/dcmitype/StillImage" />
        <dc:title></dc:title>
      </cc:Work>
    </rdf:RDF>
  </metadata>
  <g
     inkscape:label="Layer 1"
     inkscape:groupmode="layer"
     id="layer1"
     transform="translate(0,-288)">
    <path
       inkscape:connector-curvature="0"
       d="m -15.643466,291.34526 -5.556534,0 5.62e-4,0.5955 5.555972,-5.6e-4 0,1.18988 -2.778267,0 c -0.06623,0 -0.130775,0.0219 -0.182411,0.0634 l -1.953206,1.5244 -0.642088,0 5.61e-4,0.5955 0.744239,0 c 0.06623,0 0.130775,-0.0219 0.182411,-0.0634 l 1.953206,-1.5244 2.675555,5.6e-4 0,2.87705 c 0,0.21103 0.18634,0.39737 0.396815,0.39681 l 7.936862,-5.6e-4 c 0.2188937,0 0.3968151,-0.17792 0.3968151,-0.39681 l 0,-1.28979 2.3320603,5.6e-4 c 0.066791,5.6e-4 0.1313362,-0.0213 0.1829727,-0.0629 l 1.9532057,-1.5244 2.67499378,0 0,2.87705 c 0,0.21889 0.1779213,0.39681 0.396815,0.39681 l 7.93742372,0 c 0.105518,0 0.205985,-0.0421 0.280633,-0.11674 0.07465,-0.0747 0.116182,-0.17568 0.116744,-0.28063 l 0,-1.28979 2.3320607,-5.6e-4 c 0.06623,0 0.130775,-0.0219 0.182973,-0.0629 l 1.953205,-1.52439 2.675555,5.6e-4 0,2.87705 c 0,0.21103 0.186341,0.39737 0.396815,0.39681 l 7.937424,0 c 0.218894,0 0.396815,-0.17792 0.396815,-0.39681 l 0,-1.28979 2.331499,0 c 0.06679,-5.6e-4 0.131337,-0.0224 0.183534,-0.0634 l 1.953767,-1.52495 2.675555,5.6e-4 0,2.87705 c 0,0.21889 0.177922,0.39681 0.396816,0.39681 l 7.936862,5.6e-4 c 0.105518,0 0.205985,-0.0421 0.280633,-0.11674 0.07465,-0.0747 0.116182,-0.17568 0.116744,-0.28063 l 0,-1.28979 2.332621,0 c 0.06623,0 0.130775,-0.0219 0.182973,-0.0629 l 1.952644,-1.52495 1.088295,5.6e-4 5.61e-4,-0.59551 -1.191006,0 c -0.06679,5.6e-4 -0.131336,0.0224 -0.183534,0.0634 l -1.952645,1.52496 -2.229909,5.6e-4 0,-2.77827 5.555972,5.6e-4 5.61e-4,-0.5955 -5.556533,0 0,-2.67836 c 0,-0.10552 -0.0421,-0.20599 -0.116744,-0.28064 -0.07465,-0.0746 -0.175676,-0.11618 -0.280633,-0.11674 l -7.937424,0 c -0.105518,0 -0.205984,0.0421 -0.280633,0.11674 -0.07465,0.0747 -0.116182,0.17568 -0.116743,0.28064 l 0,2.67836 -7.143794,0 5.61e-4,-2.67892 c 0,-0.10552 -0.04209,-0.20599 -0.116743,-0.28064 -0.07465,-0.0747 -0.175676,-0.11618 -0.280633,-0.11674 l -7.937424,0 c -0.218894,0 -0.396815,0.17792 -0.396815,0.39681 l 0,2.67949 -7.1437947,0 0,-2.67949 c 0,-0.11 -0.0449,-0.20879 -0.116743,-0.28063 -0.07184,-0.0718 -0.171186,-0.11618 -0.280633,-0.11674 l -7.93742392,0 c -0.105518,0 -0.2059847,0.0421 -0.280633,0.11674 -0.074648,0.0746 -0.1161821,0.17568 -0.1167434,0.28063 l 5.613e-4,2.67893 -7.14379378,0 0,-2.67836 c 0,-0.10552 -0.042095,-0.20599 -0.1167433,-0.28064 -0.074648,-0.0747 -0.1756763,-0.11618 -0.280633,-0.11674 l -7.9374232,0 c -0.105518,0 -0.205985,0.0421 -0.280633,0.11674 -0.07465,0.0746 -0.116182,0.17568 -0.116743,0.28064 z m 55.562529,-2.28155 0,7.1438 -7.143233,-5.7e-4 -5.61e-4,-7.14323 z m -7.936863,2.87761 0,1.18989 -2.777706,-5.6e-4 c -0.06679,5.6e-4 -0.131336,0.0224 -0.183533,0.0634 l -1.953767,1.52496 -2.229349,0 0,-2.77715 z m -7.937424,-2.87817 0,7.14379 -7.143794,0 0,-7.14379 z m -7.937985,2.87873 0,1.18989 -2.778267,0 c -0.06623,0 -0.130775,0.0219 -0.182973,0.0629 l -1.953205,1.5244 -2.2293497,0 0,-2.77715 z m -7.9374247,-2.87817 0,7.1438 -7.1437938,0 0,-7.1438 z m -7.93798522,2.87761 0,1.18989 -2.77826678,0 c -0.066229,0 -0.1307749,0.0219 -0.1824114,0.0634 l -1.9532057,1.5244 -2.2299099,-5.6e-4 5.613e-4,-2.77771 z m -7.93686268,-2.87761 -5.612e-4,7.14323 -7.1432322,5.7e-4 0,-7.1438 z"
       id="path6" />
    <path
       inkscape:connector-curvature="0"
       d="m -9.3505522,290.74134 c 0.5057006,0.5057 0.7846499,1.17865 0.7846499,1.89483 0,0.71505 -0.2789493,1.38801 -0.7846499,1.89371 -0.5057007,0.5057 -1.1792198,0.78409 -1.8942728,0.78521 -1.430667,-5.6e-4 -2.678361,-1.24825 -2.678922,-2.67892 5.61e-4,-0.71561 0.278949,-1.38801 0.785211,-1.89427 0.506262,-0.50626 1.17922,-0.78409 1.894273,-0.78409 0.715053,-10e-4 1.3874488,0.27726 1.8937108,0.78353 z m -3.3675958,3.36759 c 0.393448,0.39345 0.916547,0.6101 1.473323,0.6101 0.556215,-5.6e-4 1.079876,-0.21665 1.4733233,-0.6101 0.3934474,-0.39345 0.6100961,-0.91655 0.6100961,-1.47332 0,-1.11355 -0.9709894,-2.08454 -2.0834194,-2.08342 -0.556776,0 -1.080437,0.21609 -1.473884,0.60953 -0.393448,0.39345 -0.610096,0.91655 -0.609535,1.47389 0,0.55677 0.216649,1.07987 0.610096,1.47332 z"
       id="path8" />
    <path
       inkscape:connector-curvature="0"
       d="m 6.4917423,290.74134 c 0.505701,0.5057 0.78465,1.17865 0.785211,1.89427 0,0.71505 -0.278949,1.38801 -0.78465,1.89371 -0.506262,0.50626 -1.179781,0.78465 -1.8948339,0.78465 -1.4295445,5.6e-4 -2.6783614,-1.24826 -2.6778001,-2.6778 -5.613e-4,-0.71561 0.2783879,-1.38857 0.7846498,-1.89483 0.5057007,-0.5057 1.1792199,-0.78409 1.8942728,-0.78409 0.7144916,-5.6e-4 1.3868884,0.27782 1.8931504,0.78409 z m -3.3675962,3.36759 c 0.3934475,0.39345 0.9165474,0.6101 1.472762,0.60954 0.5567759,0 1.0804371,-0.21609 1.4738842,-0.60954 0.393448,-0.39345 0.610097,-0.91655 0.610097,-1.47332 -5.62e-4,-1.11299 -0.9709907,-2.08342 -2.0839812,-2.08398 -0.5562146,5.6e-4 -1.0798758,0.21665 -1.4733233,0.61009 -0.3940087,0.39401 -0.6106574,0.91711 -0.6100961,1.47333 0,0.55677 0.2172099,1.08043 0.6106574,1.47388 z"
       id="path10" />
    <path
       inkscape:connector-curvature="0"
       d="m 22.366591,290.74134 c 0.506262,0.50626 0.78465,1.17978 0.78465,1.89483 0,0.71505 -0.278388,1.38745 -0.78465,1.89371 -0.506262,0.50626 -1.178659,0.78465 -1.894273,0.78521 -1.428983,0 -2.678923,-1.24769 -2.678361,-2.67948 0,-0.71505 0.278387,-1.38745 0.784649,-1.89371 0.506262,-0.50626 1.178659,-0.78465 1.893712,-0.78465 0.715614,-5.6e-4 1.388011,0.27782 1.894273,0.78409 z m -3.367596,3.36759 c 0.394008,0.39401 0.917108,0.61066 1.473323,0.6101 0.556776,0 1.079876,-0.21665 1.473323,-0.6101 0.393448,-0.39345 0.610096,-0.91655 0.610096,-1.47332 -5.61e-4,-1.11187 -0.971551,-2.08286 -2.083419,-2.08342 -0.556776,0 -1.079876,0.21665 -1.473323,0.6101 -0.393448,0.39344 -0.610097,0.91654 -0.609535,1.47276 -5.62e-4,0.55621 0.216087,1.08043 0.609535,1.47388 z"
       id="path12" />
    <path
       inkscape:connector-curvature="0"
       d="m 38.241439,290.74134 c 0.5057,0.5057 0.784649,1.17865 0.785211,1.89315 -5.62e-4,1.47669 -1.202793,2.67892 -2.678923,2.67892 -1.430667,5.6e-4 -2.678361,-1.24826 -2.679484,-2.67836 5.61e-4,-1.47669 1.202793,-2.67892 2.678923,-2.67892 0.715614,5.6e-4 1.388572,0.27951 1.894273,0.78521 z m -3.367597,3.36759 c 0.393448,0.39345 0.916548,0.6101 1.473324,0.6101 1.148911,-5.6e-4 2.083419,-0.93507 2.084542,-2.08454 -5.62e-4,-1.11187 -0.970429,-2.08286 -2.083981,-2.08286 -1.14835,0 -2.082858,0.93451 -2.083981,2.08398 0,0.55677 0.216649,1.07987 0.610096,1.47332 z"
       id="path14" />
  </g>
</svg>
