<?xml version="1.0" standalone="no"?><svg xmlns="http://www.w3.org/2000/svg" width="40" height="130"><path stroke-width="2" fill="none" stroke="black" stroke-dasharray="none" font-family="Arial" font-size="10pt" font-weight="normal" font-style="normal" d="M-15 30L85 30"/><path stroke-width="2" fill="none" stroke="black" stroke-dasharray="none" font-family="Arial" font-size="10pt" font-weight="normal" font-style="normal" d="M-15 40L85 40"/><path stroke-width="2" fill="none" stroke="black" stroke-dasharray="none" font-family="Arial" font-size="10pt" font-weight="normal" font-style="normal" d="M-15 50L85 50"/><path stroke-width="2" fill="none" stroke="black" stroke-dasharray="none" font-family="Arial" font-size="10pt" font-weight="normal" font-style="normal" d="M-15 60L85 60"/><path stroke-width="2" fill="none" stroke="black" stroke-dasharray="none" font-family="Arial" font-size="10pt" font-weight="normal" font-style="normal" d="M-15 70L85 70"/><rect stroke-width="0.3" fill="black" stroke="black" stroke-dasharray="none" font-family="Arial" font-size="10pt" font-weight="normal" font-style="normal" x="-15" y="29.5" width="1" height="41"/><rect stroke-width="0.3" fill="black" stroke="black" stroke-dasharray="none" font-family="Arial" font-size="10pt" font-weight="normal" font-style="normal" x="85" y="29.5" width="1" height="41"/><path stroke-width="2" fill="none" stroke="black" stroke-dasharray="none" font-family="Arial" font-size="10pt" font-weight="normal" font-style="normal" x="85" y="29.5" width="1" height="41" d="M-1 80L17.01824 80"/><path stroke-width="2" fill="none" stroke="black" stroke-dasharray="none" font-family="Arial" font-size="10pt" font-weight="normal" font-style="normal" x="85" y="29.5" width="1" height="41" d="M-1 90L17.01824 90"/><path stroke-width="2" fill="none" stroke="black" stroke-dasharray="none" font-family="Arial" font-size="10pt" font-weight="normal" font-style="normal" x="85" y="29.5" width="1" height="41" d="M-1 100L17.01824 100"/><g class="vf-stavenote" id="vf-auto2374"><g class="vf-note" pointer-events="bounding-box"><g class="vf-stem" pointer-events="bounding-box"><path stroke-width="1.5" fill="none" stroke="black" stroke-dasharray="none" font-family="Arial" font-size="10pt" font-weight="normal" font-style="normal" x="85" y="29.5" width="1" height="41" d="M13.26824 105L13.26824 70"/></g><g class="vf-notehead" pointer-events="bounding-box"><path stroke-width="0.3" fill="black" stroke="none" stroke-dasharray="none" font-family="Arial" font-size="10pt" font-weight="normal" font-style="normal" x="85" y="29.5" width="1" height="41" d="M2 105M9.35696 99.77712C9.469280000000001 99.77712,9.63776 99.77712,9.66584 99.77712C9.66584 99.77712,9.69392 99.77712,9.69392 99.77712C9.69392 99.77712,9.862400000000001 99.77712,10.0028 99.77712C12.530000000000001 99.91752,14.01824 101.57424,14.01824 103.65216C14.01824 104.66304,13.681280000000001 105.81432,12.83888 106.90944C11.23832 109.0716,8.62688 110.25096,6.3524 110.25096C4.58336 110.25096,3.06704 109.54896,2.33696 108.11688C2.11232 107.55528,2 107.02176,2 106.43208C2 103.37136,5.42576 99.97368,9.35696 99.77712M12.277280000000001 101.32152C12.16496 101.26536,12.024560000000001 101.23728,11.88416 101.23728C11.01368 101.23728,9.553519999999999 101.7708,8.149519999999999 102.72552C5.53808 104.35416,3.404 106.74096,3.31976 108.11688C3.31976 108.11688,3.31976 108.14496,3.31976 108.14496C3.31976 108.62232,3.62864 108.81888000000001,4.16216 108.81888000000001C5.31344 108.81888000000001,7.44752 107.83608,9.41312 106.2636C11.43488 104.66304,12.726560000000001 102.86592,12.726560000000001 101.93928C12.726560000000001 101.6304,12.58616 101.37768,12.277280000000001 101.32152"/></g></g><g class="vf-modifiers"><path stroke-width="0.3" fill="black" stroke="none" stroke-dasharray="none" font-family="Arial" font-size="10pt" font-weight="normal" font-style="normal" x="85" y="29.5" width="1" height="41" d="M21.01824 105 A2 2 0 0 0 17.01824 105M0 0M17.01824 105 A2 2 0 0 0 21.01824 105M0 0"/></g></g></svg>