<?xml version="1.0" standalone="no"?><svg xmlns="http://www.w3.org/2000/svg" width="40" height="130"><path stroke-width="2" fill="none" stroke="black" stroke-dasharray="none" font-family="Arial" font-size="10pt" font-weight="normal" font-style="normal" d="M-15 30L85 30"/><path stroke-width="2" fill="none" stroke="black" stroke-dasharray="none" font-family="Arial" font-size="10pt" font-weight="normal" font-style="normal" d="M-15 40L85 40"/><path stroke-width="2" fill="none" stroke="black" stroke-dasharray="none" font-family="Arial" font-size="10pt" font-weight="normal" font-style="normal" d="M-15 50L85 50"/><path stroke-width="2" fill="none" stroke="black" stroke-dasharray="none" font-family="Arial" font-size="10pt" font-weight="normal" font-style="normal" d="M-15 60L85 60"/><path stroke-width="2" fill="none" stroke="black" stroke-dasharray="none" font-family="Arial" font-size="10pt" font-weight="normal" font-style="normal" d="M-15 70L85 70"/><rect stroke-width="0.3" fill="black" stroke="black" stroke-dasharray="none" font-family="Arial" font-size="10pt" font-weight="normal" font-style="normal" x="-15" y="29.5" width="1" height="41"/><rect stroke-width="0.3" fill="black" stroke="black" stroke-dasharray="none" font-family="Arial" font-size="10pt" font-weight="normal" font-style="normal" x="85" y="29.5" width="1" height="41"/><g class="vf-stavenote" id="vf-auto4050"><g class="vf-note" pointer-events="bounding-box"><g class="vf-stem" pointer-events="bounding-box"><path stroke-width="1.5" fill="none" stroke="black" stroke-dasharray="none" font-family="Arial" font-size="10pt" font-weight="normal" font-style="normal" x="85" y="29.5" width="1" height="41" d="M13.26824 70L13.26824 35"/></g><g class="vf-notehead" pointer-events="bounding-box"><path stroke-width="0.3" fill="black" stroke="none" stroke-dasharray="none" font-family="Arial" font-size="10pt" font-weight="normal" font-style="normal" x="85" y="29.5" width="1" height="41" d="M2 70M9.35696 64.77712C9.469280000000001 64.77712,9.63776 64.77712,9.66584 64.77712C9.66584 64.77712,9.69392 64.77712,9.69392 64.77712C9.69392 64.77712,9.862400000000001 64.77712,10.0028 64.77712C12.530000000000001 64.91752,14.01824 66.57424,14.01824 68.65216C14.01824 69.66304,13.681280000000001 70.81432,12.83888 71.90944C11.23832 74.0716,8.62688 75.25096,6.3524 75.25096C4.58336 75.25096,3.06704 74.54896,2.33696 73.11688C2.11232 72.55528,2 72.02176,2 71.43208C2 68.37136,5.42576 64.97368,9.35696 64.77712"/></g><g class="vf-flag" pointer-events="bounding-box"><path stroke-width="0.3" fill="black" stroke="none" stroke-dasharray="none" font-family="Arial" font-size="10pt" font-weight="normal" font-style="normal" x="85" y="29.5" width="1" height="41" d="M13.26824 33M12.59432 37.52088L12.59432 33.1404L12.70664 33.1404C13.01552 33.1404,13.21208 33.33696,13.26824 33.67392C13.85792 36.48192,15.62696 39.54264,18.06992 41.8452C20.793680000000002 44.40048,22.169600000000003 47.91048,22.169600000000003 51.5328C22.169600000000003 54.958560000000006,20.96216 58.52472,18.5192 61.47312C18.098 62.03472,18.06992 62.03472,17.78912 62.03472C17.45216 62.03472,17.227520000000002 61.782,17.227520000000002 61.445040000000006C17.227520000000002 61.19232,17.2556 61.136160000000004,17.5364 60.82728C19.67048 58.24392,20.73752 55.12704,20.73752 52.15056C20.73752 49.51104,19.89512 46.98384,18.15416 45.0744C17.08712 43.89504,15.12152 42.77184,12.6224 41.90136C12.6224 41.87328,12.59432 41.0028,12.59432 37.52088"/></g></g><g class="vf-modifiers"/></g></svg>