<?xml version="1.0" standalone="no"?><svg xmlns="http://www.w3.org/2000/svg" width="40" height="130"><path stroke-width="2" fill="none" stroke="black" stroke-dasharray="none" font-family="Arial" font-size="10pt" font-weight="normal" font-style="normal" d="M-15 30L85 30"/><path stroke-width="2" fill="none" stroke="black" stroke-dasharray="none" font-family="Arial" font-size="10pt" font-weight="normal" font-style="normal" d="M-15 40L85 40"/><path stroke-width="2" fill="none" stroke="black" stroke-dasharray="none" font-family="Arial" font-size="10pt" font-weight="normal" font-style="normal" d="M-15 50L85 50"/><path stroke-width="2" fill="none" stroke="black" stroke-dasharray="none" font-family="Arial" font-size="10pt" font-weight="normal" font-style="normal" d="M-15 60L85 60"/><path stroke-width="2" fill="none" stroke="black" stroke-dasharray="none" font-family="Arial" font-size="10pt" font-weight="normal" font-style="normal" d="M-15 70L85 70"/><rect stroke-width="0.3" fill="black" stroke="black" stroke-dasharray="none" font-family="Arial" font-size="10pt" font-weight="normal" font-style="normal" x="-15" y="29.5" width="1" height="41"/><rect stroke-width="0.3" fill="black" stroke="black" stroke-dasharray="none" font-family="Arial" font-size="10pt" font-weight="normal" font-style="normal" x="85" y="29.5" width="1" height="41"/><g class="vf-stavenote" id="vf-auto4438"><g class="vf-note" pointer-events="bounding-box"><g class="vf-stem" pointer-events="bounding-box"><path stroke-width="1.5" fill="none" stroke="black" stroke-dasharray="none" font-family="Arial" font-size="10pt" font-weight="normal" font-style="normal" x="85" y="29.5" width="1" height="41" d="M2.75 35L2.75 70"/></g><g class="vf-notehead" pointer-events="bounding-box"><path stroke-width="0.3" fill="black" stroke="none" stroke-dasharray="none" font-family="Arial" font-size="10pt" font-weight="normal" font-style="normal" x="85" y="29.5" width="1" height="41" d="M2 35M9.35696 29.77712C9.469280000000001 29.77712,9.63776 29.77712,9.66584 29.77712C9.66584 29.77712,9.69392 29.77712,9.69392 29.77712C9.69392 29.77712,9.862400000000001 29.77712,10.0028 29.77712C12.530000000000001 29.91752,14.01824 31.57424,14.01824 33.65216C14.01824 34.66304,13.681280000000001 35.81432,12.83888 36.909440000000004C11.23832 39.071600000000004,8.62688 40.25096,6.3524 40.25096C4.58336 40.25096,3.06704 39.54896,2.33696 38.11688C2.11232 37.55528,2 37.02176,2 36.43208C2 33.37136,5.42576 29.97368,9.35696 29.77712"/></g><g class="vf-flag" pointer-events="bounding-box"><path stroke-width="0.3" fill="black" stroke="none" stroke-dasharray="none" font-family="Arial" font-size="10pt" font-weight="normal" font-style="normal" x="85" y="29.5" width="1" height="41" d="M2.75 72M9.208400000000001 43.04952C9.26456 43.02144,9.3488 43.02144,9.43304 43.02144C9.6296 43.02144,9.79808 43.16184,10.02272 43.52688C12.0164 46.55952,13.05536 50.041439999999994,13.05536 53.41104C13.05536 54.00072,13.05536 54.56232,12.97112 55.095839999999995C12.63416 58.29696,11.28632 61.21728,9.26456 63.09864C7.1024 65.1204,5.64224 66.74904,4.35056 68.6304C3.62048 69.64128,2.91848 70.8768,2.72192 71.49456C2.63768 71.69112,2.41304 71.88768,2.21648 71.88768L2.16032 71.88768L2.16032 67.53528L2.16032 63.1548L2.30072 63.1548C3.0308 63.1548,4.49096 62.90208,5.44568 62.593199999999996C9.12416 61.3296,11.5952 57.20184,11.5952 52.4844C11.5952 52.09128,11.567120000000001 51.67008,11.53904 51.27696C11.28632 48.834,10.41584 46.27872,9.03992 44.17272C8.899519999999999 43.948080000000004,8.815280000000001 43.72344,8.815280000000001 43.554959999999994C8.815280000000001 43.33032,8.9276 43.133759999999995,9.208400000000001 43.04952"/></g></g><g class="vf-modifiers"><path stroke-width="0.3" fill="black" stroke="none" stroke-dasharray="none" font-family="Arial" font-size="10pt" font-weight="normal" font-style="normal" x="85" y="29.5" width="1" height="41" d="M21.01824 35 A2 2 0 0 0 17.01824 35M0 0M17.01824 35 A2 2 0 0 0 21.01824 35M0 0"/></g></g></svg>