<?xml version="1.0" standalone="no"?><svg xmlns="http://www.w3.org/2000/svg" width="40" height="130"><path stroke-width="2" fill="none" stroke="black" stroke-dasharray="none" font-family="Arial" font-size="10pt" font-weight="normal" font-style="normal" d="M-15 30L85 30"/><path stroke-width="2" fill="none" stroke="black" stroke-dasharray="none" font-family="Arial" font-size="10pt" font-weight="normal" font-style="normal" d="M-15 40L85 40"/><path stroke-width="2" fill="none" stroke="black" stroke-dasharray="none" font-family="Arial" font-size="10pt" font-weight="normal" font-style="normal" d="M-15 50L85 50"/><path stroke-width="2" fill="none" stroke="black" stroke-dasharray="none" font-family="Arial" font-size="10pt" font-weight="normal" font-style="normal" d="M-15 60L85 60"/><path stroke-width="2" fill="none" stroke="black" stroke-dasharray="none" font-family="Arial" font-size="10pt" font-weight="normal" font-style="normal" d="M-15 70L85 70"/><rect stroke-width="0.3" fill="black" stroke="black" stroke-dasharray="none" font-family="Arial" font-size="10pt" font-weight="normal" font-style="normal" x="-15" y="29.5" width="1" height="41"/><rect stroke-width="0.3" fill="black" stroke="black" stroke-dasharray="none" font-family="Arial" font-size="10pt" font-weight="normal" font-style="normal" x="85" y="29.5" width="1" height="41"/><g class="vf-stavenote" id="vf-auto1424"><g class="vf-note" pointer-events="bounding-box"><g class="vf-notehead" pointer-events="bounding-box"><path stroke-width="0.3" fill="black" stroke="none" stroke-dasharray="none" font-family="Arial" font-size="10pt" font-weight="normal" font-style="normal" x="85" y="29.5" width="1" height="41" d="M2 35M9.69392 29.833280000000002C10.0028 29.77712,10.31168 29.77712,10.620560000000001 29.77712C15.0572 29.77712,18.76376 31.74272,19.29728 34.38224C19.32536 34.63496,19.381520000000002 34.8596,19.381520000000002 35.02808C19.381520000000002 37.920320000000004,15.56264 40.25096,10.64864 40.25096C5.734640000000001 40.25096,2 37.86416,2 35.02808C2 34.69112,2.02808 34.35416,2.1404 33.98912C2.81432 31.7708,5.95928 30.05792,9.69392 29.833280000000002M10.115120000000001 30.47912C9.974720000000001 30.45104,9.77816 30.45104,9.63776 30.45104C7.868720000000001 30.45104,6.80168 31.96736,6.80168 33.84872C6.80168 34.8596,7.11056 35.95472,7.7564 37.04984C8.823440000000002 38.73464,10.367840000000001 39.57704,11.6876 39.57704C12.8108 39.57704,13.7936 38.98736,14.24288 37.75184C14.439440000000001 37.2464,14.52368 36.74096,14.52368 36.20744C14.52368 33.68024,12.58616 30.872239999999998,10.115120000000001 30.47912"/></g></g><g class="vf-modifiers"><path stroke-width="0.3" fill="black" stroke="none" stroke-dasharray="none" font-family="Arial" font-size="10pt" font-weight="normal" font-style="normal" x="85" y="29.5" width="1" height="41" d="M26.381520000000002 35 A2 2 0 0 0 22.381520000000002 35M0 0M22.381520000000002 35 A2 2 0 0 0 26.381520000000002 35M0 0"/></g></g></svg>