<?xml version="1.0" standalone="no"?><svg xmlns="http://www.w3.org/2000/svg" width="40" height="130"><path stroke-width="2" fill="none" stroke="black" stroke-dasharray="none" font-family="Arial" font-size="10pt" font-weight="normal" font-style="normal" d="M-15 30L85 30"/><path stroke-width="2" fill="none" stroke="black" stroke-dasharray="none" font-family="Arial" font-size="10pt" font-weight="normal" font-style="normal" d="M-15 40L85 40"/><path stroke-width="2" fill="none" stroke="black" stroke-dasharray="none" font-family="Arial" font-size="10pt" font-weight="normal" font-style="normal" d="M-15 50L85 50"/><path stroke-width="2" fill="none" stroke="black" stroke-dasharray="none" font-family="Arial" font-size="10pt" font-weight="normal" font-style="normal" d="M-15 60L85 60"/><path stroke-width="2" fill="none" stroke="black" stroke-dasharray="none" font-family="Arial" font-size="10pt" font-weight="normal" font-style="normal" d="M-15 70L85 70"/><rect stroke-width="0.3" fill="black" stroke="black" stroke-dasharray="none" font-family="Arial" font-size="10pt" font-weight="normal" font-style="normal" x="-15" y="29.5" width="1" height="41"/><rect stroke-width="0.3" fill="black" stroke="black" stroke-dasharray="none" font-family="Arial" font-size="10pt" font-weight="normal" font-style="normal" x="85" y="29.5" width="1" height="41"/><g class="vf-stavenote" id="vf-auto1363"><g class="vf-note" pointer-events="bounding-box"><g class="vf-notehead" pointer-events="bounding-box"><path stroke-width="0.3" fill="black" stroke="none" stroke-dasharray="none" font-family="Arial" font-size="10pt" font-weight="normal" font-style="normal" x="85" y="29.5" width="1" height="41" d="M2 70M9.69392 64.83328C10.0028 64.77712,10.31168 64.77712,10.620560000000001 64.77712C15.0572 64.77712,18.76376 66.74272,19.29728 69.38224C19.32536 69.63496,19.381520000000002 69.8596,19.381520000000002 70.02808C19.381520000000002 72.92032,15.56264 75.25096,10.64864 75.25096C5.734640000000001 75.25096,2 72.86416,2 70.02808C2 69.69112,2.02808 69.35416,2.1404 68.98912C2.81432 66.7708,5.95928 65.05792,9.69392 64.83328M10.115120000000001 65.47912C9.974720000000001 65.45104,9.77816 65.45104,9.63776 65.45104C7.868720000000001 65.45104,6.80168 66.96736,6.80168 68.84872C6.80168 69.8596,7.11056 70.95472,7.7564 72.04984C8.823440000000002 73.73464,10.367840000000001 74.57704,11.6876 74.57704C12.8108 74.57704,13.7936 73.98736,14.24288 72.75184C14.439440000000001 72.2464,14.52368 71.74096,14.52368 71.20744C14.52368 68.68024,12.58616 65.87224,10.115120000000001 65.47912"/></g></g><g class="vf-modifiers"/></g></svg>