<?xml version="1.0" standalone="no"?><svg xmlns="http://www.w3.org/2000/svg" width="40" height="130"><path stroke-width="2" fill="none" stroke="black" stroke-dasharray="none" font-family="Arial" font-size="10pt" font-weight="normal" font-style="normal" d="M-15 30L85 30"/><path stroke-width="2" fill="none" stroke="black" stroke-dasharray="none" font-family="Arial" font-size="10pt" font-weight="normal" font-style="normal" d="M-15 40L85 40"/><path stroke-width="2" fill="none" stroke="black" stroke-dasharray="none" font-family="Arial" font-size="10pt" font-weight="normal" font-style="normal" d="M-15 50L85 50"/><path stroke-width="2" fill="none" stroke="black" stroke-dasharray="none" font-family="Arial" font-size="10pt" font-weight="normal" font-style="normal" d="M-15 60L85 60"/><path stroke-width="2" fill="none" stroke="black" stroke-dasharray="none" font-family="Arial" font-size="10pt" font-weight="normal" font-style="normal" d="M-15 70L85 70"/><rect stroke-width="0.3" fill="black" stroke="black" stroke-dasharray="none" font-family="Arial" font-size="10pt" font-weight="normal" font-style="normal" x="-15" y="29.5" width="1" height="41"/><rect stroke-width="0.3" fill="black" stroke="black" stroke-dasharray="none" font-family="Arial" font-size="10pt" font-weight="normal" font-style="normal" x="85" y="29.5" width="1" height="41"/><path stroke-width="2" fill="none" stroke="black" stroke-dasharray="none" font-family="Arial" font-size="10pt" font-weight="normal" font-style="normal" x="85" y="29.5" width="1" height="41" d="M-1 80L22.381520000000002 80"/><path stroke-width="2" fill="none" stroke="black" stroke-dasharray="none" font-family="Arial" font-size="10pt" font-weight="normal" font-style="normal" x="85" y="29.5" width="1" height="41" d="M-1 90L22.381520000000002 90"/><path stroke-width="2" fill="none" stroke="black" stroke-dasharray="none" font-family="Arial" font-size="10pt" font-weight="normal" font-style="normal" x="85" y="29.5" width="1" height="41" d="M-1 100L22.381520000000002 100"/><g class="vf-stavenote" id="vf-auto1390"><g class="vf-note" pointer-events="bounding-box"><g class="vf-notehead" pointer-events="bounding-box"><path stroke-width="0.3" fill="black" stroke="none" stroke-dasharray="none" font-family="Arial" font-size="10pt" font-weight="normal" font-style="normal" x="85" y="29.5" width="1" height="41" d="M2 105M9.69392 99.83328C10.0028 99.77712,10.31168 99.77712,10.620560000000001 99.77712C15.0572 99.77712,18.76376 101.74272,19.29728 104.38224C19.32536 104.63496,19.381520000000002 104.8596,19.381520000000002 105.02808C19.381520000000002 107.92032,15.56264 110.25096,10.64864 110.25096C5.734640000000001 110.25096,2 107.86416,2 105.02808C2 104.69112,2.02808 104.35416,2.1404 103.98912C2.81432 101.7708,5.95928 100.05792,9.69392 99.83328M10.115120000000001 100.47912C9.974720000000001 100.45104,9.77816 100.45104,9.63776 100.45104C7.868720000000001 100.45104,6.80168 101.96736,6.80168 103.84872C6.80168 104.8596,7.11056 105.95472,7.7564 107.04984C8.823440000000002 108.73464,10.367840000000001 109.57704,11.6876 109.57704C12.8108 109.57704,13.7936 108.98736,14.24288 107.75184C14.439440000000001 107.2464,14.52368 106.74096,14.52368 106.20744C14.52368 103.68024,12.58616 100.87224,10.115120000000001 100.47912"/></g></g><g class="vf-modifiers"><path stroke-width="0.3" fill="black" stroke="none" stroke-dasharray="none" font-family="Arial" font-size="10pt" font-weight="normal" font-style="normal" x="85" y="29.5" width="1" height="41" d="M26.381520000000002 105 A2 2 0 0 0 22.381520000000002 105M0 0M22.381520000000002 105 A2 2 0 0 0 26.381520000000002 105M0 0"/></g></g></svg>