<?xml version="1.0" standalone="no"?><svg xmlns="http://www.w3.org/2000/svg" width="40" height="130"><path stroke-width="2" fill="none" stroke="black" stroke-dasharray="none" font-family="Arial" font-size="10pt" font-weight="normal" font-style="normal" d="M-15 30L85 30"/><path stroke-width="2" fill="none" stroke="black" stroke-dasharray="none" font-family="Arial" font-size="10pt" font-weight="normal" font-style="normal" d="M-15 40L85 40"/><path stroke-width="2" fill="none" stroke="black" stroke-dasharray="none" font-family="Arial" font-size="10pt" font-weight="normal" font-style="normal" d="M-15 50L85 50"/><path stroke-width="2" fill="none" stroke="black" stroke-dasharray="none" font-family="Arial" font-size="10pt" font-weight="normal" font-style="normal" d="M-15 60L85 60"/><path stroke-width="2" fill="none" stroke="black" stroke-dasharray="none" font-family="Arial" font-size="10pt" font-weight="normal" font-style="normal" d="M-15 70L85 70"/><rect stroke-width="0.3" fill="black" stroke="black" stroke-dasharray="none" font-family="Arial" font-size="10pt" font-weight="normal" font-style="normal" x="-15" y="29.5" width="1" height="41"/><rect stroke-width="0.3" fill="black" stroke="black" stroke-dasharray="none" font-family="Arial" font-size="10pt" font-weight="normal" font-style="normal" x="85" y="29.5" width="1" height="41"/><g class="vf-stavenote" id="vf-auto5068"><g class="vf-note" pointer-events="bounding-box"><g class="vf-stem" pointer-events="bounding-box"><path stroke-width="1.5" fill="none" stroke="black" stroke-dasharray="none" font-family="Arial" font-size="10pt" font-weight="normal" font-style="normal" x="85" y="29.5" width="1" height="41" d="M13.26824 70L13.26824 35"/></g><g class="vf-notehead" pointer-events="bounding-box"><path stroke-width="0.3" fill="black" stroke="none" stroke-dasharray="none" font-family="Arial" font-size="10pt" font-weight="normal" font-style="normal" x="85" y="29.5" width="1" height="41" d="M2 70M9.35696 64.77712C9.469280000000001 64.77712,9.63776 64.77712,9.66584 64.77712C9.66584 64.77712,9.69392 64.77712,9.69392 64.77712C9.69392 64.77712,9.862400000000001 64.77712,10.0028 64.77712C12.530000000000001 64.91752,14.01824 66.57424,14.01824 68.65216C14.01824 69.66304,13.681280000000001 70.81432,12.83888 71.90944C11.23832 74.0716,8.62688 75.25096,6.3524 75.25096C4.58336 75.25096,3.06704 74.54896,2.33696 73.11688C2.11232 72.55528,2 72.02176,2 71.43208C2 68.37136,5.42576 64.97368,9.35696 64.77712"/></g><g class="vf-flag" pointer-events="bounding-box"><path stroke-width="0.3" fill="black" stroke="none" stroke-dasharray="none" font-family="Arial" font-size="10pt" font-weight="normal" font-style="normal" x="85" y="29.5" width="1" height="41" d="M13.26824 33M12.59432 37.12776L12.59432 33.1404L12.70664 33.1404C12.931280000000001 33.1404,13.15592 33.30888,13.240160000000001 33.53352C13.436720000000001 34.20744,14.138720000000001 35.41488,14.896880000000001 36.45384C15.87968 37.85784,17.03096 39.14952,18.77192 40.80624C20.96216 42.99648,22.169600000000003 45.9168,22.169600000000003 49.0056C22.169600000000003 50.32536,21.91688 51.70128,21.523760000000003 53.02104L21.383360000000003 53.32992L21.523760000000003 53.6388C21.91688 54.9024,22.169600000000003 56.22216,22.169600000000003 57.51384C22.169600000000003 60.04104,21.35528 62.596320000000006,19.86704 64.78656000000001C19.67048 65.0112,19.55816 65.17967999999999,19.136960000000002 65.7132C18.996560000000002 65.90976,18.77192 66.05016,18.57536 66.05016C18.378800000000002 66.05016,18.18224 65.90976,18.06992 65.68512C18.04184 65.60088,17.985680000000002 65.54472,17.985680000000002 65.40432C17.985680000000002 65.26392,18.098 65.06736000000001,18.350720000000003 64.78656000000001C19.95128 62.877120000000005,20.82176 60.378,20.82176 58.01928C20.82176 57.87888,20.82176 57.822720000000004,20.82176 57.738479999999996C20.82176 57.06456,20.70944 56.22216,20.6252 55.85712C20.59712 55.77288,20.540960000000002 55.63248,20.512880000000003 55.464C20.007440000000003 53.52648,18.82808 51.72936,17.2556 50.634240000000005C16.4132 50.01648,14.588000000000001 49.53912,13.0436 49.53912C12.9032 49.53912,12.734720000000001 49.53912,12.70664 49.53912L12.59432 49.53912L12.59432 45.60792L12.59432 41.64864L12.70664 41.64864C12.931280000000001 41.64864,13.15592 41.78904,13.240160000000001 42.04176C13.436720000000001 42.6876,14.138720000000001 43.89504,14.896880000000001 44.90592C15.87968 46.36608,17.08712 47.68584,18.71576 49.2864C19.47392 50.01648,20.147840000000002 50.830799999999996,20.540960000000002 51.5328C20.540960000000002 51.58896,20.59712 51.61704,20.59712 51.61704C20.6252 51.61704,20.6252 51.5328,20.68136 51.42048C20.793680000000002 50.74656,20.82176 50.1288,20.82176 49.482960000000006C20.82176 48.893280000000004,20.793680000000002 48.27552,20.68136 47.62968C20.68136 47.51736,20.6252 47.40504,20.6252 47.37696C20.59712 47.29272,20.540960000000002 47.12424,20.512880000000003 46.98384C20.007440000000003 45.01824,18.82808 43.2492,17.2556 42.15408C16.4132 41.50824,14.588000000000001 41.08704,13.0436 41.05896C12.9032 41.05896,12.734720000000001 41.05896,12.70664 41.05896L12.59432 41.05896L12.59432 37.12776"/></g></g><g class="vf-modifiers"/></g></svg>