<?xml version="1.0" standalone="no"?><svg xmlns="http://www.w3.org/2000/svg" width="40" height="130"><path stroke-width="2" fill="none" stroke="black" stroke-dasharray="none" font-family="Arial" font-size="10pt" font-weight="normal" font-style="normal" d="M-15 30L85 30"/><path stroke-width="2" fill="none" stroke="black" stroke-dasharray="none" font-family="Arial" font-size="10pt" font-weight="normal" font-style="normal" d="M-15 40L85 40"/><path stroke-width="2" fill="none" stroke="black" stroke-dasharray="none" font-family="Arial" font-size="10pt" font-weight="normal" font-style="normal" d="M-15 50L85 50"/><path stroke-width="2" fill="none" stroke="black" stroke-dasharray="none" font-family="Arial" font-size="10pt" font-weight="normal" font-style="normal" d="M-15 60L85 60"/><path stroke-width="2" fill="none" stroke="black" stroke-dasharray="none" font-family="Arial" font-size="10pt" font-weight="normal" font-style="normal" d="M-15 70L85 70"/><rect stroke-width="0.3" fill="black" stroke="black" stroke-dasharray="none" font-family="Arial" font-size="10pt" font-weight="normal" font-style="normal" x="-15" y="29.5" width="1" height="41"/><rect stroke-width="0.3" fill="black" stroke="black" stroke-dasharray="none" font-family="Arial" font-size="10pt" font-weight="normal" font-style="normal" x="85" y="29.5" width="1" height="41"/><g class="vf-stavenote" id="vf-auto5564"><g class="vf-note" pointer-events="bounding-box"><g class="vf-stem" pointer-events="bounding-box"><path stroke-width="1.5" fill="none" stroke="black" stroke-dasharray="none" font-family="Arial" font-size="10pt" font-weight="normal" font-style="normal" x="85" y="29.5" width="1" height="41" d="M2.75 35L2.75 70"/></g><g class="vf-notehead" pointer-events="bounding-box"><path stroke-width="0.3" fill="black" stroke="none" stroke-dasharray="none" font-family="Arial" font-size="10pt" font-weight="normal" font-style="normal" x="85" y="29.5" width="1" height="41" d="M2 35M9.35696 29.77712C9.469280000000001 29.77712,9.63776 29.77712,9.66584 29.77712C9.66584 29.77712,9.69392 29.77712,9.69392 29.77712C9.69392 29.77712,9.862400000000001 29.77712,10.0028 29.77712C12.530000000000001 29.91752,14.01824 31.57424,14.01824 33.65216C14.01824 34.66304,13.681280000000001 35.81432,12.83888 36.909440000000004C11.23832 39.071600000000004,8.62688 40.25096,6.3524 40.25096C4.58336 40.25096,3.06704 39.54896,2.33696 38.11688C2.11232 37.55528,2 37.02176,2 36.43208C2 33.37136,5.42576 29.97368,9.35696 29.77712"/></g><g class="vf-flag" pointer-events="bounding-box"><path stroke-width="0.3" fill="black" stroke="none" stroke-dasharray="none" font-family="Arial" font-size="10pt" font-weight="normal" font-style="normal" x="85" y="29.5" width="1" height="41" d="M2.75 72M11.23016 43.04952C11.28632 43.02144,11.370560000000001 43.02144,11.39864 43.02144C11.67944 43.02144,11.876 43.16184,12.0164 43.47072C12.60608 44.7624,12.91496 46.166399999999996,12.91496 47.65464C12.91496 48.86208,12.66224 50.0976,12.2972 51.27696L12.18488 51.585840000000005L12.2972 51.866640000000004C12.7184 52.98984,12.91496 54.19728,12.91496 55.40472C12.91496 58.07232,11.876 60.73992,9.966560000000001 62.93016C9.573440000000002 63.40752,9.12416 63.8568,8.47832 64.36224C6.37232 66.21552,4.60328 68.26536,3.3116 70.42752C3.08696 70.76448,2.75 71.38224,2.72192 71.49456C2.63768 71.74728,2.41304 71.88768,2.21648 71.88768L2.16032 71.88768L2.16032 68.0688L2.16032 64.24992L2.41304 64.22184C4.46288 63.91296,6.31616 63.32328,7.43936 62.64936C10.10696 61.10496,11.70752 58.21272,11.70752 55.20816C11.70752 54.5904,11.65136 53.97264,11.48288 53.354879999999994L11.4548 53.10216L11.28632 53.354879999999994C10.58432 54.5904,9.77 55.517039999999994,8.47832 56.61216C6.37232 58.43736,4.60328 60.51528,3.3116 62.64936C3.08696 63.0144,2.75 63.63216,2.72192 63.80064C2.63768 63.9972,2.41304 64.1376,2.21648 64.1376L2.16032 64.1376L2.16032 60.31872L2.16032 56.49984L2.41304 56.47176C4.46288 56.16288,6.31616 55.5732,7.43936 54.899280000000005C10.16312 53.29872,11.70752 50.3784,11.70752 47.458079999999995C11.70752 46.33488,11.48288 45.21168,11.00552 44.144639999999995C10.83704 43.80768,10.83704 43.72344,10.83704 43.61112C10.83704 43.33032,11.00552 43.133759999999995,11.23016 43.04952"/></g></g><g class="vf-modifiers"><path stroke-width="0.3" fill="black" stroke="none" stroke-dasharray="none" font-family="Arial" font-size="10pt" font-weight="normal" font-style="normal" x="85" y="29.5" width="1" height="41" d="M21.01824 35 A2 2 0 0 0 17.01824 35M0 0M17.01824 35 A2 2 0 0 0 21.01824 35M0 0"/></g></g></svg>