<?xml version="1.0" standalone="no"?><svg xmlns="http://www.w3.org/2000/svg" width="40" height="130"><path stroke-width="2" fill="none" stroke="black" stroke-dasharray="none" font-family="Arial" font-size="10pt" font-weight="normal" font-style="normal" d="M-15 30L85 30"/><path stroke-width="2" fill="none" stroke="black" stroke-dasharray="none" font-family="Arial" font-size="10pt" font-weight="normal" font-style="normal" d="M-15 40L85 40"/><path stroke-width="2" fill="none" stroke="black" stroke-dasharray="none" font-family="Arial" font-size="10pt" font-weight="normal" font-style="normal" d="M-15 50L85 50"/><path stroke-width="2" fill="none" stroke="black" stroke-dasharray="none" font-family="Arial" font-size="10pt" font-weight="normal" font-style="normal" d="M-15 60L85 60"/><path stroke-width="2" fill="none" stroke="black" stroke-dasharray="none" font-family="Arial" font-size="10pt" font-weight="normal" font-style="normal" d="M-15 70L85 70"/><rect stroke-width="0.3" fill="black" stroke="black" stroke-dasharray="none" font-family="Arial" font-size="10pt" font-weight="normal" font-style="normal" x="-15" y="29.5" width="1" height="41"/><rect stroke-width="0.3" fill="black" stroke="black" stroke-dasharray="none" font-family="Arial" font-size="10pt" font-weight="normal" font-style="normal" x="85" y="29.5" width="1" height="41"/><path stroke-width="2" fill="none" stroke="black" stroke-dasharray="none" font-family="Arial" font-size="10pt" font-weight="normal" font-style="normal" x="85" y="29.5" width="1" height="41" d="M-1 80L17.01824 80"/><path stroke-width="2" fill="none" stroke="black" stroke-dasharray="none" font-family="Arial" font-size="10pt" font-weight="normal" font-style="normal" x="85" y="29.5" width="1" height="41" d="M-1 90L17.01824 90"/><path stroke-width="2" fill="none" stroke="black" stroke-dasharray="none" font-family="Arial" font-size="10pt" font-weight="normal" font-style="normal" x="85" y="29.5" width="1" height="41" d="M-1 100L17.01824 100"/><g class="vf-stavenote" id="vf-auto5524"><g class="vf-note" pointer-events="bounding-box"><g class="vf-stem" pointer-events="bounding-box"><path stroke-width="1.5" fill="none" stroke="black" stroke-dasharray="none" font-family="Arial" font-size="10pt" font-weight="normal" font-style="normal" x="85" y="29.5" width="1" height="41" d="M13.26824 105L13.26824 70"/></g><g class="vf-notehead" pointer-events="bounding-box"><path stroke-width="0.3" fill="black" stroke="none" stroke-dasharray="none" font-family="Arial" font-size="10pt" font-weight="normal" font-style="normal" x="85" y="29.5" width="1" height="41" d="M2 105M9.35696 99.77712C9.469280000000001 99.77712,9.63776 99.77712,9.66584 99.77712C9.66584 99.77712,9.69392 99.77712,9.69392 99.77712C9.69392 99.77712,9.862400000000001 99.77712,10.0028 99.77712C12.530000000000001 99.91752,14.01824 101.57424,14.01824 103.65216C14.01824 104.66304,13.681280000000001 105.81432,12.83888 106.90944C11.23832 109.0716,8.62688 110.25096,6.3524 110.25096C4.58336 110.25096,3.06704 109.54896,2.33696 108.11688C2.11232 107.55528,2 107.02176,2 106.43208C2 103.37136,5.42576 99.97368,9.35696 99.77712"/></g><g class="vf-flag" pointer-events="bounding-box"><path stroke-width="0.3" fill="black" stroke="none" stroke-dasharray="none" font-family="Arial" font-size="10pt" font-weight="normal" font-style="normal" x="85" y="29.5" width="1" height="41" d="M13.26824 68M12.59432 72.12776L12.59432 68.1404L12.70664 68.1404C12.931280000000001 68.1404,13.15592 68.30888,13.240160000000001 68.53352C13.436720000000001 69.20744,14.138720000000001 70.41488,14.896880000000001 71.45384C15.87968 72.85784,17.03096 74.14952,18.77192 75.80624C20.96216 77.99648,22.169600000000003 80.9168,22.169600000000003 84.0056C22.169600000000003 85.32536,21.91688 86.70128,21.523760000000003 88.02104L21.383360000000003 88.32992L21.523760000000003 88.6388C21.91688 89.9024,22.169600000000003 91.22216,22.169600000000003 92.51384C22.169600000000003 95.04104000000001,21.35528 97.59632,19.86704 99.78656000000001C19.67048 100.0112,19.55816 100.17967999999999,19.136960000000002 100.7132C18.996560000000002 100.90976,18.77192 101.05016,18.57536 101.05016C18.378800000000002 101.05016,18.18224 100.90976,18.06992 100.68512C18.04184 100.60088,17.985680000000002 100.54472,17.985680000000002 100.40432C17.985680000000002 100.26392,18.098 100.06736000000001,18.350720000000003 99.78656000000001C19.95128 97.87712,20.82176 95.378,20.82176 93.01928000000001C20.82176 92.87888000000001,20.82176 92.82272,20.82176 92.73848C20.82176 92.06456,20.70944 91.22216,20.6252 90.85712000000001C20.59712 90.77288,20.540960000000002 90.63248,20.512880000000003 90.464C20.007440000000003 88.52647999999999,18.82808 86.72936,17.2556 85.63424C16.4132 85.01648,14.588000000000001 84.53912,13.0436 84.53912C12.9032 84.53912,12.734720000000001 84.53912,12.70664 84.53912L12.59432 84.53912L12.59432 80.60792000000001L12.59432 76.64864L12.70664 76.64864C12.931280000000001 76.64864,13.15592 76.78904,13.240160000000001 77.04176C13.436720000000001 77.6876,14.138720000000001 78.89504,14.896880000000001 79.90592C15.87968 81.36608,17.08712 82.68584,18.71576 84.2864C19.47392 85.01648,20.147840000000002 85.8308,20.540960000000002 86.53280000000001C20.540960000000002 86.58896,20.59712 86.61704,20.59712 86.61704C20.6252 86.61704,20.6252 86.53280000000001,20.68136 86.42048C20.793680000000002 85.74656,20.82176 85.1288,20.82176 84.48296C20.82176 83.89328,20.793680000000002 83.27552,20.68136 82.62968000000001C20.68136 82.51736,20.6252 82.40504,20.6252 82.37696C20.59712 82.29272,20.540960000000002 82.12424,20.512880000000003 81.98384C20.007440000000003 80.01824,18.82808 78.2492,17.2556 77.15408C16.4132 76.50824,14.588000000000001 76.08704,13.0436 76.05896C12.9032 76.05896,12.734720000000001 76.05896,12.70664 76.05896L12.59432 76.05896L12.59432 72.12776"/></g></g><g class="vf-modifiers"><path stroke-width="0.3" fill="black" stroke="none" stroke-dasharray="none" font-family="Arial" font-size="10pt" font-weight="normal" font-style="normal" x="85" y="29.5" width="1" height="41" d="M30.59352 105 A2 2 0 0 0 26.59352 105M0 0M26.59352 105 A2 2 0 0 0 30.59352 105M0 0"/></g></g></svg>