<?xml version="1.0" standalone="no"?><svg xmlns="http://www.w3.org/2000/svg" width="40" height="130"><path stroke-width="2" fill="none" stroke="black" stroke-dasharray="none" font-family="Arial" font-size="10pt" font-weight="normal" font-style="normal" d="M-15 30L85 30"/><path stroke-width="2" fill="none" stroke="black" stroke-dasharray="none" font-family="Arial" font-size="10pt" font-weight="normal" font-style="normal" d="M-15 40L85 40"/><path stroke-width="2" fill="none" stroke="black" stroke-dasharray="none" font-family="Arial" font-size="10pt" font-weight="normal" font-style="normal" d="M-15 50L85 50"/><path stroke-width="2" fill="none" stroke="black" stroke-dasharray="none" font-family="Arial" font-size="10pt" font-weight="normal" font-style="normal" d="M-15 60L85 60"/><path stroke-width="2" fill="none" stroke="black" stroke-dasharray="none" font-family="Arial" font-size="10pt" font-weight="normal" font-style="normal" d="M-15 70L85 70"/><rect stroke-width="0.3" fill="black" stroke="black" stroke-dasharray="none" font-family="Arial" font-size="10pt" font-weight="normal" font-style="normal" x="-15" y="29.5" width="1" height="41"/><rect stroke-width="0.3" fill="black" stroke="black" stroke-dasharray="none" font-family="Arial" font-size="10pt" font-weight="normal" font-style="normal" x="85" y="29.5" width="1" height="41"/><g class="vf-stavenote" id="vf-auto5481"><g class="vf-note" pointer-events="bounding-box"><g class="vf-stem" pointer-events="bounding-box"><path stroke-width="1.5" fill="none" stroke="black" stroke-dasharray="none" font-family="Arial" font-size="10pt" font-weight="normal" font-style="normal" x="85" y="29.5" width="1" height="41" d="M24.710160000000002 70L24.710160000000002 35"/></g><g class="vf-notehead" pointer-events="bounding-box"><path stroke-width="0.3" fill="black" stroke="none" stroke-dasharray="none" font-family="Arial" font-size="10pt" font-weight="normal" font-style="normal" x="85" y="29.5" width="1" height="41" d="M13.44192 70M20.79888 64.77712C20.9112 64.77712,21.07968 64.77712,21.10776 64.77712C21.10776 64.77712,21.13584 64.77712,21.13584 64.77712C21.13584 64.77712,21.30432 64.77712,21.44472 64.77712C23.97192 64.91752,25.460160000000002 66.57424,25.460160000000002 68.65216C25.460160000000002 69.66304,25.1232 70.81432,24.2808 71.90944C22.680239999999998 74.0716,20.0688 75.25096,17.79432 75.25096C16.02528 75.25096,14.50896 74.54896,13.77888 73.11688C13.55424 72.55528,13.44192 72.02176,13.44192 71.43208C13.44192 68.37136,16.86768 64.97368,20.79888 64.77712"/></g><g class="vf-flag" pointer-events="bounding-box"><path stroke-width="0.3" fill="black" stroke="none" stroke-dasharray="none" font-family="Arial" font-size="10pt" font-weight="normal" font-style="normal" x="85" y="29.5" width="1" height="41" d="M24.710160000000002 33M24.036240000000003 37.12776L24.036240000000003 33.1404L24.148560000000003 33.1404C24.3732 33.1404,24.59784 33.30888,24.682080000000003 33.53352C24.87864 34.20744,25.580640000000002 35.41488,26.338800000000003 36.45384C27.321600000000004 37.85784,28.472880000000004 39.14952,30.21384 40.80624C32.40408 42.99648,33.61152 45.9168,33.61152 49.0056C33.61152 50.32536,33.3588 51.70128,32.965680000000006 53.02104L32.82528000000001 53.32992L32.965680000000006 53.6388C33.3588 54.9024,33.61152 56.22216,33.61152 57.51384C33.61152 60.04104,32.797200000000004 62.596320000000006,31.308960000000003 64.78656000000001C31.1124 65.0112,31.000080000000004 65.17967999999999,30.57888 65.7132C30.438480000000002 65.90976,30.21384 66.05016,30.017280000000003 66.05016C29.82072 66.05016,29.624160000000003 65.90976,29.511840000000003 65.68512C29.483760000000004 65.60088,29.4276 65.54472,29.4276 65.40432C29.4276 65.26392,29.539920000000002 65.06736000000001,29.792640000000002 64.78656000000001C31.3932 62.877120000000005,32.26368 60.378,32.26368 58.01928C32.26368 57.87888,32.26368 57.822720000000004,32.26368 57.738479999999996C32.26368 57.06456,32.151360000000004 56.22216,32.06712 55.85712C32.03904 55.77288,31.98288 55.63248,31.954800000000002 55.464C31.449360000000002 53.52648,30.270000000000003 51.72936,28.69752 50.634240000000005C27.855120000000003 50.01648,26.02992 49.53912,24.48552 49.53912C24.34512 49.53912,24.176640000000003 49.53912,24.148560000000003 49.53912L24.036240000000003 49.53912L24.036240000000003 45.60792L24.036240000000003 41.64864L24.148560000000003 41.64864C24.3732 41.64864,24.59784 41.78904,24.682080000000003 42.04176C24.87864 42.6876,25.580640000000002 43.89504,26.338800000000003 44.90592C27.321600000000004 46.36608,28.529040000000002 47.68584,30.157680000000003 49.2864C30.915840000000003 50.01648,31.589760000000002 50.830799999999996,31.98288 51.5328C31.98288 51.58896,32.03904 51.61704,32.03904 51.61704C32.06712 51.61704,32.06712 51.5328,32.12328 51.42048C32.235600000000005 50.74656,32.26368 50.1288,32.26368 49.482960000000006C32.26368 48.893280000000004,32.235600000000005 48.27552,32.12328 47.62968C32.12328 47.51736,32.06712 47.40504,32.06712 47.37696C32.03904 47.29272,31.98288 47.12424,31.954800000000002 46.98384C31.449360000000002 45.01824,30.270000000000003 43.2492,28.69752 42.15408C27.855120000000003 41.50824,26.02992 41.08704,24.48552 41.05896C24.34512 41.05896,24.176640000000003 41.05896,24.148560000000003 41.05896L24.036240000000003 41.05896L24.036240000000003 37.12776"/></g></g><g class="vf-modifiers"><path stroke-width="0.3" fill="black" stroke="none" stroke-dasharray="none" font-family="Arial" font-size="10pt" font-weight="normal" font-style="normal" x="85" y="29.5" width="1" height="41" d="M3.57456 70M3.35568 52.735839999999996C3.4104 52.70848,3.4651199999999998 52.70848,3.5472 52.70848C3.79344 52.70848,4.01232 52.81792,4.0944 53.0368C4.12176 53.146240000000006,4.12176 53.146240000000006,4.12176 59.521119999999996L4.12176 65.95072L4.14912 65.86864C5.1888 64.99312,6.2832 64.55536000000001,7.32288 64.55536000000001C7.73328 64.55536000000001,8.14368 64.61008,8.554079999999999 64.77424C9.78528 65.18464,10.44192 66.33376,10.44192 67.70176000000001C10.44192 68.41312,10.223040000000001 69.20656,9.81264 70C9.210719999999998 71.0944,8.44464 71.96992,6.31056 73.88512L4.20384 75.8824C3.8207999999999998 76.26544,3.73872 76.26544,3.57456 76.26544C3.32832 76.26544,3.10944 76.12864,3.02736 75.90976L3 75.80032L3 64.50064L3 53.146240000000006L3.02736 53.0368C3.10944 52.92736,3.21888 52.7632,3.35568 52.735839999999996M6.58416 66.41584C6.47472 66.36112,6.31056 66.36112,6.2011199999999995 66.36112C6.11904 66.36112,6.06432 66.36112,6.0096 66.36112C5.29824 66.47056,4.66896 66.90832,4.2312 67.61968L4.12176 67.8112L4.12176 71.01232L4.12176 74.26816L4.20384 74.15872C6.2011199999999995 71.96992,7.5144 69.4528,7.5144 67.78384L7.5144 67.72912C7.5144 66.90832,7.2408 66.55264,6.58416 66.41584"/><path stroke-width="0.3" fill="black" stroke="none" stroke-dasharray="none" font-family="Arial" font-size="10pt" font-weight="normal" font-style="normal" x="85" y="29.5" width="1" height="41" d="M42.03544 65 A2 2 0 0 0 38.03544 65M0 0M38.03544 65 A2 2 0 0 0 42.03544 65M0 0"/></g></g></svg>