<?xml version="1.0" standalone="no"?><svg xmlns="http://www.w3.org/2000/svg" width="40" height="130"><path stroke-width="2" fill="none" stroke="black" stroke-dasharray="none" font-family="Arial" font-size="10pt" font-weight="normal" font-style="normal" d="M-15 30L85 30"/><path stroke-width="2" fill="none" stroke="black" stroke-dasharray="none" font-family="Arial" font-size="10pt" font-weight="normal" font-style="normal" d="M-15 40L85 40"/><path stroke-width="2" fill="none" stroke="black" stroke-dasharray="none" font-family="Arial" font-size="10pt" font-weight="normal" font-style="normal" d="M-15 50L85 50"/><path stroke-width="2" fill="none" stroke="black" stroke-dasharray="none" font-family="Arial" font-size="10pt" font-weight="normal" font-style="normal" d="M-15 60L85 60"/><path stroke-width="2" fill="none" stroke="black" stroke-dasharray="none" font-family="Arial" font-size="10pt" font-weight="normal" font-style="normal" d="M-15 70L85 70"/><rect stroke-width="0.3" fill="black" stroke="black" stroke-dasharray="none" font-family="Arial" font-size="10pt" font-weight="normal" font-style="normal" x="-15" y="29.5" width="1" height="41"/><rect stroke-width="0.3" fill="black" stroke="black" stroke-dasharray="none" font-family="Arial" font-size="10pt" font-weight="normal" font-style="normal" x="85" y="29.5" width="1" height="41"/><g class="vf-stavenote" id="vf-auto1331"><g class="vf-note" pointer-events="bounding-box"><g class="vf-notehead" pointer-events="bounding-box"><path stroke-width="0.3" fill="black" stroke="none" stroke-dasharray="none" font-family="Arial" font-size="10pt" font-weight="normal" font-style="normal" x="85" y="29.5" width="1" height="41" d="M13.44192 35M21.13584 29.833280000000002C21.44472 29.77712,21.7536 29.77712,22.06248 29.77712C26.499119999999998 29.77712,30.20568 31.74272,30.7392 34.38224C30.76728 34.63496,30.82344 34.8596,30.82344 35.02808C30.82344 37.920320000000004,27.004559999999998 40.25096,22.09056 40.25096C17.17656 40.25096,13.44192 37.86416,13.44192 35.02808C13.44192 34.69112,13.469999999999999 34.35416,13.58232 33.98912C14.25624 31.7708,17.4012 30.05792,21.13584 29.833280000000002M21.55704 30.47912C21.41664 30.45104,21.22008 30.45104,21.07968 30.45104C19.31064 30.45104,18.2436 31.96736,18.2436 33.84872C18.2436 34.8596,18.55248 35.95472,19.19832 37.04984C20.26536 38.73464,21.80976 39.57704,23.12952 39.57704C24.25272 39.57704,25.23552 38.98736,25.6848 37.75184C25.88136 37.2464,25.965600000000002 36.74096,25.965600000000002 36.20744C25.965600000000002 33.68024,24.02808 30.872239999999998,21.55704 30.47912"/></g></g><g class="vf-modifiers"><path stroke-width="0.3" fill="black" stroke="none" stroke-dasharray="none" font-family="Arial" font-size="10pt" font-weight="normal" font-style="normal" x="85" y="29.5" width="1" height="41" d="M3.57456 35M3.35568 17.73584C3.4104 17.70848,3.4651199999999998 17.70848,3.5472 17.70848C3.79344 17.70848,4.01232 17.81792,4.0944 18.0368C4.12176 18.146240000000002,4.12176 18.146240000000002,4.12176 24.52112L4.12176 30.95072L4.14912 30.86864C5.1888 29.99312,6.2832 29.55536,7.32288 29.55536C7.73328 29.55536,8.14368 29.61008,8.554079999999999 29.77424C9.78528 30.18464,10.44192 31.33376,10.44192 32.70176C10.44192 33.41312,10.223040000000001 34.20656,9.81264 35C9.210719999999998 36.0944,8.44464 36.96992,6.31056 38.88512L4.20384 40.8824C3.8207999999999998 41.26544,3.73872 41.26544,3.57456 41.26544C3.32832 41.26544,3.10944 41.12864,3.02736 40.90976L3 40.80032L3 29.50064L3 18.146240000000002L3.02736 18.0368C3.10944 17.92736,3.21888 17.7632,3.35568 17.73584M6.58416 31.41584C6.47472 31.36112,6.31056 31.36112,6.2011199999999995 31.36112C6.11904 31.36112,6.06432 31.36112,6.0096 31.36112C5.29824 31.47056,4.66896 31.90832,4.2312 32.61968L4.12176 32.8112L4.12176 36.01232L4.12176 39.26816L4.20384 39.15872C6.2011199999999995 36.96992,7.5144 34.4528,7.5144 32.78384L7.5144 32.72912C7.5144 31.90832,7.2408 31.55264,6.58416 31.41584"/></g></g></svg>