<?xml version="1.0" standalone="no"?><svg xmlns="http://www.w3.org/2000/svg" width="40" height="130"><path stroke-width="2" fill="none" stroke="black" stroke-dasharray="none" font-family="Arial" font-size="10pt" font-weight="normal" font-style="normal" d="M-15 30L85 30"/><path stroke-width="2" fill="none" stroke="black" stroke-dasharray="none" font-family="Arial" font-size="10pt" font-weight="normal" font-style="normal" d="M-15 40L85 40"/><path stroke-width="2" fill="none" stroke="black" stroke-dasharray="none" font-family="Arial" font-size="10pt" font-weight="normal" font-style="normal" d="M-15 50L85 50"/><path stroke-width="2" fill="none" stroke="black" stroke-dasharray="none" font-family="Arial" font-size="10pt" font-weight="normal" font-style="normal" d="M-15 60L85 60"/><path stroke-width="2" fill="none" stroke="black" stroke-dasharray="none" font-family="Arial" font-size="10pt" font-weight="normal" font-style="normal" d="M-15 70L85 70"/><rect stroke-width="0.3" fill="black" stroke="black" stroke-dasharray="none" font-family="Arial" font-size="10pt" font-weight="normal" font-style="normal" x="-15" y="29.5" width="1" height="41"/><rect stroke-width="0.3" fill="black" stroke="black" stroke-dasharray="none" font-family="Arial" font-size="10pt" font-weight="normal" font-style="normal" x="85" y="29.5" width="1" height="41"/><path stroke-width="2" fill="none" stroke="black" stroke-dasharray="none" font-family="Arial" font-size="10pt" font-weight="normal" font-style="normal" x="85" y="29.5" width="1" height="41" d="M10.44192 80L33.823440000000005 80"/><path stroke-width="2" fill="none" stroke="black" stroke-dasharray="none" font-family="Arial" font-size="10pt" font-weight="normal" font-style="normal" x="85" y="29.5" width="1" height="41" d="M10.44192 90L33.823440000000005 90"/><path stroke-width="2" fill="none" stroke="black" stroke-dasharray="none" font-family="Arial" font-size="10pt" font-weight="normal" font-style="normal" x="85" y="29.5" width="1" height="41" d="M10.44192 100L33.823440000000005 100"/><g class="vf-stavenote" id="vf-auto1333"><g class="vf-note" pointer-events="bounding-box"><g class="vf-notehead" pointer-events="bounding-box"><path stroke-width="0.3" fill="black" stroke="none" stroke-dasharray="none" font-family="Arial" font-size="10pt" font-weight="normal" font-style="normal" x="85" y="29.5" width="1" height="41" d="M13.44192 105M21.13584 99.83328C21.44472 99.77712,21.7536 99.77712,22.06248 99.77712C26.499119999999998 99.77712,30.20568 101.74272,30.7392 104.38224C30.76728 104.63496,30.82344 104.8596,30.82344 105.02808C30.82344 107.92032,27.004559999999998 110.25096,22.09056 110.25096C17.17656 110.25096,13.44192 107.86416,13.44192 105.02808C13.44192 104.69112,13.469999999999999 104.35416,13.58232 103.98912C14.25624 101.7708,17.4012 100.05792,21.13584 99.83328M21.55704 100.47912C21.41664 100.45104,21.22008 100.45104,21.07968 100.45104C19.31064 100.45104,18.2436 101.96736,18.2436 103.84872C18.2436 104.8596,18.55248 105.95472,19.19832 107.04984C20.26536 108.73464,21.80976 109.57704,23.12952 109.57704C24.25272 109.57704,25.23552 108.98736,25.6848 107.75184C25.88136 107.2464,25.965600000000002 106.74096,25.965600000000002 106.20744C25.965600000000002 103.68024,24.02808 100.87224,21.55704 100.47912"/></g></g><g class="vf-modifiers"><path stroke-width="0.3" fill="black" stroke="none" stroke-dasharray="none" font-family="Arial" font-size="10pt" font-weight="normal" font-style="normal" x="85" y="29.5" width="1" height="41" d="M3.57456 105M3.35568 87.73584C3.4104 87.70848000000001,3.4651199999999998 87.70848000000001,3.5472 87.70848000000001C3.79344 87.70848000000001,4.01232 87.81792,4.0944 88.0368C4.12176 88.14624,4.12176 88.14624,4.12176 94.52112L4.12176 100.95072L4.14912 100.86864C5.1888 99.99312,6.2832 99.55536000000001,7.32288 99.55536000000001C7.73328 99.55536000000001,8.14368 99.61008,8.554079999999999 99.77424C9.78528 100.18464,10.44192 101.33376,10.44192 102.70176000000001C10.44192 103.41312,10.223040000000001 104.20656,9.81264 105C9.210719999999998 106.0944,8.44464 106.96992,6.31056 108.88512L4.20384 110.8824C3.8207999999999998 111.26544,3.73872 111.26544,3.57456 111.26544C3.32832 111.26544,3.10944 111.12864,3.02736 110.90976L3 110.80032L3 99.50064L3 88.14624L3.02736 88.0368C3.10944 87.92736,3.21888 87.7632,3.35568 87.73584M6.58416 101.41584C6.47472 101.36112,6.31056 101.36112,6.2011199999999995 101.36112C6.11904 101.36112,6.06432 101.36112,6.0096 101.36112C5.29824 101.47056,4.66896 101.90832,4.2312 102.61968L4.12176 102.8112L4.12176 106.01232L4.12176 109.26816L4.20384 109.15872C6.2011199999999995 106.96992,7.5144 104.4528,7.5144 102.78384L7.5144 102.72912C7.5144 101.90832,7.2408 101.55264,6.58416 101.41584"/><path stroke-width="0.3" fill="black" stroke="none" stroke-dasharray="none" font-family="Arial" font-size="10pt" font-weight="normal" font-style="normal" x="85" y="29.5" width="1" height="41" d="M37.823440000000005 105 A2 2 0 0 0 33.823440000000005 105M0 0M33.823440000000005 105 A2 2 0 0 0 37.823440000000005 105M0 0"/></g></g></svg>