<?xml version="1.0" standalone="no"?><svg xmlns="http://www.w3.org/2000/svg" width="40" height="130"><path stroke-width="2" fill="none" stroke="black" stroke-dasharray="none" font-family="Arial" font-size="10pt" font-weight="normal" font-style="normal" d="M-15 30L85 30"/><path stroke-width="2" fill="none" stroke="black" stroke-dasharray="none" font-family="Arial" font-size="10pt" font-weight="normal" font-style="normal" d="M-15 40L85 40"/><path stroke-width="2" fill="none" stroke="black" stroke-dasharray="none" font-family="Arial" font-size="10pt" font-weight="normal" font-style="normal" d="M-15 50L85 50"/><path stroke-width="2" fill="none" stroke="black" stroke-dasharray="none" font-family="Arial" font-size="10pt" font-weight="normal" font-style="normal" d="M-15 60L85 60"/><path stroke-width="2" fill="none" stroke="black" stroke-dasharray="none" font-family="Arial" font-size="10pt" font-weight="normal" font-style="normal" d="M-15 70L85 70"/><rect stroke-width="0.3" fill="black" stroke="black" stroke-dasharray="none" font-family="Arial" font-size="10pt" font-weight="normal" font-style="normal" x="-15" y="29.5" width="1" height="41"/><rect stroke-width="0.3" fill="black" stroke="black" stroke-dasharray="none" font-family="Arial" font-size="10pt" font-weight="normal" font-style="normal" x="85" y="29.5" width="1" height="41"/><g class="vf-stavenote" id="vf-auto3993"><g class="vf-note" pointer-events="bounding-box"><g class="vf-stem" pointer-events="bounding-box"><path stroke-width="1.5" fill="none" stroke="black" stroke-dasharray="none" font-family="Arial" font-size="10pt" font-weight="normal" font-style="normal" x="85" y="29.5" width="1" height="41" d="M24.710160000000002 70L24.710160000000002 35"/></g><g class="vf-notehead" pointer-events="bounding-box"><path stroke-width="0.3" fill="black" stroke="none" stroke-dasharray="none" font-family="Arial" font-size="10pt" font-weight="normal" font-style="normal" x="85" y="29.5" width="1" height="41" d="M13.44192 70M20.79888 64.77712C20.9112 64.77712,21.07968 64.77712,21.10776 64.77712C21.10776 64.77712,21.13584 64.77712,21.13584 64.77712C21.13584 64.77712,21.30432 64.77712,21.44472 64.77712C23.97192 64.91752,25.460160000000002 66.57424,25.460160000000002 68.65216C25.460160000000002 69.66304,25.1232 70.81432,24.2808 71.90944C22.680239999999998 74.0716,20.0688 75.25096,17.79432 75.25096C16.02528 75.25096,14.50896 74.54896,13.77888 73.11688C13.55424 72.55528,13.44192 72.02176,13.44192 71.43208C13.44192 68.37136,16.86768 64.97368,20.79888 64.77712"/></g><g class="vf-flag" pointer-events="bounding-box"><path stroke-width="0.3" fill="black" stroke="none" stroke-dasharray="none" font-family="Arial" font-size="10pt" font-weight="normal" font-style="normal" x="85" y="29.5" width="1" height="41" d="M24.710160000000002 33M24.036240000000003 37.52088L24.036240000000003 33.1404L24.148560000000003 33.1404C24.457440000000002 33.1404,24.654000000000003 33.33696,24.710160000000002 33.67392C25.299840000000003 36.48192,27.06888 39.54264,29.511840000000003 41.8452C32.235600000000005 44.40048,33.61152 47.91048,33.61152 51.5328C33.61152 54.958560000000006,32.40408 58.52472,29.96112 61.47312C29.539920000000002 62.03472,29.511840000000003 62.03472,29.23104 62.03472C28.894080000000002 62.03472,28.66944 61.782,28.66944 61.445040000000006C28.66944 61.19232,28.69752 61.136160000000004,28.978320000000004 60.82728C31.1124 58.24392,32.17944 55.12704,32.17944 52.15056C32.17944 49.51104,31.337040000000002 46.98384,29.59608 45.0744C28.529040000000002 43.89504,26.563440000000003 42.77184,24.064320000000002 41.90136C24.064320000000002 41.87328,24.036240000000003 41.0028,24.036240000000003 37.52088"/></g></g><g class="vf-modifiers"><path stroke-width="0.3" fill="black" stroke="none" stroke-dasharray="none" font-family="Arial" font-size="10pt" font-weight="normal" font-style="normal" x="85" y="29.5" width="1" height="41" d="M3.57456 70M3.35568 52.735839999999996C3.4104 52.70848,3.4651199999999998 52.70848,3.5472 52.70848C3.79344 52.70848,4.01232 52.81792,4.0944 53.0368C4.12176 53.146240000000006,4.12176 53.146240000000006,4.12176 59.521119999999996L4.12176 65.95072L4.14912 65.86864C5.1888 64.99312,6.2832 64.55536000000001,7.32288 64.55536000000001C7.73328 64.55536000000001,8.14368 64.61008,8.554079999999999 64.77424C9.78528 65.18464,10.44192 66.33376,10.44192 67.70176000000001C10.44192 68.41312,10.223040000000001 69.20656,9.81264 70C9.210719999999998 71.0944,8.44464 71.96992,6.31056 73.88512L4.20384 75.8824C3.8207999999999998 76.26544,3.73872 76.26544,3.57456 76.26544C3.32832 76.26544,3.10944 76.12864,3.02736 75.90976L3 75.80032L3 64.50064L3 53.146240000000006L3.02736 53.0368C3.10944 52.92736,3.21888 52.7632,3.35568 52.735839999999996M6.58416 66.41584C6.47472 66.36112,6.31056 66.36112,6.2011199999999995 66.36112C6.11904 66.36112,6.06432 66.36112,6.0096 66.36112C5.29824 66.47056,4.66896 66.90832,4.2312 67.61968L4.12176 67.8112L4.12176 71.01232L4.12176 74.26816L4.20384 74.15872C6.2011199999999995 71.96992,7.5144 69.4528,7.5144 67.78384L7.5144 67.72912C7.5144 66.90832,7.2408 66.55264,6.58416 66.41584"/></g></g></svg>