<?xml version="1.0" standalone="no"?><svg xmlns="http://www.w3.org/2000/svg" width="40" height="130"><path stroke-width="2" fill="none" stroke="black" stroke-dasharray="none" font-family="Arial" font-size="10pt" font-weight="normal" font-style="normal" d="M-15 30L85 30"/><path stroke-width="2" fill="none" stroke="black" stroke-dasharray="none" font-family="Arial" font-size="10pt" font-weight="normal" font-style="normal" d="M-15 40L85 40"/><path stroke-width="2" fill="none" stroke="black" stroke-dasharray="none" font-family="Arial" font-size="10pt" font-weight="normal" font-style="normal" d="M-15 50L85 50"/><path stroke-width="2" fill="none" stroke="black" stroke-dasharray="none" font-family="Arial" font-size="10pt" font-weight="normal" font-style="normal" d="M-15 60L85 60"/><path stroke-width="2" fill="none" stroke="black" stroke-dasharray="none" font-family="Arial" font-size="10pt" font-weight="normal" font-style="normal" d="M-15 70L85 70"/><rect stroke-width="0.3" fill="black" stroke="black" stroke-dasharray="none" font-family="Arial" font-size="10pt" font-weight="normal" font-style="normal" x="-15" y="29.5" width="1" height="41"/><rect stroke-width="0.3" fill="black" stroke="black" stroke-dasharray="none" font-family="Arial" font-size="10pt" font-weight="normal" font-style="normal" x="85" y="29.5" width="1" height="41"/><path stroke-width="2" fill="none" stroke="black" stroke-dasharray="none" font-family="Arial" font-size="10pt" font-weight="normal" font-style="normal" x="85" y="29.5" width="1" height="41" d="M10.44192 80L28.46016 80"/><path stroke-width="2" fill="none" stroke="black" stroke-dasharray="none" font-family="Arial" font-size="10pt" font-weight="normal" font-style="normal" x="85" y="29.5" width="1" height="41" d="M10.44192 90L28.46016 90"/><path stroke-width="2" fill="none" stroke="black" stroke-dasharray="none" font-family="Arial" font-size="10pt" font-weight="normal" font-style="normal" x="85" y="29.5" width="1" height="41" d="M10.44192 100L28.46016 100"/><g class="vf-stavenote" id="vf-auto5459"><g class="vf-note" pointer-events="bounding-box"><g class="vf-stem" pointer-events="bounding-box"><path stroke-width="1.5" fill="none" stroke="black" stroke-dasharray="none" font-family="Arial" font-size="10pt" font-weight="normal" font-style="normal" x="85" y="29.5" width="1" height="41" d="M24.710160000000002 105L24.710160000000002 70"/></g><g class="vf-notehead" pointer-events="bounding-box"><path stroke-width="0.3" fill="black" stroke="none" stroke-dasharray="none" font-family="Arial" font-size="10pt" font-weight="normal" font-style="normal" x="85" y="29.5" width="1" height="41" d="M13.44192 105M20.79888 99.77712C20.9112 99.77712,21.07968 99.77712,21.10776 99.77712C21.10776 99.77712,21.13584 99.77712,21.13584 99.77712C21.13584 99.77712,21.30432 99.77712,21.44472 99.77712C23.97192 99.91752,25.460160000000002 101.57424,25.460160000000002 103.65216C25.460160000000002 104.66304,25.1232 105.81432,24.2808 106.90944C22.680239999999998 109.0716,20.0688 110.25096,17.79432 110.25096C16.02528 110.25096,14.50896 109.54896,13.77888 108.11688C13.55424 107.55528,13.44192 107.02176,13.44192 106.43208C13.44192 103.37136,16.86768 99.97368,20.79888 99.77712"/></g><g class="vf-flag" pointer-events="bounding-box"><path stroke-width="0.3" fill="black" stroke="none" stroke-dasharray="none" font-family="Arial" font-size="10pt" font-weight="normal" font-style="normal" x="85" y="29.5" width="1" height="41" d="M24.710160000000002 68M24.036240000000003 72.12776L24.036240000000003 68.1404L24.148560000000003 68.1404C24.3732 68.1404,24.59784 68.30888,24.682080000000003 68.53352C24.87864 69.20744,25.580640000000002 70.41488,26.338800000000003 71.45384C27.321600000000004 72.85784,28.472880000000004 74.14952,30.21384 75.80624C32.40408 77.99648,33.61152 80.9168,33.61152 84.0056C33.61152 85.32536,33.3588 86.70128,32.965680000000006 88.02104L32.82528000000001 88.32992L32.965680000000006 88.6388C33.3588 89.9024,33.61152 91.22216,33.61152 92.51384C33.61152 95.04104000000001,32.797200000000004 97.59632,31.308960000000003 99.78656000000001C31.1124 100.0112,31.000080000000004 100.17967999999999,30.57888 100.7132C30.438480000000002 100.90976,30.21384 101.05016,30.017280000000003 101.05016C29.82072 101.05016,29.624160000000003 100.90976,29.511840000000003 100.68512C29.483760000000004 100.60088,29.4276 100.54472,29.4276 100.40432C29.4276 100.26392,29.539920000000002 100.06736000000001,29.792640000000002 99.78656000000001C31.3932 97.87712,32.26368 95.378,32.26368 93.01928000000001C32.26368 92.87888000000001,32.26368 92.82272,32.26368 92.73848C32.26368 92.06456,32.151360000000004 91.22216,32.06712 90.85712000000001C32.03904 90.77288,31.98288 90.63248,31.954800000000002 90.464C31.449360000000002 88.52647999999999,30.270000000000003 86.72936,28.69752 85.63424C27.855120000000003 85.01648,26.02992 84.53912,24.48552 84.53912C24.34512 84.53912,24.176640000000003 84.53912,24.148560000000003 84.53912L24.036240000000003 84.53912L24.036240000000003 80.60792000000001L24.036240000000003 76.64864L24.148560000000003 76.64864C24.3732 76.64864,24.59784 76.78904,24.682080000000003 77.04176C24.87864 77.6876,25.580640000000002 78.89504,26.338800000000003 79.90592C27.321600000000004 81.36608,28.529040000000002 82.68584,30.157680000000003 84.2864C30.915840000000003 85.01648,31.589760000000002 85.8308,31.98288 86.53280000000001C31.98288 86.58896,32.03904 86.61704,32.03904 86.61704C32.06712 86.61704,32.06712 86.53280000000001,32.12328 86.42048C32.235600000000005 85.74656,32.26368 85.1288,32.26368 84.48296C32.26368 83.89328,32.235600000000005 83.27552,32.12328 82.62968000000001C32.12328 82.51736,32.06712 82.40504,32.06712 82.37696C32.03904 82.29272,31.98288 82.12424,31.954800000000002 81.98384C31.449360000000002 80.01824,30.270000000000003 78.2492,28.69752 77.15408C27.855120000000003 76.50824,26.02992 76.08704,24.48552 76.05896C24.34512 76.05896,24.176640000000003 76.05896,24.148560000000003 76.05896L24.036240000000003 76.05896L24.036240000000003 72.12776"/></g></g><g class="vf-modifiers"><path stroke-width="0.3" fill="black" stroke="none" stroke-dasharray="none" font-family="Arial" font-size="10pt" font-weight="normal" font-style="normal" x="85" y="29.5" width="1" height="41" d="M3.57456 105M3.35568 87.73584C3.4104 87.70848000000001,3.4651199999999998 87.70848000000001,3.5472 87.70848000000001C3.79344 87.70848000000001,4.01232 87.81792,4.0944 88.0368C4.12176 88.14624,4.12176 88.14624,4.12176 94.52112L4.12176 100.95072L4.14912 100.86864C5.1888 99.99312,6.2832 99.55536000000001,7.32288 99.55536000000001C7.73328 99.55536000000001,8.14368 99.61008,8.554079999999999 99.77424C9.78528 100.18464,10.44192 101.33376,10.44192 102.70176000000001C10.44192 103.41312,10.223040000000001 104.20656,9.81264 105C9.210719999999998 106.0944,8.44464 106.96992,6.31056 108.88512L4.20384 110.8824C3.8207999999999998 111.26544,3.73872 111.26544,3.57456 111.26544C3.32832 111.26544,3.10944 111.12864,3.02736 110.90976L3 110.80032L3 99.50064L3 88.14624L3.02736 88.0368C3.10944 87.92736,3.21888 87.7632,3.35568 87.73584M6.58416 101.41584C6.47472 101.36112,6.31056 101.36112,6.2011199999999995 101.36112C6.11904 101.36112,6.06432 101.36112,6.0096 101.36112C5.29824 101.47056,4.66896 101.90832,4.2312 102.61968L4.12176 102.8112L4.12176 106.01232L4.12176 109.26816L4.20384 109.15872C6.2011199999999995 106.96992,7.5144 104.4528,7.5144 102.78384L7.5144 102.72912C7.5144 101.90832,7.2408 101.55264,6.58416 101.41584"/><path stroke-width="0.3" fill="black" stroke="none" stroke-dasharray="none" font-family="Arial" font-size="10pt" font-weight="normal" font-style="normal" x="85" y="29.5" width="1" height="41" d="M42.03544 105 A2 2 0 0 0 38.03544 105M0 0M38.03544 105 A2 2 0 0 0 42.03544 105M0 0"/></g></g></svg>