<?xml version="1.0" standalone="no"?><svg xmlns="http://www.w3.org/2000/svg" width="40" height="130"><path stroke-width="2" fill="none" stroke="black" stroke-dasharray="none" font-family="Arial" font-size="10pt" font-weight="normal" font-style="normal" d="M-15 30L85 30"/><path stroke-width="2" fill="none" stroke="black" stroke-dasharray="none" font-family="Arial" font-size="10pt" font-weight="normal" font-style="normal" d="M-15 40L85 40"/><path stroke-width="2" fill="none" stroke="black" stroke-dasharray="none" font-family="Arial" font-size="10pt" font-weight="normal" font-style="normal" d="M-15 50L85 50"/><path stroke-width="2" fill="none" stroke="black" stroke-dasharray="none" font-family="Arial" font-size="10pt" font-weight="normal" font-style="normal" d="M-15 60L85 60"/><path stroke-width="2" fill="none" stroke="black" stroke-dasharray="none" font-family="Arial" font-size="10pt" font-weight="normal" font-style="normal" d="M-15 70L85 70"/><rect stroke-width="0.3" fill="black" stroke="black" stroke-dasharray="none" font-family="Arial" font-size="10pt" font-weight="normal" font-style="normal" x="-15" y="29.5" width="1" height="41"/><rect stroke-width="0.3" fill="black" stroke="black" stroke-dasharray="none" font-family="Arial" font-size="10pt" font-weight="normal" font-style="normal" x="85" y="29.5" width="1" height="41"/><path stroke-width="2" fill="none" stroke="black" stroke-dasharray="none" font-family="Arial" font-size="10pt" font-weight="normal" font-style="normal" x="85" y="29.5" width="1" height="41" d="M10.44192 80L28.46016 80"/><path stroke-width="2" fill="none" stroke="black" stroke-dasharray="none" font-family="Arial" font-size="10pt" font-weight="normal" font-style="normal" x="85" y="29.5" width="1" height="41" d="M10.44192 90L28.46016 90"/><path stroke-width="2" fill="none" stroke="black" stroke-dasharray="none" font-family="Arial" font-size="10pt" font-weight="normal" font-style="normal" x="85" y="29.5" width="1" height="41" d="M10.44192 100L28.46016 100"/><g class="vf-stavenote" id="vf-auto2317"><g class="vf-note" pointer-events="bounding-box"><g class="vf-stem" pointer-events="bounding-box"><path stroke-width="1.5" fill="none" stroke="black" stroke-dasharray="none" font-family="Arial" font-size="10pt" font-weight="normal" font-style="normal" x="85" y="29.5" width="1" height="41" d="M24.710160000000002 105L24.710160000000002 70"/></g><g class="vf-notehead" pointer-events="bounding-box"><path stroke-width="0.3" fill="black" stroke="none" stroke-dasharray="none" font-family="Arial" font-size="10pt" font-weight="normal" font-style="normal" x="85" y="29.5" width="1" height="41" d="M13.44192 105M20.79888 99.77712C20.9112 99.77712,21.07968 99.77712,21.10776 99.77712C21.10776 99.77712,21.13584 99.77712,21.13584 99.77712C21.13584 99.77712,21.30432 99.77712,21.44472 99.77712C23.97192 99.91752,25.460160000000002 101.57424,25.460160000000002 103.65216C25.460160000000002 104.66304,25.1232 105.81432,24.2808 106.90944C22.680239999999998 109.0716,20.0688 110.25096,17.79432 110.25096C16.02528 110.25096,14.50896 109.54896,13.77888 108.11688C13.55424 107.55528,13.44192 107.02176,13.44192 106.43208C13.44192 103.37136,16.86768 99.97368,20.79888 99.77712M23.7192 101.32152C23.60688 101.26536,23.46648 101.23728,23.326079999999997 101.23728C22.4556 101.23728,20.99544 101.7708,19.59144 102.72552C16.98 104.35416,14.84592 106.74096,14.76168 108.11688C14.76168 108.11688,14.76168 108.14496,14.76168 108.14496C14.76168 108.62232,15.07056 108.81888000000001,15.60408 108.81888000000001C16.75536 108.81888000000001,18.88944 107.83608,20.85504 106.2636C22.8768 104.66304,24.168480000000002 102.86592,24.168480000000002 101.93928C24.168480000000002 101.6304,24.02808 101.37768,23.7192 101.32152"/></g></g><g class="vf-modifiers"><path stroke-width="0.3" fill="black" stroke="none" stroke-dasharray="none" font-family="Arial" font-size="10pt" font-weight="normal" font-style="normal" x="85" y="29.5" width="1" height="41" d="M3.57456 105M3.35568 87.73584C3.4104 87.70848000000001,3.4651199999999998 87.70848000000001,3.5472 87.70848000000001C3.79344 87.70848000000001,4.01232 87.81792,4.0944 88.0368C4.12176 88.14624,4.12176 88.14624,4.12176 94.52112L4.12176 100.95072L4.14912 100.86864C5.1888 99.99312,6.2832 99.55536000000001,7.32288 99.55536000000001C7.73328 99.55536000000001,8.14368 99.61008,8.554079999999999 99.77424C9.78528 100.18464,10.44192 101.33376,10.44192 102.70176000000001C10.44192 103.41312,10.223040000000001 104.20656,9.81264 105C9.210719999999998 106.0944,8.44464 106.96992,6.31056 108.88512L4.20384 110.8824C3.8207999999999998 111.26544,3.73872 111.26544,3.57456 111.26544C3.32832 111.26544,3.10944 111.12864,3.02736 110.90976L3 110.80032L3 99.50064L3 88.14624L3.02736 88.0368C3.10944 87.92736,3.21888 87.7632,3.35568 87.73584M6.58416 101.41584C6.47472 101.36112,6.31056 101.36112,6.2011199999999995 101.36112C6.11904 101.36112,6.06432 101.36112,6.0096 101.36112C5.29824 101.47056,4.66896 101.90832,4.2312 102.61968L4.12176 102.8112L4.12176 106.01232L4.12176 109.26816L4.20384 109.15872C6.2011199999999995 106.96992,7.5144 104.4528,7.5144 102.78384L7.5144 102.72912C7.5144 101.90832,7.2408 101.55264,6.58416 101.41584"/><path stroke-width="0.3" fill="black" stroke="none" stroke-dasharray="none" font-family="Arial" font-size="10pt" font-weight="normal" font-style="normal" x="85" y="29.5" width="1" height="41" d="M32.46016 105 A2 2 0 0 0 28.460160000000002 105M0 0M28.460160000000002 105 A2 2 0 0 0 32.46016 105M0 0"/></g></g></svg>