<?xml version="1.0" standalone="no"?><svg xmlns="http://www.w3.org/2000/svg" width="40" height="130"><path stroke-width="2" fill="none" stroke="black" stroke-dasharray="none" font-family="Arial" font-size="10pt" font-weight="normal" font-style="normal" d="M-15 30L85 30"/><path stroke-width="2" fill="none" stroke="black" stroke-dasharray="none" font-family="Arial" font-size="10pt" font-weight="normal" font-style="normal" d="M-15 40L85 40"/><path stroke-width="2" fill="none" stroke="black" stroke-dasharray="none" font-family="Arial" font-size="10pt" font-weight="normal" font-style="normal" d="M-15 50L85 50"/><path stroke-width="2" fill="none" stroke="black" stroke-dasharray="none" font-family="Arial" font-size="10pt" font-weight="normal" font-style="normal" d="M-15 60L85 60"/><path stroke-width="2" fill="none" stroke="black" stroke-dasharray="none" font-family="Arial" font-size="10pt" font-weight="normal" font-style="normal" d="M-15 70L85 70"/><rect stroke-width="0.3" fill="black" stroke="black" stroke-dasharray="none" font-family="Arial" font-size="10pt" font-weight="normal" font-style="normal" x="-15" y="29.5" width="1" height="41"/><rect stroke-width="0.3" fill="black" stroke="black" stroke-dasharray="none" font-family="Arial" font-size="10pt" font-weight="normal" font-style="normal" x="85" y="29.5" width="1" height="41"/><g class="vf-stavenote" id="vf-auto4013"><g class="vf-note" pointer-events="bounding-box"><g class="vf-stem" pointer-events="bounding-box"><path stroke-width="1.5" fill="none" stroke="black" stroke-dasharray="none" font-family="Arial" font-size="10pt" font-weight="normal" font-style="normal" x="85" y="29.5" width="1" height="41" d="M14.19192 35L14.19192 70"/></g><g class="vf-notehead" pointer-events="bounding-box"><path stroke-width="0.3" fill="black" stroke="none" stroke-dasharray="none" font-family="Arial" font-size="10pt" font-weight="normal" font-style="normal" x="85" y="29.5" width="1" height="41" d="M13.44192 35M20.79888 29.77712C20.9112 29.77712,21.07968 29.77712,21.10776 29.77712C21.10776 29.77712,21.13584 29.77712,21.13584 29.77712C21.13584 29.77712,21.30432 29.77712,21.44472 29.77712C23.97192 29.91752,25.460160000000002 31.57424,25.460160000000002 33.65216C25.460160000000002 34.66304,25.1232 35.81432,24.2808 36.909440000000004C22.680239999999998 39.071600000000004,20.0688 40.25096,17.79432 40.25096C16.02528 40.25096,14.50896 39.54896,13.77888 38.11688C13.55424 37.55528,13.44192 37.02176,13.44192 36.43208C13.44192 33.37136,16.86768 29.97368,20.79888 29.77712"/></g><g class="vf-flag" pointer-events="bounding-box"><path stroke-width="0.3" fill="black" stroke="none" stroke-dasharray="none" font-family="Arial" font-size="10pt" font-weight="normal" font-style="normal" x="85" y="29.5" width="1" height="41" d="M14.19192 72M20.65032 43.04952C20.70648 43.02144,20.79072 43.02144,20.87496 43.02144C21.07152 43.02144,21.240000000000002 43.16184,21.46464 43.52688C23.45832 46.55952,24.49728 50.041439999999994,24.49728 53.41104C24.49728 54.00072,24.49728 54.56232,24.413040000000002 55.095839999999995C24.076079999999997 58.29696,22.72824 61.21728,20.70648 63.09864C18.54432 65.1204,17.08416 66.74904,15.79248 68.6304C15.0624 69.64128,14.3604 70.8768,14.16384 71.49456C14.0796 71.69112,13.85496 71.88768,13.6584 71.88768L13.60224 71.88768L13.60224 67.53528L13.60224 63.1548L13.74264 63.1548C14.472719999999999 63.1548,15.932879999999999 62.90208,16.8876 62.593199999999996C20.56608 61.3296,23.03712 57.20184,23.03712 52.4844C23.03712 52.09128,23.00904 51.67008,22.98096 51.27696C22.72824 48.834,21.85776 46.27872,20.48184 44.17272C20.34144 43.948080000000004,20.2572 43.72344,20.2572 43.554959999999994C20.2572 43.33032,20.36952 43.133759999999995,20.65032 43.04952"/></g></g><g class="vf-modifiers"><path stroke-width="0.3" fill="black" stroke="none" stroke-dasharray="none" font-family="Arial" font-size="10pt" font-weight="normal" font-style="normal" x="85" y="29.5" width="1" height="41" d="M3.57456 35M3.35568 17.73584C3.4104 17.70848,3.4651199999999998 17.70848,3.5472 17.70848C3.79344 17.70848,4.01232 17.81792,4.0944 18.0368C4.12176 18.146240000000002,4.12176 18.146240000000002,4.12176 24.52112L4.12176 30.95072L4.14912 30.86864C5.1888 29.99312,6.2832 29.55536,7.32288 29.55536C7.73328 29.55536,8.14368 29.61008,8.554079999999999 29.77424C9.78528 30.18464,10.44192 31.33376,10.44192 32.70176C10.44192 33.41312,10.223040000000001 34.20656,9.81264 35C9.210719999999998 36.0944,8.44464 36.96992,6.31056 38.88512L4.20384 40.8824C3.8207999999999998 41.26544,3.73872 41.26544,3.57456 41.26544C3.32832 41.26544,3.10944 41.12864,3.02736 40.90976L3 40.80032L3 29.50064L3 18.146240000000002L3.02736 18.0368C3.10944 17.92736,3.21888 17.7632,3.35568 17.73584M6.58416 31.41584C6.47472 31.36112,6.31056 31.36112,6.2011199999999995 31.36112C6.11904 31.36112,6.06432 31.36112,6.0096 31.36112C5.29824 31.47056,4.66896 31.90832,4.2312 32.61968L4.12176 32.8112L4.12176 36.01232L4.12176 39.26816L4.20384 39.15872C6.2011199999999995 36.96992,7.5144 34.4528,7.5144 32.78384L7.5144 32.72912C7.5144 31.90832,7.2408 31.55264,6.58416 31.41584"/></g></g></svg>