<?xml version="1.0" standalone="no"?><svg xmlns="http://www.w3.org/2000/svg" width="40" height="130"><path stroke-width="2" fill="none" stroke="black" stroke-dasharray="none" font-family="Arial" font-size="10pt" font-weight="normal" font-style="normal" d="M-15 30L85 30"/><path stroke-width="2" fill="none" stroke="black" stroke-dasharray="none" font-family="Arial" font-size="10pt" font-weight="normal" font-style="normal" d="M-15 40L85 40"/><path stroke-width="2" fill="none" stroke="black" stroke-dasharray="none" font-family="Arial" font-size="10pt" font-weight="normal" font-style="normal" d="M-15 50L85 50"/><path stroke-width="2" fill="none" stroke="black" stroke-dasharray="none" font-family="Arial" font-size="10pt" font-weight="normal" font-style="normal" d="M-15 60L85 60"/><path stroke-width="2" fill="none" stroke="black" stroke-dasharray="none" font-family="Arial" font-size="10pt" font-weight="normal" font-style="normal" d="M-15 70L85 70"/><rect stroke-width="0.3" fill="black" stroke="black" stroke-dasharray="none" font-family="Arial" font-size="10pt" font-weight="normal" font-style="normal" x="-15" y="29.5" width="1" height="41"/><rect stroke-width="0.3" fill="black" stroke="black" stroke-dasharray="none" font-family="Arial" font-size="10pt" font-weight="normal" font-style="normal" x="85" y="29.5" width="1" height="41"/><g class="vf-stavenote" id="vf-auto5503"><g class="vf-note" pointer-events="bounding-box"><g class="vf-stem" pointer-events="bounding-box"><path stroke-width="1.5" fill="none" stroke="black" stroke-dasharray="none" font-family="Arial" font-size="10pt" font-weight="normal" font-style="normal" x="85" y="29.5" width="1" height="41" d="M14.19192 35L14.19192 70"/></g><g class="vf-notehead" pointer-events="bounding-box"><path stroke-width="0.3" fill="black" stroke="none" stroke-dasharray="none" font-family="Arial" font-size="10pt" font-weight="normal" font-style="normal" x="85" y="29.5" width="1" height="41" d="M13.44192 35M20.79888 29.77712C20.9112 29.77712,21.07968 29.77712,21.10776 29.77712C21.10776 29.77712,21.13584 29.77712,21.13584 29.77712C21.13584 29.77712,21.30432 29.77712,21.44472 29.77712C23.97192 29.91752,25.460160000000002 31.57424,25.460160000000002 33.65216C25.460160000000002 34.66304,25.1232 35.81432,24.2808 36.909440000000004C22.680239999999998 39.071600000000004,20.0688 40.25096,17.79432 40.25096C16.02528 40.25096,14.50896 39.54896,13.77888 38.11688C13.55424 37.55528,13.44192 37.02176,13.44192 36.43208C13.44192 33.37136,16.86768 29.97368,20.79888 29.77712"/></g><g class="vf-flag" pointer-events="bounding-box"><path stroke-width="0.3" fill="black" stroke="none" stroke-dasharray="none" font-family="Arial" font-size="10pt" font-weight="normal" font-style="normal" x="85" y="29.5" width="1" height="41" d="M14.19192 72M22.67208 43.04952C22.72824 43.02144,22.81248 43.02144,22.84056 43.02144C23.12136 43.02144,23.31792 43.16184,23.45832 43.47072C24.048000000000002 44.7624,24.35688 46.166399999999996,24.35688 47.65464C24.35688 48.86208,24.10416 50.0976,23.73912 51.27696L23.6268 51.585840000000005L23.73912 51.866640000000004C24.16032 52.98984,24.35688 54.19728,24.35688 55.40472C24.35688 58.07232,23.31792 60.73992,21.40848 62.93016C21.01536 63.40752,20.56608 63.8568,19.92024 64.36224C17.814239999999998 66.21552,16.0452 68.26536,14.75352 70.42752C14.52888 70.76448,14.19192 71.38224,14.16384 71.49456C14.0796 71.74728,13.85496 71.88768,13.6584 71.88768L13.60224 71.88768L13.60224 68.0688L13.60224 64.24992L13.85496 64.22184C15.9048 63.91296,17.75808 63.32328,18.88128 62.64936C21.54888 61.10496,23.14944 58.21272,23.14944 55.20816C23.14944 54.5904,23.09328 53.97264,22.924799999999998 53.354879999999994L22.896720000000002 53.10216L22.72824 53.354879999999994C22.02624 54.5904,21.21192 55.517039999999994,19.92024 56.61216C17.814239999999998 58.43736,16.0452 60.51528,14.75352 62.64936C14.52888 63.0144,14.19192 63.63216,14.16384 63.80064C14.0796 63.9972,13.85496 64.1376,13.6584 64.1376L13.60224 64.1376L13.60224 60.31872L13.60224 56.49984L13.85496 56.47176C15.9048 56.16288,17.75808 55.5732,18.88128 54.899280000000005C21.60504 53.29872,23.14944 50.3784,23.14944 47.458079999999995C23.14944 46.33488,22.924799999999998 45.21168,22.44744 44.144639999999995C22.278959999999998 43.80768,22.278959999999998 43.72344,22.278959999999998 43.61112C22.278959999999998 43.33032,22.44744 43.133759999999995,22.67208 43.04952"/></g></g><g class="vf-modifiers"><path stroke-width="0.3" fill="black" stroke="none" stroke-dasharray="none" font-family="Arial" font-size="10pt" font-weight="normal" font-style="normal" x="85" y="29.5" width="1" height="41" d="M3.57456 35M3.35568 17.73584C3.4104 17.70848,3.4651199999999998 17.70848,3.5472 17.70848C3.79344 17.70848,4.01232 17.81792,4.0944 18.0368C4.12176 18.146240000000002,4.12176 18.146240000000002,4.12176 24.52112L4.12176 30.95072L4.14912 30.86864C5.1888 29.99312,6.2832 29.55536,7.32288 29.55536C7.73328 29.55536,8.14368 29.61008,8.554079999999999 29.77424C9.78528 30.18464,10.44192 31.33376,10.44192 32.70176C10.44192 33.41312,10.223040000000001 34.20656,9.81264 35C9.210719999999998 36.0944,8.44464 36.96992,6.31056 38.88512L4.20384 40.8824C3.8207999999999998 41.26544,3.73872 41.26544,3.57456 41.26544C3.32832 41.26544,3.10944 41.12864,3.02736 40.90976L3 40.80032L3 29.50064L3 18.146240000000002L3.02736 18.0368C3.10944 17.92736,3.21888 17.7632,3.35568 17.73584M6.58416 31.41584C6.47472 31.36112,6.31056 31.36112,6.2011199999999995 31.36112C6.11904 31.36112,6.06432 31.36112,6.0096 31.36112C5.29824 31.47056,4.66896 31.90832,4.2312 32.61968L4.12176 32.8112L4.12176 36.01232L4.12176 39.26816L4.20384 39.15872C6.2011199999999995 36.96992,7.5144 34.4528,7.5144 32.78384L7.5144 32.72912C7.5144 31.90832,7.2408 31.55264,6.58416 31.41584"/><path stroke-width="0.3" fill="black" stroke="none" stroke-dasharray="none" font-family="Arial" font-size="10pt" font-weight="normal" font-style="normal" x="85" y="29.5" width="1" height="41" d="M32.46016 35 A2 2 0 0 0 28.460160000000002 35M0 0M28.460160000000002 35 A2 2 0 0 0 32.46016 35M0 0"/></g></g></svg>