<?xml version="1.0" encoding="UTF-8" standalone="no"?>
<!-- Created with Inkscape (http://www.inkscape.org/) -->

<svg
   xmlns:dc="http://purl.org/dc/elements/1.1/"
   xmlns:cc="http://creativecommons.org/ns#"
   xmlns:rdf="http://www.w3.org/1999/02/22-rdf-syntax-ns#"
   xmlns:svg="http://www.w3.org/2000/svg"
   xmlns="http://www.w3.org/2000/svg"
   xmlns:sodipodi="http://sodipodi.sourceforge.net/DTD/sodipodi-0.dtd"
   xmlns:inkscape="http://www.inkscape.org/namespaces/inkscape"
   width="73.389999mm"
   height="84.667mm"
   viewBox="0 0 73.389999 84.667"
   version="1.1"
   id="svg5163"
   inkscape:version="0.92.1 r15371"
   sodipodi:docname="minion.svg">
  <defs
     id="defs5157" />
  <sodipodi:namedview
     id="base"
     pagecolor="#ffffff"
     bordercolor="#666666"
     borderopacity="1.0"
     inkscape:pageopacity="0.0"
     inkscape:pageshadow="2"
     inkscape:zoom="0.35"
     inkscape:cx="-292.85714"
     inkscape:cy="560"
     inkscape:document-units="mm"
     inkscape:current-layer="layer1"
     showgrid="false"
     inkscape:window-width="1366"
     inkscape:window-height="745"
     inkscape:window-x="-8"
     inkscape:window-y="-8"
     inkscape:window-maximized="1" />
  <metadata
     id="metadata5160">
    <rdf:RDF>
      <cc:Work
         rdf:about="">
        <dc:format>image/svg+xml</dc:format>
        <dc:type
           rdf:resource="http://purl.org/dc/dcmitype/StillImage" />
        <dc:title></dc:title>
      </cc:Work>
    </rdf:RDF>
  </metadata>
  <g
     inkscape:label="Layer 1"
     inkscape:groupmode="layer"
     id="layer1"
     transform="translate(0,-212.333)">
    <path
       inkscape:connector-curvature="0"
       style="fill:#ffc107;stroke-width:0.26458332"
       d="M 36.691095,212.33333 C 17.996167,212.35503 2.846125,227.50507 2.82443,246.2 c 0,0.71676 0,1.43378 0.08467,2.1336 -0.05636,0.22516 -0.08493,0.45641 -0.08467,0.68871 v 33.86667 c 5.29e-4,0.8501 0.3841749,1.65444 1.0443099,2.18995 9.4416561,7.27816 20.9108141,11.44376 32.8223551,11.92107 11.911541,-0.47731 23.380964,-4.64291 32.822355,-11.92107 0.66014,-0.53551 1.04378,-1.34011 1.04431,-2.18995 V 246.2 c -0.022,-18.69493 -15.171736,-33.84471 -33.866665,-33.86667 z"
       id="path24" />
    <circle
       style="fill:#eceff1;stroke-width:0.26458332"
       cx="36.691093"
       cy="246.21693"
       r="19.755644"
       id="circle26" />
    <path
       inkscape:connector-curvature="0"
       style="fill:#455a64;stroke-width:0.26458332"
       d="m 36.691095,268.78907 c -12.469283,0 -22.577689,-10.10841 -22.577689,-22.57769 0,-12.46929 10.108406,-22.57769 22.577689,-22.57769 12.469283,0 22.577689,10.1084 22.577689,22.57769 0,12.46928 -10.108406,22.57769 -22.577689,22.57769 z m 0,-39.51103 c -9.351963,0 -16.933333,7.58138 -16.933333,16.93334 0,9.35196 7.58137,16.93333 16.933333,16.93333 9.351962,0 16.933333,-7.58137 16.933333,-16.93333 0,-9.35196 -7.581371,-16.93334 -16.933333,-16.93334 0,0 0,0 0,0 z"
       id="path28" />
    <path
       inkscape:connector-curvature="0"
       style="fill:#607d8b;stroke-width:0.26458332"
       d="m 36.691095,251.85573 c -3.117321,0 -5.644357,-2.52703 -5.644357,-5.64435 0,-3.11732 2.527036,-5.64436 5.644357,-5.64436 3.117321,0 5.644356,2.52704 5.644356,5.64436 0,3.11732 -2.527035,5.64435 -5.644356,5.64435 z"
       id="path30" />
    <g
       transform="matrix(0.26458333,0,0,0.26458333,-29.106017,210.58814)"
       id="g38">
      <path
         style="fill:#455a64"
         d="m 376.682,155.972 c -1.267,0.005 -2.525,-0.219 -3.712,-0.661 -15.958,-5.759 -32.679,-9.131 -49.621,-10.005 -5.891,0 -10.667,-4.776 -10.667,-10.667 0,-5.891 4.776,-10.667 10.667,-10.667 19.487,0.855 38.73,4.675 57.067,11.328 5.526,2.042 8.35,8.177 6.308,13.703 -1.553,4.201 -5.564,6.984 -10.042,6.969 z"
         id="path32"
         inkscape:connector-curvature="0" />
      <path
         style="fill:#455a64"
         d="m 120.682,155.972 c -5.891,0.005 -10.671,-4.767 -10.675,-10.658 -0.004,-4.491 2.806,-8.503 7.027,-10.035 18.334,-6.554 37.535,-10.364 56.981,-11.307 5.891,0 10.667,4.776 10.667,10.667 0,5.891 -4.776,10.667 -10.667,10.667 -16.956,0.95 -33.688,4.327 -49.685,10.027 -1.17,0.424 -2.404,0.64 -3.648,0.639 z"
         id="path34"
         inkscape:connector-curvature="0" />
      <path
         style="fill:#455a64"
         d="m 248.682,283.972 c -21.892,-1.827 -42.762,-10.055 -60.011,-23.659 -4.506,-3.795 -5.083,-10.524 -1.289,-15.03 3.657,-4.343 10.075,-5.06 14.601,-1.632 13.488,10.566 29.665,17.143 46.699,18.987 17.056,-1.72 33.254,-8.319 46.656,-19.008 4.601,-3.682 11.315,-2.937 14.997,1.664 3.682,4.601 2.937,11.315 -1.664,14.997 v 0 c -17.24,13.609 -38.103,21.844 -59.989,23.681 z"
         id="path36"
         inkscape:connector-curvature="0" />
    </g>
  </g>
</svg>
