<?xml version="1.0" encoding="UTF-8" standalone="no"?>
<!-- Generator: Adobe Illustrator 15.1.0, SVG Export Plug-In . SVG Version: 6.00 Build 0)  -->

<svg
   xmlns:dc="http://purl.org/dc/elements/1.1/"
   xmlns:cc="http://creativecommons.org/ns#"
   xmlns:rdf="http://www.w3.org/1999/02/22-rdf-syntax-ns#"
   xmlns:svg="http://www.w3.org/2000/svg"
   xmlns="http://www.w3.org/2000/svg"
   xmlns:sodipodi="http://sodipodi.sourceforge.net/DTD/sodipodi-0.dtd"
   xmlns:inkscape="http://www.inkscape.org/namespaces/inkscape"
   viewBox="0 0 170.25003 57.000051"
   width="227"
   xml:space="preserve"
   x="0px"
   id="Layer_2"
   y="0px"
   version="1.1"
   gorn="0"
   height="76"
   enable-background="new 0 0 56.69 170.08"
   sodipodi:docname="moist.svg"
   inkscape:version="0.92.1 r15371"><metadata
     id="metadata42"><rdf:RDF><cc:Work
         rdf:about=""><dc:format>image/svg+xml</dc:format><dc:type
           rdf:resource="http://purl.org/dc/dcmitype/StillImage" /><dc:title></dc:title></cc:Work></rdf:RDF></metadata><defs
     id="defs40" /><sodipodi:namedview
     pagecolor="#ffffff"
     bordercolor="#666666"
     borderopacity="1"
     objecttolerance="10"
     gridtolerance="10"
     guidetolerance="10"
     inkscape:pageopacity="0"
     inkscape:pageshadow="2"
     inkscape:window-width="1366"
     inkscape:window-height="745"
     id="namedview38"
     showgrid="false"
     units="px"
     inkscape:zoom="2.0813754"
     inkscape:cx="128.03197"
     inkscape:cy="91.181935"
     inkscape:window-x="-8"
     inkscape:window-y="-8"
     inkscape:window-maximized="1"
     inkscape:current-layer="Layer_2" /><desc
     id="desc2"><referenceFile>FC28_P_BREADBOARD_v3.svg</referenceFile></desc><path
     style="fill:#800000"
     inkscape:connector-curvature="0"
     d="m 0,4.193016 0,48.923 c 0.777,1.818 2.3,3.24 4.185,3.884 h 36.982 v -19.72 c -0.092,-0.004 -0.184,-0.007 -0.275,-0.015 -4.52,-0.15 -8.141,-3.942 -8.141,-8.61 0,-4.695 3.663,-8.505 8.218,-8.614 v -0.021 h 0.198 v -19.71 H 4.185 c -1.885,0.643 -3.408,2.066 -4.185,3.883 z m 13.375,44.494 c 0,2.555 -2.071,4.625 -4.625,4.625 -2.554,0 -4.625,-2.07 -4.625,-4.625 0,-2.555 2.071,-4.625 4.625,-4.625 2.554,0 4.625,2.071 4.625,4.625 z m -4.764,-16.432 c 0,0.661 -0.536,1.197 -1.197,1.197 -0.661,0 -1.197,-0.536 -1.197,-1.197 0,-0.661 0.536,-1.197 1.197,-1.197 0.661,0 1.197,0.536 1.197,1.197 z m 0,-7.199 c 0,0.662 -0.536,1.197 -1.198,1.197 -0.662,0 -1.198,-0.535 -1.198,-1.197 0,-0.662 0.536,-1.197 1.198,-1.197 0.662,0 1.198,0.535 1.198,1.197 z m 4.764,-16.306 c 0,2.555 -2.071,4.625 -4.625,4.625 -2.554,0 -4.625,-2.07 -4.625,-4.625 0,-2.555 2.071,-4.625 4.625,-4.625 2.554,0 4.625,2.07 4.625,4.625 z"
     id="path4" /><g
     id="g14"
     transform="rotate(-90,28.500008,28.500008)"><polygon
       points="19.729,147.5 19.729,41.167 0,41.167 0,147.5 8.35,170.08 11.611,170.08 "
       id="polygon6"
       style="fill:#7e847e" /><g
       id="g12"><polygon
         points="56.69,147.5 56.667,150 56.667,170.08 56.69,170.08 "
         id="polygon8"
         style="fill:#7e847e" /><polygon
         points="56.69,147.5 56.69,41.167 36.979,41.167 36.979,147.5 45.063,170.08 48.354,170.08 "
         id="polygon10"
         style="fill:#7e847e" /></g></g><g
     id="g20"
     transform="rotate(-90,28.500008,28.500008)"><polygon
       points="17,147.5 17,41.167 2.5,41.167 2.5,147.5 9.833,167 "
       id="polygon16"
       style="fill:#4c5456" /><polygon
       points="54.166,147.5 54.166,41.167 39.666,41.167 39.666,147.5 46.999,167 "
       id="polygon18"
       style="fill:#4c5456" /></g><rect
     style="fill:none;stroke:#ffffff;stroke-width:0.64999998;stroke-miterlimit:10"
     id="rect22"
     height="6.651"
     stroke-miterlimit="10"
     y="4.0879998"
     x="-35.748016"
     width="14.186"
     transform="rotate(-90)" /><g
     id="g30"
     transform="rotate(-90,28.750758,8.520758)"><g
       id="g28"><g
         id="g26"><text
           style="font-size:7px;font-family:DroidSans;fill:#ffffff"
           id="text24"
           font-size="7">Moist</text>
</g></g></g><g
     id="g35"
     transform="rotate(-90,28.500008,28.500008)"><path
       d="m 24.745,5.021 c -1.322,0 -2.393,1.07 -2.393,2.393 0,1.323 1.07,2.394 2.393,2.394 1.323,0 2.393,-1.071 2.393,-2.394 0,-1.323 -1.071,-2.393 -2.393,-2.393 z m 0,3.589 c -0.662,0 -1.197,-0.535 -1.197,-1.197 0,-0.66 0.535,-1.197 1.197,-1.197 0.66,0 1.197,0.537 1.197,1.197 0,0.662 -0.537,1.197 -1.197,1.197 z"
       id="connector8pin"
       gorn="0.5.0"
       inkscape:connector-curvature="0"
       style="fill:#9a916c" /><path
       d="m 31.945,5.021 c -1.322,0 -2.395,1.07 -2.395,2.393 0,1.323 1.072,2.394 2.395,2.394 1.32,0 2.393,-1.071 2.393,-2.394 0,-1.323 -1.072,-2.393 -2.393,-2.393 z m 0,3.589 c -0.662,0 -1.197,-0.535 -1.197,-1.197 0,-0.66 0.535,-1.197 1.197,-1.197 0.66,0 1.195,0.537 1.195,1.197 10e-4,0.662 -0.535,1.197 -1.195,1.197 z"
       id="connector9pin"
       gorn="0.5.1"
       inkscape:connector-curvature="0"
       style="fill:#9a916c" /></g></svg>