<?xml version="1.0" encoding="UTF-8" standalone="no"?>
<!-- Generator: Adobe Illustrator 16.0.0, SVG Export Plug-In . SVG Version: 6.00 Build 0)  -->

<svg
   xmlns:dc="http://purl.org/dc/elements/1.1/"
   xmlns:cc="http://creativecommons.org/ns#"
   xmlns:rdf="http://www.w3.org/1999/02/22-rdf-syntax-ns#"
   xmlns:svg="http://www.w3.org/2000/svg"
   xmlns="http://www.w3.org/2000/svg"
   xmlns:sodipodi="http://sodipodi.sourceforge.net/DTD/sodipodi-0.dtd"
   xmlns:inkscape="http://www.inkscape.org/namespaces/inkscape"
   version="1.1"
   id="Capa_1"
   x="0px"
   y="0px"
   width="64"
   height="64"
   viewBox="0 0 57.6 57.6"
   xml:space="preserve"
   sodipodi:docname="oled_image.svg"
   inkscape:version="0.92.1 r15371"><metadata
     id="metadata41"><rdf:RDF><cc:Work
         rdf:about=""><dc:format>image/svg+xml</dc:format><dc:type
           rdf:resource="http://purl.org/dc/dcmitype/StillImage" /><dc:title></dc:title></cc:Work></rdf:RDF></metadata><defs
     id="defs39" /><sodipodi:namedview
     pagecolor="#ffffff"
     bordercolor="#666666"
     borderopacity="1"
     objecttolerance="10"
     gridtolerance="10"
     guidetolerance="10"
     inkscape:pageopacity="0"
     inkscape:pageshadow="2"
     inkscape:window-width="1366"
     inkscape:window-height="745"
     id="namedview37"
     showgrid="false"
     inkscape:zoom="2.61"
     inkscape:cx="48.539335"
     inkscape:cy="9.945763"
     inkscape:window-x="-8"
     inkscape:window-y="-8"
     inkscape:window-maximized="1"
     inkscape:current-layer="Capa_1" /><g
     id="g6"
     transform="translate(0,-451.2)" /><g
     id="g8"
     transform="translate(0,-451.2)" /><g
     id="g10"
     transform="translate(0,-451.2)" /><g
     id="g12"
     transform="translate(0,-451.2)" /><g
     id="g14"
     transform="translate(0,-451.2)" /><g
     id="g16"
     transform="translate(0,-451.2)" /><g
     id="g18"
     transform="translate(0,-451.2)" /><g
     id="g20"
     transform="translate(0,-451.2)" /><g
     id="g22"
     transform="translate(0,-451.2)" /><g
     id="g24"
     transform="translate(0,-451.2)" /><g
     id="g26"
     transform="translate(0,-451.2)" /><g
     id="g28"
     transform="translate(0,-451.2)" /><g
     id="g30"
     transform="translate(0,-451.2)" /><g
     id="g32"
     transform="translate(0,-451.2)" /><g
     id="g34"
     transform="translate(0,-451.2)" /><g
     id="g4-1-3-3"
     transform="matrix(0.1125,0,0,0.13846154,0,-6.6461546)"><path
       d="M 0,48 V 464 H 512 V 48 Z M 480,432 H 32 V 80 H 480 Z M 352,160 c 0,26.51 21.49,48 48,48 26.51,0 48,-21.49 48,-48 0,-26.51 -21.49,-48 -48,-48 -26.51,0 -48,21.49 -48,48 z m 96,240 H 64 l 96,-256 128,160 64,-48 z"
       id="path2-6-0-0"
       inkscape:connector-curvature="0" /></g></svg>