<?xml version="1.0" encoding="UTF-8" standalone="no"?>
<!-- Generator: Adobe Illustrator 16.0.0, SVG Export Plug-In . SVG Version: 6.00 Build 0)  -->

<svg
   xmlns:dc="http://purl.org/dc/elements/1.1/"
   xmlns:cc="http://creativecommons.org/ns#"
   xmlns:rdf="http://www.w3.org/1999/02/22-rdf-syntax-ns#"
   xmlns:svg="http://www.w3.org/2000/svg"
   xmlns="http://www.w3.org/2000/svg"
   xmlns:sodipodi="http://sodipodi.sourceforge.net/DTD/sodipodi-0.dtd"
   xmlns:inkscape="http://www.inkscape.org/namespaces/inkscape"
   version="1.1"
   id="Capa_1"
   x="0px"
   y="0px"
   width="128"
   height="64"
   viewBox="0 0 115.2 57.6"
   xml:space="preserve"
   sodipodi:docname="oled_large_icons.svg"
   inkscape:version="0.92.1 r15371"><metadata
     id="metadata41"><rdf:RDF><cc:Work
         rdf:about=""><dc:format>image/svg+xml</dc:format><dc:type
           rdf:resource="http://purl.org/dc/dcmitype/StillImage" /><dc:title></dc:title></cc:Work></rdf:RDF></metadata><defs
     id="defs39" /><sodipodi:namedview
     pagecolor="#ffffff"
     bordercolor="#666666"
     borderopacity="1"
     objecttolerance="10"
     gridtolerance="10"
     guidetolerance="10"
     inkscape:pageopacity="0"
     inkscape:pageshadow="2"
     inkscape:window-width="1366"
     inkscape:window-height="745"
     id="namedview37"
     showgrid="false"
     inkscape:zoom="3.6875"
     inkscape:cx="44.317413"
     inkscape:cy="36.966417"
     inkscape:window-x="-8"
     inkscape:window-y="-8"
     inkscape:window-maximized="1"
     inkscape:current-layer="Capa_1" /><g
     id="g6"
     transform="translate(0,-451.2)" /><g
     id="g8"
     transform="translate(0,-451.2)" /><g
     id="g10"
     transform="translate(0,-451.2)" /><g
     id="g12"
     transform="translate(0,-451.2)" /><g
     id="g14"
     transform="translate(0,-451.2)" /><g
     id="g16"
     transform="translate(0,-451.2)" /><g
     id="g18"
     transform="translate(0,-451.2)" /><g
     id="g20"
     transform="translate(0,-451.2)" /><g
     id="g22"
     transform="translate(0,-451.2)" /><g
     id="g24"
     transform="translate(0,-451.2)" /><g
     id="g26"
     transform="translate(0,-451.2)" /><g
     id="g28"
     transform="translate(0,-451.2)" /><g
     id="g30"
     transform="translate(0,-451.2)" /><g
     id="g32"
     transform="translate(0,-451.2)" /><g
     id="g34"
     transform="translate(0,-451.2)" /><rect
     style="opacity:1;fill:none;fill-opacity:1;fill-rule:evenodd;stroke:#000000;stroke-width:3.4742229;stroke-linecap:round;stroke-linejoin:round;stroke-miterlimit:4;stroke-dasharray:none;stroke-dashoffset:0;stroke-opacity:1;paint-order:markers fill stroke"
     id="rect4500"
     width="111.72578"
     height="54.125778"
     x="1.7371114"
     y="1.7371124" /><rect
     style="opacity:1;fill:none;fill-opacity:1;fill-rule:evenodd;stroke:#ff0000;stroke-width:2.19105363;stroke-linecap:round;stroke-linejoin:round;stroke-miterlimit:4;stroke-dasharray:none;stroke-dashoffset:0;stroke-opacity:1;paint-order:markers fill stroke"
     id="rect4500-3-3-13"
     width="19.408945"
     height="19.408947"
     x="3.7955267"
     y="19.095526" /><rect
     style="opacity:1;fill:none;fill-opacity:1;fill-rule:evenodd;stroke:#ff0000;stroke-width:2.19105363;stroke-linecap:round;stroke-linejoin:round;stroke-miterlimit:4;stroke-dasharray:none;stroke-dashoffset:0;stroke-opacity:1;paint-order:markers fill stroke"
     id="rect4500-3-3-13-1"
     width="19.408945"
     height="19.408947"
     x="91.995529"
     y="19.095526" /><g
     id="g4-1-3"
     transform="matrix(0.03582546,0,0,0.03582546,4.3446792,19.826987)"><path
       d="M 0,48 V 464 H 512 V 48 Z M 480,432 H 32 V 80 H 480 Z M 352,160 c 0,26.51 21.49,48 48,48 26.51,0 48,-21.49 48,-48 0,-26.51 -21.49,-48 -48,-48 -26.51,0 -48,21.49 -48,48 z m 96,240 H 64 l 96,-256 128,160 64,-48 z"
       id="path2-6-0"
       inkscape:connector-curvature="0" /></g><g
     id="g4-1-3-4"
     transform="matrix(0.03582546,0,0,0.03582546,92.7,19.826987)"><path
       d="M 0,48 V 464 H 512 V 48 Z M 480,432 H 32 V 80 H 480 Z M 352,160 c 0,26.51 21.49,48 48,48 26.51,0 48,-21.49 48,-48 0,-26.51 -21.49,-48 -48,-48 -26.51,0 -48,21.49 -48,48 z m 96,240 H 64 l 96,-256 128,160 64,-48 z"
       id="path2-6-0-4"
       inkscape:connector-curvature="0" /></g></svg>