<?xml version="1.0" encoding="UTF-8" standalone="no"?>
<!-- Generator: Adobe Illustrator 19.0.0, SVG Export Plug-In . SVG Version: 6.00 Build 0)  -->

<svg
   xmlns:dc="http://purl.org/dc/elements/1.1/"
   xmlns:cc="http://creativecommons.org/ns#"
   xmlns:rdf="http://www.w3.org/1999/02/22-rdf-syntax-ns#"
   xmlns:svg="http://www.w3.org/2000/svg"
   xmlns="http://www.w3.org/2000/svg"
   xmlns:sodipodi="http://sodipodi.sourceforge.net/DTD/sodipodi-0.dtd"
   xmlns:inkscape="http://www.inkscape.org/namespaces/inkscape"
   version="1.1"
   id="Layer_1"
   x="0px"
   y="0px"
   viewBox="0 0 512 512"
   style="enable-background:new 0 0 512 512;"
   xml:space="preserve"
   sodipodi:docname="option_list_selected.svg"
   inkscape:version="0.92.1 r15371"><metadata
     id="metadata73"><rdf:RDF><cc:Work
         rdf:about=""><dc:format>image/svg+xml</dc:format><dc:type
           rdf:resource="http://purl.org/dc/dcmitype/StillImage" /><dc:title></dc:title></cc:Work></rdf:RDF></metadata><defs
     id="defs71" /><sodipodi:namedview
     pagecolor="#ffffff"
     bordercolor="#666666"
     borderopacity="1"
     objecttolerance="10"
     gridtolerance="10"
     guidetolerance="10"
     inkscape:pageopacity="0"
     inkscape:pageshadow="2"
     inkscape:window-width="1366"
     inkscape:window-height="745"
     id="namedview69"
     showgrid="false"
     inkscape:zoom="0.4609375"
     inkscape:cx="-244.26448"
     inkscape:cy="378.96947"
     inkscape:window-x="-8"
     inkscape:window-y="-8"
     inkscape:window-maximized="1"
     inkscape:current-layer="Layer_1" /><g
     id="g6"><g
       id="g4"><rect
         x="146.286"
         y="364.606"
         width="365.714"
         height="73.143"
         id="rect2" /></g></g><g
     id="g12"><g
       id="g10"><rect
         x="146.286"
         y="220.537"
         width="365.714"
         height="73.143"
         id="rect8" /></g></g><g
     id="g18"><g
       id="g16"><rect
         x="146.286"
         y="72.035"
         width="365.714"
         height="73.143"
         id="rect14" /></g></g><g
     id="g24"><g
       id="g22"><rect
         y="366.823"
         width="73.143"
         height="73.143"
         id="rect20" /></g></g><g
     id="g30"><g
       id="g28"><rect
         y="220.537"
         width="73.143"
         height="73.143"
         id="rect26" /></g></g><g
     id="g36"><g
       id="g34"><rect
         y="72.035"
         width="73.143"
         height="73.143"
         id="rect32" /></g></g><g
     id="g38" /><g
     id="g40" /><g
     id="g42" /><g
     id="g44" /><g
     id="g46" /><g
     id="g48" /><g
     id="g50" /><g
     id="g52" /><g
     id="g54" /><g
     id="g56" /><g
     id="g58" /><g
     id="g60" /><g
     id="g62" /><g
     id="g64" /><g
     id="g66" /><path
     style="opacity:0.98999999;fill:#999999;fill-opacity:1;fill-rule:evenodd;stroke:none;stroke-width:16.39930725;stroke-linecap:round;stroke-linejoin:round;stroke-miterlimit:4;stroke-dasharray:none;stroke-dashoffset:0;stroke-opacity:1;paint-order:markers fill stroke"
     d="M 1.3016949,108.69153 V 72.894915 h 35.7966101 35.79661 v 35.796615 35.79661 H 37.098305 1.3016949 Z"
     id="path4550"
     inkscape:connector-curvature="0" /><path
     style="opacity:0.98999999;fill:#999999;fill-opacity:1;fill-rule:evenodd;stroke:none;stroke-width:16.39930725;stroke-linecap:round;stroke-linejoin:round;stroke-miterlimit:4;stroke-dasharray:none;stroke-dashoffset:0;stroke-opacity:1;paint-order:markers fill stroke"
     d="M 146.65763,108.69153 V 72.894915 H 328.89492 511.1322 v 35.796615 35.79661 H 328.89492 146.65763 Z"
     id="path4552"
     inkscape:connector-curvature="0" /><path
     style="opacity:0.98999999;fill:#999999;fill-opacity:1;fill-rule:evenodd;stroke:none;stroke-width:16.39930725;stroke-linecap:round;stroke-linejoin:round;stroke-miterlimit:4;stroke-dasharray:none;stroke-dashoffset:0;stroke-opacity:1;paint-order:markers fill stroke"
     d="m 1.3016949,257.30169 v -34.71186 h 35.7966101 35.79661 v 34.71186 34.71187 H 37.098305 1.3016949 Z"
     id="path4554"
     inkscape:connector-curvature="0" /><path
     style="opacity:0.98999999;fill:#999999;fill-opacity:1;fill-rule:evenodd;stroke:none;stroke-width:16.39930725;stroke-linecap:round;stroke-linejoin:round;stroke-miterlimit:4;stroke-dasharray:none;stroke-dashoffset:0;stroke-opacity:1;paint-order:markers fill stroke"
     d="M 146.65763,257.30169 V 222.58983 H 328.89492 511.1322 v 34.71186 34.71187 H 328.89492 146.65763 Z"
     id="path4556"
     inkscape:connector-curvature="0" /><path
     style="opacity:0.98999999;fill:#999999;fill-opacity:1;fill-rule:evenodd;stroke:none;stroke-width:16.39930725;stroke-linecap:round;stroke-linejoin:round;stroke-miterlimit:4;stroke-dasharray:none;stroke-dashoffset:0;stroke-opacity:1;paint-order:markers fill stroke"
     d="m 1.3016949,403.74237 v -35.79661 h 35.7966101 35.79661 v 35.79661 35.79661 H 37.098305 1.3016949 Z"
     id="path4558"
     inkscape:connector-curvature="0" /><path
     style="opacity:0.98999999;fill:#999999;fill-opacity:1;fill-rule:evenodd;stroke:#999999;stroke-width:16.39930725;stroke-linecap:round;stroke-linejoin:round;stroke-miterlimit:4;stroke-dasharray:none;stroke-dashoffset:0;stroke-opacity:1;paint-order:markers fill stroke"
     d="M 146.65763,401.57288 V 365.77627 H 328.89492 511.1322 v 35.79661 35.79661 H 328.89492 146.65763 Z"
     id="path4560"
     inkscape:connector-curvature="0" /><path
     style="opacity:0.98999999;fill:#000000;fill-opacity:1;fill-rule:evenodd;stroke:#000000;stroke-width:16.39930725;stroke-linecap:round;stroke-linejoin:round;stroke-miterlimit:4;stroke-dasharray:none;stroke-dashoffset:0;stroke-opacity:1;paint-order:markers fill stroke"
     d="M 1.3016949,107.60678 V 70.725424 h 35.7966101 35.79661 v 36.881356 36.88136 H 37.098305 1.3016949 Z"
     id="path4562"
     inkscape:connector-curvature="0" /><path
     style="opacity:0.98999999;fill:#000000;fill-opacity:1;fill-rule:evenodd;stroke:#000000;stroke-width:16.39930725;stroke-linecap:round;stroke-linejoin:round;stroke-miterlimit:4;stroke-dasharray:none;stroke-dashoffset:0;stroke-opacity:1;paint-order:markers fill stroke"
     d="M 146.65763,107.59446 V 70.70078 l 182.77966,0.554695 182.77966,0.554694 0.59483,36.338981 0.59483,36.33899 H 330.03212 146.65763 Z"
     id="path4564"
     inkscape:connector-curvature="0" /><path
     style="opacity:0.98999999;fill:#008000;fill-opacity:1;fill-rule:evenodd;stroke:#008000;stroke-width:16.39930725;stroke-linecap:round;stroke-linejoin:round;stroke-miterlimit:4;stroke-dasharray:none;stroke-dashoffset:0;stroke-opacity:1;paint-order:markers fill stroke"
     d="m 1.3016949,257.30169 v -34.71186 h 35.7966101 35.79661 v 34.71186 34.71187 H 37.098305 1.3016949 Z"
     id="path4566"
     inkscape:connector-curvature="0" /><path
     style="opacity:0.98999999;fill:#999999;fill-opacity:1;fill-rule:evenodd;stroke:#999999;stroke-width:16.39930725;stroke-linecap:round;stroke-linejoin:round;stroke-miterlimit:4;stroke-dasharray:none;stroke-dashoffset:0;stroke-opacity:1;paint-order:markers fill stroke"
     d="m 146.65763,257.32599 v -34.68756 l 183.32223,-0.56667 183.32223,-0.56668 -2e-4,35.25424 -2e-4,35.25424 H 329.97966 146.65763 Z"
     id="path4568"
     inkscape:connector-curvature="0" /><path
     style="opacity:0.98999999;fill:#000000;fill-opacity:1;fill-rule:evenodd;stroke:#000000;stroke-width:16.39930725;stroke-linecap:round;stroke-linejoin:round;stroke-miterlimit:4;stroke-dasharray:none;stroke-dashoffset:0;stroke-opacity:1;paint-order:markers fill stroke"
     d="m 1.3016949,403.74237 v -35.79661 h 35.7966101 35.79661 v 35.79661 35.79661 H 37.098305 1.3016949 Z"
     id="path4570"
     inkscape:connector-curvature="0" /><path
     style="opacity:0.98999999;fill:#000000;fill-opacity:1;fill-rule:evenodd;stroke:#000000;stroke-width:16.39930725;stroke-linecap:round;stroke-linejoin:round;stroke-miterlimit:4;stroke-dasharray:none;stroke-dashoffset:0;stroke-opacity:1;paint-order:markers fill stroke"
     d="m 141.11847,441.10523 c -0.59029,-1.53828 -0.8058,-20.33692 -0.47892,-41.77477 l 0.59435,-38.97792 h 187.66102 187.66101 v 41.22034 41.22034 l -187.1821,0.55443 c -151.1767,0.44779 -187.38855,0.0165 -188.25536,-2.24242 z"
     id="path4572"
     inkscape:connector-curvature="0" /><path
     style="opacity:0.98999999;fill:#000000;fill-opacity:1;fill-rule:evenodd;stroke:#000000;stroke-width:16.39930725;stroke-linecap:round;stroke-linejoin:round;stroke-miterlimit:4;stroke-dasharray:none;stroke-dashoffset:0;stroke-opacity:1;paint-order:markers fill stroke"
     d="m 140.38126,295.09036 c -1.99656,-5.20297 -1.51004,-73.17592 0.54698,-76.41924 2.64405,-4.16888 371.65453,-6.78746 376.61273,-2.67251 2.78198,2.30884 3.35395,8.99745 3.35395,39.2218 0,20.04105 -0.59258,37.98253 -1.31686,39.86995 -1.1868,3.09276 -19.9116,3.43167 -189.5984,3.43167 -169.6868,0 -188.41159,-0.33891 -189.5984,-3.43167 z"
     id="path4526"
     inkscape:connector-curvature="0" /><path
     style="opacity:0.98999999;fill:#000000;fill-opacity:1;fill-rule:evenodd;stroke:#008000;stroke-width:16.39930725;stroke-linecap:round;stroke-linejoin:round;stroke-miterlimit:4;stroke-dasharray:none;stroke-dashoffset:0;stroke-opacity:1;paint-order:markers fill stroke"
     d="m 146.96021,303.71814 c -5.09489,-0.85442 -10.46438,-2.755 -11.9322,-4.22352 -1.90122,-1.90213 -2.66093,-13.08963 -2.64153,-38.89927 0.0294,-39.10264 1.13344,-46.89383 6.962,-49.13046 6.43532,-2.46947 269.93198,-6.04647 325.54854,-4.41937 46.02639,1.34653 53.28137,2.03334 57.49153,5.44251 4.66456,3.77713 4.81816,5.18468 4.81816,44.1513 0,35.74249 -0.43371,40.68363 -3.873,44.12389 -3.65124,3.65226 -14.27222,3.89225 -185.49153,4.19124 -99.89019,0.17443 -185.78708,-0.38191 -190.88197,-1.23632 z"
     id="path4561"
     inkscape:connector-curvature="0" /><path
     style="opacity:0.98999999;fill:#ff0000;fill-opacity:1;fill-rule:evenodd;stroke:#ff0000;stroke-width:16.39930725;stroke-linecap:round;stroke-linejoin:round;stroke-miterlimit:4;stroke-dasharray:none;stroke-dashoffset:0;stroke-opacity:1;paint-order:markers fill stroke"
     d="m -3.9107661,297.81362 c -2.7622393,-2.76224 -1.7287335,-77.7674 1.1106918,-80.60682 3.00623642,-3.00624 74.7272093,-3.71477 79.3453383,-0.78385 2.109612,1.33887 2.622221,11.19875 2.169492,41.72949 l -0.592796,39.97639 -40.270015,0.58875 c -22.148506,0.3238 -40.9417271,-0.083 -41.7627111,-0.90396 z"
     id="path4563"
     inkscape:connector-curvature="0" /><path
     style="opacity:0.98999999;fill:#000000;fill-opacity:1;fill-rule:evenodd;stroke:#000000;stroke-width:16.39930725;stroke-linecap:round;stroke-linejoin:round;stroke-miterlimit:4;stroke-dasharray:none;stroke-dashoffset:0;stroke-opacity:1;paint-order:markers fill stroke"
     d="m 183.3423,294.94887 -40.13559,-1.15902 -0.59253,-37.17331 -0.59253,-37.17332 65.67727,-1.53233 c 93.7923,-2.18829 289.62098,-2.40852 300.52473,-0.33798 l 9.22034,1.75087 v 37.42365 37.42366 l -78.45647,1.4365 c -83.32633,1.52566 -189.47364,1.25215 -255.64522,-0.65872 z"
     id="path4565"
     inkscape:connector-curvature="0" /><path
     style="opacity:0.98999999;fill:#ff0000;fill-opacity:1;fill-rule:evenodd;stroke:#ff0000;stroke-width:16.39930725;stroke-linecap:round;stroke-linejoin:round;stroke-miterlimit:4;stroke-dasharray:none;stroke-dashoffset:0;stroke-opacity:1;paint-order:markers fill stroke"
     d="m 160.22054,302.04199 c -12.16193,-0.49978 -20.72785,-1.85308 -22.08573,-3.48922 -3.16379,-3.81214 -3.92383,-81.24516 -0.82785,-84.34114 4.67002,-4.67002 326.04738,-8.25406 365.88154,-4.08036 12.62892,1.32322 17.96398,2.84427 20.0678,5.72141 4.25253,5.81569 4.06951,76.54598 -0.21326,82.40387 -3.00026,4.10372 -7.41892,4.21625 -173.01695,4.40658 -93.46594,0.10741 -178.87846,-0.17209 -189.80559,-0.62114 z"
     id="path4567"
     inkscape:connector-curvature="0" /><path
     inkscape:connector-curvature="0"
     d="m 187.72765,196.0373 c -2.20261,-2.32611 -3.30391,-5.81526 -3.30391,-8.14136 0,-2.3261 1.1013,-5.81525 3.30391,-8.14136 l 15.41825,-16.28271 c 4.40522,-4.6522 11.01304,-4.6522 15.41826,0 l 1.1013,1.16305 60.57171,68.62 c 2.20261,2.3261 5.50652,2.3261 7.70913,0 L 435.521,71.590849 h 1.1013 v 0 c 4.40522,-4.6522 11.01304,-4.6522 15.41826,0 l 15.41825,16.28271 c 4.40522,4.65221 4.40522,11.63051 0,16.282721 v 0 l -176.2086,193.06644 c -2.20261,2.3261 -4.40522,3.48915 -7.70913,3.48915 -3.30391,0 -5.50652,-1.16305 -7.70913,-3.48915 l -85.90169,-97.69627 z"
     id="path2"
     style="fill:#008000;stroke-width:11.31756306" /></svg>