<?xml version="1.0" encoding="UTF-8" standalone="no"?>
<!-- Generator: Adobe Illustrator 18.0.0, SVG Export Plug-In . SVG Version: 6.00 Build 0)  -->

<svg
   xmlns:dc="http://purl.org/dc/elements/1.1/"
   xmlns:cc="http://creativecommons.org/ns#"
   xmlns:rdf="http://www.w3.org/1999/02/22-rdf-syntax-ns#"
   xmlns:svg="http://www.w3.org/2000/svg"
   xmlns="http://www.w3.org/2000/svg"
   xmlns:sodipodi="http://sodipodi.sourceforge.net/DTD/sodipodi-0.dtd"
   xmlns:inkscape="http://www.inkscape.org/namespaces/inkscape"
   version="1.1"
   id="Capa_1"
   x="0px"
   y="0px"
   viewBox="0 0 512 640"
   xml:space="preserve"
   sodipodi:docname="play-button.svg"
   width="512"
   height="640"
   inkscape:version="0.92.1 r15371"><metadata
     id="metadata39"><rdf:RDF><cc:Work
         rdf:about=""><dc:format>image/svg+xml</dc:format><dc:type
           rdf:resource="http://purl.org/dc/dcmitype/StillImage" /><dc:title></dc:title></cc:Work></rdf:RDF></metadata><defs
     id="defs37" /><sodipodi:namedview
     pagecolor="#ffffff"
     bordercolor="#666666"
     borderopacity="1"
     objecttolerance="10"
     gridtolerance="10"
     guidetolerance="10"
     inkscape:pageopacity="0"
     inkscape:pageshadow="2"
     inkscape:window-width="1366"
     inkscape:window-height="745"
     id="namedview35"
     showgrid="false"
     inkscape:zoom="0.32593203"
     inkscape:cx="-571.41938"
     inkscape:cy="109.23095"
     inkscape:window-x="-8"
     inkscape:window-y="-8"
     inkscape:window-maximized="1"
     inkscape:current-layer="Capa_1" /><path
     d="M 256 128 C 114.617 128 0 242.615 0 384 C 0 525.385 114.617 640 256 640 C 397.383 640 512 525.385 512 384 C 512 242.615 397.383 128 256 128 z M 368.04492 261.76953 C 390.91331 261.76953 408.94165 267.10055 422.13086 277.76172 C 435.42644 288.32136 442.07422 302.28205 442.07422 319.64453 C 442.07422 329.59496 440.213 338.48063 436.49023 346.29883 C 432.76747 354.01549 427.87528 360.86881 421.8125 366.85938 C 415.85608 372.64687 408.99509 378.0795 401.23047 383.15625 C 393.46585 388.233 385.22385 393.15754 376.50195 397.92969 L 376.50195 432.19727 L 347.94141 432.19727 L 347.94141 385.74414 C 354.85511 381.98735 362.30195 377.87574 370.2793 373.4082 C 378.36301 368.94066 384.957 364.42259 390.0625 359.85352 C 396.23165 354.5737 401.01821 349.14106 404.42188 343.55664 C 407.82554 337.87068 409.52734 330.6617 409.52734 321.92969 C 409.52734 310.45623 405.43226 301.92817 397.24219 296.34375 C 389.15848 290.65779 378.68066 287.81445 365.81055 287.81445 C 354.32317 287.81445 343.42088 289.54 333.10352 292.99219 C 322.89251 296.44438 314.80993 299.94823 308.85352 303.50195 L 307.25781 303.50195 L 307.25781 272.43164 C 314.70334 269.6902 324.11703 267.25333 335.49805 265.12109 C 346.98542 262.88732 357.83392 261.76953 368.04492 261.76953 z M 152.41797 287.99805 C 155.22509 288.0723 158.01397 288.88669 160.48047 290.42969 L 288.48047 370.42969 C 293.15647 373.35969 296 378.485 296 384 C 296 389.515 293.15647 394.64131 288.48047 397.57031 L 160.48047 477.57031 C 157.89047 479.18731 154.945 480 152 480 C 149.332 480 146.66019 479.33619 144.24219 477.99219 C 139.15619 475.17219 136 464 136 464 L 136 304 C 136 298.18 139.15619 292.82781 144.24219 290.00781 C 146.78519 288.58981 149.61084 287.9238 152.41797 287.99805 z M 346.50586 460.98242 L 379.05469 460.98242 L 379.05469 493.11719 L 346.50586 493.11719 L 346.50586 460.98242 z "
     id="path2" /><g
     id="g4"
     transform="translate(0,128)" /><g
     id="g6"
     transform="translate(0,128)" /><g
     id="g8"
     transform="translate(0,128)" /><g
     id="g10"
     transform="translate(0,128)" /><g
     id="g12"
     transform="translate(0,128)" /><g
     id="g14"
     transform="translate(0,128)" /><g
     id="g16"
     transform="translate(0,128)" /><g
     id="g18"
     transform="translate(0,128)" /><g
     id="g20"
     transform="translate(0,128)" /><g
     id="g22"
     transform="translate(0,128)" /><g
     id="g24"
     transform="translate(0,128)" /><g
     id="g26"
     transform="translate(0,128)" /><g
     id="g28"
     transform="translate(0,128)" /><g
     id="g30"
     transform="translate(0,128)" /><g
     id="g32"
     transform="translate(0,128)" /></svg>