<?xml version="1.0" encoding="UTF-8" standalone="no"?>
<!-- Generator: Adobe Illustrator 19.0.0, SVG Export Plug-In . SVG Version: 6.00 Build 0)  -->

<svg
   xmlns:osb="http://www.openswatchbook.org/uri/2009/osb"
   xmlns:dc="http://purl.org/dc/elements/1.1/"
   xmlns:cc="http://creativecommons.org/ns#"
   xmlns:rdf="http://www.w3.org/1999/02/22-rdf-syntax-ns#"
   xmlns:svg="http://www.w3.org/2000/svg"
   xmlns="http://www.w3.org/2000/svg"
   xmlns:sodipodi="http://sodipodi.sourceforge.net/DTD/sodipodi-0.dtd"
   xmlns:inkscape="http://www.inkscape.org/namespaces/inkscape"
   version="1.1"
   id="Layer_1"
   x="0px"
   y="0px"
   viewBox="0 0 512 512"
   xml:space="preserve"
   sodipodi:docname="play_stop.svg"
   width="512"
   height="512"
   inkscape:version="0.92.1 r15371"><metadata
     id="metadata47"><rdf:RDF><cc:Work
         rdf:about=""><dc:format>image/svg+xml</dc:format><dc:type
           rdf:resource="http://purl.org/dc/dcmitype/StillImage" /><dc:title></dc:title></cc:Work></rdf:RDF></metadata><defs
     id="defs45"><linearGradient
       id="linearGradient6566"
       osb:paint="solid"><stop
         style="stop-color:#ffffff;stop-opacity:1;"
         offset="0"
         id="stop6564" /></linearGradient><linearGradient
       id="linearGradient5112"
       osb:paint="solid"><stop
         style="stop-color:#ffffff;stop-opacity:1;"
         offset="0"
         id="stop5110" /></linearGradient></defs><sodipodi:namedview
     pagecolor="#ffffff"
     bordercolor="#666666"
     borderopacity="1"
     objecttolerance="10"
     gridtolerance="10"
     guidetolerance="10"
     inkscape:pageopacity="0"
     inkscape:pageshadow="2"
     inkscape:window-width="1366"
     inkscape:window-height="745"
     id="namedview43"
     showgrid="false"
     inkscape:zoom="1.3037281"
     inkscape:cx="235.88447"
     inkscape:cy="356.57167"
     inkscape:window-x="-8"
     inkscape:window-y="-8"
     inkscape:window-maximized="1"
     inkscape:current-layer="Layer_1" /><path
     d="M 256,0 C 114.842,0 0,114.842 0,256 0,397.158 114.842,512 256,512 397.158,512 512,397.158 512,256 512,114.842 397.158,0 256,0 Z m 196.85841,172.0672 c 8.55999,1.40023 18.48568,3.55771 23.87135,10.35687 8.85798,11.18279 10.05396,28.06664 7.59375,42.1189 -3.17063,18.11014 -21.49518,30.40187 -27.64597,47.72808 -5.02156,14.14528 4.36359,34.72757 -7.05095,44.47504 -5.63698,4.8137 -16.47338,4.66018 -22.23792,0 -6.05549,-4.89538 -4.69603,-15.05755 -4.89453,-22.84179 -0.2609,-10.23107 1.50771,-20.65288 4.89453,-30.31055 6.32261,-18.02922 28.83314,-26.96674 26.57601,-43.93234 -0.72512,-5.45034 -5.79516,-11.29141 -11.93088,-11.39046 -7.92936,-0.128 -10.15959,10.37862 -21.69641,14.102 -8.60228,2.77629 -11.57603,-6.22525 -13.01443,-11.93231 -2.33784,-9.2757 2.93128,-20.0865 9.4336,-27.10248 5.77786,-6.23429 15.13733,-8.09953 23.37731,-10.18591 4.12668,-1.04488 8.52347,-1.77226 12.72454,-1.08505 z m -133.56544,19.7453 c 20.52661,-0.0334 44.23444,0.12746 58.73242,0.90234 9.59494,0.51285 8.87231,5.09039 8.86719,6.26368 l -0.54297,124.34765 c -0.004,0.83346 -0.45026,6.63187 -5.70313,6.6543 -23.88478,0.10197 -97.11447,-1.375 -101,-1.375 -4.719,0 -8.53125,-3.8142 -8.53125,-8.5332 v -119.4668 c 0,-4.719 3.81225,-8.5332 8.53125,-8.5332 1.77285,0 19.11988,-0.22632 39.64649,-0.25977 z m -82.125,0.24805 c 1.37609,0.0307 2.76492,0.39711 4.04492,1.13867 4.096,2.337 5.52083,7.55167 3.17383,11.63867 l -68.26563,119.4668 c -1.57,2.756 -4.44701,4.30078 -7.41601,4.30078 -1.434,0 -2.89166,-0.357 -4.22266,-1.125 -4.096,-2.338 -5.52278,-7.55167 -3.17578,-11.63867 l 68.26758,-119.46875 c 1.60187,-2.816 4.56634,-4.37997 7.59375,-4.3125 z m -187.892579,0.0156 c 1.477375,0.006 2.953484,0.3942 4.271484,1.15821 L 155.94727,252.9668 c 2.628,1.527 4.23242,4.34404 4.23242,7.37304 0,3.028 -1.60247,5.84505 -4.23047,7.37305 L 53.548828,327.44531 c -1.323,0.768 -2.815781,1.16016 -4.300781,1.16016 -1.468,0 -2.935,-0.37477 -4.25,-1.13477 -2.654,-1.527 -4.285156,-4.34443 -4.285156,-7.39843 v -119.4668 c 0,-3.055 1.631156,-5.87144 4.285156,-7.39844 1.3225,-0.7635 2.799969,-1.13723 4.277344,-1.13086 z M 439.86517,332.4362 c 6.81623,0.0162 14.46036,7.73023 14.37248,14.54592 -0.0902,6.99911 -8.14379,14.78809 -15.1395,14.55187 -6.67296,-0.22532 -13.62691,-8.14809 -13.47182,-14.82305 0.15611,-6.71891 7.51814,-14.29066 14.23884,-14.27474 z"
     id="path4"
     inkscape:connector-curvature="0"
     sodipodi:nodetypes="sssssaaaaaaasassaaaaccccssssscccccsccccaccsccscssccaaaaaa" /><g
     id="g12" /><g
     id="g14" /><g
     id="g16" /><g
     id="g18" /><g
     id="g20" /><g
     id="g22" /><g
     id="g24" /><g
     id="g26" /><g
     id="g28" /><g
     id="g30" /><g
     id="g32" /><g
     id="g34" /><g
     id="g36" /><g
     id="g38" /><g
     id="g40" /></svg>