<?xml version="1.0" encoding="UTF-8" standalone="no"?>
<!-- Generator: Adobe Illustrator 18.1.1, SVG Export Plug-In . SVG Version: 6.00 Build 0)  -->

<svg
   xmlns:dc="http://purl.org/dc/elements/1.1/"
   xmlns:cc="http://creativecommons.org/ns#"
   xmlns:rdf="http://www.w3.org/1999/02/22-rdf-syntax-ns#"
   xmlns:svg="http://www.w3.org/2000/svg"
   xmlns="http://www.w3.org/2000/svg"
   xmlns:sodipodi="http://sodipodi.sourceforge.net/DTD/sodipodi-0.dtd"
   xmlns:inkscape="http://www.inkscape.org/namespaces/inkscape"
   version="1.1"
   id="Capa_1"
   x="0px"
   y="0px"
   viewBox="0 0 14.078 14.078"
   style="enable-background:new 0 0 14.078 14.078;"
   xml:space="preserve"
   sodipodi:docname="ppm.svg"
   inkscape:version="0.92.1 r15371"><metadata
     id="metadata147"><rdf:RDF><cc:Work
         rdf:about=""><dc:format>image/svg+xml</dc:format><dc:type
           rdf:resource="http://purl.org/dc/dcmitype/StillImage" /><dc:title></dc:title></cc:Work></rdf:RDF></metadata><defs
     id="defs145" /><sodipodi:namedview
     pagecolor="#ffffff"
     bordercolor="#666666"
     borderopacity="1"
     objecttolerance="10"
     gridtolerance="10"
     guidetolerance="10"
     inkscape:pageopacity="0"
     inkscape:pageshadow="2"
     inkscape:window-width="1366"
     inkscape:window-height="705"
     id="namedview143"
     showgrid="false"
     inkscape:zoom="16.763745"
     inkscape:cx="7.039"
     inkscape:cy="7.039"
     inkscape:window-x="-8"
     inkscape:window-y="-8"
     inkscape:window-maximized="1"
     inkscape:current-layer="Capa_1" /><path
     style="fill:#030104"
     d="m 8.2171271,2.5636525 c 0,0.222 0.18,0.402 0.402,0.402 h 0.206 c 0.223,0 0.402,-0.18 0.402,-0.402 0,-0.222 -0.18,-0.402 -0.402,-0.402 h -0.205 c -0.223,0 -0.403,0.18 -0.403,0.402 z"
     id="path14"
     inkscape:connector-curvature="0" /><path
     style="fill:#030104"
     d="m 6.3551271,2.5636525 c 0,0.222 0.18,0.402 0.402,0.402 h 0.207 c 0.222,0 0.401,-0.18 0.401,-0.402 0,-0.222 -0.18,-0.402 -0.401,-0.402 h -0.207 c -0.222,0 -0.402,0.18 -0.402,0.402 z"
     id="path22"
     inkscape:connector-curvature="0" /><path
     style="fill:#030104"
     d="m 4.2311271,4.3716525 c 0,-0.222 -0.18,-0.402 -0.402,-0.402 h -0.207 c -0.222,0 -0.402,0.18 -0.402,0.402 0,0.222 0.18,0.402 0.402,0.402 h 0.207 c 0.223,0 0.402,-0.18 0.402,-0.402 z"
     id="path28"
     inkscape:connector-curvature="0" /><path
     style="fill:#030104"
     d="m 5.4851271,4.7736525 h 0.207 c 0.222,0 0.401,-0.18 0.401,-0.402 0,-0.222 -0.18,-0.402 -0.401,-0.402 h -0.207 c -0.222,0 -0.402,0.18 -0.402,0.402 0,0.222 0.18,0.402 0.402,0.402 z"
     id="path30"
     inkscape:connector-curvature="0" /><path
     style="fill:#030104"
     d="m 9.2081271,4.7736525 h 0.207 c 0.223,0 0.402,-0.18 0.402,-0.402 0,-0.222 -0.18,-0.402 -0.402,-0.402 h -0.207 c -0.222,0 -0.401,0.18 -0.401,0.402 0,0.222 0.18,0.402 0.401,0.402 z"
     id="path32"
     inkscape:connector-curvature="0" /><path
     style="fill:#030104"
     d="m 7.3471271,4.7736525 h 0.207 c 0.222,0 0.401,-0.18 0.401,-0.402 0,-0.222 -0.18,-0.402 -0.401,-0.402 h -0.207 c -0.223,0 -0.402,0.18 -0.402,0.402 0,0.222 0.179,0.402 0.402,0.402 z"
     id="path34"
     inkscape:connector-curvature="0" /><path
     style="fill:#030104"
     d="m 11.880127,6.5146525 c 0.222,0 0.401,-0.18 0.401,-0.402 0,-0.222 -0.18,-0.401 -0.401,-0.401 h -0.207 c -0.222,0 -0.401,0.18 -0.401,0.401 0,0.223 0.18,0.402 0.401,0.402 z"
     id="path46"
     inkscape:connector-curvature="0" /><path
     style="fill:#030104"
     d="m 8.1571271,6.5146525 c 0.222,0 0.401,-0.18 0.401,-0.402 0,-0.222 -0.18,-0.401 -0.401,-0.401 h -0.207 c -0.222,0 -0.401,0.18 -0.401,0.401 0,0.223 0.18,0.402 0.401,0.402 z"
     id="path48"
     inkscape:connector-curvature="0" /><path
     style="fill:#030104"
     d="m 6.2941271,6.5146525 c 0.222,0 0.401,-0.18 0.401,-0.402 0,-0.222 -0.18,-0.401 -0.401,-0.401 h -0.207 c -0.222,0 -0.401,0.18 -0.401,0.401 0,0.223 0.18,0.402 0.401,0.402 z"
     id="path50"
     inkscape:connector-curvature="0" /><path
     style="fill:#030104"
     d="m 4.2261271,6.5146525 h 0.207 c 0.223,0 0.402,-0.18 0.402,-0.402 0,-0.222 -0.18,-0.401 -0.402,-0.401 h -0.207 c -0.222,0 -0.402,0.18 -0.402,0.401 0,0.223 0.179,0.402 0.402,0.402 z"
     id="path52"
     inkscape:connector-curvature="0" /><path
     style="fill:#030104"
     d="m 10.019127,6.5146525 c 0.222,0 0.401,-0.18 0.401,-0.402 0,-0.222 -0.18,-0.401 -0.401,-0.401 H 9.8111271 c -0.222,0 -0.401,0.18 -0.401,0.401 0,0.223 0.18,0.402 0.401,0.402 z"
     id="path54"
     inkscape:connector-curvature="0" /><path
     style="fill:#030104"
     d="m 2.3631271,6.5146525 h 0.208 c 0.222,0 0.402,-0.18 0.402,-0.402 0,-0.222 -0.18,-0.401 -0.402,-0.401 h -0.208 c -0.222,0 -0.402,0.18 -0.402,0.401 0,0.223 0.18,0.402 0.402,0.402 z"
     id="path56"
     inkscape:connector-curvature="0" /><path
     style="fill:#030104"
     d="m 8.6201271,8.3896525 h 0.206 c 0.223,0 0.402,-0.18 0.402,-0.401 0,-0.223 -0.18,-0.402 -0.402,-0.402 h -0.206 c -0.223,0 -0.402,0.18 -0.402,0.402 -10e-4,0.222 0.179,0.401 0.402,0.401 z"
     id="path58"
     inkscape:connector-curvature="0" /><path
     style="fill:#030104"
     d="m 10.481127,8.3896525 h 0.207 c 0.223,0 0.402,-0.18 0.402,-0.401 0,-0.223 -0.18,-0.402 -0.402,-0.402 h -0.207 c -0.223,0 -0.402,0.18 -0.402,0.402 0,0.222 0.179,0.401 0.402,0.401 z"
     id="path62"
     inkscape:connector-curvature="0" /><path
     style="fill:#030104"
     d="m 6.7571271,8.3896525 h 0.207 c 0.222,0 0.401,-0.18 0.401,-0.401 0,-0.223 -0.18,-0.402 -0.401,-0.402 h -0.207 c -0.223,0 -0.402,0.18 -0.402,0.402 0,0.222 0.18,0.401 0.402,0.401 z"
     id="path64"
     inkscape:connector-curvature="0" /><path
     style="fill:#030104"
     d="m 4.8951271,8.3896525 h 0.207 c 0.222,0 0.401,-0.18 0.401,-0.401 0,-0.223 -0.18,-0.402 -0.401,-0.402 h -0.207 c -0.222,0 -0.401,0.18 -0.401,0.402 0,0.222 0.179,0.401 0.401,0.401 z"
     id="path66"
     inkscape:connector-curvature="0" /><path
     style="fill:#030104"
     d="m 12.952127,7.9886525 c 0,-0.223 -0.18,-0.402 -0.402,-0.402 h -0.206 c -0.223,0 -0.402,0.18 -0.402,0.402 0,0.222 0.18,0.401 0.402,0.401 h 0.206 c 0.222,0 0.402,-0.179 0.402,-0.401 z"
     id="path70"
     inkscape:connector-curvature="0" /><path
     style="fill:#030104"
     d="m 9.1751271,10.081653 h 0.207 c 0.222,0 0.401,-0.1800005 0.401,-0.4010005 0,-0.223 -0.18,-0.402 -0.401,-0.402 h -0.207 c -0.223,0 -0.402,0.18 -0.402,0.402 0,0.221 0.18,0.4010005 0.402,0.4010005 z"
     id="path72"
     inkscape:connector-curvature="0" /><path
     style="fill:#030104"
     d="m 7.3131271,10.081653 h 0.207 c 0.222,0 0.402,-0.1800005 0.402,-0.4010005 0,-0.223 -0.181,-0.402 -0.402,-0.402 h -0.207 c -0.222,0 -0.401,0.18 -0.401,0.402 0,0.221 0.179,0.4010005 0.401,0.4010005 z"
     id="path74"
     inkscape:connector-curvature="0" /><path
     style="fill:#030104"
     d="m 5.4511271,10.081653 h 0.207 c 0.223,0 0.402,-0.1800005 0.402,-0.4010005 0,-0.223 -0.18,-0.402 -0.402,-0.402 h -0.207 c -0.222,0 -0.401,0.18 -0.401,0.402 -0.001,0.221 0.179,0.4010005 0.401,0.4010005 z"
     id="path82"
     inkscape:connector-curvature="0" /><path
     style="fill:#030104"
     d="m 4.1981271,9.6806525 c 0,-0.223 -0.18,-0.402 -0.402,-0.402 h -0.207 c -0.222,0 -0.402,0.18 -0.402,0.402 0,0.222 0.18,0.4010005 0.402,0.4010005 h 0.207 c 0.222,0 0.402,-0.1800005 0.402,-0.4010005 z"
     id="path86"
     inkscape:connector-curvature="0" /><path
     style="fill:#030104"
     d="m 6.6631271,11.421653 c 0,-0.223 -0.18,-0.402 -0.402,-0.402 h -0.206 c -0.223,0 -0.402,0.18 -0.402,0.402 0,0.222 0.18,0.401 0.402,0.401 h 0.206 c 0.222,0 0.402,-0.18 0.402,-0.401 z"
     id="path90"
     inkscape:connector-curvature="0" /><path
     style="fill:#030104"
     d="m 8.5251271,11.421653 c 0,-0.223 -0.18,-0.402 -0.402,-0.402 h -0.207 c -0.222,0 -0.401,0.18 -0.401,0.402 0,0.222 0.18,0.401 0.401,0.401 h 0.207 c 0.222,0 0.402,-0.18 0.402,-0.401 z"
     id="path96"
     inkscape:connector-curvature="0" /><g
     id="g112" /><g
     id="g114" /><g
     id="g116" /><g
     id="g118" /><g
     id="g120" /><g
     id="g122" /><g
     id="g124" /><g
     id="g126" /><g
     id="g128" /><g
     id="g130" /><g
     id="g132" /><g
     id="g134" /><g
     id="g136" /><g
     id="g138" /><g
     id="g140" /></svg>