<?xml version="1.0" standalone="no"?><svg xmlns="http://www.w3.org/2000/svg" width="40" height="130"><path stroke-width="2" fill="none" stroke="black" stroke-dasharray="none" font-family="Arial" font-size="10pt" font-weight="normal" font-style="normal" d="M-15 30L85 30"/><path stroke-width="2" fill="none" stroke="black" stroke-dasharray="none" font-family="Arial" font-size="10pt" font-weight="normal" font-style="normal" d="M-15 40L85 40"/><path stroke-width="2" fill="none" stroke="black" stroke-dasharray="none" font-family="Arial" font-size="10pt" font-weight="normal" font-style="normal" d="M-15 50L85 50"/><path stroke-width="2" fill="none" stroke="black" stroke-dasharray="none" font-family="Arial" font-size="10pt" font-weight="normal" font-style="normal" d="M-15 60L85 60"/><path stroke-width="2" fill="none" stroke="black" stroke-dasharray="none" font-family="Arial" font-size="10pt" font-weight="normal" font-style="normal" d="M-15 70L85 70"/><rect stroke-width="0.3" fill="black" stroke="black" stroke-dasharray="none" font-family="Arial" font-size="10pt" font-weight="normal" font-style="normal" x="-15" y="29.5" width="1" height="41"/><rect stroke-width="0.3" fill="black" stroke="black" stroke-dasharray="none" font-family="Arial" font-size="10pt" font-weight="normal" font-style="normal" x="85" y="29.5" width="1" height="41"/><path stroke-width="2" fill="none" stroke="black" stroke-dasharray="none" font-family="Arial" font-size="10pt" font-weight="normal" font-style="normal" x="85" y="29.5" width="1" height="41" d="M-1 80L17.01824 80"/><path stroke-width="2" fill="none" stroke="black" stroke-dasharray="none" font-family="Arial" font-size="10pt" font-weight="normal" font-style="normal" x="85" y="29.5" width="1" height="41" d="M-1 90L17.01824 90"/><path stroke-width="2" fill="none" stroke="black" stroke-dasharray="none" font-family="Arial" font-size="10pt" font-weight="normal" font-style="normal" x="85" y="29.5" width="1" height="41" d="M-1 100L17.01824 100"/><path stroke-width="2" fill="none" stroke="black" stroke-dasharray="none" font-family="Arial" font-size="10pt" font-weight="normal" font-style="normal" x="85" y="29.5" width="1" height="41" d="M-1 110L17.01824 110"/><g class="vf-stavenote" id="vf-auto2077"><g class="vf-note" pointer-events="bounding-box"><g class="vf-stem" pointer-events="bounding-box"><path stroke-width="1.5" fill="none" stroke="black" stroke-dasharray="none" font-family="Arial" font-size="10pt" font-weight="normal" font-style="normal" x="85" y="29.5" width="1" height="41" d="M13.26824 110L13.26824 75"/></g><g class="vf-notehead" pointer-events="bounding-box"><path stroke-width="0.3" fill="black" stroke="none" stroke-dasharray="none" font-family="Arial" font-size="10pt" font-weight="normal" font-style="normal" x="85" y="29.5" width="1" height="41" d="M2 110M9.35696 104.77712C9.469280000000001 104.77712,9.63776 104.77712,9.66584 104.77712C9.66584 104.77712,9.69392 104.77712,9.69392 104.77712C9.69392 104.77712,9.862400000000001 104.77712,10.0028 104.77712C12.530000000000001 104.91752,14.01824 106.57424,14.01824 108.65216C14.01824 109.66304,13.681280000000001 110.81432,12.83888 111.90944C11.23832 114.0716,8.62688 115.25096,6.3524 115.25096C4.58336 115.25096,3.06704 114.54896,2.33696 113.11688C2.11232 112.55528,2 112.02176,2 111.43208C2 108.37136,5.42576 104.97368,9.35696 104.77712M12.277280000000001 106.32152C12.16496 106.26536,12.024560000000001 106.23728,11.88416 106.23728C11.01368 106.23728,9.553519999999999 106.7708,8.149519999999999 107.72552C5.53808 109.35416,3.404 111.74096,3.31976 113.11688C3.31976 113.11688,3.31976 113.14496,3.31976 113.14496C3.31976 113.62232,3.62864 113.81888000000001,4.16216 113.81888000000001C5.31344 113.81888000000001,7.44752 112.83608,9.41312 111.2636C11.43488 109.66304,12.726560000000001 107.86592,12.726560000000001 106.93928C12.726560000000001 106.6304,12.58616 106.37768,12.277280000000001 106.32152"/></g></g><g class="vf-modifiers"/></g></svg>