<?xml version="1.0" standalone="no"?><svg xmlns="http://www.w3.org/2000/svg" width="40" height="130"><path stroke-width="2" fill="none" stroke="black" stroke-dasharray="none" font-family="Arial" font-size="10pt" font-weight="normal" font-style="normal" d="M-15 30L85 30"/><path stroke-width="2" fill="none" stroke="black" stroke-dasharray="none" font-family="Arial" font-size="10pt" font-weight="normal" font-style="normal" d="M-15 40L85 40"/><path stroke-width="2" fill="none" stroke="black" stroke-dasharray="none" font-family="Arial" font-size="10pt" font-weight="normal" font-style="normal" d="M-15 50L85 50"/><path stroke-width="2" fill="none" stroke="black" stroke-dasharray="none" font-family="Arial" font-size="10pt" font-weight="normal" font-style="normal" d="M-15 60L85 60"/><path stroke-width="2" fill="none" stroke="black" stroke-dasharray="none" font-family="Arial" font-size="10pt" font-weight="normal" font-style="normal" d="M-15 70L85 70"/><rect stroke-width="0.3" fill="black" stroke="black" stroke-dasharray="none" font-family="Arial" font-size="10pt" font-weight="normal" font-style="normal" x="-15" y="29.5" width="1" height="41"/><rect stroke-width="0.3" fill="black" stroke="black" stroke-dasharray="none" font-family="Arial" font-size="10pt" font-weight="normal" font-style="normal" x="85" y="29.5" width="1" height="41"/><g class="vf-stavenote" id="vf-auto2107"><g class="vf-note" pointer-events="bounding-box"><g class="vf-stem" pointer-events="bounding-box"><path stroke-width="1.5" fill="none" stroke="black" stroke-dasharray="none" font-family="Arial" font-size="10pt" font-weight="normal" font-style="normal" x="85" y="29.5" width="1" height="41" d="M2.75 40L2.75 75"/></g><g class="vf-notehead" pointer-events="bounding-box"><path stroke-width="0.3" fill="black" stroke="none" stroke-dasharray="none" font-family="Arial" font-size="10pt" font-weight="normal" font-style="normal" x="85" y="29.5" width="1" height="41" d="M2 40M9.35696 34.77712C9.469280000000001 34.77712,9.63776 34.77712,9.66584 34.77712C9.66584 34.77712,9.69392 34.77712,9.69392 34.77712C9.69392 34.77712,9.862400000000001 34.77712,10.0028 34.77712C12.530000000000001 34.917519999999996,14.01824 36.57424,14.01824 38.65216C14.01824 39.66304,13.681280000000001 40.81432,12.83888 41.909440000000004C11.23832 44.071600000000004,8.62688 45.25096,6.3524 45.25096C4.58336 45.25096,3.06704 44.54896,2.33696 43.11688C2.11232 42.55528,2 42.02176,2 41.43208C2 38.37136,5.42576 34.97368,9.35696 34.77712M12.277280000000001 36.32152C12.16496 36.26536,12.024560000000001 36.23728,11.88416 36.23728C11.01368 36.23728,9.553519999999999 36.7708,8.149519999999999 37.72552C5.53808 39.35416,3.404 41.74096,3.31976 43.11688C3.31976 43.11688,3.31976 43.14496,3.31976 43.14496C3.31976 43.62232,3.62864 43.81888,4.16216 43.81888C5.31344 43.81888,7.44752 42.83608,9.41312 41.2636C11.43488 39.66304,12.726560000000001 37.86592,12.726560000000001 36.93928C12.726560000000001 36.6304,12.58616 36.37768,12.277280000000001 36.32152"/></g></g><g class="vf-modifiers"/></g></svg>