<?xml version="1.0" standalone="no"?><svg xmlns="http://www.w3.org/2000/svg" width="40" height="130"><path stroke-width="2" fill="none" stroke="black" stroke-dasharray="none" font-family="Arial" font-size="10pt" font-weight="normal" font-style="normal" d="M-15 30L85 30"/><path stroke-width="2" fill="none" stroke="black" stroke-dasharray="none" font-family="Arial" font-size="10pt" font-weight="normal" font-style="normal" d="M-15 40L85 40"/><path stroke-width="2" fill="none" stroke="black" stroke-dasharray="none" font-family="Arial" font-size="10pt" font-weight="normal" font-style="normal" d="M-15 50L85 50"/><path stroke-width="2" fill="none" stroke="black" stroke-dasharray="none" font-family="Arial" font-size="10pt" font-weight="normal" font-style="normal" d="M-15 60L85 60"/><path stroke-width="2" fill="none" stroke="black" stroke-dasharray="none" font-family="Arial" font-size="10pt" font-weight="normal" font-style="normal" d="M-15 70L85 70"/><rect stroke-width="0.3" fill="black" stroke="black" stroke-dasharray="none" font-family="Arial" font-size="10pt" font-weight="normal" font-style="normal" x="-15" y="29.5" width="1" height="41"/><rect stroke-width="0.3" fill="black" stroke="black" stroke-dasharray="none" font-family="Arial" font-size="10pt" font-weight="normal" font-style="normal" x="85" y="29.5" width="1" height="41"/><g class="vf-stavenote" id="vf-auto4249"><g class="vf-note" pointer-events="bounding-box"><g class="vf-stem" pointer-events="bounding-box"><path stroke-width="1.5" fill="none" stroke="black" stroke-dasharray="none" font-family="Arial" font-size="10pt" font-weight="normal" font-style="normal" x="85" y="29.5" width="1" height="41" d="M2.75 40L2.75 75"/></g><g class="vf-notehead" pointer-events="bounding-box"><path stroke-width="0.3" fill="black" stroke="none" stroke-dasharray="none" font-family="Arial" font-size="10pt" font-weight="normal" font-style="normal" x="85" y="29.5" width="1" height="41" d="M2 40M9.35696 34.77712C9.469280000000001 34.77712,9.63776 34.77712,9.66584 34.77712C9.66584 34.77712,9.69392 34.77712,9.69392 34.77712C9.69392 34.77712,9.862400000000001 34.77712,10.0028 34.77712C12.530000000000001 34.917519999999996,14.01824 36.57424,14.01824 38.65216C14.01824 39.66304,13.681280000000001 40.81432,12.83888 41.909440000000004C11.23832 44.071600000000004,8.62688 45.25096,6.3524 45.25096C4.58336 45.25096,3.06704 44.54896,2.33696 43.11688C2.11232 42.55528,2 42.02176,2 41.43208C2 38.37136,5.42576 34.97368,9.35696 34.77712"/></g><g class="vf-flag" pointer-events="bounding-box"><path stroke-width="0.3" fill="black" stroke="none" stroke-dasharray="none" font-family="Arial" font-size="10pt" font-weight="normal" font-style="normal" x="85" y="29.5" width="1" height="41" d="M2.75 77M9.208400000000001 48.04952C9.26456 48.02144,9.3488 48.02144,9.43304 48.02144C9.6296 48.02144,9.79808 48.16184,10.02272 48.52688C12.0164 51.55952,13.05536 55.041439999999994,13.05536 58.41104C13.05536 59.00072,13.05536 59.56232,12.97112 60.095839999999995C12.63416 63.29696,11.28632 66.21728,9.26456 68.09864C7.1024 70.1204,5.64224 71.74904,4.35056 73.6304C3.62048 74.64128,2.91848 75.8768,2.72192 76.49456C2.63768 76.69112,2.41304 76.88768,2.21648 76.88768L2.16032 76.88768L2.16032 72.53528L2.16032 68.1548L2.30072 68.1548C3.0308 68.1548,4.49096 67.90208,5.44568 67.5932C9.12416 66.3296,11.5952 62.20184,11.5952 57.4844C11.5952 57.09128,11.567120000000001 56.67008,11.53904 56.27696C11.28632 53.834,10.41584 51.27872,9.03992 49.17272C8.899519999999999 48.948080000000004,8.815280000000001 48.72344,8.815280000000001 48.554959999999994C8.815280000000001 48.33032,8.9276 48.133759999999995,9.208400000000001 48.04952"/></g></g><g class="vf-modifiers"><path stroke-width="0.3" fill="black" stroke="none" stroke-dasharray="none" font-family="Arial" font-size="10pt" font-weight="normal" font-style="normal" x="85" y="29.5" width="1" height="41" d="M21.01824 35 A2 2 0 0 0 17.01824 35M0 0M17.01824 35 A2 2 0 0 0 21.01824 35M0 0"/></g></g></svg>