<?xml version="1.0" standalone="no"?><svg xmlns="http://www.w3.org/2000/svg" width="40" height="130"><path stroke-width="2" fill="none" stroke="black" stroke-dasharray="none" font-family="Arial" font-size="10pt" font-weight="normal" font-style="normal" d="M-15 30L85 30"/><path stroke-width="2" fill="none" stroke="black" stroke-dasharray="none" font-family="Arial" font-size="10pt" font-weight="normal" font-style="normal" d="M-15 40L85 40"/><path stroke-width="2" fill="none" stroke="black" stroke-dasharray="none" font-family="Arial" font-size="10pt" font-weight="normal" font-style="normal" d="M-15 50L85 50"/><path stroke-width="2" fill="none" stroke="black" stroke-dasharray="none" font-family="Arial" font-size="10pt" font-weight="normal" font-style="normal" d="M-15 60L85 60"/><path stroke-width="2" fill="none" stroke="black" stroke-dasharray="none" font-family="Arial" font-size="10pt" font-weight="normal" font-style="normal" d="M-15 70L85 70"/><rect stroke-width="0.3" fill="black" stroke="black" stroke-dasharray="none" font-family="Arial" font-size="10pt" font-weight="normal" font-style="normal" x="-15" y="29.5" width="1" height="41"/><rect stroke-width="0.3" fill="black" stroke="black" stroke-dasharray="none" font-family="Arial" font-size="10pt" font-weight="normal" font-style="normal" x="85" y="29.5" width="1" height="41"/><g class="vf-stavenote" id="vf-auto3879"><g class="vf-note" pointer-events="bounding-box"><g class="vf-stem" pointer-events="bounding-box"><path stroke-width="1.5" fill="none" stroke="black" stroke-dasharray="none" font-family="Arial" font-size="10pt" font-weight="normal" font-style="normal" x="85" y="29.5" width="1" height="41" d="M13.26824 75L13.26824 40"/></g><g class="vf-notehead" pointer-events="bounding-box"><path stroke-width="0.3" fill="black" stroke="none" stroke-dasharray="none" font-family="Arial" font-size="10pt" font-weight="normal" font-style="normal" x="85" y="29.5" width="1" height="41" d="M2 75M9.35696 69.77712C9.469280000000001 69.77712,9.63776 69.77712,9.66584 69.77712C9.66584 69.77712,9.69392 69.77712,9.69392 69.77712C9.69392 69.77712,9.862400000000001 69.77712,10.0028 69.77712C12.530000000000001 69.91752,14.01824 71.57424,14.01824 73.65216C14.01824 74.66304,13.681280000000001 75.81432,12.83888 76.90944C11.23832 79.0716,8.62688 80.25096,6.3524 80.25096C4.58336 80.25096,3.06704 79.54896,2.33696 78.11688C2.11232 77.55528,2 77.02176,2 76.43208C2 73.37136,5.42576 69.97368,9.35696 69.77712"/></g><g class="vf-flag" pointer-events="bounding-box"><path stroke-width="0.3" fill="black" stroke="none" stroke-dasharray="none" font-family="Arial" font-size="10pt" font-weight="normal" font-style="normal" x="85" y="29.5" width="1" height="41" d="M13.26824 38M12.59432 42.52088L12.59432 38.1404L12.70664 38.1404C13.01552 38.1404,13.21208 38.33696,13.26824 38.67392C13.85792 41.48192,15.62696 44.54264,18.06992 46.8452C20.793680000000002 49.40048,22.169600000000003 52.91048,22.169600000000003 56.5328C22.169600000000003 59.958560000000006,20.96216 63.52472,18.5192 66.47312C18.098 67.03472,18.06992 67.03472,17.78912 67.03472C17.45216 67.03472,17.227520000000002 66.782,17.227520000000002 66.44504C17.227520000000002 66.19232,17.2556 66.13616,17.5364 65.82728C19.67048 63.24392,20.73752 60.12704,20.73752 57.15056C20.73752 54.51104,19.89512 51.98384,18.15416 50.0744C17.08712 48.89504,15.12152 47.77184,12.6224 46.90136C12.6224 46.87328,12.59432 46.0028,12.59432 42.52088"/></g></g><g class="vf-modifiers"/></g></svg>