<?xml version="1.0" standalone="no"?><svg xmlns="http://www.w3.org/2000/svg" width="40" height="130"><path stroke-width="2" fill="none" stroke="black" stroke-dasharray="none" font-family="Arial" font-size="10pt" font-weight="normal" font-style="normal" d="M-15 30L85 30"/><path stroke-width="2" fill="none" stroke="black" stroke-dasharray="none" font-family="Arial" font-size="10pt" font-weight="normal" font-style="normal" d="M-15 40L85 40"/><path stroke-width="2" fill="none" stroke="black" stroke-dasharray="none" font-family="Arial" font-size="10pt" font-weight="normal" font-style="normal" d="M-15 50L85 50"/><path stroke-width="2" fill="none" stroke="black" stroke-dasharray="none" font-family="Arial" font-size="10pt" font-weight="normal" font-style="normal" d="M-15 60L85 60"/><path stroke-width="2" fill="none" stroke="black" stroke-dasharray="none" font-family="Arial" font-size="10pt" font-weight="normal" font-style="normal" d="M-15 70L85 70"/><rect stroke-width="0.3" fill="black" stroke="black" stroke-dasharray="none" font-family="Arial" font-size="10pt" font-weight="normal" font-style="normal" x="-15" y="29.5" width="1" height="41"/><rect stroke-width="0.3" fill="black" stroke="black" stroke-dasharray="none" font-family="Arial" font-size="10pt" font-weight="normal" font-style="normal" x="85" y="29.5" width="1" height="41"/><path stroke-width="2" fill="none" stroke="black" stroke-dasharray="none" font-family="Arial" font-size="10pt" font-weight="normal" font-style="normal" x="85" y="29.5" width="1" height="41" d="M-1 80L17.01824 80"/><path stroke-width="2" fill="none" stroke="black" stroke-dasharray="none" font-family="Arial" font-size="10pt" font-weight="normal" font-style="normal" x="85" y="29.5" width="1" height="41" d="M-1 90L17.01824 90"/><path stroke-width="2" fill="none" stroke="black" stroke-dasharray="none" font-family="Arial" font-size="10pt" font-weight="normal" font-style="normal" x="85" y="29.5" width="1" height="41" d="M-1 100L17.01824 100"/><path stroke-width="2" fill="none" stroke="black" stroke-dasharray="none" font-family="Arial" font-size="10pt" font-weight="normal" font-style="normal" x="85" y="29.5" width="1" height="41" d="M-1 110L17.01824 110"/><g class="vf-stavenote" id="vf-auto4209"><g class="vf-note" pointer-events="bounding-box"><g class="vf-stem" pointer-events="bounding-box"><path stroke-width="1.5" fill="none" stroke="black" stroke-dasharray="none" font-family="Arial" font-size="10pt" font-weight="normal" font-style="normal" x="85" y="29.5" width="1" height="41" d="M13.26824 110L13.26824 75"/></g><g class="vf-notehead" pointer-events="bounding-box"><path stroke-width="0.3" fill="black" stroke="none" stroke-dasharray="none" font-family="Arial" font-size="10pt" font-weight="normal" font-style="normal" x="85" y="29.5" width="1" height="41" d="M2 110M9.35696 104.77712C9.469280000000001 104.77712,9.63776 104.77712,9.66584 104.77712C9.66584 104.77712,9.69392 104.77712,9.69392 104.77712C9.69392 104.77712,9.862400000000001 104.77712,10.0028 104.77712C12.530000000000001 104.91752,14.01824 106.57424,14.01824 108.65216C14.01824 109.66304,13.681280000000001 110.81432,12.83888 111.90944C11.23832 114.0716,8.62688 115.25096,6.3524 115.25096C4.58336 115.25096,3.06704 114.54896,2.33696 113.11688C2.11232 112.55528,2 112.02176,2 111.43208C2 108.37136,5.42576 104.97368,9.35696 104.77712"/></g><g class="vf-flag" pointer-events="bounding-box"><path stroke-width="0.3" fill="black" stroke="none" stroke-dasharray="none" font-family="Arial" font-size="10pt" font-weight="normal" font-style="normal" x="85" y="29.5" width="1" height="41" d="M13.26824 73M12.59432 77.52088L12.59432 73.1404L12.70664 73.1404C13.01552 73.1404,13.21208 73.33696,13.26824 73.67392C13.85792 76.48192,15.62696 79.54264,18.06992 81.8452C20.793680000000002 84.40048,22.169600000000003 87.91048,22.169600000000003 91.53280000000001C22.169600000000003 94.95856,20.96216 98.52472,18.5192 101.47312C18.098 102.03472,18.06992 102.03472,17.78912 102.03472C17.45216 102.03472,17.227520000000002 101.782,17.227520000000002 101.44504C17.227520000000002 101.19232,17.2556 101.13616,17.5364 100.82728C19.67048 98.24392,20.73752 95.12704,20.73752 92.15056C20.73752 89.51104000000001,19.89512 86.98384,18.15416 85.0744C17.08712 83.89504,15.12152 82.77184,12.6224 81.90136C12.6224 81.87328,12.59432 81.00280000000001,12.59432 77.52088"/></g></g><g class="vf-modifiers"><path stroke-width="0.3" fill="black" stroke="none" stroke-dasharray="none" font-family="Arial" font-size="10pt" font-weight="normal" font-style="normal" x="85" y="29.5" width="1" height="41" d="M30.59352 105 A2 2 0 0 0 26.59352 105M0 0M26.59352 105 A2 2 0 0 0 30.59352 105M0 0"/></g></g></svg>