<?xml version="1.0" standalone="no"?><svg xmlns="http://www.w3.org/2000/svg" width="40" height="130"><path stroke-width="2" fill="none" stroke="black" stroke-dasharray="none" font-family="Arial" font-size="10pt" font-weight="normal" font-style="normal" d="M-15 30L85 30"/><path stroke-width="2" fill="none" stroke="black" stroke-dasharray="none" font-family="Arial" font-size="10pt" font-weight="normal" font-style="normal" d="M-15 40L85 40"/><path stroke-width="2" fill="none" stroke="black" stroke-dasharray="none" font-family="Arial" font-size="10pt" font-weight="normal" font-style="normal" d="M-15 50L85 50"/><path stroke-width="2" fill="none" stroke="black" stroke-dasharray="none" font-family="Arial" font-size="10pt" font-weight="normal" font-style="normal" d="M-15 60L85 60"/><path stroke-width="2" fill="none" stroke="black" stroke-dasharray="none" font-family="Arial" font-size="10pt" font-weight="normal" font-style="normal" d="M-15 70L85 70"/><rect stroke-width="0.3" fill="black" stroke="black" stroke-dasharray="none" font-family="Arial" font-size="10pt" font-weight="normal" font-style="normal" x="-15" y="29.5" width="1" height="41"/><rect stroke-width="0.3" fill="black" stroke="black" stroke-dasharray="none" font-family="Arial" font-size="10pt" font-weight="normal" font-style="normal" x="85" y="29.5" width="1" height="41"/><g class="vf-stavenote" id="vf-auto1231"><g class="vf-note" pointer-events="bounding-box"><g class="vf-notehead" pointer-events="bounding-box"><path stroke-width="0.3" fill="black" stroke="none" stroke-dasharray="none" font-family="Arial" font-size="10pt" font-weight="normal" font-style="normal" x="85" y="29.5" width="1" height="41" d="M2 40M9.69392 34.83328C10.0028 34.77712,10.31168 34.77712,10.620560000000001 34.77712C15.0572 34.77712,18.76376 36.74272,19.29728 39.38224C19.32536 39.63496,19.381520000000002 39.8596,19.381520000000002 40.02808C19.381520000000002 42.920320000000004,15.56264 45.25096,10.64864 45.25096C5.734640000000001 45.25096,2 42.86416,2 40.02808C2 39.69112,2.02808 39.35416,2.1404 38.98912C2.81432 36.7708,5.95928 35.05792,9.69392 34.83328M10.115120000000001 35.47912C9.974720000000001 35.45104,9.77816 35.45104,9.63776 35.45104C7.868720000000001 35.45104,6.80168 36.96736,6.80168 38.84872C6.80168 39.8596,7.11056 40.95472,7.7564 42.04984C8.823440000000002 43.73464,10.367840000000001 44.57704,11.6876 44.57704C12.8108 44.57704,13.7936 43.98736,14.24288 42.75184C14.439440000000001 42.2464,14.52368 41.74096,14.52368 41.20744C14.52368 38.68024,12.58616 35.87224,10.115120000000001 35.47912"/></g></g><g class="vf-modifiers"/></g></svg>