<?xml version="1.0" standalone="no"?><svg xmlns="http://www.w3.org/2000/svg" width="40" height="130"><path stroke-width="2" fill="none" stroke="black" stroke-dasharray="none" font-family="Arial" font-size="10pt" font-weight="normal" font-style="normal" d="M-15 30L85 30"/><path stroke-width="2" fill="none" stroke="black" stroke-dasharray="none" font-family="Arial" font-size="10pt" font-weight="normal" font-style="normal" d="M-15 40L85 40"/><path stroke-width="2" fill="none" stroke="black" stroke-dasharray="none" font-family="Arial" font-size="10pt" font-weight="normal" font-style="normal" d="M-15 50L85 50"/><path stroke-width="2" fill="none" stroke="black" stroke-dasharray="none" font-family="Arial" font-size="10pt" font-weight="normal" font-style="normal" d="M-15 60L85 60"/><path stroke-width="2" fill="none" stroke="black" stroke-dasharray="none" font-family="Arial" font-size="10pt" font-weight="normal" font-style="normal" d="M-15 70L85 70"/><rect stroke-width="0.3" fill="black" stroke="black" stroke-dasharray="none" font-family="Arial" font-size="10pt" font-weight="normal" font-style="normal" x="-15" y="29.5" width="1" height="41"/><rect stroke-width="0.3" fill="black" stroke="black" stroke-dasharray="none" font-family="Arial" font-size="10pt" font-weight="normal" font-style="normal" x="85" y="29.5" width="1" height="41"/><g class="vf-stavenote" id="vf-auto1242"><g class="vf-note" pointer-events="bounding-box"><g class="vf-notehead" pointer-events="bounding-box"><path stroke-width="0.3" fill="black" stroke="none" stroke-dasharray="none" font-family="Arial" font-size="10pt" font-weight="normal" font-style="normal" x="85" y="29.5" width="1" height="41" d="M2 75M9.69392 69.83328C10.0028 69.77712,10.31168 69.77712,10.620560000000001 69.77712C15.0572 69.77712,18.76376 71.74272,19.29728 74.38224C19.32536 74.63496,19.381520000000002 74.8596,19.381520000000002 75.02808C19.381520000000002 77.92032,15.56264 80.25096,10.64864 80.25096C5.734640000000001 80.25096,2 77.86416,2 75.02808C2 74.69112,2.02808 74.35416,2.1404 73.98912C2.81432 71.7708,5.95928 70.05792,9.69392 69.83328M10.115120000000001 70.47912C9.974720000000001 70.45104,9.77816 70.45104,9.63776 70.45104C7.868720000000001 70.45104,6.80168 71.96736,6.80168 73.84872C6.80168 74.8596,7.11056 75.95472,7.7564 77.04984C8.823440000000002 78.73464,10.367840000000001 79.57704,11.6876 79.57704C12.8108 79.57704,13.7936 78.98736,14.24288 77.75184C14.439440000000001 77.2464,14.52368 76.74096,14.52368 76.20744C14.52368 73.68024,12.58616 70.87224,10.115120000000001 70.47912"/></g></g><g class="vf-modifiers"><path stroke-width="0.3" fill="black" stroke="none" stroke-dasharray="none" font-family="Arial" font-size="10pt" font-weight="normal" font-style="normal" x="85" y="29.5" width="1" height="41" d="M26.381520000000002 75 A2 2 0 0 0 22.381520000000002 75M0 0M22.381520000000002 75 A2 2 0 0 0 26.381520000000002 75M0 0"/></g></g></svg>