<?xml version="1.0" standalone="no"?><svg xmlns="http://www.w3.org/2000/svg" width="40" height="130"><path stroke-width="2" fill="none" stroke="black" stroke-dasharray="none" font-family="Arial" font-size="10pt" font-weight="normal" font-style="normal" d="M-15 30L85 30"/><path stroke-width="2" fill="none" stroke="black" stroke-dasharray="none" font-family="Arial" font-size="10pt" font-weight="normal" font-style="normal" d="M-15 40L85 40"/><path stroke-width="2" fill="none" stroke="black" stroke-dasharray="none" font-family="Arial" font-size="10pt" font-weight="normal" font-style="normal" d="M-15 50L85 50"/><path stroke-width="2" fill="none" stroke="black" stroke-dasharray="none" font-family="Arial" font-size="10pt" font-weight="normal" font-style="normal" d="M-15 60L85 60"/><path stroke-width="2" fill="none" stroke="black" stroke-dasharray="none" font-family="Arial" font-size="10pt" font-weight="normal" font-style="normal" d="M-15 70L85 70"/><rect stroke-width="0.3" fill="black" stroke="black" stroke-dasharray="none" font-family="Arial" font-size="10pt" font-weight="normal" font-style="normal" x="-15" y="29.5" width="1" height="41"/><rect stroke-width="0.3" fill="black" stroke="black" stroke-dasharray="none" font-family="Arial" font-size="10pt" font-weight="normal" font-style="normal" x="85" y="29.5" width="1" height="41"/><g class="vf-stavenote" id="vf-auto5375"><g class="vf-note" pointer-events="bounding-box"><g class="vf-stem" pointer-events="bounding-box"><path stroke-width="1.5" fill="none" stroke="black" stroke-dasharray="none" font-family="Arial" font-size="10pt" font-weight="normal" font-style="normal" x="85" y="29.5" width="1" height="41" d="M2.75 40L2.75 75"/></g><g class="vf-notehead" pointer-events="bounding-box"><path stroke-width="0.3" fill="black" stroke="none" stroke-dasharray="none" font-family="Arial" font-size="10pt" font-weight="normal" font-style="normal" x="85" y="29.5" width="1" height="41" d="M2 40M9.35696 34.77712C9.469280000000001 34.77712,9.63776 34.77712,9.66584 34.77712C9.66584 34.77712,9.69392 34.77712,9.69392 34.77712C9.69392 34.77712,9.862400000000001 34.77712,10.0028 34.77712C12.530000000000001 34.917519999999996,14.01824 36.57424,14.01824 38.65216C14.01824 39.66304,13.681280000000001 40.81432,12.83888 41.909440000000004C11.23832 44.071600000000004,8.62688 45.25096,6.3524 45.25096C4.58336 45.25096,3.06704 44.54896,2.33696 43.11688C2.11232 42.55528,2 42.02176,2 41.43208C2 38.37136,5.42576 34.97368,9.35696 34.77712"/></g><g class="vf-flag" pointer-events="bounding-box"><path stroke-width="0.3" fill="black" stroke="none" stroke-dasharray="none" font-family="Arial" font-size="10pt" font-weight="normal" font-style="normal" x="85" y="29.5" width="1" height="41" d="M2.75 77M11.23016 48.04952C11.28632 48.02144,11.370560000000001 48.02144,11.39864 48.02144C11.67944 48.02144,11.876 48.16184,12.0164 48.47072C12.60608 49.7624,12.91496 51.166399999999996,12.91496 52.65464C12.91496 53.86208,12.66224 55.0976,12.2972 56.27696L12.18488 56.585840000000005L12.2972 56.866640000000004C12.7184 57.98984,12.91496 59.19728,12.91496 60.40472C12.91496 63.07232,11.876 65.73992,9.966560000000001 67.93016C9.573440000000002 68.40752,9.12416 68.85679999999999,8.47832 69.36224C6.37232 71.21552,4.60328 73.26536,3.3116 75.42752C3.08696 75.76448,2.75 76.38224,2.72192 76.49456C2.63768 76.74728,2.41304 76.88768,2.21648 76.88768L2.16032 76.88768L2.16032 73.0688L2.16032 69.24992L2.41304 69.22184C4.46288 68.91296,6.31616 68.32328,7.43936 67.64936C10.10696 66.10496,11.70752 63.21272,11.70752 60.20816C11.70752 59.5904,11.65136 58.97264,11.48288 58.354879999999994L11.4548 58.10216L11.28632 58.354879999999994C10.58432 59.5904,9.77 60.517039999999994,8.47832 61.61216C6.37232 63.43736,4.60328 65.51528,3.3116 67.64936C3.08696 68.0144,2.75 68.63216,2.72192 68.80064C2.63768 68.99719999999999,2.41304 69.1376,2.21648 69.1376L2.16032 69.1376L2.16032 65.31872L2.16032 61.49984L2.41304 61.47176C4.46288 61.16288,6.31616 60.5732,7.43936 59.899280000000005C10.16312 58.29872,11.70752 55.3784,11.70752 52.458079999999995C11.70752 51.33488,11.48288 50.21168,11.00552 49.144639999999995C10.83704 48.80768,10.83704 48.72344,10.83704 48.61112C10.83704 48.33032,11.00552 48.133759999999995,11.23016 48.04952"/></g></g><g class="vf-modifiers"><path stroke-width="0.3" fill="black" stroke="none" stroke-dasharray="none" font-family="Arial" font-size="10pt" font-weight="normal" font-style="normal" x="85" y="29.5" width="1" height="41" d="M21.01824 35 A2 2 0 0 0 17.01824 35M0 0M17.01824 35 A2 2 0 0 0 21.01824 35M0 0"/></g></g></svg>