<?xml version="1.0" standalone="no"?><svg xmlns="http://www.w3.org/2000/svg" width="40" height="130"><path stroke-width="2" fill="none" stroke="black" stroke-dasharray="none" font-family="Arial" font-size="10pt" font-weight="normal" font-style="normal" d="M-15 30L85 30"/><path stroke-width="2" fill="none" stroke="black" stroke-dasharray="none" font-family="Arial" font-size="10pt" font-weight="normal" font-style="normal" d="M-15 40L85 40"/><path stroke-width="2" fill="none" stroke="black" stroke-dasharray="none" font-family="Arial" font-size="10pt" font-weight="normal" font-style="normal" d="M-15 50L85 50"/><path stroke-width="2" fill="none" stroke="black" stroke-dasharray="none" font-family="Arial" font-size="10pt" font-weight="normal" font-style="normal" d="M-15 60L85 60"/><path stroke-width="2" fill="none" stroke="black" stroke-dasharray="none" font-family="Arial" font-size="10pt" font-weight="normal" font-style="normal" d="M-15 70L85 70"/><rect stroke-width="0.3" fill="black" stroke="black" stroke-dasharray="none" font-family="Arial" font-size="10pt" font-weight="normal" font-style="normal" x="-15" y="29.5" width="1" height="41"/><rect stroke-width="0.3" fill="black" stroke="black" stroke-dasharray="none" font-family="Arial" font-size="10pt" font-weight="normal" font-style="normal" x="85" y="29.5" width="1" height="41"/><path stroke-width="2" fill="none" stroke="black" stroke-dasharray="none" font-family="Arial" font-size="10pt" font-weight="normal" font-style="normal" x="85" y="29.5" width="1" height="41" d="M-1 80L17.01824 80"/><path stroke-width="2" fill="none" stroke="black" stroke-dasharray="none" font-family="Arial" font-size="10pt" font-weight="normal" font-style="normal" x="85" y="29.5" width="1" height="41" d="M-1 90L17.01824 90"/><path stroke-width="2" fill="none" stroke="black" stroke-dasharray="none" font-family="Arial" font-size="10pt" font-weight="normal" font-style="normal" x="85" y="29.5" width="1" height="41" d="M-1 100L17.01824 100"/><path stroke-width="2" fill="none" stroke="black" stroke-dasharray="none" font-family="Arial" font-size="10pt" font-weight="normal" font-style="normal" x="85" y="29.5" width="1" height="41" d="M-1 110L17.01824 110"/><g class="vf-stavenote" id="vf-auto5335"><g class="vf-note" pointer-events="bounding-box"><g class="vf-stem" pointer-events="bounding-box"><path stroke-width="1.5" fill="none" stroke="black" stroke-dasharray="none" font-family="Arial" font-size="10pt" font-weight="normal" font-style="normal" x="85" y="29.5" width="1" height="41" d="M13.26824 110L13.26824 75"/></g><g class="vf-notehead" pointer-events="bounding-box"><path stroke-width="0.3" fill="black" stroke="none" stroke-dasharray="none" font-family="Arial" font-size="10pt" font-weight="normal" font-style="normal" x="85" y="29.5" width="1" height="41" d="M2 110M9.35696 104.77712C9.469280000000001 104.77712,9.63776 104.77712,9.66584 104.77712C9.66584 104.77712,9.69392 104.77712,9.69392 104.77712C9.69392 104.77712,9.862400000000001 104.77712,10.0028 104.77712C12.530000000000001 104.91752,14.01824 106.57424,14.01824 108.65216C14.01824 109.66304,13.681280000000001 110.81432,12.83888 111.90944C11.23832 114.0716,8.62688 115.25096,6.3524 115.25096C4.58336 115.25096,3.06704 114.54896,2.33696 113.11688C2.11232 112.55528,2 112.02176,2 111.43208C2 108.37136,5.42576 104.97368,9.35696 104.77712"/></g><g class="vf-flag" pointer-events="bounding-box"><path stroke-width="0.3" fill="black" stroke="none" stroke-dasharray="none" font-family="Arial" font-size="10pt" font-weight="normal" font-style="normal" x="85" y="29.5" width="1" height="41" d="M13.26824 73M12.59432 77.12776L12.59432 73.1404L12.70664 73.1404C12.931280000000001 73.1404,13.15592 73.30888,13.240160000000001 73.53352C13.436720000000001 74.20744,14.138720000000001 75.41488,14.896880000000001 76.45384C15.87968 77.85784,17.03096 79.14952,18.77192 80.80624C20.96216 82.99648,22.169600000000003 85.9168,22.169600000000003 89.0056C22.169600000000003 90.32536,21.91688 91.70128,21.523760000000003 93.02104L21.383360000000003 93.32992L21.523760000000003 93.6388C21.91688 94.9024,22.169600000000003 96.22216,22.169600000000003 97.51384C22.169600000000003 100.04104000000001,21.35528 102.59632,19.86704 104.78656000000001C19.67048 105.0112,19.55816 105.17967999999999,19.136960000000002 105.7132C18.996560000000002 105.90976,18.77192 106.05016,18.57536 106.05016C18.378800000000002 106.05016,18.18224 105.90976,18.06992 105.68512C18.04184 105.60088,17.985680000000002 105.54472,17.985680000000002 105.40432C17.985680000000002 105.26392,18.098 105.06736000000001,18.350720000000003 104.78656000000001C19.95128 102.87712,20.82176 100.378,20.82176 98.01928000000001C20.82176 97.87888000000001,20.82176 97.82272,20.82176 97.73848C20.82176 97.06456,20.70944 96.22216,20.6252 95.85712000000001C20.59712 95.77288,20.540960000000002 95.63248,20.512880000000003 95.464C20.007440000000003 93.52647999999999,18.82808 91.72936,17.2556 90.63424C16.4132 90.01648,14.588000000000001 89.53912,13.0436 89.53912C12.9032 89.53912,12.734720000000001 89.53912,12.70664 89.53912L12.59432 89.53912L12.59432 85.60792000000001L12.59432 81.64864L12.70664 81.64864C12.931280000000001 81.64864,13.15592 81.78904,13.240160000000001 82.04176C13.436720000000001 82.6876,14.138720000000001 83.89504,14.896880000000001 84.90592C15.87968 86.36608,17.08712 87.68584,18.71576 89.2864C19.47392 90.01648,20.147840000000002 90.8308,20.540960000000002 91.53280000000001C20.540960000000002 91.58896,20.59712 91.61704,20.59712 91.61704C20.6252 91.61704,20.6252 91.53280000000001,20.68136 91.42048C20.793680000000002 90.74656,20.82176 90.1288,20.82176 89.48296C20.82176 88.89328,20.793680000000002 88.27552,20.68136 87.62968000000001C20.68136 87.51736,20.6252 87.40504,20.6252 87.37696C20.59712 87.29272,20.540960000000002 87.12424,20.512880000000003 86.98384C20.007440000000003 85.01824,18.82808 83.2492,17.2556 82.15408C16.4132 81.50824,14.588000000000001 81.08704,13.0436 81.05896C12.9032 81.05896,12.734720000000001 81.05896,12.70664 81.05896L12.59432 81.05896L12.59432 77.12776"/></g></g><g class="vf-modifiers"><path stroke-width="0.3" fill="black" stroke="none" stroke-dasharray="none" font-family="Arial" font-size="10pt" font-weight="normal" font-style="normal" x="85" y="29.5" width="1" height="41" d="M30.59352 105 A2 2 0 0 0 26.59352 105M0 0M26.59352 105 A2 2 0 0 0 30.59352 105M0 0"/></g></g></svg>