<?xml version="1.0" standalone="no"?><svg xmlns="http://www.w3.org/2000/svg" width="40" height="130"><path stroke-width="2" fill="none" stroke="black" stroke-dasharray="none" font-family="Arial" font-size="10pt" font-weight="normal" font-style="normal" d="M-15 30L85 30"/><path stroke-width="2" fill="none" stroke="black" stroke-dasharray="none" font-family="Arial" font-size="10pt" font-weight="normal" font-style="normal" d="M-15 40L85 40"/><path stroke-width="2" fill="none" stroke="black" stroke-dasharray="none" font-family="Arial" font-size="10pt" font-weight="normal" font-style="normal" d="M-15 50L85 50"/><path stroke-width="2" fill="none" stroke="black" stroke-dasharray="none" font-family="Arial" font-size="10pt" font-weight="normal" font-style="normal" d="M-15 60L85 60"/><path stroke-width="2" fill="none" stroke="black" stroke-dasharray="none" font-family="Arial" font-size="10pt" font-weight="normal" font-style="normal" d="M-15 70L85 70"/><rect stroke-width="0.3" fill="black" stroke="black" stroke-dasharray="none" font-family="Arial" font-size="10pt" font-weight="normal" font-style="normal" x="-15" y="29.5" width="1" height="41"/><rect stroke-width="0.3" fill="black" stroke="black" stroke-dasharray="none" font-family="Arial" font-size="10pt" font-weight="normal" font-style="normal" x="85" y="29.5" width="1" height="41"/><g class="vf-stavenote" id="vf-auto4897"><g class="vf-note" pointer-events="bounding-box"><g class="vf-stem" pointer-events="bounding-box"><path stroke-width="1.5" fill="none" stroke="black" stroke-dasharray="none" font-family="Arial" font-size="10pt" font-weight="normal" font-style="normal" x="85" y="29.5" width="1" height="41" d="M13.26824 75L13.26824 40"/></g><g class="vf-notehead" pointer-events="bounding-box"><path stroke-width="0.3" fill="black" stroke="none" stroke-dasharray="none" font-family="Arial" font-size="10pt" font-weight="normal" font-style="normal" x="85" y="29.5" width="1" height="41" d="M2 75M9.35696 69.77712C9.469280000000001 69.77712,9.63776 69.77712,9.66584 69.77712C9.66584 69.77712,9.69392 69.77712,9.69392 69.77712C9.69392 69.77712,9.862400000000001 69.77712,10.0028 69.77712C12.530000000000001 69.91752,14.01824 71.57424,14.01824 73.65216C14.01824 74.66304,13.681280000000001 75.81432,12.83888 76.90944C11.23832 79.0716,8.62688 80.25096,6.3524 80.25096C4.58336 80.25096,3.06704 79.54896,2.33696 78.11688C2.11232 77.55528,2 77.02176,2 76.43208C2 73.37136,5.42576 69.97368,9.35696 69.77712"/></g><g class="vf-flag" pointer-events="bounding-box"><path stroke-width="0.3" fill="black" stroke="none" stroke-dasharray="none" font-family="Arial" font-size="10pt" font-weight="normal" font-style="normal" x="85" y="29.5" width="1" height="41" d="M13.26824 38M12.59432 42.12776L12.59432 38.1404L12.70664 38.1404C12.931280000000001 38.1404,13.15592 38.30888,13.240160000000001 38.53352C13.436720000000001 39.20744,14.138720000000001 40.41488,14.896880000000001 41.45384C15.87968 42.85784,17.03096 44.14952,18.77192 45.80624C20.96216 47.99648,22.169600000000003 50.9168,22.169600000000003 54.0056C22.169600000000003 55.32536,21.91688 56.70128,21.523760000000003 58.02104L21.383360000000003 58.32992L21.523760000000003 58.6388C21.91688 59.9024,22.169600000000003 61.22216,22.169600000000003 62.51384C22.169600000000003 65.04104000000001,21.35528 67.59632,19.86704 69.78656000000001C19.67048 70.0112,19.55816 70.17967999999999,19.136960000000002 70.7132C18.996560000000002 70.90976,18.77192 71.05016,18.57536 71.05016C18.378800000000002 71.05016,18.18224 70.90976,18.06992 70.68512C18.04184 70.60088,17.985680000000002 70.54472,17.985680000000002 70.40432C17.985680000000002 70.26392,18.098 70.06736000000001,18.350720000000003 69.78656000000001C19.95128 67.87712,20.82176 65.378,20.82176 63.01928C20.82176 62.87888,20.82176 62.822720000000004,20.82176 62.738479999999996C20.82176 62.06456,20.70944 61.22216,20.6252 60.85712C20.59712 60.77288,20.540960000000002 60.63248,20.512880000000003 60.464C20.007440000000003 58.52648,18.82808 56.72936,17.2556 55.634240000000005C16.4132 55.01648,14.588000000000001 54.53912,13.0436 54.53912C12.9032 54.53912,12.734720000000001 54.53912,12.70664 54.53912L12.59432 54.53912L12.59432 50.60792L12.59432 46.64864L12.70664 46.64864C12.931280000000001 46.64864,13.15592 46.78904,13.240160000000001 47.04176C13.436720000000001 47.6876,14.138720000000001 48.89504,14.896880000000001 49.90592C15.87968 51.36608,17.08712 52.68584,18.71576 54.2864C19.47392 55.01648,20.147840000000002 55.830799999999996,20.540960000000002 56.5328C20.540960000000002 56.58896,20.59712 56.61704,20.59712 56.61704C20.6252 56.61704,20.6252 56.5328,20.68136 56.42048C20.793680000000002 55.74656,20.82176 55.1288,20.82176 54.482960000000006C20.82176 53.893280000000004,20.793680000000002 53.27552,20.68136 52.62968C20.68136 52.51736,20.6252 52.40504,20.6252 52.37696C20.59712 52.29272,20.540960000000002 52.12424,20.512880000000003 51.98384C20.007440000000003 50.01824,18.82808 48.2492,17.2556 47.15408C16.4132 46.50824,14.588000000000001 46.08704,13.0436 46.05896C12.9032 46.05896,12.734720000000001 46.05896,12.70664 46.05896L12.59432 46.05896L12.59432 42.12776"/></g></g><g class="vf-modifiers"/></g></svg>