<?xml version="1.0" standalone="no"?><svg xmlns="http://www.w3.org/2000/svg" width="40" height="130"><path stroke-width="2" fill="none" stroke="black" stroke-dasharray="none" font-family="Arial" font-size="10pt" font-weight="normal" font-style="normal" d="M-15 30L85 30"/><path stroke-width="2" fill="none" stroke="black" stroke-dasharray="none" font-family="Arial" font-size="10pt" font-weight="normal" font-style="normal" d="M-15 40L85 40"/><path stroke-width="2" fill="none" stroke="black" stroke-dasharray="none" font-family="Arial" font-size="10pt" font-weight="normal" font-style="normal" d="M-15 50L85 50"/><path stroke-width="2" fill="none" stroke="black" stroke-dasharray="none" font-family="Arial" font-size="10pt" font-weight="normal" font-style="normal" d="M-15 60L85 60"/><path stroke-width="2" fill="none" stroke="black" stroke-dasharray="none" font-family="Arial" font-size="10pt" font-weight="normal" font-style="normal" d="M-15 70L85 70"/><rect stroke-width="0.3" fill="black" stroke="black" stroke-dasharray="none" font-family="Arial" font-size="10pt" font-weight="normal" font-style="normal" x="-15" y="29.5" width="1" height="41"/><rect stroke-width="0.3" fill="black" stroke="black" stroke-dasharray="none" font-family="Arial" font-size="10pt" font-weight="normal" font-style="normal" x="85" y="29.5" width="1" height="41"/><path stroke-width="2" fill="none" stroke="black" stroke-dasharray="none" font-family="Arial" font-size="10pt" font-weight="normal" font-style="normal" x="85" y="29.5" width="1" height="41" d="M10.44192 80L28.46016 80"/><path stroke-width="2" fill="none" stroke="black" stroke-dasharray="none" font-family="Arial" font-size="10pt" font-weight="normal" font-style="normal" x="85" y="29.5" width="1" height="41" d="M10.44192 90L28.46016 90"/><path stroke-width="2" fill="none" stroke="black" stroke-dasharray="none" font-family="Arial" font-size="10pt" font-weight="normal" font-style="normal" x="85" y="29.5" width="1" height="41" d="M10.44192 100L28.46016 100"/><path stroke-width="2" fill="none" stroke="black" stroke-dasharray="none" font-family="Arial" font-size="10pt" font-weight="normal" font-style="normal" x="85" y="29.5" width="1" height="41" d="M10.44192 110L28.46016 110"/><g class="vf-stavenote" id="vf-auto3802"><g class="vf-note" pointer-events="bounding-box"><g class="vf-stem" pointer-events="bounding-box"><path stroke-width="1.5" fill="none" stroke="black" stroke-dasharray="none" font-family="Arial" font-size="10pt" font-weight="normal" font-style="normal" x="85" y="29.5" width="1" height="41" d="M24.710160000000002 110L24.710160000000002 75"/></g><g class="vf-notehead" pointer-events="bounding-box"><path stroke-width="0.3" fill="black" stroke="none" stroke-dasharray="none" font-family="Arial" font-size="10pt" font-weight="normal" font-style="normal" x="85" y="29.5" width="1" height="41" d="M13.44192 110M20.79888 104.77712C20.9112 104.77712,21.07968 104.77712,21.10776 104.77712C21.10776 104.77712,21.13584 104.77712,21.13584 104.77712C21.13584 104.77712,21.30432 104.77712,21.44472 104.77712C23.97192 104.91752,25.460160000000002 106.57424,25.460160000000002 108.65216C25.460160000000002 109.66304,25.1232 110.81432,24.2808 111.90944C22.680239999999998 114.0716,20.0688 115.25096,17.79432 115.25096C16.02528 115.25096,14.50896 114.54896,13.77888 113.11688C13.55424 112.55528,13.44192 112.02176,13.44192 111.43208C13.44192 108.37136,16.86768 104.97368,20.79888 104.77712"/></g><g class="vf-flag" pointer-events="bounding-box"><path stroke-width="0.3" fill="black" stroke="none" stroke-dasharray="none" font-family="Arial" font-size="10pt" font-weight="normal" font-style="normal" x="85" y="29.5" width="1" height="41" d="M24.710160000000002 73M24.036240000000003 77.52088L24.036240000000003 73.1404L24.148560000000003 73.1404C24.457440000000002 73.1404,24.654000000000003 73.33696,24.710160000000002 73.67392C25.299840000000003 76.48192,27.06888 79.54264,29.511840000000003 81.8452C32.235600000000005 84.40048,33.61152 87.91048,33.61152 91.53280000000001C33.61152 94.95856,32.40408 98.52472,29.96112 101.47312C29.539920000000002 102.03472,29.511840000000003 102.03472,29.23104 102.03472C28.894080000000002 102.03472,28.66944 101.782,28.66944 101.44504C28.66944 101.19232,28.69752 101.13616,28.978320000000004 100.82728C31.1124 98.24392,32.17944 95.12704,32.17944 92.15056C32.17944 89.51104000000001,31.337040000000002 86.98384,29.59608 85.0744C28.529040000000002 83.89504,26.563440000000003 82.77184,24.064320000000002 81.90136C24.064320000000002 81.87328,24.036240000000003 81.00280000000001,24.036240000000003 77.52088"/></g></g><g class="vf-modifiers"><path stroke-width="0.3" fill="black" stroke="none" stroke-dasharray="none" font-family="Arial" font-size="10pt" font-weight="normal" font-style="normal" x="85" y="29.5" width="1" height="41" d="M3.57456 110M3.35568 92.73584C3.4104 92.70848000000001,3.4651199999999998 92.70848000000001,3.5472 92.70848000000001C3.79344 92.70848000000001,4.01232 92.81792,4.0944 93.0368C4.12176 93.14624,4.12176 93.14624,4.12176 99.52112L4.12176 105.95072L4.14912 105.86864C5.1888 104.99312,6.2832 104.55536000000001,7.32288 104.55536000000001C7.73328 104.55536000000001,8.14368 104.61008,8.554079999999999 104.77424C9.78528 105.18464,10.44192 106.33376,10.44192 107.70176000000001C10.44192 108.41312,10.223040000000001 109.20656,9.81264 110C9.210719999999998 111.0944,8.44464 111.96992,6.31056 113.88512L4.20384 115.8824C3.8207999999999998 116.26544,3.73872 116.26544,3.57456 116.26544C3.32832 116.26544,3.10944 116.12864,3.02736 115.90976L3 115.80032L3 104.50064L3 93.14624L3.02736 93.0368C3.10944 92.92736,3.21888 92.7632,3.35568 92.73584M6.58416 106.41584C6.47472 106.36112,6.31056 106.36112,6.2011199999999995 106.36112C6.11904 106.36112,6.06432 106.36112,6.0096 106.36112C5.29824 106.47056,4.66896 106.90832,4.2312 107.61968L4.12176 107.8112L4.12176 111.01232L4.12176 114.26816L4.20384 114.15872C6.2011199999999995 111.96992,7.5144 109.4528,7.5144 107.78384L7.5144 107.72912C7.5144 106.90832,7.2408 106.55264,6.58416 106.41584"/></g></g></svg>