<?xml version="1.0" standalone="no"?><svg xmlns="http://www.w3.org/2000/svg" width="40" height="130"><path stroke-width="2" fill="none" stroke="black" stroke-dasharray="none" font-family="Arial" font-size="10pt" font-weight="normal" font-style="normal" d="M-15 30L85 30"/><path stroke-width="2" fill="none" stroke="black" stroke-dasharray="none" font-family="Arial" font-size="10pt" font-weight="normal" font-style="normal" d="M-15 40L85 40"/><path stroke-width="2" fill="none" stroke="black" stroke-dasharray="none" font-family="Arial" font-size="10pt" font-weight="normal" font-style="normal" d="M-15 50L85 50"/><path stroke-width="2" fill="none" stroke="black" stroke-dasharray="none" font-family="Arial" font-size="10pt" font-weight="normal" font-style="normal" d="M-15 60L85 60"/><path stroke-width="2" fill="none" stroke="black" stroke-dasharray="none" font-family="Arial" font-size="10pt" font-weight="normal" font-style="normal" d="M-15 70L85 70"/><rect stroke-width="0.3" fill="black" stroke="black" stroke-dasharray="none" font-family="Arial" font-size="10pt" font-weight="normal" font-style="normal" x="-15" y="29.5" width="1" height="41"/><rect stroke-width="0.3" fill="black" stroke="black" stroke-dasharray="none" font-family="Arial" font-size="10pt" font-weight="normal" font-style="normal" x="85" y="29.5" width="1" height="41"/><g class="vf-stavenote" id="vf-auto3174"><g class="vf-note" pointer-events="bounding-box"><g class="vf-stem" pointer-events="bounding-box"><path stroke-width="1.5" fill="none" stroke="black" stroke-dasharray="none" font-family="Arial" font-size="10pt" font-weight="normal" font-style="normal" x="85" y="29.5" width="1" height="41" d="M14.19192 40L14.19192 75"/></g><g class="vf-notehead" pointer-events="bounding-box"><path stroke-width="0.3" fill="black" stroke="none" stroke-dasharray="none" font-family="Arial" font-size="10pt" font-weight="normal" font-style="normal" x="85" y="29.5" width="1" height="41" d="M13.44192 40M20.79888 34.77712C20.9112 34.77712,21.07968 34.77712,21.10776 34.77712C21.10776 34.77712,21.13584 34.77712,21.13584 34.77712C21.13584 34.77712,21.30432 34.77712,21.44472 34.77712C23.97192 34.917519999999996,25.460160000000002 36.57424,25.460160000000002 38.65216C25.460160000000002 39.66304,25.1232 40.81432,24.2808 41.909440000000004C22.680239999999998 44.071600000000004,20.0688 45.25096,17.79432 45.25096C16.02528 45.25096,14.50896 44.54896,13.77888 43.11688C13.55424 42.55528,13.44192 42.02176,13.44192 41.43208C13.44192 38.37136,16.86768 34.97368,20.79888 34.77712"/></g></g><g class="vf-modifiers"><path stroke-width="0.3" fill="black" stroke="none" stroke-dasharray="none" font-family="Arial" font-size="10pt" font-weight="normal" font-style="normal" x="85" y="29.5" width="1" height="41" d="M3.57456 40M3.35568 22.73584C3.4104 22.70848,3.4651199999999998 22.70848,3.5472 22.70848C3.79344 22.70848,4.01232 22.81792,4.0944 23.0368C4.12176 23.146240000000002,4.12176 23.146240000000002,4.12176 29.52112L4.12176 35.950720000000004L4.14912 35.86864C5.1888 34.99312,6.2832 34.55536,7.32288 34.55536C7.73328 34.55536,8.14368 34.610079999999996,8.554079999999999 34.77424C9.78528 35.18464,10.44192 36.33376,10.44192 37.70176C10.44192 38.41312,10.223040000000001 39.20656,9.81264 40C9.210719999999998 41.0944,8.44464 41.96992,6.31056 43.88512L4.20384 45.8824C3.8207999999999998 46.26544,3.73872 46.26544,3.57456 46.26544C3.32832 46.26544,3.10944 46.12864,3.02736 45.90976L3 45.80032L3 34.500640000000004L3 23.146240000000002L3.02736 23.0368C3.10944 22.92736,3.21888 22.7632,3.35568 22.73584M6.58416 36.41584C6.47472 36.36112,6.31056 36.36112,6.2011199999999995 36.36112C6.11904 36.36112,6.06432 36.36112,6.0096 36.36112C5.29824 36.47056,4.66896 36.90832,4.2312 37.61968L4.12176 37.8112L4.12176 41.01232L4.12176 44.26816L4.20384 44.15872C6.2011199999999995 41.96992,7.5144 39.4528,7.5144 37.78384L7.5144 37.72912C7.5144 36.90832,7.2408 36.55264,6.58416 36.41584"/><path stroke-width="0.3" fill="black" stroke="none" stroke-dasharray="none" font-family="Arial" font-size="10pt" font-weight="normal" font-style="normal" x="85" y="29.5" width="1" height="41" d="M32.46016 35 A2 2 0 0 0 28.460160000000002 35M0 0M28.460160000000002 35 A2 2 0 0 0 32.46016 35M0 0"/></g></g></svg>