<?xml version="1.0" standalone="no"?><svg xmlns="http://www.w3.org/2000/svg" width="40" height="130"><path stroke-width="2" fill="none" stroke="black" stroke-dasharray="none" font-family="Arial" font-size="10pt" font-weight="normal" font-style="normal" d="M-15 30L85 30"/><path stroke-width="2" fill="none" stroke="black" stroke-dasharray="none" font-family="Arial" font-size="10pt" font-weight="normal" font-style="normal" d="M-15 40L85 40"/><path stroke-width="2" fill="none" stroke="black" stroke-dasharray="none" font-family="Arial" font-size="10pt" font-weight="normal" font-style="normal" d="M-15 50L85 50"/><path stroke-width="2" fill="none" stroke="black" stroke-dasharray="none" font-family="Arial" font-size="10pt" font-weight="normal" font-style="normal" d="M-15 60L85 60"/><path stroke-width="2" fill="none" stroke="black" stroke-dasharray="none" font-family="Arial" font-size="10pt" font-weight="normal" font-style="normal" d="M-15 70L85 70"/><rect stroke-width="0.3" fill="black" stroke="black" stroke-dasharray="none" font-family="Arial" font-size="10pt" font-weight="normal" font-style="normal" x="-15" y="29.5" width="1" height="41"/><rect stroke-width="0.3" fill="black" stroke="black" stroke-dasharray="none" font-family="Arial" font-size="10pt" font-weight="normal" font-style="normal" x="85" y="29.5" width="1" height="41"/><g class="vf-stavenote" id="vf-auto3155"><g class="vf-note" pointer-events="bounding-box"><g class="vf-stem" pointer-events="bounding-box"><path stroke-width="1.5" fill="none" stroke="black" stroke-dasharray="none" font-family="Arial" font-size="10pt" font-weight="normal" font-style="normal" x="85" y="29.5" width="1" height="41" d="M24.710160000000002 75L24.710160000000002 40"/></g><g class="vf-notehead" pointer-events="bounding-box"><path stroke-width="0.3" fill="black" stroke="none" stroke-dasharray="none" font-family="Arial" font-size="10pt" font-weight="normal" font-style="normal" x="85" y="29.5" width="1" height="41" d="M13.44192 75M20.79888 69.77712C20.9112 69.77712,21.07968 69.77712,21.10776 69.77712C21.10776 69.77712,21.13584 69.77712,21.13584 69.77712C21.13584 69.77712,21.30432 69.77712,21.44472 69.77712C23.97192 69.91752,25.460160000000002 71.57424,25.460160000000002 73.65216C25.460160000000002 74.66304,25.1232 75.81432,24.2808 76.90944C22.680239999999998 79.0716,20.0688 80.25096,17.79432 80.25096C16.02528 80.25096,14.50896 79.54896,13.77888 78.11688C13.55424 77.55528,13.44192 77.02176,13.44192 76.43208C13.44192 73.37136,16.86768 69.97368,20.79888 69.77712"/></g></g><g class="vf-modifiers"><path stroke-width="0.3" fill="black" stroke="none" stroke-dasharray="none" font-family="Arial" font-size="10pt" font-weight="normal" font-style="normal" x="85" y="29.5" width="1" height="41" d="M3.57456 75M3.35568 57.735839999999996C3.4104 57.70848,3.4651199999999998 57.70848,3.5472 57.70848C3.79344 57.70848,4.01232 57.81792,4.0944 58.0368C4.12176 58.146240000000006,4.12176 58.146240000000006,4.12176 64.52112L4.12176 70.95072L4.14912 70.86864C5.1888 69.99312,6.2832 69.55536000000001,7.32288 69.55536000000001C7.73328 69.55536000000001,8.14368 69.61008,8.554079999999999 69.77424C9.78528 70.18464,10.44192 71.33376,10.44192 72.70176000000001C10.44192 73.41312,10.223040000000001 74.20656,9.81264 75C9.210719999999998 76.0944,8.44464 76.96992,6.31056 78.88512L4.20384 80.8824C3.8207999999999998 81.26544,3.73872 81.26544,3.57456 81.26544C3.32832 81.26544,3.10944 81.12864,3.02736 80.90976L3 80.80032L3 69.50064L3 58.146240000000006L3.02736 58.0368C3.10944 57.92736,3.21888 57.7632,3.35568 57.735839999999996M6.58416 71.41584C6.47472 71.36112,6.31056 71.36112,6.2011199999999995 71.36112C6.11904 71.36112,6.06432 71.36112,6.0096 71.36112C5.29824 71.47056,4.66896 71.90832,4.2312 72.61968L4.12176 72.8112L4.12176 76.01232L4.12176 79.26816L4.20384 79.15872C6.2011199999999995 76.96992,7.5144 74.4528,7.5144 72.78384L7.5144 72.72912C7.5144 71.90832,7.2408 71.55264,6.58416 71.41584"/><path stroke-width="0.3" fill="black" stroke="none" stroke-dasharray="none" font-family="Arial" font-size="10pt" font-weight="normal" font-style="normal" x="85" y="29.5" width="1" height="41" d="M32.46016 75 A2 2 0 0 0 28.460160000000002 75M0 0M28.460160000000002 75 A2 2 0 0 0 32.46016 75M0 0"/></g></g></svg>