<?xml version="1.0" standalone="no"?><svg xmlns="http://www.w3.org/2000/svg" width="40" height="130"><path stroke-width="2" fill="none" stroke="black" stroke-dasharray="none" font-family="Arial" font-size="10pt" font-weight="normal" font-style="normal" d="M-15 30L85 30"/><path stroke-width="2" fill="none" stroke="black" stroke-dasharray="none" font-family="Arial" font-size="10pt" font-weight="normal" font-style="normal" d="M-15 40L85 40"/><path stroke-width="2" fill="none" stroke="black" stroke-dasharray="none" font-family="Arial" font-size="10pt" font-weight="normal" font-style="normal" d="M-15 50L85 50"/><path stroke-width="2" fill="none" stroke="black" stroke-dasharray="none" font-family="Arial" font-size="10pt" font-weight="normal" font-style="normal" d="M-15 60L85 60"/><path stroke-width="2" fill="none" stroke="black" stroke-dasharray="none" font-family="Arial" font-size="10pt" font-weight="normal" font-style="normal" d="M-15 70L85 70"/><rect stroke-width="0.3" fill="black" stroke="black" stroke-dasharray="none" font-family="Arial" font-size="10pt" font-weight="normal" font-style="normal" x="-15" y="29.5" width="1" height="41"/><rect stroke-width="0.3" fill="black" stroke="black" stroke-dasharray="none" font-family="Arial" font-size="10pt" font-weight="normal" font-style="normal" x="85" y="29.5" width="1" height="41"/><path stroke-width="2" fill="none" stroke="black" stroke-dasharray="none" font-family="Arial" font-size="10pt" font-weight="normal" font-style="normal" x="85" y="29.5" width="1" height="41" d="M10.44192 80L28.46016 80"/><path stroke-width="2" fill="none" stroke="black" stroke-dasharray="none" font-family="Arial" font-size="10pt" font-weight="normal" font-style="normal" x="85" y="29.5" width="1" height="41" d="M10.44192 90L28.46016 90"/><path stroke-width="2" fill="none" stroke="black" stroke-dasharray="none" font-family="Arial" font-size="10pt" font-weight="normal" font-style="normal" x="85" y="29.5" width="1" height="41" d="M10.44192 100L28.46016 100"/><path stroke-width="2" fill="none" stroke="black" stroke-dasharray="none" font-family="Arial" font-size="10pt" font-weight="normal" font-style="normal" x="85" y="29.5" width="1" height="41" d="M10.44192 110L28.46016 110"/><g class="vf-stavenote" id="vf-auto5270"><g class="vf-note" pointer-events="bounding-box"><g class="vf-stem" pointer-events="bounding-box"><path stroke-width="1.5" fill="none" stroke="black" stroke-dasharray="none" font-family="Arial" font-size="10pt" font-weight="normal" font-style="normal" x="85" y="29.5" width="1" height="41" d="M24.710160000000002 110L24.710160000000002 75"/></g><g class="vf-notehead" pointer-events="bounding-box"><path stroke-width="0.3" fill="black" stroke="none" stroke-dasharray="none" font-family="Arial" font-size="10pt" font-weight="normal" font-style="normal" x="85" y="29.5" width="1" height="41" d="M13.44192 110M20.79888 104.77712C20.9112 104.77712,21.07968 104.77712,21.10776 104.77712C21.10776 104.77712,21.13584 104.77712,21.13584 104.77712C21.13584 104.77712,21.30432 104.77712,21.44472 104.77712C23.97192 104.91752,25.460160000000002 106.57424,25.460160000000002 108.65216C25.460160000000002 109.66304,25.1232 110.81432,24.2808 111.90944C22.680239999999998 114.0716,20.0688 115.25096,17.79432 115.25096C16.02528 115.25096,14.50896 114.54896,13.77888 113.11688C13.55424 112.55528,13.44192 112.02176,13.44192 111.43208C13.44192 108.37136,16.86768 104.97368,20.79888 104.77712"/></g><g class="vf-flag" pointer-events="bounding-box"><path stroke-width="0.3" fill="black" stroke="none" stroke-dasharray="none" font-family="Arial" font-size="10pt" font-weight="normal" font-style="normal" x="85" y="29.5" width="1" height="41" d="M24.710160000000002 73M24.036240000000003 77.12776L24.036240000000003 73.1404L24.148560000000003 73.1404C24.3732 73.1404,24.59784 73.30888,24.682080000000003 73.53352C24.87864 74.20744,25.580640000000002 75.41488,26.338800000000003 76.45384C27.321600000000004 77.85784,28.472880000000004 79.14952,30.21384 80.80624C32.40408 82.99648,33.61152 85.9168,33.61152 89.0056C33.61152 90.32536,33.3588 91.70128,32.965680000000006 93.02104L32.82528000000001 93.32992L32.965680000000006 93.6388C33.3588 94.9024,33.61152 96.22216,33.61152 97.51384C33.61152 100.04104000000001,32.797200000000004 102.59632,31.308960000000003 104.78656000000001C31.1124 105.0112,31.000080000000004 105.17967999999999,30.57888 105.7132C30.438480000000002 105.90976,30.21384 106.05016,30.017280000000003 106.05016C29.82072 106.05016,29.624160000000003 105.90976,29.511840000000003 105.68512C29.483760000000004 105.60088,29.4276 105.54472,29.4276 105.40432C29.4276 105.26392,29.539920000000002 105.06736000000001,29.792640000000002 104.78656000000001C31.3932 102.87712,32.26368 100.378,32.26368 98.01928000000001C32.26368 97.87888000000001,32.26368 97.82272,32.26368 97.73848C32.26368 97.06456,32.151360000000004 96.22216,32.06712 95.85712000000001C32.03904 95.77288,31.98288 95.63248,31.954800000000002 95.464C31.449360000000002 93.52647999999999,30.270000000000003 91.72936,28.69752 90.63424C27.855120000000003 90.01648,26.02992 89.53912,24.48552 89.53912C24.34512 89.53912,24.176640000000003 89.53912,24.148560000000003 89.53912L24.036240000000003 89.53912L24.036240000000003 85.60792000000001L24.036240000000003 81.64864L24.148560000000003 81.64864C24.3732 81.64864,24.59784 81.78904,24.682080000000003 82.04176C24.87864 82.6876,25.580640000000002 83.89504,26.338800000000003 84.90592C27.321600000000004 86.36608,28.529040000000002 87.68584,30.157680000000003 89.2864C30.915840000000003 90.01648,31.589760000000002 90.8308,31.98288 91.53280000000001C31.98288 91.58896,32.03904 91.61704,32.03904 91.61704C32.06712 91.61704,32.06712 91.53280000000001,32.12328 91.42048C32.235600000000005 90.74656,32.26368 90.1288,32.26368 89.48296C32.26368 88.89328,32.235600000000005 88.27552,32.12328 87.62968000000001C32.12328 87.51736,32.06712 87.40504,32.06712 87.37696C32.03904 87.29272,31.98288 87.12424,31.954800000000002 86.98384C31.449360000000002 85.01824,30.270000000000003 83.2492,28.69752 82.15408C27.855120000000003 81.50824,26.02992 81.08704,24.48552 81.05896C24.34512 81.05896,24.176640000000003 81.05896,24.148560000000003 81.05896L24.036240000000003 81.05896L24.036240000000003 77.12776"/></g></g><g class="vf-modifiers"><path stroke-width="0.3" fill="black" stroke="none" stroke-dasharray="none" font-family="Arial" font-size="10pt" font-weight="normal" font-style="normal" x="85" y="29.5" width="1" height="41" d="M3.57456 110M3.35568 92.73584C3.4104 92.70848000000001,3.4651199999999998 92.70848000000001,3.5472 92.70848000000001C3.79344 92.70848000000001,4.01232 92.81792,4.0944 93.0368C4.12176 93.14624,4.12176 93.14624,4.12176 99.52112L4.12176 105.95072L4.14912 105.86864C5.1888 104.99312,6.2832 104.55536000000001,7.32288 104.55536000000001C7.73328 104.55536000000001,8.14368 104.61008,8.554079999999999 104.77424C9.78528 105.18464,10.44192 106.33376,10.44192 107.70176000000001C10.44192 108.41312,10.223040000000001 109.20656,9.81264 110C9.210719999999998 111.0944,8.44464 111.96992,6.31056 113.88512L4.20384 115.8824C3.8207999999999998 116.26544,3.73872 116.26544,3.57456 116.26544C3.32832 116.26544,3.10944 116.12864,3.02736 115.90976L3 115.80032L3 104.50064L3 93.14624L3.02736 93.0368C3.10944 92.92736,3.21888 92.7632,3.35568 92.73584M6.58416 106.41584C6.47472 106.36112,6.31056 106.36112,6.2011199999999995 106.36112C6.11904 106.36112,6.06432 106.36112,6.0096 106.36112C5.29824 106.47056,4.66896 106.90832,4.2312 107.61968L4.12176 107.8112L4.12176 111.01232L4.12176 114.26816L4.20384 114.15872C6.2011199999999995 111.96992,7.5144 109.4528,7.5144 107.78384L7.5144 107.72912C7.5144 106.90832,7.2408 106.55264,6.58416 106.41584"/><path stroke-width="0.3" fill="black" stroke="none" stroke-dasharray="none" font-family="Arial" font-size="10pt" font-weight="normal" font-style="normal" x="85" y="29.5" width="1" height="41" d="M42.03544 105 A2 2 0 0 0 38.03544 105M0 0M38.03544 105 A2 2 0 0 0 42.03544 105M0 0"/></g></g></svg>