<?xml version="1.0" standalone="no"?><svg xmlns="http://www.w3.org/2000/svg" width="40" height="130"><path stroke-width="2" fill="none" stroke="black" stroke-dasharray="none" font-family="Arial" font-size="10pt" font-weight="normal" font-style="normal" d="M-15 30L85 30"/><path stroke-width="2" fill="none" stroke="black" stroke-dasharray="none" font-family="Arial" font-size="10pt" font-weight="normal" font-style="normal" d="M-15 40L85 40"/><path stroke-width="2" fill="none" stroke="black" stroke-dasharray="none" font-family="Arial" font-size="10pt" font-weight="normal" font-style="normal" d="M-15 50L85 50"/><path stroke-width="2" fill="none" stroke="black" stroke-dasharray="none" font-family="Arial" font-size="10pt" font-weight="normal" font-style="normal" d="M-15 60L85 60"/><path stroke-width="2" fill="none" stroke="black" stroke-dasharray="none" font-family="Arial" font-size="10pt" font-weight="normal" font-style="normal" d="M-15 70L85 70"/><rect stroke-width="0.3" fill="black" stroke="black" stroke-dasharray="none" font-family="Arial" font-size="10pt" font-weight="normal" font-style="normal" x="-15" y="29.5" width="1" height="41"/><rect stroke-width="0.3" fill="black" stroke="black" stroke-dasharray="none" font-family="Arial" font-size="10pt" font-weight="normal" font-style="normal" x="85" y="29.5" width="1" height="41"/><g class="vf-stavenote" id="vf-auto1167"><g class="vf-note" pointer-events="bounding-box"><g class="vf-notehead" pointer-events="bounding-box"><path stroke-width="0.3" fill="black" stroke="none" stroke-dasharray="none" font-family="Arial" font-size="10pt" font-weight="normal" font-style="normal" x="85" y="29.5" width="1" height="41" d="M13.44192 75M21.13584 69.83328C21.44472 69.77712,21.7536 69.77712,22.06248 69.77712C26.499119999999998 69.77712,30.20568 71.74272,30.7392 74.38224C30.76728 74.63496,30.82344 74.8596,30.82344 75.02808C30.82344 77.92032,27.004559999999998 80.25096,22.09056 80.25096C17.17656 80.25096,13.44192 77.86416,13.44192 75.02808C13.44192 74.69112,13.469999999999999 74.35416,13.58232 73.98912C14.25624 71.7708,17.4012 70.05792,21.13584 69.83328M21.55704 70.47912C21.41664 70.45104,21.22008 70.45104,21.07968 70.45104C19.31064 70.45104,18.2436 71.96736,18.2436 73.84872C18.2436 74.8596,18.55248 75.95472,19.19832 77.04984C20.26536 78.73464,21.80976 79.57704,23.12952 79.57704C24.25272 79.57704,25.23552 78.98736,25.6848 77.75184C25.88136 77.2464,25.965600000000002 76.74096,25.965600000000002 76.20744C25.965600000000002 73.68024,24.02808 70.87224,21.55704 70.47912"/></g></g><g class="vf-modifiers"><path stroke-width="0.3" fill="black" stroke="none" stroke-dasharray="none" font-family="Arial" font-size="10pt" font-weight="normal" font-style="normal" x="85" y="29.5" width="1" height="41" d="M3.57456 75M3.35568 57.735839999999996C3.4104 57.70848,3.4651199999999998 57.70848,3.5472 57.70848C3.79344 57.70848,4.01232 57.81792,4.0944 58.0368C4.12176 58.146240000000006,4.12176 58.146240000000006,4.12176 64.52112L4.12176 70.95072L4.14912 70.86864C5.1888 69.99312,6.2832 69.55536000000001,7.32288 69.55536000000001C7.73328 69.55536000000001,8.14368 69.61008,8.554079999999999 69.77424C9.78528 70.18464,10.44192 71.33376,10.44192 72.70176000000001C10.44192 73.41312,10.223040000000001 74.20656,9.81264 75C9.210719999999998 76.0944,8.44464 76.96992,6.31056 78.88512L4.20384 80.8824C3.8207999999999998 81.26544,3.73872 81.26544,3.57456 81.26544C3.32832 81.26544,3.10944 81.12864,3.02736 80.90976L3 80.80032L3 69.50064L3 58.146240000000006L3.02736 58.0368C3.10944 57.92736,3.21888 57.7632,3.35568 57.735839999999996M6.58416 71.41584C6.47472 71.36112,6.31056 71.36112,6.2011199999999995 71.36112C6.11904 71.36112,6.06432 71.36112,6.0096 71.36112C5.29824 71.47056,4.66896 71.90832,4.2312 72.61968L4.12176 72.8112L4.12176 76.01232L4.12176 79.26816L4.20384 79.15872C6.2011199999999995 76.96992,7.5144 74.4528,7.5144 72.78384L7.5144 72.72912C7.5144 71.90832,7.2408 71.55264,6.58416 71.41584"/></g></g></svg>