<?xml version="1.0" standalone="no"?><svg xmlns="http://www.w3.org/2000/svg" width="40" height="130"><path stroke-width="2" fill="none" stroke="black" stroke-dasharray="none" font-family="Arial" font-size="10pt" font-weight="normal" font-style="normal" d="M-15 30L85 30"/><path stroke-width="2" fill="none" stroke="black" stroke-dasharray="none" font-family="Arial" font-size="10pt" font-weight="normal" font-style="normal" d="M-15 40L85 40"/><path stroke-width="2" fill="none" stroke="black" stroke-dasharray="none" font-family="Arial" font-size="10pt" font-weight="normal" font-style="normal" d="M-15 50L85 50"/><path stroke-width="2" fill="none" stroke="black" stroke-dasharray="none" font-family="Arial" font-size="10pt" font-weight="normal" font-style="normal" d="M-15 60L85 60"/><path stroke-width="2" fill="none" stroke="black" stroke-dasharray="none" font-family="Arial" font-size="10pt" font-weight="normal" font-style="normal" d="M-15 70L85 70"/><rect stroke-width="0.3" fill="black" stroke="black" stroke-dasharray="none" font-family="Arial" font-size="10pt" font-weight="normal" font-style="normal" x="-15" y="29.5" width="1" height="41"/><rect stroke-width="0.3" fill="black" stroke="black" stroke-dasharray="none" font-family="Arial" font-size="10pt" font-weight="normal" font-style="normal" x="85" y="29.5" width="1" height="41"/><g class="vf-stavenote" id="vf-auto4840"><g class="vf-note" pointer-events="bounding-box"><g class="vf-stem" pointer-events="bounding-box"><path stroke-width="1.5" fill="none" stroke="black" stroke-dasharray="none" font-family="Arial" font-size="10pt" font-weight="normal" font-style="normal" x="85" y="29.5" width="1" height="41" d="M24.710160000000002 75L24.710160000000002 40"/></g><g class="vf-notehead" pointer-events="bounding-box"><path stroke-width="0.3" fill="black" stroke="none" stroke-dasharray="none" font-family="Arial" font-size="10pt" font-weight="normal" font-style="normal" x="85" y="29.5" width="1" height="41" d="M13.44192 75M20.79888 69.77712C20.9112 69.77712,21.07968 69.77712,21.10776 69.77712C21.10776 69.77712,21.13584 69.77712,21.13584 69.77712C21.13584 69.77712,21.30432 69.77712,21.44472 69.77712C23.97192 69.91752,25.460160000000002 71.57424,25.460160000000002 73.65216C25.460160000000002 74.66304,25.1232 75.81432,24.2808 76.90944C22.680239999999998 79.0716,20.0688 80.25096,17.79432 80.25096C16.02528 80.25096,14.50896 79.54896,13.77888 78.11688C13.55424 77.55528,13.44192 77.02176,13.44192 76.43208C13.44192 73.37136,16.86768 69.97368,20.79888 69.77712"/></g><g class="vf-flag" pointer-events="bounding-box"><path stroke-width="0.3" fill="black" stroke="none" stroke-dasharray="none" font-family="Arial" font-size="10pt" font-weight="normal" font-style="normal" x="85" y="29.5" width="1" height="41" d="M24.710160000000002 38M24.036240000000003 42.12776L24.036240000000003 38.1404L24.148560000000003 38.1404C24.3732 38.1404,24.59784 38.30888,24.682080000000003 38.53352C24.87864 39.20744,25.580640000000002 40.41488,26.338800000000003 41.45384C27.321600000000004 42.85784,28.472880000000004 44.14952,30.21384 45.80624C32.40408 47.99648,33.61152 50.9168,33.61152 54.0056C33.61152 55.32536,33.3588 56.70128,32.965680000000006 58.02104L32.82528000000001 58.32992L32.965680000000006 58.6388C33.3588 59.9024,33.61152 61.22216,33.61152 62.51384C33.61152 65.04104000000001,32.797200000000004 67.59632,31.308960000000003 69.78656000000001C31.1124 70.0112,31.000080000000004 70.17967999999999,30.57888 70.7132C30.438480000000002 70.90976,30.21384 71.05016,30.017280000000003 71.05016C29.82072 71.05016,29.624160000000003 70.90976,29.511840000000003 70.68512C29.483760000000004 70.60088,29.4276 70.54472,29.4276 70.40432C29.4276 70.26392,29.539920000000002 70.06736000000001,29.792640000000002 69.78656000000001C31.3932 67.87712,32.26368 65.378,32.26368 63.01928C32.26368 62.87888,32.26368 62.822720000000004,32.26368 62.738479999999996C32.26368 62.06456,32.151360000000004 61.22216,32.06712 60.85712C32.03904 60.77288,31.98288 60.63248,31.954800000000002 60.464C31.449360000000002 58.52648,30.270000000000003 56.72936,28.69752 55.634240000000005C27.855120000000003 55.01648,26.02992 54.53912,24.48552 54.53912C24.34512 54.53912,24.176640000000003 54.53912,24.148560000000003 54.53912L24.036240000000003 54.53912L24.036240000000003 50.60792L24.036240000000003 46.64864L24.148560000000003 46.64864C24.3732 46.64864,24.59784 46.78904,24.682080000000003 47.04176C24.87864 47.6876,25.580640000000002 48.89504,26.338800000000003 49.90592C27.321600000000004 51.36608,28.529040000000002 52.68584,30.157680000000003 54.2864C30.915840000000003 55.01648,31.589760000000002 55.830799999999996,31.98288 56.5328C31.98288 56.58896,32.03904 56.61704,32.03904 56.61704C32.06712 56.61704,32.06712 56.5328,32.12328 56.42048C32.235600000000005 55.74656,32.26368 55.1288,32.26368 54.482960000000006C32.26368 53.893280000000004,32.235600000000005 53.27552,32.12328 52.62968C32.12328 52.51736,32.06712 52.40504,32.06712 52.37696C32.03904 52.29272,31.98288 52.12424,31.954800000000002 51.98384C31.449360000000002 50.01824,30.270000000000003 48.2492,28.69752 47.15408C27.855120000000003 46.50824,26.02992 46.08704,24.48552 46.05896C24.34512 46.05896,24.176640000000003 46.05896,24.148560000000003 46.05896L24.036240000000003 46.05896L24.036240000000003 42.12776"/></g></g><g class="vf-modifiers"><path stroke-width="0.3" fill="black" stroke="none" stroke-dasharray="none" font-family="Arial" font-size="10pt" font-weight="normal" font-style="normal" x="85" y="29.5" width="1" height="41" d="M3.57456 75M3.35568 57.735839999999996C3.4104 57.70848,3.4651199999999998 57.70848,3.5472 57.70848C3.79344 57.70848,4.01232 57.81792,4.0944 58.0368C4.12176 58.146240000000006,4.12176 58.146240000000006,4.12176 64.52112L4.12176 70.95072L4.14912 70.86864C5.1888 69.99312,6.2832 69.55536000000001,7.32288 69.55536000000001C7.73328 69.55536000000001,8.14368 69.61008,8.554079999999999 69.77424C9.78528 70.18464,10.44192 71.33376,10.44192 72.70176000000001C10.44192 73.41312,10.223040000000001 74.20656,9.81264 75C9.210719999999998 76.0944,8.44464 76.96992,6.31056 78.88512L4.20384 80.8824C3.8207999999999998 81.26544,3.73872 81.26544,3.57456 81.26544C3.32832 81.26544,3.10944 81.12864,3.02736 80.90976L3 80.80032L3 69.50064L3 58.146240000000006L3.02736 58.0368C3.10944 57.92736,3.21888 57.7632,3.35568 57.735839999999996M6.58416 71.41584C6.47472 71.36112,6.31056 71.36112,6.2011199999999995 71.36112C6.11904 71.36112,6.06432 71.36112,6.0096 71.36112C5.29824 71.47056,4.66896 71.90832,4.2312 72.61968L4.12176 72.8112L4.12176 76.01232L4.12176 79.26816L4.20384 79.15872C6.2011199999999995 76.96992,7.5144 74.4528,7.5144 72.78384L7.5144 72.72912C7.5144 71.90832,7.2408 71.55264,6.58416 71.41584"/></g></g></svg>