<?xml version="1.0" standalone="no"?><svg xmlns="http://www.w3.org/2000/svg" width="40" height="130"><path stroke-width="2" fill="none" stroke="black" stroke-dasharray="none" font-family="Arial" font-size="10pt" font-weight="normal" font-style="normal" d="M-15 30L85 30"/><path stroke-width="2" fill="none" stroke="black" stroke-dasharray="none" font-family="Arial" font-size="10pt" font-weight="normal" font-style="normal" d="M-15 40L85 40"/><path stroke-width="2" fill="none" stroke="black" stroke-dasharray="none" font-family="Arial" font-size="10pt" font-weight="normal" font-style="normal" d="M-15 50L85 50"/><path stroke-width="2" fill="none" stroke="black" stroke-dasharray="none" font-family="Arial" font-size="10pt" font-weight="normal" font-style="normal" d="M-15 60L85 60"/><path stroke-width="2" fill="none" stroke="black" stroke-dasharray="none" font-family="Arial" font-size="10pt" font-weight="normal" font-style="normal" d="M-15 70L85 70"/><rect stroke-width="0.3" fill="black" stroke="black" stroke-dasharray="none" font-family="Arial" font-size="10pt" font-weight="normal" font-style="normal" x="-15" y="29.5" width="1" height="41"/><rect stroke-width="0.3" fill="black" stroke="black" stroke-dasharray="none" font-family="Arial" font-size="10pt" font-weight="normal" font-style="normal" x="85" y="29.5" width="1" height="41"/><g class="vf-stavenote" id="vf-auto1206"><g class="vf-note" pointer-events="bounding-box"><g class="vf-notehead" pointer-events="bounding-box"><path stroke-width="0.3" fill="black" stroke="none" stroke-dasharray="none" font-family="Arial" font-size="10pt" font-weight="normal" font-style="normal" x="85" y="29.5" width="1" height="41" d="M13.44192 40M21.13584 34.83328C21.44472 34.77712,21.7536 34.77712,22.06248 34.77712C26.499119999999998 34.77712,30.20568 36.74272,30.7392 39.38224C30.76728 39.63496,30.82344 39.8596,30.82344 40.02808C30.82344 42.920320000000004,27.004559999999998 45.25096,22.09056 45.25096C17.17656 45.25096,13.44192 42.86416,13.44192 40.02808C13.44192 39.69112,13.469999999999999 39.35416,13.58232 38.98912C14.25624 36.7708,17.4012 35.05792,21.13584 34.83328M21.55704 35.47912C21.41664 35.45104,21.22008 35.45104,21.07968 35.45104C19.31064 35.45104,18.2436 36.96736,18.2436 38.84872C18.2436 39.8596,18.55248 40.95472,19.19832 42.04984C20.26536 43.73464,21.80976 44.57704,23.12952 44.57704C24.25272 44.57704,25.23552 43.98736,25.6848 42.75184C25.88136 42.2464,25.965600000000002 41.74096,25.965600000000002 41.20744C25.965600000000002 38.68024,24.02808 35.87224,21.55704 35.47912"/></g></g><g class="vf-modifiers"><path stroke-width="0.3" fill="black" stroke="none" stroke-dasharray="none" font-family="Arial" font-size="10pt" font-weight="normal" font-style="normal" x="85" y="29.5" width="1" height="41" d="M3.57456 40M3.35568 22.73584C3.4104 22.70848,3.4651199999999998 22.70848,3.5472 22.70848C3.79344 22.70848,4.01232 22.81792,4.0944 23.0368C4.12176 23.146240000000002,4.12176 23.146240000000002,4.12176 29.52112L4.12176 35.950720000000004L4.14912 35.86864C5.1888 34.99312,6.2832 34.55536,7.32288 34.55536C7.73328 34.55536,8.14368 34.610079999999996,8.554079999999999 34.77424C9.78528 35.18464,10.44192 36.33376,10.44192 37.70176C10.44192 38.41312,10.223040000000001 39.20656,9.81264 40C9.210719999999998 41.0944,8.44464 41.96992,6.31056 43.88512L4.20384 45.8824C3.8207999999999998 46.26544,3.73872 46.26544,3.57456 46.26544C3.32832 46.26544,3.10944 46.12864,3.02736 45.90976L3 45.80032L3 34.500640000000004L3 23.146240000000002L3.02736 23.0368C3.10944 22.92736,3.21888 22.7632,3.35568 22.73584M6.58416 36.41584C6.47472 36.36112,6.31056 36.36112,6.2011199999999995 36.36112C6.11904 36.36112,6.06432 36.36112,6.0096 36.36112C5.29824 36.47056,4.66896 36.90832,4.2312 37.61968L4.12176 37.8112L4.12176 41.01232L4.12176 44.26816L4.20384 44.15872C6.2011199999999995 41.96992,7.5144 39.4528,7.5144 37.78384L7.5144 37.72912C7.5144 36.90832,7.2408 36.55264,6.58416 36.41584"/><path stroke-width="0.3" fill="black" stroke="none" stroke-dasharray="none" font-family="Arial" font-size="10pt" font-weight="normal" font-style="normal" x="85" y="29.5" width="1" height="41" d="M37.823440000000005 35 A2 2 0 0 0 33.823440000000005 35M0 0M33.823440000000005 35 A2 2 0 0 0 37.823440000000005 35M0 0"/></g></g></svg>