<svg height="512pt" viewBox="0 0 512 512.00036" width="512pt" xmlns="http://www.w3.org/2000/svg"><path d="m347.082031 0v29.996094c36.105469 0 70.007813 14.015625 95.457031 39.464844 25.449219 25.449218 39.464844 59.351562 39.464844 95.457031h29.996094c0-44.125-17.128906-85.554688-48.246094-116.671875-31.117187-31.113282-72.546875-48.246094-116.671875-48.246094zm0 0"/><path d="m347.082031 59.972656v29.996094c40.125-.019531 74.96875 34.824219 74.949219 74.953125h29.996094c.019531-56.121094-48.828125-104.96875-104.945313-104.949219zm0 0"/><path d="m347.101562 149.921875c7.976563-.019531 14.996094 7 14.976563 14.976563l29.996094.039062c.042969-24.027344-20.984375-45.054688-45.015625-45.011719zm0 0"/><path d="m245.40625 287.808594c5.851562-5.855469 5.851562-15.363282 0-21.214844s-15.359375-5.851562-21.214844 0c-5.851562 5.851562-5.851562 15.359375 0 21.214844 5.855469 5.851562 15.363282 5.851562 21.214844 0zm0 0"/><path d="m36.460938 475.523438c52.25 52.25 137.394531 47.359374 183.6875-8.203126l162.335937-190.925781-62.832031-62.835937 21.214844-21.210938-21.214844-21.214844-21.214844 21.214844-62.828125-62.832031-190.8125 162.203125c-56.246094 46.867188-60.089844 132.046875-8.335937 183.804688zm91.121093-27.464844-21.210937-21.214844 21.210937-21.214844 21.214844 21.214844zm75.394531-202.675782c17.546876-17.546874 46.09375-17.546874 63.640626 0 17.546874 17.542969 17.546874 46.089844 0 63.636719-17.546876 17.546875-46.09375 17.546875-63.640626 0-17.542968-17.542969-17.542968-46.09375 0-63.636719zm-11.753906 139.035157-21.214844 21.214843-21.214843-21.214843 21.214843-21.214844zm-63.640625-63.640625 21.214844 21.210937-21.214844 21.214844-21.210937-21.214844zm-42.425781 42.425781 21.214844 21.214844-21.214844 21.210937-21.214844-21.210937zm0 0"/></svg>