<?xml version="1.0" standalone="no"?><svg xmlns="http://www.w3.org/2000/svg" width="40" height="130"><path stroke-width="2" fill="none" stroke="black" stroke-dasharray="none" font-family="Arial" font-size="10pt" font-weight="normal" font-style="normal" d="M-15 30L85 30"/><path stroke-width="2" fill="none" stroke="black" stroke-dasharray="none" font-family="Arial" font-size="10pt" font-weight="normal" font-style="normal" d="M-15 40L85 40"/><path stroke-width="2" fill="none" stroke="black" stroke-dasharray="none" font-family="Arial" font-size="10pt" font-weight="normal" font-style="normal" d="M-15 50L85 50"/><path stroke-width="2" fill="none" stroke="black" stroke-dasharray="none" font-family="Arial" font-size="10pt" font-weight="normal" font-style="normal" d="M-15 60L85 60"/><path stroke-width="2" fill="none" stroke="black" stroke-dasharray="none" font-family="Arial" font-size="10pt" font-weight="normal" font-style="normal" d="M-15 70L85 70"/><rect stroke-width="0.3" fill="black" stroke="black" stroke-dasharray="none" font-family="Arial" font-size="10pt" font-weight="normal" font-style="normal" x="-15" y="29.5" width="1" height="41"/><rect stroke-width="0.3" fill="black" stroke="black" stroke-dasharray="none" font-family="Arial" font-size="10pt" font-weight="normal" font-style="normal" x="85" y="29.5" width="1" height="41"/><g class="vf-stavenote" id="vf-auto4312"><g class="vf-note" pointer-events="bounding-box"><g class="vf-stem" pointer-events="bounding-box"><path stroke-width="1.5" fill="none" stroke="black" stroke-dasharray="none" font-family="Arial" font-size="10pt" font-weight="normal" font-style="normal" x="85" y="29.5" width="1" height="41" d="M15.58728 40L15.58728 75"/></g><g class="vf-notehead" pointer-events="bounding-box"><path stroke-width="0.3" fill="black" stroke="none" stroke-dasharray="none" font-family="Arial" font-size="10pt" font-weight="normal" font-style="normal" x="85" y="29.5" width="1" height="41" d="M14.83728 40M22.19424 34.77712C22.30656 34.77712,22.47504 34.77712,22.50312 34.77712C22.50312 34.77712,22.5312 34.77712,22.5312 34.77712C22.5312 34.77712,22.69968 34.77712,22.84008 34.77712C25.36728 34.917519999999996,26.85552 36.57424,26.85552 38.65216C26.85552 39.66304,26.51856 40.81432,25.67616 41.909440000000004C24.0756 44.071600000000004,21.46416 45.25096,19.18968 45.25096C17.42064 45.25096,15.90432 44.54896,15.17424 43.11688C14.9496 42.55528,14.83728 42.02176,14.83728 41.43208C14.83728 38.37136,18.26304 34.97368,22.19424 34.77712"/></g><g class="vf-flag" pointer-events="bounding-box"><path stroke-width="0.3" fill="black" stroke="none" stroke-dasharray="none" font-family="Arial" font-size="10pt" font-weight="normal" font-style="normal" x="85" y="29.5" width="1" height="41" d="M15.58728 77M22.04568 48.04952C22.10184 48.02144,22.18608 48.02144,22.270319999999998 48.02144C22.46688 48.02144,22.63536 48.16184,22.86 48.52688C24.85368 51.55952,25.89264 55.041439999999994,25.89264 58.41104C25.89264 59.00072,25.89264 59.56232,25.8084 60.095839999999995C25.47144 63.29696,24.1236 66.21728,22.10184 68.09864C19.93968 70.1204,18.47952 71.74904,17.18784 73.6304C16.45776 74.64128,15.75576 75.8768,15.5592 76.49456C15.47496 76.69112,15.25032 76.88768,15.05376 76.88768L14.9976 76.88768L14.9976 72.53528L14.9976 68.1548L15.138 68.1548C15.868079999999999 68.1548,17.32824 67.90208,18.28296 67.5932C21.96144 66.3296,24.432479999999998 62.20184,24.432479999999998 57.4844C24.432479999999998 57.09128,24.404400000000003 56.67008,24.37632 56.27696C24.1236 53.834,23.25312 51.27872,21.877200000000002 49.17272C21.7368 48.948080000000004,21.65256 48.72344,21.65256 48.554959999999994C21.65256 48.33032,21.764879999999998 48.133759999999995,22.04568 48.04952"/></g></g><g class="vf-modifiers"><path stroke-width="0.3" fill="black" stroke="none" stroke-dasharray="none" font-family="Arial" font-size="10pt" font-weight="normal" font-style="normal" x="85" y="29.5" width="1" height="41" d="M3 40M8.93712 25.3624C9.0192 25.30768,9.04656 25.30768,9.155999999999999 25.30768C9.4296 25.30768,9.62112 25.41712,9.703199999999999 25.66336L9.73056 25.745440000000002L9.757919999999999 29.3296L9.757919999999999 32.94112L10.46928 32.7496C10.87968 32.64016,11.18064 32.6128,11.37216 32.6128C11.6184 32.6128,11.72784 32.69488,11.80992 32.913759999999996C11.83728 32.99584,11.83728 33.62512,11.83728 34.30912C11.83728 34.96576,11.83728 35.64976,11.80992 35.67712C11.700479999999999 35.950720000000004,11.6184 35.97808,10.87968 36.1696C9.94944 36.41584,9.757919999999999 36.4432,9.757919999999999 36.4432C9.757919999999999 36.4432,9.757919999999999 37.154560000000004,9.757919999999999 38.2216C9.757919999999999 38.60464,9.757919999999999 39.01504,9.757919999999999 39.4528L9.757919999999999 42.40768L10.46928 42.21616C10.907039999999999 42.10672,11.18064 42.07936,11.37216 42.07936C11.50896 42.07936,11.6184 42.10672,11.700479999999999 42.21616C11.83728 42.38032,11.83728 42.35296,11.83728 43.36528L11.83728 43.77568L11.83728 44.21344C11.83728 45.22576,11.83728 45.1984,11.700479999999999 45.3352C11.59104 45.44464,11.6184 45.44464,10.359839999999998 45.745599999999996C10.08624 45.82768,9.84 45.90976,9.81264 45.90976L9.757919999999999 45.90976L9.757919999999999 49.54864L9.73056 53.21488L9.703199999999999 53.32432C9.62112 53.5432,9.402239999999999 53.65264,9.155999999999999 53.65264C8.99184 53.65264,8.7456 53.5432,8.63616 53.32432L8.608799999999999 53.21488L8.608799999999999 49.7128L8.608799999999999 46.21072L8.58144 46.21072L7.95216 46.37488L6.7756799999999995 46.67584C6.47472 46.75792,6.2011199999999995 46.81264,6.2011199999999995 46.81264C6.1464 46.81264,6.1464 47.00416,6.1464 50.5336L6.1464 54.30928L6.11904 54.39136C6.0096 54.61024,5.79072 54.71968,5.5992 54.71968C5.380319999999999 54.71968,5.13408 54.61024,5.02464 54.39136L4.99728 54.30928L4.99728 50.69776C4.99728 47.35984,4.99728 47.1136,4.96992 47.1136C4.96992 47.1136,4.96992 47.1136,4.96992 47.1136C4.66896 47.195679999999996,3.62928 47.46928,3.51984 47.46928C3.2736 47.46928,3.10944 47.30512,3 47.1136C3 47.00416,3 47.00416,3 45.71824L3 44.43232L3.02736 44.32288C3.1368 44.049279999999996,3.1368 44.049279999999996,4.66896 43.66624L4.99728 43.58416L4.99728 40.60192C4.99728 37.83856,4.99728 37.64704,4.96992 37.64704C4.96992 37.64704,4.96992 37.64704,4.96992 37.64704C4.66896 37.72912,3.62928 37.97536,3.51984 37.97536C3.2736 37.97536,3.10944 37.83856,3 37.64704C3 37.5376,3 37.5376,3 36.25168L3 34.96576L3.02736 34.85632C3.1368 34.58272,3.1368 34.58272,4.66896 34.19968L4.99728 34.1176L4.99728 30.478720000000003L4.99728 26.839840000000002L5.02464 26.730400000000003C5.13408 26.53888,5.380319999999999 26.37472,5.5992 26.37472C5.68128 26.37472,5.736 26.42944,5.81808 26.4568C5.9275199999999995 26.484160000000003,6.03696 26.62096,6.11904 26.730400000000003L6.1464 26.839840000000002L6.1464 30.341920000000002L6.1464 33.81664L6.31056 33.81664C6.36528 33.78928,6.85776 33.67984,7.350239999999999 33.5704L8.41728 33.24208L8.608799999999999 33.21472L8.608799999999999 29.49376L8.608799999999999 25.745440000000002L8.63616 25.66336C8.71824 25.553919999999998,8.80032 25.41712,8.93712 25.3624M8.608799999999999 39.75376C8.608799999999999 38.0848,8.608799999999999 36.74416,8.608799999999999 36.74416L8.608799999999999 36.74416C8.58144 36.74416,8.307839999999999 36.82624,7.97952 36.90832L6.7756799999999995 37.20928C6.47472 37.29136,6.2011199999999995 37.34608,6.2011199999999995 37.34608C6.1464 37.34608,6.1464 37.51024,6.1464 40.32832L6.1464 43.33792L6.31056 43.2832C6.36528 43.25584,6.85776 43.1464,7.350239999999999 43.03696L8.41728 42.76336L8.608799999999999 42.68128L8.608799999999999 39.75376"/><path stroke-width="0.3" fill="black" stroke="none" stroke-dasharray="none" font-family="Arial" font-size="10pt" font-weight="normal" font-style="normal" x="85" y="29.5" width="1" height="41" d="M33.85552 35 A2 2 0 0 0 29.85552 35M0 0M29.85552 35 A2 2 0 0 0 33.85552 35M0 0"/></g></g></svg>