<?xml version="1.0" standalone="no"?><svg xmlns="http://www.w3.org/2000/svg" width="40" height="130"><path stroke-width="2" fill="none" stroke="black" stroke-dasharray="none" font-family="Arial" font-size="10pt" font-weight="normal" font-style="normal" d="M-15 30L85 30"/><path stroke-width="2" fill="none" stroke="black" stroke-dasharray="none" font-family="Arial" font-size="10pt" font-weight="normal" font-style="normal" d="M-15 40L85 40"/><path stroke-width="2" fill="none" stroke="black" stroke-dasharray="none" font-family="Arial" font-size="10pt" font-weight="normal" font-style="normal" d="M-15 50L85 50"/><path stroke-width="2" fill="none" stroke="black" stroke-dasharray="none" font-family="Arial" font-size="10pt" font-weight="normal" font-style="normal" d="M-15 60L85 60"/><path stroke-width="2" fill="none" stroke="black" stroke-dasharray="none" font-family="Arial" font-size="10pt" font-weight="normal" font-style="normal" d="M-15 70L85 70"/><rect stroke-width="0.3" fill="black" stroke="black" stroke-dasharray="none" font-family="Arial" font-size="10pt" font-weight="normal" font-style="normal" x="-15" y="29.5" width="1" height="41"/><rect stroke-width="0.3" fill="black" stroke="black" stroke-dasharray="none" font-family="Arial" font-size="10pt" font-weight="normal" font-style="normal" x="85" y="29.5" width="1" height="41"/><g class="vf-stavenote" id="vf-auto1280"><g class="vf-note" pointer-events="bounding-box"><g class="vf-notehead" pointer-events="bounding-box"><path stroke-width="0.3" fill="black" stroke="none" stroke-dasharray="none" font-family="Arial" font-size="10pt" font-weight="normal" font-style="normal" x="85" y="29.5" width="1" height="41" d="M14.83728 40M22.5312 34.83328C22.84008 34.77712,23.148960000000002 34.77712,23.45784 34.77712C27.89448 34.77712,31.60104 36.74272,32.13456 39.38224C32.162639999999996 39.63496,32.2188 39.8596,32.2188 40.02808C32.2188 42.920320000000004,28.39992 45.25096,23.48592 45.25096C18.57192 45.25096,14.83728 42.86416,14.83728 40.02808C14.83728 39.69112,14.865359999999999 39.35416,14.97768 38.98912C15.6516 36.7708,18.79656 35.05792,22.5312 34.83328M22.9524 35.47912C22.812 35.45104,22.61544 35.45104,22.47504 35.45104C20.706 35.45104,19.63896 36.96736,19.63896 38.84872C19.63896 39.8596,19.94784 40.95472,20.59368 42.04984C21.66072 43.73464,23.20512 44.57704,24.52488 44.57704C25.64808 44.57704,26.630879999999998 43.98736,27.08016 42.75184C27.27672 42.2464,27.36096 41.74096,27.36096 41.20744C27.36096 38.68024,25.42344 35.87224,22.9524 35.47912"/></g></g><g class="vf-modifiers"><path stroke-width="0.3" fill="black" stroke="none" stroke-dasharray="none" font-family="Arial" font-size="10pt" font-weight="normal" font-style="normal" x="85" y="29.5" width="1" height="41" d="M3 40M8.93712 25.3624C9.0192 25.30768,9.04656 25.30768,9.155999999999999 25.30768C9.4296 25.30768,9.62112 25.41712,9.703199999999999 25.66336L9.73056 25.745440000000002L9.757919999999999 29.3296L9.757919999999999 32.94112L10.46928 32.7496C10.87968 32.64016,11.18064 32.6128,11.37216 32.6128C11.6184 32.6128,11.72784 32.69488,11.80992 32.913759999999996C11.83728 32.99584,11.83728 33.62512,11.83728 34.30912C11.83728 34.96576,11.83728 35.64976,11.80992 35.67712C11.700479999999999 35.950720000000004,11.6184 35.97808,10.87968 36.1696C9.94944 36.41584,9.757919999999999 36.4432,9.757919999999999 36.4432C9.757919999999999 36.4432,9.757919999999999 37.154560000000004,9.757919999999999 38.2216C9.757919999999999 38.60464,9.757919999999999 39.01504,9.757919999999999 39.4528L9.757919999999999 42.40768L10.46928 42.21616C10.907039999999999 42.10672,11.18064 42.07936,11.37216 42.07936C11.50896 42.07936,11.6184 42.10672,11.700479999999999 42.21616C11.83728 42.38032,11.83728 42.35296,11.83728 43.36528L11.83728 43.77568L11.83728 44.21344C11.83728 45.22576,11.83728 45.1984,11.700479999999999 45.3352C11.59104 45.44464,11.6184 45.44464,10.359839999999998 45.745599999999996C10.08624 45.82768,9.84 45.90976,9.81264 45.90976L9.757919999999999 45.90976L9.757919999999999 49.54864L9.73056 53.21488L9.703199999999999 53.32432C9.62112 53.5432,9.402239999999999 53.65264,9.155999999999999 53.65264C8.99184 53.65264,8.7456 53.5432,8.63616 53.32432L8.608799999999999 53.21488L8.608799999999999 49.7128L8.608799999999999 46.21072L8.58144 46.21072L7.95216 46.37488L6.7756799999999995 46.67584C6.47472 46.75792,6.2011199999999995 46.81264,6.2011199999999995 46.81264C6.1464 46.81264,6.1464 47.00416,6.1464 50.5336L6.1464 54.30928L6.11904 54.39136C6.0096 54.61024,5.79072 54.71968,5.5992 54.71968C5.380319999999999 54.71968,5.13408 54.61024,5.02464 54.39136L4.99728 54.30928L4.99728 50.69776C4.99728 47.35984,4.99728 47.1136,4.96992 47.1136C4.96992 47.1136,4.96992 47.1136,4.96992 47.1136C4.66896 47.195679999999996,3.62928 47.46928,3.51984 47.46928C3.2736 47.46928,3.10944 47.30512,3 47.1136C3 47.00416,3 47.00416,3 45.71824L3 44.43232L3.02736 44.32288C3.1368 44.049279999999996,3.1368 44.049279999999996,4.66896 43.66624L4.99728 43.58416L4.99728 40.60192C4.99728 37.83856,4.99728 37.64704,4.96992 37.64704C4.96992 37.64704,4.96992 37.64704,4.96992 37.64704C4.66896 37.72912,3.62928 37.97536,3.51984 37.97536C3.2736 37.97536,3.10944 37.83856,3 37.64704C3 37.5376,3 37.5376,3 36.25168L3 34.96576L3.02736 34.85632C3.1368 34.58272,3.1368 34.58272,4.66896 34.19968L4.99728 34.1176L4.99728 30.478720000000003L4.99728 26.839840000000002L5.02464 26.730400000000003C5.13408 26.53888,5.380319999999999 26.37472,5.5992 26.37472C5.68128 26.37472,5.736 26.42944,5.81808 26.4568C5.9275199999999995 26.484160000000003,6.03696 26.62096,6.11904 26.730400000000003L6.1464 26.839840000000002L6.1464 30.341920000000002L6.1464 33.81664L6.31056 33.81664C6.36528 33.78928,6.85776 33.67984,7.350239999999999 33.5704L8.41728 33.24208L8.608799999999999 33.21472L8.608799999999999 29.49376L8.608799999999999 25.745440000000002L8.63616 25.66336C8.71824 25.553919999999998,8.80032 25.41712,8.93712 25.3624M8.608799999999999 39.75376C8.608799999999999 38.0848,8.608799999999999 36.74416,8.608799999999999 36.74416L8.608799999999999 36.74416C8.58144 36.74416,8.307839999999999 36.82624,7.97952 36.90832L6.7756799999999995 37.20928C6.47472 37.29136,6.2011199999999995 37.34608,6.2011199999999995 37.34608C6.1464 37.34608,6.1464 37.51024,6.1464 40.32832L6.1464 43.33792L6.31056 43.2832C6.36528 43.25584,6.85776 43.1464,7.350239999999999 43.03696L8.41728 42.76336L8.608799999999999 42.68128L8.608799999999999 39.75376"/></g></g></svg>