<?xml version="1.0" standalone="no"?><svg xmlns="http://www.w3.org/2000/svg" width="40" height="130"><path stroke-width="2" fill="none" stroke="black" stroke-dasharray="none" font-family="Arial" font-size="10pt" font-weight="normal" font-style="normal" d="M-15 30L85 30"/><path stroke-width="2" fill="none" stroke="black" stroke-dasharray="none" font-family="Arial" font-size="10pt" font-weight="normal" font-style="normal" d="M-15 40L85 40"/><path stroke-width="2" fill="none" stroke="black" stroke-dasharray="none" font-family="Arial" font-size="10pt" font-weight="normal" font-style="normal" d="M-15 50L85 50"/><path stroke-width="2" fill="none" stroke="black" stroke-dasharray="none" font-family="Arial" font-size="10pt" font-weight="normal" font-style="normal" d="M-15 60L85 60"/><path stroke-width="2" fill="none" stroke="black" stroke-dasharray="none" font-family="Arial" font-size="10pt" font-weight="normal" font-style="normal" d="M-15 70L85 70"/><rect stroke-width="0.3" fill="black" stroke="black" stroke-dasharray="none" font-family="Arial" font-size="10pt" font-weight="normal" font-style="normal" x="-15" y="29.5" width="1" height="41"/><rect stroke-width="0.3" fill="black" stroke="black" stroke-dasharray="none" font-family="Arial" font-size="10pt" font-weight="normal" font-style="normal" x="85" y="29.5" width="1" height="41"/><g class="vf-stavenote" id="vf-auto1295"><g class="vf-note" pointer-events="bounding-box"><g class="vf-notehead" pointer-events="bounding-box"><path stroke-width="0.3" fill="black" stroke="none" stroke-dasharray="none" font-family="Arial" font-size="10pt" font-weight="normal" font-style="normal" x="85" y="29.5" width="1" height="41" d="M14.83728 75M22.5312 69.83328C22.84008 69.77712,23.148960000000002 69.77712,23.45784 69.77712C27.89448 69.77712,31.60104 71.74272,32.13456 74.38224C32.162639999999996 74.63496,32.2188 74.8596,32.2188 75.02808C32.2188 77.92032,28.39992 80.25096,23.48592 80.25096C18.57192 80.25096,14.83728 77.86416,14.83728 75.02808C14.83728 74.69112,14.865359999999999 74.35416,14.97768 73.98912C15.6516 71.7708,18.79656 70.05792,22.5312 69.83328M22.9524 70.47912C22.812 70.45104,22.61544 70.45104,22.47504 70.45104C20.706 70.45104,19.63896 71.96736,19.63896 73.84872C19.63896 74.8596,19.94784 75.95472,20.59368 77.04984C21.66072 78.73464,23.20512 79.57704,24.52488 79.57704C25.64808 79.57704,26.630879999999998 78.98736,27.08016 77.75184C27.27672 77.2464,27.36096 76.74096,27.36096 76.20744C27.36096 73.68024,25.42344 70.87224,22.9524 70.47912"/></g></g><g class="vf-modifiers"><path stroke-width="0.3" fill="black" stroke="none" stroke-dasharray="none" font-family="Arial" font-size="10pt" font-weight="normal" font-style="normal" x="85" y="29.5" width="1" height="41" d="M3 75M8.93712 60.3624C9.0192 60.307680000000005,9.04656 60.307680000000005,9.155999999999999 60.307680000000005C9.4296 60.307680000000005,9.62112 60.41712,9.703199999999999 60.66336L9.73056 60.74544L9.757919999999999 64.3296L9.757919999999999 67.94112L10.46928 67.7496C10.87968 67.64016,11.18064 67.6128,11.37216 67.6128C11.6184 67.6128,11.72784 67.69488,11.80992 67.91376C11.83728 67.99584,11.83728 68.62512,11.83728 69.30912000000001C11.83728 69.96576,11.83728 70.64976,11.80992 70.67712C11.700479999999999 70.95072,11.6184 70.97808,10.87968 71.1696C9.94944 71.41584,9.757919999999999 71.4432,9.757919999999999 71.4432C9.757919999999999 71.4432,9.757919999999999 72.15456,9.757919999999999 73.2216C9.757919999999999 73.60464,9.757919999999999 74.01504,9.757919999999999 74.4528L9.757919999999999 77.40768L10.46928 77.21616C10.907039999999999 77.10672,11.18064 77.07936,11.37216 77.07936C11.50896 77.07936,11.6184 77.10672,11.700479999999999 77.21616C11.83728 77.38032,11.83728 77.35296,11.83728 78.36528L11.83728 78.77568L11.83728 79.21344C11.83728 80.22576,11.83728 80.19839999999999,11.700479999999999 80.3352C11.59104 80.44463999999999,11.6184 80.44463999999999,10.359839999999998 80.7456C10.08624 80.82768,9.84 80.90976,9.81264 80.90976L9.757919999999999 80.90976L9.757919999999999 84.54864L9.73056 88.21488L9.703199999999999 88.32432C9.62112 88.5432,9.402239999999999 88.65264,9.155999999999999 88.65264C8.99184 88.65264,8.7456 88.5432,8.63616 88.32432L8.608799999999999 88.21488L8.608799999999999 84.7128L8.608799999999999 81.21072L8.58144 81.21072L7.95216 81.37488L6.7756799999999995 81.67584C6.47472 81.75792,6.2011199999999995 81.81264,6.2011199999999995 81.81264C6.1464 81.81264,6.1464 82.00416,6.1464 85.5336L6.1464 89.30928L6.11904 89.39135999999999C6.0096 89.61024,5.79072 89.71968,5.5992 89.71968C5.380319999999999 89.71968,5.13408 89.61024,5.02464 89.39135999999999L4.99728 89.30928L4.99728 85.69776C4.99728 82.35984,4.99728 82.1136,4.96992 82.1136C4.96992 82.1136,4.96992 82.1136,4.96992 82.1136C4.66896 82.19568,3.62928 82.46928,3.51984 82.46928C3.2736 82.46928,3.10944 82.30512,3 82.1136C3 82.00416,3 82.00416,3 80.71824L3 79.43232L3.02736 79.32288C3.1368 79.04928,3.1368 79.04928,4.66896 78.66624L4.99728 78.58416L4.99728 75.60192C4.99728 72.83856,4.99728 72.64704,4.96992 72.64704C4.96992 72.64704,4.96992 72.64704,4.96992 72.64704C4.66896 72.72912,3.62928 72.97536,3.51984 72.97536C3.2736 72.97536,3.10944 72.83856,3 72.64704C3 72.5376,3 72.5376,3 71.25168L3 69.96576L3.02736 69.85632C3.1368 69.58272,3.1368 69.58272,4.66896 69.19968L4.99728 69.1176L4.99728 65.47872L4.99728 61.83984L5.02464 61.7304C5.13408 61.53888,5.380319999999999 61.374719999999996,5.5992 61.374719999999996C5.68128 61.374719999999996,5.736 61.42944,5.81808 61.4568C5.9275199999999995 61.48416,6.03696 61.62096,6.11904 61.7304L6.1464 61.83984L6.1464 65.34192L6.1464 68.81664L6.31056 68.81664C6.36528 68.78928,6.85776 68.67984,7.350239999999999 68.5704L8.41728 68.24208L8.608799999999999 68.21472L8.608799999999999 64.49376L8.608799999999999 60.74544L8.63616 60.66336C8.71824 60.55392,8.80032 60.41712,8.93712 60.3624M8.608799999999999 74.75376C8.608799999999999 73.0848,8.608799999999999 71.74416,8.608799999999999 71.74416L8.608799999999999 71.74416C8.58144 71.74416,8.307839999999999 71.82624,7.97952 71.90832L6.7756799999999995 72.20928C6.47472 72.29136,6.2011199999999995 72.34608,6.2011199999999995 72.34608C6.1464 72.34608,6.1464 72.51024,6.1464 75.32832L6.1464 78.33792L6.31056 78.2832C6.36528 78.25584,6.85776 78.1464,7.350239999999999 78.03696L8.41728 77.76336L8.608799999999999 77.68128L8.608799999999999 74.75376"/><path stroke-width="0.3" fill="black" stroke="none" stroke-dasharray="none" font-family="Arial" font-size="10pt" font-weight="normal" font-style="normal" x="85" y="29.5" width="1" height="41" d="M39.2188 75 A2 2 0 0 0 35.2188 75M0 0M35.2188 75 A2 2 0 0 0 39.2188 75M0 0"/></g></g></svg>