<?xml version="1.0" standalone="no"?><svg xmlns="http://www.w3.org/2000/svg" width="40" height="130"><path stroke-width="2" fill="none" stroke="black" stroke-dasharray="none" font-family="Arial" font-size="10pt" font-weight="normal" font-style="normal" d="M-15 30L85 30"/><path stroke-width="2" fill="none" stroke="black" stroke-dasharray="none" font-family="Arial" font-size="10pt" font-weight="normal" font-style="normal" d="M-15 40L85 40"/><path stroke-width="2" fill="none" stroke="black" stroke-dasharray="none" font-family="Arial" font-size="10pt" font-weight="normal" font-style="normal" d="M-15 50L85 50"/><path stroke-width="2" fill="none" stroke="black" stroke-dasharray="none" font-family="Arial" font-size="10pt" font-weight="normal" font-style="normal" d="M-15 60L85 60"/><path stroke-width="2" fill="none" stroke="black" stroke-dasharray="none" font-family="Arial" font-size="10pt" font-weight="normal" font-style="normal" d="M-15 70L85 70"/><rect stroke-width="0.3" fill="black" stroke="black" stroke-dasharray="none" font-family="Arial" font-size="10pt" font-weight="normal" font-style="normal" x="-15" y="29.5" width="1" height="41"/><rect stroke-width="0.3" fill="black" stroke="black" stroke-dasharray="none" font-family="Arial" font-size="10pt" font-weight="normal" font-style="normal" x="85" y="29.5" width="1" height="41"/><path stroke-width="2" fill="none" stroke="black" stroke-dasharray="none" font-family="Arial" font-size="10pt" font-weight="normal" font-style="normal" x="85" y="29.5" width="1" height="41" d="M11.83728 80L29.85552 80"/><path stroke-width="2" fill="none" stroke="black" stroke-dasharray="none" font-family="Arial" font-size="10pt" font-weight="normal" font-style="normal" x="85" y="29.5" width="1" height="41" d="M11.83728 90L29.85552 90"/><path stroke-width="2" fill="none" stroke="black" stroke-dasharray="none" font-family="Arial" font-size="10pt" font-weight="normal" font-style="normal" x="85" y="29.5" width="1" height="41" d="M11.83728 100L29.85552 100"/><path stroke-width="2" fill="none" stroke="black" stroke-dasharray="none" font-family="Arial" font-size="10pt" font-weight="normal" font-style="normal" x="85" y="29.5" width="1" height="41" d="M11.83728 110L29.85552 110"/><g class="vf-stavenote" id="vf-auto3244"><g class="vf-note" pointer-events="bounding-box"><g class="vf-stem" pointer-events="bounding-box"><path stroke-width="1.5" fill="none" stroke="black" stroke-dasharray="none" font-family="Arial" font-size="10pt" font-weight="normal" font-style="normal" x="85" y="29.5" width="1" height="41" d="M26.10552 110L26.10552 75"/></g><g class="vf-notehead" pointer-events="bounding-box"><path stroke-width="0.3" fill="black" stroke="none" stroke-dasharray="none" font-family="Arial" font-size="10pt" font-weight="normal" font-style="normal" x="85" y="29.5" width="1" height="41" d="M14.83728 110M22.19424 104.77712C22.30656 104.77712,22.47504 104.77712,22.50312 104.77712C22.50312 104.77712,22.5312 104.77712,22.5312 104.77712C22.5312 104.77712,22.69968 104.77712,22.84008 104.77712C25.36728 104.91752,26.85552 106.57424,26.85552 108.65216C26.85552 109.66304,26.51856 110.81432,25.67616 111.90944C24.0756 114.0716,21.46416 115.25096,19.18968 115.25096C17.42064 115.25096,15.90432 114.54896,15.17424 113.11688C14.9496 112.55528,14.83728 112.02176,14.83728 111.43208C14.83728 108.37136,18.26304 104.97368,22.19424 104.77712"/></g></g><g class="vf-modifiers"><path stroke-width="0.3" fill="black" stroke="none" stroke-dasharray="none" font-family="Arial" font-size="10pt" font-weight="normal" font-style="normal" x="85" y="29.5" width="1" height="41" d="M3 110M8.93712 95.36240000000001C9.0192 95.30768,9.04656 95.30768,9.155999999999999 95.30768C9.4296 95.30768,9.62112 95.41712,9.703199999999999 95.66336L9.73056 95.74544L9.757919999999999 99.3296L9.757919999999999 102.94112L10.46928 102.7496C10.87968 102.64016,11.18064 102.6128,11.37216 102.6128C11.6184 102.6128,11.72784 102.69488,11.80992 102.91376C11.83728 102.99584,11.83728 103.62512,11.83728 104.30912000000001C11.83728 104.96576,11.83728 105.64976,11.80992 105.67712C11.700479999999999 105.95072,11.6184 105.97808,10.87968 106.1696C9.94944 106.41584,9.757919999999999 106.4432,9.757919999999999 106.4432C9.757919999999999 106.4432,9.757919999999999 107.15456,9.757919999999999 108.2216C9.757919999999999 108.60464,9.757919999999999 109.01504,9.757919999999999 109.4528L9.757919999999999 112.40768L10.46928 112.21616C10.907039999999999 112.10672,11.18064 112.07936,11.37216 112.07936C11.50896 112.07936,11.6184 112.10672,11.700479999999999 112.21616C11.83728 112.38032,11.83728 112.35296,11.83728 113.36528L11.83728 113.77568L11.83728 114.21344C11.83728 115.22576,11.83728 115.19839999999999,11.700479999999999 115.3352C11.59104 115.44463999999999,11.6184 115.44463999999999,10.359839999999998 115.7456C10.08624 115.82768,9.84 115.90976,9.81264 115.90976L9.757919999999999 115.90976L9.757919999999999 119.54864L9.73056 123.21488L9.703199999999999 123.32432C9.62112 123.5432,9.402239999999999 123.65264,9.155999999999999 123.65264C8.99184 123.65264,8.7456 123.5432,8.63616 123.32432L8.608799999999999 123.21488L8.608799999999999 119.7128L8.608799999999999 116.21072L8.58144 116.21072L7.95216 116.37488L6.7756799999999995 116.67584C6.47472 116.75792,6.2011199999999995 116.81264,6.2011199999999995 116.81264C6.1464 116.81264,6.1464 117.00416,6.1464 120.5336L6.1464 124.30928L6.11904 124.39135999999999C6.0096 124.61024,5.79072 124.71968,5.5992 124.71968C5.380319999999999 124.71968,5.13408 124.61024,5.02464 124.39135999999999L4.99728 124.30928L4.99728 120.69776C4.99728 117.35984,4.99728 117.1136,4.96992 117.1136C4.96992 117.1136,4.96992 117.1136,4.96992 117.1136C4.66896 117.19568,3.62928 117.46928,3.51984 117.46928C3.2736 117.46928,3.10944 117.30512,3 117.1136C3 117.00416,3 117.00416,3 115.71824L3 114.43232L3.02736 114.32288C3.1368 114.04928,3.1368 114.04928,4.66896 113.66624L4.99728 113.58416L4.99728 110.60192C4.99728 107.83856,4.99728 107.64704,4.96992 107.64704C4.96992 107.64704,4.96992 107.64704,4.96992 107.64704C4.66896 107.72912,3.62928 107.97536,3.51984 107.97536C3.2736 107.97536,3.10944 107.83856,3 107.64704C3 107.5376,3 107.5376,3 106.25168L3 104.96576L3.02736 104.85632C3.1368 104.58272,3.1368 104.58272,4.66896 104.19968L4.99728 104.1176L4.99728 100.47872L4.99728 96.83984L5.02464 96.7304C5.13408 96.53888,5.380319999999999 96.37472,5.5992 96.37472C5.68128 96.37472,5.736 96.42944,5.81808 96.4568C5.9275199999999995 96.48416,6.03696 96.62096,6.11904 96.7304L6.1464 96.83984L6.1464 100.34192L6.1464 103.81664L6.31056 103.81664C6.36528 103.78928,6.85776 103.67984,7.350239999999999 103.5704L8.41728 103.24208L8.608799999999999 103.21472L8.608799999999999 99.49376L8.608799999999999 95.74544L8.63616 95.66336C8.71824 95.55392,8.80032 95.41712,8.93712 95.36240000000001M8.608799999999999 109.75376C8.608799999999999 108.0848,8.608799999999999 106.74416,8.608799999999999 106.74416L8.608799999999999 106.74416C8.58144 106.74416,8.307839999999999 106.82624,7.97952 106.90832L6.7756799999999995 107.20928C6.47472 107.29136,6.2011199999999995 107.34608,6.2011199999999995 107.34608C6.1464 107.34608,6.1464 107.51024,6.1464 110.32832L6.1464 113.33792L6.31056 113.2832C6.36528 113.25584,6.85776 113.1464,7.350239999999999 113.03696L8.41728 112.76336L8.608799999999999 112.68128L8.608799999999999 109.75376"/><path stroke-width="0.3" fill="black" stroke="none" stroke-dasharray="none" font-family="Arial" font-size="10pt" font-weight="normal" font-style="normal" x="85" y="29.5" width="1" height="41" d="M33.85552 105 A2 2 0 0 0 29.85552 105M0 0M29.85552 105 A2 2 0 0 0 33.85552 105M0 0"/></g></g></svg>