<?xml version="1.0" standalone="no"?><svg xmlns="http://www.w3.org/2000/svg" width="40" height="130"><path stroke-width="2" fill="none" stroke="black" stroke-dasharray="none" font-family="Arial" font-size="10pt" font-weight="normal" font-style="normal" d="M-15 30L85 30"/><path stroke-width="2" fill="none" stroke="black" stroke-dasharray="none" font-family="Arial" font-size="10pt" font-weight="normal" font-style="normal" d="M-15 40L85 40"/><path stroke-width="2" fill="none" stroke="black" stroke-dasharray="none" font-family="Arial" font-size="10pt" font-weight="normal" font-style="normal" d="M-15 50L85 50"/><path stroke-width="2" fill="none" stroke="black" stroke-dasharray="none" font-family="Arial" font-size="10pt" font-weight="normal" font-style="normal" d="M-15 60L85 60"/><path stroke-width="2" fill="none" stroke="black" stroke-dasharray="none" font-family="Arial" font-size="10pt" font-weight="normal" font-style="normal" d="M-15 70L85 70"/><rect stroke-width="0.3" fill="black" stroke="black" stroke-dasharray="none" font-family="Arial" font-size="10pt" font-weight="normal" font-style="normal" x="-15" y="29.5" width="1" height="41"/><rect stroke-width="0.3" fill="black" stroke="black" stroke-dasharray="none" font-family="Arial" font-size="10pt" font-weight="normal" font-style="normal" x="85" y="29.5" width="1" height="41"/><g class="vf-stavenote" id="vf-auto2725"><g class="vf-note" pointer-events="bounding-box"><g class="vf-stem" pointer-events="bounding-box"><path stroke-width="1.5" fill="none" stroke="black" stroke-dasharray="none" font-family="Arial" font-size="10pt" font-weight="normal" font-style="normal" x="85" y="29.5" width="1" height="41" d="M2.75 50L2.75 85"/></g><g class="vf-notehead" pointer-events="bounding-box"><path stroke-width="0.3" fill="black" stroke="none" stroke-dasharray="none" font-family="Arial" font-size="10pt" font-weight="normal" font-style="normal" x="85" y="29.5" width="1" height="41" d="M2 50M9.35696 44.77712C9.469280000000001 44.77712,9.63776 44.77712,9.66584 44.77712C9.66584 44.77712,9.69392 44.77712,9.69392 44.77712C9.69392 44.77712,9.862400000000001 44.77712,10.0028 44.77712C12.530000000000001 44.917519999999996,14.01824 46.57424,14.01824 48.65216C14.01824 49.66304,13.681280000000001 50.81432,12.83888 51.909440000000004C11.23832 54.071600000000004,8.62688 55.25096,6.3524 55.25096C4.58336 55.25096,3.06704 54.54896,2.33696 53.11688C2.11232 52.55528,2 52.02176,2 51.43208C2 48.37136,5.42576 44.97368,9.35696 44.77712M12.277280000000001 46.32152C12.16496 46.26536,12.024560000000001 46.23728,11.88416 46.23728C11.01368 46.23728,9.553519999999999 46.7708,8.149519999999999 47.72552C5.53808 49.35416,3.404 51.74096,3.31976 53.11688C3.31976 53.11688,3.31976 53.14496,3.31976 53.14496C3.31976 53.62232,3.62864 53.81888,4.16216 53.81888C5.31344 53.81888,7.44752 52.83608,9.41312 51.2636C11.43488 49.66304,12.726560000000001 47.86592,12.726560000000001 46.93928C12.726560000000001 46.6304,12.58616 46.37768,12.277280000000001 46.32152"/></g></g><g class="vf-modifiers"/></g></svg>