<?xml version="1.0" standalone="no"?><svg xmlns="http://www.w3.org/2000/svg" width="40" height="130"><path stroke-width="2" fill="none" stroke="black" stroke-dasharray="none" font-family="Arial" font-size="10pt" font-weight="normal" font-style="normal" d="M-15 30L85 30"/><path stroke-width="2" fill="none" stroke="black" stroke-dasharray="none" font-family="Arial" font-size="10pt" font-weight="normal" font-style="normal" d="M-15 40L85 40"/><path stroke-width="2" fill="none" stroke="black" stroke-dasharray="none" font-family="Arial" font-size="10pt" font-weight="normal" font-style="normal" d="M-15 50L85 50"/><path stroke-width="2" fill="none" stroke="black" stroke-dasharray="none" font-family="Arial" font-size="10pt" font-weight="normal" font-style="normal" d="M-15 60L85 60"/><path stroke-width="2" fill="none" stroke="black" stroke-dasharray="none" font-family="Arial" font-size="10pt" font-weight="normal" font-style="normal" d="M-15 70L85 70"/><rect stroke-width="0.3" fill="black" stroke="black" stroke-dasharray="none" font-family="Arial" font-size="10pt" font-weight="normal" font-style="normal" x="-15" y="29.5" width="1" height="41"/><rect stroke-width="0.3" fill="black" stroke="black" stroke-dasharray="none" font-family="Arial" font-size="10pt" font-weight="normal" font-style="normal" x="85" y="29.5" width="1" height="41"/><path stroke-width="2" fill="none" stroke="black" stroke-dasharray="none" font-family="Arial" font-size="10pt" font-weight="normal" font-style="normal" x="85" y="29.5" width="1" height="41" d="M-1 80L17.01824 80"/><g class="vf-stavenote" id="vf-auto2710"><g class="vf-note" pointer-events="bounding-box"><g class="vf-stem" pointer-events="bounding-box"><path stroke-width="1.5" fill="none" stroke="black" stroke-dasharray="none" font-family="Arial" font-size="10pt" font-weight="normal" font-style="normal" x="85" y="29.5" width="1" height="41" d="M13.26824 85L13.26824 50"/></g><g class="vf-notehead" pointer-events="bounding-box"><path stroke-width="0.3" fill="black" stroke="none" stroke-dasharray="none" font-family="Arial" font-size="10pt" font-weight="normal" font-style="normal" x="85" y="29.5" width="1" height="41" d="M2 85M9.35696 79.77712C9.469280000000001 79.77712,9.63776 79.77712,9.66584 79.77712C9.66584 79.77712,9.69392 79.77712,9.69392 79.77712C9.69392 79.77712,9.862400000000001 79.77712,10.0028 79.77712C12.530000000000001 79.91752,14.01824 81.57424,14.01824 83.65216C14.01824 84.66304,13.681280000000001 85.81432,12.83888 86.90944C11.23832 89.0716,8.62688 90.25096,6.3524 90.25096C4.58336 90.25096,3.06704 89.54896,2.33696 88.11688C2.11232 87.55528,2 87.02176,2 86.43208C2 83.37136,5.42576 79.97368,9.35696 79.77712M12.277280000000001 81.32152C12.16496 81.26536,12.024560000000001 81.23728,11.88416 81.23728C11.01368 81.23728,9.553519999999999 81.7708,8.149519999999999 82.72552C5.53808 84.35416,3.404 86.74096,3.31976 88.11688C3.31976 88.11688,3.31976 88.14496,3.31976 88.14496C3.31976 88.62232,3.62864 88.81888000000001,4.16216 88.81888000000001C5.31344 88.81888000000001,7.44752 87.83608,9.41312 86.2636C11.43488 84.66304,12.726560000000001 82.86592,12.726560000000001 81.93928C12.726560000000001 81.6304,12.58616 81.37768,12.277280000000001 81.32152"/></g></g><g class="vf-modifiers"/></g></svg>