<?xml version="1.0" standalone="no"?><svg xmlns="http://www.w3.org/2000/svg" width="40" height="130"><path stroke-width="2" fill="none" stroke="black" stroke-dasharray="none" font-family="Arial" font-size="10pt" font-weight="normal" font-style="normal" d="M-15 30L85 30"/><path stroke-width="2" fill="none" stroke="black" stroke-dasharray="none" font-family="Arial" font-size="10pt" font-weight="normal" font-style="normal" d="M-15 40L85 40"/><path stroke-width="2" fill="none" stroke="black" stroke-dasharray="none" font-family="Arial" font-size="10pt" font-weight="normal" font-style="normal" d="M-15 50L85 50"/><path stroke-width="2" fill="none" stroke="black" stroke-dasharray="none" font-family="Arial" font-size="10pt" font-weight="normal" font-style="normal" d="M-15 60L85 60"/><path stroke-width="2" fill="none" stroke="black" stroke-dasharray="none" font-family="Arial" font-size="10pt" font-weight="normal" font-style="normal" d="M-15 70L85 70"/><rect stroke-width="0.3" fill="black" stroke="black" stroke-dasharray="none" font-family="Arial" font-size="10pt" font-weight="normal" font-style="normal" x="-15" y="29.5" width="1" height="41"/><rect stroke-width="0.3" fill="black" stroke="black" stroke-dasharray="none" font-family="Arial" font-size="10pt" font-weight="normal" font-style="normal" x="85" y="29.5" width="1" height="41"/><path stroke-width="2" fill="none" stroke="black" stroke-dasharray="none" font-family="Arial" font-size="10pt" font-weight="normal" font-style="normal" x="85" y="29.5" width="1" height="41" d="M-1 20L17.01824 20"/><g class="vf-stavenote" id="vf-auto2740"><g class="vf-note" pointer-events="bounding-box"><g class="vf-stem" pointer-events="bounding-box"><path stroke-width="1.5" fill="none" stroke="black" stroke-dasharray="none" font-family="Arial" font-size="10pt" font-weight="normal" font-style="normal" x="85" y="29.5" width="1" height="41" d="M2.75 15L2.75 50"/></g><g class="vf-notehead" pointer-events="bounding-box"><path stroke-width="0.3" fill="black" stroke="none" stroke-dasharray="none" font-family="Arial" font-size="10pt" font-weight="normal" font-style="normal" x="85" y="29.5" width="1" height="41" d="M2 15M9.35696 9.77712C9.469280000000001 9.77712,9.63776 9.77712,9.66584 9.77712C9.66584 9.77712,9.69392 9.77712,9.69392 9.77712C9.69392 9.77712,9.862400000000001 9.77712,10.0028 9.77712C12.530000000000001 9.91752,14.01824 11.57424,14.01824 13.65216C14.01824 14.66304,13.681280000000001 15.81432,12.83888 16.90944C11.23832 19.0716,8.62688 20.25096,6.3524 20.25096C4.58336 20.25096,3.06704 19.54896,2.33696 18.116880000000002C2.11232 17.55528,2 17.02176,2 16.43208C2 13.37136,5.42576 9.97368,9.35696 9.77712M12.277280000000001 11.32152C12.16496 11.26536,12.024560000000001 11.23728,11.88416 11.23728C11.01368 11.23728,9.553519999999999 11.7708,8.149519999999999 12.72552C5.53808 14.35416,3.404 16.74096,3.31976 18.116880000000002C3.31976 18.116880000000002,3.31976 18.14496,3.31976 18.14496C3.31976 18.622320000000002,3.62864 18.81888,4.16216 18.81888C5.31344 18.81888,7.44752 17.83608,9.41312 16.2636C11.43488 14.66304,12.726560000000001 12.86592,12.726560000000001 11.93928C12.726560000000001 11.6304,12.58616 11.37768,12.277280000000001 11.32152"/></g></g><g class="vf-modifiers"/></g></svg>