<?xml version="1.0" standalone="no"?><svg xmlns="http://www.w3.org/2000/svg" width="40" height="130"><path stroke-width="2" fill="none" stroke="black" stroke-dasharray="none" font-family="Arial" font-size="10pt" font-weight="normal" font-style="normal" d="M-15 30L85 30"/><path stroke-width="2" fill="none" stroke="black" stroke-dasharray="none" font-family="Arial" font-size="10pt" font-weight="normal" font-style="normal" d="M-15 40L85 40"/><path stroke-width="2" fill="none" stroke="black" stroke-dasharray="none" font-family="Arial" font-size="10pt" font-weight="normal" font-style="normal" d="M-15 50L85 50"/><path stroke-width="2" fill="none" stroke="black" stroke-dasharray="none" font-family="Arial" font-size="10pt" font-weight="normal" font-style="normal" d="M-15 60L85 60"/><path stroke-width="2" fill="none" stroke="black" stroke-dasharray="none" font-family="Arial" font-size="10pt" font-weight="normal" font-style="normal" d="M-15 70L85 70"/><rect stroke-width="0.3" fill="black" stroke="black" stroke-dasharray="none" font-family="Arial" font-size="10pt" font-weight="normal" font-style="normal" x="-15" y="29.5" width="1" height="41"/><rect stroke-width="0.3" fill="black" stroke="black" stroke-dasharray="none" font-family="Arial" font-size="10pt" font-weight="normal" font-style="normal" x="85" y="29.5" width="1" height="41"/><path stroke-width="2" fill="none" stroke="black" stroke-dasharray="none" font-family="Arial" font-size="10pt" font-weight="normal" font-style="normal" x="85" y="29.5" width="1" height="41" d="M-1 20L17.01824 20"/><g class="vf-stavenote" id="vf-auto5062"><g class="vf-note" pointer-events="bounding-box"><g class="vf-stem" pointer-events="bounding-box"><path stroke-width="1.5" fill="none" stroke="black" stroke-dasharray="none" font-family="Arial" font-size="10pt" font-weight="normal" font-style="normal" x="85" y="29.5" width="1" height="41" d="M2.75 15L2.75 50"/></g><g class="vf-notehead" pointer-events="bounding-box"><path stroke-width="0.3" fill="black" stroke="none" stroke-dasharray="none" font-family="Arial" font-size="10pt" font-weight="normal" font-style="normal" x="85" y="29.5" width="1" height="41" d="M2 15M9.35696 9.77712C9.469280000000001 9.77712,9.63776 9.77712,9.66584 9.77712C9.66584 9.77712,9.69392 9.77712,9.69392 9.77712C9.69392 9.77712,9.862400000000001 9.77712,10.0028 9.77712C12.530000000000001 9.91752,14.01824 11.57424,14.01824 13.65216C14.01824 14.66304,13.681280000000001 15.81432,12.83888 16.90944C11.23832 19.0716,8.62688 20.25096,6.3524 20.25096C4.58336 20.25096,3.06704 19.54896,2.33696 18.116880000000002C2.11232 17.55528,2 17.02176,2 16.43208C2 13.37136,5.42576 9.97368,9.35696 9.77712"/></g><g class="vf-flag" pointer-events="bounding-box"><path stroke-width="0.3" fill="black" stroke="none" stroke-dasharray="none" font-family="Arial" font-size="10pt" font-weight="normal" font-style="normal" x="85" y="29.5" width="1" height="41" d="M2.75 52M9.208400000000001 23.049519999999998C9.26456 23.02144,9.3488 23.02144,9.43304 23.02144C9.6296 23.02144,9.79808 23.161839999999998,10.02272 23.52688C12.0164 26.55952,13.05536 30.041439999999998,13.05536 33.41104C13.05536 34.00072,13.05536 34.56232,12.97112 35.095839999999995C12.63416 38.29696,11.28632 41.21728,9.26456 43.09864C7.1024 45.120400000000004,5.64224 46.74904,4.35056 48.6304C3.62048 49.64128,2.91848 50.8768,2.72192 51.49456C2.63768 51.69112,2.41304 51.88768,2.21648 51.88768L2.16032 51.88768L2.16032 47.53528L2.16032 43.1548L2.30072 43.1548C3.0308 43.1548,4.49096 42.90208,5.44568 42.593199999999996C9.12416 41.3296,11.5952 37.20184,11.5952 32.4844C11.5952 32.09128,11.567120000000001 31.67008,11.53904 31.27696C11.28632 28.834,10.41584 26.27872,9.03992 24.172719999999998C8.899519999999999 23.94808,8.815280000000001 23.72344,8.815280000000001 23.554959999999998C8.815280000000001 23.33032,8.9276 23.13376,9.208400000000001 23.049519999999998"/></g></g><g class="vf-modifiers"><path stroke-width="0.3" fill="black" stroke="none" stroke-dasharray="none" font-family="Arial" font-size="10pt" font-weight="normal" font-style="normal" x="85" y="29.5" width="1" height="41" d="M21.01824 15 A2 2 0 0 0 17.01824 15M0 0M17.01824 15 A2 2 0 0 0 21.01824 15M0 0"/></g></g></svg>