<?xml version="1.0" standalone="no"?><svg xmlns="http://www.w3.org/2000/svg" width="40" height="130"><path stroke-width="2" fill="none" stroke="black" stroke-dasharray="none" font-family="Arial" font-size="10pt" font-weight="normal" font-style="normal" d="M-15 30L85 30"/><path stroke-width="2" fill="none" stroke="black" stroke-dasharray="none" font-family="Arial" font-size="10pt" font-weight="normal" font-style="normal" d="M-15 40L85 40"/><path stroke-width="2" fill="none" stroke="black" stroke-dasharray="none" font-family="Arial" font-size="10pt" font-weight="normal" font-style="normal" d="M-15 50L85 50"/><path stroke-width="2" fill="none" stroke="black" stroke-dasharray="none" font-family="Arial" font-size="10pt" font-weight="normal" font-style="normal" d="M-15 60L85 60"/><path stroke-width="2" fill="none" stroke="black" stroke-dasharray="none" font-family="Arial" font-size="10pt" font-weight="normal" font-style="normal" d="M-15 70L85 70"/><rect stroke-width="0.3" fill="black" stroke="black" stroke-dasharray="none" font-family="Arial" font-size="10pt" font-weight="normal" font-style="normal" x="-15" y="29.5" width="1" height="41"/><rect stroke-width="0.3" fill="black" stroke="black" stroke-dasharray="none" font-family="Arial" font-size="10pt" font-weight="normal" font-style="normal" x="85" y="29.5" width="1" height="41"/><g class="vf-stavenote" id="vf-auto5043"><g class="vf-note" pointer-events="bounding-box"><g class="vf-stem" pointer-events="bounding-box"><path stroke-width="1.5" fill="none" stroke="black" stroke-dasharray="none" font-family="Arial" font-size="10pt" font-weight="normal" font-style="normal" x="85" y="29.5" width="1" height="41" d="M2.75 50L2.75 85"/></g><g class="vf-notehead" pointer-events="bounding-box"><path stroke-width="0.3" fill="black" stroke="none" stroke-dasharray="none" font-family="Arial" font-size="10pt" font-weight="normal" font-style="normal" x="85" y="29.5" width="1" height="41" d="M2 50M9.35696 44.77712C9.469280000000001 44.77712,9.63776 44.77712,9.66584 44.77712C9.66584 44.77712,9.69392 44.77712,9.69392 44.77712C9.69392 44.77712,9.862400000000001 44.77712,10.0028 44.77712C12.530000000000001 44.917519999999996,14.01824 46.57424,14.01824 48.65216C14.01824 49.66304,13.681280000000001 50.81432,12.83888 51.909440000000004C11.23832 54.071600000000004,8.62688 55.25096,6.3524 55.25096C4.58336 55.25096,3.06704 54.54896,2.33696 53.11688C2.11232 52.55528,2 52.02176,2 51.43208C2 48.37136,5.42576 44.97368,9.35696 44.77712"/></g><g class="vf-flag" pointer-events="bounding-box"><path stroke-width="0.3" fill="black" stroke="none" stroke-dasharray="none" font-family="Arial" font-size="10pt" font-weight="normal" font-style="normal" x="85" y="29.5" width="1" height="41" d="M2.75 87M9.208400000000001 58.04952C9.26456 58.02144,9.3488 58.02144,9.43304 58.02144C9.6296 58.02144,9.79808 58.16184,10.02272 58.52688C12.0164 61.55952,13.05536 65.04144,13.05536 68.41104C13.05536 69.00072,13.05536 69.56232,12.97112 70.09584C12.63416 73.29696,11.28632 76.21728,9.26456 78.09864C7.1024 80.1204,5.64224 81.74904,4.35056 83.6304C3.62048 84.64128,2.91848 85.8768,2.72192 86.49456C2.63768 86.69112,2.41304 86.88768,2.21648 86.88768L2.16032 86.88768L2.16032 82.53528L2.16032 78.1548L2.30072 78.1548C3.0308 78.1548,4.49096 77.90208,5.44568 77.5932C9.12416 76.3296,11.5952 72.20184,11.5952 67.4844C11.5952 67.09128,11.567120000000001 66.67008,11.53904 66.27696C11.28632 63.834,10.41584 61.27872,9.03992 59.17272C8.899519999999999 58.948080000000004,8.815280000000001 58.72344,8.815280000000001 58.554959999999994C8.815280000000001 58.33032,8.9276 58.133759999999995,9.208400000000001 58.04952"/></g></g><g class="vf-modifiers"><path stroke-width="0.3" fill="black" stroke="none" stroke-dasharray="none" font-family="Arial" font-size="10pt" font-weight="normal" font-style="normal" x="85" y="29.5" width="1" height="41" d="M21.01824 45 A2 2 0 0 0 17.01824 45M0 0M17.01824 45 A2 2 0 0 0 21.01824 45M0 0"/></g></g></svg>