<?xml version="1.0" standalone="no"?><svg xmlns="http://www.w3.org/2000/svg" width="40" height="130"><path stroke-width="2" fill="none" stroke="black" stroke-dasharray="none" font-family="Arial" font-size="10pt" font-weight="normal" font-style="normal" d="M-15 30L85 30"/><path stroke-width="2" fill="none" stroke="black" stroke-dasharray="none" font-family="Arial" font-size="10pt" font-weight="normal" font-style="normal" d="M-15 40L85 40"/><path stroke-width="2" fill="none" stroke="black" stroke-dasharray="none" font-family="Arial" font-size="10pt" font-weight="normal" font-style="normal" d="M-15 50L85 50"/><path stroke-width="2" fill="none" stroke="black" stroke-dasharray="none" font-family="Arial" font-size="10pt" font-weight="normal" font-style="normal" d="M-15 60L85 60"/><path stroke-width="2" fill="none" stroke="black" stroke-dasharray="none" font-family="Arial" font-size="10pt" font-weight="normal" font-style="normal" d="M-15 70L85 70"/><rect stroke-width="0.3" fill="black" stroke="black" stroke-dasharray="none" font-family="Arial" font-size="10pt" font-weight="normal" font-style="normal" x="-15" y="29.5" width="1" height="41"/><rect stroke-width="0.3" fill="black" stroke="black" stroke-dasharray="none" font-family="Arial" font-size="10pt" font-weight="normal" font-style="normal" x="85" y="29.5" width="1" height="41"/><path stroke-width="2" fill="none" stroke="black" stroke-dasharray="none" font-family="Arial" font-size="10pt" font-weight="normal" font-style="normal" x="85" y="29.5" width="1" height="41" d="M-1 80L17.01824 80"/><g class="vf-stavenote" id="vf-auto4597"><g class="vf-note" pointer-events="bounding-box"><g class="vf-stem" pointer-events="bounding-box"><path stroke-width="1.5" fill="none" stroke="black" stroke-dasharray="none" font-family="Arial" font-size="10pt" font-weight="normal" font-style="normal" x="85" y="29.5" width="1" height="41" d="M13.26824 85L13.26824 50"/></g><g class="vf-notehead" pointer-events="bounding-box"><path stroke-width="0.3" fill="black" stroke="none" stroke-dasharray="none" font-family="Arial" font-size="10pt" font-weight="normal" font-style="normal" x="85" y="29.5" width="1" height="41" d="M2 85M9.35696 79.77712C9.469280000000001 79.77712,9.63776 79.77712,9.66584 79.77712C9.66584 79.77712,9.69392 79.77712,9.69392 79.77712C9.69392 79.77712,9.862400000000001 79.77712,10.0028 79.77712C12.530000000000001 79.91752,14.01824 81.57424,14.01824 83.65216C14.01824 84.66304,13.681280000000001 85.81432,12.83888 86.90944C11.23832 89.0716,8.62688 90.25096,6.3524 90.25096C4.58336 90.25096,3.06704 89.54896,2.33696 88.11688C2.11232 87.55528,2 87.02176,2 86.43208C2 83.37136,5.42576 79.97368,9.35696 79.77712"/></g><g class="vf-flag" pointer-events="bounding-box"><path stroke-width="0.3" fill="black" stroke="none" stroke-dasharray="none" font-family="Arial" font-size="10pt" font-weight="normal" font-style="normal" x="85" y="29.5" width="1" height="41" d="M13.26824 48M12.59432 52.52088L12.59432 48.1404L12.70664 48.1404C13.01552 48.1404,13.21208 48.33696,13.26824 48.67392C13.85792 51.48192,15.62696 54.54264,18.06992 56.8452C20.793680000000002 59.40048,22.169600000000003 62.91048,22.169600000000003 66.53280000000001C22.169600000000003 69.95856,20.96216 73.52472,18.5192 76.47312C18.098 77.03472,18.06992 77.03472,17.78912 77.03472C17.45216 77.03472,17.227520000000002 76.782,17.227520000000002 76.44504C17.227520000000002 76.19232,17.2556 76.13616,17.5364 75.82728C19.67048 73.24392,20.73752 70.12704,20.73752 67.15056C20.73752 64.51104000000001,19.89512 61.98384,18.15416 60.0744C17.08712 58.89504,15.12152 57.77184,12.6224 56.90136C12.6224 56.87328,12.59432 56.0028,12.59432 52.52088"/></g></g><g class="vf-modifiers"/></g></svg>