<?xml version="1.0" standalone="no"?><svg xmlns="http://www.w3.org/2000/svg" width="40" height="130"><path stroke-width="2" fill="none" stroke="black" stroke-dasharray="none" font-family="Arial" font-size="10pt" font-weight="normal" font-style="normal" d="M-15 30L85 30"/><path stroke-width="2" fill="none" stroke="black" stroke-dasharray="none" font-family="Arial" font-size="10pt" font-weight="normal" font-style="normal" d="M-15 40L85 40"/><path stroke-width="2" fill="none" stroke="black" stroke-dasharray="none" font-family="Arial" font-size="10pt" font-weight="normal" font-style="normal" d="M-15 50L85 50"/><path stroke-width="2" fill="none" stroke="black" stroke-dasharray="none" font-family="Arial" font-size="10pt" font-weight="normal" font-style="normal" d="M-15 60L85 60"/><path stroke-width="2" fill="none" stroke="black" stroke-dasharray="none" font-family="Arial" font-size="10pt" font-weight="normal" font-style="normal" d="M-15 70L85 70"/><rect stroke-width="0.3" fill="black" stroke="black" stroke-dasharray="none" font-family="Arial" font-size="10pt" font-weight="normal" font-style="normal" x="-15" y="29.5" width="1" height="41"/><rect stroke-width="0.3" fill="black" stroke="black" stroke-dasharray="none" font-family="Arial" font-size="10pt" font-weight="normal" font-style="normal" x="85" y="29.5" width="1" height="41"/><path stroke-width="2" fill="none" stroke="black" stroke-dasharray="none" font-family="Arial" font-size="10pt" font-weight="normal" font-style="normal" x="85" y="29.5" width="1" height="41" d="M-1 20L22.381520000000002 20"/><g class="vf-stavenote" id="vf-auto1970"><g class="vf-note" pointer-events="bounding-box"><g class="vf-notehead" pointer-events="bounding-box"><path stroke-width="0.3" fill="black" stroke="none" stroke-dasharray="none" font-family="Arial" font-size="10pt" font-weight="normal" font-style="normal" x="85" y="29.5" width="1" height="41" d="M2 15M9.69392 9.83328C10.0028 9.77712,10.31168 9.77712,10.620560000000001 9.77712C15.0572 9.77712,18.76376 11.74272,19.29728 14.38224C19.32536 14.63496,19.381520000000002 14.8596,19.381520000000002 15.02808C19.381520000000002 17.92032,15.56264 20.25096,10.64864 20.25096C5.734640000000001 20.25096,2 17.86416,2 15.02808C2 14.69112,2.02808 14.35416,2.1404 13.98912C2.81432 11.7708,5.95928 10.05792,9.69392 9.83328M10.115120000000001 10.47912C9.974720000000001 10.451039999999999,9.77816 10.451039999999999,9.63776 10.451039999999999C7.868720000000001 10.451039999999999,6.80168 11.96736,6.80168 13.84872C6.80168 14.8596,7.11056 15.95472,7.7564 17.04984C8.823440000000002 18.73464,10.367840000000001 19.57704,11.6876 19.57704C12.8108 19.57704,13.7936 18.98736,14.24288 17.75184C14.439440000000001 17.2464,14.52368 16.74096,14.52368 16.20744C14.52368 13.68024,12.58616 10.87224,10.115120000000001 10.47912"/></g></g><g class="vf-modifiers"><path stroke-width="0.3" fill="black" stroke="none" stroke-dasharray="none" font-family="Arial" font-size="10pt" font-weight="normal" font-style="normal" x="85" y="29.5" width="1" height="41" d="M26.381520000000002 15 A2 2 0 0 0 22.381520000000002 15M0 0M22.381520000000002 15 A2 2 0 0 0 26.381520000000002 15M0 0"/></g></g></svg>