<?xml version="1.0" standalone="no"?><svg xmlns="http://www.w3.org/2000/svg" width="40" height="130"><path stroke-width="2" fill="none" stroke="black" stroke-dasharray="none" font-family="Arial" font-size="10pt" font-weight="normal" font-style="normal" d="M-15 30L85 30"/><path stroke-width="2" fill="none" stroke="black" stroke-dasharray="none" font-family="Arial" font-size="10pt" font-weight="normal" font-style="normal" d="M-15 40L85 40"/><path stroke-width="2" fill="none" stroke="black" stroke-dasharray="none" font-family="Arial" font-size="10pt" font-weight="normal" font-style="normal" d="M-15 50L85 50"/><path stroke-width="2" fill="none" stroke="black" stroke-dasharray="none" font-family="Arial" font-size="10pt" font-weight="normal" font-style="normal" d="M-15 60L85 60"/><path stroke-width="2" fill="none" stroke="black" stroke-dasharray="none" font-family="Arial" font-size="10pt" font-weight="normal" font-style="normal" d="M-15 70L85 70"/><rect stroke-width="0.3" fill="black" stroke="black" stroke-dasharray="none" font-family="Arial" font-size="10pt" font-weight="normal" font-style="normal" x="-15" y="29.5" width="1" height="41"/><rect stroke-width="0.3" fill="black" stroke="black" stroke-dasharray="none" font-family="Arial" font-size="10pt" font-weight="normal" font-style="normal" x="85" y="29.5" width="1" height="41"/><path stroke-width="2" fill="none" stroke="black" stroke-dasharray="none" font-family="Arial" font-size="10pt" font-weight="normal" font-style="normal" x="85" y="29.5" width="1" height="41" d="M-1 20L17.01824 20"/><g class="vf-stavenote" id="vf-auto6188"><g class="vf-note" pointer-events="bounding-box"><g class="vf-stem" pointer-events="bounding-box"><path stroke-width="1.5" fill="none" stroke="black" stroke-dasharray="none" font-family="Arial" font-size="10pt" font-weight="normal" font-style="normal" x="85" y="29.5" width="1" height="41" d="M2.75 15L2.75 50"/></g><g class="vf-notehead" pointer-events="bounding-box"><path stroke-width="0.3" fill="black" stroke="none" stroke-dasharray="none" font-family="Arial" font-size="10pt" font-weight="normal" font-style="normal" x="85" y="29.5" width="1" height="41" d="M2 15M9.35696 9.77712C9.469280000000001 9.77712,9.63776 9.77712,9.66584 9.77712C9.66584 9.77712,9.69392 9.77712,9.69392 9.77712C9.69392 9.77712,9.862400000000001 9.77712,10.0028 9.77712C12.530000000000001 9.91752,14.01824 11.57424,14.01824 13.65216C14.01824 14.66304,13.681280000000001 15.81432,12.83888 16.90944C11.23832 19.0716,8.62688 20.25096,6.3524 20.25096C4.58336 20.25096,3.06704 19.54896,2.33696 18.116880000000002C2.11232 17.55528,2 17.02176,2 16.43208C2 13.37136,5.42576 9.97368,9.35696 9.77712"/></g><g class="vf-flag" pointer-events="bounding-box"><path stroke-width="0.3" fill="black" stroke="none" stroke-dasharray="none" font-family="Arial" font-size="10pt" font-weight="normal" font-style="normal" x="85" y="29.5" width="1" height="41" d="M2.75 52M11.23016 23.049519999999998C11.28632 23.02144,11.370560000000001 23.02144,11.39864 23.02144C11.67944 23.02144,11.876 23.161839999999998,12.0164 23.47072C12.60608 24.7624,12.91496 26.1664,12.91496 27.65464C12.91496 28.86208,12.66224 30.0976,12.2972 31.27696L12.18488 31.58584L12.2972 31.86664C12.7184 32.98984,12.91496 34.19728,12.91496 35.40472C12.91496 38.07232,11.876 40.73992,9.966560000000001 42.93016C9.573440000000002 43.40752,9.12416 43.8568,8.47832 44.36224C6.37232 46.21552,4.60328 48.26536,3.3116 50.42752C3.08696 50.76448,2.75 51.38224,2.72192 51.49456C2.63768 51.74728,2.41304 51.88768,2.21648 51.88768L2.16032 51.88768L2.16032 48.0688L2.16032 44.24992L2.41304 44.22184C4.46288 43.91296,6.31616 43.32328,7.43936 42.64936C10.10696 41.10496,11.70752 38.21272,11.70752 35.20816C11.70752 34.5904,11.65136 33.97264,11.48288 33.354879999999994L11.4548 33.10216L11.28632 33.354879999999994C10.58432 34.5904,9.77 35.517039999999994,8.47832 36.61216C6.37232 38.43736,4.60328 40.51528,3.3116 42.64936C3.08696 43.0144,2.75 43.63216,2.72192 43.80064C2.63768 43.9972,2.41304 44.1376,2.21648 44.1376L2.16032 44.1376L2.16032 40.31872L2.16032 36.49984L2.41304 36.47176C4.46288 36.16288,6.31616 35.5732,7.43936 34.899280000000005C10.16312 33.29872,11.70752 30.3784,11.70752 27.45808C11.70752 26.33488,11.48288 25.211679999999998,11.00552 24.14464C10.83704 23.807679999999998,10.83704 23.72344,10.83704 23.61112C10.83704 23.33032,11.00552 23.13376,11.23016 23.049519999999998"/></g></g><g class="vf-modifiers"><path stroke-width="0.3" fill="black" stroke="none" stroke-dasharray="none" font-family="Arial" font-size="10pt" font-weight="normal" font-style="normal" x="85" y="29.5" width="1" height="41" d="M21.01824 15 A2 2 0 0 0 17.01824 15M0 0M17.01824 15 A2 2 0 0 0 21.01824 15M0 0"/></g></g></svg>