<?xml version="1.0" standalone="no"?><svg xmlns="http://www.w3.org/2000/svg" width="40" height="130"><path stroke-width="2" fill="none" stroke="black" stroke-dasharray="none" font-family="Arial" font-size="10pt" font-weight="normal" font-style="normal" d="M-15 30L85 30"/><path stroke-width="2" fill="none" stroke="black" stroke-dasharray="none" font-family="Arial" font-size="10pt" font-weight="normal" font-style="normal" d="M-15 40L85 40"/><path stroke-width="2" fill="none" stroke="black" stroke-dasharray="none" font-family="Arial" font-size="10pt" font-weight="normal" font-style="normal" d="M-15 50L85 50"/><path stroke-width="2" fill="none" stroke="black" stroke-dasharray="none" font-family="Arial" font-size="10pt" font-weight="normal" font-style="normal" d="M-15 60L85 60"/><path stroke-width="2" fill="none" stroke="black" stroke-dasharray="none" font-family="Arial" font-size="10pt" font-weight="normal" font-style="normal" d="M-15 70L85 70"/><rect stroke-width="0.3" fill="black" stroke="black" stroke-dasharray="none" font-family="Arial" font-size="10pt" font-weight="normal" font-style="normal" x="-15" y="29.5" width="1" height="41"/><rect stroke-width="0.3" fill="black" stroke="black" stroke-dasharray="none" font-family="Arial" font-size="10pt" font-weight="normal" font-style="normal" x="85" y="29.5" width="1" height="41"/><g class="vf-stavenote" id="vf-auto5633"><g class="vf-note" pointer-events="bounding-box"><g class="vf-stem" pointer-events="bounding-box"><path stroke-width="1.5" fill="none" stroke="black" stroke-dasharray="none" font-family="Arial" font-size="10pt" font-weight="normal" font-style="normal" x="85" y="29.5" width="1" height="41" d="M2.75 50L2.75 85"/></g><g class="vf-notehead" pointer-events="bounding-box"><path stroke-width="0.3" fill="black" stroke="none" stroke-dasharray="none" font-family="Arial" font-size="10pt" font-weight="normal" font-style="normal" x="85" y="29.5" width="1" height="41" d="M2 50M9.35696 44.77712C9.469280000000001 44.77712,9.63776 44.77712,9.66584 44.77712C9.66584 44.77712,9.69392 44.77712,9.69392 44.77712C9.69392 44.77712,9.862400000000001 44.77712,10.0028 44.77712C12.530000000000001 44.917519999999996,14.01824 46.57424,14.01824 48.65216C14.01824 49.66304,13.681280000000001 50.81432,12.83888 51.909440000000004C11.23832 54.071600000000004,8.62688 55.25096,6.3524 55.25096C4.58336 55.25096,3.06704 54.54896,2.33696 53.11688C2.11232 52.55528,2 52.02176,2 51.43208C2 48.37136,5.42576 44.97368,9.35696 44.77712"/></g><g class="vf-flag" pointer-events="bounding-box"><path stroke-width="0.3" fill="black" stroke="none" stroke-dasharray="none" font-family="Arial" font-size="10pt" font-weight="normal" font-style="normal" x="85" y="29.5" width="1" height="41" d="M2.75 87M11.23016 58.04952C11.28632 58.02144,11.370560000000001 58.02144,11.39864 58.02144C11.67944 58.02144,11.876 58.16184,12.0164 58.47072C12.60608 59.7624,12.91496 61.166399999999996,12.91496 62.65464C12.91496 63.86208,12.66224 65.0976,12.2972 66.27696L12.18488 66.58584L12.2972 66.86664C12.7184 67.98984,12.91496 69.19728,12.91496 70.40472C12.91496 73.07232,11.876 75.73992,9.966560000000001 77.93016C9.573440000000002 78.40752,9.12416 78.85679999999999,8.47832 79.36224C6.37232 81.21552,4.60328 83.26536,3.3116 85.42752C3.08696 85.76448,2.75 86.38224,2.72192 86.49456C2.63768 86.74728,2.41304 86.88768,2.21648 86.88768L2.16032 86.88768L2.16032 83.0688L2.16032 79.24992L2.41304 79.22184C4.46288 78.91296,6.31616 78.32328,7.43936 77.64936C10.10696 76.10496,11.70752 73.21272,11.70752 70.20815999999999C11.70752 69.5904,11.65136 68.97264,11.48288 68.35488L11.4548 68.10216L11.28632 68.35488C10.58432 69.5904,9.77 70.51704,8.47832 71.61216C6.37232 73.43736,4.60328 75.51528,3.3116 77.64936C3.08696 78.0144,2.75 78.63216,2.72192 78.80064C2.63768 78.99719999999999,2.41304 79.1376,2.21648 79.1376L2.16032 79.1376L2.16032 75.31872L2.16032 71.49984L2.41304 71.47176C4.46288 71.16288,6.31616 70.5732,7.43936 69.89928C10.16312 68.29872,11.70752 65.3784,11.70752 62.458079999999995C11.70752 61.33488,11.48288 60.21168,11.00552 59.144639999999995C10.83704 58.80768,10.83704 58.72344,10.83704 58.61112C10.83704 58.33032,11.00552 58.133759999999995,11.23016 58.04952"/></g></g><g class="vf-modifiers"/></g></svg>