<?xml version="1.0" standalone="no"?><svg xmlns="http://www.w3.org/2000/svg" width="40" height="130"><path stroke-width="2" fill="none" stroke="black" stroke-dasharray="none" font-family="Arial" font-size="10pt" font-weight="normal" font-style="normal" d="M-15 30L85 30"/><path stroke-width="2" fill="none" stroke="black" stroke-dasharray="none" font-family="Arial" font-size="10pt" font-weight="normal" font-style="normal" d="M-15 40L85 40"/><path stroke-width="2" fill="none" stroke="black" stroke-dasharray="none" font-family="Arial" font-size="10pt" font-weight="normal" font-style="normal" d="M-15 50L85 50"/><path stroke-width="2" fill="none" stroke="black" stroke-dasharray="none" font-family="Arial" font-size="10pt" font-weight="normal" font-style="normal" d="M-15 60L85 60"/><path stroke-width="2" fill="none" stroke="black" stroke-dasharray="none" font-family="Arial" font-size="10pt" font-weight="normal" font-style="normal" d="M-15 70L85 70"/><rect stroke-width="0.3" fill="black" stroke="black" stroke-dasharray="none" font-family="Arial" font-size="10pt" font-weight="normal" font-style="normal" x="-15" y="29.5" width="1" height="41"/><rect stroke-width="0.3" fill="black" stroke="black" stroke-dasharray="none" font-family="Arial" font-size="10pt" font-weight="normal" font-style="normal" x="85" y="29.5" width="1" height="41"/><path stroke-width="2" fill="none" stroke="black" stroke-dasharray="none" font-family="Arial" font-size="10pt" font-weight="normal" font-style="normal" x="85" y="29.5" width="1" height="41" d="M-1 80L17.01824 80"/><g class="vf-stavenote" id="vf-auto6149"><g class="vf-note" pointer-events="bounding-box"><g class="vf-stem" pointer-events="bounding-box"><path stroke-width="1.5" fill="none" stroke="black" stroke-dasharray="none" font-family="Arial" font-size="10pt" font-weight="normal" font-style="normal" x="85" y="29.5" width="1" height="41" d="M13.26824 85L13.26824 50"/></g><g class="vf-notehead" pointer-events="bounding-box"><path stroke-width="0.3" fill="black" stroke="none" stroke-dasharray="none" font-family="Arial" font-size="10pt" font-weight="normal" font-style="normal" x="85" y="29.5" width="1" height="41" d="M2 85M9.35696 79.77712C9.469280000000001 79.77712,9.63776 79.77712,9.66584 79.77712C9.66584 79.77712,9.69392 79.77712,9.69392 79.77712C9.69392 79.77712,9.862400000000001 79.77712,10.0028 79.77712C12.530000000000001 79.91752,14.01824 81.57424,14.01824 83.65216C14.01824 84.66304,13.681280000000001 85.81432,12.83888 86.90944C11.23832 89.0716,8.62688 90.25096,6.3524 90.25096C4.58336 90.25096,3.06704 89.54896,2.33696 88.11688C2.11232 87.55528,2 87.02176,2 86.43208C2 83.37136,5.42576 79.97368,9.35696 79.77712"/></g><g class="vf-flag" pointer-events="bounding-box"><path stroke-width="0.3" fill="black" stroke="none" stroke-dasharray="none" font-family="Arial" font-size="10pt" font-weight="normal" font-style="normal" x="85" y="29.5" width="1" height="41" d="M13.26824 48M12.59432 52.12776L12.59432 48.1404L12.70664 48.1404C12.931280000000001 48.1404,13.15592 48.30888,13.240160000000001 48.53352C13.436720000000001 49.20744,14.138720000000001 50.41488,14.896880000000001 51.45384C15.87968 52.85784,17.03096 54.14952,18.77192 55.80624C20.96216 57.99648,22.169600000000003 60.9168,22.169600000000003 64.0056C22.169600000000003 65.32536,21.91688 66.70128,21.523760000000003 68.02104L21.383360000000003 68.32992L21.523760000000003 68.6388C21.91688 69.9024,22.169600000000003 71.22216,22.169600000000003 72.51384C22.169600000000003 75.04104000000001,21.35528 77.59632,19.86704 79.78656000000001C19.67048 80.0112,19.55816 80.17967999999999,19.136960000000002 80.7132C18.996560000000002 80.90976,18.77192 81.05016,18.57536 81.05016C18.378800000000002 81.05016,18.18224 80.90976,18.06992 80.68512C18.04184 80.60088,17.985680000000002 80.54472,17.985680000000002 80.40432C17.985680000000002 80.26392,18.098 80.06736000000001,18.350720000000003 79.78656000000001C19.95128 77.87712,20.82176 75.378,20.82176 73.01928000000001C20.82176 72.87888000000001,20.82176 72.82272,20.82176 72.73848C20.82176 72.06456,20.70944 71.22216,20.6252 70.85712000000001C20.59712 70.77288,20.540960000000002 70.63248,20.512880000000003 70.464C20.007440000000003 68.52647999999999,18.82808 66.72936,17.2556 65.63424C16.4132 65.01648,14.588000000000001 64.53912,13.0436 64.53912C12.9032 64.53912,12.734720000000001 64.53912,12.70664 64.53912L12.59432 64.53912L12.59432 60.60792L12.59432 56.64864L12.70664 56.64864C12.931280000000001 56.64864,13.15592 56.78904,13.240160000000001 57.04176C13.436720000000001 57.6876,14.138720000000001 58.89504,14.896880000000001 59.90592C15.87968 61.36608,17.08712 62.68584,18.71576 64.2864C19.47392 65.01648,20.147840000000002 65.8308,20.540960000000002 66.53280000000001C20.540960000000002 66.58896,20.59712 66.61704,20.59712 66.61704C20.6252 66.61704,20.6252 66.53280000000001,20.68136 66.42048C20.793680000000002 65.74656,20.82176 65.1288,20.82176 64.48296C20.82176 63.893280000000004,20.793680000000002 63.27552,20.68136 62.62968C20.68136 62.51736,20.6252 62.40504,20.6252 62.37696C20.59712 62.29272,20.540960000000002 62.12424,20.512880000000003 61.98384C20.007440000000003 60.01824,18.82808 58.2492,17.2556 57.15408C16.4132 56.50824,14.588000000000001 56.08704,13.0436 56.05896C12.9032 56.05896,12.734720000000001 56.05896,12.70664 56.05896L12.59432 56.05896L12.59432 52.12776"/></g></g><g class="vf-modifiers"><path stroke-width="0.3" fill="black" stroke="none" stroke-dasharray="none" font-family="Arial" font-size="10pt" font-weight="normal" font-style="normal" x="85" y="29.5" width="1" height="41" d="M30.59352 85 A2 2 0 0 0 26.59352 85M0 0M26.59352 85 A2 2 0 0 0 30.59352 85M0 0"/></g></g></svg>