<?xml version="1.0" standalone="no"?><svg xmlns="http://www.w3.org/2000/svg" width="40" height="130"><path stroke-width="2" fill="none" stroke="black" stroke-dasharray="none" font-family="Arial" font-size="10pt" font-weight="normal" font-style="normal" d="M-15 30L85 30"/><path stroke-width="2" fill="none" stroke="black" stroke-dasharray="none" font-family="Arial" font-size="10pt" font-weight="normal" font-style="normal" d="M-15 40L85 40"/><path stroke-width="2" fill="none" stroke="black" stroke-dasharray="none" font-family="Arial" font-size="10pt" font-weight="normal" font-style="normal" d="M-15 50L85 50"/><path stroke-width="2" fill="none" stroke="black" stroke-dasharray="none" font-family="Arial" font-size="10pt" font-weight="normal" font-style="normal" d="M-15 60L85 60"/><path stroke-width="2" fill="none" stroke="black" stroke-dasharray="none" font-family="Arial" font-size="10pt" font-weight="normal" font-style="normal" d="M-15 70L85 70"/><rect stroke-width="0.3" fill="black" stroke="black" stroke-dasharray="none" font-family="Arial" font-size="10pt" font-weight="normal" font-style="normal" x="-15" y="29.5" width="1" height="41"/><rect stroke-width="0.3" fill="black" stroke="black" stroke-dasharray="none" font-family="Arial" font-size="10pt" font-weight="normal" font-style="normal" x="85" y="29.5" width="1" height="41"/><path stroke-width="2" fill="none" stroke="black" stroke-dasharray="none" font-family="Arial" font-size="10pt" font-weight="normal" font-style="normal" x="85" y="29.5" width="1" height="41" d="M10.44192 80L33.823440000000005 80"/><g class="vf-stavenote" id="vf-auto1783"><g class="vf-note" pointer-events="bounding-box"><g class="vf-notehead" pointer-events="bounding-box"><path stroke-width="0.3" fill="black" stroke="none" stroke-dasharray="none" font-family="Arial" font-size="10pt" font-weight="normal" font-style="normal" x="85" y="29.5" width="1" height="41" d="M13.44192 85M21.13584 79.83328C21.44472 79.77712,21.7536 79.77712,22.06248 79.77712C26.499119999999998 79.77712,30.20568 81.74272,30.7392 84.38224C30.76728 84.63496,30.82344 84.8596,30.82344 85.02808C30.82344 87.92032,27.004559999999998 90.25096,22.09056 90.25096C17.17656 90.25096,13.44192 87.86416,13.44192 85.02808C13.44192 84.69112,13.469999999999999 84.35416,13.58232 83.98912C14.25624 81.7708,17.4012 80.05792,21.13584 79.83328M21.55704 80.47912C21.41664 80.45104,21.22008 80.45104,21.07968 80.45104C19.31064 80.45104,18.2436 81.96736,18.2436 83.84872C18.2436 84.8596,18.55248 85.95472,19.19832 87.04984C20.26536 88.73464,21.80976 89.57704,23.12952 89.57704C24.25272 89.57704,25.23552 88.98736,25.6848 87.75184C25.88136 87.2464,25.965600000000002 86.74096,25.965600000000002 86.20744C25.965600000000002 83.68024,24.02808 80.87224,21.55704 80.47912"/></g></g><g class="vf-modifiers"><path stroke-width="0.3" fill="black" stroke="none" stroke-dasharray="none" font-family="Arial" font-size="10pt" font-weight="normal" font-style="normal" x="85" y="29.5" width="1" height="41" d="M3.57456 85M3.35568 67.73584C3.4104 67.70848000000001,3.4651199999999998 67.70848000000001,3.5472 67.70848000000001C3.79344 67.70848000000001,4.01232 67.81792,4.0944 68.0368C4.12176 68.14624,4.12176 68.14624,4.12176 74.52112L4.12176 80.95072L4.14912 80.86864C5.1888 79.99312,6.2832 79.55536000000001,7.32288 79.55536000000001C7.73328 79.55536000000001,8.14368 79.61008,8.554079999999999 79.77424C9.78528 80.18464,10.44192 81.33376,10.44192 82.70176000000001C10.44192 83.41312,10.223040000000001 84.20656,9.81264 85C9.210719999999998 86.0944,8.44464 86.96992,6.31056 88.88512L4.20384 90.8824C3.8207999999999998 91.26544,3.73872 91.26544,3.57456 91.26544C3.32832 91.26544,3.10944 91.12864,3.02736 90.90976L3 90.80032L3 79.50064L3 68.14624L3.02736 68.0368C3.10944 67.92736,3.21888 67.7632,3.35568 67.73584M6.58416 81.41584C6.47472 81.36112,6.31056 81.36112,6.2011199999999995 81.36112C6.11904 81.36112,6.06432 81.36112,6.0096 81.36112C5.29824 81.47056,4.66896 81.90832,4.2312 82.61968L4.12176 82.8112L4.12176 86.01232L4.12176 89.26816L4.20384 89.15872C6.2011199999999995 86.96992,7.5144 84.4528,7.5144 82.78384L7.5144 82.72912C7.5144 81.90832,7.2408 81.55264,6.58416 81.41584"/></g></g></svg>