<?xml version="1.0" standalone="no"?><svg xmlns="http://www.w3.org/2000/svg" width="40" height="130"><path stroke-width="2" fill="none" stroke="black" stroke-dasharray="none" font-family="Arial" font-size="10pt" font-weight="normal" font-style="normal" d="M-15 30L85 30"/><path stroke-width="2" fill="none" stroke="black" stroke-dasharray="none" font-family="Arial" font-size="10pt" font-weight="normal" font-style="normal" d="M-15 40L85 40"/><path stroke-width="2" fill="none" stroke="black" stroke-dasharray="none" font-family="Arial" font-size="10pt" font-weight="normal" font-style="normal" d="M-15 50L85 50"/><path stroke-width="2" fill="none" stroke="black" stroke-dasharray="none" font-family="Arial" font-size="10pt" font-weight="normal" font-style="normal" d="M-15 60L85 60"/><path stroke-width="2" fill="none" stroke="black" stroke-dasharray="none" font-family="Arial" font-size="10pt" font-weight="normal" font-style="normal" d="M-15 70L85 70"/><rect stroke-width="0.3" fill="black" stroke="black" stroke-dasharray="none" font-family="Arial" font-size="10pt" font-weight="normal" font-style="normal" x="-15" y="29.5" width="1" height="41"/><rect stroke-width="0.3" fill="black" stroke="black" stroke-dasharray="none" font-family="Arial" font-size="10pt" font-weight="normal" font-style="normal" x="85" y="29.5" width="1" height="41"/><path stroke-width="2" fill="none" stroke="black" stroke-dasharray="none" font-family="Arial" font-size="10pt" font-weight="normal" font-style="normal" x="85" y="29.5" width="1" height="41" d="M10.44192 80L28.46016 80"/><g class="vf-stavenote" id="vf-auto2659"><g class="vf-note" pointer-events="bounding-box"><g class="vf-stem" pointer-events="bounding-box"><path stroke-width="1.5" fill="none" stroke="black" stroke-dasharray="none" font-family="Arial" font-size="10pt" font-weight="normal" font-style="normal" x="85" y="29.5" width="1" height="41" d="M24.710160000000002 85L24.710160000000002 50"/></g><g class="vf-notehead" pointer-events="bounding-box"><path stroke-width="0.3" fill="black" stroke="none" stroke-dasharray="none" font-family="Arial" font-size="10pt" font-weight="normal" font-style="normal" x="85" y="29.5" width="1" height="41" d="M13.44192 85M20.79888 79.77712C20.9112 79.77712,21.07968 79.77712,21.10776 79.77712C21.10776 79.77712,21.13584 79.77712,21.13584 79.77712C21.13584 79.77712,21.30432 79.77712,21.44472 79.77712C23.97192 79.91752,25.460160000000002 81.57424,25.460160000000002 83.65216C25.460160000000002 84.66304,25.1232 85.81432,24.2808 86.90944C22.680239999999998 89.0716,20.0688 90.25096,17.79432 90.25096C16.02528 90.25096,14.50896 89.54896,13.77888 88.11688C13.55424 87.55528,13.44192 87.02176,13.44192 86.43208C13.44192 83.37136,16.86768 79.97368,20.79888 79.77712M23.7192 81.32152C23.60688 81.26536,23.46648 81.23728,23.326079999999997 81.23728C22.4556 81.23728,20.99544 81.7708,19.59144 82.72552C16.98 84.35416,14.84592 86.74096,14.76168 88.11688C14.76168 88.11688,14.76168 88.14496,14.76168 88.14496C14.76168 88.62232,15.07056 88.81888000000001,15.60408 88.81888000000001C16.75536 88.81888000000001,18.88944 87.83608,20.85504 86.2636C22.8768 84.66304,24.168480000000002 82.86592,24.168480000000002 81.93928C24.168480000000002 81.6304,24.02808 81.37768,23.7192 81.32152"/></g></g><g class="vf-modifiers"><path stroke-width="0.3" fill="black" stroke="none" stroke-dasharray="none" font-family="Arial" font-size="10pt" font-weight="normal" font-style="normal" x="85" y="29.5" width="1" height="41" d="M3.57456 85M3.35568 67.73584C3.4104 67.70848000000001,3.4651199999999998 67.70848000000001,3.5472 67.70848000000001C3.79344 67.70848000000001,4.01232 67.81792,4.0944 68.0368C4.12176 68.14624,4.12176 68.14624,4.12176 74.52112L4.12176 80.95072L4.14912 80.86864C5.1888 79.99312,6.2832 79.55536000000001,7.32288 79.55536000000001C7.73328 79.55536000000001,8.14368 79.61008,8.554079999999999 79.77424C9.78528 80.18464,10.44192 81.33376,10.44192 82.70176000000001C10.44192 83.41312,10.223040000000001 84.20656,9.81264 85C9.210719999999998 86.0944,8.44464 86.96992,6.31056 88.88512L4.20384 90.8824C3.8207999999999998 91.26544,3.73872 91.26544,3.57456 91.26544C3.32832 91.26544,3.10944 91.12864,3.02736 90.90976L3 90.80032L3 79.50064L3 68.14624L3.02736 68.0368C3.10944 67.92736,3.21888 67.7632,3.35568 67.73584M6.58416 81.41584C6.47472 81.36112,6.31056 81.36112,6.2011199999999995 81.36112C6.11904 81.36112,6.06432 81.36112,6.0096 81.36112C5.29824 81.47056,4.66896 81.90832,4.2312 82.61968L4.12176 82.8112L4.12176 86.01232L4.12176 89.26816L4.20384 89.15872C6.2011199999999995 86.96992,7.5144 84.4528,7.5144 82.78384L7.5144 82.72912C7.5144 81.90832,7.2408 81.55264,6.58416 81.41584"/></g></g></svg>