<?xml version="1.0" standalone="no"?><svg xmlns="http://www.w3.org/2000/svg" width="40" height="130"><path stroke-width="2" fill="none" stroke="black" stroke-dasharray="none" font-family="Arial" font-size="10pt" font-weight="normal" font-style="normal" d="M-15 30L85 30"/><path stroke-width="2" fill="none" stroke="black" stroke-dasharray="none" font-family="Arial" font-size="10pt" font-weight="normal" font-style="normal" d="M-15 40L85 40"/><path stroke-width="2" fill="none" stroke="black" stroke-dasharray="none" font-family="Arial" font-size="10pt" font-weight="normal" font-style="normal" d="M-15 50L85 50"/><path stroke-width="2" fill="none" stroke="black" stroke-dasharray="none" font-family="Arial" font-size="10pt" font-weight="normal" font-style="normal" d="M-15 60L85 60"/><path stroke-width="2" fill="none" stroke="black" stroke-dasharray="none" font-family="Arial" font-size="10pt" font-weight="normal" font-style="normal" d="M-15 70L85 70"/><rect stroke-width="0.3" fill="black" stroke="black" stroke-dasharray="none" font-family="Arial" font-size="10pt" font-weight="normal" font-style="normal" x="-15" y="29.5" width="1" height="41"/><rect stroke-width="0.3" fill="black" stroke="black" stroke-dasharray="none" font-family="Arial" font-size="10pt" font-weight="normal" font-style="normal" x="85" y="29.5" width="1" height="41"/><g class="vf-stavenote" id="vf-auto2882"><g class="vf-note" pointer-events="bounding-box"><g class="vf-stem" pointer-events="bounding-box"><path stroke-width="1.5" fill="none" stroke="black" stroke-dasharray="none" font-family="Arial" font-size="10pt" font-weight="normal" font-style="normal" x="85" y="29.5" width="1" height="41" d="M14.19192 50L14.19192 85"/></g><g class="vf-notehead" pointer-events="bounding-box"><path stroke-width="0.3" fill="black" stroke="none" stroke-dasharray="none" font-family="Arial" font-size="10pt" font-weight="normal" font-style="normal" x="85" y="29.5" width="1" height="41" d="M13.44192 50M20.79888 44.77712C20.9112 44.77712,21.07968 44.77712,21.10776 44.77712C21.10776 44.77712,21.13584 44.77712,21.13584 44.77712C21.13584 44.77712,21.30432 44.77712,21.44472 44.77712C23.97192 44.917519999999996,25.460160000000002 46.57424,25.460160000000002 48.65216C25.460160000000002 49.66304,25.1232 50.81432,24.2808 51.909440000000004C22.680239999999998 54.071600000000004,20.0688 55.25096,17.79432 55.25096C16.02528 55.25096,14.50896 54.54896,13.77888 53.11688C13.55424 52.55528,13.44192 52.02176,13.44192 51.43208C13.44192 48.37136,16.86768 44.97368,20.79888 44.77712M23.7192 46.32152C23.60688 46.26536,23.46648 46.23728,23.326079999999997 46.23728C22.4556 46.23728,20.99544 46.7708,19.59144 47.72552C16.98 49.35416,14.84592 51.74096,14.76168 53.11688C14.76168 53.11688,14.76168 53.14496,14.76168 53.14496C14.76168 53.62232,15.07056 53.81888,15.60408 53.81888C16.75536 53.81888,18.88944 52.83608,20.85504 51.2636C22.8768 49.66304,24.168480000000002 47.86592,24.168480000000002 46.93928C24.168480000000002 46.6304,24.02808 46.37768,23.7192 46.32152"/></g></g><g class="vf-modifiers"><path stroke-width="0.3" fill="black" stroke="none" stroke-dasharray="none" font-family="Arial" font-size="10pt" font-weight="normal" font-style="normal" x="85" y="29.5" width="1" height="41" d="M3.57456 50M3.35568 32.735839999999996C3.4104 32.70848,3.4651199999999998 32.70848,3.5472 32.70848C3.79344 32.70848,4.01232 32.81792,4.0944 33.0368C4.12176 33.146240000000006,4.12176 33.146240000000006,4.12176 39.521119999999996L4.12176 45.950720000000004L4.14912 45.86864C5.1888 44.99312,6.2832 44.55536,7.32288 44.55536C7.73328 44.55536,8.14368 44.610079999999996,8.554079999999999 44.77424C9.78528 45.18464,10.44192 46.33376,10.44192 47.70176C10.44192 48.41312,10.223040000000001 49.20656,9.81264 50C9.210719999999998 51.0944,8.44464 51.96992,6.31056 53.88512L4.20384 55.8824C3.8207999999999998 56.26544,3.73872 56.26544,3.57456 56.26544C3.32832 56.26544,3.10944 56.12864,3.02736 55.90976L3 55.80032L3 44.500640000000004L3 33.146240000000006L3.02736 33.0368C3.10944 32.92736,3.21888 32.7632,3.35568 32.735839999999996M6.58416 46.41584C6.47472 46.36112,6.31056 46.36112,6.2011199999999995 46.36112C6.11904 46.36112,6.06432 46.36112,6.0096 46.36112C5.29824 46.47056,4.66896 46.90832,4.2312 47.61968L4.12176 47.8112L4.12176 51.01232L4.12176 54.26816L4.20384 54.15872C6.2011199999999995 51.96992,7.5144 49.4528,7.5144 47.78384L7.5144 47.72912C7.5144 46.90832,7.2408 46.55264,6.58416 46.41584"/><path stroke-width="0.3" fill="black" stroke="none" stroke-dasharray="none" font-family="Arial" font-size="10pt" font-weight="normal" font-style="normal" x="85" y="29.5" width="1" height="41" d="M32.46016 45 A2 2 0 0 0 28.460160000000002 45M0 0M28.460160000000002 45 A2 2 0 0 0 32.46016 45M0 0"/></g></g></svg>