<?xml version="1.0" standalone="no"?><svg xmlns="http://www.w3.org/2000/svg" width="40" height="130"><path stroke-width="2" fill="none" stroke="black" stroke-dasharray="none" font-family="Arial" font-size="10pt" font-weight="normal" font-style="normal" d="M-15 30L85 30"/><path stroke-width="2" fill="none" stroke="black" stroke-dasharray="none" font-family="Arial" font-size="10pt" font-weight="normal" font-style="normal" d="M-15 40L85 40"/><path stroke-width="2" fill="none" stroke="black" stroke-dasharray="none" font-family="Arial" font-size="10pt" font-weight="normal" font-style="normal" d="M-15 50L85 50"/><path stroke-width="2" fill="none" stroke="black" stroke-dasharray="none" font-family="Arial" font-size="10pt" font-weight="normal" font-style="normal" d="M-15 60L85 60"/><path stroke-width="2" fill="none" stroke="black" stroke-dasharray="none" font-family="Arial" font-size="10pt" font-weight="normal" font-style="normal" d="M-15 70L85 70"/><rect stroke-width="0.3" fill="black" stroke="black" stroke-dasharray="none" font-family="Arial" font-size="10pt" font-weight="normal" font-style="normal" x="-15" y="29.5" width="1" height="41"/><rect stroke-width="0.3" fill="black" stroke="black" stroke-dasharray="none" font-family="Arial" font-size="10pt" font-weight="normal" font-style="normal" x="85" y="29.5" width="1" height="41"/><path stroke-width="2" fill="none" stroke="black" stroke-dasharray="none" font-family="Arial" font-size="10pt" font-weight="normal" font-style="normal" x="85" y="29.5" width="1" height="41" d="M10.44192 20L28.46016 20"/><g class="vf-stavenote" id="vf-auto5002"><g class="vf-note" pointer-events="bounding-box"><g class="vf-stem" pointer-events="bounding-box"><path stroke-width="1.5" fill="none" stroke="black" stroke-dasharray="none" font-family="Arial" font-size="10pt" font-weight="normal" font-style="normal" x="85" y="29.5" width="1" height="41" d="M14.19192 15L14.19192 50"/></g><g class="vf-notehead" pointer-events="bounding-box"><path stroke-width="0.3" fill="black" stroke="none" stroke-dasharray="none" font-family="Arial" font-size="10pt" font-weight="normal" font-style="normal" x="85" y="29.5" width="1" height="41" d="M13.44192 15M20.79888 9.77712C20.9112 9.77712,21.07968 9.77712,21.10776 9.77712C21.10776 9.77712,21.13584 9.77712,21.13584 9.77712C21.13584 9.77712,21.30432 9.77712,21.44472 9.77712C23.97192 9.91752,25.460160000000002 11.57424,25.460160000000002 13.65216C25.460160000000002 14.66304,25.1232 15.81432,24.2808 16.90944C22.680239999999998 19.0716,20.0688 20.25096,17.79432 20.25096C16.02528 20.25096,14.50896 19.54896,13.77888 18.116880000000002C13.55424 17.55528,13.44192 17.02176,13.44192 16.43208C13.44192 13.37136,16.86768 9.97368,20.79888 9.77712"/></g><g class="vf-flag" pointer-events="bounding-box"><path stroke-width="0.3" fill="black" stroke="none" stroke-dasharray="none" font-family="Arial" font-size="10pt" font-weight="normal" font-style="normal" x="85" y="29.5" width="1" height="41" d="M14.19192 52M20.65032 23.049519999999998C20.70648 23.02144,20.79072 23.02144,20.87496 23.02144C21.07152 23.02144,21.240000000000002 23.161839999999998,21.46464 23.52688C23.45832 26.55952,24.49728 30.041439999999998,24.49728 33.41104C24.49728 34.00072,24.49728 34.56232,24.413040000000002 35.095839999999995C24.076079999999997 38.29696,22.72824 41.21728,20.70648 43.09864C18.54432 45.120400000000004,17.08416 46.74904,15.79248 48.6304C15.0624 49.64128,14.3604 50.8768,14.16384 51.49456C14.0796 51.69112,13.85496 51.88768,13.6584 51.88768L13.60224 51.88768L13.60224 47.53528L13.60224 43.1548L13.74264 43.1548C14.472719999999999 43.1548,15.932879999999999 42.90208,16.8876 42.593199999999996C20.56608 41.3296,23.03712 37.20184,23.03712 32.4844C23.03712 32.09128,23.00904 31.67008,22.98096 31.27696C22.72824 28.834,21.85776 26.27872,20.48184 24.172719999999998C20.34144 23.94808,20.2572 23.72344,20.2572 23.554959999999998C20.2572 23.33032,20.36952 23.13376,20.65032 23.049519999999998"/></g></g><g class="vf-modifiers"><path stroke-width="0.3" fill="black" stroke="none" stroke-dasharray="none" font-family="Arial" font-size="10pt" font-weight="normal" font-style="normal" x="85" y="29.5" width="1" height="41" d="M3.57456 15M3.35568 -2.2641600000000004C3.4104 -2.2915199999999984,3.4651199999999998 -2.2915199999999984,3.5472 -2.2915199999999984C3.79344 -2.2915199999999984,4.01232 -2.182079999999999,4.0944 -1.9632000000000005C4.12176 -1.8537599999999976,4.12176 -1.8537599999999976,4.12176 4.52112L4.12176 10.95072L4.14912 10.86864C5.1888 9.993120000000001,6.2832 9.55536,7.32288 9.55536C7.73328 9.55536,8.14368 9.61008,8.554079999999999 9.774239999999999C9.78528 10.18464,10.44192 11.33376,10.44192 12.70176C10.44192 13.41312,10.223040000000001 14.20656,9.81264 15C9.210719999999998 16.0944,8.44464 16.96992,6.31056 18.88512L4.20384 20.8824C3.8207999999999998 21.265439999999998,3.73872 21.265439999999998,3.57456 21.265439999999998C3.32832 21.265439999999998,3.10944 21.12864,3.02736 20.90976L3 20.80032L3 9.50064L3 -1.8537599999999976L3.02736 -1.9632000000000005C3.10944 -2.07264,3.21888 -2.236799999999999,3.35568 -2.2641600000000004M6.58416 11.41584C6.47472 11.36112,6.31056 11.36112,6.2011199999999995 11.36112C6.11904 11.36112,6.06432 11.36112,6.0096 11.36112C5.29824 11.47056,4.66896 11.90832,4.2312 12.61968L4.12176 12.8112L4.12176 16.01232L4.12176 19.26816L4.20384 19.15872C6.2011199999999995 16.96992,7.5144 14.4528,7.5144 12.78384L7.5144 12.72912C7.5144 11.90832,7.2408 11.55264,6.58416 11.41584"/><path stroke-width="0.3" fill="black" stroke="none" stroke-dasharray="none" font-family="Arial" font-size="10pt" font-weight="normal" font-style="normal" x="85" y="29.5" width="1" height="41" d="M32.46016 15 A2 2 0 0 0 28.460160000000002 15M0 0M28.460160000000002 15 A2 2 0 0 0 32.46016 15M0 0"/></g></g></svg>