<?xml version="1.0" standalone="no"?><svg xmlns="http://www.w3.org/2000/svg" width="40" height="130"><path stroke-width="2" fill="none" stroke="black" stroke-dasharray="none" font-family="Arial" font-size="10pt" font-weight="normal" font-style="normal" d="M-15 30L85 30"/><path stroke-width="2" fill="none" stroke="black" stroke-dasharray="none" font-family="Arial" font-size="10pt" font-weight="normal" font-style="normal" d="M-15 40L85 40"/><path stroke-width="2" fill="none" stroke="black" stroke-dasharray="none" font-family="Arial" font-size="10pt" font-weight="normal" font-style="normal" d="M-15 50L85 50"/><path stroke-width="2" fill="none" stroke="black" stroke-dasharray="none" font-family="Arial" font-size="10pt" font-weight="normal" font-style="normal" d="M-15 60L85 60"/><path stroke-width="2" fill="none" stroke="black" stroke-dasharray="none" font-family="Arial" font-size="10pt" font-weight="normal" font-style="normal" d="M-15 70L85 70"/><rect stroke-width="0.3" fill="black" stroke="black" stroke-dasharray="none" font-family="Arial" font-size="10pt" font-weight="normal" font-style="normal" x="-15" y="29.5" width="1" height="41"/><rect stroke-width="0.3" fill="black" stroke="black" stroke-dasharray="none" font-family="Arial" font-size="10pt" font-weight="normal" font-style="normal" x="85" y="29.5" width="1" height="41"/><path stroke-width="2" fill="none" stroke="black" stroke-dasharray="none" font-family="Arial" font-size="10pt" font-weight="normal" font-style="normal" x="85" y="29.5" width="1" height="41" d="M10.44192 80L28.46016 80"/><g class="vf-stavenote" id="vf-auto5557"><g class="vf-note" pointer-events="bounding-box"><g class="vf-stem" pointer-events="bounding-box"><path stroke-width="1.5" fill="none" stroke="black" stroke-dasharray="none" font-family="Arial" font-size="10pt" font-weight="normal" font-style="normal" x="85" y="29.5" width="1" height="41" d="M24.710160000000002 85L24.710160000000002 50"/></g><g class="vf-notehead" pointer-events="bounding-box"><path stroke-width="0.3" fill="black" stroke="none" stroke-dasharray="none" font-family="Arial" font-size="10pt" font-weight="normal" font-style="normal" x="85" y="29.5" width="1" height="41" d="M13.44192 85M20.79888 79.77712C20.9112 79.77712,21.07968 79.77712,21.10776 79.77712C21.10776 79.77712,21.13584 79.77712,21.13584 79.77712C21.13584 79.77712,21.30432 79.77712,21.44472 79.77712C23.97192 79.91752,25.460160000000002 81.57424,25.460160000000002 83.65216C25.460160000000002 84.66304,25.1232 85.81432,24.2808 86.90944C22.680239999999998 89.0716,20.0688 90.25096,17.79432 90.25096C16.02528 90.25096,14.50896 89.54896,13.77888 88.11688C13.55424 87.55528,13.44192 87.02176,13.44192 86.43208C13.44192 83.37136,16.86768 79.97368,20.79888 79.77712"/></g><g class="vf-flag" pointer-events="bounding-box"><path stroke-width="0.3" fill="black" stroke="none" stroke-dasharray="none" font-family="Arial" font-size="10pt" font-weight="normal" font-style="normal" x="85" y="29.5" width="1" height="41" d="M24.710160000000002 48M24.036240000000003 52.12776L24.036240000000003 48.1404L24.148560000000003 48.1404C24.3732 48.1404,24.59784 48.30888,24.682080000000003 48.53352C24.87864 49.20744,25.580640000000002 50.41488,26.338800000000003 51.45384C27.321600000000004 52.85784,28.472880000000004 54.14952,30.21384 55.80624C32.40408 57.99648,33.61152 60.9168,33.61152 64.0056C33.61152 65.32536,33.3588 66.70128,32.965680000000006 68.02104L32.82528000000001 68.32992L32.965680000000006 68.6388C33.3588 69.9024,33.61152 71.22216,33.61152 72.51384C33.61152 75.04104000000001,32.797200000000004 77.59632,31.308960000000003 79.78656000000001C31.1124 80.0112,31.000080000000004 80.17967999999999,30.57888 80.7132C30.438480000000002 80.90976,30.21384 81.05016,30.017280000000003 81.05016C29.82072 81.05016,29.624160000000003 80.90976,29.511840000000003 80.68512C29.483760000000004 80.60088,29.4276 80.54472,29.4276 80.40432C29.4276 80.26392,29.539920000000002 80.06736000000001,29.792640000000002 79.78656000000001C31.3932 77.87712,32.26368 75.378,32.26368 73.01928000000001C32.26368 72.87888000000001,32.26368 72.82272,32.26368 72.73848C32.26368 72.06456,32.151360000000004 71.22216,32.06712 70.85712000000001C32.03904 70.77288,31.98288 70.63248,31.954800000000002 70.464C31.449360000000002 68.52647999999999,30.270000000000003 66.72936,28.69752 65.63424C27.855120000000003 65.01648,26.02992 64.53912,24.48552 64.53912C24.34512 64.53912,24.176640000000003 64.53912,24.148560000000003 64.53912L24.036240000000003 64.53912L24.036240000000003 60.60792L24.036240000000003 56.64864L24.148560000000003 56.64864C24.3732 56.64864,24.59784 56.78904,24.682080000000003 57.04176C24.87864 57.6876,25.580640000000002 58.89504,26.338800000000003 59.90592C27.321600000000004 61.36608,28.529040000000002 62.68584,30.157680000000003 64.2864C30.915840000000003 65.01648,31.589760000000002 65.8308,31.98288 66.53280000000001C31.98288 66.58896,32.03904 66.61704,32.03904 66.61704C32.06712 66.61704,32.06712 66.53280000000001,32.12328 66.42048C32.235600000000005 65.74656,32.26368 65.1288,32.26368 64.48296C32.26368 63.893280000000004,32.235600000000005 63.27552,32.12328 62.62968C32.12328 62.51736,32.06712 62.40504,32.06712 62.37696C32.03904 62.29272,31.98288 62.12424,31.954800000000002 61.98384C31.449360000000002 60.01824,30.270000000000003 58.2492,28.69752 57.15408C27.855120000000003 56.50824,26.02992 56.08704,24.48552 56.05896C24.34512 56.05896,24.176640000000003 56.05896,24.148560000000003 56.05896L24.036240000000003 56.05896L24.036240000000003 52.12776"/></g></g><g class="vf-modifiers"><path stroke-width="0.3" fill="black" stroke="none" stroke-dasharray="none" font-family="Arial" font-size="10pt" font-weight="normal" font-style="normal" x="85" y="29.5" width="1" height="41" d="M3.57456 85M3.35568 67.73584C3.4104 67.70848000000001,3.4651199999999998 67.70848000000001,3.5472 67.70848000000001C3.79344 67.70848000000001,4.01232 67.81792,4.0944 68.0368C4.12176 68.14624,4.12176 68.14624,4.12176 74.52112L4.12176 80.95072L4.14912 80.86864C5.1888 79.99312,6.2832 79.55536000000001,7.32288 79.55536000000001C7.73328 79.55536000000001,8.14368 79.61008,8.554079999999999 79.77424C9.78528 80.18464,10.44192 81.33376,10.44192 82.70176000000001C10.44192 83.41312,10.223040000000001 84.20656,9.81264 85C9.210719999999998 86.0944,8.44464 86.96992,6.31056 88.88512L4.20384 90.8824C3.8207999999999998 91.26544,3.73872 91.26544,3.57456 91.26544C3.32832 91.26544,3.10944 91.12864,3.02736 90.90976L3 90.80032L3 79.50064L3 68.14624L3.02736 68.0368C3.10944 67.92736,3.21888 67.7632,3.35568 67.73584M6.58416 81.41584C6.47472 81.36112,6.31056 81.36112,6.2011199999999995 81.36112C6.11904 81.36112,6.06432 81.36112,6.0096 81.36112C5.29824 81.47056,4.66896 81.90832,4.2312 82.61968L4.12176 82.8112L4.12176 86.01232L4.12176 89.26816L4.20384 89.15872C6.2011199999999995 86.96992,7.5144 84.4528,7.5144 82.78384L7.5144 82.72912C7.5144 81.90832,7.2408 81.55264,6.58416 81.41584"/></g></g></svg>