<?xml version="1.0" standalone="no"?><svg xmlns="http://www.w3.org/2000/svg" width="40" height="130"><path stroke-width="2" fill="none" stroke="black" stroke-dasharray="none" font-family="Arial" font-size="10pt" font-weight="normal" font-style="normal" d="M-15 30L85 30"/><path stroke-width="2" fill="none" stroke="black" stroke-dasharray="none" font-family="Arial" font-size="10pt" font-weight="normal" font-style="normal" d="M-15 40L85 40"/><path stroke-width="2" fill="none" stroke="black" stroke-dasharray="none" font-family="Arial" font-size="10pt" font-weight="normal" font-style="normal" d="M-15 50L85 50"/><path stroke-width="2" fill="none" stroke="black" stroke-dasharray="none" font-family="Arial" font-size="10pt" font-weight="normal" font-style="normal" d="M-15 60L85 60"/><path stroke-width="2" fill="none" stroke="black" stroke-dasharray="none" font-family="Arial" font-size="10pt" font-weight="normal" font-style="normal" d="M-15 70L85 70"/><rect stroke-width="0.3" fill="black" stroke="black" stroke-dasharray="none" font-family="Arial" font-size="10pt" font-weight="normal" font-style="normal" x="-15" y="29.5" width="1" height="41"/><rect stroke-width="0.3" fill="black" stroke="black" stroke-dasharray="none" font-family="Arial" font-size="10pt" font-weight="normal" font-style="normal" x="85" y="29.5" width="1" height="41"/><g class="vf-stavenote" id="vf-auto6107"><g class="vf-note" pointer-events="bounding-box"><g class="vf-stem" pointer-events="bounding-box"><path stroke-width="1.5" fill="none" stroke="black" stroke-dasharray="none" font-family="Arial" font-size="10pt" font-weight="normal" font-style="normal" x="85" y="29.5" width="1" height="41" d="M14.19192 50L14.19192 85"/></g><g class="vf-notehead" pointer-events="bounding-box"><path stroke-width="0.3" fill="black" stroke="none" stroke-dasharray="none" font-family="Arial" font-size="10pt" font-weight="normal" font-style="normal" x="85" y="29.5" width="1" height="41" d="M13.44192 50M20.79888 44.77712C20.9112 44.77712,21.07968 44.77712,21.10776 44.77712C21.10776 44.77712,21.13584 44.77712,21.13584 44.77712C21.13584 44.77712,21.30432 44.77712,21.44472 44.77712C23.97192 44.917519999999996,25.460160000000002 46.57424,25.460160000000002 48.65216C25.460160000000002 49.66304,25.1232 50.81432,24.2808 51.909440000000004C22.680239999999998 54.071600000000004,20.0688 55.25096,17.79432 55.25096C16.02528 55.25096,14.50896 54.54896,13.77888 53.11688C13.55424 52.55528,13.44192 52.02176,13.44192 51.43208C13.44192 48.37136,16.86768 44.97368,20.79888 44.77712"/></g><g class="vf-flag" pointer-events="bounding-box"><path stroke-width="0.3" fill="black" stroke="none" stroke-dasharray="none" font-family="Arial" font-size="10pt" font-weight="normal" font-style="normal" x="85" y="29.5" width="1" height="41" d="M14.19192 87M22.67208 58.04952C22.72824 58.02144,22.81248 58.02144,22.84056 58.02144C23.12136 58.02144,23.31792 58.16184,23.45832 58.47072C24.048000000000002 59.7624,24.35688 61.166399999999996,24.35688 62.65464C24.35688 63.86208,24.10416 65.0976,23.73912 66.27696L23.6268 66.58584L23.73912 66.86664C24.16032 67.98984,24.35688 69.19728,24.35688 70.40472C24.35688 73.07232,23.31792 75.73992,21.40848 77.93016C21.01536 78.40752,20.56608 78.85679999999999,19.92024 79.36224C17.814239999999998 81.21552,16.0452 83.26536,14.75352 85.42752C14.52888 85.76448,14.19192 86.38224,14.16384 86.49456C14.0796 86.74728,13.85496 86.88768,13.6584 86.88768L13.60224 86.88768L13.60224 83.0688L13.60224 79.24992L13.85496 79.22184C15.9048 78.91296,17.75808 78.32328,18.88128 77.64936C21.54888 76.10496,23.14944 73.21272,23.14944 70.20815999999999C23.14944 69.5904,23.09328 68.97264,22.924799999999998 68.35488L22.896720000000002 68.10216L22.72824 68.35488C22.02624 69.5904,21.21192 70.51704,19.92024 71.61216C17.814239999999998 73.43736,16.0452 75.51528,14.75352 77.64936C14.52888 78.0144,14.19192 78.63216,14.16384 78.80064C14.0796 78.99719999999999,13.85496 79.1376,13.6584 79.1376L13.60224 79.1376L13.60224 75.31872L13.60224 71.49984L13.85496 71.47176C15.9048 71.16288,17.75808 70.5732,18.88128 69.89928C21.60504 68.29872,23.14944 65.3784,23.14944 62.458079999999995C23.14944 61.33488,22.924799999999998 60.21168,22.44744 59.144639999999995C22.278959999999998 58.80768,22.278959999999998 58.72344,22.278959999999998 58.61112C22.278959999999998 58.33032,22.44744 58.133759999999995,22.67208 58.04952"/></g></g><g class="vf-modifiers"><path stroke-width="0.3" fill="black" stroke="none" stroke-dasharray="none" font-family="Arial" font-size="10pt" font-weight="normal" font-style="normal" x="85" y="29.5" width="1" height="41" d="M3.57456 50M3.35568 32.735839999999996C3.4104 32.70848,3.4651199999999998 32.70848,3.5472 32.70848C3.79344 32.70848,4.01232 32.81792,4.0944 33.0368C4.12176 33.146240000000006,4.12176 33.146240000000006,4.12176 39.521119999999996L4.12176 45.950720000000004L4.14912 45.86864C5.1888 44.99312,6.2832 44.55536,7.32288 44.55536C7.73328 44.55536,8.14368 44.610079999999996,8.554079999999999 44.77424C9.78528 45.18464,10.44192 46.33376,10.44192 47.70176C10.44192 48.41312,10.223040000000001 49.20656,9.81264 50C9.210719999999998 51.0944,8.44464 51.96992,6.31056 53.88512L4.20384 55.8824C3.8207999999999998 56.26544,3.73872 56.26544,3.57456 56.26544C3.32832 56.26544,3.10944 56.12864,3.02736 55.90976L3 55.80032L3 44.500640000000004L3 33.146240000000006L3.02736 33.0368C3.10944 32.92736,3.21888 32.7632,3.35568 32.735839999999996M6.58416 46.41584C6.47472 46.36112,6.31056 46.36112,6.2011199999999995 46.36112C6.11904 46.36112,6.06432 46.36112,6.0096 46.36112C5.29824 46.47056,4.66896 46.90832,4.2312 47.61968L4.12176 47.8112L4.12176 51.01232L4.12176 54.26816L4.20384 54.15872C6.2011199999999995 51.96992,7.5144 49.4528,7.5144 47.78384L7.5144 47.72912C7.5144 46.90832,7.2408 46.55264,6.58416 46.41584"/><path stroke-width="0.3" fill="black" stroke="none" stroke-dasharray="none" font-family="Arial" font-size="10pt" font-weight="normal" font-style="normal" x="85" y="29.5" width="1" height="41" d="M32.46016 45 A2 2 0 0 0 28.460160000000002 45M0 0M28.460160000000002 45 A2 2 0 0 0 32.46016 45M0 0"/></g></g></svg>