<?xml version="1.0" standalone="no"?><svg xmlns="http://www.w3.org/2000/svg" width="40" height="130"><path stroke-width="2" fill="none" stroke="black" stroke-dasharray="none" font-family="Arial" font-size="10pt" font-weight="normal" font-style="normal" d="M-15 30L85 30"/><path stroke-width="2" fill="none" stroke="black" stroke-dasharray="none" font-family="Arial" font-size="10pt" font-weight="normal" font-style="normal" d="M-15 40L85 40"/><path stroke-width="2" fill="none" stroke="black" stroke-dasharray="none" font-family="Arial" font-size="10pt" font-weight="normal" font-style="normal" d="M-15 50L85 50"/><path stroke-width="2" fill="none" stroke="black" stroke-dasharray="none" font-family="Arial" font-size="10pt" font-weight="normal" font-style="normal" d="M-15 60L85 60"/><path stroke-width="2" fill="none" stroke="black" stroke-dasharray="none" font-family="Arial" font-size="10pt" font-weight="normal" font-style="normal" d="M-15 70L85 70"/><rect stroke-width="0.3" fill="black" stroke="black" stroke-dasharray="none" font-family="Arial" font-size="10pt" font-weight="normal" font-style="normal" x="-15" y="29.5" width="1" height="41"/><rect stroke-width="0.3" fill="black" stroke="black" stroke-dasharray="none" font-family="Arial" font-size="10pt" font-weight="normal" font-style="normal" x="85" y="29.5" width="1" height="41"/><g class="vf-stavenote" id="vf-auto1898"><g class="vf-note" pointer-events="bounding-box"><g class="vf-notehead" pointer-events="bounding-box"><path stroke-width="0.3" fill="black" stroke="none" stroke-dasharray="none" font-family="Arial" font-size="10pt" font-weight="normal" font-style="normal" x="85" y="29.5" width="1" height="41" d="M13.44192 50M21.13584 44.83328C21.44472 44.77712,21.7536 44.77712,22.06248 44.77712C26.499119999999998 44.77712,30.20568 46.74272,30.7392 49.38224C30.76728 49.63496,30.82344 49.8596,30.82344 50.02808C30.82344 52.920320000000004,27.004559999999998 55.25096,22.09056 55.25096C17.17656 55.25096,13.44192 52.86416,13.44192 50.02808C13.44192 49.69112,13.469999999999999 49.35416,13.58232 48.98912C14.25624 46.7708,17.4012 45.05792,21.13584 44.83328M21.55704 45.47912C21.41664 45.45104,21.22008 45.45104,21.07968 45.45104C19.31064 45.45104,18.2436 46.96736,18.2436 48.84872C18.2436 49.8596,18.55248 50.95472,19.19832 52.04984C20.26536 53.73464,21.80976 54.57704,23.12952 54.57704C24.25272 54.57704,25.23552 53.98736,25.6848 52.75184C25.88136 52.2464,25.965600000000002 51.74096,25.965600000000002 51.20744C25.965600000000002 48.68024,24.02808 45.87224,21.55704 45.47912"/></g></g><g class="vf-modifiers"><path stroke-width="0.3" fill="black" stroke="none" stroke-dasharray="none" font-family="Arial" font-size="10pt" font-weight="normal" font-style="normal" x="85" y="29.5" width="1" height="41" d="M3.57456 50M3.35568 32.735839999999996C3.4104 32.70848,3.4651199999999998 32.70848,3.5472 32.70848C3.79344 32.70848,4.01232 32.81792,4.0944 33.0368C4.12176 33.146240000000006,4.12176 33.146240000000006,4.12176 39.521119999999996L4.12176 45.950720000000004L4.14912 45.86864C5.1888 44.99312,6.2832 44.55536,7.32288 44.55536C7.73328 44.55536,8.14368 44.610079999999996,8.554079999999999 44.77424C9.78528 45.18464,10.44192 46.33376,10.44192 47.70176C10.44192 48.41312,10.223040000000001 49.20656,9.81264 50C9.210719999999998 51.0944,8.44464 51.96992,6.31056 53.88512L4.20384 55.8824C3.8207999999999998 56.26544,3.73872 56.26544,3.57456 56.26544C3.32832 56.26544,3.10944 56.12864,3.02736 55.90976L3 55.80032L3 44.500640000000004L3 33.146240000000006L3.02736 33.0368C3.10944 32.92736,3.21888 32.7632,3.35568 32.735839999999996M6.58416 46.41584C6.47472 46.36112,6.31056 46.36112,6.2011199999999995 46.36112C6.11904 46.36112,6.06432 46.36112,6.0096 46.36112C5.29824 46.47056,4.66896 46.90832,4.2312 47.61968L4.12176 47.8112L4.12176 51.01232L4.12176 54.26816L4.20384 54.15872C6.2011199999999995 51.96992,7.5144 49.4528,7.5144 47.78384L7.5144 47.72912C7.5144 46.90832,7.2408 46.55264,6.58416 46.41584"/><path stroke-width="0.3" fill="black" stroke="none" stroke-dasharray="none" font-family="Arial" font-size="10pt" font-weight="normal" font-style="normal" x="85" y="29.5" width="1" height="41" d="M37.823440000000005 45 A2 2 0 0 0 33.823440000000005 45M0 0M33.823440000000005 45 A2 2 0 0 0 37.823440000000005 45M0 0"/></g></g></svg>