<?xml version="1.0" standalone="no"?><svg xmlns="http://www.w3.org/2000/svg" width="40" height="130"><path stroke-width="2" fill="none" stroke="black" stroke-dasharray="none" font-family="Arial" font-size="10pt" font-weight="normal" font-style="normal" d="M-15 30L85 30"/><path stroke-width="2" fill="none" stroke="black" stroke-dasharray="none" font-family="Arial" font-size="10pt" font-weight="normal" font-style="normal" d="M-15 40L85 40"/><path stroke-width="2" fill="none" stroke="black" stroke-dasharray="none" font-family="Arial" font-size="10pt" font-weight="normal" font-style="normal" d="M-15 50L85 50"/><path stroke-width="2" fill="none" stroke="black" stroke-dasharray="none" font-family="Arial" font-size="10pt" font-weight="normal" font-style="normal" d="M-15 60L85 60"/><path stroke-width="2" fill="none" stroke="black" stroke-dasharray="none" font-family="Arial" font-size="10pt" font-weight="normal" font-style="normal" d="M-15 70L85 70"/><rect stroke-width="0.3" fill="black" stroke="black" stroke-dasharray="none" font-family="Arial" font-size="10pt" font-weight="normal" font-style="normal" x="-15" y="29.5" width="1" height="41"/><rect stroke-width="0.3" fill="black" stroke="black" stroke-dasharray="none" font-family="Arial" font-size="10pt" font-weight="normal" font-style="normal" x="85" y="29.5" width="1" height="41"/><path stroke-width="2" fill="none" stroke="black" stroke-dasharray="none" font-family="Arial" font-size="10pt" font-weight="normal" font-style="normal" x="85" y="29.5" width="1" height="41" d="M10.44192 20L33.823440000000005 20"/><g class="vf-stavenote" id="vf-auto1917"><g class="vf-note" pointer-events="bounding-box"><g class="vf-notehead" pointer-events="bounding-box"><path stroke-width="0.3" fill="black" stroke="none" stroke-dasharray="none" font-family="Arial" font-size="10pt" font-weight="normal" font-style="normal" x="85" y="29.5" width="1" height="41" d="M13.44192 15M21.13584 9.83328C21.44472 9.77712,21.7536 9.77712,22.06248 9.77712C26.499119999999998 9.77712,30.20568 11.74272,30.7392 14.38224C30.76728 14.63496,30.82344 14.8596,30.82344 15.02808C30.82344 17.92032,27.004559999999998 20.25096,22.09056 20.25096C17.17656 20.25096,13.44192 17.86416,13.44192 15.02808C13.44192 14.69112,13.469999999999999 14.35416,13.58232 13.98912C14.25624 11.7708,17.4012 10.05792,21.13584 9.83328M21.55704 10.47912C21.41664 10.451039999999999,21.22008 10.451039999999999,21.07968 10.451039999999999C19.31064 10.451039999999999,18.2436 11.96736,18.2436 13.84872C18.2436 14.8596,18.55248 15.95472,19.19832 17.04984C20.26536 18.73464,21.80976 19.57704,23.12952 19.57704C24.25272 19.57704,25.23552 18.98736,25.6848 17.75184C25.88136 17.2464,25.965600000000002 16.74096,25.965600000000002 16.20744C25.965600000000002 13.68024,24.02808 10.87224,21.55704 10.47912"/></g></g><g class="vf-modifiers"><path stroke-width="0.3" fill="black" stroke="none" stroke-dasharray="none" font-family="Arial" font-size="10pt" font-weight="normal" font-style="normal" x="85" y="29.5" width="1" height="41" d="M3.57456 15M3.35568 -2.2641600000000004C3.4104 -2.2915199999999984,3.4651199999999998 -2.2915199999999984,3.5472 -2.2915199999999984C3.79344 -2.2915199999999984,4.01232 -2.182079999999999,4.0944 -1.9632000000000005C4.12176 -1.8537599999999976,4.12176 -1.8537599999999976,4.12176 4.52112L4.12176 10.95072L4.14912 10.86864C5.1888 9.993120000000001,6.2832 9.55536,7.32288 9.55536C7.73328 9.55536,8.14368 9.61008,8.554079999999999 9.774239999999999C9.78528 10.18464,10.44192 11.33376,10.44192 12.70176C10.44192 13.41312,10.223040000000001 14.20656,9.81264 15C9.210719999999998 16.0944,8.44464 16.96992,6.31056 18.88512L4.20384 20.8824C3.8207999999999998 21.265439999999998,3.73872 21.265439999999998,3.57456 21.265439999999998C3.32832 21.265439999999998,3.10944 21.12864,3.02736 20.90976L3 20.80032L3 9.50064L3 -1.8537599999999976L3.02736 -1.9632000000000005C3.10944 -2.07264,3.21888 -2.236799999999999,3.35568 -2.2641600000000004M6.58416 11.41584C6.47472 11.36112,6.31056 11.36112,6.2011199999999995 11.36112C6.11904 11.36112,6.06432 11.36112,6.0096 11.36112C5.29824 11.47056,4.66896 11.90832,4.2312 12.61968L4.12176 12.8112L4.12176 16.01232L4.12176 19.26816L4.20384 19.15872C6.2011199999999995 16.96992,7.5144 14.4528,7.5144 12.78384L7.5144 12.72912C7.5144 11.90832,7.2408 11.55264,6.58416 11.41584"/><path stroke-width="0.3" fill="black" stroke="none" stroke-dasharray="none" font-family="Arial" font-size="10pt" font-weight="normal" font-style="normal" x="85" y="29.5" width="1" height="41" d="M37.823440000000005 15 A2 2 0 0 0 33.823440000000005 15M0 0M33.823440000000005 15 A2 2 0 0 0 37.823440000000005 15M0 0"/></g></g></svg>