<?xml version="1.0" standalone="no"?><svg xmlns="http://www.w3.org/2000/svg" width="40" height="130"><path stroke-width="2" fill="none" stroke="black" stroke-dasharray="none" font-family="Arial" font-size="10pt" font-weight="normal" font-style="normal" d="M-15 30L85 30"/><path stroke-width="2" fill="none" stroke="black" stroke-dasharray="none" font-family="Arial" font-size="10pt" font-weight="normal" font-style="normal" d="M-15 40L85 40"/><path stroke-width="2" fill="none" stroke="black" stroke-dasharray="none" font-family="Arial" font-size="10pt" font-weight="normal" font-style="normal" d="M-15 50L85 50"/><path stroke-width="2" fill="none" stroke="black" stroke-dasharray="none" font-family="Arial" font-size="10pt" font-weight="normal" font-style="normal" d="M-15 60L85 60"/><path stroke-width="2" fill="none" stroke="black" stroke-dasharray="none" font-family="Arial" font-size="10pt" font-weight="normal" font-style="normal" d="M-15 70L85 70"/><rect stroke-width="0.3" fill="black" stroke="black" stroke-dasharray="none" font-family="Arial" font-size="10pt" font-weight="normal" font-style="normal" x="-15" y="29.5" width="1" height="41"/><rect stroke-width="0.3" fill="black" stroke="black" stroke-dasharray="none" font-family="Arial" font-size="10pt" font-weight="normal" font-style="normal" x="85" y="29.5" width="1" height="41"/><g class="vf-stavenote" id="vf-auto1116"><g class="vf-note" pointer-events="bounding-box"><g class="vf-notehead" pointer-events="bounding-box"><path stroke-width="0.3" fill="black" stroke="none" stroke-dasharray="none" font-family="Arial" font-size="10pt" font-weight="normal" font-style="normal" x="85" y="29.5" width="1" height="41" d="M2 45M4.47104 36.51984C4.61144 36.51984,4.75184 36.49176,4.89224 36.49176C6.1839200000000005 36.49176,7.3632800000000005 37.4184,7.67216 38.71008C7.72832 38.93472,7.7564 39.15936,7.7564 39.41208C7.7564 40.14216,7.50368 40.87224,6.99824 41.37768L6.914 41.46192L7.11056 41.433840000000004C8.62688 41.01264,9.974720000000001 39.6648,10.620560000000001 38.00808C10.64864 37.86768,10.73288 37.755359999999996,10.78904 37.72728C10.90136 37.5588,11.069840000000001 37.50264,11.23832 37.50264C11.5472 37.50264,11.79992 37.72728,11.79992 38.06424C11.79992 38.20464,7.72832 52.244640000000004,7.64408 52.385040000000004C7.53176 52.5816,7.3352 52.66584,7.11056 52.66584C6.8859200000000005 52.66584,6.6612800000000005 52.55352,6.57704 52.3008C6.52088 52.27272,6.52088 52.244640000000004,6.52088 52.18848C6.52088 51.96384,6.7736 51.1776,8.09336 46.65672C8.93576 43.79256,9.63776 41.433840000000004,9.63776 41.37768C9.63776 41.37768,9.63776 41.37768,9.63776 41.37768C9.63776 41.37768,9.52544 41.46192,9.41312 41.57424C8.37416 42.36048,7.1386400000000005 42.7536,5.9312000000000005 42.7536C4.86416 42.7536,3.8252 42.44472,3.0108800000000002 41.7708C2.2808 41.18112,2 40.3668,2 39.55248C2 38.14848,2.89856 36.80064,4.47104 36.51984"/></g></g><g class="vf-modifiers"/></g></svg>