<?xml version="1.0" standalone="no"?><svg xmlns="http://www.w3.org/2000/svg" width="40" height="130"><path stroke-width="2" fill="none" stroke="black" stroke-dasharray="none" font-family="Arial" font-size="10pt" font-weight="normal" font-style="normal" d="M-15 30L85 30"/><path stroke-width="2" fill="none" stroke="black" stroke-dasharray="none" font-family="Arial" font-size="10pt" font-weight="normal" font-style="normal" d="M-15 40L85 40"/><path stroke-width="2" fill="none" stroke="black" stroke-dasharray="none" font-family="Arial" font-size="10pt" font-weight="normal" font-style="normal" d="M-15 50L85 50"/><path stroke-width="2" fill="none" stroke="black" stroke-dasharray="none" font-family="Arial" font-size="10pt" font-weight="normal" font-style="normal" d="M-15 60L85 60"/><path stroke-width="2" fill="none" stroke="black" stroke-dasharray="none" font-family="Arial" font-size="10pt" font-weight="normal" font-style="normal" d="M-15 70L85 70"/><rect stroke-width="0.3" fill="black" stroke="black" stroke-dasharray="none" font-family="Arial" font-size="10pt" font-weight="normal" font-style="normal" x="-15" y="29.5" width="1" height="41"/><rect stroke-width="0.3" fill="black" stroke="black" stroke-dasharray="none" font-family="Arial" font-size="10pt" font-weight="normal" font-style="normal" x="85" y="29.5" width="1" height="41"/><g class="vf-stavenote" id="vf-auto1131"><g class="vf-note" pointer-events="bounding-box"><g class="vf-notehead" pointer-events="bounding-box"><path stroke-width="0.3" fill="black" stroke="none" stroke-dasharray="none" font-family="Arial" font-size="10pt" font-weight="normal" font-style="normal" x="85" y="29.5" width="1" height="41" d="M2 45M7.30712 36.51984C7.41944 36.51984,7.55984 36.49176,7.72832 36.49176C9.02 36.49176,10.19936 37.4184,10.50824 38.71008C10.53632 38.93472,10.59248 39.15936,10.59248 39.41208C10.59248 40.14216,10.31168 40.87224,9.83432 41.37768L9.75008 41.46192L9.89048 41.433840000000004C11.46296 41.01264,12.8108 39.6648,13.45664 38.00808C13.484720000000001 37.86768,13.56896 37.755359999999996,13.56896 37.72728C13.70936 37.5588,13.87784 37.50264,14.0744 37.50264C14.383280000000001 37.50264,14.636000000000001 37.72728,14.636000000000001 38.06424C14.636000000000001 38.20464,7.72832 61.819919999999996,7.6160000000000005 61.9884C7.53176 62.184960000000004,7.3352 62.29728,7.11056 62.29728C6.8859200000000005 62.29728,6.6612800000000005 62.1288,6.57704 61.904160000000005C6.52088 61.87608,6.52088 61.87608,6.52088 61.79184C6.52088 61.53912,6.7736 60.78096,8.09336 56.28816C8.93576 53.36784,9.63776 50.98104,9.63776 50.98104C9.63776 50.98104,9.63776 50.98104,9.63776 50.98104C9.63776 50.98104,9.52544 51.06528,9.41312 51.14952C8.37416 51.93576,7.11056 52.35696,5.9312000000000005 52.35696C4.86416 52.35696,3.8252 51.99192,3.0108800000000002 51.34608C2.33696 50.78448,2 49.94208,2 49.071600000000004C2 48.48192,2.1404 47.920320000000004,2.47736 47.35872C3.06704 46.51632,3.9656000000000002 46.06704,4.89224 46.06704C5.84696 46.06704,6.82976 46.57248,7.3632800000000005 47.55528C7.64408 47.97648,7.7564 48.48192,7.7564 48.95928C7.7564 49.68936,7.50368 50.44752,6.99824 50.95296L6.914 51.0372L7.11056 50.98104C8.62688 50.55984,9.974720000000001 49.24008,10.620560000000001 47.61144C10.64864 47.47104,12.44576 41.433840000000004,12.44576 41.37768C12.44576 41.37768,12.44576 41.37768,12.44576 41.37768C12.44576 41.37768,12.33344 41.46192,12.22112 41.57424C11.21024 42.36048,9.94664 42.7536,8.7392 42.7536C7.67216 42.7536,6.6612800000000005 42.44472,5.84696 41.7708C5.11688 41.18112,4.779920000000001 40.3668,4.779920000000001 39.55248C4.779920000000001 38.14848,5.734640000000001 36.80064,7.30712 36.51984"/></g></g><g class="vf-modifiers"><path stroke-width="0.3" fill="black" stroke="none" stroke-dasharray="none" font-family="Arial" font-size="10pt" font-weight="normal" font-style="normal" x="85" y="29.5" width="1" height="41" d="M21.636000000000003 45 A2 2 0 0 0 17.636000000000003 45M0 0M17.636000000000003 45 A2 2 0 0 0 21.636000000000003 45M0 0"/></g></g></svg>