<?xml version="1.0" standalone="no"?><svg xmlns="http://www.w3.org/2000/svg" width="40" height="130"><path stroke-width="2" fill="none" stroke="black" stroke-dasharray="none" font-family="Arial" font-size="10pt" font-weight="normal" font-style="normal" d="M-15 30L85 30"/><path stroke-width="2" fill="none" stroke="black" stroke-dasharray="none" font-family="Arial" font-size="10pt" font-weight="normal" font-style="normal" d="M-15 40L85 40"/><path stroke-width="2" fill="none" stroke="black" stroke-dasharray="none" font-family="Arial" font-size="10pt" font-weight="normal" font-style="normal" d="M-15 50L85 50"/><path stroke-width="2" fill="none" stroke="black" stroke-dasharray="none" font-family="Arial" font-size="10pt" font-weight="normal" font-style="normal" d="M-15 60L85 60"/><path stroke-width="2" fill="none" stroke="black" stroke-dasharray="none" font-family="Arial" font-size="10pt" font-weight="normal" font-style="normal" d="M-15 70L85 70"/><rect stroke-width="0.3" fill="black" stroke="black" stroke-dasharray="none" font-family="Arial" font-size="10pt" font-weight="normal" font-style="normal" x="-15" y="29.5" width="1" height="41"/><rect stroke-width="0.3" fill="black" stroke="black" stroke-dasharray="none" font-family="Arial" font-size="10pt" font-weight="normal" font-style="normal" x="85" y="29.5" width="1" height="41"/><g class="vf-stavenote" id="vf-auto1067"><g class="vf-note" pointer-events="bounding-box"><g class="vf-notehead" pointer-events="bounding-box"><path stroke-width="0.3" fill="black" stroke="none" stroke-dasharray="none" font-family="Arial" font-size="10pt" font-weight="normal" font-style="normal" x="85" y="29.5" width="1" height="41" d="M2 45M3.37592 30.8196C3.404 30.8196,3.43208 30.79152,3.4882400000000002 30.79152C3.62864 30.79152,3.7409600000000003 30.87576,3.9656000000000002 31.072319999999998C4.04984 31.18464,4.19024 31.29696,4.2744800000000005 31.3812L4.69568 31.718159999999997L5.11688 32.11128L5.42576 32.39208L5.76272 32.70096L7.11056 33.88032L9.1604 35.733599999999996C10.19936 36.63216,10.19936 36.63216,10.19936 36.828720000000004L10.19936 36.8568L10.19936 37.02528L9.94664 37.4184C8.570720000000001 39.46824,7.868720000000001 41.82696,7.868720000000001 43.98912C7.868720000000001 46.23552,8.5988 48.34152,10.08704 49.7736C10.2836 50.02632,10.39592 50.082480000000004,10.39592 50.16672C10.424 50.25096,10.424 50.27904,10.424 50.36328C10.424 50.58792,10.25552 50.78448,10.0028 50.78448C9.94664 50.78448,9.89048 50.78448,9.862400000000001 50.78448C9.5816 50.67216,9.27272 50.64408,8.93576 50.64408C8.26184 50.64408,7.53176 50.84064,6.94208 51.233760000000004C5.81888 51.99192,5.2011199999999995 53.19936,5.2011199999999995 54.547200000000004C5.2011199999999995 55.78272,5.76272 57.15864,6.82976 58.22568C7.11056 58.506479999999996,7.1948 58.67496,7.1948 58.81536C7.1948 58.92768,7.1386400000000005 59.01192,7.08248 59.09616C6.94208 59.1804,6.8859200000000005 59.26464,6.80168 59.26464C6.6612800000000005 59.26464,6.4928 59.12424,6.26816 58.98384C3.8252 57.01824,2.33696 54.88416,2 52.97472C2 52.80624,2 52.5816,2 52.3008C2 52.07616,2 51.79536,2.02808 51.68304C2.44928 49.97016,4.04984 48.9312,6.15584 48.9312C6.68936 48.9312,7.30712 48.98736,7.868720000000001 49.15584C7.95296 49.15584,8.0372 49.18392,8.0372 49.18392C8.0372 49.18392,8.0372 49.18392,8.0372 49.18392L8.0372 49.18392C8.0372 49.15584,7.868720000000001 48.98736,7.64408 48.81888L6.4085600000000005 47.72376L4.69568 46.15128C2.58968 44.32608,2.47736 44.18568,2.47736 44.04528C2.47736 43.98912,2.47736 43.98912,2.47736 43.96104C2.47736 43.96104,2.47736 43.93296,2.47736 43.93296C2.47736 43.76448,2.47736 43.76448,2.702 43.42752C4.2744800000000005 41.32152,5.0888 38.85048,5.0888 36.63216C5.0888 34.69464,4.47104 32.89752,3.29168 31.690080000000002C3.1231999999999998 31.5216,3.06704 31.32504,3.06704 31.212719999999997C3.06704 31.01616,3.17936 30.90384,3.37592 30.8196"/></g></g><g class="vf-modifiers"><path stroke-width="0.3" fill="black" stroke="none" stroke-dasharray="none" font-family="Arial" font-size="10pt" font-weight="normal" font-style="normal" x="85" y="29.5" width="1" height="41" d="M17.424 45 A2 2 0 0 0 13.424 45M0 0M13.424 45 A2 2 0 0 0 17.424 45M0 0"/></g></g></svg>