<?xml version="1.0" standalone="no"?><svg xmlns="http://www.w3.org/2000/svg" width="40" height="130"><path stroke-width="2" fill="none" stroke="black" stroke-dasharray="none" font-family="Arial" font-size="10pt" font-weight="normal" font-style="normal" d="M-15 30L85 30"/><path stroke-width="2" fill="none" stroke="black" stroke-dasharray="none" font-family="Arial" font-size="10pt" font-weight="normal" font-style="normal" d="M-15 40L85 40"/><path stroke-width="2" fill="none" stroke="black" stroke-dasharray="none" font-family="Arial" font-size="10pt" font-weight="normal" font-style="normal" d="M-15 50L85 50"/><path stroke-width="2" fill="none" stroke="black" stroke-dasharray="none" font-family="Arial" font-size="10pt" font-weight="normal" font-style="normal" d="M-15 60L85 60"/><path stroke-width="2" fill="none" stroke="black" stroke-dasharray="none" font-family="Arial" font-size="10pt" font-weight="normal" font-style="normal" d="M-15 70L85 70"/><rect stroke-width="0.3" fill="black" stroke="black" stroke-dasharray="none" font-family="Arial" font-size="10pt" font-weight="normal" font-style="normal" x="-15" y="29.5" width="1" height="41"/><rect stroke-width="0.3" fill="black" stroke="black" stroke-dasharray="none" font-family="Arial" font-size="10pt" font-weight="normal" font-style="normal" x="85" y="29.5" width="1" height="41"/><path stroke-width="2" fill="none" stroke="black" stroke-dasharray="none" font-family="Arial" font-size="10pt" font-weight="normal" font-style="normal" x="85" y="29.5" width="1" height="41" d="M-1 80L17.01824 80"/><path stroke-width="2" fill="none" stroke="black" stroke-dasharray="none" font-family="Arial" font-size="10pt" font-weight="normal" font-style="normal" x="85" y="29.5" width="1" height="41" d="M-1 90L17.01824 90"/><g class="vf-stavenote" id="vf-auto5274"><g class="vf-note" pointer-events="bounding-box"><g class="vf-stem" pointer-events="bounding-box"><path stroke-width="1.5" fill="none" stroke="black" stroke-dasharray="none" font-family="Arial" font-size="10pt" font-weight="normal" font-style="normal" x="85" y="29.5" width="1" height="41" d="M13.26824 95L13.26824 60"/></g><g class="vf-notehead" pointer-events="bounding-box"><path stroke-width="0.3" fill="black" stroke="none" stroke-dasharray="none" font-family="Arial" font-size="10pt" font-weight="normal" font-style="normal" x="85" y="29.5" width="1" height="41" d="M2 95M9.35696 89.77712C9.469280000000001 89.77712,9.63776 89.77712,9.66584 89.77712C9.66584 89.77712,9.69392 89.77712,9.69392 89.77712C9.69392 89.77712,9.862400000000001 89.77712,10.0028 89.77712C12.530000000000001 89.91752,14.01824 91.57424,14.01824 93.65216C14.01824 94.66304,13.681280000000001 95.81432,12.83888 96.90944C11.23832 99.0716,8.62688 100.25096,6.3524 100.25096C4.58336 100.25096,3.06704 99.54896,2.33696 98.11688C2.11232 97.55528,2 97.02176,2 96.43208C2 93.37136,5.42576 89.97368,9.35696 89.77712"/></g><g class="vf-flag" pointer-events="bounding-box"><path stroke-width="0.3" fill="black" stroke="none" stroke-dasharray="none" font-family="Arial" font-size="10pt" font-weight="normal" font-style="normal" x="85" y="29.5" width="1" height="41" d="M13.26824 58M12.59432 62.12776L12.59432 58.1404L12.70664 58.1404C12.931280000000001 58.1404,13.15592 58.30888,13.240160000000001 58.53352C13.436720000000001 59.20744,14.138720000000001 60.41488,14.896880000000001 61.45384C15.87968 62.85784,17.03096 64.14952,18.77192 65.80624C20.96216 67.99648,22.169600000000003 70.9168,22.169600000000003 74.0056C22.169600000000003 75.32536,21.91688 76.70128,21.523760000000003 78.02104L21.383360000000003 78.32992L21.523760000000003 78.6388C21.91688 79.9024,22.169600000000003 81.22216,22.169600000000003 82.51384C22.169600000000003 85.04104000000001,21.35528 87.59632,19.86704 89.78656000000001C19.67048 90.0112,19.55816 90.17967999999999,19.136960000000002 90.7132C18.996560000000002 90.90976,18.77192 91.05016,18.57536 91.05016C18.378800000000002 91.05016,18.18224 90.90976,18.06992 90.68512C18.04184 90.60088,17.985680000000002 90.54472,17.985680000000002 90.40432C17.985680000000002 90.26392,18.098 90.06736000000001,18.350720000000003 89.78656000000001C19.95128 87.87712,20.82176 85.378,20.82176 83.01928000000001C20.82176 82.87888000000001,20.82176 82.82272,20.82176 82.73848C20.82176 82.06456,20.70944 81.22216,20.6252 80.85712000000001C20.59712 80.77288,20.540960000000002 80.63248,20.512880000000003 80.464C20.007440000000003 78.52647999999999,18.82808 76.72936,17.2556 75.63424C16.4132 75.01648,14.588000000000001 74.53912,13.0436 74.53912C12.9032 74.53912,12.734720000000001 74.53912,12.70664 74.53912L12.59432 74.53912L12.59432 70.60792000000001L12.59432 66.64864L12.70664 66.64864C12.931280000000001 66.64864,13.15592 66.78904,13.240160000000001 67.04176C13.436720000000001 67.6876,14.138720000000001 68.89504,14.896880000000001 69.90592C15.87968 71.36608,17.08712 72.68584,18.71576 74.2864C19.47392 75.01648,20.147840000000002 75.8308,20.540960000000002 76.53280000000001C20.540960000000002 76.58896,20.59712 76.61704,20.59712 76.61704C20.6252 76.61704,20.6252 76.53280000000001,20.68136 76.42048C20.793680000000002 75.74656,20.82176 75.1288,20.82176 74.48296C20.82176 73.89328,20.793680000000002 73.27552,20.68136 72.62968000000001C20.68136 72.51736,20.6252 72.40504,20.6252 72.37696C20.59712 72.29272,20.540960000000002 72.12424,20.512880000000003 71.98384C20.007440000000003 70.01824,18.82808 68.2492,17.2556 67.15408C16.4132 66.50824,14.588000000000001 66.08704,13.0436 66.05896C12.9032 66.05896,12.734720000000001 66.05896,12.70664 66.05896L12.59432 66.05896L12.59432 62.12776"/></g></g><g class="vf-modifiers"/></g></svg>