<?xml version="1.0" standalone="no"?><svg xmlns="http://www.w3.org/2000/svg" width="40" height="130"><path stroke-width="2" fill="none" stroke="black" stroke-dasharray="none" font-family="Arial" font-size="10pt" font-weight="normal" font-style="normal" d="M-15 30L85 30"/><path stroke-width="2" fill="none" stroke="black" stroke-dasharray="none" font-family="Arial" font-size="10pt" font-weight="normal" font-style="normal" d="M-15 40L85 40"/><path stroke-width="2" fill="none" stroke="black" stroke-dasharray="none" font-family="Arial" font-size="10pt" font-weight="normal" font-style="normal" d="M-15 50L85 50"/><path stroke-width="2" fill="none" stroke="black" stroke-dasharray="none" font-family="Arial" font-size="10pt" font-weight="normal" font-style="normal" d="M-15 60L85 60"/><path stroke-width="2" fill="none" stroke="black" stroke-dasharray="none" font-family="Arial" font-size="10pt" font-weight="normal" font-style="normal" d="M-15 70L85 70"/><rect stroke-width="0.3" fill="black" stroke="black" stroke-dasharray="none" font-family="Arial" font-size="10pt" font-weight="normal" font-style="normal" x="-15" y="29.5" width="1" height="41"/><rect stroke-width="0.3" fill="black" stroke="black" stroke-dasharray="none" font-family="Arial" font-size="10pt" font-weight="normal" font-style="normal" x="85" y="29.5" width="1" height="41"/><path stroke-width="2" fill="none" stroke="black" stroke-dasharray="none" font-family="Arial" font-size="10pt" font-weight="normal" font-style="normal" x="85" y="29.5" width="1" height="41" d="M-1 80L17.01824 80"/><path stroke-width="2" fill="none" stroke="black" stroke-dasharray="none" font-family="Arial" font-size="10pt" font-weight="normal" font-style="normal" x="85" y="29.5" width="1" height="41" d="M-1 90L17.01824 90"/><g class="vf-stavenote" id="vf-auto4256"><g class="vf-note" pointer-events="bounding-box"><g class="vf-stem" pointer-events="bounding-box"><path stroke-width="1.5" fill="none" stroke="black" stroke-dasharray="none" font-family="Arial" font-size="10pt" font-weight="normal" font-style="normal" x="85" y="29.5" width="1" height="41" d="M13.26824 95L13.26824 60"/></g><g class="vf-notehead" pointer-events="bounding-box"><path stroke-width="0.3" fill="black" stroke="none" stroke-dasharray="none" font-family="Arial" font-size="10pt" font-weight="normal" font-style="normal" x="85" y="29.5" width="1" height="41" d="M2 95M9.35696 89.77712C9.469280000000001 89.77712,9.63776 89.77712,9.66584 89.77712C9.66584 89.77712,9.69392 89.77712,9.69392 89.77712C9.69392 89.77712,9.862400000000001 89.77712,10.0028 89.77712C12.530000000000001 89.91752,14.01824 91.57424,14.01824 93.65216C14.01824 94.66304,13.681280000000001 95.81432,12.83888 96.90944C11.23832 99.0716,8.62688 100.25096,6.3524 100.25096C4.58336 100.25096,3.06704 99.54896,2.33696 98.11688C2.11232 97.55528,2 97.02176,2 96.43208C2 93.37136,5.42576 89.97368,9.35696 89.77712"/></g><g class="vf-flag" pointer-events="bounding-box"><path stroke-width="0.3" fill="black" stroke="none" stroke-dasharray="none" font-family="Arial" font-size="10pt" font-weight="normal" font-style="normal" x="85" y="29.5" width="1" height="41" d="M13.26824 58M12.59432 62.52088L12.59432 58.1404L12.70664 58.1404C13.01552 58.1404,13.21208 58.33696,13.26824 58.67392C13.85792 61.48192,15.62696 64.54264,18.06992 66.8452C20.793680000000002 69.40048,22.169600000000003 72.91048,22.169600000000003 76.53280000000001C22.169600000000003 79.95856,20.96216 83.52472,18.5192 86.47312C18.098 87.03472,18.06992 87.03472,17.78912 87.03472C17.45216 87.03472,17.227520000000002 86.782,17.227520000000002 86.44504C17.227520000000002 86.19232,17.2556 86.13616,17.5364 85.82728C19.67048 83.24392,20.73752 80.12704,20.73752 77.15056C20.73752 74.51104000000001,19.89512 71.98384,18.15416 70.0744C17.08712 68.89504,15.12152 67.77184,12.6224 66.90136C12.6224 66.87328,12.59432 66.00280000000001,12.59432 62.52088"/></g></g><g class="vf-modifiers"/></g></svg>