<?xml version="1.0" standalone="no"?><svg xmlns="http://www.w3.org/2000/svg" width="40" height="130"><path stroke-width="2" fill="none" stroke="black" stroke-dasharray="none" font-family="Arial" font-size="10pt" font-weight="normal" font-style="normal" d="M-15 30L85 30"/><path stroke-width="2" fill="none" stroke="black" stroke-dasharray="none" font-family="Arial" font-size="10pt" font-weight="normal" font-style="normal" d="M-15 40L85 40"/><path stroke-width="2" fill="none" stroke="black" stroke-dasharray="none" font-family="Arial" font-size="10pt" font-weight="normal" font-style="normal" d="M-15 50L85 50"/><path stroke-width="2" fill="none" stroke="black" stroke-dasharray="none" font-family="Arial" font-size="10pt" font-weight="normal" font-style="normal" d="M-15 60L85 60"/><path stroke-width="2" fill="none" stroke="black" stroke-dasharray="none" font-family="Arial" font-size="10pt" font-weight="normal" font-style="normal" d="M-15 70L85 70"/><rect stroke-width="0.3" fill="black" stroke="black" stroke-dasharray="none" font-family="Arial" font-size="10pt" font-weight="normal" font-style="normal" x="-15" y="29.5" width="1" height="41"/><rect stroke-width="0.3" fill="black" stroke="black" stroke-dasharray="none" font-family="Arial" font-size="10pt" font-weight="normal" font-style="normal" x="85" y="29.5" width="1" height="41"/><path stroke-width="2" fill="none" stroke="black" stroke-dasharray="none" font-family="Arial" font-size="10pt" font-weight="normal" font-style="normal" x="85" y="29.5" width="1" height="41" d="M-1 80L22.381520000000002 80"/><path stroke-width="2" fill="none" stroke="black" stroke-dasharray="none" font-family="Arial" font-size="10pt" font-weight="normal" font-style="normal" x="85" y="29.5" width="1" height="41" d="M-1 90L22.381520000000002 90"/><g class="vf-stavenote" id="vf-auto1606"><g class="vf-note" pointer-events="bounding-box"><g class="vf-notehead" pointer-events="bounding-box"><path stroke-width="0.3" fill="black" stroke="none" stroke-dasharray="none" font-family="Arial" font-size="10pt" font-weight="normal" font-style="normal" x="85" y="29.5" width="1" height="41" d="M2 95M9.69392 89.83328C10.0028 89.77712,10.31168 89.77712,10.620560000000001 89.77712C15.0572 89.77712,18.76376 91.74272,19.29728 94.38224C19.32536 94.63496,19.381520000000002 94.8596,19.381520000000002 95.02808C19.381520000000002 97.92032,15.56264 100.25096,10.64864 100.25096C5.734640000000001 100.25096,2 97.86416,2 95.02808C2 94.69112,2.02808 94.35416,2.1404 93.98912C2.81432 91.7708,5.95928 90.05792,9.69392 89.83328M10.115120000000001 90.47912C9.974720000000001 90.45104,9.77816 90.45104,9.63776 90.45104C7.868720000000001 90.45104,6.80168 91.96736,6.80168 93.84872C6.80168 94.8596,7.11056 95.95472,7.7564 97.04984C8.823440000000002 98.73464,10.367840000000001 99.57704,11.6876 99.57704C12.8108 99.57704,13.7936 98.98736,14.24288 97.75184C14.439440000000001 97.2464,14.52368 96.74096,14.52368 96.20744C14.52368 93.68024,12.58616 90.87224,10.115120000000001 90.47912"/></g></g><g class="vf-modifiers"><path stroke-width="0.3" fill="black" stroke="none" stroke-dasharray="none" font-family="Arial" font-size="10pt" font-weight="normal" font-style="normal" x="85" y="29.5" width="1" height="41" d="M26.381520000000002 95 A2 2 0 0 0 22.381520000000002 95M0 0M22.381520000000002 95 A2 2 0 0 0 26.381520000000002 95M0 0"/></g></g></svg>