<?xml version="1.0" standalone="no"?><svg xmlns="http://www.w3.org/2000/svg" width="40" height="130"><path stroke-width="2" fill="none" stroke="black" stroke-dasharray="none" font-family="Arial" font-size="10pt" font-weight="normal" font-style="normal" d="M-15 30L85 30"/><path stroke-width="2" fill="none" stroke="black" stroke-dasharray="none" font-family="Arial" font-size="10pt" font-weight="normal" font-style="normal" d="M-15 40L85 40"/><path stroke-width="2" fill="none" stroke="black" stroke-dasharray="none" font-family="Arial" font-size="10pt" font-weight="normal" font-style="normal" d="M-15 50L85 50"/><path stroke-width="2" fill="none" stroke="black" stroke-dasharray="none" font-family="Arial" font-size="10pt" font-weight="normal" font-style="normal" d="M-15 60L85 60"/><path stroke-width="2" fill="none" stroke="black" stroke-dasharray="none" font-family="Arial" font-size="10pt" font-weight="normal" font-style="normal" d="M-15 70L85 70"/><rect stroke-width="0.3" fill="black" stroke="black" stroke-dasharray="none" font-family="Arial" font-size="10pt" font-weight="normal" font-style="normal" x="-15" y="29.5" width="1" height="41"/><rect stroke-width="0.3" fill="black" stroke="black" stroke-dasharray="none" font-family="Arial" font-size="10pt" font-weight="normal" font-style="normal" x="85" y="29.5" width="1" height="41"/><g class="vf-stavenote" id="vf-auto5792"><g class="vf-note" pointer-events="bounding-box"><g class="vf-stem" pointer-events="bounding-box"><path stroke-width="1.5" fill="none" stroke="black" stroke-dasharray="none" font-family="Arial" font-size="10pt" font-weight="normal" font-style="normal" x="85" y="29.5" width="1" height="41" d="M13.26824 60L13.26824 25"/></g><g class="vf-notehead" pointer-events="bounding-box"><path stroke-width="0.3" fill="black" stroke="none" stroke-dasharray="none" font-family="Arial" font-size="10pt" font-weight="normal" font-style="normal" x="85" y="29.5" width="1" height="41" d="M2 60M9.35696 54.77712C9.469280000000001 54.77712,9.63776 54.77712,9.66584 54.77712C9.66584 54.77712,9.69392 54.77712,9.69392 54.77712C9.69392 54.77712,9.862400000000001 54.77712,10.0028 54.77712C12.530000000000001 54.917519999999996,14.01824 56.57424,14.01824 58.65216C14.01824 59.66304,13.681280000000001 60.81432,12.83888 61.909440000000004C11.23832 64.0716,8.62688 65.25096,6.3524 65.25096C4.58336 65.25096,3.06704 64.54896,2.33696 63.11688C2.11232 62.55528,2 62.02176,2 61.43208C2 58.37136,5.42576 54.97368,9.35696 54.77712"/></g><g class="vf-flag" pointer-events="bounding-box"><path stroke-width="0.3" fill="black" stroke="none" stroke-dasharray="none" font-family="Arial" font-size="10pt" font-weight="normal" font-style="normal" x="85" y="29.5" width="1" height="41" d="M13.26824 23M12.59432 27.127760000000002L12.59432 23.1404L12.70664 23.1404C12.931280000000001 23.1404,13.15592 23.30888,13.240160000000001 23.53352C13.436720000000001 24.20744,14.138720000000001 25.41488,14.896880000000001 26.45384C15.87968 27.85784,17.03096 29.14952,18.77192 30.80624C20.96216 32.99648,22.169600000000003 35.9168,22.169600000000003 39.0056C22.169600000000003 40.32536,21.91688 41.70128,21.523760000000003 43.02104L21.383360000000003 43.32992L21.523760000000003 43.6388C21.91688 44.9024,22.169600000000003 46.22216,22.169600000000003 47.51384C22.169600000000003 50.04104,21.35528 52.596320000000006,19.86704 54.78656C19.67048 55.0112,19.55816 55.17968,19.136960000000002 55.7132C18.996560000000002 55.90976,18.77192 56.05016,18.57536 56.05016C18.378800000000002 56.05016,18.18224 55.90976,18.06992 55.68512C18.04184 55.600880000000004,17.985680000000002 55.54472,17.985680000000002 55.40432C17.985680000000002 55.26392,18.098 55.06736,18.350720000000003 54.78656C19.95128 52.877120000000005,20.82176 50.378,20.82176 48.01928C20.82176 47.87888,20.82176 47.822720000000004,20.82176 47.738479999999996C20.82176 47.06456,20.70944 46.22216,20.6252 45.85712C20.59712 45.77288,20.540960000000002 45.63248,20.512880000000003 45.464C20.007440000000003 43.52648,18.82808 41.72936,17.2556 40.634240000000005C16.4132 40.01648,14.588000000000001 39.53912,13.0436 39.53912C12.9032 39.53912,12.734720000000001 39.53912,12.70664 39.53912L12.59432 39.53912L12.59432 35.60792L12.59432 31.64864L12.70664 31.64864C12.931280000000001 31.64864,13.15592 31.78904,13.240160000000001 32.04176C13.436720000000001 32.6876,14.138720000000001 33.89504,14.896880000000001 34.90592C15.87968 36.36608,17.08712 37.68584,18.71576 39.2864C19.47392 40.01648,20.147840000000002 40.830799999999996,20.540960000000002 41.5328C20.540960000000002 41.58896,20.59712 41.61704,20.59712 41.61704C20.6252 41.61704,20.6252 41.5328,20.68136 41.42048C20.793680000000002 40.74656,20.82176 40.1288,20.82176 39.482960000000006C20.82176 38.893280000000004,20.793680000000002 38.27552,20.68136 37.62968C20.68136 37.51736,20.6252 37.40504,20.6252 37.37696C20.59712 37.29272,20.540960000000002 37.12424,20.512880000000003 36.98384C20.007440000000003 35.01824,18.82808 33.2492,17.2556 32.15408C16.4132 31.50824,14.588000000000001 31.087040000000002,13.0436 31.05896C12.9032 31.05896,12.734720000000001 31.05896,12.70664 31.05896L12.59432 31.05896L12.59432 27.127760000000002"/></g></g><g class="vf-modifiers"><path stroke-width="0.3" fill="black" stroke="none" stroke-dasharray="none" font-family="Arial" font-size="10pt" font-weight="normal" font-style="normal" x="85" y="29.5" width="1" height="41" d="M30.59352 55 A2 2 0 0 0 26.59352 55M0 0M26.59352 55 A2 2 0 0 0 30.59352 55M0 0"/></g></g></svg>