<?xml version="1.0" standalone="no"?><svg xmlns="http://www.w3.org/2000/svg" width="40" height="130"><path stroke-width="2" fill="none" stroke="black" stroke-dasharray="none" font-family="Arial" font-size="10pt" font-weight="normal" font-style="normal" d="M-15 30L85 30"/><path stroke-width="2" fill="none" stroke="black" stroke-dasharray="none" font-family="Arial" font-size="10pt" font-weight="normal" font-style="normal" d="M-15 40L85 40"/><path stroke-width="2" fill="none" stroke="black" stroke-dasharray="none" font-family="Arial" font-size="10pt" font-weight="normal" font-style="normal" d="M-15 50L85 50"/><path stroke-width="2" fill="none" stroke="black" stroke-dasharray="none" font-family="Arial" font-size="10pt" font-weight="normal" font-style="normal" d="M-15 60L85 60"/><path stroke-width="2" fill="none" stroke="black" stroke-dasharray="none" font-family="Arial" font-size="10pt" font-weight="normal" font-style="normal" d="M-15 70L85 70"/><rect stroke-width="0.3" fill="black" stroke="black" stroke-dasharray="none" font-family="Arial" font-size="10pt" font-weight="normal" font-style="normal" x="-15" y="29.5" width="1" height="41"/><rect stroke-width="0.3" fill="black" stroke="black" stroke-dasharray="none" font-family="Arial" font-size="10pt" font-weight="normal" font-style="normal" x="85" y="29.5" width="1" height="41"/><g class="vf-stavenote" id="vf-auto4274"><g class="vf-note" pointer-events="bounding-box"><g class="vf-stem" pointer-events="bounding-box"><path stroke-width="1.5" fill="none" stroke="black" stroke-dasharray="none" font-family="Arial" font-size="10pt" font-weight="normal" font-style="normal" x="85" y="29.5" width="1" height="41" d="M13.26824 60L13.26824 25"/></g><g class="vf-notehead" pointer-events="bounding-box"><path stroke-width="0.3" fill="black" stroke="none" stroke-dasharray="none" font-family="Arial" font-size="10pt" font-weight="normal" font-style="normal" x="85" y="29.5" width="1" height="41" d="M2 60M9.35696 54.77712C9.469280000000001 54.77712,9.63776 54.77712,9.66584 54.77712C9.66584 54.77712,9.69392 54.77712,9.69392 54.77712C9.69392 54.77712,9.862400000000001 54.77712,10.0028 54.77712C12.530000000000001 54.917519999999996,14.01824 56.57424,14.01824 58.65216C14.01824 59.66304,13.681280000000001 60.81432,12.83888 61.909440000000004C11.23832 64.0716,8.62688 65.25096,6.3524 65.25096C4.58336 65.25096,3.06704 64.54896,2.33696 63.11688C2.11232 62.55528,2 62.02176,2 61.43208C2 58.37136,5.42576 54.97368,9.35696 54.77712"/></g><g class="vf-flag" pointer-events="bounding-box"><path stroke-width="0.3" fill="black" stroke="none" stroke-dasharray="none" font-family="Arial" font-size="10pt" font-weight="normal" font-style="normal" x="85" y="29.5" width="1" height="41" d="M13.26824 23M12.59432 27.52088L12.59432 23.1404L12.70664 23.1404C13.01552 23.1404,13.21208 23.33696,13.26824 23.67392C13.85792 26.48192,15.62696 29.54264,18.06992 31.8452C20.793680000000002 34.40048,22.169600000000003 37.91048,22.169600000000003 41.5328C22.169600000000003 44.958560000000006,20.96216 48.52472,18.5192 51.47312C18.098 52.03472,18.06992 52.03472,17.78912 52.03472C17.45216 52.03472,17.227520000000002 51.782,17.227520000000002 51.445040000000006C17.227520000000002 51.19232,17.2556 51.136160000000004,17.5364 50.82728C19.67048 48.24392,20.73752 45.12704,20.73752 42.15056C20.73752 39.51104,19.89512 36.98384,18.15416 35.0744C17.08712 33.89504,15.12152 32.77184,12.6224 31.90136C12.6224 31.87328,12.59432 31.0028,12.59432 27.52088"/></g></g><g class="vf-modifiers"/></g></svg>