<?xml version="1.0" standalone="no"?><svg xmlns="http://www.w3.org/2000/svg" width="40" height="130"><path stroke-width="2" fill="none" stroke="black" stroke-dasharray="none" font-family="Arial" font-size="10pt" font-weight="normal" font-style="normal" d="M-15 30L85 30"/><path stroke-width="2" fill="none" stroke="black" stroke-dasharray="none" font-family="Arial" font-size="10pt" font-weight="normal" font-style="normal" d="M-15 40L85 40"/><path stroke-width="2" fill="none" stroke="black" stroke-dasharray="none" font-family="Arial" font-size="10pt" font-weight="normal" font-style="normal" d="M-15 50L85 50"/><path stroke-width="2" fill="none" stroke="black" stroke-dasharray="none" font-family="Arial" font-size="10pt" font-weight="normal" font-style="normal" d="M-15 60L85 60"/><path stroke-width="2" fill="none" stroke="black" stroke-dasharray="none" font-family="Arial" font-size="10pt" font-weight="normal" font-style="normal" d="M-15 70L85 70"/><rect stroke-width="0.3" fill="black" stroke="black" stroke-dasharray="none" font-family="Arial" font-size="10pt" font-weight="normal" font-style="normal" x="-15" y="29.5" width="1" height="41"/><rect stroke-width="0.3" fill="black" stroke="black" stroke-dasharray="none" font-family="Arial" font-size="10pt" font-weight="normal" font-style="normal" x="85" y="29.5" width="1" height="41"/><g class="vf-stavenote" id="vf-auto1570"><g class="vf-note" pointer-events="bounding-box"><g class="vf-notehead" pointer-events="bounding-box"><path stroke-width="0.3" fill="black" stroke="none" stroke-dasharray="none" font-family="Arial" font-size="10pt" font-weight="normal" font-style="normal" x="85" y="29.5" width="1" height="41" d="M2 25M9.69392 19.833280000000002C10.0028 19.77712,10.31168 19.77712,10.620560000000001 19.77712C15.0572 19.77712,18.76376 21.74272,19.29728 24.38224C19.32536 24.63496,19.381520000000002 24.8596,19.381520000000002 25.02808C19.381520000000002 27.92032,15.56264 30.25096,10.64864 30.25096C5.734640000000001 30.25096,2 27.86416,2 25.02808C2 24.69112,2.02808 24.35416,2.1404 23.98912C2.81432 21.7708,5.95928 20.05792,9.69392 19.833280000000002M10.115120000000001 20.47912C9.974720000000001 20.45104,9.77816 20.45104,9.63776 20.45104C7.868720000000001 20.45104,6.80168 21.96736,6.80168 23.84872C6.80168 24.8596,7.11056 25.954720000000002,7.7564 27.04984C8.823440000000002 28.73464,10.367840000000001 29.57704,11.6876 29.57704C12.8108 29.57704,13.7936 28.98736,14.24288 27.75184C14.439440000000001 27.2464,14.52368 26.74096,14.52368 26.20744C14.52368 23.68024,12.58616 20.872239999999998,10.115120000000001 20.47912"/></g></g><g class="vf-modifiers"/></g></svg>