<?xml version="1.0" standalone="no"?><svg xmlns="http://www.w3.org/2000/svg" width="40" height="130"><path stroke-width="2" fill="none" stroke="black" stroke-dasharray="none" font-family="Arial" font-size="10pt" font-weight="normal" font-style="normal" d="M-15 30L85 30"/><path stroke-width="2" fill="none" stroke="black" stroke-dasharray="none" font-family="Arial" font-size="10pt" font-weight="normal" font-style="normal" d="M-15 40L85 40"/><path stroke-width="2" fill="none" stroke="black" stroke-dasharray="none" font-family="Arial" font-size="10pt" font-weight="normal" font-style="normal" d="M-15 50L85 50"/><path stroke-width="2" fill="none" stroke="black" stroke-dasharray="none" font-family="Arial" font-size="10pt" font-weight="normal" font-style="normal" d="M-15 60L85 60"/><path stroke-width="2" fill="none" stroke="black" stroke-dasharray="none" font-family="Arial" font-size="10pt" font-weight="normal" font-style="normal" d="M-15 70L85 70"/><rect stroke-width="0.3" fill="black" stroke="black" stroke-dasharray="none" font-family="Arial" font-size="10pt" font-weight="normal" font-style="normal" x="-15" y="29.5" width="1" height="41"/><rect stroke-width="0.3" fill="black" stroke="black" stroke-dasharray="none" font-family="Arial" font-size="10pt" font-weight="normal" font-style="normal" x="85" y="29.5" width="1" height="41"/><g class="vf-stavenote" id="vf-auto5812"><g class="vf-note" pointer-events="bounding-box"><g class="vf-stem" pointer-events="bounding-box"><path stroke-width="1.5" fill="none" stroke="black" stroke-dasharray="none" font-family="Arial" font-size="10pt" font-weight="normal" font-style="normal" x="85" y="29.5" width="1" height="41" d="M2.75 25L2.75 60"/></g><g class="vf-notehead" pointer-events="bounding-box"><path stroke-width="0.3" fill="black" stroke="none" stroke-dasharray="none" font-family="Arial" font-size="10pt" font-weight="normal" font-style="normal" x="85" y="29.5" width="1" height="41" d="M2 25M9.35696 19.77712C9.469280000000001 19.77712,9.63776 19.77712,9.66584 19.77712C9.66584 19.77712,9.69392 19.77712,9.69392 19.77712C9.69392 19.77712,9.862400000000001 19.77712,10.0028 19.77712C12.530000000000001 19.91752,14.01824 21.57424,14.01824 23.65216C14.01824 24.66304,13.681280000000001 25.81432,12.83888 26.90944C11.23832 29.0716,8.62688 30.25096,6.3524 30.25096C4.58336 30.25096,3.06704 29.54896,2.33696 28.116880000000002C2.11232 27.55528,2 27.02176,2 26.43208C2 23.37136,5.42576 19.97368,9.35696 19.77712"/></g><g class="vf-flag" pointer-events="bounding-box"><path stroke-width="0.3" fill="black" stroke="none" stroke-dasharray="none" font-family="Arial" font-size="10pt" font-weight="normal" font-style="normal" x="85" y="29.5" width="1" height="41" d="M2.75 62M11.23016 33.04952C11.28632 33.02144,11.370560000000001 33.02144,11.39864 33.02144C11.67944 33.02144,11.876 33.16184,12.0164 33.47072C12.60608 34.7624,12.91496 36.166399999999996,12.91496 37.65464C12.91496 38.86208,12.66224 40.0976,12.2972 41.27696L12.18488 41.585840000000005L12.2972 41.866640000000004C12.7184 42.98984,12.91496 44.19728,12.91496 45.40472C12.91496 48.07232,11.876 50.73992,9.966560000000001 52.93016C9.573440000000002 53.40752,9.12416 53.8568,8.47832 54.36224C6.37232 56.21552,4.60328 58.26536,3.3116 60.42752C3.08696 60.76448,2.75 61.38224,2.72192 61.49456C2.63768 61.74728,2.41304 61.88768,2.21648 61.88768L2.16032 61.88768L2.16032 58.0688L2.16032 54.24992L2.41304 54.22184C4.46288 53.91296,6.31616 53.32328,7.43936 52.64936C10.10696 51.10496,11.70752 48.21272,11.70752 45.20816C11.70752 44.5904,11.65136 43.97264,11.48288 43.354879999999994L11.4548 43.10216L11.28632 43.354879999999994C10.58432 44.5904,9.77 45.517039999999994,8.47832 46.61216C6.37232 48.43736,4.60328 50.51528,3.3116 52.64936C3.08696 53.0144,2.75 53.63216,2.72192 53.80064C2.63768 53.9972,2.41304 54.1376,2.21648 54.1376L2.16032 54.1376L2.16032 50.31872L2.16032 46.49984L2.41304 46.47176C4.46288 46.16288,6.31616 45.5732,7.43936 44.899280000000005C10.16312 43.29872,11.70752 40.3784,11.70752 37.458079999999995C11.70752 36.33488,11.48288 35.21168,11.00552 34.144639999999995C10.83704 33.80768,10.83704 33.72344,10.83704 33.61112C10.83704 33.33032,11.00552 33.133759999999995,11.23016 33.04952"/></g></g><g class="vf-modifiers"><path stroke-width="0.3" fill="black" stroke="none" stroke-dasharray="none" font-family="Arial" font-size="10pt" font-weight="normal" font-style="normal" x="85" y="29.5" width="1" height="41" d="M21.01824 25 A2 2 0 0 0 17.01824 25M0 0M17.01824 25 A2 2 0 0 0 21.01824 25M0 0"/></g></g></svg>