<?xml version="1.0" standalone="no"?><svg xmlns="http://www.w3.org/2000/svg" width="40" height="130"><path stroke-width="2" fill="none" stroke="black" stroke-dasharray="none" font-family="Arial" font-size="10pt" font-weight="normal" font-style="normal" d="M-15 30L85 30"/><path stroke-width="2" fill="none" stroke="black" stroke-dasharray="none" font-family="Arial" font-size="10pt" font-weight="normal" font-style="normal" d="M-15 40L85 40"/><path stroke-width="2" fill="none" stroke="black" stroke-dasharray="none" font-family="Arial" font-size="10pt" font-weight="normal" font-style="normal" d="M-15 50L85 50"/><path stroke-width="2" fill="none" stroke="black" stroke-dasharray="none" font-family="Arial" font-size="10pt" font-weight="normal" font-style="normal" d="M-15 60L85 60"/><path stroke-width="2" fill="none" stroke="black" stroke-dasharray="none" font-family="Arial" font-size="10pt" font-weight="normal" font-style="normal" d="M-15 70L85 70"/><rect stroke-width="0.3" fill="black" stroke="black" stroke-dasharray="none" font-family="Arial" font-size="10pt" font-weight="normal" font-style="normal" x="-15" y="29.5" width="1" height="41"/><rect stroke-width="0.3" fill="black" stroke="black" stroke-dasharray="none" font-family="Arial" font-size="10pt" font-weight="normal" font-style="normal" x="85" y="29.5" width="1" height="41"/><g class="vf-stavenote" id="vf-auto1555"><g class="vf-note" pointer-events="bounding-box"><g class="vf-notehead" pointer-events="bounding-box"><path stroke-width="0.3" fill="black" stroke="none" stroke-dasharray="none" font-family="Arial" font-size="10pt" font-weight="normal" font-style="normal" x="85" y="29.5" width="1" height="41" d="M2 60M9.69392 54.83328C10.0028 54.77712,10.31168 54.77712,10.620560000000001 54.77712C15.0572 54.77712,18.76376 56.74272,19.29728 59.38224C19.32536 59.63496,19.381520000000002 59.8596,19.381520000000002 60.02808C19.381520000000002 62.920320000000004,15.56264 65.25096,10.64864 65.25096C5.734640000000001 65.25096,2 62.86416,2 60.02808C2 59.69112,2.02808 59.35416,2.1404 58.98912C2.81432 56.7708,5.95928 55.05792,9.69392 54.83328M10.115120000000001 55.47912C9.974720000000001 55.45104,9.77816 55.45104,9.63776 55.45104C7.868720000000001 55.45104,6.80168 56.96736,6.80168 58.84872C6.80168 59.8596,7.11056 60.95472,7.7564 62.04984C8.823440000000002 63.73464,10.367840000000001 64.57704,11.6876 64.57704C12.8108 64.57704,13.7936 63.98736,14.24288 62.75184C14.439440000000001 62.2464,14.52368 61.74096,14.52368 61.20744C14.52368 58.68024,12.58616 55.87224,10.115120000000001 55.47912"/></g></g><g class="vf-modifiers"/></g></svg>