<?xml version="1.0" standalone="no"?><svg xmlns="http://www.w3.org/2000/svg" width="40" height="130"><path stroke-width="2" fill="none" stroke="black" stroke-dasharray="none" font-family="Arial" font-size="10pt" font-weight="normal" font-style="normal" d="M-15 30L85 30"/><path stroke-width="2" fill="none" stroke="black" stroke-dasharray="none" font-family="Arial" font-size="10pt" font-weight="normal" font-style="normal" d="M-15 40L85 40"/><path stroke-width="2" fill="none" stroke="black" stroke-dasharray="none" font-family="Arial" font-size="10pt" font-weight="normal" font-style="normal" d="M-15 50L85 50"/><path stroke-width="2" fill="none" stroke="black" stroke-dasharray="none" font-family="Arial" font-size="10pt" font-weight="normal" font-style="normal" d="M-15 60L85 60"/><path stroke-width="2" fill="none" stroke="black" stroke-dasharray="none" font-family="Arial" font-size="10pt" font-weight="normal" font-style="normal" d="M-15 70L85 70"/><rect stroke-width="0.3" fill="black" stroke="black" stroke-dasharray="none" font-family="Arial" font-size="10pt" font-weight="normal" font-style="normal" x="-15" y="29.5" width="1" height="41"/><rect stroke-width="0.3" fill="black" stroke="black" stroke-dasharray="none" font-family="Arial" font-size="10pt" font-weight="normal" font-style="normal" x="85" y="29.5" width="1" height="41"/><g class="vf-stavenote" id="vf-auto4292"><g class="vf-note" pointer-events="bounding-box"><g class="vf-stem" pointer-events="bounding-box"><path stroke-width="1.5" fill="none" stroke="black" stroke-dasharray="none" font-family="Arial" font-size="10pt" font-weight="normal" font-style="normal" x="85" y="29.5" width="1" height="41" d="M2.75 25L2.75 60"/></g><g class="vf-notehead" pointer-events="bounding-box"><path stroke-width="0.3" fill="black" stroke="none" stroke-dasharray="none" font-family="Arial" font-size="10pt" font-weight="normal" font-style="normal" x="85" y="29.5" width="1" height="41" d="M2 25M9.35696 19.77712C9.469280000000001 19.77712,9.63776 19.77712,9.66584 19.77712C9.66584 19.77712,9.69392 19.77712,9.69392 19.77712C9.69392 19.77712,9.862400000000001 19.77712,10.0028 19.77712C12.530000000000001 19.91752,14.01824 21.57424,14.01824 23.65216C14.01824 24.66304,13.681280000000001 25.81432,12.83888 26.90944C11.23832 29.0716,8.62688 30.25096,6.3524 30.25096C4.58336 30.25096,3.06704 29.54896,2.33696 28.116880000000002C2.11232 27.55528,2 27.02176,2 26.43208C2 23.37136,5.42576 19.97368,9.35696 19.77712"/></g><g class="vf-flag" pointer-events="bounding-box"><path stroke-width="0.3" fill="black" stroke="none" stroke-dasharray="none" font-family="Arial" font-size="10pt" font-weight="normal" font-style="normal" x="85" y="29.5" width="1" height="41" d="M2.75 62M9.208400000000001 33.04952C9.26456 33.02144,9.3488 33.02144,9.43304 33.02144C9.6296 33.02144,9.79808 33.16184,10.02272 33.52688C12.0164 36.55952,13.05536 40.041439999999994,13.05536 43.41104C13.05536 44.00072,13.05536 44.56232,12.97112 45.095839999999995C12.63416 48.29696,11.28632 51.21728,9.26456 53.09864C7.1024 55.120400000000004,5.64224 56.74904,4.35056 58.6304C3.62048 59.64128,2.91848 60.8768,2.72192 61.49456C2.63768 61.69112,2.41304 61.88768,2.21648 61.88768L2.16032 61.88768L2.16032 57.53528L2.16032 53.1548L2.30072 53.1548C3.0308 53.1548,4.49096 52.90208,5.44568 52.593199999999996C9.12416 51.3296,11.5952 47.20184,11.5952 42.4844C11.5952 42.09128,11.567120000000001 41.67008,11.53904 41.27696C11.28632 38.834,10.41584 36.27872,9.03992 34.17272C8.899519999999999 33.948080000000004,8.815280000000001 33.72344,8.815280000000001 33.554959999999994C8.815280000000001 33.33032,8.9276 33.133759999999995,9.208400000000001 33.04952"/></g></g><g class="vf-modifiers"/></g></svg>