<?xml version="1.0" standalone="no"?><svg xmlns="http://www.w3.org/2000/svg" width="40" height="130"><path stroke-width="2" fill="none" stroke="black" stroke-dasharray="none" font-family="Arial" font-size="10pt" font-weight="normal" font-style="normal" d="M-15 30L85 30"/><path stroke-width="2" fill="none" stroke="black" stroke-dasharray="none" font-family="Arial" font-size="10pt" font-weight="normal" font-style="normal" d="M-15 40L85 40"/><path stroke-width="2" fill="none" stroke="black" stroke-dasharray="none" font-family="Arial" font-size="10pt" font-weight="normal" font-style="normal" d="M-15 50L85 50"/><path stroke-width="2" fill="none" stroke="black" stroke-dasharray="none" font-family="Arial" font-size="10pt" font-weight="normal" font-style="normal" d="M-15 60L85 60"/><path stroke-width="2" fill="none" stroke="black" stroke-dasharray="none" font-family="Arial" font-size="10pt" font-weight="normal" font-style="normal" d="M-15 70L85 70"/><rect stroke-width="0.3" fill="black" stroke="black" stroke-dasharray="none" font-family="Arial" font-size="10pt" font-weight="normal" font-style="normal" x="-15" y="29.5" width="1" height="41"/><rect stroke-width="0.3" fill="black" stroke="black" stroke-dasharray="none" font-family="Arial" font-size="10pt" font-weight="normal" font-style="normal" x="85" y="29.5" width="1" height="41"/><g class="vf-stavenote" id="vf-auto2431"><g class="vf-note" pointer-events="bounding-box"><g class="vf-stem" pointer-events="bounding-box"><path stroke-width="1.5" fill="none" stroke="black" stroke-dasharray="none" font-family="Arial" font-size="10pt" font-weight="normal" font-style="normal" x="85" y="29.5" width="1" height="41" d="M13.26824 60L13.26824 25"/></g><g class="vf-notehead" pointer-events="bounding-box"><path stroke-width="0.3" fill="black" stroke="none" stroke-dasharray="none" font-family="Arial" font-size="10pt" font-weight="normal" font-style="normal" x="85" y="29.5" width="1" height="41" d="M2 60M9.35696 54.77712C9.469280000000001 54.77712,9.63776 54.77712,9.66584 54.77712C9.66584 54.77712,9.69392 54.77712,9.69392 54.77712C9.69392 54.77712,9.862400000000001 54.77712,10.0028 54.77712C12.530000000000001 54.917519999999996,14.01824 56.57424,14.01824 58.65216C14.01824 59.66304,13.681280000000001 60.81432,12.83888 61.909440000000004C11.23832 64.0716,8.62688 65.25096,6.3524 65.25096C4.58336 65.25096,3.06704 64.54896,2.33696 63.11688C2.11232 62.55528,2 62.02176,2 61.43208C2 58.37136,5.42576 54.97368,9.35696 54.77712M12.277280000000001 56.32152C12.16496 56.26536,12.024560000000001 56.23728,11.88416 56.23728C11.01368 56.23728,9.553519999999999 56.7708,8.149519999999999 57.72552C5.53808 59.35416,3.404 61.74096,3.31976 63.11688C3.31976 63.11688,3.31976 63.14496,3.31976 63.14496C3.31976 63.62232,3.62864 63.81888,4.16216 63.81888C5.31344 63.81888,7.44752 62.83608,9.41312 61.2636C11.43488 59.66304,12.726560000000001 57.86592,12.726560000000001 56.93928C12.726560000000001 56.6304,12.58616 56.37768,12.277280000000001 56.32152"/></g></g><g class="vf-modifiers"/></g></svg>