<?xml version="1.0" standalone="no"?><svg xmlns="http://www.w3.org/2000/svg" width="40" height="130"><path stroke-width="2" fill="none" stroke="black" stroke-dasharray="none" font-family="Arial" font-size="10pt" font-weight="normal" font-style="normal" d="M-15 30L85 30"/><path stroke-width="2" fill="none" stroke="black" stroke-dasharray="none" font-family="Arial" font-size="10pt" font-weight="normal" font-style="normal" d="M-15 40L85 40"/><path stroke-width="2" fill="none" stroke="black" stroke-dasharray="none" font-family="Arial" font-size="10pt" font-weight="normal" font-style="normal" d="M-15 50L85 50"/><path stroke-width="2" fill="none" stroke="black" stroke-dasharray="none" font-family="Arial" font-size="10pt" font-weight="normal" font-style="normal" d="M-15 60L85 60"/><path stroke-width="2" fill="none" stroke="black" stroke-dasharray="none" font-family="Arial" font-size="10pt" font-weight="normal" font-style="normal" d="M-15 70L85 70"/><rect stroke-width="0.3" fill="black" stroke="black" stroke-dasharray="none" font-family="Arial" font-size="10pt" font-weight="normal" font-style="normal" x="-15" y="29.5" width="1" height="41"/><rect stroke-width="0.3" fill="black" stroke="black" stroke-dasharray="none" font-family="Arial" font-size="10pt" font-weight="normal" font-style="normal" x="85" y="29.5" width="1" height="41"/><path stroke-width="2" fill="none" stroke="black" stroke-dasharray="none" font-family="Arial" font-size="10pt" font-weight="normal" font-style="normal" x="85" y="29.5" width="1" height="41" d="M10.44192 80L33.823440000000005 80"/><path stroke-width="2" fill="none" stroke="black" stroke-dasharray="none" font-family="Arial" font-size="10pt" font-weight="normal" font-style="normal" x="85" y="29.5" width="1" height="41" d="M10.44192 90L33.823440000000005 90"/><g class="vf-stavenote" id="vf-auto1489"><g class="vf-note" pointer-events="bounding-box"><g class="vf-notehead" pointer-events="bounding-box"><path stroke-width="0.3" fill="black" stroke="none" stroke-dasharray="none" font-family="Arial" font-size="10pt" font-weight="normal" font-style="normal" x="85" y="29.5" width="1" height="41" d="M13.44192 95M21.13584 89.83328C21.44472 89.77712,21.7536 89.77712,22.06248 89.77712C26.499119999999998 89.77712,30.20568 91.74272,30.7392 94.38224C30.76728 94.63496,30.82344 94.8596,30.82344 95.02808C30.82344 97.92032,27.004559999999998 100.25096,22.09056 100.25096C17.17656 100.25096,13.44192 97.86416,13.44192 95.02808C13.44192 94.69112,13.469999999999999 94.35416,13.58232 93.98912C14.25624 91.7708,17.4012 90.05792,21.13584 89.83328M21.55704 90.47912C21.41664 90.45104,21.22008 90.45104,21.07968 90.45104C19.31064 90.45104,18.2436 91.96736,18.2436 93.84872C18.2436 94.8596,18.55248 95.95472,19.19832 97.04984C20.26536 98.73464,21.80976 99.57704,23.12952 99.57704C24.25272 99.57704,25.23552 98.98736,25.6848 97.75184C25.88136 97.2464,25.965600000000002 96.74096,25.965600000000002 96.20744C25.965600000000002 93.68024,24.02808 90.87224,21.55704 90.47912"/></g></g><g class="vf-modifiers"><path stroke-width="0.3" fill="black" stroke="none" stroke-dasharray="none" font-family="Arial" font-size="10pt" font-weight="normal" font-style="normal" x="85" y="29.5" width="1" height="41" d="M3.57456 95M3.35568 77.73584C3.4104 77.70848000000001,3.4651199999999998 77.70848000000001,3.5472 77.70848000000001C3.79344 77.70848000000001,4.01232 77.81792,4.0944 78.0368C4.12176 78.14624,4.12176 78.14624,4.12176 84.52112L4.12176 90.95072L4.14912 90.86864C5.1888 89.99312,6.2832 89.55536000000001,7.32288 89.55536000000001C7.73328 89.55536000000001,8.14368 89.61008,8.554079999999999 89.77424C9.78528 90.18464,10.44192 91.33376,10.44192 92.70176000000001C10.44192 93.41312,10.223040000000001 94.20656,9.81264 95C9.210719999999998 96.0944,8.44464 96.96992,6.31056 98.88512L4.20384 100.8824C3.8207999999999998 101.26544,3.73872 101.26544,3.57456 101.26544C3.32832 101.26544,3.10944 101.12864,3.02736 100.90976L3 100.80032L3 89.50064L3 78.14624L3.02736 78.0368C3.10944 77.92736,3.21888 77.7632,3.35568 77.73584M6.58416 91.41584C6.47472 91.36112,6.31056 91.36112,6.2011199999999995 91.36112C6.11904 91.36112,6.06432 91.36112,6.0096 91.36112C5.29824 91.47056,4.66896 91.90832,4.2312 92.61968L4.12176 92.8112L4.12176 96.01232L4.12176 99.26816L4.20384 99.15872C6.2011199999999995 96.96992,7.5144 94.4528,7.5144 92.78384L7.5144 92.72912C7.5144 91.90832,7.2408 91.55264,6.58416 91.41584"/></g></g></svg>