<?xml version="1.0" standalone="no"?><svg xmlns="http://www.w3.org/2000/svg" width="40" height="130"><path stroke-width="2" fill="none" stroke="black" stroke-dasharray="none" font-family="Arial" font-size="10pt" font-weight="normal" font-style="normal" d="M-15 30L85 30"/><path stroke-width="2" fill="none" stroke="black" stroke-dasharray="none" font-family="Arial" font-size="10pt" font-weight="normal" font-style="normal" d="M-15 40L85 40"/><path stroke-width="2" fill="none" stroke="black" stroke-dasharray="none" font-family="Arial" font-size="10pt" font-weight="normal" font-style="normal" d="M-15 50L85 50"/><path stroke-width="2" fill="none" stroke="black" stroke-dasharray="none" font-family="Arial" font-size="10pt" font-weight="normal" font-style="normal" d="M-15 60L85 60"/><path stroke-width="2" fill="none" stroke="black" stroke-dasharray="none" font-family="Arial" font-size="10pt" font-weight="normal" font-style="normal" d="M-15 70L85 70"/><rect stroke-width="0.3" fill="black" stroke="black" stroke-dasharray="none" font-family="Arial" font-size="10pt" font-weight="normal" font-style="normal" x="-15" y="29.5" width="1" height="41"/><rect stroke-width="0.3" fill="black" stroke="black" stroke-dasharray="none" font-family="Arial" font-size="10pt" font-weight="normal" font-style="normal" x="85" y="29.5" width="1" height="41"/><path stroke-width="2" fill="none" stroke="black" stroke-dasharray="none" font-family="Arial" font-size="10pt" font-weight="normal" font-style="normal" x="85" y="29.5" width="1" height="41" d="M10.44192 80L28.46016 80"/><path stroke-width="2" fill="none" stroke="black" stroke-dasharray="none" font-family="Arial" font-size="10pt" font-weight="normal" font-style="normal" x="85" y="29.5" width="1" height="41" d="M10.44192 90L28.46016 90"/><g class="vf-stavenote" id="vf-auto3241"><g class="vf-note" pointer-events="bounding-box"><g class="vf-stem" pointer-events="bounding-box"><path stroke-width="1.5" fill="none" stroke="black" stroke-dasharray="none" font-family="Arial" font-size="10pt" font-weight="normal" font-style="normal" x="85" y="29.5" width="1" height="41" d="M24.710160000000002 95L24.710160000000002 60"/></g><g class="vf-notehead" pointer-events="bounding-box"><path stroke-width="0.3" fill="black" stroke="none" stroke-dasharray="none" font-family="Arial" font-size="10pt" font-weight="normal" font-style="normal" x="85" y="29.5" width="1" height="41" d="M13.44192 95M20.79888 89.77712C20.9112 89.77712,21.07968 89.77712,21.10776 89.77712C21.10776 89.77712,21.13584 89.77712,21.13584 89.77712C21.13584 89.77712,21.30432 89.77712,21.44472 89.77712C23.97192 89.91752,25.460160000000002 91.57424,25.460160000000002 93.65216C25.460160000000002 94.66304,25.1232 95.81432,24.2808 96.90944C22.680239999999998 99.0716,20.0688 100.25096,17.79432 100.25096C16.02528 100.25096,14.50896 99.54896,13.77888 98.11688C13.55424 97.55528,13.44192 97.02176,13.44192 96.43208C13.44192 93.37136,16.86768 89.97368,20.79888 89.77712"/></g></g><g class="vf-modifiers"><path stroke-width="0.3" fill="black" stroke="none" stroke-dasharray="none" font-family="Arial" font-size="10pt" font-weight="normal" font-style="normal" x="85" y="29.5" width="1" height="41" d="M3.57456 95M3.35568 77.73584C3.4104 77.70848000000001,3.4651199999999998 77.70848000000001,3.5472 77.70848000000001C3.79344 77.70848000000001,4.01232 77.81792,4.0944 78.0368C4.12176 78.14624,4.12176 78.14624,4.12176 84.52112L4.12176 90.95072L4.14912 90.86864C5.1888 89.99312,6.2832 89.55536000000001,7.32288 89.55536000000001C7.73328 89.55536000000001,8.14368 89.61008,8.554079999999999 89.77424C9.78528 90.18464,10.44192 91.33376,10.44192 92.70176000000001C10.44192 93.41312,10.223040000000001 94.20656,9.81264 95C9.210719999999998 96.0944,8.44464 96.96992,6.31056 98.88512L4.20384 100.8824C3.8207999999999998 101.26544,3.73872 101.26544,3.57456 101.26544C3.32832 101.26544,3.10944 101.12864,3.02736 100.90976L3 100.80032L3 89.50064L3 78.14624L3.02736 78.0368C3.10944 77.92736,3.21888 77.7632,3.35568 77.73584M6.58416 91.41584C6.47472 91.36112,6.31056 91.36112,6.2011199999999995 91.36112C6.11904 91.36112,6.06432 91.36112,6.0096 91.36112C5.29824 91.47056,4.66896 91.90832,4.2312 92.61968L4.12176 92.8112L4.12176 96.01232L4.12176 99.26816L4.20384 99.15872C6.2011199999999995 96.96992,7.5144 94.4528,7.5144 92.78384L7.5144 92.72912C7.5144 91.90832,7.2408 91.55264,6.58416 91.41584"/></g></g></svg>