<?xml version="1.0" standalone="no"?><svg xmlns="http://www.w3.org/2000/svg" width="40" height="130"><path stroke-width="2" fill="none" stroke="black" stroke-dasharray="none" font-family="Arial" font-size="10pt" font-weight="normal" font-style="normal" d="M-15 30L85 30"/><path stroke-width="2" fill="none" stroke="black" stroke-dasharray="none" font-family="Arial" font-size="10pt" font-weight="normal" font-style="normal" d="M-15 40L85 40"/><path stroke-width="2" fill="none" stroke="black" stroke-dasharray="none" font-family="Arial" font-size="10pt" font-weight="normal" font-style="normal" d="M-15 50L85 50"/><path stroke-width="2" fill="none" stroke="black" stroke-dasharray="none" font-family="Arial" font-size="10pt" font-weight="normal" font-style="normal" d="M-15 60L85 60"/><path stroke-width="2" fill="none" stroke="black" stroke-dasharray="none" font-family="Arial" font-size="10pt" font-weight="normal" font-style="normal" d="M-15 70L85 70"/><rect stroke-width="0.3" fill="black" stroke="black" stroke-dasharray="none" font-family="Arial" font-size="10pt" font-weight="normal" font-style="normal" x="-15" y="29.5" width="1" height="41"/><rect stroke-width="0.3" fill="black" stroke="black" stroke-dasharray="none" font-family="Arial" font-size="10pt" font-weight="normal" font-style="normal" x="85" y="29.5" width="1" height="41"/><g class="vf-stavenote" id="vf-auto5729"><g class="vf-note" pointer-events="bounding-box"><g class="vf-stem" pointer-events="bounding-box"><path stroke-width="1.5" fill="none" stroke="black" stroke-dasharray="none" font-family="Arial" font-size="10pt" font-weight="normal" font-style="normal" x="85" y="29.5" width="1" height="41" d="M24.710160000000002 60L24.710160000000002 25"/></g><g class="vf-notehead" pointer-events="bounding-box"><path stroke-width="0.3" fill="black" stroke="none" stroke-dasharray="none" font-family="Arial" font-size="10pt" font-weight="normal" font-style="normal" x="85" y="29.5" width="1" height="41" d="M13.44192 60M20.79888 54.77712C20.9112 54.77712,21.07968 54.77712,21.10776 54.77712C21.10776 54.77712,21.13584 54.77712,21.13584 54.77712C21.13584 54.77712,21.30432 54.77712,21.44472 54.77712C23.97192 54.917519999999996,25.460160000000002 56.57424,25.460160000000002 58.65216C25.460160000000002 59.66304,25.1232 60.81432,24.2808 61.909440000000004C22.680239999999998 64.0716,20.0688 65.25096,17.79432 65.25096C16.02528 65.25096,14.50896 64.54896,13.77888 63.11688C13.55424 62.55528,13.44192 62.02176,13.44192 61.43208C13.44192 58.37136,16.86768 54.97368,20.79888 54.77712"/></g><g class="vf-flag" pointer-events="bounding-box"><path stroke-width="0.3" fill="black" stroke="none" stroke-dasharray="none" font-family="Arial" font-size="10pt" font-weight="normal" font-style="normal" x="85" y="29.5" width="1" height="41" d="M24.710160000000002 23M24.036240000000003 27.127760000000002L24.036240000000003 23.1404L24.148560000000003 23.1404C24.3732 23.1404,24.59784 23.30888,24.682080000000003 23.53352C24.87864 24.20744,25.580640000000002 25.41488,26.338800000000003 26.45384C27.321600000000004 27.85784,28.472880000000004 29.14952,30.21384 30.80624C32.40408 32.99648,33.61152 35.9168,33.61152 39.0056C33.61152 40.32536,33.3588 41.70128,32.965680000000006 43.02104L32.82528000000001 43.32992L32.965680000000006 43.6388C33.3588 44.9024,33.61152 46.22216,33.61152 47.51384C33.61152 50.04104,32.797200000000004 52.596320000000006,31.308960000000003 54.78656C31.1124 55.0112,31.000080000000004 55.17968,30.57888 55.7132C30.438480000000002 55.90976,30.21384 56.05016,30.017280000000003 56.05016C29.82072 56.05016,29.624160000000003 55.90976,29.511840000000003 55.68512C29.483760000000004 55.600880000000004,29.4276 55.54472,29.4276 55.40432C29.4276 55.26392,29.539920000000002 55.06736,29.792640000000002 54.78656C31.3932 52.877120000000005,32.26368 50.378,32.26368 48.01928C32.26368 47.87888,32.26368 47.822720000000004,32.26368 47.738479999999996C32.26368 47.06456,32.151360000000004 46.22216,32.06712 45.85712C32.03904 45.77288,31.98288 45.63248,31.954800000000002 45.464C31.449360000000002 43.52648,30.270000000000003 41.72936,28.69752 40.634240000000005C27.855120000000003 40.01648,26.02992 39.53912,24.48552 39.53912C24.34512 39.53912,24.176640000000003 39.53912,24.148560000000003 39.53912L24.036240000000003 39.53912L24.036240000000003 35.60792L24.036240000000003 31.64864L24.148560000000003 31.64864C24.3732 31.64864,24.59784 31.78904,24.682080000000003 32.04176C24.87864 32.6876,25.580640000000002 33.89504,26.338800000000003 34.90592C27.321600000000004 36.36608,28.529040000000002 37.68584,30.157680000000003 39.2864C30.915840000000003 40.01648,31.589760000000002 40.830799999999996,31.98288 41.5328C31.98288 41.58896,32.03904 41.61704,32.03904 41.61704C32.06712 41.61704,32.06712 41.5328,32.12328 41.42048C32.235600000000005 40.74656,32.26368 40.1288,32.26368 39.482960000000006C32.26368 38.893280000000004,32.235600000000005 38.27552,32.12328 37.62968C32.12328 37.51736,32.06712 37.40504,32.06712 37.37696C32.03904 37.29272,31.98288 37.12424,31.954800000000002 36.98384C31.449360000000002 35.01824,30.270000000000003 33.2492,28.69752 32.15408C27.855120000000003 31.50824,26.02992 31.087040000000002,24.48552 31.05896C24.34512 31.05896,24.176640000000003 31.05896,24.148560000000003 31.05896L24.036240000000003 31.05896L24.036240000000003 27.127760000000002"/></g></g><g class="vf-modifiers"><path stroke-width="0.3" fill="black" stroke="none" stroke-dasharray="none" font-family="Arial" font-size="10pt" font-weight="normal" font-style="normal" x="85" y="29.5" width="1" height="41" d="M3.57456 60M3.35568 42.735839999999996C3.4104 42.70848,3.4651199999999998 42.70848,3.5472 42.70848C3.79344 42.70848,4.01232 42.81792,4.0944 43.0368C4.12176 43.146240000000006,4.12176 43.146240000000006,4.12176 49.521119999999996L4.12176 55.950720000000004L4.14912 55.86864C5.1888 54.99312,6.2832 54.55536,7.32288 54.55536C7.73328 54.55536,8.14368 54.610079999999996,8.554079999999999 54.77424C9.78528 55.18464,10.44192 56.33376,10.44192 57.70176C10.44192 58.41312,10.223040000000001 59.20656,9.81264 60C9.210719999999998 61.0944,8.44464 61.96992,6.31056 63.88512L4.20384 65.8824C3.8207999999999998 66.26544,3.73872 66.26544,3.57456 66.26544C3.32832 66.26544,3.10944 66.12864,3.02736 65.90976L3 65.80032L3 54.500640000000004L3 43.146240000000006L3.02736 43.0368C3.10944 42.92736,3.21888 42.7632,3.35568 42.735839999999996M6.58416 56.41584C6.47472 56.36112,6.31056 56.36112,6.2011199999999995 56.36112C6.11904 56.36112,6.06432 56.36112,6.0096 56.36112C5.29824 56.47056,4.66896 56.90832,4.2312 57.61968L4.12176 57.8112L4.12176 61.01232L4.12176 64.26816L4.20384 64.15872C6.2011199999999995 61.96992,7.5144 59.4528,7.5144 57.78384L7.5144 57.72912C7.5144 56.90832,7.2408 56.55264,6.58416 56.41584"/><path stroke-width="0.3" fill="black" stroke="none" stroke-dasharray="none" font-family="Arial" font-size="10pt" font-weight="normal" font-style="normal" x="85" y="29.5" width="1" height="41" d="M42.03544 55 A2 2 0 0 0 38.03544 55M0 0M38.03544 55 A2 2 0 0 0 42.03544 55M0 0"/></g></g></svg>