<?xml version="1.0" standalone="no"?><svg xmlns="http://www.w3.org/2000/svg" width="40" height="130"><path stroke-width="2" fill="none" stroke="black" stroke-dasharray="none" font-family="Arial" font-size="10pt" font-weight="normal" font-style="normal" d="M-15 30L85 30"/><path stroke-width="2" fill="none" stroke="black" stroke-dasharray="none" font-family="Arial" font-size="10pt" font-weight="normal" font-style="normal" d="M-15 40L85 40"/><path stroke-width="2" fill="none" stroke="black" stroke-dasharray="none" font-family="Arial" font-size="10pt" font-weight="normal" font-style="normal" d="M-15 50L85 50"/><path stroke-width="2" fill="none" stroke="black" stroke-dasharray="none" font-family="Arial" font-size="10pt" font-weight="normal" font-style="normal" d="M-15 60L85 60"/><path stroke-width="2" fill="none" stroke="black" stroke-dasharray="none" font-family="Arial" font-size="10pt" font-weight="normal" font-style="normal" d="M-15 70L85 70"/><rect stroke-width="0.3" fill="black" stroke="black" stroke-dasharray="none" font-family="Arial" font-size="10pt" font-weight="normal" font-style="normal" x="-15" y="29.5" width="1" height="41"/><rect stroke-width="0.3" fill="black" stroke="black" stroke-dasharray="none" font-family="Arial" font-size="10pt" font-weight="normal" font-style="normal" x="85" y="29.5" width="1" height="41"/><g class="vf-stavenote" id="vf-auto2382"><g class="vf-note" pointer-events="bounding-box"><g class="vf-stem" pointer-events="bounding-box"><path stroke-width="1.5" fill="none" stroke="black" stroke-dasharray="none" font-family="Arial" font-size="10pt" font-weight="normal" font-style="normal" x="85" y="29.5" width="1" height="41" d="M24.710160000000002 60L24.710160000000002 25"/></g><g class="vf-notehead" pointer-events="bounding-box"><path stroke-width="0.3" fill="black" stroke="none" stroke-dasharray="none" font-family="Arial" font-size="10pt" font-weight="normal" font-style="normal" x="85" y="29.5" width="1" height="41" d="M13.44192 60M20.79888 54.77712C20.9112 54.77712,21.07968 54.77712,21.10776 54.77712C21.10776 54.77712,21.13584 54.77712,21.13584 54.77712C21.13584 54.77712,21.30432 54.77712,21.44472 54.77712C23.97192 54.917519999999996,25.460160000000002 56.57424,25.460160000000002 58.65216C25.460160000000002 59.66304,25.1232 60.81432,24.2808 61.909440000000004C22.680239999999998 64.0716,20.0688 65.25096,17.79432 65.25096C16.02528 65.25096,14.50896 64.54896,13.77888 63.11688C13.55424 62.55528,13.44192 62.02176,13.44192 61.43208C13.44192 58.37136,16.86768 54.97368,20.79888 54.77712M23.7192 56.32152C23.60688 56.26536,23.46648 56.23728,23.326079999999997 56.23728C22.4556 56.23728,20.99544 56.7708,19.59144 57.72552C16.98 59.35416,14.84592 61.74096,14.76168 63.11688C14.76168 63.11688,14.76168 63.14496,14.76168 63.14496C14.76168 63.62232,15.07056 63.81888,15.60408 63.81888C16.75536 63.81888,18.88944 62.83608,20.85504 61.2636C22.8768 59.66304,24.168480000000002 57.86592,24.168480000000002 56.93928C24.168480000000002 56.6304,24.02808 56.37768,23.7192 56.32152"/></g></g><g class="vf-modifiers"><path stroke-width="0.3" fill="black" stroke="none" stroke-dasharray="none" font-family="Arial" font-size="10pt" font-weight="normal" font-style="normal" x="85" y="29.5" width="1" height="41" d="M3.57456 60M3.35568 42.735839999999996C3.4104 42.70848,3.4651199999999998 42.70848,3.5472 42.70848C3.79344 42.70848,4.01232 42.81792,4.0944 43.0368C4.12176 43.146240000000006,4.12176 43.146240000000006,4.12176 49.521119999999996L4.12176 55.950720000000004L4.14912 55.86864C5.1888 54.99312,6.2832 54.55536,7.32288 54.55536C7.73328 54.55536,8.14368 54.610079999999996,8.554079999999999 54.77424C9.78528 55.18464,10.44192 56.33376,10.44192 57.70176C10.44192 58.41312,10.223040000000001 59.20656,9.81264 60C9.210719999999998 61.0944,8.44464 61.96992,6.31056 63.88512L4.20384 65.8824C3.8207999999999998 66.26544,3.73872 66.26544,3.57456 66.26544C3.32832 66.26544,3.10944 66.12864,3.02736 65.90976L3 65.80032L3 54.500640000000004L3 43.146240000000006L3.02736 43.0368C3.10944 42.92736,3.21888 42.7632,3.35568 42.735839999999996M6.58416 56.41584C6.47472 56.36112,6.31056 56.36112,6.2011199999999995 56.36112C6.11904 56.36112,6.06432 56.36112,6.0096 56.36112C5.29824 56.47056,4.66896 56.90832,4.2312 57.61968L4.12176 57.8112L4.12176 61.01232L4.12176 64.26816L4.20384 64.15872C6.2011199999999995 61.96992,7.5144 59.4528,7.5144 57.78384L7.5144 57.72912C7.5144 56.90832,7.2408 56.55264,6.58416 56.41584"/></g></g></svg>