<?xml version="1.0" standalone="no"?><svg xmlns="http://www.w3.org/2000/svg" width="40" height="130"><path stroke-width="2" fill="none" stroke="black" stroke-dasharray="none" font-family="Arial" font-size="10pt" font-weight="normal" font-style="normal" d="M-15 30L85 30"/><path stroke-width="2" fill="none" stroke="black" stroke-dasharray="none" font-family="Arial" font-size="10pt" font-weight="normal" font-style="normal" d="M-15 40L85 40"/><path stroke-width="2" fill="none" stroke="black" stroke-dasharray="none" font-family="Arial" font-size="10pt" font-weight="normal" font-style="normal" d="M-15 50L85 50"/><path stroke-width="2" fill="none" stroke="black" stroke-dasharray="none" font-family="Arial" font-size="10pt" font-weight="normal" font-style="normal" d="M-15 60L85 60"/><path stroke-width="2" fill="none" stroke="black" stroke-dasharray="none" font-family="Arial" font-size="10pt" font-weight="normal" font-style="normal" d="M-15 70L85 70"/><rect stroke-width="0.3" fill="black" stroke="black" stroke-dasharray="none" font-family="Arial" font-size="10pt" font-weight="normal" font-style="normal" x="-15" y="29.5" width="1" height="41"/><rect stroke-width="0.3" fill="black" stroke="black" stroke-dasharray="none" font-family="Arial" font-size="10pt" font-weight="normal" font-style="normal" x="85" y="29.5" width="1" height="41"/><g class="vf-stavenote" id="vf-auto1523"><g class="vf-note" pointer-events="bounding-box"><g class="vf-notehead" pointer-events="bounding-box"><path stroke-width="0.3" fill="black" stroke="none" stroke-dasharray="none" font-family="Arial" font-size="10pt" font-weight="normal" font-style="normal" x="85" y="29.5" width="1" height="41" d="M13.44192 25M21.13584 19.833280000000002C21.44472 19.77712,21.7536 19.77712,22.06248 19.77712C26.499119999999998 19.77712,30.20568 21.74272,30.7392 24.38224C30.76728 24.63496,30.82344 24.8596,30.82344 25.02808C30.82344 27.92032,27.004559999999998 30.25096,22.09056 30.25096C17.17656 30.25096,13.44192 27.86416,13.44192 25.02808C13.44192 24.69112,13.469999999999999 24.35416,13.58232 23.98912C14.25624 21.7708,17.4012 20.05792,21.13584 19.833280000000002M21.55704 20.47912C21.41664 20.45104,21.22008 20.45104,21.07968 20.45104C19.31064 20.45104,18.2436 21.96736,18.2436 23.84872C18.2436 24.8596,18.55248 25.954720000000002,19.19832 27.04984C20.26536 28.73464,21.80976 29.57704,23.12952 29.57704C24.25272 29.57704,25.23552 28.98736,25.6848 27.75184C25.88136 27.2464,25.965600000000002 26.74096,25.965600000000002 26.20744C25.965600000000002 23.68024,24.02808 20.872239999999998,21.55704 20.47912"/></g></g><g class="vf-modifiers"><path stroke-width="0.3" fill="black" stroke="none" stroke-dasharray="none" font-family="Arial" font-size="10pt" font-weight="normal" font-style="normal" x="85" y="29.5" width="1" height="41" d="M3.57456 25M3.35568 7.73584C3.4104 7.7084800000000016,3.4651199999999998 7.7084800000000016,3.5472 7.7084800000000016C3.79344 7.7084800000000016,4.01232 7.817920000000001,4.0944 8.0368C4.12176 8.146240000000002,4.12176 8.146240000000002,4.12176 14.52112L4.12176 20.95072L4.14912 20.86864C5.1888 19.99312,6.2832 19.55536,7.32288 19.55536C7.73328 19.55536,8.14368 19.61008,8.554079999999999 19.77424C9.78528 20.18464,10.44192 21.33376,10.44192 22.70176C10.44192 23.41312,10.223040000000001 24.20656,9.81264 25C9.210719999999998 26.0944,8.44464 26.96992,6.31056 28.88512L4.20384 30.8824C3.8207999999999998 31.265439999999998,3.73872 31.265439999999998,3.57456 31.265439999999998C3.32832 31.265439999999998,3.10944 31.12864,3.02736 30.90976L3 30.80032L3 19.50064L3 8.146240000000002L3.02736 8.0368C3.10944 7.92736,3.21888 7.763200000000001,3.35568 7.73584M6.58416 21.41584C6.47472 21.36112,6.31056 21.36112,6.2011199999999995 21.36112C6.11904 21.36112,6.06432 21.36112,6.0096 21.36112C5.29824 21.47056,4.66896 21.90832,4.2312 22.61968L4.12176 22.8112L4.12176 26.01232L4.12176 29.26816L4.20384 29.15872C6.2011199999999995 26.96992,7.5144 24.4528,7.5144 22.78384L7.5144 22.72912C7.5144 21.90832,7.2408 21.55264,6.58416 21.41584"/></g></g></svg>