<?xml version="1.0" standalone="no"?><svg xmlns="http://www.w3.org/2000/svg" width="40" height="130"><path stroke-width="2" fill="none" stroke="black" stroke-dasharray="none" font-family="Arial" font-size="10pt" font-weight="normal" font-style="normal" d="M-15 30L85 30"/><path stroke-width="2" fill="none" stroke="black" stroke-dasharray="none" font-family="Arial" font-size="10pt" font-weight="normal" font-style="normal" d="M-15 40L85 40"/><path stroke-width="2" fill="none" stroke="black" stroke-dasharray="none" font-family="Arial" font-size="10pt" font-weight="normal" font-style="normal" d="M-15 50L85 50"/><path stroke-width="2" fill="none" stroke="black" stroke-dasharray="none" font-family="Arial" font-size="10pt" font-weight="normal" font-style="normal" d="M-15 60L85 60"/><path stroke-width="2" fill="none" stroke="black" stroke-dasharray="none" font-family="Arial" font-size="10pt" font-weight="normal" font-style="normal" d="M-15 70L85 70"/><rect stroke-width="0.3" fill="black" stroke="black" stroke-dasharray="none" font-family="Arial" font-size="10pt" font-weight="normal" font-style="normal" x="-15" y="29.5" width="1" height="41"/><rect stroke-width="0.3" fill="black" stroke="black" stroke-dasharray="none" font-family="Arial" font-size="10pt" font-weight="normal" font-style="normal" x="85" y="29.5" width="1" height="41"/><g class="vf-stavenote" id="vf-auto1506"><g class="vf-note" pointer-events="bounding-box"><g class="vf-notehead" pointer-events="bounding-box"><path stroke-width="0.3" fill="black" stroke="none" stroke-dasharray="none" font-family="Arial" font-size="10pt" font-weight="normal" font-style="normal" x="85" y="29.5" width="1" height="41" d="M13.44192 60M21.13584 54.83328C21.44472 54.77712,21.7536 54.77712,22.06248 54.77712C26.499119999999998 54.77712,30.20568 56.74272,30.7392 59.38224C30.76728 59.63496,30.82344 59.8596,30.82344 60.02808C30.82344 62.920320000000004,27.004559999999998 65.25096,22.09056 65.25096C17.17656 65.25096,13.44192 62.86416,13.44192 60.02808C13.44192 59.69112,13.469999999999999 59.35416,13.58232 58.98912C14.25624 56.7708,17.4012 55.05792,21.13584 54.83328M21.55704 55.47912C21.41664 55.45104,21.22008 55.45104,21.07968 55.45104C19.31064 55.45104,18.2436 56.96736,18.2436 58.84872C18.2436 59.8596,18.55248 60.95472,19.19832 62.04984C20.26536 63.73464,21.80976 64.57704,23.12952 64.57704C24.25272 64.57704,25.23552 63.98736,25.6848 62.75184C25.88136 62.2464,25.965600000000002 61.74096,25.965600000000002 61.20744C25.965600000000002 58.68024,24.02808 55.87224,21.55704 55.47912"/></g></g><g class="vf-modifiers"><path stroke-width="0.3" fill="black" stroke="none" stroke-dasharray="none" font-family="Arial" font-size="10pt" font-weight="normal" font-style="normal" x="85" y="29.5" width="1" height="41" d="M3.57456 60M3.35568 42.735839999999996C3.4104 42.70848,3.4651199999999998 42.70848,3.5472 42.70848C3.79344 42.70848,4.01232 42.81792,4.0944 43.0368C4.12176 43.146240000000006,4.12176 43.146240000000006,4.12176 49.521119999999996L4.12176 55.950720000000004L4.14912 55.86864C5.1888 54.99312,6.2832 54.55536,7.32288 54.55536C7.73328 54.55536,8.14368 54.610079999999996,8.554079999999999 54.77424C9.78528 55.18464,10.44192 56.33376,10.44192 57.70176C10.44192 58.41312,10.223040000000001 59.20656,9.81264 60C9.210719999999998 61.0944,8.44464 61.96992,6.31056 63.88512L4.20384 65.8824C3.8207999999999998 66.26544,3.73872 66.26544,3.57456 66.26544C3.32832 66.26544,3.10944 66.12864,3.02736 65.90976L3 65.80032L3 54.500640000000004L3 43.146240000000006L3.02736 43.0368C3.10944 42.92736,3.21888 42.7632,3.35568 42.735839999999996M6.58416 56.41584C6.47472 56.36112,6.31056 56.36112,6.2011199999999995 56.36112C6.11904 56.36112,6.06432 56.36112,6.0096 56.36112C5.29824 56.47056,4.66896 56.90832,4.2312 57.61968L4.12176 57.8112L4.12176 61.01232L4.12176 64.26816L4.20384 64.15872C6.2011199999999995 61.96992,7.5144 59.4528,7.5144 57.78384L7.5144 57.72912C7.5144 56.90832,7.2408 56.55264,6.58416 56.41584"/></g></g></svg>