<?xml version="1.0" standalone="no"?><svg xmlns="http://www.w3.org/2000/svg" width="40" height="130"><path stroke-width="2" fill="none" stroke="black" stroke-dasharray="none" font-family="Arial" font-size="10pt" font-weight="normal" font-style="normal" d="M-15 30L85 30"/><path stroke-width="2" fill="none" stroke="black" stroke-dasharray="none" font-family="Arial" font-size="10pt" font-weight="normal" font-style="normal" d="M-15 40L85 40"/><path stroke-width="2" fill="none" stroke="black" stroke-dasharray="none" font-family="Arial" font-size="10pt" font-weight="normal" font-style="normal" d="M-15 50L85 50"/><path stroke-width="2" fill="none" stroke="black" stroke-dasharray="none" font-family="Arial" font-size="10pt" font-weight="normal" font-style="normal" d="M-15 60L85 60"/><path stroke-width="2" fill="none" stroke="black" stroke-dasharray="none" font-family="Arial" font-size="10pt" font-weight="normal" font-style="normal" d="M-15 70L85 70"/><rect stroke-width="0.3" fill="black" stroke="black" stroke-dasharray="none" font-family="Arial" font-size="10pt" font-weight="normal" font-style="normal" x="-15" y="29.5" width="1" height="41"/><rect stroke-width="0.3" fill="black" stroke="black" stroke-dasharray="none" font-family="Arial" font-size="10pt" font-weight="normal" font-style="normal" x="85" y="29.5" width="1" height="41"/><path stroke-width="2" fill="none" stroke="black" stroke-dasharray="none" font-family="Arial" font-size="10pt" font-weight="normal" font-style="normal" x="85" y="29.5" width="1" height="41" d="M10.44192 80L28.46016 80"/><path stroke-width="2" fill="none" stroke="black" stroke-dasharray="none" font-family="Arial" font-size="10pt" font-weight="normal" font-style="normal" x="85" y="29.5" width="1" height="41" d="M10.44192 90L28.46016 90"/><g class="vf-stavenote" id="vf-auto5707"><g class="vf-note" pointer-events="bounding-box"><g class="vf-stem" pointer-events="bounding-box"><path stroke-width="1.5" fill="none" stroke="black" stroke-dasharray="none" font-family="Arial" font-size="10pt" font-weight="normal" font-style="normal" x="85" y="29.5" width="1" height="41" d="M24.710160000000002 95L24.710160000000002 60"/></g><g class="vf-notehead" pointer-events="bounding-box"><path stroke-width="0.3" fill="black" stroke="none" stroke-dasharray="none" font-family="Arial" font-size="10pt" font-weight="normal" font-style="normal" x="85" y="29.5" width="1" height="41" d="M13.44192 95M20.79888 89.77712C20.9112 89.77712,21.07968 89.77712,21.10776 89.77712C21.10776 89.77712,21.13584 89.77712,21.13584 89.77712C21.13584 89.77712,21.30432 89.77712,21.44472 89.77712C23.97192 89.91752,25.460160000000002 91.57424,25.460160000000002 93.65216C25.460160000000002 94.66304,25.1232 95.81432,24.2808 96.90944C22.680239999999998 99.0716,20.0688 100.25096,17.79432 100.25096C16.02528 100.25096,14.50896 99.54896,13.77888 98.11688C13.55424 97.55528,13.44192 97.02176,13.44192 96.43208C13.44192 93.37136,16.86768 89.97368,20.79888 89.77712"/></g><g class="vf-flag" pointer-events="bounding-box"><path stroke-width="0.3" fill="black" stroke="none" stroke-dasharray="none" font-family="Arial" font-size="10pt" font-weight="normal" font-style="normal" x="85" y="29.5" width="1" height="41" d="M24.710160000000002 58M24.036240000000003 62.12776L24.036240000000003 58.1404L24.148560000000003 58.1404C24.3732 58.1404,24.59784 58.30888,24.682080000000003 58.53352C24.87864 59.20744,25.580640000000002 60.41488,26.338800000000003 61.45384C27.321600000000004 62.85784,28.472880000000004 64.14952,30.21384 65.80624C32.40408 67.99648,33.61152 70.9168,33.61152 74.0056C33.61152 75.32536,33.3588 76.70128,32.965680000000006 78.02104L32.82528000000001 78.32992L32.965680000000006 78.6388C33.3588 79.9024,33.61152 81.22216,33.61152 82.51384C33.61152 85.04104000000001,32.797200000000004 87.59632,31.308960000000003 89.78656000000001C31.1124 90.0112,31.000080000000004 90.17967999999999,30.57888 90.7132C30.438480000000002 90.90976,30.21384 91.05016,30.017280000000003 91.05016C29.82072 91.05016,29.624160000000003 90.90976,29.511840000000003 90.68512C29.483760000000004 90.60088,29.4276 90.54472,29.4276 90.40432C29.4276 90.26392,29.539920000000002 90.06736000000001,29.792640000000002 89.78656000000001C31.3932 87.87712,32.26368 85.378,32.26368 83.01928000000001C32.26368 82.87888000000001,32.26368 82.82272,32.26368 82.73848C32.26368 82.06456,32.151360000000004 81.22216,32.06712 80.85712000000001C32.03904 80.77288,31.98288 80.63248,31.954800000000002 80.464C31.449360000000002 78.52647999999999,30.270000000000003 76.72936,28.69752 75.63424C27.855120000000003 75.01648,26.02992 74.53912,24.48552 74.53912C24.34512 74.53912,24.176640000000003 74.53912,24.148560000000003 74.53912L24.036240000000003 74.53912L24.036240000000003 70.60792000000001L24.036240000000003 66.64864L24.148560000000003 66.64864C24.3732 66.64864,24.59784 66.78904,24.682080000000003 67.04176C24.87864 67.6876,25.580640000000002 68.89504,26.338800000000003 69.90592C27.321600000000004 71.36608,28.529040000000002 72.68584,30.157680000000003 74.2864C30.915840000000003 75.01648,31.589760000000002 75.8308,31.98288 76.53280000000001C31.98288 76.58896,32.03904 76.61704,32.03904 76.61704C32.06712 76.61704,32.06712 76.53280000000001,32.12328 76.42048C32.235600000000005 75.74656,32.26368 75.1288,32.26368 74.48296C32.26368 73.89328,32.235600000000005 73.27552,32.12328 72.62968000000001C32.12328 72.51736,32.06712 72.40504,32.06712 72.37696C32.03904 72.29272,31.98288 72.12424,31.954800000000002 71.98384C31.449360000000002 70.01824,30.270000000000003 68.2492,28.69752 67.15408C27.855120000000003 66.50824,26.02992 66.08704,24.48552 66.05896C24.34512 66.05896,24.176640000000003 66.05896,24.148560000000003 66.05896L24.036240000000003 66.05896L24.036240000000003 62.12776"/></g></g><g class="vf-modifiers"><path stroke-width="0.3" fill="black" stroke="none" stroke-dasharray="none" font-family="Arial" font-size="10pt" font-weight="normal" font-style="normal" x="85" y="29.5" width="1" height="41" d="M3.57456 95M3.35568 77.73584C3.4104 77.70848000000001,3.4651199999999998 77.70848000000001,3.5472 77.70848000000001C3.79344 77.70848000000001,4.01232 77.81792,4.0944 78.0368C4.12176 78.14624,4.12176 78.14624,4.12176 84.52112L4.12176 90.95072L4.14912 90.86864C5.1888 89.99312,6.2832 89.55536000000001,7.32288 89.55536000000001C7.73328 89.55536000000001,8.14368 89.61008,8.554079999999999 89.77424C9.78528 90.18464,10.44192 91.33376,10.44192 92.70176000000001C10.44192 93.41312,10.223040000000001 94.20656,9.81264 95C9.210719999999998 96.0944,8.44464 96.96992,6.31056 98.88512L4.20384 100.8824C3.8207999999999998 101.26544,3.73872 101.26544,3.57456 101.26544C3.32832 101.26544,3.10944 101.12864,3.02736 100.90976L3 100.80032L3 89.50064L3 78.14624L3.02736 78.0368C3.10944 77.92736,3.21888 77.7632,3.35568 77.73584M6.58416 91.41584C6.47472 91.36112,6.31056 91.36112,6.2011199999999995 91.36112C6.11904 91.36112,6.06432 91.36112,6.0096 91.36112C5.29824 91.47056,4.66896 91.90832,4.2312 92.61968L4.12176 92.8112L4.12176 96.01232L4.12176 99.26816L4.20384 99.15872C6.2011199999999995 96.96992,7.5144 94.4528,7.5144 92.78384L7.5144 92.72912C7.5144 91.90832,7.2408 91.55264,6.58416 91.41584"/><path stroke-width="0.3" fill="black" stroke="none" stroke-dasharray="none" font-family="Arial" font-size="10pt" font-weight="normal" font-style="normal" x="85" y="29.5" width="1" height="41" d="M42.03544 95 A2 2 0 0 0 38.03544 95M0 0M38.03544 95 A2 2 0 0 0 42.03544 95M0 0"/></g></g></svg>