<?xml version="1.0" standalone="no"?><svg xmlns="http://www.w3.org/2000/svg" width="40" height="130"><path stroke-width="2" fill="none" stroke="black" stroke-dasharray="none" font-family="Arial" font-size="10pt" font-weight="normal" font-style="normal" d="M-15 30L85 30"/><path stroke-width="2" fill="none" stroke="black" stroke-dasharray="none" font-family="Arial" font-size="10pt" font-weight="normal" font-style="normal" d="M-15 40L85 40"/><path stroke-width="2" fill="none" stroke="black" stroke-dasharray="none" font-family="Arial" font-size="10pt" font-weight="normal" font-style="normal" d="M-15 50L85 50"/><path stroke-width="2" fill="none" stroke="black" stroke-dasharray="none" font-family="Arial" font-size="10pt" font-weight="normal" font-style="normal" d="M-15 60L85 60"/><path stroke-width="2" fill="none" stroke="black" stroke-dasharray="none" font-family="Arial" font-size="10pt" font-weight="normal" font-style="normal" d="M-15 70L85 70"/><rect stroke-width="0.3" fill="black" stroke="black" stroke-dasharray="none" font-family="Arial" font-size="10pt" font-weight="normal" font-style="normal" x="-15" y="29.5" width="1" height="41"/><rect stroke-width="0.3" fill="black" stroke="black" stroke-dasharray="none" font-family="Arial" font-size="10pt" font-weight="normal" font-style="normal" x="85" y="29.5" width="1" height="41"/><g class="vf-stavenote" id="vf-auto5751"><g class="vf-note" pointer-events="bounding-box"><g class="vf-stem" pointer-events="bounding-box"><path stroke-width="1.5" fill="none" stroke="black" stroke-dasharray="none" font-family="Arial" font-size="10pt" font-weight="normal" font-style="normal" x="85" y="29.5" width="1" height="41" d="M14.19192 25L14.19192 60"/></g><g class="vf-notehead" pointer-events="bounding-box"><path stroke-width="0.3" fill="black" stroke="none" stroke-dasharray="none" font-family="Arial" font-size="10pt" font-weight="normal" font-style="normal" x="85" y="29.5" width="1" height="41" d="M13.44192 25M20.79888 19.77712C20.9112 19.77712,21.07968 19.77712,21.10776 19.77712C21.10776 19.77712,21.13584 19.77712,21.13584 19.77712C21.13584 19.77712,21.30432 19.77712,21.44472 19.77712C23.97192 19.91752,25.460160000000002 21.57424,25.460160000000002 23.65216C25.460160000000002 24.66304,25.1232 25.81432,24.2808 26.90944C22.680239999999998 29.0716,20.0688 30.25096,17.79432 30.25096C16.02528 30.25096,14.50896 29.54896,13.77888 28.116880000000002C13.55424 27.55528,13.44192 27.02176,13.44192 26.43208C13.44192 23.37136,16.86768 19.97368,20.79888 19.77712"/></g><g class="vf-flag" pointer-events="bounding-box"><path stroke-width="0.3" fill="black" stroke="none" stroke-dasharray="none" font-family="Arial" font-size="10pt" font-weight="normal" font-style="normal" x="85" y="29.5" width="1" height="41" d="M14.19192 62M22.67208 33.04952C22.72824 33.02144,22.81248 33.02144,22.84056 33.02144C23.12136 33.02144,23.31792 33.16184,23.45832 33.47072C24.048000000000002 34.7624,24.35688 36.166399999999996,24.35688 37.65464C24.35688 38.86208,24.10416 40.0976,23.73912 41.27696L23.6268 41.585840000000005L23.73912 41.866640000000004C24.16032 42.98984,24.35688 44.19728,24.35688 45.40472C24.35688 48.07232,23.31792 50.73992,21.40848 52.93016C21.01536 53.40752,20.56608 53.8568,19.92024 54.36224C17.814239999999998 56.21552,16.0452 58.26536,14.75352 60.42752C14.52888 60.76448,14.19192 61.38224,14.16384 61.49456C14.0796 61.74728,13.85496 61.88768,13.6584 61.88768L13.60224 61.88768L13.60224 58.0688L13.60224 54.24992L13.85496 54.22184C15.9048 53.91296,17.75808 53.32328,18.88128 52.64936C21.54888 51.10496,23.14944 48.21272,23.14944 45.20816C23.14944 44.5904,23.09328 43.97264,22.924799999999998 43.354879999999994L22.896720000000002 43.10216L22.72824 43.354879999999994C22.02624 44.5904,21.21192 45.517039999999994,19.92024 46.61216C17.814239999999998 48.43736,16.0452 50.51528,14.75352 52.64936C14.52888 53.0144,14.19192 53.63216,14.16384 53.80064C14.0796 53.9972,13.85496 54.1376,13.6584 54.1376L13.60224 54.1376L13.60224 50.31872L13.60224 46.49984L13.85496 46.47176C15.9048 46.16288,17.75808 45.5732,18.88128 44.899280000000005C21.60504 43.29872,23.14944 40.3784,23.14944 37.458079999999995C23.14944 36.33488,22.924799999999998 35.21168,22.44744 34.144639999999995C22.278959999999998 33.80768,22.278959999999998 33.72344,22.278959999999998 33.61112C22.278959999999998 33.33032,22.44744 33.133759999999995,22.67208 33.04952"/></g></g><g class="vf-modifiers"><path stroke-width="0.3" fill="black" stroke="none" stroke-dasharray="none" font-family="Arial" font-size="10pt" font-weight="normal" font-style="normal" x="85" y="29.5" width="1" height="41" d="M3.57456 25M3.35568 7.73584C3.4104 7.7084800000000016,3.4651199999999998 7.7084800000000016,3.5472 7.7084800000000016C3.79344 7.7084800000000016,4.01232 7.817920000000001,4.0944 8.0368C4.12176 8.146240000000002,4.12176 8.146240000000002,4.12176 14.52112L4.12176 20.95072L4.14912 20.86864C5.1888 19.99312,6.2832 19.55536,7.32288 19.55536C7.73328 19.55536,8.14368 19.61008,8.554079999999999 19.77424C9.78528 20.18464,10.44192 21.33376,10.44192 22.70176C10.44192 23.41312,10.223040000000001 24.20656,9.81264 25C9.210719999999998 26.0944,8.44464 26.96992,6.31056 28.88512L4.20384 30.8824C3.8207999999999998 31.265439999999998,3.73872 31.265439999999998,3.57456 31.265439999999998C3.32832 31.265439999999998,3.10944 31.12864,3.02736 30.90976L3 30.80032L3 19.50064L3 8.146240000000002L3.02736 8.0368C3.10944 7.92736,3.21888 7.763200000000001,3.35568 7.73584M6.58416 21.41584C6.47472 21.36112,6.31056 21.36112,6.2011199999999995 21.36112C6.11904 21.36112,6.06432 21.36112,6.0096 21.36112C5.29824 21.47056,4.66896 21.90832,4.2312 22.61968L4.12176 22.8112L4.12176 26.01232L4.12176 29.26816L4.20384 29.15872C6.2011199999999995 26.96992,7.5144 24.4528,7.5144 22.78384L7.5144 22.72912C7.5144 21.90832,7.2408 21.55264,6.58416 21.41584"/><path stroke-width="0.3" fill="black" stroke="none" stroke-dasharray="none" font-family="Arial" font-size="10pt" font-weight="normal" font-style="normal" x="85" y="29.5" width="1" height="41" d="M32.46016 25 A2 2 0 0 0 28.460160000000002 25M0 0M28.460160000000002 25 A2 2 0 0 0 32.46016 25M0 0"/></g></g></svg>