<?xml version="1.0" standalone="no"?><svg xmlns="http://www.w3.org/2000/svg" width="40" height="130"><path stroke-width="2" fill="none" stroke="black" stroke-dasharray="none" font-family="Arial" font-size="10pt" font-weight="normal" font-style="normal" d="M-15 30L85 30"/><path stroke-width="2" fill="none" stroke="black" stroke-dasharray="none" font-family="Arial" font-size="10pt" font-weight="normal" font-style="normal" d="M-15 40L85 40"/><path stroke-width="2" fill="none" stroke="black" stroke-dasharray="none" font-family="Arial" font-size="10pt" font-weight="normal" font-style="normal" d="M-15 50L85 50"/><path stroke-width="2" fill="none" stroke="black" stroke-dasharray="none" font-family="Arial" font-size="10pt" font-weight="normal" font-style="normal" d="M-15 60L85 60"/><path stroke-width="2" fill="none" stroke="black" stroke-dasharray="none" font-family="Arial" font-size="10pt" font-weight="normal" font-style="normal" d="M-15 70L85 70"/><rect stroke-width="0.3" fill="black" stroke="black" stroke-dasharray="none" font-family="Arial" font-size="10pt" font-weight="normal" font-style="normal" x="-15" y="29.5" width="1" height="41"/><rect stroke-width="0.3" fill="black" stroke="black" stroke-dasharray="none" font-family="Arial" font-size="10pt" font-weight="normal" font-style="normal" x="85" y="29.5" width="1" height="41"/><g class="vf-stavenote" id="vf-auto3354"><g class="vf-note" pointer-events="bounding-box"><g class="vf-stem" pointer-events="bounding-box"><path stroke-width="1.5" fill="none" stroke="black" stroke-dasharray="none" font-family="Arial" font-size="10pt" font-weight="normal" font-style="normal" x="85" y="29.5" width="1" height="41" d="M26.10552 60L26.10552 25"/></g><g class="vf-notehead" pointer-events="bounding-box"><path stroke-width="0.3" fill="black" stroke="none" stroke-dasharray="none" font-family="Arial" font-size="10pt" font-weight="normal" font-style="normal" x="85" y="29.5" width="1" height="41" d="M14.83728 60M22.19424 54.77712C22.30656 54.77712,22.47504 54.77712,22.50312 54.77712C22.50312 54.77712,22.5312 54.77712,22.5312 54.77712C22.5312 54.77712,22.69968 54.77712,22.84008 54.77712C25.36728 54.917519999999996,26.85552 56.57424,26.85552 58.65216C26.85552 59.66304,26.51856 60.81432,25.67616 61.909440000000004C24.0756 64.0716,21.46416 65.25096,19.18968 65.25096C17.42064 65.25096,15.90432 64.54896,15.17424 63.11688C14.9496 62.55528,14.83728 62.02176,14.83728 61.43208C14.83728 58.37136,18.26304 54.97368,22.19424 54.77712"/></g></g><g class="vf-modifiers"><path stroke-width="0.3" fill="black" stroke="none" stroke-dasharray="none" font-family="Arial" font-size="10pt" font-weight="normal" font-style="normal" x="85" y="29.5" width="1" height="41" d="M3 60M8.93712 45.3624C9.0192 45.307680000000005,9.04656 45.307680000000005,9.155999999999999 45.307680000000005C9.4296 45.307680000000005,9.62112 45.41712,9.703199999999999 45.66336L9.73056 45.74544L9.757919999999999 49.3296L9.757919999999999 52.94112L10.46928 52.7496C10.87968 52.64016,11.18064 52.6128,11.37216 52.6128C11.6184 52.6128,11.72784 52.69488,11.80992 52.913759999999996C11.83728 52.99584,11.83728 53.62512,11.83728 54.30912C11.83728 54.96576,11.83728 55.64976,11.80992 55.67712C11.700479999999999 55.950720000000004,11.6184 55.97808,10.87968 56.1696C9.94944 56.41584,9.757919999999999 56.4432,9.757919999999999 56.4432C9.757919999999999 56.4432,9.757919999999999 57.154560000000004,9.757919999999999 58.2216C9.757919999999999 58.60464,9.757919999999999 59.01504,9.757919999999999 59.4528L9.757919999999999 62.40768L10.46928 62.21616C10.907039999999999 62.10672,11.18064 62.07936,11.37216 62.07936C11.50896 62.07936,11.6184 62.10672,11.700479999999999 62.21616C11.83728 62.38032,11.83728 62.35296,11.83728 63.36528L11.83728 63.77568L11.83728 64.21344C11.83728 65.22576,11.83728 65.19839999999999,11.700479999999999 65.3352C11.59104 65.44463999999999,11.6184 65.44463999999999,10.359839999999998 65.7456C10.08624 65.82768,9.84 65.90976,9.81264 65.90976L9.757919999999999 65.90976L9.757919999999999 69.54864L9.73056 73.21488L9.703199999999999 73.32432C9.62112 73.5432,9.402239999999999 73.65264,9.155999999999999 73.65264C8.99184 73.65264,8.7456 73.5432,8.63616 73.32432L8.608799999999999 73.21488L8.608799999999999 69.7128L8.608799999999999 66.21072L8.58144 66.21072L7.95216 66.37488L6.7756799999999995 66.67584C6.47472 66.75792,6.2011199999999995 66.81264,6.2011199999999995 66.81264C6.1464 66.81264,6.1464 67.00416,6.1464 70.5336L6.1464 74.30928L6.11904 74.39135999999999C6.0096 74.61024,5.79072 74.71968,5.5992 74.71968C5.380319999999999 74.71968,5.13408 74.61024,5.02464 74.39135999999999L4.99728 74.30928L4.99728 70.69776C4.99728 67.35984,4.99728 67.1136,4.96992 67.1136C4.96992 67.1136,4.96992 67.1136,4.96992 67.1136C4.66896 67.19568,3.62928 67.46928,3.51984 67.46928C3.2736 67.46928,3.10944 67.30512,3 67.1136C3 67.00416,3 67.00416,3 65.71824L3 64.43232L3.02736 64.32288C3.1368 64.04928,3.1368 64.04928,4.66896 63.66624L4.99728 63.58416L4.99728 60.60192C4.99728 57.83856,4.99728 57.64704,4.96992 57.64704C4.96992 57.64704,4.96992 57.64704,4.96992 57.64704C4.66896 57.72912,3.62928 57.97536,3.51984 57.97536C3.2736 57.97536,3.10944 57.83856,3 57.64704C3 57.5376,3 57.5376,3 56.25168L3 54.96576L3.02736 54.85632C3.1368 54.58272,3.1368 54.58272,4.66896 54.19968L4.99728 54.1176L4.99728 50.47872L4.99728 46.83984L5.02464 46.7304C5.13408 46.53888,5.380319999999999 46.374719999999996,5.5992 46.374719999999996C5.68128 46.374719999999996,5.736 46.42944,5.81808 46.4568C5.9275199999999995 46.48416,6.03696 46.62096,6.11904 46.7304L6.1464 46.83984L6.1464 50.34192L6.1464 53.81664L6.31056 53.81664C6.36528 53.78928,6.85776 53.67984,7.350239999999999 53.5704L8.41728 53.24208L8.608799999999999 53.21472L8.608799999999999 49.49376L8.608799999999999 45.74544L8.63616 45.66336C8.71824 45.55392,8.80032 45.41712,8.93712 45.3624M8.608799999999999 59.75376C8.608799999999999 58.0848,8.608799999999999 56.74416,8.608799999999999 56.74416L8.608799999999999 56.74416C8.58144 56.74416,8.307839999999999 56.82624,7.97952 56.90832L6.7756799999999995 57.20928C6.47472 57.29136,6.2011199999999995 57.34608,6.2011199999999995 57.34608C6.1464 57.34608,6.1464 57.51024,6.1464 60.32832L6.1464 63.33792L6.31056 63.2832C6.36528 63.25584,6.85776 63.1464,7.350239999999999 63.03696L8.41728 62.76336L8.608799999999999 62.68128L8.608799999999999 59.75376"/></g></g></svg>