<?xml version="1.0" standalone="no"?><svg xmlns="http://www.w3.org/2000/svg" width="40" height="130"><path stroke-width="2" fill="none" stroke="black" stroke-dasharray="none" font-family="Arial" font-size="10pt" font-weight="normal" font-style="normal" d="M-15 30L85 30"/><path stroke-width="2" fill="none" stroke="black" stroke-dasharray="none" font-family="Arial" font-size="10pt" font-weight="normal" font-style="normal" d="M-15 40L85 40"/><path stroke-width="2" fill="none" stroke="black" stroke-dasharray="none" font-family="Arial" font-size="10pt" font-weight="normal" font-style="normal" d="M-15 50L85 50"/><path stroke-width="2" fill="none" stroke="black" stroke-dasharray="none" font-family="Arial" font-size="10pt" font-weight="normal" font-style="normal" d="M-15 60L85 60"/><path stroke-width="2" fill="none" stroke="black" stroke-dasharray="none" font-family="Arial" font-size="10pt" font-weight="normal" font-style="normal" d="M-15 70L85 70"/><rect stroke-width="0.3" fill="black" stroke="black" stroke-dasharray="none" font-family="Arial" font-size="10pt" font-weight="normal" font-style="normal" x="-15" y="29.5" width="1" height="41"/><rect stroke-width="0.3" fill="black" stroke="black" stroke-dasharray="none" font-family="Arial" font-size="10pt" font-weight="normal" font-style="normal" x="85" y="29.5" width="1" height="41"/><g class="vf-stavenote" id="vf-auto3371"><g class="vf-note" pointer-events="bounding-box"><g class="vf-stem" pointer-events="bounding-box"><path stroke-width="1.5" fill="none" stroke="black" stroke-dasharray="none" font-family="Arial" font-size="10pt" font-weight="normal" font-style="normal" x="85" y="29.5" width="1" height="41" d="M15.58728 25L15.58728 60"/></g><g class="vf-notehead" pointer-events="bounding-box"><path stroke-width="0.3" fill="black" stroke="none" stroke-dasharray="none" font-family="Arial" font-size="10pt" font-weight="normal" font-style="normal" x="85" y="29.5" width="1" height="41" d="M14.83728 25M22.19424 19.77712C22.30656 19.77712,22.47504 19.77712,22.50312 19.77712C22.50312 19.77712,22.5312 19.77712,22.5312 19.77712C22.5312 19.77712,22.69968 19.77712,22.84008 19.77712C25.36728 19.91752,26.85552 21.57424,26.85552 23.65216C26.85552 24.66304,26.51856 25.81432,25.67616 26.90944C24.0756 29.0716,21.46416 30.25096,19.18968 30.25096C17.42064 30.25096,15.90432 29.54896,15.17424 28.116880000000002C14.9496 27.55528,14.83728 27.02176,14.83728 26.43208C14.83728 23.37136,18.26304 19.97368,22.19424 19.77712"/></g></g><g class="vf-modifiers"><path stroke-width="0.3" fill="black" stroke="none" stroke-dasharray="none" font-family="Arial" font-size="10pt" font-weight="normal" font-style="normal" x="85" y="29.5" width="1" height="41" d="M3 25M8.93712 10.362400000000001C9.0192 10.307680000000001,9.04656 10.307680000000001,9.155999999999999 10.307680000000001C9.4296 10.307680000000001,9.62112 10.41712,9.703199999999999 10.66336L9.73056 10.74544L9.757919999999999 14.329600000000001L9.757919999999999 17.94112L10.46928 17.7496C10.87968 17.64016,11.18064 17.6128,11.37216 17.6128C11.6184 17.6128,11.72784 17.69488,11.80992 17.91376C11.83728 17.99584,11.83728 18.62512,11.83728 19.30912C11.83728 19.96576,11.83728 20.64976,11.80992 20.677120000000002C11.700479999999999 20.95072,11.6184 20.97808,10.87968 21.1696C9.94944 21.41584,9.757919999999999 21.4432,9.757919999999999 21.4432C9.757919999999999 21.4432,9.757919999999999 22.15456,9.757919999999999 23.2216C9.757919999999999 23.60464,9.757919999999999 24.01504,9.757919999999999 24.4528L9.757919999999999 27.40768L10.46928 27.21616C10.907039999999999 27.10672,11.18064 27.07936,11.37216 27.07936C11.50896 27.07936,11.6184 27.10672,11.700479999999999 27.21616C11.83728 27.38032,11.83728 27.35296,11.83728 28.36528L11.83728 28.77568L11.83728 29.21344C11.83728 30.22576,11.83728 30.1984,11.700479999999999 30.3352C11.59104 30.44464,11.6184 30.44464,10.359839999999998 30.7456C10.08624 30.82768,9.84 30.90976,9.81264 30.90976L9.757919999999999 30.90976L9.757919999999999 34.54864L9.73056 38.21488L9.703199999999999 38.32432C9.62112 38.5432,9.402239999999999 38.65264,9.155999999999999 38.65264C8.99184 38.65264,8.7456 38.5432,8.63616 38.32432L8.608799999999999 38.21488L8.608799999999999 34.7128L8.608799999999999 31.21072L8.58144 31.21072L7.95216 31.37488L6.7756799999999995 31.67584C6.47472 31.75792,6.2011199999999995 31.812640000000002,6.2011199999999995 31.812640000000002C6.1464 31.812640000000002,6.1464 32.00416,6.1464 35.5336L6.1464 39.30928L6.11904 39.39136C6.0096 39.61024,5.79072 39.71968,5.5992 39.71968C5.380319999999999 39.71968,5.13408 39.61024,5.02464 39.39136L4.99728 39.30928L4.99728 35.69776C4.99728 32.35984,4.99728 32.1136,4.96992 32.1136C4.96992 32.1136,4.96992 32.1136,4.96992 32.1136C4.66896 32.195679999999996,3.62928 32.46928,3.51984 32.46928C3.2736 32.46928,3.10944 32.30512,3 32.1136C3 32.00416,3 32.00416,3 30.71824L3 29.43232L3.02736 29.322879999999998C3.1368 29.04928,3.1368 29.04928,4.66896 28.66624L4.99728 28.58416L4.99728 25.60192C4.99728 22.83856,4.99728 22.64704,4.96992 22.64704C4.96992 22.64704,4.96992 22.64704,4.96992 22.64704C4.66896 22.72912,3.62928 22.975360000000002,3.51984 22.975360000000002C3.2736 22.975360000000002,3.10944 22.83856,3 22.64704C3 22.5376,3 22.5376,3 21.25168L3 19.96576L3.02736 19.85632C3.1368 19.582720000000002,3.1368 19.582720000000002,4.66896 19.19968L4.99728 19.1176L4.99728 15.478720000000001L4.99728 11.83984L5.02464 11.730400000000001C5.13408 11.53888,5.380319999999999 11.37472,5.5992 11.37472C5.68128 11.37472,5.736 11.429440000000001,5.81808 11.456800000000001C5.9275199999999995 11.484160000000001,6.03696 11.62096,6.11904 11.730400000000001L6.1464 11.83984L6.1464 15.34192L6.1464 18.81664L6.31056 18.81664C6.36528 18.78928,6.85776 18.67984,7.350239999999999 18.5704L8.41728 18.24208L8.608799999999999 18.21472L8.608799999999999 14.49376L8.608799999999999 10.74544L8.63616 10.66336C8.71824 10.55392,8.80032 10.41712,8.93712 10.362400000000001M8.608799999999999 24.75376C8.608799999999999 23.0848,8.608799999999999 21.74416,8.608799999999999 21.74416L8.608799999999999 21.74416C8.58144 21.74416,8.307839999999999 21.82624,7.97952 21.90832L6.7756799999999995 22.20928C6.47472 22.29136,6.2011199999999995 22.34608,6.2011199999999995 22.34608C6.1464 22.34608,6.1464 22.51024,6.1464 25.32832L6.1464 28.33792L6.31056 28.2832C6.36528 28.25584,6.85776 28.1464,7.350239999999999 28.03696L8.41728 27.76336L8.608799999999999 27.68128L8.608799999999999 24.75376"/></g></g></svg>