<?xml version="1.0" standalone="no"?><svg xmlns="http://www.w3.org/2000/svg" width="40" height="130"><path stroke-width="2" fill="none" stroke="black" stroke-dasharray="none" font-family="Arial" font-size="10pt" font-weight="normal" font-style="normal" d="M-15 30L85 30"/><path stroke-width="2" fill="none" stroke="black" stroke-dasharray="none" font-family="Arial" font-size="10pt" font-weight="normal" font-style="normal" d="M-15 40L85 40"/><path stroke-width="2" fill="none" stroke="black" stroke-dasharray="none" font-family="Arial" font-size="10pt" font-weight="normal" font-style="normal" d="M-15 50L85 50"/><path stroke-width="2" fill="none" stroke="black" stroke-dasharray="none" font-family="Arial" font-size="10pt" font-weight="normal" font-style="normal" d="M-15 60L85 60"/><path stroke-width="2" fill="none" stroke="black" stroke-dasharray="none" font-family="Arial" font-size="10pt" font-weight="normal" font-style="normal" d="M-15 70L85 70"/><rect stroke-width="0.3" fill="black" stroke="black" stroke-dasharray="none" font-family="Arial" font-size="10pt" font-weight="normal" font-style="normal" x="-15" y="29.5" width="1" height="41"/><rect stroke-width="0.3" fill="black" stroke="black" stroke-dasharray="none" font-family="Arial" font-size="10pt" font-weight="normal" font-style="normal" x="85" y="29.5" width="1" height="41"/><path stroke-width="2" fill="none" stroke="black" stroke-dasharray="none" font-family="Arial" font-size="10pt" font-weight="normal" font-style="normal" x="85" y="29.5" width="1" height="41" d="M11.83728 80L29.85552 80"/><path stroke-width="2" fill="none" stroke="black" stroke-dasharray="none" font-family="Arial" font-size="10pt" font-weight="normal" font-style="normal" x="85" y="29.5" width="1" height="41" d="M11.83728 90L29.85552 90"/><g class="vf-stavenote" id="vf-auto5327"><g class="vf-note" pointer-events="bounding-box"><g class="vf-stem" pointer-events="bounding-box"><path stroke-width="1.5" fill="none" stroke="black" stroke-dasharray="none" font-family="Arial" font-size="10pt" font-weight="normal" font-style="normal" x="85" y="29.5" width="1" height="41" d="M26.10552 95L26.10552 60"/></g><g class="vf-notehead" pointer-events="bounding-box"><path stroke-width="0.3" fill="black" stroke="none" stroke-dasharray="none" font-family="Arial" font-size="10pt" font-weight="normal" font-style="normal" x="85" y="29.5" width="1" height="41" d="M14.83728 95M22.19424 89.77712C22.30656 89.77712,22.47504 89.77712,22.50312 89.77712C22.50312 89.77712,22.5312 89.77712,22.5312 89.77712C22.5312 89.77712,22.69968 89.77712,22.84008 89.77712C25.36728 89.91752,26.85552 91.57424,26.85552 93.65216C26.85552 94.66304,26.51856 95.81432,25.67616 96.90944C24.0756 99.0716,21.46416 100.25096,19.18968 100.25096C17.42064 100.25096,15.90432 99.54896,15.17424 98.11688C14.9496 97.55528,14.83728 97.02176,14.83728 96.43208C14.83728 93.37136,18.26304 89.97368,22.19424 89.77712"/></g><g class="vf-flag" pointer-events="bounding-box"><path stroke-width="0.3" fill="black" stroke="none" stroke-dasharray="none" font-family="Arial" font-size="10pt" font-weight="normal" font-style="normal" x="85" y="29.5" width="1" height="41" d="M26.10552 58M25.4316 62.12776L25.4316 58.1404L25.54392 58.1404C25.768559999999997 58.1404,25.993199999999998 58.30888,26.07744 58.53352C26.273999999999997 59.20744,26.976 60.41488,27.73416 61.45384C28.71696 62.85784,29.86824 64.14952,31.609199999999998 65.80624C33.79944 67.99648,35.006879999999995 70.9168,35.006879999999995 74.0056C35.006879999999995 75.32536,34.75416 76.70128,34.36104 78.02104L34.22064 78.32992L34.36104 78.6388C34.75416 79.9024,35.006879999999995 81.22216,35.006879999999995 82.51384C35.006879999999995 85.04104000000001,34.19256 87.59632,32.704319999999996 89.78656000000001C32.50776 90.0112,32.39544 90.17967999999999,31.974239999999998 90.7132C31.83384 90.90976,31.609199999999998 91.05016,31.41264 91.05016C31.216079999999998 91.05016,31.01952 90.90976,30.9072 90.68512C30.87912 90.60088,30.82296 90.54472,30.82296 90.40432C30.82296 90.26392,30.93528 90.06736000000001,31.188 89.78656000000001C32.78856 87.87712,33.65904 85.378,33.65904 83.01928000000001C33.65904 82.87888000000001,33.65904 82.82272,33.65904 82.73848C33.65904 82.06456,33.54672 81.22216,33.46248 80.85712000000001C33.4344 80.77288,33.37824 80.63248,33.35016 80.464C32.844719999999995 78.52647999999999,31.66536 76.72936,30.092879999999997 75.63424C29.25048 75.01648,27.425279999999997 74.53912,25.880879999999998 74.53912C25.740479999999998 74.53912,25.572 74.53912,25.54392 74.53912L25.4316 74.53912L25.4316 70.60792000000001L25.4316 66.64864L25.54392 66.64864C25.768559999999997 66.64864,25.993199999999998 66.78904,26.07744 67.04176C26.273999999999997 67.6876,26.976 68.89504,27.73416 69.90592C28.71696 71.36608,29.9244 72.68584,31.55304 74.2864C32.3112 75.01648,32.985119999999995 75.8308,33.37824 76.53280000000001C33.37824 76.58896,33.4344 76.61704,33.4344 76.61704C33.46248 76.61704,33.46248 76.53280000000001,33.51864 76.42048C33.63096 75.74656,33.65904 75.1288,33.65904 74.48296C33.65904 73.89328,33.63096 73.27552,33.51864 72.62968000000001C33.51864 72.51736,33.46248 72.40504,33.46248 72.37696C33.4344 72.29272,33.37824 72.12424,33.35016 71.98384C32.844719999999995 70.01824,31.66536 68.2492,30.092879999999997 67.15408C29.25048 66.50824,27.425279999999997 66.08704,25.880879999999998 66.05896C25.740479999999998 66.05896,25.572 66.05896,25.54392 66.05896L25.4316 66.05896L25.4316 62.12776"/></g></g><g class="vf-modifiers"><path stroke-width="0.3" fill="black" stroke="none" stroke-dasharray="none" font-family="Arial" font-size="10pt" font-weight="normal" font-style="normal" x="85" y="29.5" width="1" height="41" d="M3 95M8.93712 80.36240000000001C9.0192 80.30768,9.04656 80.30768,9.155999999999999 80.30768C9.4296 80.30768,9.62112 80.41712,9.703199999999999 80.66336L9.73056 80.74544L9.757919999999999 84.3296L9.757919999999999 87.94112L10.46928 87.7496C10.87968 87.64016,11.18064 87.6128,11.37216 87.6128C11.6184 87.6128,11.72784 87.69488,11.80992 87.91376C11.83728 87.99584,11.83728 88.62512,11.83728 89.30912000000001C11.83728 89.96576,11.83728 90.64976,11.80992 90.67712C11.700479999999999 90.95072,11.6184 90.97808,10.87968 91.1696C9.94944 91.41584,9.757919999999999 91.4432,9.757919999999999 91.4432C9.757919999999999 91.4432,9.757919999999999 92.15456,9.757919999999999 93.2216C9.757919999999999 93.60464,9.757919999999999 94.01504,9.757919999999999 94.4528L9.757919999999999 97.40768L10.46928 97.21616C10.907039999999999 97.10672,11.18064 97.07936,11.37216 97.07936C11.50896 97.07936,11.6184 97.10672,11.700479999999999 97.21616C11.83728 97.38032,11.83728 97.35296,11.83728 98.36528L11.83728 98.77568L11.83728 99.21344C11.83728 100.22576,11.83728 100.19839999999999,11.700479999999999 100.3352C11.59104 100.44463999999999,11.6184 100.44463999999999,10.359839999999998 100.7456C10.08624 100.82768,9.84 100.90976,9.81264 100.90976L9.757919999999999 100.90976L9.757919999999999 104.54864L9.73056 108.21488L9.703199999999999 108.32432C9.62112 108.5432,9.402239999999999 108.65264,9.155999999999999 108.65264C8.99184 108.65264,8.7456 108.5432,8.63616 108.32432L8.608799999999999 108.21488L8.608799999999999 104.7128L8.608799999999999 101.21072L8.58144 101.21072L7.95216 101.37488L6.7756799999999995 101.67584C6.47472 101.75792,6.2011199999999995 101.81264,6.2011199999999995 101.81264C6.1464 101.81264,6.1464 102.00416,6.1464 105.5336L6.1464 109.30928L6.11904 109.39135999999999C6.0096 109.61024,5.79072 109.71968,5.5992 109.71968C5.380319999999999 109.71968,5.13408 109.61024,5.02464 109.39135999999999L4.99728 109.30928L4.99728 105.69776C4.99728 102.35984,4.99728 102.1136,4.96992 102.1136C4.96992 102.1136,4.96992 102.1136,4.96992 102.1136C4.66896 102.19568,3.62928 102.46928,3.51984 102.46928C3.2736 102.46928,3.10944 102.30512,3 102.1136C3 102.00416,3 102.00416,3 100.71824L3 99.43232L3.02736 99.32288C3.1368 99.04928,3.1368 99.04928,4.66896 98.66624L4.99728 98.58416L4.99728 95.60192C4.99728 92.83856,4.99728 92.64704,4.96992 92.64704C4.96992 92.64704,4.96992 92.64704,4.96992 92.64704C4.66896 92.72912,3.62928 92.97536,3.51984 92.97536C3.2736 92.97536,3.10944 92.83856,3 92.64704C3 92.5376,3 92.5376,3 91.25168L3 89.96576L3.02736 89.85632C3.1368 89.58272,3.1368 89.58272,4.66896 89.19968L4.99728 89.1176L4.99728 85.47872L4.99728 81.83984L5.02464 81.7304C5.13408 81.53888,5.380319999999999 81.37472,5.5992 81.37472C5.68128 81.37472,5.736 81.42944,5.81808 81.4568C5.9275199999999995 81.48416,6.03696 81.62096,6.11904 81.7304L6.1464 81.83984L6.1464 85.34192L6.1464 88.81664L6.31056 88.81664C6.36528 88.78928,6.85776 88.67984,7.350239999999999 88.5704L8.41728 88.24208L8.608799999999999 88.21472L8.608799999999999 84.49376L8.608799999999999 80.74544L8.63616 80.66336C8.71824 80.55392,8.80032 80.41712,8.93712 80.36240000000001M8.608799999999999 94.75376C8.608799999999999 93.0848,8.608799999999999 91.74416,8.608799999999999 91.74416L8.608799999999999 91.74416C8.58144 91.74416,8.307839999999999 91.82624,7.97952 91.90832L6.7756799999999995 92.20928C6.47472 92.29136,6.2011199999999995 92.34608,6.2011199999999995 92.34608C6.1464 92.34608,6.1464 92.51024,6.1464 95.32832L6.1464 98.33792L6.31056 98.2832C6.36528 98.25584,6.85776 98.1464,7.350239999999999 98.03696L8.41728 97.76336L8.608799999999999 97.68128L8.608799999999999 94.75376"/></g></g></svg>