<?xml version="1.0" encoding="UTF-8" standalone="no"?>
<!-- Generator: Adobe Illustrator 19.0.0, SVG Export Plug-In . SVG Version: 6.00 Build 0)  -->

<svg
   xmlns:dc="http://purl.org/dc/elements/1.1/"
   xmlns:cc="http://creativecommons.org/ns#"
   xmlns:rdf="http://www.w3.org/1999/02/22-rdf-syntax-ns#"
   xmlns:svg="http://www.w3.org/2000/svg"
   xmlns="http://www.w3.org/2000/svg"
   xmlns:sodipodi="http://sodipodi.sourceforge.net/DTD/sodipodi-0.dtd"
   xmlns:inkscape="http://www.inkscape.org/namespaces/inkscape"
   version="1.1"
   id="Capa_1"
   x="0px"
   y="0px"
   viewBox="0 0 512 512"
   style="enable-background:new 0 0 512 512;"
   xml:space="preserve"
   sodipodi:docname="sprout_dried.svg"
   inkscape:version="0.92.1 r15371"><metadata
     id="metadata43"><rdf:RDF><cc:Work
         rdf:about=""><dc:format>image/svg+xml</dc:format><dc:type
           rdf:resource="http://purl.org/dc/dcmitype/StillImage" /><dc:title></dc:title></cc:Work></rdf:RDF></metadata><defs
     id="defs41" /><sodipodi:namedview
     pagecolor="#ffffff"
     bordercolor="#666666"
     borderopacity="1"
     objecttolerance="10"
     gridtolerance="10"
     guidetolerance="10"
     inkscape:pageopacity="0"
     inkscape:pageshadow="2"
     inkscape:window-width="1366"
     inkscape:window-height="745"
     id="namedview39"
     showgrid="false"
     inkscape:zoom="0.4609375"
     inkscape:cx="512.47488"
     inkscape:cy="-120.311"
     inkscape:window-x="-8"
     inkscape:window-y="-8"
     inkscape:window-maximized="1"
     inkscape:current-layer="g6" /><g
     id="g6"><g
       id="g4"><path
         d="m 277.79331,429.54423 c -2.31385,-3.56249 5.83309,-10.49595 5.32952,-10.49251 -5.76315,0.0394 2.30431,-16.19746 -2.00876,-21.16465 -2.81915,-3.2467 -5.77716,-13.038 -5.96266,-13.79548 -1.05108,-4.29208 29.93486,-35.12162 29.80874,-36.41567 -0.18991,-1.94853 21.36462,-15.76385 20.96662,-16.10455 -1.55306,-1.32949 9.26351,-17.78572 8.51404,-19.50601 -1.82197,-4.18204 -10.06674,-4.58795 -14.34581,-6.30336 l -9.557,-3.823 c -10.018,-4.002 -20.48,-6.34 -31.164,-7.134 2.441,-4.463 5.222,-9.958 8.09,-16.384 9.037,-8.875 20.702,-12.629 36.54,-17.451 16.785,7.509 32.034,11.426 45.474,11.426 7.945,0 15.275,-1.314 21.973,-3.942 22.332,-8.772 30.549,-29.286 33.638,-37.009 0.29,-0.708 0.512,-1.297 0.708,-1.715 1.946,-4.25 0.026,-9.31 -4.198,-11.307 l -1.485,-0.777 c -23.808,-12.749 -45.158,-16.094 -63.505,-9.907 -16.094,5.427 -29.022,17.997 -38.545,37.205 -7.501,2.287 -14.362,4.48 -20.685,7.151 2.475,-7.945 4.685,-16.529 6.374,-25.685 0.196,-0.529 0.486,-1.024 0.58,-1.596 0.085,-0.529 -0.026,-1.041 -0.043,-1.57 2.492,-14.737 3.575,-30.797 2.261,-47.71 10.266,1.929 19.985,2.918 29.107,2.918 19.473,0 36.318,-4.395 50.338,-13.167 20.343,-12.74 33.818,-34.099 40.055,-63.488 l 0.358,-1.664 c 0.521,-2.202 0.137,-4.523 -1.05,-6.443 -1.195,-1.929 -3.106,-3.302 -5.299,-3.823 -9.865,-2.313 -88.235,-18.364 -121.293,45.295 -3.994,-12.689 -9.651,-25.609 -17.229,-38.588 C 281.214,69.182 272.928,47.26 256.774,31.473 243.505,18.494 218.033,3.185 172.055,4.286 l -1.391,0.026 c -4.71,0 -8.533,3.823 -8.533,8.533 l -0.034,1.741 c -0.239,10.027 -0.973,40.542 22.238,64.026 18.014,18.236 46.063,27.605 83.311,28.032 11.537,20.139 18.031,40.021 20.932,58.897 0.017,0.171 -0.008,0.333 0.017,0.503 0.017,0.128 0.068,0.239 0.094,0.367 1.195,8.021 1.749,15.863 1.801,23.467 -4.992,-6.869 -10.991,-12.57 -18.099,-16.905 -17.835,-10.871 -42.325,-13.09 -68.983,-6.204 l -0.725,0.188 c -4.523,1.101 -7.33,5.632 -6.298,10.18 l 0.256,1.212 c 1.698,8.26 6.861,33.374 30.097,47.889 10.684,6.673 23.543,10.01 38.443,10.01 6.289,0 12.979,-0.666 19.977,-1.852 -3.226,13.261 -7.509,24.943 -11.759,34.586 -0.307,0.546 -0.563,1.084 -0.734,1.673 -5.035,11.162 -9.89,19.362 -12.698,23.782 h -7.765 c -11.17,0 -21.666,5.948 -27.409,15.514 l -3.21659,6.11881 29.66352,35.53278 12.93604,43.59113 5.484,21.94625 m 74.76954,90.56462 -58.77209,-66.05365 -25.47673,32.60381 -15.68445,20.8488 3.60855,12.6047 m -20.99528,0.0556 7.2494,-30.51881 20.5458,-20.63669 10.86674,-19.40652 -11.16864,-11.00414 -3.74807,-46.8929 -14.70115,-25.26074 -22.11266,-23.63977 -5.53793,6.69973 h -26.206 c -10.035,0 -19.499,4.873 -25.335,13.039 l -23.91,33.468 c 32.77864,13.67122 89.27483,40.84354 92.73535,47.70241 0.46465,0.92094 -10.25488,44.29997 -13.86934,50.57262 -1.41183,2.45014 0.38088,25.87099 -6.323,25.89334 m -17.46926,-0.14348 c -5.42317,-0.11102 15.73757,-45.6187 13.01571,-46.25726 -5.13257,-1.20412 7.24009,-14.55618 3.45467,-22.48243 -5.10548,-10.69034 -25.78209,-16.53674 -28.06927,-16.8055 -9.01843,-1.05969 -13.18312,-12.20641 -27.76758,-18.40693 -12.2691,-5.21616 -35.27532,-5.58669 -41.40128,-6.84577 -16.38255,-3.36715 -32.068,8.422 -41.045,22.537 l -45.397,71.33 H 8.533 c -4.71,0 -8.533,3.823 -8.533,8.533 0,4.71 3.823,8.533 8.533,8.533 H 25.6 m 460.8,0 h 17.067 c 4.71,0 8.533,-3.823 8.533,-8.533 0,-4.71 -3.823,-8.533 -8.533,-8.533 v -1e-5 H 491.35 l -52.34576,-91.60854 -13.87477,-21.01851 -57.84854,59.67507 6.89985,45.43584 -13.47958,24.62716 m -16.27169,-0.11143 14.23348,-13.84668 4.09132,-29.00841 -8.25166,-20.77115 1.00536,-24.07327 35.8346,-25.8887 20.8989,-41.85645 L 400.086,330.987 c -6.869,-12.015 -19.729,-19.482 -33.57,-19.482 h -16.623 c -1.29358,0 -4.21088,8.10486 -5.49703,8.04349 -0.87765,-0.0419 -10.63453,19.22401 -13.5978,21.54101 -1.05511,0.825 -14.73227,21.58409 -18.46732,22.94877 -0.57961,0.21177 -16.95509,12.41439 -17.79428,21.26892 -0.92572,9.76762 13.58428,16.34325 10.63355,18.19301 -1.34616,0.84389 5.71452,30.95582 -1.9966,34.43728 -1.75178,0.7909 -14.61955,8.14237 -17.5161,3.71346"
         id="path2"
         inkscape:connector-curvature="0"
         sodipodi:nodetypes="csssssscccccsccccccccccccsccccccccccccccccccccccccsccccscccccccccccccccccccsccssccsssssccsssccssscccccccccccccccssssssssc" /></g></g><g
     id="g8" /><g
     id="g10" /><g
     id="g12" /><g
     id="g14" /><g
     id="g16" /><g
     id="g18" /><g
     id="g20" /><g
     id="g22" /><g
     id="g24" /><g
     id="g26" /><g
     id="g28" /><g
     id="g30" /><g
     id="g32" /><g
     id="g34" /><g
     id="g36" /></svg>