<?xml version="1.0" encoding="iso-8859-1"?>
<!-- Generator: Adobe Illustrator 19.0.0, SVG Export Plug-In . SVG Version: 6.00 Build 0)  -->
<svg version="1.1" id="Capa_1" xmlns="http://www.w3.org/2000/svg" xmlns:xlink="http://www.w3.org/1999/xlink" x="0px" y="0px"
	 viewBox="0 0 512 512" style="enable-background:new 0 0 512 512;" xml:space="preserve">
<g>
	<g>
		<path d="M503.467,490.705H491.35l-91.264-159.718c-6.869-12.015-19.729-19.482-33.57-19.482h-16.623
			c-10.249,0-20.284-1.929-29.798-5.743l-9.557-3.823c-10.018-4.002-20.48-6.34-31.164-7.134c2.441-4.463,5.222-9.958,8.09-16.384
			c9.037-8.875,20.702-12.629,36.54-17.451c16.785,7.509,32.034,11.426,45.474,11.426c7.945,0,15.275-1.314,21.973-3.942
			c22.332-8.772,30.549-29.286,33.638-37.009c0.29-0.708,0.512-1.297,0.708-1.715c1.946-4.25,0.026-9.31-4.198-11.307l-1.485-0.777
			c-23.808-12.749-45.158-16.094-63.505-9.907c-16.094,5.427-29.022,17.997-38.545,37.205c-7.501,2.287-14.362,4.48-20.685,7.151
			c2.475-7.945,4.685-16.529,6.374-25.685c0.196-0.529,0.486-1.024,0.58-1.596c0.085-0.529-0.026-1.041-0.043-1.57
			c2.492-14.737,3.575-30.797,2.261-47.71c10.266,1.929,19.985,2.918,29.107,2.918c19.473,0,36.318-4.395,50.338-13.167
			c20.343-12.74,33.818-34.099,40.055-63.488l0.358-1.664c0.521-2.202,0.137-4.523-1.05-6.443c-1.195-1.929-3.106-3.302-5.299-3.823
			c-9.865-2.313-88.235-18.364-121.293,45.295c-3.994-12.689-9.651-25.609-17.229-38.588c-0.324-27.392-8.61-49.314-24.764-65.101
			c-13.269-12.979-38.741-28.288-84.719-27.187l-1.391,0.026c-4.71,0-8.533,3.823-8.533,8.533l-0.034,1.741
			c-0.239,10.027-0.973,40.542,22.238,64.026c18.014,18.236,46.063,27.605,83.311,28.032c11.537,20.139,18.031,40.021,20.932,58.897
			c0.017,0.171-0.008,0.333,0.017,0.503c0.017,0.128,0.068,0.239,0.094,0.367c1.195,8.021,1.749,15.863,1.801,23.467
			c-4.992-6.869-10.991-12.57-18.099-16.905c-17.835-10.871-42.325-13.09-68.983-6.204l-0.725,0.188
			c-4.523,1.101-7.33,5.632-6.298,10.18l0.256,1.212c1.698,8.26,6.861,33.374,30.097,47.889c10.684,6.673,23.543,10.01,38.443,10.01
			c6.289,0,12.979-0.666,19.977-1.852c-3.226,13.261-7.509,24.943-11.759,34.586c-0.307,0.546-0.563,1.084-0.734,1.673
			c-5.035,11.162-9.89,19.362-12.698,23.782h-7.765c-11.17,0-21.666,5.948-27.409,15.514l-16.29,27.153h-26.206
			c-10.035,0-19.499,4.873-25.335,13.039l-23.91,33.468c-5.914,8.277-15.522,13.227-25.694,13.227
			c-16.725,0-32.068,8.422-41.045,22.537l-45.397,71.33H8.533c-4.71,0-8.533,3.823-8.533,8.533c0,4.71,3.823,8.533,8.533,8.533H25.6
			h460.8h17.067c4.71,0,8.533-3.823,8.533-8.533C512,494.528,508.177,490.705,503.467,490.705z"/>
	</g>
</g>
<g>
</g>
<g>
</g>
<g>
</g>
<g>
</g>
<g>
</g>
<g>
</g>
<g>
</g>
<g>
</g>
<g>
</g>
<g>
</g>
<g>
</g>
<g>
</g>
<g>
</g>
<g>
</g>
<g>
</g>
</svg>
