<?xml version="1.0" encoding="UTF-8" standalone="no"?>
<!-- Generator: Adobe Illustrator 19.0.0, SVG Export Plug-In . SVG Version: 6.00 Build 0)  -->

<svg
   xmlns:dc="http://purl.org/dc/elements/1.1/"
   xmlns:cc="http://creativecommons.org/ns#"
   xmlns:rdf="http://www.w3.org/1999/02/22-rdf-syntax-ns#"
   xmlns:svg="http://www.w3.org/2000/svg"
   xmlns="http://www.w3.org/2000/svg"
   xmlns:sodipodi="http://sodipodi.sourceforge.net/DTD/sodipodi-0.dtd"
   xmlns:inkscape="http://www.inkscape.org/namespaces/inkscape"
   version="1.1"
   id="Capa_1"
   x="0px"
   y="0px"
   viewBox="0 0 60 75"
   xml:space="preserve"
   sodipodi:docname="stop-button.svg"
   width="60"
   height="75"
   inkscape:version="0.92.1 r15371"><metadata
     id="metadata39"><rdf:RDF><cc:Work
         rdf:about=""><dc:format>image/svg+xml</dc:format><dc:type
           rdf:resource="http://purl.org/dc/dcmitype/StillImage" /><dc:title></dc:title></cc:Work></rdf:RDF></metadata><defs
     id="defs37" /><sodipodi:namedview
     pagecolor="#ffffff"
     bordercolor="#666666"
     borderopacity="1"
     objecttolerance="10"
     gridtolerance="10"
     guidetolerance="10"
     inkscape:pageopacity="0"
     inkscape:pageshadow="2"
     inkscape:window-width="1366"
     inkscape:window-height="745"
     id="namedview35"
     showgrid="false"
     inkscape:zoom="3.9333333"
     inkscape:cx="-30.381356"
     inkscape:cy="30"
     inkscape:window-x="-8"
     inkscape:window-y="-8"
     inkscape:window-maximized="1"
     inkscape:current-layer="Capa_1" /><path
     d="M 30,15 C 13.458,15 0,28.458 0,45 0,61.542 13.458,75 30,75 46.542,75 60,61.542 60,45 60,28.458 46.542,15 30,15 Z M 41.711864,56.457627 18.288136,56.711864 18.542373,34.305085 41.966102,33.79661 Z"
     id="path2"
     inkscape:connector-curvature="0"
     sodipodi:nodetypes="sssssccccc" /><g
     id="g4"
     transform="translate(0,15)" /><g
     id="g6"
     transform="translate(0,15)" /><g
     id="g8"
     transform="translate(0,15)" /><g
     id="g10"
     transform="translate(0,15)" /><g
     id="g12"
     transform="translate(0,15)" /><g
     id="g14"
     transform="translate(0,15)" /><g
     id="g16"
     transform="translate(0,15)" /><g
     id="g18"
     transform="translate(0,15)" /><g
     id="g20"
     transform="translate(0,15)" /><g
     id="g22"
     transform="translate(0,15)" /><g
     id="g24"
     transform="translate(0,15)" /><g
     id="g26"
     transform="translate(0,15)" /><g
     id="g28"
     transform="translate(0,15)" /><g
     id="g30"
     transform="translate(0,15)" /><g
     id="g32"
     transform="translate(0,15)" /></svg>