<?xml version="1.0" encoding="UTF-8" standalone="no"?>
<!-- Generator: Adobe Illustrator 19.0.0, SVG Export Plug-In . SVG Version: 6.00 Build 0)  -->

<svg
   xmlns:dc="http://purl.org/dc/elements/1.1/"
   xmlns:cc="http://creativecommons.org/ns#"
   xmlns:rdf="http://www.w3.org/1999/02/22-rdf-syntax-ns#"
   xmlns:svg="http://www.w3.org/2000/svg"
   xmlns="http://www.w3.org/2000/svg"
   xmlns:sodipodi="http://sodipodi.sourceforge.net/DTD/sodipodi-0.dtd"
   xmlns:inkscape="http://www.inkscape.org/namespaces/inkscape"
   version="1.1"
   id="Capa_1"
   x="0px"
   y="0px"
   viewBox="0 0 60 60"
   style="enable-background:new 0 0 60 60;"
   xml:space="preserve"
   sodipodi:docname="telemetry_in.svg"
   inkscape:version="0.92.1 r15371"><metadata
     id="metadata43"><rdf:RDF><cc:Work
         rdf:about=""><dc:format>image/svg+xml</dc:format><dc:type
           rdf:resource="http://purl.org/dc/dcmitype/StillImage" /><dc:title></dc:title></cc:Work></rdf:RDF></metadata><defs
     id="defs41" /><sodipodi:namedview
     pagecolor="#ffffff"
     bordercolor="#666666"
     borderopacity="1"
     objecttolerance="10"
     gridtolerance="10"
     guidetolerance="10"
     inkscape:pageopacity="0"
     inkscape:pageshadow="2"
     inkscape:window-width="1366"
     inkscape:window-height="745"
     id="namedview39"
     showgrid="false"
     inkscape:zoom="3.9333333"
     inkscape:cx="30"
     inkscape:cy="30"
     inkscape:window-x="-8"
     inkscape:window-y="-8"
     inkscape:window-maximized="1"
     inkscape:current-layer="Capa_1" /><path
     inkscape:connector-curvature="0"
     id="path2"
     d="M 50.976,20.694 C 50.448,11.694 43.029,4.5 34.084,4.5 28.654,4.5 23.396,7.163 20.139,11.508 20.064,11.469 19.985,11.442 19.909,11.406 19.711,11.31 19.51,11.219 19.305,11.137 19.191,11.092 19.077,11.051 18.962,11.011 18.759,10.94 18.553,10.877 18.343,10.82 18.228,10.789 18.114,10.757 17.998,10.731 17.773,10.68 17.543,10.641 17.311,10.606 17.21,10.591 17.111,10.571 17.009,10.56 16.677,10.523 16.341,10.5 16,10.5 c -4.963,0 -9,4.037 -9,9 0,0.129 0.008,0.255 0.017,0.381 C 2.857,22.148 0,26.899 0,31.654 0,38.737 5.762,44.5 12.845,44.5 H 18 c 0.553,0 1,-0.447 1,-1 0,-0.553 -0.447,-1 -1,-1 H 12.845 C 6.865,42.5 2,37.635 2,31.654 2,27.5 4.705,23.188 8.433,21.401 L 9,21.13 V 20.5 C 9,20.38 9.008,20.258 9.015,20.135 L 9.026,19.95 9.013,19.756 C 9.007,19.671 9,19.586 9,19.5 c 0,-3.859 3.141,-7 7,-7 0.309,0 0.614,0.027 0.917,0.067 0.078,0.01 0.156,0.023 0.233,0.036 0.267,0.044 0.53,0.102 0.789,0.177 0.035,0.01 0.071,0.017 0.106,0.027 0.285,0.087 0.563,0.197 0.835,0.321 0.071,0.032 0.14,0.067 0.21,0.101 0.24,0.119 0.475,0.249 0.702,0.396 1.927,1.248 3.208,3.413 3.208,5.875 0,0.553 0.447,1 1,1 0.553,0 1,-0.447 1,-1 0,-2.754 -1.246,-5.219 -3.2,-6.871 2.867,-3.75 7.588,-6.129 12.284,-6.129 7.745,0 14.178,6.135 14.849,13.888 -1.021,-0.072 -2.552,-0.109 -4.083,0.124 -0.546,0.083 -0.921,0.593 -0.838,1.139 0.075,0.495 0.501,0.85 0.987,0.85 0.05,0 0.101,-0.004 0.151,-0.012 2.227,-0.337 4.548,-0.021 4.684,-0.002 C 54.49,23.372 58,27.661 58,32.472 58,38.001 53.501,42.5 47.972,42.5 H 44 c -0.553,0 -1,0.447 -1,1 0,0.553 0.447,1 1,1 h 3.972 C 54.604,44.5 60,39.104 60,32.472 60,26.983 56.173,22.06 50.976,20.694 Z"
     style="stroke:#000000;stroke-opacity:1;stroke-width:1.51181102;stroke-miterlimit:4;stroke-dasharray:none" /><path
     inkscape:connector-curvature="0"
     id="path4"
     d="M 38.293,45.793 32,52.086 V 31.5 c 0,-0.553 -0.447,-1 -1,-1 -0.553,0 -1,0.447 -1,1 v 20.586 l -6.293,-6.293 c -0.391,-0.391 -1.023,-0.391 -1.414,0 -0.391,0.391 -0.391,1.023 0,1.414 l 7.999,7.999 c 0.092,0.093 0.203,0.166 0.326,0.217 0.122,0.051 0.252,0.077 0.382,0.077 0.13,0 0.26,-0.026 0.382,-0.077 0.123,-0.051 0.234,-0.124 0.326,-0.217 l 7.999,-7.999 c 0.391,-0.391 0.391,-1.023 0,-1.414 -0.391,-0.391 -1.023,-0.391 -1.414,0 z"
     style="stroke-width:1.51181102;stroke-miterlimit:4;stroke-dasharray:none;stroke:#000000;stroke-opacity:1" /><g
     id="g8" /><g
     id="g10" /><g
     id="g12" /><g
     id="g14" /><g
     id="g16" /><g
     id="g18" /><g
     id="g20" /><g
     id="g22" /><g
     id="g24" /><g
     id="g26" /><g
     id="g28" /><g
     id="g30" /><g
     id="g32" /><g
     id="g34" /><g
     id="g36" /></svg>