<?xml version="1.0" encoding="UTF-8" standalone="no"?>
<!-- Generator: Adobe Illustrator 19.0.0, SVG Export Plug-In . SVG Version: 6.00 Build 0)  -->

<svg
   xmlns:dc="http://purl.org/dc/elements/1.1/"
   xmlns:cc="http://creativecommons.org/ns#"
   xmlns:rdf="http://www.w3.org/1999/02/22-rdf-syntax-ns#"
   xmlns:svg="http://www.w3.org/2000/svg"
   xmlns="http://www.w3.org/2000/svg"
   xmlns:sodipodi="http://sodipodi.sourceforge.net/DTD/sodipodi-0.dtd"
   xmlns:inkscape="http://www.inkscape.org/namespaces/inkscape"
   version="1.1"
   id="Capa_1"
   x="0px"
   y="0px"
   viewBox="0 0 60 60"
   style="enable-background:new 0 0 60 60;"
   xml:space="preserve"
   sodipodi:docname="telemetry_out.svg"
   inkscape:version="0.92.1 r15371"><metadata
     id="metadata43"><rdf:RDF><cc:Work
         rdf:about=""><dc:format>image/svg+xml</dc:format><dc:type
           rdf:resource="http://purl.org/dc/dcmitype/StillImage" /><dc:title></dc:title></cc:Work></rdf:RDF></metadata><defs
     id="defs41" /><sodipodi:namedview
     pagecolor="#ffffff"
     bordercolor="#666666"
     borderopacity="1"
     objecttolerance="10"
     gridtolerance="10"
     guidetolerance="10"
     inkscape:pageopacity="0"
     inkscape:pageshadow="2"
     inkscape:window-width="1366"
     inkscape:window-height="745"
     id="namedview39"
     showgrid="false"
     inkscape:zoom="3.9333333"
     inkscape:cx="30"
     inkscape:cy="30"
     inkscape:window-x="-8"
     inkscape:window-y="-8"
     inkscape:window-maximized="1"
     inkscape:current-layer="Capa_1" /><path
     style="stroke-width:1.51181102;stroke-miterlimit:4;stroke-dasharray:none;stroke:#000000;stroke-opacity:1"
     inkscape:connector-curvature="0"
     id="path2"
     d="M 50.975,20.694 C 50.448,11.694 43.029,4.5 34.084,4.5 28.654,4.5 23.396,7.163 20.138,11.508 20.064,11.469 19.985,11.443 19.91,11.406 19.712,11.31 19.511,11.218 19.305,11.137 19.19,11.092 19.075,11.051 18.959,11.01 18.757,10.939 18.553,10.877 18.344,10.82 18.228,10.789 18.113,10.757 17.995,10.73 17.771,10.679 17.543,10.64 17.312,10.606 17.21,10.591 17.11,10.571 17.007,10.559 16.677,10.523 16.341,10.5 16,10.5 c -4.962,0 -9,4.037 -9,9 0,0.129 0.007,0.255 0.016,0.381 C 2.857,22.148 0,26.899 0,31.654 0,38.737 5.762,44.5 12.845,44.5 H 18 c 0.552,0 1,-0.447 1,-1 0,-0.553 -0.448,-1 -1,-1 H 12.845 C 6.865,42.5 2,37.635 2,31.654 2,27.5 4.705,23.188 8.432,21.401 L 9,21.13 V 20.5 C 9,20.377 9.008,20.251 9.015,20.125 L 9.024,19.95 9.012,19.762 C 9.007,19.675 9,19.588 9,19.5 c 0,-3.859 3.14,-7 7,-7 0.309,0 0.614,0.027 0.917,0.067 0.078,0.01 0.155,0.023 0.232,0.036 0.268,0.044 0.532,0.102 0.792,0.177 0.034,0.01 0.069,0.016 0.102,0.026 0.286,0.087 0.565,0.198 0.838,0.322 0.069,0.031 0.137,0.065 0.205,0.099 0.242,0.119 0.479,0.251 0.707,0.399 C 21.72,14.875 23,17.039 23,19.5 c 0,0.553 0.448,1 1,1 0.552,0 1,-0.447 1,-1 0,-2.754 -1.246,-5.219 -3.2,-6.871 2.866,-3.75 7.588,-6.129 12.284,-6.129 7.744,0 14.178,6.135 14.848,13.887 -1.022,-0.072 -2.553,-0.109 -4.083,0.125 -0.546,0.083 -0.921,0.593 -0.838,1.139 0.075,0.495 0.501,0.85 0.987,0.85 0.05,0 0.101,-0.004 0.152,-0.012 2.224,-0.336 4.543,-0.021 4.684,-0.002 C 54.49,23.372 58,27.661 58,32.472 58,38.001 53.501,42.5 47.972,42.5 H 44 c -0.552,0 -1,0.447 -1,1 0,0.553 0.448,1 1,1 h 3.972 C 54.604,44.5 60,39.104 60,32.472 60,26.983 56.173,22.06 50.975,20.694 Z" /><path
     style="stroke-width:1.51181102;stroke-miterlimit:4;stroke-dasharray:none;stroke:#000000;stroke-opacity:1"
     inkscape:connector-curvature="0"
     id="path4"
     d="m 31.708,30.794 c -0.092,-0.093 -0.203,-0.166 -0.326,-0.217 -0.244,-0.101 -0.52,-0.101 -0.764,0 -0.123,0.051 -0.233,0.124 -0.326,0.217 l -7.999,7.999 c -0.391,0.391 -0.391,1.023 0,1.414 0.195,0.195 0.451,0.293 0.707,0.293 0.256,0 0.512,-0.098 0.707,-0.293 L 30,33.914 V 54.5 c 0,0.553 0.448,1 1,1 0.552,0 1,-0.447 1,-1 V 33.914 l 6.293,6.293 c 0.195,0.195 0.451,0.293 0.707,0.293 0.256,0 0.512,-0.098 0.707,-0.293 0.391,-0.391 0.391,-1.023 0,-1.414 z" /><g
     id="g8" /><g
     id="g10" /><g
     id="g12" /><g
     id="g14" /><g
     id="g16" /><g
     id="g18" /><g
     id="g20" /><g
     id="g22" /><g
     id="g24" /><g
     id="g26" /><g
     id="g28" /><g
     id="g30" /><g
     id="g32" /><g
     id="g34" /><g
     id="g36" /></svg>