<?xml version="1.0" encoding="UTF-8" standalone="no"?>
<!-- Generator: Adobe Illustrator 16.0.0, SVG Export Plug-In . SVG Version: 6.00 Build 0)  -->

<svg
   xmlns:dc="http://purl.org/dc/elements/1.1/"
   xmlns:cc="http://creativecommons.org/ns#"
   xmlns:rdf="http://www.w3.org/1999/02/22-rdf-syntax-ns#"
   xmlns:svg="http://www.w3.org/2000/svg"
   xmlns="http://www.w3.org/2000/svg"
   xmlns:sodipodi="http://sodipodi.sourceforge.net/DTD/sodipodi-0.dtd"
   xmlns:inkscape="http://www.inkscape.org/namespaces/inkscape"
   version="1.1"
   id="Capa_1"
   x="0px"
   y="0px"
   width="459px"
   height="459px"
   viewBox="0 0 459 459"
   style="enable-background:new 0 0 459 459;"
   xml:space="preserve"
   sodipodi:docname="turn.svg"
   inkscape:version="0.92.1 r15371"><metadata
     id="metadata42"><rdf:RDF><cc:Work
         rdf:about=""><dc:format>image/svg+xml</dc:format><dc:type
           rdf:resource="http://purl.org/dc/dcmitype/StillImage" /><dc:title></dc:title></cc:Work></rdf:RDF></metadata><defs
     id="defs40" /><sodipodi:namedview
     pagecolor="#ffffff"
     bordercolor="#666666"
     borderopacity="1"
     objecttolerance="10"
     gridtolerance="10"
     guidetolerance="10"
     inkscape:pageopacity="0"
     inkscape:pageshadow="2"
     inkscape:window-width="866"
     inkscape:window-height="480"
     id="namedview38"
     showgrid="false"
     inkscape:zoom="0.51416122"
     inkscape:cx="229.5"
     inkscape:cy="229.5"
     inkscape:window-x="0"
     inkscape:window-y="0"
     inkscape:window-maximized="0"
     inkscape:current-layer="Capa_1" /><g
     id="g5"><g
       id="sync-problem"><path
         d="m 0,229.5 c 0,56.1 22.95,107.1 61.2,142.8 L 0,433.5 h 153 v -153 L 96.9,336.6 C 68.85,311.1 51,272.85 51,229.5 51,163.2 94.35,107.1 153,84.15 v -51 C 66.3,56.1 0,135.15 0,229.5 Z M 459,25.5 H 306 v 153 l 56.1,-56.1 c 28.051,25.5 45.9,63.75 45.9,107.1 0,66.3 -43.35,122.4 -102,145.35 v 53.55 c 86.7,-22.95 153,-102 153,-196.351 0,-56.1 -22.95,-107.1 -61.2,-142.8 z"
         id="path2"
         inkscape:connector-curvature="0"
         sodipodi:nodetypes="scccccsccsccccsccscc" /></g></g><g
     id="g7" /><g
     id="g9" /><g
     id="g11" /><g
     id="g13" /><g
     id="g15" /><g
     id="g17" /><g
     id="g19" /><g
     id="g21" /><g
     id="g23" /><g
     id="g25" /><g
     id="g27" /><g
     id="g29" /><g
     id="g31" /><g
     id="g33" /><g
     id="g35" /></svg>