<?xml version="1.0" encoding="UTF-8" standalone="no"?>
<!-- Created with Inkscape (http://www.inkscape.org/) -->

<svg
   xmlns:dc="http://purl.org/dc/elements/1.1/"
   xmlns:cc="http://creativecommons.org/ns#"
   xmlns:rdf="http://www.w3.org/1999/02/22-rdf-syntax-ns#"
   xmlns:svg="http://www.w3.org/2000/svg"
   xmlns="http://www.w3.org/2000/svg"
   xmlns:xlink="http://www.w3.org/1999/xlink"
   xmlns:sodipodi="http://sodipodi.sourceforge.net/DTD/sodipodi-0.dtd"
   xmlns:inkscape="http://www.inkscape.org/namespaces/inkscape"
   id="svg3004"
   version="1.1"
   inkscape:version="0.48.5 r10040"
   width="480"
   height="479"
   sodipodi:docname="Turtle_School_Symbol.svg">
  <metadata
     id="metadata3010">
    <rdf:RDF>
      <cc:Work
         rdf:about="">
        <dc:format>image/svg+xml</dc:format>
        <dc:type
           rdf:resource="http://purl.org/dc/dcmitype/StillImage" />
        <dc:title></dc:title>
      </cc:Work>
    </rdf:RDF>
  </metadata>
  <defs
     id="defs3008">
    <linearGradient
       inkscape:collect="always"
       id="linearGradient3788">
      <stop
         style="stop-color:#cccccc;stop-opacity:1;"
         offset="0"
         id="stop3790" />
      <stop
         style="stop-color:#cccccc;stop-opacity:0;"
         offset="1"
         id="stop3792" />
    </linearGradient>
    <linearGradient
       inkscape:collect="always"
       xlink:href="#linearGradient3788"
       id="linearGradient3794"
       x1="-133.52675"
       y1="53.020641"
       x2="-77.94751"
       y2="-38.007954"
       gradientUnits="userSpaceOnUse" />
  </defs>
  <sodipodi:namedview
     pagecolor="#ffffff"
     bordercolor="#666666"
     borderopacity="1"
     objecttolerance="10"
     gridtolerance="10"
     guidetolerance="10"
     inkscape:pageopacity="0"
     inkscape:pageshadow="2"
     inkscape:window-width="1088"
     inkscape:window-height="872"
     id="namedview3006"
     showgrid="false"
     inkscape:zoom="0.97439388"
     inkscape:cx="231.13595"
     inkscape:cy="218.08084"
     inkscape:window-x="736"
     inkscape:window-y="25"
     inkscape:window-maximized="0"
     inkscape:current-layer="svg3004" />
  <path
     sodipodi:type="arc"
     style="opacity:0.99166667;fill:#1a1a1a;fill-opacity:1;fill-rule:evenodd;stroke:none"
     id="path3014"
     sodipodi:cx="212.48796"
     sodipodi:cy="235.24022"
     sodipodi:rx="268.61685"
     sodipodi:ry="226.11928"
     d="m 481.10481,235.24022 a 268.61685,226.11928 0 1 1 -537.233701,0 268.61685,226.11928 0 1 1 537.233701,0 z"
     transform="matrix(0.89068623,0,0,1.0531915,50.56662,-8.5035703)" />
  <path
     sodipodi:type="arc"
     style="opacity:0.05833333;fill:#ffffff;fill-opacity:1;fill-rule:evenodd;stroke:none"
     id="path3839"
     sodipodi:cx="-40.024883"
     sodipodi:cy="-177.81857"
     sodipodi:rx="247.33324"
     sodipodi:ry="233.99162"
     d="m 207.30835,-177.81857 a 247.33324,233.99162 0 1 1 -494.66647,0 247.33324,233.99162 0 1 1 494.66647,0 z"
     transform="matrix(0.9605809,0,0,1.0087719,278.08329,418.22909)" />
  <path
     sodipodi:type="arc"
     style="opacity:0.99166666999999997;fill:#ffffff;fill-opacity:1;fill-rule:evenodd;stroke:none"
     id="path3016"
     sodipodi:cx="29.668131"
     sodipodi:cy="269.71939"
     sodipodi:rx="129.09647"
     sodipodi:ry="137.11488"
     d="m 158.7646,269.71939 a 129.09647,137.11488 0 1 1 -258.192935,0 129.09647,137.11488 0 1 1 258.192935,0 z"
     transform="matrix(1.6521739,0,0,1.5614035,191.53551,-179.08033)" />
  <path
     style="opacity:0.99166667;fill:#000000;fill-opacity:1;fill-rule:evenodd;stroke:none"
     d="m 329.13466,325.16465 c 0,0 -7.81102,25.08912 8.34543,42.08995 18.27563,19.23076 15.91437,19.59337 15.96515,23.58489 0.0666,5.23312 -2.08469,13.96668 -4.35413,15.96515 -1.39396,1.22752 -15.69571,16.46135 -29.02756,17.41654 -11.84221,0.84846 -81.43645,2.49566 -86.35697,2.53991 -5.09256,0.0458 -13.48861,-2.50146 -18.50507,-3.99129 -5.24987,-1.55915 -9.55824,-9.02679 -12.69955,-14.51378 -5.43294,-9.48982 9.48679,-76.90541 10.15964,-80.91431 0.81689,-4.86713 46.44409,-7.98257 46.44409,-7.98257 0,0 -7.61973,1.08853 -8.70827,5.80551 -1.08853,4.71698 -9.7968,57.69227 -5.44267,66.40053 4.35414,8.70827 34.28736,8.43535 38.09867,8.34542 0,0 27.93902,-1.45138 30.84178,-12.33671 4.95064,-18.56488 3.2656,-32.656 4.71698,-42.4528 1.45137,-9.7968 1.08853,-11.97386 3.99128,-15.23946 2.90276,-3.2656 6.5312,-4.71698 6.5312,-4.71698 z"
     id="path3796"
     inkscape:connector-curvature="0"
     sodipodi:nodetypes="csssssssscssssssc" />
  <path
     style="opacity:0.99166667;fill:#000000;fill-opacity:1;fill-rule:evenodd;stroke:none"
     d="m 86.207437,231.66676 c 0,0 10.77593,38.9986 10.77593,47.20883 0,8.21024 -4.61826,20.52559 -0.51314,31.81465 4.105123,11.28907 8.210233,22.065 16.933603,22.57814 8.72338,0.51314 26.68326,-1.53942 35.40663,-2.05255 8.72337,-0.51314 37.45919,-7.18396 50.28767,-6.15768 12.82849,1.02628 12.82849,-2.05256 12.82849,3.59198 0,5.64453 8.21023,-35.91977 8.21023,-35.91977 0,0 -5.13139,-2.05256 -9.23651,-0.51314 -4.10511,1.53942 6.15768,0 -35.40662,3.59198 -41.5643,3.59198 -39.51175,7.69709 -43.61686,5.13139 -4.10512,-2.56569 -4.10512,-9.74965 -4.10512,-9.74965 0,0 64.14244,-11.28907 74.91837,-9.23651 10.77593,2.05256 11.28907,-2.5657 11.28907,3.59198 0,6.15767 1.53942,8.72337 1.53942,8.72337 l -4.61826,33.86721 c 0,0 -25.65697,-5.1314 51.31395,-8.21023 76.97093,-3.07884 88.26,-2.5657 91.33884,-6.67082 3.07883,-4.10511 20.52558,-56.95848 22.06499,-63.11616 1.53942,-6.15767 3.59198,-9.74965 0,-13.85476 -3.59197,-4.10512 -15.39418,-14.88105 -20.52558,-16.93361 -5.13139,-2.05256 -6.67081,-3.07884 -10.77593,-3.59197 -4.10511,-0.51314 -34.89348,4.61825 -44.12999,4.61825 -9.23651,0 -47.72198,-0.51314 -47.72198,-0.51314 l 0,31.81465 c 0,0 42.07744,-5.13139 60.55046,-4.61825 18.47303,0.51313 18.47303,-3.59198 19.49931,2.05255 1.02627,5.64454 0,10.26279 -4.61826,11.28907 -4.61826,1.02628 -63.11616,6.15768 -68.76069,4.10512 -5.64454,-2.05256 -8.72338,-5.64454 -8.72338,-5.64454 l 3.59198,-9.74965 -11.80221,21.55186 7.69709,9.74965 c 0,0 26.17012,-3.07883 51.8271,-2.05255 25.65697,1.02627 29.24895,0.51313 27.19639,5.13139 -2.05256,4.61826 -12.31535,5.64454 -12.31535,5.64454 0,0 -61.57674,6.15767 -63.6293,3.59197 -2.05256,-2.5657 -2.05256,-15.90732 -2.05256,-15.90732 0,0 0,-52.85337 2.05256,-62.08988 2.05256,-9.23652 3.07884,-14.36791 3.07884,-14.36791 l -47.20884,1.53942 c 0,0 9.74965,-1.02628 10.77593,3.59197 1.02628,4.61826 1.02628,13.34163 1.02628,13.34163 l -2.5657,3.59198 c 4.21903,0.64314 2.76065,29.54774 -1.53941,31.30151 -2.55872,1.04357 11.28907,3.59198 11.28907,3.59198 l -13.85477,8.21023 c 0,0 -80.04976,11.28907 -83.64174,6.67081 -3.59198,-4.61825 -5.1314,-3.59198 -3.07884,-8.21023 2.05256,-4.61826 82.10232,-9.23651 88.25999,-10.77593 6.15768,-1.53942 7.18396,-1.02628 7.18396,-1.02628 l -3.07884,-29.76209 c 0,0 -73.89209,5.13139 -95.44395,5.64453 -21.55186,0.51314 -23.60441,-0.51314 -30.275233,-1.02628 -6.67081,-0.51314 -5.13139,-2.56569 -7.18395,-0.51314 -2.05256,2.05256 -0.51314,5.1314 -0.51314,5.1314 z"
     id="path3798"
     inkscape:connector-curvature="0"
     sodipodi:nodetypes="csssssscssscssccsssssssccssssccccsscscsccsccsccsssccsssc" />
  <path
     style="opacity:0.99166667;fill:#000000;fill-opacity:1;fill-rule:evenodd;stroke:none"
     d="m 198.07185,296.32234 27.1964,-6.67082 -7.69709,-17.95988 3.07883,-57.98476 32.84093,-4.61826 0,38.9986 -2.5657,60.03733 -3.59197,14.3679 c 0,0 -35.91977,14.88105 -35.91977,12.31535 0,-2.5657 3.59198,-9.74965 -3.07884,-13.34163 -6.67081,-3.59197 -10.77593,-15.90732 -10.77593,-15.90732 z"
     id="path3800"
     inkscape:connector-curvature="0" />
  <path
     style="opacity:0.99166667;fill:#000000;fill-opacity:1;fill-rule:evenodd;stroke:none"
     d="m 152.40244,118.77607 c 0,0 -3.07884,-9.74965 1.53942,-19.499304 4.61825,-9.749654 8.72337,-11.289073 8.72337,-11.289073 0,0 -3.59198,3.078837 0.51314,9.749653 4.10511,6.670814 6.15767,7.697094 10.77593,6.670814 4.61825,-1.02628 15.90732,-6.157674 15.39418,-16.933607 -0.51314,-10.775929 -2.5657,-19.499301 -2.5657,-19.499301 0,0 8.21024,-1.026279 14.88105,-0.513139 6.67081,0.513139 7.69709,-2.565698 9.74965,2.052558 2.05256,4.618255 0.51314,9.236511 5.1314,10.26279 4.61825,1.026279 21.55186,-3.591977 33.35406,-6.670814 11.80221,-3.078837 19.49931,-0.513139 25.65698,10.26279 6.15767,10.775929 -12.31535,25.656983 -12.82849,28.735813 -0.51314,3.07884 -35.40662,2.5657 -35.40662,2.5657 0,0 15.39418,-9.74965 14.88104,-12.82849 -0.51314,-3.078834 -28.73581,-1.53941 -28.73581,-1.53941 l -11.80221,12.82848 28.73581,-1.02628 -4.10511,38.99861 c 0,0 2.56569,-9.23651 -2.05256,-9.74965 -4.61826,-0.51314 -54.90593,1.02628 -58.49791,1.53941 -3.59197,0.51314 -3.59197,4.10512 -3.59197,6.67082 0,2.5657 4.61825,3.59197 4.61825,3.59197 0,0 51.31395,4.61826 55.41907,0 4.10512,-4.61825 3.59198,-11.8022 3.59198,-18.47302 0,-6.67081 3.07883,-20.52558 3.07883,-20.52558 0,0 51.31396,0.51314 57.47163,0 6.15767,-0.51314 31.30151,-0.51314 35.40663,0 4.10511,0.51314 10.26279,1.02628 10.26279,1.02628 l 3.59197,4.61826 c 0,0 16.42047,21.03872 16.42047,25.65697 0,4.61826 3.59197,4.61826 0,9.74965 -3.59198,5.1314 -5.64454,6.67082 -5.64454,6.67082 l -27.19639,-15.90733 c 0,0 -0.51314,-5.13139 -2.5657,-6.15767 -2.05256,-1.02628 -7.69709,-3.07884 -12.82849,-3.07884 -5.13139,0 -48.23511,-6.67081 -48.74825,-0.51314 -0.51314,6.15768 -6.15767,10.26279 -0.51314,12.31535 5.64453,2.05256 27.70953,2.5657 35.91977,2.05256 8.21023,-0.51314 12.31534,5.13139 20.01244,0 7.69709,-5.1314 12.31535,-11.80221 12.31535,-11.80221 l 25.65697,17.44674 c 0,0 -8.72337,16.93361 -9.23651,21.03872 -0.51314,4.10512 -4.61826,23.60442 -11.28907,23.60442 -6.67081,0 -68.76069,3.07884 -73.37895,2.5657 -4.61826,-0.51314 -4.61826,-17.95989 -4.61826,-17.95989 0,0 1.53942,-5.64453 4.61826,-5.64453 3.07884,0 37.45918,1.53942 47.72197,-0.51314 10.26279,-2.05256 10.77593,2.05256 10.77593,-2.5657 0,-4.61825 -0.51314,-5.13139 -3.07883,-6.15767 -2.5657,-1.02628 -50.28767,-8.72337 -54.39279,-2.05256 -4.10512,6.67081 0.51314,10.26279 0.51314,10.26279 l 15.39418,6.15767 -33.35406,20.01245 -31.30151,-1.53942 c 0,0 -66.70814,7.18395 -70.30012,-4.10512 -3.59197,-11.28907 28.73582,-16.9336 28.73582,-16.9336 0,0 55.41906,3.07883 56.44534,-0.51314 1.02628,-3.59198 0,-10.26279 0,-10.26279 0,0 -13.85477,-1.02628 -16.42046,-1.02628 -2.5657,0 -31.30151,-1.53942 -34.38035,1.02628 -3.07884,2.56569 -5.1314,13.34162 -5.1314,13.34162 l 0,1.53942 -28.73581,11.28907 c 0,0 -7.18395,-50.80081 -7.18395,-58.4979 0,-7.69709 1.53942,-16.42047 1.53942,-16.42047 l 8.72337,-4.61825 z"
     id="path3804"
     inkscape:connector-curvature="0" />
  <path
     style="opacity:0.99166667;fill:#000000;fill-opacity:1;fill-rule:evenodd;stroke:none"
     d="m 133.92942,174.19513 c 0,0 0,23.60442 2.56569,24.6307 2.5657,1.02628 33.35407,0 33.35407,0 l 94.93081,1.02628 c 0,0 82.10232,-36.4329 82.10232,-39.51174 0,-3.07884 -9.23651,-20.01244 -9.23651,-20.01244 l -18.47302,-4.10512 c 0,0 3.59198,9.74965 -1.02628,12.31535 -4.61826,2.5657 3.59198,-11.28907 3.59198,-11.28907 l -5.1314,1.02628 -1.02628,10.77593 -6.67081,2.05256 c 0,0 -17.95988,-0.51314 -20.52558,-0.51314 -2.5657,0 -34.89349,-0.51314 -34.89349,-0.51314 l 1.02628,-11.28907 49.26139,-4.61826 -52.34023,-15.39418 -27.70953,-6.15768 -1.02628,27.70954 6.15767,4.61825 c 0,0 -0.51313,7.6971 -8.21023,7.6971 -7.69709,0 -61.0636,0.51313 -61.0636,0.51313 l -5.13139,7.6971 14.3679,12.31535 54.90593,-1.53942 4.61826,9.23651 -64.14244,-0.51314 -18.47303,-0.51314 z"
     id="path3806"
     inkscape:connector-curvature="0" />
  <path
     style="opacity:0.99166667;fill:#000000;fill-opacity:1;fill-rule:evenodd;stroke:none"
     d="m 207.54701,248.23094 c 0,0 10.88534,4.35414 12.33671,8.70827 1.45138,4.35413 5.80551,6.5312 5.80551,6.5312 l 3.62845,-50.07253 31.20462,-12.33671 71.11751,-19.5936 18.86791,-26.85049 -15.23947,-17.41653 -15.23946,2.90275 -12.33672,31.93031 c 0,0 -20.31928,15.23947 -47.89546,13.78809 -27.57618,-1.45138 -19.5936,35.55876 -21.77067,7.25689 -2.17706,-28.30186 -17.41653,31.20462 -17.41653,31.20462 z"
     id="path3808"
     inkscape:connector-curvature="0" />
  <path
     style="opacity:0.99166666999999997;fill:#fdfdfd;fill-opacity:1;fill-rule:evenodd;stroke:none"
     d="m 263.42505,169.85655 51.52391,-0.72569 -0.72569,17.41653 -57.32942,-1.45138 2.17707,-12.33671 z"
     id="path3810"
     inkscape:connector-curvature="0" />
  <path
     style="opacity:0.99166666999999997;fill:#000000;fill-opacity:1;fill-rule:evenodd;stroke:none"
     d="m 185.7565,325.57129 c 0,0 20.52558,-3.07884 24.6307,1.53941 4.10512,4.61826 5.64453,11.80221 5.64453,11.80221 l 27.1964,-22.065 -8.21023,-132.90313 c 0,0 -15.90733,36.94605 -17.44675,38.9986 -1.53942,2.05256 -2.05256,7.18396 -2.05256,7.18396 l 11.28907,5.64453 -11.80221,79.02349 5.1314,-40.02489 c 0,0 -4.10512,21.03872 -11.28907,25.14384 -7.18395,4.10512 -18.47302,13.85477 -18.47302,13.85477 z"
     id="path3812"
     inkscape:connector-curvature="0" />
  <path
     style="opacity:0.99166667;fill:#000000;fill-opacity:1;fill-rule:evenodd;stroke:none"
     d="m 257.08289,252.19234 c 0,0 -4.10511,1.02628 -3.07883,6.15767 1.02628,5.1314 3.07883,5.1314 1.02628,5.1314 -2.05256,0 -7.6971,5.13139 -9.74965,-0.51314 -2.05256,-5.64454 -4.61826,-21.55186 -2.5657,-22.065 2.05256,-0.51314 6.67081,-1.53942 6.67081,-1.53942 l 5.1314,3.07884 z"
     id="path3814"
     inkscape:connector-curvature="0" />
  <path
     style="opacity:0.99166667;fill:#000000;fill-opacity:1;fill-rule:evenodd;stroke:none"
     d="m 256.56976,280.41501 c 0,0 -2.05256,-1.53942 -2.5657,4.61825 -0.51314,6.15768 3.07883,10.2628 3.07883,10.2628 l -1.53941,1.02627 -5.64454,-0.51314 -3.07884,-12.82848"
     id="path3816"
     inkscape:connector-curvature="0" />
  <path
     style="opacity:0.99166667;fill:#000000;fill-opacity:1;fill-rule:evenodd;stroke:none"
     d="m 233.47848,108.51327 -10.77593,9.74965 c 0,0 19.4993,7.18396 24.63069,6.67082 5.1314,-0.51314 31.81465,-5.1314 31.81465,-5.1314 0,0 -17.95988,-0.51314 -17.95988,-4.61825 0,-4.10512 1.53942,-12.82849 1.53942,-12.82849"
     id="path3818"
     inkscape:connector-curvature="0" />
</svg>
