<?xml version="1.0" encoding="utf-8"?>
<!-- Svg Vector Icons : http://www.onlinewebfonts.com/icon -->
<!DOCTYPE svg PUBLIC "-//W3C//DTD SVG 1.1//EN" "http://www.w3.org/Graphics/SVG/1.1/DTD/svg11.dtd">
<svg version="1.1" xmlns="http://www.w3.org/2000/svg" xmlns:xlink="http://www.w3.org/1999/xlink" x="0px" y="0px" viewBox="0 0 1000 1000" enable-background="new 0 0 1000 1000" xml:space="preserve">
<metadata> Svg Vector Icons : http://www.onlinewebfonts.com/icon </metadata>
<g><g transform="translate(0.000000,512.000000) scale(0.100000,-0.100000)"><path d="M227.1,5006.5c-55.5-23-112.9-90-124.4-143.5c-15.3-72.7,40.2-187.6,103.3-212.4c26.8-11.5,179.9-26.8,336.9-36.4c951.2-53.6,1665.1-250.7,2166.6-595.2c277.5-191.4,509.1-488,589.5-756c15.3-49.8,28.7-160.8,28.7-245c0-155-5.7-170.3-112.9-371.3c-45.9-86.1-40.2-111,168.4-763.6c95.7-296.7,174.2-562.7,174.2-591.4c0-28.7-30.6-91.9-74.6-147.4c-124.4-164.6-145.5-216.3-145.5-375.1c0-103.3,11.5-162.7,36.4-210.5c44-82.3,294.7-430.6,635.4-882.3c269.9-357.9,306.2-417.2,289-467c-15.3-36.3-135.9-88-310.1-132.1c-346.4-88-365.6-126.3-260.3-518.7c32.5-124.4,57.4-237.3,51.7-250.7c-3.8-11.5-67-32.5-139.7-45.9c-70.8-11.5-271.8-47.9-444-76.6c-273.7-47.9-319.6-61.3-363.6-105.3c-72.7-70.8-68.9-183.7,11.5-296.7c120.6-174.2,338.8-365.5,539.7-476.6l101.4-53.6l-84.2-45.9c-51.7-28.7-95.7-70.8-114.8-112.9c-32.5-67-32.5-76.6,15.3-315.8c70.8-357.9,42.1-468.9-141.6-539.7c-114.8-44-486.1-44-874.7,1.9c-499.5,57.4-639.2,67-759.8,47.8c-294.7-47.8-480.4-229.7-597.1-585.7l-34.5-101.4H567.7c-365.5,0-419.1-15.3-455.5-126.3c-26.8-78.5-9.6-145.5,51.7-202.9c45.9-44,51.7-44,503.4-44c547.4,0,518.7-13.4,610.5,273.7c74.6,237.3,128.2,331.1,212.4,371.3c86.1,44,183.7,42.1,583.7-3.8c179.9-23,472.7-44,652.6-51.7c390.4-13.4,534,11.5,713.9,128.2c273.7,178,344.5,449.8,241.2,930.2c-7.7,32.5,7.7,47.9,68.9,74.7c88,40.2,183.7,139.7,201,212.4c7.7,26.8,7.7,86.1,1.9,134c-13.4,126.3-86.1,206.7-267.9,296.7c-86.1,42.1-199.1,107.2-252.6,145.4l-95.7,70.8l279.4,51.7c357.9,65.1,444,107.2,516.8,250.7c45.9,91.9,47.8,246.9,0,440.2l-34.5,145.4l88,23c241.2,59.3,482.3,245,511,392.4c36.4,199.1-36.4,348.3-411.5,847.9c-377,503.4-535.9,723.5-556.9,779c-13.4,36.4,0,70.8,88,201c57.4,88,109.1,179.9,114.8,204.8c7.7,24.9,7.7,112.9,1.9,193.3c-7.7,114.8-44,258.4-174.2,658.4l-166.5,512.9l40.2,76.6c139.7,275.6,116.8,689-61.3,1043.1C3207,4355.7,2301.8,4828.5,1002.2,4970.1C707.5,5002.6,267.3,5021.8,227.1,5006.5z"/><path d="M7050.2,671.4c-23-11.5-51.7-38.3-65.1-59.3c-13.4-21-160.8-828.7-329.2-1793.3c-166.5-964.6-310.1-1774.2-315.8-1801c-9.6-32.5-99.5,294.7-292.9,1071.8C5777.4-838.6,5764-788.9,5704.7-727.6c-88,88.1-214.4,76.6-281.3-26.8c-15.3-24.9-143.5-352.2-285.2-729.2c-141.6-377-262.2-700.5-269.9-717.7c-11.5-28.7-38.3-34.5-153.1-34.5c-166.5,0-225.8-19.1-269.9-88c-53.6-80.4-42.1-178,30.6-243.1l61.3-53.6l275.6,5.7c245,5.7,279.4,9.6,312,44c21,21.1,124.4,266,227.7,543.6l189.5,503.3l312-1249.8c172.3-689,323.5-1274.7,336.8-1301.5c72.7-143.5,269.9-149.3,340.7-9.6c17.2,32.5,168.4,853.6,338.8,1839.3c168.4,979.9,310.1,1781.9,313.9,1785.7c1.9,1.9,176.1-677.5,382.8-1512c424.9-1697.6,400-1623,564.6-1623c153.1,0,145.4-19.1,470.8,1203.9C8765-1786,8899-1290.3,8902.8-1284.6c5.7,3.8,139.7-520.6,300.5-1165.6c160.8-645,306.2-1198.1,321.5-1230.6c74.6-151.2,271.8-149.3,344.5,1.9l30.6,68.9l-379,1523.5C9310.5-1248.2,9128.7-519,9113.4-467.3C9077-346.8,9010-283.6,8916.2-283.6c-105.3,0-164.6-57.4-206.7-197.1c-19.1-65.1-155-568.4-302.4-1117.7c-145.5-551.2-269.9-993.3-277.5-985.7c-5.8,7.7-187.6,715.8-400,1573.2c-214.4,857.4-400,1582.8-415.3,1611.5c-13.4,28.7-42.1,61.2-61.3,72.7C7207.1,696.3,7101.9,696.3,7050.2,671.4z"/></g></g>
</svg>