<?xml version="1.0" encoding="UTF-8" standalone="no"?>
<!-- Generator: Adobe Illustrator 18.0.0, SVG Export Plug-In . SVG Version: 6.00 Build 0)  -->

<svg
   xmlns:dc="http://purl.org/dc/elements/1.1/"
   xmlns:cc="http://creativecommons.org/ns#"
   xmlns:rdf="http://www.w3.org/1999/02/22-rdf-syntax-ns#"
   xmlns:svg="http://www.w3.org/2000/svg"
   xmlns="http://www.w3.org/2000/svg"
   xmlns:sodipodi="http://sodipodi.sourceforge.net/DTD/sodipodi-0.dtd"
   xmlns:inkscape="http://www.inkscape.org/namespaces/inkscape"
   version="1.1"
   id="Capa_1"
   x="0px"
   y="0px"
   viewBox="0 0 217.583 186.583"
   xml:space="preserve"
   sodipodi:docname="wheeled_robot.svg"
   width="217.58299"
   height="186.58299"
   inkscape:version="0.92.1 r15371"><metadata
     id="metadata39"><rdf:RDF><cc:Work
         rdf:about=""><dc:format>image/svg+xml</dc:format><dc:type
           rdf:resource="http://purl.org/dc/dcmitype/StillImage" /><dc:title></dc:title></cc:Work></rdf:RDF></metadata><defs
     id="defs37" /><sodipodi:namedview
     pagecolor="#ffffff"
     bordercolor="#666666"
     borderopacity="1"
     objecttolerance="10"
     gridtolerance="10"
     guidetolerance="10"
     inkscape:pageopacity="0"
     inkscape:pageshadow="2"
     inkscape:window-width="1366"
     inkscape:window-height="705"
     id="namedview35"
     showgrid="false"
     inkscape:zoom="0.72059351"
     inkscape:cx="233.28449"
     inkscape:cy="309.85733"
     inkscape:window-x="-8"
     inkscape:window-y="-8"
     inkscape:window-maximized="1"
     inkscape:current-layer="Capa_1" /><path
     d="m 66.694806,169.24992 c 0,9.573 -7.76,17.333 -17.333,17.333 -9.573,0 -17.333,-7.76 -17.333,-17.333 0,-9.573 7.76,-17.333 17.333,-17.333 9.573,0 17.333,7.76 17.333,17.333 z m 84.666004,-17.333 c -9.573,0 -17.333,7.76 -17.333,17.333 0,9.573 7.76,17.333 17.333,17.333 9.573,0 17.333,-7.76 17.333,-17.333 0,-9.573 -7.76,-17.333 -17.333,-17.333 z m 29.667,-40.125 H 19.694806 c -9.7570005,0 -17.6670005,7.701 -17.6670005,17.458 v 20.333 c 0,8.878 6.555,16.204 15.0840005,17.457 1.141,-16.801 15.164,-30.353 32.249,-30.353 17.156,0 31.228,14.104 32.265,30.104 h 37.469004 c 1.037,-16 15.109,-30.104 32.265,-30.104 17.085,0 30.775,13.437 31.916,30.238 8.529,-1.253 14.751,-8.465 14.751,-17.343 v -20.332 c 10e-4,-9.757 -7.242,-17.458 -16.999,-17.458 z"
     id="path2"
     inkscape:connector-curvature="0"
     sodipodi:nodetypes="sssssssssssssscsccscscs" /><g
     id="g4"
     transform="translate(0,-45.000178)" /><g
     id="g6"
     transform="translate(0,-45.000178)" /><g
     id="g8"
     transform="translate(0,-45.000178)" /><g
     id="g10"
     transform="translate(0,-45.000178)" /><g
     id="g12"
     transform="translate(0,-45.000178)" /><g
     id="g14"
     transform="translate(0,-45.000178)" /><g
     id="g16"
     transform="translate(0,-45.000178)" /><g
     id="g18"
     transform="translate(0,-45.000178)" /><g
     id="g20"
     transform="translate(0,-45.000178)" /><g
     id="g22"
     transform="translate(0,-45.000178)" /><g
     id="g24"
     transform="translate(0,-45.000178)" /><g
     id="g26"
     transform="translate(0,-45.000178)" /><g
     id="g28"
     transform="translate(0,-45.000178)" /><g
     id="g30"
     transform="translate(0,-45.000178)" /><g
     id="g32"
     transform="translate(0,-45.000178)" /><path
     inkscape:connector-curvature="0"
     d="m 170.2048,89.679622 c 0,7.180021 -5.82,13.000078 -13,13.000078 H 98.204796 c -7.18,0 -13,-5.820057 -13,-13.000078 V 20.679516 c 0,-7.18 5.82,-12.9999928 13,-12.9999928 H 157.2048 c 7.18,0 13,5.8199928 13,12.9999928 z"
     id="path2-4"
     sodipodi:nodetypes="sssssssss" /><path
     inkscape:connector-curvature="0"
     d="m 208.61686,90.155545 c -3.322,0 -6.348,3.337009 -6.348,7.000021 0,3.663054 3.05,7.000054 6.399,7.000054 4.143,0 7.5,3.357 7.5,7.5 0,4.143 -3.357,7.333 -7.5,7.333 -8.961,0 -16.844,-5.416 -19.968,-14.416 h -26.701 v 7.333 c 0,4.143 -3.357,7.5 -7.5,7.5 -4.143,0 -7.5,-3.357 -7.5,-7.5 V 97.405566 c 0,-4.143012 3.357,-7.833024 7.5,-7.833024 h 34.015 c 2.982,-8.000024 10.983,-14.584045 20.103,-14.584045 4.143,0 7.5,3.441012 7.5,7.583024 0,4.142012 -3.358,7.584024 -7.5,7.584024 z"
     id="path2-4-3-8"
     sodipodi:nodetypes="sssssccssssscsss" /><path
     inkscape:connector-curvature="0"
     d="m 134.17576,69.620022 h 6.4137 v 7.331801 c 0,2.531309 2.1711,4.582375 4.85053,4.582375 2.67944,0 4.85054,-2.051066 4.85054,-4.582375 v -7.331801 h 6.52105 c 2.67879,0 4.47349,2.140886 4.47349,4.671585 v 0.0446 c 0,8.435844 -7.23894,15.319185 -16.16844,15.319185 -8.92951,0 -16.16845,-6.838741 -16.16845,-15.274585 v -0.0892 c 0,-2.530699 2.54879,-4.671585 5.22758,-4.671585 z"
     id="path2-4-3-7"
     sodipodi:nodetypes="scssscsssssss"
     style="fill:#ffffff;fill-opacity:1;stroke-width:0.62860554" /><path
     inkscape:connector-curvature="0"
     d="m 136.16007,48.599422 c 0,1.69184 -1.31109,3.06321 -2.92856,3.06321 h -13.29109 c -1.61746,0 -2.92855,-1.37137 -2.92855,-3.06321 V 32.34085 c 0,-1.691834 1.31109,-3.06321 2.92855,-3.06321 h 13.29109 c 1.61747,0 2.92856,1.371376 2.92856,3.06321 z M 133.45679,35.60034 c 0,-0.6289 -0.48749,-1.138807 -1.08875,-1.138807 h -3.00355 c -0.60126,0 -1.08875,0.509907 -1.08875,1.138807 v 3.141676 c 0,0.628901 0.48749,1.138807 1.08875,1.138807 h 3.00355 c 0.60126,0 1.08875,-0.509906 1.08875,-1.138807 z"
     id="path2-4-6"
     sodipodi:nodetypes="ssssssssssssssssss"
     style="fill:#ffffff;fill-opacity:1;stroke-width:0.23039401" /><path
     inkscape:connector-curvature="0"
     d="m 161.28859,48.599422 c 0,1.69184 -1.31109,3.06321 -2.92855,3.06321 h -13.2911 c -1.61745,0 -2.92855,-1.37137 -2.92855,-3.06321 V 32.340849 c 0,-1.691835 1.3111,-3.06321 2.92855,-3.06321 h 13.2911 c 1.61746,0 2.92855,1.371375 2.92855,3.06321 z m -2.70328,-12.999083 c 0,-0.6289 -0.48748,-1.138807 -1.08874,-1.138807 h -3.00356 c -0.60126,0 -1.08874,0.509907 -1.08874,1.138807 v 3.141676 c 0,0.6289 0.48748,1.138807 1.08874,1.138807 h 3.00356 c 0.60126,0 1.08874,-0.509907 1.08874,-1.138807 z"
     id="path2-4-6-9"
     sodipodi:nodetypes="ssssssssssssssssss"
     style="fill:#ffffff;fill-opacity:1;stroke-width:0.23039401" /><rect
     style="fill:#666666;fill-opacity:1;stroke:#000000;stroke-width:7.55905533;stroke-linecap:round;stroke-linejoin:round;stroke-miterlimit:4;stroke-dasharray:none;stroke-dashoffset:0;stroke-opacity:1;paint-order:markers fill stroke"
     id="rect4823"
     width="0.98128384"
     height="0.98128384"
     x="130.47549"
     y="37.600357" /><rect
     style="fill:#666666;fill-opacity:1;stroke:#000000;stroke-width:7.55905533;stroke-linecap:round;stroke-linejoin:round;stroke-miterlimit:4;stroke-dasharray:none;stroke-dashoffset:0;stroke-opacity:1;paint-order:markers fill stroke"
     id="rect4823-0"
     width="0.98128384"
     height="0.98128384"
     x="156.29919"
     y="37.083069" /></svg>